<svg class="main-svg" xmlns="http://www.w3.org/2000/svg" xmlns:xlink="http://www.w3.org/1999/xlink" width="1200" height="500" viewBox="0 0 1200 500"><rect x="0" y="0" width="1200" height="500" style="fill: rgb(255, 255, 255); fill-opacity: 1;"/><defs id="defs-1ef64a"><g class="clips"/><g class="gradients"><linearGradient x1="0" x2="0" y1="1" y2="0" id="g1ef64a-cbcoloraxis"><stop offset="0%" stop-color="rgb(0, 0, 0)" stop-opacity="1"/><stop offset="33.33333333333333%" stop-color="rgb(230, 0, 0)" stop-opacity="1"/><stop offset="66.66666666666666%" stop-color="rgb(255, 210, 0)" stop-opacity="1"/><stop offset="100%" stop-color="rgb(255, 255, 255)" stop-opacity="1"/></linearGradient></g></defs><g class="bglayer"/><g class="layer-below"><g class="imagelayer"/><g class="shapelayer"/></g><g class="cartesianlayer"/><g class="polarlayer"/><g class="ternarylayer"/><g class="geolayer"/><g class="funnelarealayer"/><g class="pielayer"/><g class="treemaplayer"/><g class="sunburstlayer"/><g class="glimages"/><g class="parcatslayer" style="pointer-events: all;"><g class="trace parcats" transform="translate(80, 100)"><g class="paths"><path class="path" stroke-opacity="1" fill="rgb(0, 0, 0)" fill-opacity="0.6" stroke="lightgray" stroke-width="0.2" d="M 40,4l16,0 C56,4 187.5,0 187.5,0l16,0 C203.5,0 335,4 335,4l16,0 C351,4 482.5,4 482.5,4l16,0 C498.5,4 630,4 630,4l16,0 C646,4 777.5,4 777.5,4l16,0 C793.5,4 925,0 925,0l16,0 l0,7.6000000000000005 l -16,0 C925,7.6000000000000005 793.5,11.600000000000001 793.5,11.600000000000001l-16,0 C777.5,11.600000000000001 646,11.600000000000001 646,11.600000000000001l-16,0 C630,11.600000000000001 498.5,11.600000000000001 498.5,11.600000000000001l-16,0 C482.5,11.600000000000001 351,11.600000000000001 351,11.600000000000001l-16,0 C335,11.600000000000001 203.5,7.6000000000000005 203.5,7.6000000000000005l-16,0 C187.5,7.6000000000000005 56,11.600000000000001 56,11.600000000000001l-16,0 Z"/><path class="path" stroke-opacity="1" fill="rgb(243, 105, 0)" fill-opacity="0.6" stroke="lightgray" stroke-width="0.2" d="M 40,156.4l16,0 C56,156.4 187.5,68.4 187.5,68.4l16,0 C203.5,68.4 335,72.4 335,72.4l16,0 C351,72.4 482.5,80 482.5,80l16,0 C498.5,80 630,125.6 630,125.6l16,0 C646,125.6 777.5,308.4 777.5,308.4l16,0 C793.5,308.4 925,152.39999999999998 925,152.39999999999998l16,0 l0,7.6000000000000005 l -16,0 C925,159.99999999999997 793.5,316 793.5,316l-16,0 C777.5,316 646,133.2 646,133.2l-16,0 C630,133.2 498.5,87.6 498.5,87.6l-16,0 C482.5,87.6 351,80 351,80l-16,0 C335,80 203.5,76 203.5,76l-16,0 C187.5,76 56,164 56,164l-16,0 Z"/><path class="path" stroke-opacity="1" fill="rgb(243, 105, 0)" fill-opacity="0.6" stroke="lightgray" stroke-width="0.2" d="M 40,19.200000000000003l16,0 C56,19.200000000000003 187.5,15.200000000000001 187.5,15.200000000000001l16,0 C203.5,15.200000000000001 335,19.200000000000003 335,19.200000000000003l16,0 C351,19.200000000000003 482.5,171.6 482.5,171.6l16,0 C498.5,171.6 630,19.200000000000003 630,19.200000000000003l16,0 C646,19.200000000000003 777.5,19.200000000000003 777.5,19.200000000000003l16,0 C793.5,19.200000000000003 925,23.200000000000003 925,23.200000000000003l16,0 l0,15.200000000000001 l -16,0 C925,38.400000000000006 793.5,34.400000000000006 793.5,34.400000000000006l-16,0 C777.5,34.400000000000006 646,34.400000000000006 646,34.400000000000006l-16,0 C630,34.400000000000006 498.5,186.79999999999998 498.5,186.79999999999998l-16,0 C482.5,186.79999999999998 351,34.400000000000006 351,34.400000000000006l-16,0 C335,34.400000000000006 203.5,30.400000000000002 203.5,30.400000000000002l-16,0 C187.5,30.400000000000002 56,34.400000000000006 56,34.400000000000006l-16,0 Z"/><path class="path" stroke-opacity="1" fill="rgb(243, 105, 0)" fill-opacity="0.6" stroke="lightgray" stroke-width="0.2" d="M 40,34.400000000000006l16,0 C56,34.400000000000006 187.5,30.400000000000002 187.5,30.400000000000002l16,0 C203.5,30.400000000000002 335,171.6 335,171.6l16,0 C351,171.6 482.5,19.200000000000003 482.5,19.200000000000003l16,0 C498.5,19.200000000000003 630,34.400000000000006 630,34.400000000000006l16,0 C646,34.400000000000006 777.5,34.400000000000006 777.5,34.400000000000006l16,0 C793.5,34.400000000000006 925,38.400000000000006 925,38.400000000000006l16,0 l0,15.200000000000001 l -16,0 C925,53.60000000000001 793.5,49.60000000000001 793.5,49.60000000000001l-16,0 C777.5,49.60000000000001 646,49.60000000000001 646,49.60000000000001l-16,0 C630,49.60000000000001 498.5,34.400000000000006 498.5,34.400000000000006l-16,0 C482.5,34.400000000000006 351,186.79999999999998 351,186.79999999999998l-16,0 C335,186.79999999999998 203.5,45.6 203.5,45.6l-16,0 C187.5,45.6 56,49.60000000000001 56,49.60000000000001l-16,0 Z"/><path class="path" stroke-opacity="1" fill="rgb(243, 105, 0)" fill-opacity="0.6" stroke="lightgray" stroke-width="0.2" d="M 40,49.60000000000001l16,0 C56,49.60000000000001 187.5,45.6 187.5,45.6l16,0 C203.5,45.6 335,186.79999999999998 335,186.79999999999998l16,0 C351,186.79999999999998 482.5,34.400000000000006 482.5,34.400000000000006l16,0 C498.5,34.400000000000006 630,270.4 630,270.4l16,0 C646,270.4 777.5,49.60000000000001 777.5,49.60000000000001l16,0 C793.5,49.60000000000001 925,53.60000000000001 925,53.60000000000001l16,0 l0,7.6000000000000005 l -16,0 C925,61.20000000000001 793.5,57.20000000000001 793.5,57.20000000000001l-16,0 C777.5,57.20000000000001 646,278 646,278l-16,0 C630,278 498.5,42.00000000000001 498.5,42.00000000000001l-16,0 C482.5,42.00000000000001 351,194.39999999999998 351,194.39999999999998l-16,0 C335,194.39999999999998 203.5,53.2 203.5,53.2l-16,0 C187.5,53.2 56,57.20000000000001 56,57.20000000000001l-16,0 Z"/><path class="path" stroke-opacity="1" fill="rgb(243, 105, 0)" fill-opacity="0.6" stroke="lightgray" stroke-width="0.2" d="M 40,57.20000000000001l16,0 C56,57.20000000000001 187.5,53.2 187.5,53.2l16,0 C203.5,53.2 335,194.39999999999998 335,194.39999999999998l16,0 C351,194.39999999999998 482.5,186.79999999999998 482.5,186.79999999999998l16,0 C498.5,186.79999999999998 630,49.60000000000001 630,49.60000000000001l16,0 C646,49.60000000000001 777.5,57.20000000000001 777.5,57.20000000000001l16,0 C793.5,57.20000000000001 925,61.20000000000001 925,61.20000000000001l16,0 l0,7.6000000000000005 l -16,0 C925,68.80000000000001 793.5,64.80000000000001 793.5,64.80000000000001l-16,0 C777.5,64.80000000000001 646,57.20000000000001 646,57.20000000000001l-16,0 C630,57.20000000000001 498.5,194.39999999999998 498.5,194.39999999999998l-16,0 C482.5,194.39999999999998 351,201.99999999999997 351,201.99999999999997l-16,0 C335,201.99999999999997 203.5,60.800000000000004 203.5,60.800000000000004l-16,0 C187.5,60.800000000000004 56,64.80000000000001 56,64.80000000000001l-16,0 Z"/><path class="path" stroke-opacity="1" fill="rgb(243, 105, 0)" fill-opacity="0.6" stroke="lightgray" stroke-width="0.2" d="M 40,64.80000000000001l16,0 C56,64.80000000000001 187.5,129.60000000000002 187.5,129.60000000000002l16,0 C203.5,129.60000000000002 335,34.400000000000006 335,34.400000000000006l16,0 C351,34.400000000000006 482.5,42.00000000000001 482.5,42.00000000000001l16,0 C498.5,42.00000000000001 630,57.20000000000001 630,57.20000000000001l16,0 C646,57.20000000000001 777.5,64.80000000000001 777.5,64.80000000000001l16,0 C793.5,64.80000000000001 925,68.80000000000001 925,68.80000000000001l16,0 l0,7.6000000000000005 l -16,0 C925,76.4 793.5,72.4 793.5,72.4l-16,0 C777.5,72.4 646,64.80000000000001 646,64.80000000000001l-16,0 C630,64.80000000000001 498.5,49.60000000000001 498.5,49.60000000000001l-16,0 C482.5,49.60000000000001 351,42.00000000000001 351,42.00000000000001l-16,0 C335,42.00000000000001 203.5,137.20000000000002 203.5,137.20000000000002l-16,0 C187.5,137.20000000000002 56,72.4 56,72.4l-16,0 Z"/><path class="path" stroke-opacity="1" fill="rgb(243, 105, 0)" fill-opacity="0.6" stroke="lightgray" stroke-width="0.2" d="M 40,72.4l16,0 C56,72.4 187.5,137.20000000000002 187.5,137.20000000000002l16,0 C203.5,137.20000000000002 335,42.00000000000001 335,42.00000000000001l16,0 C351,42.00000000000001 482.5,194.39999999999998 482.5,194.39999999999998l16,0 C498.5,194.39999999999998 630,64.80000000000001 630,64.80000000000001l16,0 C646,64.80000000000001 777.5,72.4 777.5,72.4l16,0 C793.5,72.4 925,76.4 925,76.4l16,0 l0,15.200000000000001 l -16,0 C925,91.60000000000001 793.5,87.60000000000001 793.5,87.60000000000001l-16,0 C777.5,87.60000000000001 646,80.00000000000001 646,80.00000000000001l-16,0 C630,80.00000000000001 498.5,209.59999999999997 498.5,209.59999999999997l-16,0 C482.5,209.59999999999997 351,57.20000000000001 351,57.20000000000001l-16,0 C335,57.20000000000001 203.5,152.4 203.5,152.4l-16,0 C187.5,152.4 56,87.60000000000001 56,87.60000000000001l-16,0 Z"/><path class="path" stroke-opacity="1" fill="rgb(243, 105, 0)" fill-opacity="0.6" stroke="lightgray" stroke-width="0.2" d="M 40,87.60000000000001l16,0 C56,87.60000000000001 187.5,152.4 187.5,152.4l16,0 C203.5,152.4 335,201.99999999999997 335,201.99999999999997l16,0 C351,201.99999999999997 482.5,49.60000000000001 482.5,49.60000000000001l16,0 C498.5,49.60000000000001 630,80.00000000000001 630,80.00000000000001l16,0 C646,80.00000000000001 777.5,87.60000000000001 777.5,87.60000000000001l16,0 C793.5,87.60000000000001 925,91.60000000000001 925,91.60000000000001l16,0 l0,7.6000000000000005 l -16,0 C925,99.2 793.5,95.2 793.5,95.2l-16,0 C777.5,95.2 646,87.60000000000001 646,87.60000000000001l-16,0 C630,87.60000000000001 498.5,57.20000000000001 498.5,57.20000000000001l-16,0 C482.5,57.20000000000001 351,209.59999999999997 351,209.59999999999997l-16,0 C335,209.59999999999997 203.5,160 203.5,160l-16,0 C187.5,160 56,95.2 56,95.2l-16,0 Z"/><path class="path" stroke-opacity="1" fill="rgb(243, 105, 0)" fill-opacity="0.6" stroke="lightgray" stroke-width="0.2" d="M 40,95.2l16,0 C56,95.2 187.5,160 187.5,160l16,0 C203.5,160 335,209.59999999999997 335,209.59999999999997l16,0 C351,209.59999999999997 482.5,57.20000000000001 482.5,57.20000000000001l16,0 C498.5,57.20000000000001 630,278 630,278l16,0 C646,278 777.5,95.2 777.5,95.2l16,0 C793.5,95.2 925,99.2 925,99.2l16,0 l0,7.6000000000000005 l -16,0 C925,106.8 793.5,102.8 793.5,102.8l-16,0 C777.5,102.8 646,285.6 646,285.6l-16,0 C630,285.6 498.5,64.80000000000001 498.5,64.80000000000001l-16,0 C482.5,64.80000000000001 351,217.19999999999996 351,217.19999999999996l-16,0 C335,217.19999999999996 203.5,167.6 203.5,167.6l-16,0 C187.5,167.6 56,102.8 56,102.8l-16,0 Z"/><path class="path" stroke-opacity="1" fill="rgb(243, 105, 0)" fill-opacity="0.6" stroke="lightgray" stroke-width="0.2" d="M 40,102.8l16,0 C56,102.8 187.5,167.6 187.5,167.6l16,0 C203.5,167.6 335,217.19999999999996 335,217.19999999999996l16,0 C351,217.19999999999996 482.5,209.59999999999997 482.5,209.59999999999997l16,0 C498.5,209.59999999999997 630,87.60000000000001 630,87.60000000000001l16,0 C646,87.60000000000001 777.5,102.8 777.5,102.8l16,0 C793.5,102.8 925,106.8 925,106.8l16,0 l0,15.200000000000001 l -16,0 C925,122 793.5,118 793.5,118l-16,0 C777.5,118 646,102.80000000000001 646,102.80000000000001l-16,0 C630,102.80000000000001 498.5,224.79999999999995 498.5,224.79999999999995l-16,0 C482.5,224.79999999999995 351,232.39999999999995 351,232.39999999999995l-16,0 C335,232.39999999999995 203.5,182.79999999999998 203.5,182.79999999999998l-16,0 C187.5,182.79999999999998 56,118 56,118l-16,0 Z"/><path class="path" stroke-opacity="1" fill="rgb(243, 105, 0)" fill-opacity="0.6" stroke="lightgray" stroke-width="0.2" d="M 40,118l16,0 C56,118 187.5,259.20000000000005 187.5,259.20000000000005l16,0 C203.5,259.20000000000005 335,57.20000000000001 335,57.20000000000001l16,0 C351,57.20000000000001 482.5,224.79999999999995 482.5,224.79999999999995l16,0 C498.5,224.79999999999995 630,102.80000000000001 630,102.80000000000001l16,0 C646,102.80000000000001 777.5,118 777.5,118l16,0 C793.5,118 925,122 925,122l16,0 l0,7.6000000000000005 l -16,0 C925,129.6 793.5,125.6 793.5,125.6l-16,0 C777.5,125.6 646,110.4 646,110.4l-16,0 C630,110.4 498.5,232.39999999999995 498.5,232.39999999999995l-16,0 C482.5,232.39999999999995 351,64.80000000000001 351,64.80000000000001l-16,0 C335,64.80000000000001 203.5,266.80000000000007 203.5,266.80000000000007l-16,0 C187.5,266.80000000000007 56,125.6 56,125.6l-16,0 Z"/><path class="path" stroke-opacity="1" fill="rgb(243, 105, 0)" fill-opacity="0.6" stroke="lightgray" stroke-width="0.2" d="M 40,125.6l16,0 C56,125.6 187.5,266.80000000000007 187.5,266.80000000000007l16,0 C203.5,266.80000000000007 335,232.39999999999995 335,232.39999999999995l16,0 C351,232.39999999999995 482.5,64.80000000000001 482.5,64.80000000000001l16,0 C498.5,64.80000000000001 630,285.6 630,285.6l16,0 C646,285.6 777.5,125.6 777.5,125.6l16,0 C793.5,125.6 925,129.6 925,129.6l16,0 l0,7.6000000000000005 l -16,0 C925,137.2 793.5,133.2 793.5,133.2l-16,0 C777.5,133.2 646,293.20000000000005 646,293.20000000000005l-16,0 C630,293.20000000000005 498.5,72.4 498.5,72.4l-16,0 C482.5,72.4 351,239.99999999999994 351,239.99999999999994l-16,0 C335,239.99999999999994 203.5,274.4000000000001 203.5,274.4000000000001l-16,0 C187.5,274.4000000000001 56,133.2 56,133.2l-16,0 Z"/><path class="path" stroke-opacity="1" fill="rgb(243, 105, 0)" fill-opacity="0.6" stroke="lightgray" stroke-width="0.2" d="M 40,133.2l16,0 C56,133.2 187.5,274.4000000000001 187.5,274.4000000000001l16,0 C203.5,274.4000000000001 335,239.99999999999994 335,239.99999999999994l16,0 C351,239.99999999999994 482.5,232.39999999999995 482.5,232.39999999999995l16,0 C498.5,232.39999999999995 630,110.4 630,110.4l16,0 C646,110.4 777.5,133.2 777.5,133.2l16,0 C793.5,133.2 925,137.2 925,137.2l16,0 l0,7.6000000000000005 l -16,0 C925,144.79999999999998 793.5,140.79999999999998 793.5,140.79999999999998l-16,0 C777.5,140.79999999999998 646,118 646,118l-16,0 C630,118 498.5,239.99999999999994 498.5,239.99999999999994l-16,0 C482.5,239.99999999999994 351,247.59999999999994 351,247.59999999999994l-16,0 C335,247.59999999999994 203.5,282.0000000000001 203.5,282.0000000000001l-16,0 C187.5,282.0000000000001 56,140.79999999999998 56,140.79999999999998l-16,0 Z"/><path class="path" stroke-opacity="1" fill="rgb(243, 105, 0)" fill-opacity="0.6" stroke="lightgray" stroke-width="0.2" d="M 40,148.8l16,0 C56,148.8 187.5,60.800000000000004 187.5,60.800000000000004l16,0 C203.5,60.800000000000004 335,64.80000000000001 335,64.80000000000001l16,0 C351,64.80000000000001 482.5,72.4 482.5,72.4l16,0 C498.5,72.4 630,118 630,118l16,0 C646,118 777.5,140.79999999999998 777.5,140.79999999999998l16,0 C793.5,140.79999999999998 925,144.79999999999998 925,144.79999999999998l16,0 l0,7.6000000000000005 l -16,0 C925,152.39999999999998 793.5,148.39999999999998 793.5,148.39999999999998l-16,0 C777.5,148.39999999999998 646,125.6 646,125.6l-16,0 C630,125.6 498.5,80 498.5,80l-16,0 C482.5,80 351,72.4 351,72.4l-16,0 C335,72.4 203.5,68.4 203.5,68.4l-16,0 C187.5,68.4 56,156.4 56,156.4l-16,0 Z"/><path class="path" stroke-opacity="1" fill="rgb(243, 105, 0)" fill-opacity="0.6" stroke="lightgray" stroke-width="0.2" d="M 40,11.600000000000001l16,0 C56,11.600000000000001 187.5,7.6000000000000005 187.5,7.6000000000000005l16,0 C203.5,7.6000000000000005 335,11.600000000000001 335,11.600000000000001l16,0 C351,11.600000000000001 482.5,11.600000000000001 482.5,11.600000000000001l16,0 C498.5,11.600000000000001 630,11.600000000000001 630,11.600000000000001l16,0 C646,11.600000000000001 777.5,11.600000000000001 777.5,11.600000000000001l16,0 C793.5,11.600000000000001 925,15.600000000000001 925,15.600000000000001l16,0 l0,7.6000000000000005 l -16,0 C925,23.200000000000003 793.5,19.200000000000003 793.5,19.200000000000003l-16,0 C777.5,19.200000000000003 646,19.200000000000003 646,19.200000000000003l-16,0 C630,19.200000000000003 498.5,19.200000000000003 498.5,19.200000000000003l-16,0 C482.5,19.200000000000003 351,19.200000000000003 351,19.200000000000003l-16,0 C335,19.200000000000003 203.5,15.200000000000001 203.5,15.200000000000001l-16,0 C187.5,15.200000000000001 56,19.200000000000003 56,19.200000000000003l-16,0 Z"/><path class="path" stroke-opacity="1" fill="rgb(243, 105, 0)" fill-opacity="0.6" stroke="lightgray" stroke-width="0.2" d="M 40,164l16,0 C56,164 187.5,76 187.5,76l16,0 C203.5,76 335,80 335,80l16,0 C351,80 482.5,87.6 482.5,87.6l16,0 C498.5,87.6 630,293.20000000000005 630,293.20000000000005l16,0 C646,293.20000000000005 777.5,148.39999999999998 777.5,148.39999999999998l16,0 C793.5,148.39999999999998 925,159.99999999999997 925,159.99999999999997l16,0 l0,7.6000000000000005 l -16,0 C925,167.59999999999997 793.5,155.99999999999997 793.5,155.99999999999997l-16,0 C777.5,155.99999999999997 646,300.80000000000007 646,300.80000000000007l-16,0 C630,300.80000000000007 498.5,95.19999999999999 498.5,95.19999999999999l-16,0 C482.5,95.19999999999999 351,87.6 351,87.6l-16,0 C335,87.6 203.5,83.6 203.5,83.6l-16,0 C187.5,83.6 56,171.6 56,171.6l-16,0 Z"/><path class="path" stroke-opacity="1" fill="rgb(243, 105, 0)" fill-opacity="0.6" stroke="lightgray" stroke-width="0.2" d="M 40,171.6l16,0 C56,171.6 187.5,83.6 187.5,83.6l16,0 C203.5,83.6 335,87.6 335,87.6l16,0 C351,87.6 482.5,239.99999999999994 482.5,239.99999999999994l16,0 C498.5,239.99999999999994 630,133.2 630,133.2l16,0 C646,133.2 777.5,155.99999999999997 777.5,155.99999999999997l16,0 C793.5,155.99999999999997 925,167.59999999999997 925,167.59999999999997l16,0 l0,7.6000000000000005 l -16,0 C925,175.19999999999996 793.5,163.59999999999997 793.5,163.59999999999997l-16,0 C777.5,163.59999999999997 646,140.79999999999998 646,140.79999999999998l-16,0 C630,140.79999999999998 498.5,247.59999999999994 498.5,247.59999999999994l-16,0 C482.5,247.59999999999994 351,95.19999999999999 351,95.19999999999999l-16,0 C335,95.19999999999999 203.5,91.19999999999999 203.5,91.19999999999999l-16,0 C187.5,91.19999999999999 56,179.2 56,179.2l-16,0 Z"/><path class="path" stroke-opacity="1" fill="rgb(243, 105, 0)" fill-opacity="0.6" stroke="lightgray" stroke-width="0.2" d="M 40,179.2l16,0 C56,179.2 187.5,91.19999999999999 187.5,91.19999999999999l16,0 C203.5,91.19999999999999 335,247.59999999999994 335,247.59999999999994l16,0 C351,247.59999999999994 482.5,95.19999999999999 482.5,95.19999999999999l16,0 C498.5,95.19999999999999 630,140.79999999999998 630,140.79999999999998l16,0 C646,140.79999999999998 777.5,163.59999999999997 777.5,163.59999999999997l16,0 C793.5,163.59999999999997 925,175.19999999999996 925,175.19999999999996l16,0 l0,15.200000000000001 l -16,0 C925,190.39999999999995 793.5,178.79999999999995 793.5,178.79999999999995l-16,0 C777.5,178.79999999999995 646,155.99999999999997 646,155.99999999999997l-16,0 C630,155.99999999999997 498.5,110.39999999999999 498.5,110.39999999999999l-16,0 C482.5,110.39999999999999 351,262.79999999999995 351,262.79999999999995l-16,0 C335,262.79999999999995 203.5,106.39999999999999 203.5,106.39999999999999l-16,0 C187.5,106.39999999999999 56,194.39999999999998 56,194.39999999999998l-16,0 Z"/><path class="path" stroke-opacity="1" fill="rgb(243, 105, 0)" fill-opacity="0.6" stroke="lightgray" stroke-width="0.2" d="M 40,194.39999999999998l16,0 C56,194.39999999999998 187.5,106.39999999999999 187.5,106.39999999999999l16,0 C203.5,106.39999999999999 335,262.79999999999995 335,262.79999999999995l16,0 C351,262.79999999999995 482.5,247.59999999999994 482.5,247.59999999999994l16,0 C498.5,247.59999999999994 630,155.99999999999997 630,155.99999999999997l16,0 C646,155.99999999999997 777.5,178.79999999999995 777.5,178.79999999999995l16,0 C793.5,178.79999999999995 925,190.39999999999995 925,190.39999999999995l16,0 l0,15.200000000000001 l -16,0 C925,205.59999999999994 793.5,193.99999999999994 793.5,193.99999999999994l-16,0 C777.5,193.99999999999994 646,171.19999999999996 646,171.19999999999996l-16,0 C630,171.19999999999996 498.5,262.79999999999995 498.5,262.79999999999995l-16,0 C482.5,262.79999999999995 351,277.99999999999994 351,277.99999999999994l-16,0 C335,277.99999999999994 203.5,121.6 203.5,121.6l-16,0 C187.5,121.6 56,209.59999999999997 56,209.59999999999997l-16,0 Z"/><path class="path" stroke-opacity="1" fill="rgb(243, 105, 0)" fill-opacity="0.6" stroke="lightgray" stroke-width="0.2" d="M 40,209.59999999999997l16,0 C56,209.59999999999997 187.5,182.79999999999998 187.5,182.79999999999998l16,0 C203.5,182.79999999999998 335,95.19999999999999 335,95.19999999999999l16,0 C351,95.19999999999999 482.5,110.39999999999999 482.5,110.39999999999999l16,0 C498.5,110.39999999999999 630,171.19999999999996 630,171.19999999999996l16,0 C646,171.19999999999996 777.5,193.99999999999994 777.5,193.99999999999994l16,0 C793.5,193.99999999999994 925,205.59999999999994 925,205.59999999999994l16,0 l0,15.200000000000001 l -16,0 C925,220.79999999999993 793.5,209.19999999999993 793.5,209.19999999999993l-16,0 C777.5,209.19999999999993 646,186.39999999999995 646,186.39999999999995l-16,0 C630,186.39999999999995 498.5,125.6 498.5,125.6l-16,0 C482.5,125.6 351,110.39999999999999 351,110.39999999999999l-16,0 C335,110.39999999999999 203.5,197.99999999999997 203.5,197.99999999999997l-16,0 C187.5,197.99999999999997 56,224.79999999999995 56,224.79999999999995l-16,0 Z"/><path class="path" stroke-opacity="1" fill="rgb(243, 105, 0)" fill-opacity="0.6" stroke="lightgray" stroke-width="0.2" d="M 40,224.79999999999995l16,0 C56,224.79999999999995 187.5,197.99999999999997 187.5,197.99999999999997l16,0 C203.5,197.99999999999997 335,110.39999999999999 335,110.39999999999999l16,0 C351,110.39999999999999 482.5,262.79999999999995 482.5,262.79999999999995l16,0 C498.5,262.79999999999995 630,186.39999999999995 630,186.39999999999995l16,0 C646,186.39999999999995 777.5,209.19999999999993 777.5,209.19999999999993l16,0 C793.5,209.19999999999993 925,220.79999999999993 925,220.79999999999993l16,0 l0,15.200000000000001 l -16,0 C925,235.99999999999991 793.5,224.39999999999992 793.5,224.39999999999992l-16,0 C777.5,224.39999999999992 646,201.59999999999994 646,201.59999999999994l-16,0 C630,201.59999999999994 498.5,277.99999999999994 498.5,277.99999999999994l-16,0 C482.5,277.99999999999994 351,125.6 351,125.6l-16,0 C335,125.6 203.5,213.19999999999996 203.5,213.19999999999996l-16,0 C187.5,213.19999999999996 56,239.99999999999994 56,239.99999999999994l-16,0 Z"/><path class="path" stroke-opacity="1" fill="rgb(243, 105, 0)" fill-opacity="0.6" stroke="lightgray" stroke-width="0.2" d="M 40,239.99999999999994l16,0 C56,239.99999999999994 187.5,213.19999999999996 187.5,213.19999999999996l16,0 C203.5,213.19999999999996 335,277.99999999999994 335,277.99999999999994l16,0 C351,277.99999999999994 482.5,125.6 482.5,125.6l16,0 C498.5,125.6 630,201.59999999999994 630,201.59999999999994l16,0 C646,201.59999999999994 777.5,224.39999999999992 777.5,224.39999999999992l16,0 C793.5,224.39999999999992 925,235.99999999999991 925,235.99999999999991l16,0 l0,7.6000000000000005 l -16,0 C925,243.5999999999999 793.5,231.99999999999991 793.5,231.99999999999991l-16,0 C777.5,231.99999999999991 646,209.19999999999993 646,209.19999999999993l-16,0 C630,209.19999999999993 498.5,133.2 498.5,133.2l-16,0 C482.5,133.2 351,285.59999999999997 351,285.59999999999997l-16,0 C335,285.59999999999997 203.5,220.79999999999995 203.5,220.79999999999995l-16,0 C187.5,220.79999999999995 56,247.59999999999994 56,247.59999999999994l-16,0 Z"/><path class="path" stroke-opacity="1" fill="rgb(243, 105, 0)" fill-opacity="0.6" stroke="lightgray" stroke-width="0.2" d="M 40,247.59999999999994l16,0 C56,247.59999999999994 187.5,220.79999999999995 187.5,220.79999999999995l16,0 C203.5,220.79999999999995 335,285.59999999999997 335,285.59999999999997l16,0 C351,285.59999999999997 482.5,277.99999999999994 482.5,277.99999999999994l16,0 C498.5,277.99999999999994 630,209.19999999999993 630,209.19999999999993l16,0 C646,209.19999999999993 777.5,231.99999999999991 777.5,231.99999999999991l16,0 C793.5,231.99999999999991 925,243.5999999999999 925,243.5999999999999l16,0 l0,15.200000000000001 l -16,0 C925,258.7999999999999 793.5,247.1999999999999 793.5,247.1999999999999l-16,0 C777.5,247.1999999999999 646,224.39999999999992 646,224.39999999999992l-16,0 C630,224.39999999999992 498.5,293.19999999999993 498.5,293.19999999999993l-16,0 C482.5,293.19999999999993 351,300.79999999999995 351,300.79999999999995l-16,0 C335,300.79999999999995 203.5,235.99999999999994 203.5,235.99999999999994l-16,0 C187.5,235.99999999999994 56,262.79999999999995 56,262.79999999999995l-16,0 Z"/><path class="path" stroke-opacity="1" fill="rgb(243, 105, 0)" fill-opacity="0.6" stroke="lightgray" stroke-width="0.2" d="M 40,262.79999999999995l16,0 C56,262.79999999999995 187.5,282.0000000000001 187.5,282.0000000000001l16,0 C203.5,282.0000000000001 335,125.6 335,125.6l16,0 C351,125.6 482.5,133.2 482.5,133.2l16,0 C498.5,133.2 630,224.39999999999992 630,224.39999999999992l16,0 C646,224.39999999999992 777.5,247.1999999999999 777.5,247.1999999999999l16,0 C793.5,247.1999999999999 925,258.7999999999999 925,258.7999999999999l16,0 l0,15.200000000000001 l -16,0 C925,273.9999999999999 793.5,262.3999999999999 793.5,262.3999999999999l-16,0 C777.5,262.3999999999999 646,239.5999999999999 646,239.5999999999999l-16,0 C630,239.5999999999999 498.5,148.39999999999998 498.5,148.39999999999998l-16,0 C482.5,148.39999999999998 351,140.79999999999998 351,140.79999999999998l-16,0 C335,140.79999999999998 203.5,297.2000000000001 203.5,297.2000000000001l-16,0 C187.5,297.2000000000001 56,277.99999999999994 56,277.99999999999994l-16,0 Z"/><path class="path" stroke-opacity="1" fill="rgb(243, 105, 0)" fill-opacity="0.6" stroke="lightgray" stroke-width="0.2" d="M 40,277.99999999999994l16,0 C56,277.99999999999994 187.5,297.2000000000001 187.5,297.2000000000001l16,0 C203.5,297.2000000000001 335,140.79999999999998 335,140.79999999999998l16,0 C351,140.79999999999998 482.5,293.19999999999993 482.5,293.19999999999993l16,0 C498.5,293.19999999999993 630,239.5999999999999 630,239.5999999999999l16,0 C646,239.5999999999999 777.5,262.3999999999999 777.5,262.3999999999999l16,0 C793.5,262.3999999999999 925,273.9999999999999 925,273.9999999999999l16,0 l0,7.6000000000000005 l -16,0 C925,281.5999999999999 793.5,269.99999999999994 793.5,269.99999999999994l-16,0 C777.5,269.99999999999994 646,247.1999999999999 646,247.1999999999999l-16,0 C630,247.1999999999999 498.5,300.79999999999995 498.5,300.79999999999995l-16,0 C482.5,300.79999999999995 351,148.39999999999998 351,148.39999999999998l-16,0 C335,148.39999999999998 203.5,304.8000000000001 203.5,304.8000000000001l-16,0 C187.5,304.8000000000001 56,285.59999999999997 56,285.59999999999997l-16,0 Z"/><path class="path" stroke-opacity="1" fill="rgb(243, 105, 0)" fill-opacity="0.6" stroke="lightgray" stroke-width="0.2" d="M 40,285.59999999999997l16,0 C56,285.59999999999997 187.5,304.8000000000001 187.5,304.8000000000001l16,0 C203.5,304.8000000000001 335,300.79999999999995 335,300.79999999999995l16,0 C351,300.79999999999995 482.5,148.39999999999998 482.5,148.39999999999998l16,0 C498.5,148.39999999999998 630,247.1999999999999 630,247.1999999999999l16,0 C646,247.1999999999999 777.5,269.99999999999994 777.5,269.99999999999994l16,0 C793.5,269.99999999999994 925,281.5999999999999 925,281.5999999999999l16,0 l0,7.6000000000000005 l -16,0 C925,289.19999999999993 793.5,277.59999999999997 793.5,277.59999999999997l-16,0 C777.5,277.59999999999997 646,254.7999999999999 646,254.7999999999999l-16,0 C630,254.7999999999999 498.5,155.99999999999997 498.5,155.99999999999997l-16,0 C482.5,155.99999999999997 351,308.4 351,308.4l-16,0 C335,308.4 203.5,312.40000000000015 203.5,312.40000000000015l-16,0 C187.5,312.40000000000015 56,293.2 56,293.2l-16,0 Z"/><path class="path" stroke-opacity="1" fill="rgb(243, 105, 0)" fill-opacity="0.6" stroke="lightgray" stroke-width="0.2" d="M 40,293.2l16,0 C56,293.2 187.5,312.40000000000015 187.5,312.40000000000015l16,0 C203.5,312.40000000000015 335,308.4 335,308.4l16,0 C351,308.4 482.5,300.79999999999995 482.5,300.79999999999995l16,0 C498.5,300.79999999999995 630,254.7999999999999 630,254.7999999999999l16,0 C646,254.7999999999999 777.5,277.59999999999997 777.5,277.59999999999997l16,0 C793.5,277.59999999999997 925,289.19999999999993 925,289.19999999999993l16,0 l0,7.6000000000000005 l -16,0 C925,296.79999999999995 793.5,285.2 793.5,285.2l-16,0 C777.5,285.2 646,262.3999999999999 646,262.3999999999999l-16,0 C630,262.3999999999999 498.5,308.4 498.5,308.4l-16,0 C482.5,308.4 351,316 351,316l-16,0 C335,316 203.5,320.00000000000017 203.5,320.00000000000017l-16,0 C187.5,320.00000000000017 56,300.8 56,300.8l-16,0 Z"/><path class="path" stroke-opacity="1" fill="rgb(255, 255, 255)" fill-opacity="0.6" stroke="lightgray" stroke-width="0.2" d="M 40,300.8l16,0 C56,300.8 187.5,235.99999999999994 187.5,235.99999999999994l16,0 C203.5,235.99999999999994 335,148.39999999999998 335,148.39999999999998l16,0 C351,148.39999999999998 482.5,155.99999999999997 482.5,155.99999999999997l16,0 C498.5,155.99999999999997 630,300.80000000000007 630,300.80000000000007l16,0 C646,300.80000000000007 777.5,285.2 777.5,285.2l16,0 C793.5,285.2 925,304.8 925,304.8l16,0 l0,7.6000000000000005 l -16,0 C925,312.40000000000003 793.5,292.8 793.5,292.8l-16,0 C777.5,292.8 646,308.4000000000001 646,308.4000000000001l-16,0 C630,308.4000000000001 498.5,163.59999999999997 498.5,163.59999999999997l-16,0 C482.5,163.59999999999997 351,155.99999999999997 351,155.99999999999997l-16,0 C335,155.99999999999997 203.5,243.59999999999994 203.5,243.59999999999994l-16,0 C187.5,243.59999999999994 56,308.40000000000003 56,308.40000000000003l-16,0 Z"/><path class="path" stroke-opacity="1" fill="rgb(255, 255, 255)" fill-opacity="0.6" stroke="lightgray" stroke-width="0.2" d="M 40,308.40000000000003l16,0 C56,308.40000000000003 187.5,243.59999999999994 187.5,243.59999999999994l16,0 C203.5,243.59999999999994 335,155.99999999999997 335,155.99999999999997l16,0 C351,155.99999999999997 482.5,308.4 482.5,308.4l16,0 C498.5,308.4 630,308.4000000000001 630,308.4000000000001l16,0 C646,308.4000000000001 777.5,292.8 777.5,292.8l16,0 C793.5,292.8 925,312.40000000000003 925,312.40000000000003l16,0 l0,7.6000000000000005 l -16,0 C925,320.00000000000006 793.5,300.40000000000003 793.5,300.40000000000003l-16,0 C777.5,300.40000000000003 646,316.0000000000001 646,316.0000000000001l-16,0 C630,316.0000000000001 498.5,316 498.5,316l-16,0 C482.5,316 351,163.59999999999997 351,163.59999999999997l-16,0 C335,163.59999999999997 203.5,251.19999999999993 203.5,251.19999999999993l-16,0 C187.5,251.19999999999993 56,316.00000000000006 56,316.00000000000006l-16,0 Z"/></g><g class="dimensions"><g class="dimension" transform="translate(40, 0)"><g class="category" transform="translate(0, 4)"><rect class="catrect" pointer-events="none" fill="none" width="16" height="136.8" stroke="black" stroke-width="1" stroke-opacity="1"/><rect class="bandrect" stroke-opacity="1" fill="rgb(0, 0, 0)" fill-opacity="1" width="16" height="7.6000000000000005" y="0" cursor="ns-resize" stroke="black" stroke-width="0.2"/><rect class="bandrect" stroke-opacity="1" fill="rgb(243, 105, 0)" fill-opacity="1" width="16" height="129.2" y="7.6000000000000005" cursor="ns-resize" stroke="black" stroke-width="0.2"/><text class="catlabel" pointer-events="none" text-anchor="end" alignment-baseline="middle" x="-5" y="68.4" style="text-shadow: rgb(255, 255, 255) -1px 1px 2px, rgb(255, 255, 255) 1px 1px 2px, rgb(255, 255, 255) 1px -1px 2px, rgb(255, 255, 255) -1px -1px 2px; fill: rgb(68, 68, 68); font-family: 'Open Sans', verdana, arial, sans-serif; font-size: 15px; fill-opacity: 1; white-space: pre;">(test_r2 > 0.65)</text><text class="dimlabel" text-anchor="middle" alignment-baseline="baseline" cursor="ew-resize" x="8" y="-5" style="font-family: 'Open Sans', verdana, arial, sans-serif; font-size: 18px; fill: rgb(68, 68, 68); fill-opacity: 1;">CV threshold</text></g><g class="category" transform="translate(0, 148.8)"><rect class="catrect" pointer-events="none" fill="none" width="16" height="167.20000000000002" stroke="black" stroke-width="1" stroke-opacity="1"/><rect class="bandrect" stroke-opacity="1" fill="rgb(243, 105, 0)" fill-opacity="1" width="16" height="151.99999999999997" y="0" cursor="ns-resize" stroke="black" stroke-width="0.2"/><rect class="bandrect" stroke-opacity="1" fill="rgb(255, 255, 255)" fill-opacity="1" width="16" height="15.200000000000001" y="151.99999999999997" cursor="ns-resize" stroke="black" stroke-width="0.2"/><text class="catlabel" pointer-events="none" text-anchor="end" alignment-baseline="middle" x="-5" y="83.60000000000001" style="text-shadow: rgb(255, 255, 255) -1px 1px 2px, rgb(255, 255, 255) 1px 1px 2px, rgb(255, 255, 255) 1px -1px 2px, rgb(255, 255, 255) -1px -1px 2px; fill: rgb(68, 68, 68); font-family: 'Open Sans', verdana, arial, sans-serif; font-size: 15px; fill-opacity: 1; white-space: pre;">(test_r2 > 0.2)</text><text class="dimlabel" text-anchor="middle" alignment-baseline="baseline" cursor="ew-resize" x="8" y="-5" style="font-family: 'Open Sans', verdana, arial, sans-serif; font-size: 18px; fill: rgb(68, 68, 68); fill-opacity: 1;"/></g></g><g class="dimension" transform="translate(187.5, 0)"><g class="category" transform="translate(0, 0)"><rect class="catrect" pointer-events="none" fill="none" width="16" height="121.60000000000001" stroke="black" stroke-width="1" stroke-opacity="1"/><rect class="bandrect" stroke-opacity="1" fill="rgb(0, 0, 0)" fill-opacity="1" width="16" height="7.6000000000000005" y="0" cursor="ns-resize" stroke="black" stroke-width="0.2"/><rect class="bandrect" stroke-opacity="1" fill="rgb(243, 105, 0)" fill-opacity="1" width="16" height="114" y="7.6000000000000005" cursor="ns-resize" stroke="black" stroke-width="0.2"/><text class="catlabel" pointer-events="none" text-anchor="end" alignment-baseline="middle" x="-5" y="60.800000000000004" style="text-shadow: rgb(255, 255, 255) -1px 1px 2px, rgb(255, 255, 255) 1px 1px 2px, rgb(255, 255, 255) 1px -1px 2px, rgb(255, 255, 255) -1px -1px 2px; fill: rgb(68, 68, 68); font-family: 'Open Sans', verdana, arial, sans-serif; font-size: 15px; fill-opacity: 1; white-space: pre;">(ndf_surr_score > 0.6)</text><text class="dimlabel" text-anchor="middle" alignment-baseline="baseline" cursor="ew-resize" x="8" y="-5" style="font-family: 'Open Sans', verdana, arial, sans-serif; font-size: 18px; fill: rgb(68, 68, 68); fill-opacity: 1;">Test-set threshold</text></g><g class="category" transform="translate(0, 129.60000000000002)"><rect class="catrect" pointer-events="none" fill="none" width="16" height="121.60000000000001" stroke="black" stroke-width="1" stroke-opacity="1"/><rect class="bandrect" stroke-opacity="1" fill="rgb(243, 105, 0)" fill-opacity="1" width="16" height="106.4" y="0" cursor="ns-resize" stroke="black" stroke-width="0.2"/><rect class="bandrect" stroke-opacity="1" fill="rgb(255, 255, 255)" fill-opacity="1" width="16" height="15.200000000000001" y="106.4" cursor="ns-resize" stroke="black" stroke-width="0.2"/><text class="catlabel" pointer-events="none" text-anchor="end" alignment-baseline="middle" x="-5" y="60.800000000000004" style="text-shadow: rgb(255, 255, 255) -1px 1px 2px, rgb(255, 255, 255) 1px 1px 2px, rgb(255, 255, 255) 1px -1px 2px, rgb(255, 255, 255) -1px -1px 2px; fill: rgb(68, 68, 68); font-family: 'Open Sans', verdana, arial, sans-serif; font-size: 15px; fill-opacity: 1; white-space: pre;">(ndf_surr_score > 0)</text><text class="dimlabel" text-anchor="middle" alignment-baseline="baseline" cursor="ew-resize" x="8" y="-5" style="font-family: 'Open Sans', verdana, arial, sans-serif; font-size: 18px; fill: rgb(68, 68, 68); fill-opacity: 1;"/></g><g class="category" transform="translate(0, 259.20000000000005)"><rect class="catrect" pointer-events="none" fill="none" width="16" height="60.800000000000004" stroke="black" stroke-width="1" stroke-opacity="1"/><rect class="bandrect" stroke-opacity="1" fill="rgb(243, 105, 0)" fill-opacity="1" width="16" height="60.800000000000004" y="0" cursor="ns-resize" stroke="black" stroke-width="0.2"/><text class="catlabel" pointer-events="none" text-anchor="end" alignment-baseline="middle" x="-5" y="30.400000000000002" style="text-shadow: rgb(255, 255, 255) -1px 1px 2px, rgb(255, 255, 255) 1px 1px 2px, rgb(255, 255, 255) 1px -1px 2px, rgb(255, 255, 255) -1px -1px 2px; fill: rgb(68, 68, 68); font-family: 'Open Sans', verdana, arial, sans-serif; font-size: 15px; fill-opacity: 1; white-space: pre;">(ndf_surr_score > 0.9)</text><text class="dimlabel" text-anchor="middle" alignment-baseline="baseline" cursor="ew-resize" x="8" y="-5" style="font-family: 'Open Sans', verdana, arial, sans-serif; font-size: 18px; fill: rgb(68, 68, 68); fill-opacity: 1;"/></g></g><g class="dimension" transform="translate(335, 0)"><g class="category" transform="translate(0, 4)"><rect class="catrect" pointer-events="none" fill="none" width="16" height="159.6" stroke="black" stroke-width="1" stroke-opacity="1"/><rect class="bandrect" stroke-opacity="1" fill="rgb(0, 0, 0)" fill-opacity="1" width="16" height="7.6000000000000005" y="0" cursor="ns-resize" stroke="black" stroke-width="0.2"/><rect class="bandrect" stroke-opacity="1" fill="rgb(243, 105, 0)" fill-opacity="1" width="16" height="136.79999999999998" y="7.6000000000000005" cursor="ns-resize" stroke="black" stroke-width="0.2"/><rect class="bandrect" stroke-opacity="1" fill="rgb(255, 255, 255)" fill-opacity="1" width="16" height="15.200000000000001" y="144.39999999999998" cursor="ns-resize" stroke="black" stroke-width="0.2"/><text class="catlabel" pointer-events="none" text-anchor="end" alignment-baseline="middle" x="-5" y="79.8" style="text-shadow: rgb(255, 255, 255) -1px 1px 2px, rgb(255, 255, 255) 1px 1px 2px, rgb(255, 255, 255) 1px -1px 2px, rgb(255, 255, 255) -1px -1px 2px; fill: rgb(68, 68, 68); font-family: 'Open Sans', verdana, arial, sans-serif; font-size: 15px; fill-opacity: 1; white-space: pre;">ndf_score</text><text class="dimlabel" text-anchor="middle" alignment-baseline="baseline" cursor="ew-resize" x="8" y="-5" style="font-family: 'Open Sans', verdana, arial, sans-serif; font-size: 18px; fill: rgb(68, 68, 68); fill-opacity: 1;">Solution combination</text></g><g class="category" transform="translate(0, 171.6)"><rect class="catrect" pointer-events="none" fill="none" width="16" height="144.4" stroke="black" stroke-width="1" stroke-opacity="1"/><rect class="bandrect" stroke-opacity="1" fill="rgb(243, 105, 0)" fill-opacity="1" width="16" height="144.39999999999998" y="0" cursor="ns-resize" stroke="black" stroke-width="0.2"/><text class="catlabel" pointer-events="none" text-anchor="end" alignment-baseline="middle" x="-5" y="72.2" style="text-shadow: rgb(255, 255, 255) -1px 1px 2px, rgb(255, 255, 255) 1px 1px 2px, rgb(255, 255, 255) 1px -1px 2px, rgb(255, 255, 255) -1px -1px 2px; fill: rgb(68, 68, 68); font-family: 'Open Sans', verdana, arial, sans-serif; font-size: 15px; fill-opacity: 1; white-space: pre;">stack</text><text class="dimlabel" text-anchor="middle" alignment-baseline="baseline" cursor="ew-resize" x="8" y="-5" style="font-family: 'Open Sans', verdana, arial, sans-serif; font-size: 18px; fill: rgb(68, 68, 68); fill-opacity: 1;"/></g></g><g class="dimension" transform="translate(482.5, 0)"><g class="category" transform="translate(0, 4)"><rect class="catrect" pointer-events="none" fill="none" width="16" height="159.6" stroke="black" stroke-width="1" stroke-opacity="1"/><rect class="bandrect" stroke-opacity="1" fill="rgb(0, 0, 0)" fill-opacity="1" width="16" height="7.6000000000000005" y="0" cursor="ns-resize" stroke="black" stroke-width="0.2"/><rect class="bandrect" stroke-opacity="1" fill="rgb(243, 105, 0)" fill-opacity="1" width="16" height="144.39999999999998" y="7.6000000000000005" cursor="ns-resize" stroke="black" stroke-width="0.2"/><rect class="bandrect" stroke-opacity="1" fill="rgb(255, 255, 255)" fill-opacity="1" width="16" height="7.6000000000000005" y="151.99999999999997" cursor="ns-resize" stroke="black" stroke-width="0.2"/><text class="catlabel" pointer-events="none" text-anchor="end" alignment-baseline="middle" x="-5" y="79.8" style="text-shadow: rgb(255, 255, 255) -1px 1px 2px, rgb(255, 255, 255) 1px 1px 2px, rgb(255, 255, 255) 1px -1px 2px, rgb(255, 255, 255) -1px -1px 2px; fill: rgb(68, 68, 68); font-family: 'Open Sans', verdana, arial, sans-serif; font-size: 15px; fill-opacity: 1; white-space: pre;">0.25</text><text class="dimlabel" text-anchor="middle" alignment-baseline="baseline" cursor="ew-resize" x="8" y="-5" style="font-family: 'Open Sans', verdana, arial, sans-serif; font-size: 18px; fill: rgb(68, 68, 68); fill-opacity: 1;">train/test split</text></g><g class="category" transform="translate(0, 171.6)"><rect class="catrect" pointer-events="none" fill="none" width="16" height="144.4" stroke="black" stroke-width="1" stroke-opacity="1"/><rect class="bandrect" stroke-opacity="1" fill="rgb(243, 105, 0)" fill-opacity="1" width="16" height="136.8" y="0" cursor="ns-resize" stroke="black" stroke-width="0.2"/><rect class="bandrect" stroke-opacity="1" fill="rgb(255, 255, 255)" fill-opacity="1" width="16" height="7.6000000000000005" y="136.8" cursor="ns-resize" stroke="black" stroke-width="0.2"/><text class="catlabel" pointer-events="none" text-anchor="end" alignment-baseline="middle" x="-5" y="72.2" style="text-shadow: rgb(255, 255, 255) -1px 1px 2px, rgb(255, 255, 255) 1px 1px 2px, rgb(255, 255, 255) 1px -1px 2px, rgb(255, 255, 255) -1px -1px 2px; fill: rgb(68, 68, 68); font-family: 'Open Sans', verdana, arial, sans-serif; font-size: 15px; fill-opacity: 1; white-space: pre;">0.1</text><text class="dimlabel" text-anchor="middle" alignment-baseline="baseline" cursor="ew-resize" x="8" y="-5" style="font-family: 'Open Sans', verdana, arial, sans-serif; font-size: 18px; fill: rgb(68, 68, 68); fill-opacity: 1;"/></g></g><g class="dimension" transform="translate(630, 0)"><g class="category" transform="translate(0, 4)"><rect class="catrect" pointer-events="none" fill="none" width="16" height="258.4" stroke="black" stroke-width="1" stroke-opacity="1"/><rect class="bandrect" stroke-opacity="1" fill="rgb(0, 0, 0)" fill-opacity="1" width="16" height="7.6000000000000005" y="0" cursor="ns-resize" stroke="black" stroke-width="0.2"/><rect class="bandrect" stroke-opacity="1" fill="rgb(243, 105, 0)" fill-opacity="1" width="16" height="250.7999999999999" y="7.6000000000000005" cursor="ns-resize" stroke="black" stroke-width="0.2"/><text class="catlabel" pointer-events="none" text-anchor="end" alignment-baseline="middle" x="-5" y="129.2" style="text-shadow: rgb(255, 255, 255) -1px 1px 2px, rgb(255, 255, 255) 1px 1px 2px, rgb(255, 255, 255) 1px -1px 2px, rgb(255, 255, 255) -1px -1px 2px; fill: rgb(68, 68, 68); font-family: 'Open Sans', verdana, arial, sans-serif; font-size: 15px; fill-opacity: 1; white-space: pre;">moea_control</text><text class="dimlabel" text-anchor="middle" alignment-baseline="baseline" cursor="ew-resize" x="8" y="-5" style="font-family: 'Open Sans', verdana, arial, sans-serif; font-size: 18px; fill: rgb(68, 68, 68); fill-opacity: 1;">Solver</text></g><g class="category" transform="translate(0, 270.4)"><rect class="catrect" pointer-events="none" fill="none" width="16" height="45.6" stroke="black" stroke-width="1" stroke-opacity="1"/><rect class="bandrect" stroke-opacity="1" fill="rgb(243, 105, 0)" fill-opacity="1" width="16" height="30.400000000000002" y="0" cursor="ns-resize" stroke="black" stroke-width="0.2"/><rect class="bandrect" stroke-opacity="1" fill="rgb(255, 255, 255)" fill-opacity="1" width="16" height="15.200000000000001" y="30.400000000000002" cursor="ns-resize" stroke="black" stroke-width="0.2"/><text class="catlabel" pointer-events="none" text-anchor="end" alignment-baseline="middle" x="-5" y="22.8" style="text-shadow: rgb(255, 255, 255) -1px 1px 2px, rgb(255, 255, 255) 1px 1px 2px, rgb(255, 255, 255) 1px -1px 2px, rgb(255, 255, 255) -1px -1px 2px; fill: rgb(68, 68, 68); font-family: 'Open Sans', verdana, arial, sans-serif; font-size: 15px; fill-opacity: 1; white-space: pre;">nsga2</text><text class="dimlabel" text-anchor="middle" alignment-baseline="baseline" cursor="ew-resize" x="8" y="-5" style="font-family: 'Open Sans', verdana, arial, sans-serif; font-size: 18px; fill: rgb(68, 68, 68); fill-opacity: 1;"/></g></g><g class="dimension" transform="translate(777.5, 0)"><g class="category" transform="translate(0, 4)"><rect class="catrect" pointer-events="none" fill="none" width="16" height="296.4" stroke="black" stroke-width="1" stroke-opacity="1"/><rect class="bandrect" stroke-opacity="1" fill="rgb(0, 0, 0)" fill-opacity="1" width="16" height="7.6000000000000005" y="0" cursor="ns-resize" stroke="black" stroke-width="0.2"/><rect class="bandrect" stroke-opacity="1" fill="rgb(243, 105, 0)" fill-opacity="1" width="16" height="273.59999999999997" y="7.6000000000000005" cursor="ns-resize" stroke="black" stroke-width="0.2"/><rect class="bandrect" stroke-opacity="1" fill="rgb(255, 255, 255)" fill-opacity="1" width="16" height="15.200000000000001" y="281.2" cursor="ns-resize" stroke="black" stroke-width="0.2"/><text class="catlabel" pointer-events="none" text-anchor="end" alignment-baseline="middle" x="-5" y="148.2" style="text-shadow: rgb(255, 255, 255) -1px 1px 2px, rgb(255, 255, 255) 1px 1px 2px, rgb(255, 255, 255) 1px -1px 2px, rgb(255, 255, 255) -1px -1px 2px; fill: rgb(68, 68, 68); font-family: 'Open Sans', verdana, arial, sans-serif; font-size: 15px; fill-opacity: 1; white-space: pre;">10</text><text class="dimlabel" text-anchor="middle" alignment-baseline="baseline" cursor="ew-resize" x="8" y="-5" style="font-family: 'Open Sans', verdana, arial, sans-serif; font-size: 18px; fill: rgb(68, 68, 68); fill-opacity: 1;">Predict size</text></g><g class="category" transform="translate(0, 308.4)"><rect class="catrect" pointer-events="none" fill="none" width="16" height="7.6000000000000005" stroke="black" stroke-width="1" stroke-opacity="1"/><rect class="bandrect" stroke-opacity="1" fill="rgb(243, 105, 0)" fill-opacity="1" width="16" height="7.6000000000000005" y="0" cursor="ns-resize" stroke="black" stroke-width="0.2"/><text class="catlabel" pointer-events="none" text-anchor="end" alignment-baseline="middle" x="-5" y="3.8000000000000003" style="text-shadow: rgb(255, 255, 255) -1px 1px 2px, rgb(255, 255, 255) 1px 1px 2px, rgb(255, 255, 255) 1px -1px 2px, rgb(255, 255, 255) -1px -1px 2px; fill: rgb(68, 68, 68); font-family: 'Open Sans', verdana, arial, sans-serif; font-size: 15px; fill-opacity: 1; white-space: pre;">100</text><text class="dimlabel" text-anchor="middle" alignment-baseline="baseline" cursor="ew-resize" x="8" y="-5" style="font-family: 'Open Sans', verdana, arial, sans-serif; font-size: 18px; fill: rgb(68, 68, 68); fill-opacity: 1;"/></g></g><g class="dimension" transform="translate(925, 0)"><g class="category" transform="translate(0, 0)"><rect class="catrect" pointer-events="none" fill="none" width="16" height="7.6000000000000005" stroke="black" stroke-width="1" stroke-opacity="1"/><rect class="bandrect" stroke-opacity="1" fill="rgb(0, 0, 0)" fill-opacity="1" width="16" height="7.6000000000000005" y="0" cursor="ns-resize" stroke="black" stroke-width="0.2"/><text class="catlabel" pointer-events="none" text-anchor="start" alignment-baseline="middle" x="21" y="3.8000000000000003" style="text-shadow: rgb(255, 255, 255) -1px 1px 2px, rgb(255, 255, 255) 1px 1px 2px, rgb(255, 255, 255) 1px -1px 2px, rgb(255, 255, 255) -1px -1px 2px; fill: rgb(68, 68, 68); font-family: 'Open Sans', verdana, arial, sans-serif; font-size: 15px; fill-opacity: 1; white-space: pre;">0.1</text><text class="dimlabel" text-anchor="middle" alignment-baseline="baseline" cursor="ew-resize" x="8" y="-5" style="font-family: 'Open Sans', verdana, arial, sans-serif; font-size: 18px; fill: rgb(68, 68, 68); fill-opacity: 1;">p-distance</text></g><g class="category" transform="translate(0, 15.600000000000001)"><rect class="catrect" pointer-events="none" fill="none" width="16" height="281.2" stroke="black" stroke-width="1" stroke-opacity="1"/><rect class="bandrect" stroke-opacity="1" fill="rgb(243, 105, 0)" fill-opacity="1" width="16" height="281.2" y="0" cursor="ns-resize" stroke="black" stroke-width="0.2"/><text class="catlabel" pointer-events="none" text-anchor="start" alignment-baseline="middle" x="21" y="140.6" style="text-shadow: rgb(255, 255, 255) -1px 1px 2px, rgb(255, 255, 255) 1px 1px 2px, rgb(255, 255, 255) 1px -1px 2px, rgb(255, 255, 255) -1px -1px 2px; fill: rgb(68, 68, 68); font-family: 'Open Sans', verdana, arial, sans-serif; font-size: 15px; fill-opacity: 1; white-space: pre;">0.2</text><text class="dimlabel" text-anchor="middle" alignment-baseline="baseline" cursor="ew-resize" x="8" y="-5" style="font-family: 'Open Sans', verdana, arial, sans-serif; font-size: 18px; fill: rgb(68, 68, 68); fill-opacity: 1;"/></g><g class="category" transform="translate(0, 304.8)"><rect class="catrect" pointer-events="none" fill="none" width="16" height="15.200000000000001" stroke="black" stroke-width="1" stroke-opacity="1"/><rect class="bandrect" stroke-opacity="1" fill="rgb(255, 255, 255)" fill-opacity="1" width="16" height="15.200000000000001" y="0" cursor="ns-resize" stroke="black" stroke-width="0.2"/><text class="catlabel" pointer-events="none" text-anchor="start" alignment-baseline="middle" x="21" y="7.6000000000000005" style="text-shadow: rgb(255, 255, 255) -1px 1px 2px, rgb(255, 255, 255) 1px 1px 2px, rgb(255, 255, 255) 1px -1px 2px, rgb(255, 255, 255) -1px -1px 2px; fill: rgb(68, 68, 68); font-family: 'Open Sans', verdana, arial, sans-serif; font-size: 15px; fill-opacity: 1; white-space: pre;">0.3</text><text class="dimlabel" text-anchor="middle" alignment-baseline="baseline" cursor="ew-resize" x="8" y="-5" style="font-family: 'Open Sans', verdana, arial, sans-serif; font-size: 18px; fill: rgb(68, 68, 68); fill-opacity: 1;"/></g></g></g></g></g><defs id="topdefs-1ef64a"><g class="clips"/></defs><g class="layer-above"><g class="imagelayer"/><g class="shapelayer"/></g><g class="infolayer"><g class="cbcoloraxis colorbar" transform="translate(80,100)"><rect class="cbbg" x="1000.5" y="-0.5" width="107.578125" height="321" style="fill: rgb(0, 0, 0); fill-opacity: 0; stroke: rgb(68, 68, 68); stroke-opacity: 1; stroke-width: 0;"/><g class="cbfills" transform="translate(0,39)"><rect class="cbfill" x="1011" width="30" y="0" height="271" style="stroke: none; fill: url('#g1ef64a-cbcoloraxis');"/></g><g class="cblines" transform="translate(0,39)"/><g class="cbaxis crisp" transform="translate(0,-100)"><g class="ycbcoloraxistick"><text text-anchor="start" x="1045.6" y="6.3" transform="translate(0,410)" style="font-family: 'Open Sans', verdana, arial, sans-serif; font-size: 18px; fill: rgb(68, 68, 68); fill-opacity: 1; white-space: pre;">0.1</text></g><g class="ycbcoloraxistick"><text text-anchor="start" x="1045.6" y="6.3" transform="translate(0,342.25)" style="font-family: 'Open Sans', verdana, arial, sans-serif; font-size: 18px; fill: rgb(68, 68, 68); fill-opacity: 1; white-space: pre;">0.15</text></g><g class="ycbcoloraxistick"><text text-anchor="start" x="1045.6" y="6.3" transform="translate(0,274.5)" style="font-family: 'Open Sans', verdana, arial, sans-serif; font-size: 18px; fill: rgb(68, 68, 68); fill-opacity: 1; white-space: pre;">0.2</text></g><g class="ycbcoloraxistick"><text text-anchor="start" x="1045.6" y="6.3" transform="translate(0,206.75)" style="font-family: 'Open Sans', verdana, arial, sans-serif; font-size: 18px; fill: rgb(68, 68, 68); fill-opacity: 1; white-space: pre;">0.25</text></g><g class="ycbcoloraxistick"><text text-anchor="start" x="1045.6" y="6.3" transform="translate(0,139)" style="font-family: 'Open Sans', verdana, arial, sans-serif; font-size: 18px; fill: rgb(68, 68, 68); fill-opacity: 1; white-space: pre;">0.3</text></g></g><g class="cbtitleunshift" transform="translate(-80,-100)"><g class="cbtitle" transform="translate(-0.5,-0.5)"><text class="ycbcoloraxistitle" x="1090.62" y="126.5" text-anchor="start" style="font-family: 'Open Sans', verdana, arial, sans-serif; font-size: 18px; fill: rgb(68, 68, 68); opacity: 1; font-weight: normal; white-space: pre;">p-distance</text></g></g><rect class="cboutline" x="1011" y="39" width="30" height="271" style="stroke: rgb(68, 68, 68); stroke-opacity: 1; fill: none; stroke-width: 1;"/></g><g class="g-gtitle"><text class="gtitle" x="600" y="50" text-anchor="middle" dy="0em" style="font-family: 'Open Sans', verdana, arial, sans-serif; font-size: 25px; fill: rgb(68, 68, 68); opacity: 1; font-weight: normal; white-space: pre;">ZDT6: TutorM best combinations</text></g></g></svg>