<svg class="main-svg" xmlns="http://www.w3.org/2000/svg" xmlns:xlink="http://www.w3.org/1999/xlink" width="1200" height="500" viewBox="0 0 1200 500"><rect x="0" y="0" width="1200" height="500" style="fill: rgb(255, 255, 255); fill-opacity: 1;"/><defs id="defs-7e4b74"><g class="clips"/><g class="gradients"><linearGradient x1="0" x2="0" y1="1" y2="0" id="g7e4b74-cbcoloraxis"><stop offset="0%" stop-color="rgb(240, 249, 33)" stop-opacity="1"/><stop offset="11.11111111111111%" stop-color="rgb(253, 202, 38)" stop-opacity="1"/><stop offset="22.22222222222222%" stop-color="rgb(251, 159, 58)" stop-opacity="1"/><stop offset="33.33333333333333%" stop-color="rgb(237, 121, 83)" stop-opacity="1"/><stop offset="44.44444444444444%" stop-color="rgb(216, 87, 107)" stop-opacity="1"/><stop offset="55.55555555555556%" stop-color="rgb(189, 55, 134)" stop-opacity="1"/><stop offset="66.66666666666666%" stop-color="rgb(156, 23, 158)" stop-opacity="1"/><stop offset="77.77777777777779%" stop-color="rgb(114, 1, 168)" stop-opacity="1"/><stop offset="88.88888888888889%" stop-color="rgb(70, 3, 159)" stop-opacity="1"/><stop offset="100%" stop-color="rgb(13, 8, 135)" stop-opacity="1"/></linearGradient></g></defs><g class="bglayer"/><g class="layer-below"><g class="imagelayer"/><g class="shapelayer"/></g><g class="cartesianlayer"/><g class="polarlayer"/><g class="ternarylayer"/><g class="geolayer"/><g class="funnelarealayer"/><g class="pielayer"/><g class="treemaplayer"/><g class="sunburstlayer"/><g class="glimages"/><g class="parcatslayer" style="pointer-events: all;"><g class="trace parcats" transform="translate(80, 100)"><g class="paths"><path class="path" stroke-opacity="1" fill="rgb(240, 249, 33)" fill-opacity="0.6" stroke="lightgray" stroke-width="0.2" d="M 40,267l16,0 C56,267 187.5,39.800000000000004 187.5,39.800000000000004l16,0 C203.5,39.800000000000004 335,50.400000000000006 335,50.400000000000006l16,0 C351,50.400000000000006 482.5,43.800000000000004 482.5,43.800000000000004l16,0 C498.5,43.800000000000004 630,170.59999999999997 630,170.59999999999997l16,0 C646,170.59999999999997 777.5,30.6 777.5,30.6l16,0 C793.5,30.6 925,306.8000000000002 925,306.8000000000002l16,0 l0,13.200000000000001 l -16,0 C925,320.00000000000017 793.5,43.800000000000004 793.5,43.800000000000004l-16,0 C777.5,43.800000000000004 646,183.79999999999995 646,183.79999999999995l-16,0 C630,183.79999999999995 498.5,57.00000000000001 498.5,57.00000000000001l-16,0 C482.5,57.00000000000001 351,63.60000000000001 351,63.60000000000001l-16,0 C335,63.60000000000001 203.5,53.00000000000001 203.5,53.00000000000001l-16,0 C187.5,53.00000000000001 56,280.2 56,280.2l-16,0 Z"/><path class="path" stroke-opacity="1" fill="rgb(240, 249, 33)" fill-opacity="0.6" stroke="lightgray" stroke-width="0.2" d="M 40,61l16,0 C56,61 187.5,20 187.5,20l16,0 C203.5,20 335,150.8 335,150.8l16,0 C351,150.8 482.5,177.20000000000002 482.5,177.20000000000002l16,0 C498.5,177.20000000000002 630,24 630,24l16,0 C646,24 777.5,104.60000000000001 777.5,104.60000000000001l16,0 C793.5,104.60000000000001 925,240.8 925,240.8l16,0 l0,6.6000000000000005 l -16,0 C925,247.4 793.5,111.2 793.5,111.2l-16,0 C777.5,111.2 646,30.6 646,30.6l-16,0 C630,30.6 498.5,183.8 498.5,183.8l-16,0 C482.5,183.8 351,157.4 351,157.4l-16,0 C335,157.4 203.5,26.6 203.5,26.6l-16,0 C187.5,26.6 56,67.6 56,67.6l-16,0 Z"/><path class="path" stroke-opacity="1" fill="rgb(240, 249, 33)" fill-opacity="0.6" stroke="lightgray" stroke-width="0.2" d="M 40,80.79999999999998l16,0 C56,80.79999999999998 187.5,166.6 187.5,166.6l16,0 C203.5,166.6 335,30.6 335,30.6l16,0 C351,30.6 482.5,197 482.5,197l16,0 C498.5,197 630,137.6 630,137.6l16,0 C646,137.6 777.5,124.39999999999999 777.5,124.39999999999999l16,0 C793.5,124.39999999999999 925,260.6 925,260.6l16,0 l0,6.6000000000000005 l -16,0 C925,267.20000000000005 793.5,131 793.5,131l-16,0 C777.5,131 646,144.2 646,144.2l-16,0 C630,144.2 498.5,203.6 498.5,203.6l-16,0 C482.5,203.6 351,37.2 351,37.2l-16,0 C335,37.2 203.5,173.2 203.5,173.2l-16,0 C187.5,173.2 56,87.39999999999998 56,87.39999999999998l-16,0 Z"/><path class="path" stroke-opacity="1" fill="rgb(240, 249, 33)" fill-opacity="0.6" stroke="lightgray" stroke-width="0.2" d="M 40,87.39999999999998l16,0 C56,87.39999999999998 187.5,173.2 187.5,173.2l16,0 C203.5,173.2 335,164 335,164l16,0 C351,164 482.5,24 482.5,24l16,0 C498.5,24 630,37.2 630,37.2l16,0 C646,37.2 777.5,131 777.5,131l16,0 C793.5,131 925,267.20000000000005 925,267.20000000000005l16,0 l0,6.6000000000000005 l -16,0 C925,273.80000000000007 793.5,137.6 793.5,137.6l-16,0 C777.5,137.6 646,43.800000000000004 646,43.800000000000004l-16,0 C630,43.800000000000004 498.5,30.6 498.5,30.6l-16,0 C482.5,30.6 351,170.6 351,170.6l-16,0 C335,170.6 203.5,179.79999999999998 203.5,179.79999999999998l-16,0 C187.5,179.79999999999998 56,93.99999999999997 56,93.99999999999997l-16,0 Z"/><path class="path" stroke-opacity="1" fill="rgb(240, 249, 33)" fill-opacity="0.6" stroke="lightgray" stroke-width="0.2" d="M 40,93.99999999999997l16,0 C56,93.99999999999997 187.5,179.79999999999998 187.5,179.79999999999998l16,0 C203.5,179.79999999999998 335,170.6 335,170.6l16,0 C351,170.6 482.5,203.6 482.5,203.6l16,0 C498.5,203.6 630,144.2 630,144.2l16,0 C646,144.2 777.5,137.6 777.5,137.6l16,0 C793.5,137.6 925,273.80000000000007 925,273.80000000000007l16,0 l0,6.6000000000000005 l -16,0 C925,280.4000000000001 793.5,144.2 793.5,144.2l-16,0 C777.5,144.2 646,150.79999999999998 646,150.79999999999998l-16,0 C630,150.79999999999998 498.5,210.2 498.5,210.2l-16,0 C482.5,210.2 351,177.2 351,177.2l-16,0 C335,177.2 203.5,186.39999999999998 203.5,186.39999999999998l-16,0 C187.5,186.39999999999998 56,100.59999999999997 56,100.59999999999997l-16,0 Z"/><path class="path" stroke-opacity="1" fill="rgb(240, 249, 33)" fill-opacity="0.6" stroke="lightgray" stroke-width="0.2" d="M 40,100.59999999999997l16,0 C56,100.59999999999997 187.5,227.4 187.5,227.4l16,0 C203.5,227.4 335,37.2 335,37.2l16,0 C351,37.2 482.5,210.2 482.5,210.2l16,0 C498.5,210.2 630,150.79999999999998 630,150.79999999999998l16,0 C646,150.79999999999998 777.5,144.2 777.5,144.2l16,0 C793.5,144.2 925,280.4000000000001 925,280.4000000000001l16,0 l0,6.6000000000000005 l -16,0 C925,287.0000000000001 793.5,150.79999999999998 793.5,150.79999999999998l-16,0 C777.5,150.79999999999998 646,157.39999999999998 646,157.39999999999998l-16,0 C630,157.39999999999998 498.5,216.79999999999998 498.5,216.79999999999998l-16,0 C482.5,216.79999999999998 351,43.800000000000004 351,43.800000000000004l-16,0 C335,43.800000000000004 203.5,234 203.5,234l-16,0 C187.5,234 56,107.19999999999996 56,107.19999999999996l-16,0 Z"/><path class="path" stroke-opacity="1" fill="rgb(240, 249, 33)" fill-opacity="0.6" stroke="lightgray" stroke-width="0.2" d="M 40,107.19999999999996l16,0 C56,107.19999999999996 187.5,234 187.5,234l16,0 C203.5,234 335,177.2 335,177.2l16,0 C351,177.2 482.5,30.6 482.5,30.6l16,0 C498.5,30.6 630,157.39999999999998 630,157.39999999999998l16,0 C646,157.39999999999998 777.5,150.79999999999998 777.5,150.79999999999998l16,0 C793.5,150.79999999999998 925,287.0000000000001 925,287.0000000000001l16,0 l0,6.6000000000000005 l -16,0 C925,293.60000000000014 793.5,157.39999999999998 793.5,157.39999999999998l-16,0 C777.5,157.39999999999998 646,163.99999999999997 646,163.99999999999997l-16,0 C630,163.99999999999997 498.5,37.2 498.5,37.2l-16,0 C482.5,37.2 351,183.79999999999998 351,183.79999999999998l-16,0 C335,183.79999999999998 203.5,240.6 203.5,240.6l-16,0 C187.5,240.6 56,113.79999999999995 56,113.79999999999995l-16,0 Z"/><path class="path" stroke-opacity="1" fill="rgb(240, 249, 33)" fill-opacity="0.6" stroke="lightgray" stroke-width="0.2" d="M 40,113.79999999999995l16,0 C56,113.79999999999995 187.5,240.6 187.5,240.6l16,0 C203.5,240.6 335,183.79999999999998 335,183.79999999999998l16,0 C351,183.79999999999998 482.5,216.79999999999998 482.5,216.79999999999998l16,0 C498.5,216.79999999999998 630,163.99999999999997 630,163.99999999999997l16,0 C646,163.99999999999997 777.5,157.39999999999998 777.5,157.39999999999998l16,0 C793.5,157.39999999999998 925,293.60000000000014 925,293.60000000000014l16,0 l0,6.6000000000000005 l -16,0 C925,300.20000000000016 793.5,163.99999999999997 793.5,163.99999999999997l-16,0 C777.5,163.99999999999997 646,170.59999999999997 646,170.59999999999997l-16,0 C630,170.59999999999997 498.5,223.39999999999998 498.5,223.39999999999998l-16,0 C482.5,223.39999999999998 351,190.39999999999998 351,190.39999999999998l-16,0 C335,190.39999999999998 203.5,247.2 203.5,247.2l-16,0 C187.5,247.2 56,120.39999999999995 56,120.39999999999995l-16,0 Z"/><path class="path" stroke-opacity="1" fill="rgb(240, 249, 33)" fill-opacity="0.6" stroke="lightgray" stroke-width="0.2" d="M 40,260.4l16,0 C56,260.4 187.5,33.2 187.5,33.2l16,0 C203.5,33.2 335,43.800000000000004 335,43.800000000000004l16,0 C351,43.800000000000004 482.5,37.2 482.5,37.2l16,0 C498.5,37.2 630,43.800000000000004 630,43.800000000000004l16,0 C646,43.800000000000004 777.5,24 777.5,24l16,0 C793.5,24 925,300.20000000000016 925,300.20000000000016l16,0 l0,6.6000000000000005 l -16,0 C925,306.8000000000002 793.5,30.6 793.5,30.6l-16,0 C777.5,30.6 646,50.400000000000006 646,50.400000000000006l-16,0 C630,50.400000000000006 498.5,43.800000000000004 498.5,43.800000000000004l-16,0 C482.5,43.800000000000004 351,50.400000000000006 351,50.400000000000006l-16,0 C335,50.400000000000006 203.5,39.800000000000004 203.5,39.800000000000004l-16,0 C187.5,39.800000000000004 56,267 56,267l-16,0 Z"/><path class="path" stroke-opacity="1" fill="rgb(240, 249, 33)" fill-opacity="0.6" stroke="lightgray" stroke-width="0.2" d="M 40,74.19999999999999l16,0 C56,74.19999999999999 187.5,160 187.5,160l16,0 C203.5,160 335,24 335,24l16,0 C351,24 482.5,190.4 482.5,190.4l16,0 C498.5,190.4 630,30.6 630,30.6l16,0 C646,30.6 777.5,117.8 777.5,117.8l16,0 C793.5,117.8 925,254 925,254l16,0 l0,6.6000000000000005 l -16,0 C925,260.6 793.5,124.39999999999999 793.5,124.39999999999999l-16,0 C777.5,124.39999999999999 646,37.2 646,37.2l-16,0 C630,37.2 498.5,197 498.5,197l-16,0 C482.5,197 351,30.6 351,30.6l-16,0 C335,30.6 203.5,166.6 203.5,166.6l-16,0 C187.5,166.6 56,80.79999999999998 56,80.79999999999998l-16,0 Z"/><path class="path" stroke-opacity="1" fill="rgb(240, 249, 33)" fill-opacity="0.6" stroke="lightgray" stroke-width="0.2" d="M 40,67.6l16,0 C56,67.6 187.5,26.6 187.5,26.6l16,0 C203.5,26.6 335,157.4 335,157.4l16,0 C351,157.4 482.5,183.8 482.5,183.8l16,0 C498.5,183.8 630,131 630,131l16,0 C646,131 777.5,111.2 777.5,111.2l16,0 C793.5,111.2 925,247.4 925,247.4l16,0 l0,6.6000000000000005 l -16,0 C925,254 793.5,117.8 793.5,117.8l-16,0 C777.5,117.8 646,137.6 646,137.6l-16,0 C630,137.6 498.5,190.4 498.5,190.4l-16,0 C482.5,190.4 351,164 351,164l-16,0 C335,164 203.5,33.2 203.5,33.2l-16,0 C187.5,33.2 56,74.19999999999999 56,74.19999999999999l-16,0 Z"/><path class="path" stroke-opacity="1" fill="rgb(252, 190, 44)" fill-opacity="0.6" stroke="lightgray" stroke-width="0.2" d="M 40,20l16,0 C56,20 187.5,53.00000000000001 187.5,53.00000000000001l16,0 C203.5,53.00000000000001 335,63.60000000000001 335,63.60000000000001l16,0 C351,63.60000000000001 482.5,57.00000000000001 482.5,57.00000000000001l16,0 C498.5,57.00000000000001 630,183.79999999999995 630,183.79999999999995l16,0 C646,183.79999999999995 777.5,43.800000000000004 777.5,43.800000000000004l16,0 C793.5,43.800000000000004 925,180 925,180l16,0 l0,6.6000000000000005 l -16,0 C925,186.6 793.5,50.400000000000006 793.5,50.400000000000006l-16,0 C777.5,50.400000000000006 646,190.39999999999995 646,190.39999999999995l-16,0 C630,190.39999999999995 498.5,63.60000000000001 498.5,63.60000000000001l-16,0 C482.5,63.60000000000001 351,70.2 351,70.2l-16,0 C335,70.2 203.5,59.60000000000001 203.5,59.60000000000001l-16,0 C187.5,59.60000000000001 56,26.6 56,26.6l-16,0 Z"/><path class="path" stroke-opacity="1" fill="rgb(252, 190, 44)" fill-opacity="0.6" stroke="lightgray" stroke-width="0.2" d="M 40,26.6l16,0 C56,26.6 187.5,59.60000000000001 187.5,59.60000000000001l16,0 C203.5,59.60000000000001 335,190.39999999999998 335,190.39999999999998l16,0 C351,190.39999999999998 482.5,223.39999999999998 482.5,223.39999999999998l16,0 C498.5,223.39999999999998 630,50.400000000000006 630,50.400000000000006l16,0 C646,50.400000000000006 777.5,50.400000000000006 777.5,50.400000000000006l16,0 C793.5,50.400000000000006 925,186.6 925,186.6l16,0 l0,6.6000000000000005 l -16,0 C925,193.2 793.5,57.00000000000001 793.5,57.00000000000001l-16,0 C777.5,57.00000000000001 646,57.00000000000001 646,57.00000000000001l-16,0 C630,57.00000000000001 498.5,229.99999999999997 498.5,229.99999999999997l-16,0 C482.5,229.99999999999997 351,196.99999999999997 351,196.99999999999997l-16,0 C335,196.99999999999997 203.5,66.2 203.5,66.2l-16,0 C187.5,66.2 56,33.2 56,33.2l-16,0 Z"/><path class="path" stroke-opacity="1" fill="rgb(252, 190, 44)" fill-opacity="0.6" stroke="lightgray" stroke-width="0.2" d="M 40,33.2l16,0 C56,33.2 187.5,247.2 187.5,247.2l16,0 C203.5,247.2 335,196.99999999999997 335,196.99999999999997l16,0 C351,196.99999999999997 482.5,229.99999999999997 482.5,229.99999999999997l16,0 C498.5,229.99999999999997 630,57.00000000000001 630,57.00000000000001l16,0 C646,57.00000000000001 777.5,57.00000000000001 777.5,57.00000000000001l16,0 C793.5,57.00000000000001 925,193.2 925,193.2l16,0 l0,6.6000000000000005 l -16,0 C925,199.79999999999998 793.5,63.60000000000001 793.5,63.60000000000001l-16,0 C777.5,63.60000000000001 646,63.60000000000001 646,63.60000000000001l-16,0 C630,63.60000000000001 498.5,236.59999999999997 498.5,236.59999999999997l-16,0 C482.5,236.59999999999997 351,203.59999999999997 351,203.59999999999997l-16,0 C335,203.59999999999997 203.5,253.79999999999998 203.5,253.79999999999998l-16,0 C187.5,253.79999999999998 56,39.800000000000004 56,39.800000000000004l-16,0 Z"/><path class="path" stroke-opacity="1" fill="rgb(252, 190, 44)" fill-opacity="0.6" stroke="lightgray" stroke-width="0.2" d="M 40,120.39999999999995l16,0 C56,120.39999999999995 187.5,66.2 187.5,66.2l16,0 C203.5,66.2 335,203.59999999999997 335,203.59999999999997l16,0 C351,203.59999999999997 482.5,236.59999999999997 482.5,236.59999999999997l16,0 C498.5,236.59999999999997 630,63.60000000000001 630,63.60000000000001l16,0 C646,63.60000000000001 777.5,163.99999999999997 777.5,163.99999999999997l16,0 C793.5,163.99999999999997 925,199.79999999999998 925,199.79999999999998l16,0 l0,6.6000000000000005 l -16,0 C925,206.39999999999998 793.5,170.59999999999997 793.5,170.59999999999997l-16,0 C777.5,170.59999999999997 646,70.2 646,70.2l-16,0 C630,70.2 498.5,243.19999999999996 498.5,243.19999999999996l-16,0 C482.5,243.19999999999996 351,210.19999999999996 351,210.19999999999996l-16,0 C335,210.19999999999996 203.5,72.8 203.5,72.8l-16,0 C187.5,72.8 56,126.99999999999994 56,126.99999999999994l-16,0 Z"/><path class="path" stroke-opacity="1" fill="rgb(252, 190, 44)" fill-opacity="0.6" stroke="lightgray" stroke-width="0.2" d="M 40,126.99999999999994l16,0 C56,126.99999999999994 187.5,186.39999999999998 187.5,186.39999999999998l16,0 C203.5,186.39999999999998 335,210.19999999999996 335,210.19999999999996l16,0 C351,210.19999999999996 482.5,63.60000000000001 482.5,63.60000000000001l16,0 C498.5,63.60000000000001 630,190.39999999999995 630,190.39999999999995l16,0 C646,190.39999999999995 777.5,170.59999999999997 777.5,170.59999999999997l16,0 C793.5,170.59999999999997 925,206.39999999999998 925,206.39999999999998l16,0 l0,6.6000000000000005 l -16,0 C925,212.99999999999997 793.5,177.19999999999996 793.5,177.19999999999996l-16,0 C777.5,177.19999999999996 646,196.99999999999994 646,196.99999999999994l-16,0 C630,196.99999999999994 498.5,70.2 498.5,70.2l-16,0 C482.5,70.2 351,216.79999999999995 351,216.79999999999995l-16,0 C335,216.79999999999995 203.5,192.99999999999997 203.5,192.99999999999997l-16,0 C187.5,192.99999999999997 56,133.59999999999994 56,133.59999999999994l-16,0 Z"/><path class="path" stroke-opacity="1" fill="rgb(252, 190, 44)" fill-opacity="0.6" stroke="lightgray" stroke-width="0.2" d="M 40,133.59999999999994l16,0 C56,133.59999999999994 187.5,192.99999999999997 187.5,192.99999999999997l16,0 C203.5,192.99999999999997 335,216.79999999999995 335,216.79999999999995l16,0 C351,216.79999999999995 482.5,243.19999999999996 482.5,243.19999999999996l16,0 C498.5,243.19999999999996 630,196.99999999999994 630,196.99999999999994l16,0 C646,196.99999999999994 777.5,177.19999999999996 777.5,177.19999999999996l16,0 C793.5,177.19999999999996 925,212.99999999999997 925,212.99999999999997l16,0 l0,6.6000000000000005 l -16,0 C925,219.59999999999997 793.5,183.79999999999995 793.5,183.79999999999995l-16,0 C777.5,183.79999999999995 646,203.59999999999994 646,203.59999999999994l-16,0 C630,203.59999999999994 498.5,249.79999999999995 498.5,249.79999999999995l-16,0 C482.5,249.79999999999995 351,223.39999999999995 351,223.39999999999995l-16,0 C335,223.39999999999995 203.5,199.59999999999997 203.5,199.59999999999997l-16,0 C187.5,199.59999999999997 56,140.19999999999993 56,140.19999999999993l-16,0 Z"/><path class="path" stroke-opacity="1" fill="rgb(252, 190, 44)" fill-opacity="0.6" stroke="lightgray" stroke-width="0.2" d="M 40,140.19999999999993l16,0 C56,140.19999999999993 187.5,253.79999999999998 187.5,253.79999999999998l16,0 C203.5,253.79999999999998 335,70.2 335,70.2l16,0 C351,70.2 482.5,249.79999999999995 482.5,249.79999999999995l16,0 C498.5,249.79999999999995 630,203.59999999999994 630,203.59999999999994l16,0 C646,203.59999999999994 777.5,183.79999999999995 777.5,183.79999999999995l16,0 C793.5,183.79999999999995 925,219.59999999999997 925,219.59999999999997l16,0 l0,6.6000000000000005 l -16,0 C925,226.19999999999996 793.5,190.39999999999995 793.5,190.39999999999995l-16,0 C777.5,190.39999999999995 646,210.19999999999993 646,210.19999999999993l-16,0 C630,210.19999999999993 498.5,256.4 498.5,256.4l-16,0 C482.5,256.4 351,76.8 351,76.8l-16,0 C335,76.8 203.5,260.4 203.5,260.4l-16,0 C187.5,260.4 56,146.79999999999993 56,146.79999999999993l-16,0 Z"/><path class="path" stroke-opacity="1" fill="rgb(252, 190, 44)" fill-opacity="0.6" stroke="lightgray" stroke-width="0.2" d="M 40,146.79999999999993l16,0 C56,146.79999999999993 187.5,260.4 187.5,260.4l16,0 C203.5,260.4 335,223.39999999999995 335,223.39999999999995l16,0 C351,223.39999999999995 482.5,70.2 482.5,70.2l16,0 C498.5,70.2 630,70.2 630,70.2l16,0 C646,70.2 777.5,190.39999999999995 777.5,190.39999999999995l16,0 C793.5,190.39999999999995 925,226.19999999999996 925,226.19999999999996l16,0 l0,6.6000000000000005 l -16,0 C925,232.79999999999995 793.5,196.99999999999994 793.5,196.99999999999994l-16,0 C777.5,196.99999999999994 646,76.8 646,76.8l-16,0 C630,76.8 498.5,76.8 498.5,76.8l-16,0 C482.5,76.8 351,229.99999999999994 351,229.99999999999994l-16,0 C335,229.99999999999994 203.5,267 203.5,267l-16,0 C187.5,267 56,153.39999999999992 56,153.39999999999992l-16,0 Z"/><path class="path" stroke-opacity="1" fill="rgb(243, 137, 72)" fill-opacity="0.6" stroke="lightgray" stroke-width="0.2" d="M 40,153.39999999999992l16,0 C56,153.39999999999992 187.5,72.8 187.5,72.8l16,0 C203.5,72.8 335,76.8 335,76.8l16,0 C351,76.8 482.5,256.4 482.5,256.4l16,0 C498.5,256.4 630,210.19999999999993 630,210.19999999999993l16,0 C646,210.19999999999993 777.5,196.99999999999994 777.5,196.99999999999994l16,0 C793.5,196.99999999999994 925,139 925,139l16,0 l0,6.6000000000000005 l -16,0 C925,145.6 793.5,203.59999999999994 793.5,203.59999999999994l-16,0 C777.5,203.59999999999994 646,216.79999999999993 646,216.79999999999993l-16,0 C630,216.79999999999993 498.5,263 498.5,263l-16,0 C482.5,263 351,83.39999999999999 351,83.39999999999999l-16,0 C335,83.39999999999999 203.5,79.39999999999999 203.5,79.39999999999999l-16,0 C187.5,79.39999999999999 56,159.99999999999991 56,159.99999999999991l-16,0 Z"/><path class="path" stroke-opacity="1" fill="rgb(243, 137, 72)" fill-opacity="0.6" stroke="lightgray" stroke-width="0.2" d="M 40,159.99999999999991l16,0 C56,159.99999999999991 187.5,79.39999999999999 187.5,79.39999999999999l16,0 C203.5,79.39999999999999 335,229.99999999999994 335,229.99999999999994l16,0 C351,229.99999999999994 482.5,76.8 482.5,76.8l16,0 C498.5,76.8 630,216.79999999999993 630,216.79999999999993l16,0 C646,216.79999999999993 777.5,203.59999999999994 777.5,203.59999999999994l16,0 C793.5,203.59999999999994 925,145.6 925,145.6l16,0 l0,6.6000000000000005 l -16,0 C925,152.2 793.5,210.19999999999993 793.5,210.19999999999993l-16,0 C777.5,210.19999999999993 646,223.39999999999992 646,223.39999999999992l-16,0 C630,223.39999999999992 498.5,83.39999999999999 498.5,83.39999999999999l-16,0 C482.5,83.39999999999999 351,236.59999999999994 351,236.59999999999994l-16,0 C335,236.59999999999994 203.5,85.99999999999999 203.5,85.99999999999999l-16,0 C187.5,85.99999999999999 56,166.5999999999999 56,166.5999999999999l-16,0 Z"/><path class="path" stroke-opacity="1" fill="rgb(243, 137, 72)" fill-opacity="0.6" stroke="lightgray" stroke-width="0.2" d="M 40,166.5999999999999l16,0 C56,166.5999999999999 187.5,199.59999999999997 187.5,199.59999999999997l16,0 C203.5,199.59999999999997 335,83.39999999999999 335,83.39999999999999l16,0 C351,83.39999999999999 482.5,83.39999999999999 482.5,83.39999999999999l16,0 C498.5,83.39999999999999 630,223.39999999999992 630,223.39999999999992l16,0 C646,223.39999999999992 777.5,210.19999999999993 777.5,210.19999999999993l16,0 C793.5,210.19999999999993 925,152.2 925,152.2l16,0 l0,6.6000000000000005 l -16,0 C925,158.79999999999998 793.5,216.79999999999993 793.5,216.79999999999993l-16,0 C777.5,216.79999999999993 646,229.99999999999991 646,229.99999999999991l-16,0 C630,229.99999999999991 498.5,89.99999999999999 498.5,89.99999999999999l-16,0 C482.5,89.99999999999999 351,89.99999999999999 351,89.99999999999999l-16,0 C335,89.99999999999999 203.5,206.19999999999996 203.5,206.19999999999996l-16,0 C187.5,206.19999999999996 56,173.1999999999999 56,173.1999999999999l-16,0 Z"/><path class="path" stroke-opacity="1" fill="rgb(243, 137, 72)" fill-opacity="0.6" stroke="lightgray" stroke-width="0.2" d="M 40,173.1999999999999l16,0 C56,173.1999999999999 187.5,267 187.5,267l16,0 C203.5,267 335,89.99999999999999 335,89.99999999999999l16,0 C351,89.99999999999999 482.5,89.99999999999999 482.5,89.99999999999999l16,0 C498.5,89.99999999999999 630,229.99999999999991 630,229.99999999999991l16,0 C646,229.99999999999991 777.5,216.79999999999993 777.5,216.79999999999993l16,0 C793.5,216.79999999999993 925,158.79999999999998 925,158.79999999999998l16,0 l0,6.6000000000000005 l -16,0 C925,165.39999999999998 793.5,223.39999999999992 793.5,223.39999999999992l-16,0 C777.5,223.39999999999992 646,236.5999999999999 646,236.5999999999999l-16,0 C630,236.5999999999999 498.5,96.59999999999998 498.5,96.59999999999998l-16,0 C482.5,96.59999999999998 351,96.59999999999998 351,96.59999999999998l-16,0 C335,96.59999999999998 203.5,273.6 203.5,273.6l-16,0 C187.5,273.6 56,179.7999999999999 56,179.7999999999999l-16,0 Z"/><path class="path" stroke-opacity="1" fill="rgb(243, 137, 72)" fill-opacity="0.6" stroke="lightgray" stroke-width="0.2" d="M 40,179.7999999999999l16,0 C56,179.7999999999999 187.5,273.6 187.5,273.6l16,0 C203.5,273.6 335,236.59999999999994 335,236.59999999999994l16,0 C351,236.59999999999994 482.5,263 482.5,263l16,0 C498.5,263 630,76.8 630,76.8l16,0 C646,76.8 777.5,223.39999999999992 777.5,223.39999999999992l16,0 C793.5,223.39999999999992 925,165.39999999999998 925,165.39999999999998l16,0 l0,6.6000000000000005 l -16,0 C925,171.99999999999997 793.5,229.99999999999991 793.5,229.99999999999991l-16,0 C777.5,229.99999999999991 646,83.39999999999999 646,83.39999999999999l-16,0 C630,83.39999999999999 498.5,269.6 498.5,269.6l-16,0 C482.5,269.6 351,243.19999999999993 351,243.19999999999993l-16,0 C335,243.19999999999993 203.5,280.20000000000005 203.5,280.20000000000005l-16,0 C187.5,280.20000000000005 56,186.3999999999999 56,186.3999999999999l-16,0 Z"/><path class="path" stroke-opacity="1" fill="rgb(219, 92, 104)" fill-opacity="0.6" stroke="lightgray" stroke-width="0.2" d="M 40,186.3999999999999l16,0 C56,186.3999999999999 187.5,85.99999999999999 187.5,85.99999999999999l16,0 C203.5,85.99999999999999 335,96.59999999999998 335,96.59999999999998l16,0 C351,96.59999999999998 482.5,269.6 482.5,269.6l16,0 C498.5,269.6 630,236.5999999999999 630,236.5999999999999l16,0 C646,236.5999999999999 777.5,229.99999999999991 777.5,229.99999999999991l16,0 C793.5,229.99999999999991 925,98.00000000000001 925,98.00000000000001l16,0 l0,6.6000000000000005 l -16,0 C925,104.60000000000001 793.5,236.5999999999999 793.5,236.5999999999999l-16,0 C777.5,236.5999999999999 646,243.1999999999999 646,243.1999999999999l-16,0 C630,243.1999999999999 498.5,276.20000000000005 498.5,276.20000000000005l-16,0 C482.5,276.20000000000005 351,103.19999999999997 351,103.19999999999997l-16,0 C335,103.19999999999997 203.5,92.59999999999998 203.5,92.59999999999998l-16,0 C187.5,92.59999999999998 56,192.9999999999999 56,192.9999999999999l-16,0 Z"/><path class="path" stroke-opacity="1" fill="rgb(219, 92, 104)" fill-opacity="0.6" stroke="lightgray" stroke-width="0.2" d="M 40,199.59999999999988l16,0 C56,199.59999999999988 187.5,206.19999999999996 187.5,206.19999999999996l16,0 C203.5,206.19999999999996 335,103.19999999999997 335,103.19999999999997l16,0 C351,103.19999999999997 482.5,103.19999999999997 482.5,103.19999999999997l16,0 C498.5,103.19999999999997 630,249.7999999999999 630,249.7999999999999l16,0 C646,249.7999999999999 777.5,243.1999999999999 777.5,243.1999999999999l16,0 C793.5,243.1999999999999 925,111.2 925,111.2l16,0 l0,6.6000000000000005 l -16,0 C925,117.8 793.5,249.7999999999999 793.5,249.7999999999999l-16,0 C777.5,249.7999999999999 646,256.3999999999999 646,256.3999999999999l-16,0 C630,256.3999999999999 498.5,109.79999999999997 498.5,109.79999999999997l-16,0 C482.5,109.79999999999997 351,109.79999999999997 351,109.79999999999997l-16,0 C335,109.79999999999997 203.5,212.79999999999995 203.5,212.79999999999995l-16,0 C187.5,212.79999999999995 56,206.19999999999987 56,206.19999999999987l-16,0 Z"/><path class="path" stroke-opacity="1" fill="rgb(219, 92, 104)" fill-opacity="0.6" stroke="lightgray" stroke-width="0.2" d="M 40,280.2l16,0 C56,280.2 187.5,99.19999999999997 187.5,99.19999999999997l16,0 C203.5,99.19999999999997 335,109.79999999999997 335,109.79999999999997l16,0 C351,109.79999999999997 482.5,276.20000000000005 482.5,276.20000000000005l16,0 C498.5,276.20000000000005 630,83.39999999999999 630,83.39999999999999l16,0 C646,83.39999999999999 777.5,63.60000000000001 777.5,63.60000000000001l16,0 C793.5,63.60000000000001 925,117.8 925,117.8l16,0 l0,6.6000000000000005 l -16,0 C925,124.39999999999999 793.5,70.2 793.5,70.2l-16,0 C777.5,70.2 646,89.99999999999999 646,89.99999999999999l-16,0 C630,89.99999999999999 498.5,282.80000000000007 498.5,282.80000000000007l-16,0 C482.5,282.80000000000007 351,116.39999999999996 351,116.39999999999996l-16,0 C335,116.39999999999996 203.5,105.79999999999997 203.5,105.79999999999997l-16,0 C187.5,105.79999999999997 56,286.8 56,286.8l-16,0 Z"/><path class="path" stroke-opacity="1" fill="rgb(219, 92, 104)" fill-opacity="0.6" stroke="lightgray" stroke-width="0.2" d="M 40,286.8l16,0 C56,286.8 187.5,105.79999999999997 187.5,105.79999999999997l16,0 C203.5,105.79999999999997 335,249.79999999999993 335,249.79999999999993l16,0 C351,249.79999999999993 482.5,282.80000000000007 482.5,282.80000000000007l16,0 C498.5,282.80000000000007 630,256.3999999999999 630,256.3999999999999l16,0 C646,256.3999999999999 777.5,70.2 777.5,70.2l16,0 C793.5,70.2 925,124.39999999999999 925,124.39999999999999l16,0 l0,6.6000000000000005 l -16,0 C925,131 793.5,76.8 793.5,76.8l-16,0 C777.5,76.8 646,262.99999999999994 646,262.99999999999994l-16,0 C630,262.99999999999994 498.5,289.4000000000001 498.5,289.4000000000001l-16,0 C482.5,289.4000000000001 351,256.3999999999999 351,256.3999999999999l-16,0 C335,256.3999999999999 203.5,112.39999999999996 203.5,112.39999999999996l-16,0 C187.5,112.39999999999996 56,293.40000000000003 56,293.40000000000003l-16,0 Z"/><path class="path" stroke-opacity="1" fill="rgb(219, 92, 104)" fill-opacity="0.6" stroke="lightgray" stroke-width="0.2" d="M 40,192.9999999999999l16,0 C56,192.9999999999999 187.5,92.59999999999998 187.5,92.59999999999998l16,0 C203.5,92.59999999999998 335,243.19999999999993 335,243.19999999999993l16,0 C351,243.19999999999993 482.5,96.59999999999998 482.5,96.59999999999998l16,0 C498.5,96.59999999999998 630,243.1999999999999 630,243.1999999999999l16,0 C646,243.1999999999999 777.5,236.5999999999999 777.5,236.5999999999999l16,0 C793.5,236.5999999999999 925,104.60000000000001 925,104.60000000000001l16,0 l0,6.6000000000000005 l -16,0 C925,111.2 793.5,243.1999999999999 793.5,243.1999999999999l-16,0 C777.5,243.1999999999999 646,249.7999999999999 646,249.7999999999999l-16,0 C630,249.7999999999999 498.5,103.19999999999997 498.5,103.19999999999997l-16,0 C482.5,103.19999999999997 351,249.79999999999993 351,249.79999999999993l-16,0 C335,249.79999999999993 203.5,99.19999999999997 203.5,99.19999999999997l-16,0 C187.5,99.19999999999997 56,199.59999999999988 56,199.59999999999988l-16,0 Z"/><path class="path" stroke-opacity="1" fill="rgb(184, 50, 137)" fill-opacity="0.6" stroke="lightgray" stroke-width="0.2" d="M 40,206.19999999999987l16,0 C56,206.19999999999987 187.5,280.20000000000005 187.5,280.20000000000005l16,0 C203.5,280.20000000000005 335,116.39999999999996 335,116.39999999999996l16,0 C351,116.39999999999996 482.5,109.79999999999997 482.5,109.79999999999997l16,0 C498.5,109.79999999999997 630,262.99999999999994 630,262.99999999999994l16,0 C646,262.99999999999994 777.5,249.7999999999999 777.5,249.7999999999999l16,0 C793.5,249.7999999999999 925,76.80000000000001 925,76.80000000000001l16,0 l0,6.6000000000000005 l -16,0 C925,83.4 793.5,256.3999999999999 793.5,256.3999999999999l-16,0 C777.5,256.3999999999999 646,269.59999999999997 646,269.59999999999997l-16,0 C630,269.59999999999997 498.5,116.39999999999996 498.5,116.39999999999996l-16,0 C482.5,116.39999999999996 351,122.99999999999996 351,122.99999999999996l-16,0 C335,122.99999999999996 203.5,286.80000000000007 203.5,286.80000000000007l-16,0 C187.5,286.80000000000007 56,212.79999999999987 56,212.79999999999987l-16,0 Z"/><path class="path" stroke-opacity="1" fill="rgb(184, 50, 137)" fill-opacity="0.6" stroke="lightgray" stroke-width="0.2" d="M 40,212.79999999999987l16,0 C56,212.79999999999987 187.5,286.80000000000007 187.5,286.80000000000007l16,0 C203.5,286.80000000000007 335,256.3999999999999 335,256.3999999999999l16,0 C351,256.3999999999999 482.5,116.39999999999996 482.5,116.39999999999996l16,0 C498.5,116.39999999999996 630,269.59999999999997 630,269.59999999999997l16,0 C646,269.59999999999997 777.5,256.3999999999999 777.5,256.3999999999999l16,0 C793.5,256.3999999999999 925,83.4 925,83.4l16,0 l0,6.6000000000000005 l -16,0 C925,90 793.5,262.99999999999994 793.5,262.99999999999994l-16,0 C777.5,262.99999999999994 646,276.2 646,276.2l-16,0 C630,276.2 498.5,122.99999999999996 498.5,122.99999999999996l-16,0 C482.5,122.99999999999996 351,262.99999999999994 351,262.99999999999994l-16,0 C335,262.99999999999994 203.5,293.4000000000001 203.5,293.4000000000001l-16,0 C187.5,293.4000000000001 56,219.39999999999986 56,219.39999999999986l-16,0 Z"/><path class="path" stroke-opacity="1" fill="rgb(138, 14, 162)" fill-opacity="0.6" stroke="lightgray" stroke-width="0.2" d="M 40,39.800000000000004l16,0 C56,39.800000000000004 187.5,112.39999999999996 187.5,112.39999999999996l16,0 C203.5,112.39999999999996 335,262.99999999999994 335,262.99999999999994l16,0 C351,262.99999999999994 482.5,122.99999999999996 482.5,122.99999999999996l16,0 C498.5,122.99999999999996 630,89.99999999999999 630,89.99999999999999l16,0 C646,89.99999999999999 777.5,76.8 777.5,76.8l16,0 C793.5,76.8 925,35.800000000000004 925,35.800000000000004l16,0 l0,6.6000000000000005 l -16,0 C925,42.400000000000006 793.5,83.39999999999999 793.5,83.39999999999999l-16,0 C777.5,83.39999999999999 646,96.59999999999998 646,96.59999999999998l-16,0 C630,96.59999999999998 498.5,129.59999999999997 498.5,129.59999999999997l-16,0 C482.5,129.59999999999997 351,269.59999999999997 351,269.59999999999997l-16,0 C335,269.59999999999997 203.5,118.99999999999996 203.5,118.99999999999996l-16,0 C187.5,118.99999999999996 56,46.400000000000006 56,46.400000000000006l-16,0 Z"/><path class="path" stroke-opacity="1" fill="rgb(138, 14, 162)" fill-opacity="0.6" stroke="lightgray" stroke-width="0.2" d="M 40,219.39999999999986l16,0 C56,219.39999999999986 187.5,118.99999999999996 187.5,118.99999999999996l16,0 C203.5,118.99999999999996 335,122.99999999999996 335,122.99999999999996l16,0 C351,122.99999999999996 482.5,129.59999999999997 482.5,129.59999999999997l16,0 C498.5,129.59999999999997 630,276.2 630,276.2l16,0 C646,276.2 777.5,262.99999999999994 777.5,262.99999999999994l16,0 C793.5,262.99999999999994 925,42.400000000000006 925,42.400000000000006l16,0 l0,6.6000000000000005 l -16,0 C925,49.00000000000001 793.5,269.59999999999997 793.5,269.59999999999997l-16,0 C777.5,269.59999999999997 646,282.8 646,282.8l-16,0 C630,282.8 498.5,136.19999999999996 498.5,136.19999999999996l-16,0 C482.5,136.19999999999996 351,129.59999999999997 351,129.59999999999997l-16,0 C335,129.59999999999997 203.5,125.59999999999995 203.5,125.59999999999995l-16,0 C187.5,125.59999999999995 56,225.99999999999986 56,225.99999999999986l-16,0 Z"/><path class="path" stroke-opacity="1" fill="rgb(138, 14, 162)" fill-opacity="0.6" stroke="lightgray" stroke-width="0.2" d="M 40,225.99999999999986l16,0 C56,225.99999999999986 187.5,125.59999999999995 187.5,125.59999999999995l16,0 C203.5,125.59999999999995 335,269.59999999999997 335,269.59999999999997l16,0 C351,269.59999999999997 482.5,136.19999999999996 482.5,136.19999999999996l16,0 C498.5,136.19999999999996 630,96.59999999999998 630,96.59999999999998l16,0 C646,96.59999999999998 777.5,269.59999999999997 777.5,269.59999999999997l16,0 C793.5,269.59999999999997 925,49.00000000000001 925,49.00000000000001l16,0 l0,6.6000000000000005 l -16,0 C925,55.60000000000001 793.5,276.2 793.5,276.2l-16,0 C777.5,276.2 646,103.19999999999997 646,103.19999999999997l-16,0 C630,103.19999999999997 498.5,142.79999999999995 498.5,142.79999999999995l-16,0 C482.5,142.79999999999995 351,276.2 351,276.2l-16,0 C335,276.2 203.5,132.19999999999996 203.5,132.19999999999996l-16,0 C187.5,132.19999999999996 56,232.59999999999985 56,232.59999999999985l-16,0 Z"/><path class="path" stroke-opacity="1" fill="rgb(138, 14, 162)" fill-opacity="0.6" stroke="lightgray" stroke-width="0.2" d="M 40,232.59999999999985l16,0 C56,232.59999999999985 187.5,293.4000000000001 187.5,293.4000000000001l16,0 C203.5,293.4000000000001 335,276.2 335,276.2l16,0 C351,276.2 482.5,289.4000000000001 482.5,289.4000000000001l16,0 C498.5,289.4000000000001 630,103.19999999999997 630,103.19999999999997l16,0 C646,103.19999999999997 777.5,276.2 777.5,276.2l16,0 C793.5,276.2 925,55.60000000000001 925,55.60000000000001l16,0 l0,6.6000000000000005 l -16,0 C925,62.20000000000001 793.5,282.8 793.5,282.8l-16,0 C777.5,282.8 646,109.79999999999997 646,109.79999999999997l-16,0 C630,109.79999999999997 498.5,296.0000000000001 498.5,296.0000000000001l-16,0 C482.5,296.0000000000001 351,282.8 351,282.8l-16,0 C335,282.8 203.5,300.0000000000001 203.5,300.0000000000001l-16,0 C187.5,300.0000000000001 56,239.19999999999985 56,239.19999999999985l-16,0 Z"/><path class="path" stroke-opacity="1" fill="rgb(138, 14, 162)" fill-opacity="0.6" stroke="lightgray" stroke-width="0.2" d="M 40,293.40000000000003l16,0 C56,293.40000000000003 187.5,132.19999999999996 187.5,132.19999999999996l16,0 C203.5,132.19999999999996 335,282.8 335,282.8l16,0 C351,282.8 482.5,142.79999999999995 482.5,142.79999999999995l16,0 C498.5,142.79999999999995 630,282.8 630,282.8l16,0 C646,282.8 777.5,83.39999999999999 777.5,83.39999999999999l16,0 C793.5,83.39999999999999 925,62.20000000000001 925,62.20000000000001l16,0 l0,6.6000000000000005 l -16,0 C925,68.80000000000001 793.5,89.99999999999999 793.5,89.99999999999999l-16,0 C777.5,89.99999999999999 646,289.40000000000003 646,289.40000000000003l-16,0 C630,289.40000000000003 498.5,149.39999999999995 498.5,149.39999999999995l-16,0 C482.5,149.39999999999995 351,289.40000000000003 351,289.40000000000003l-16,0 C335,289.40000000000003 203.5,138.79999999999995 203.5,138.79999999999995l-16,0 C187.5,138.79999999999995 56,300.00000000000006 56,300.00000000000006l-16,0 Z"/><path class="path" stroke-opacity="1" fill="rgb(83, 2, 162)" fill-opacity="0.6" stroke="lightgray" stroke-width="0.2" d="M 40,239.19999999999985l16,0 C56,239.19999999999985 187.5,138.79999999999995 187.5,138.79999999999995l16,0 C203.5,138.79999999999995 335,129.59999999999997 335,129.59999999999997l16,0 C351,129.59999999999997 482.5,149.39999999999995 482.5,149.39999999999995l16,0 C498.5,149.39999999999995 630,289.40000000000003 630,289.40000000000003l16,0 C646,289.40000000000003 777.5,282.8 777.5,282.8l16,0 C793.5,282.8 925,21.200000000000003 925,21.200000000000003l16,0 l0,6.6000000000000005 l -16,0 C925,27.800000000000004 793.5,289.40000000000003 793.5,289.40000000000003l-16,0 C777.5,289.40000000000003 646,296.00000000000006 646,296.00000000000006l-16,0 C630,296.00000000000006 498.5,155.99999999999994 498.5,155.99999999999994l-16,0 C482.5,155.99999999999994 351,136.19999999999996 351,136.19999999999996l-16,0 C335,136.19999999999996 203.5,145.39999999999995 203.5,145.39999999999995l-16,0 C187.5,145.39999999999995 56,245.79999999999984 56,245.79999999999984l-16,0 Z"/><path class="path" stroke-opacity="1" fill="rgb(13, 8, 135)" fill-opacity="0.6" stroke="lightgray" stroke-width="0.2" d="M 40,46.400000000000006l16,0 C56,46.400000000000006 187.5,145.39999999999995 187.5,145.39999999999995l16,0 C203.5,145.39999999999995 335,136.19999999999996 335,136.19999999999996l16,0 C351,136.19999999999996 482.5,155.99999999999994 482.5,155.99999999999994l16,0 C498.5,155.99999999999994 630,109.79999999999997 630,109.79999999999997l16,0 C646,109.79999999999997 777.5,89.99999999999999 777.5,89.99999999999999l16,0 C793.5,89.99999999999999 925,0 925,0l16,0 l0,6.6000000000000005 l -16,0 C925,6.6000000000000005 793.5,96.59999999999998 793.5,96.59999999999998l-16,0 C777.5,96.59999999999998 646,116.39999999999996 646,116.39999999999996l-16,0 C630,116.39999999999996 498.5,162.59999999999994 498.5,162.59999999999994l-16,0 C482.5,162.59999999999994 351,142.79999999999995 351,142.79999999999995l-16,0 C335,142.79999999999995 203.5,151.99999999999994 203.5,151.99999999999994l-16,0 C187.5,151.99999999999994 56,53.00000000000001 56,53.00000000000001l-16,0 Z"/><path class="path" stroke-opacity="1" fill="rgb(13, 8, 135)" fill-opacity="0.6" stroke="lightgray" stroke-width="0.2" d="M 40,245.79999999999984l16,0 C56,245.79999999999984 187.5,212.79999999999995 187.5,212.79999999999995l16,0 C203.5,212.79999999999995 335,289.40000000000003 335,289.40000000000003l16,0 C351,289.40000000000003 482.5,162.59999999999994 482.5,162.59999999999994l16,0 C498.5,162.59999999999994 630,116.39999999999996 630,116.39999999999996l16,0 C646,116.39999999999996 777.5,289.40000000000003 777.5,289.40000000000003l16,0 C793.5,289.40000000000003 925,6.6000000000000005 925,6.6000000000000005l16,0 l0,6.6000000000000005 l -16,0 C925,13.200000000000001 793.5,296.00000000000006 793.5,296.00000000000006l-16,0 C777.5,296.00000000000006 646,122.99999999999996 646,122.99999999999996l-16,0 C630,122.99999999999996 498.5,169.19999999999993 498.5,169.19999999999993l-16,0 C482.5,169.19999999999993 351,296.00000000000006 351,296.00000000000006l-16,0 C335,296.00000000000006 203.5,219.39999999999995 203.5,219.39999999999995l-16,0 C187.5,219.39999999999995 56,252.39999999999984 56,252.39999999999984l-16,0 Z"/></g><g class="dimensions"><g class="dimension" transform="translate(40, 0)"><g class="category" transform="translate(0, 20)"><rect class="catrect" pointer-events="none" fill="none" width="16" height="33" stroke="black" stroke-width="1" stroke-opacity="1"/><rect class="bandrect" stroke-opacity="1" fill="rgb(252, 190, 44)" fill-opacity="1" width="16" height="19.8" y="0" cursor="ns-resize" stroke="black" stroke-width="0.2"/><rect class="bandrect" stroke-opacity="1" fill="rgb(138, 14, 162)" fill-opacity="1" width="16" height="6.6000000000000005" y="19.8" cursor="ns-resize" stroke="black" stroke-width="0.2"/><rect class="bandrect" stroke-opacity="1" fill="rgb(13, 8, 135)" fill-opacity="1" width="16" height="6.6000000000000005" y="26.400000000000002" cursor="ns-resize" stroke="black" stroke-width="0.2"/><text class="catlabel" pointer-events="none" text-anchor="end" alignment-baseline="middle" x="-5" y="16.5" style="text-shadow: rgb(255, 255, 255) -1px 1px 2px, rgb(255, 255, 255) 1px 1px 2px, rgb(255, 255, 255) 1px -1px 2px, rgb(255, 255, 255) -1px -1px 2px; fill: rgb(68, 68, 68); font-family: 'Open Sans', verdana, arial, sans-serif; font-size: 15px; fill-opacity: 1; white-space: pre;">(test_r2 > 0.2)</text><text class="dimlabel" text-anchor="middle" alignment-baseline="baseline" cursor="ew-resize" x="8" y="-5" style="font-family: 'Open Sans', verdana, arial, sans-serif; font-size: 18px; fill: rgb(68, 68, 68); fill-opacity: 1;">CV threshold</text></g><g class="category" transform="translate(0, 61)"><rect class="catrect" pointer-events="none" fill="none" width="16" height="191.4" stroke="black" stroke-width="1" stroke-opacity="1"/><rect class="bandrect" stroke-opacity="1" fill="rgb(240, 249, 33)" fill-opacity="1" width="16" height="59.400000000000006" y="0" cursor="ns-resize" stroke="black" stroke-width="0.2"/><rect class="bandrect" stroke-opacity="1" fill="rgb(252, 190, 44)" fill-opacity="1" width="16" height="33" y="59.400000000000006" cursor="ns-resize" stroke="black" stroke-width="0.2"/><rect class="bandrect" stroke-opacity="1" fill="rgb(243, 137, 72)" fill-opacity="1" width="16" height="33" y="92.4" cursor="ns-resize" stroke="black" stroke-width="0.2"/><rect class="bandrect" stroke-opacity="1" fill="rgb(219, 92, 104)" fill-opacity="1" width="16" height="19.8" y="125.4" cursor="ns-resize" stroke="black" stroke-width="0.2"/><rect class="bandrect" stroke-opacity="1" fill="rgb(184, 50, 137)" fill-opacity="1" width="16" height="13.200000000000001" y="145.20000000000002" cursor="ns-resize" stroke="black" stroke-width="0.2"/><rect class="bandrect" stroke-opacity="1" fill="rgb(138, 14, 162)" fill-opacity="1" width="16" height="19.8" y="158.4" cursor="ns-resize" stroke="black" stroke-width="0.2"/><rect class="bandrect" stroke-opacity="1" fill="rgb(83, 2, 162)" fill-opacity="1" width="16" height="6.6000000000000005" y="178.20000000000002" cursor="ns-resize" stroke="black" stroke-width="0.2"/><rect class="bandrect" stroke-opacity="1" fill="rgb(13, 8, 135)" fill-opacity="1" width="16" height="6.6000000000000005" y="184.8" cursor="ns-resize" stroke="black" stroke-width="0.2"/><text class="catlabel" pointer-events="none" text-anchor="end" alignment-baseline="middle" x="-5" y="95.7" style="text-shadow: rgb(255, 255, 255) -1px 1px 2px, rgb(255, 255, 255) 1px 1px 2px, rgb(255, 255, 255) 1px -1px 2px, rgb(255, 255, 255) -1px -1px 2px; fill: rgb(68, 68, 68); font-family: 'Open Sans', verdana, arial, sans-serif; font-size: 15px; fill-opacity: 1; white-space: pre;">(test_r2 > 0.9)</text><text class="dimlabel" text-anchor="middle" alignment-baseline="baseline" cursor="ew-resize" x="8" y="-5" style="font-family: 'Open Sans', verdana, arial, sans-serif; font-size: 18px; fill: rgb(68, 68, 68); fill-opacity: 1;"/></g><g class="category" transform="translate(0, 260.4)"><rect class="catrect" pointer-events="none" fill="none" width="16" height="39.6" stroke="black" stroke-width="1" stroke-opacity="1"/><rect class="bandrect" stroke-opacity="1" fill="rgb(240, 249, 33)" fill-opacity="1" width="16" height="19.8" y="0" cursor="ns-resize" stroke="black" stroke-width="0.2"/><rect class="bandrect" stroke-opacity="1" fill="rgb(219, 92, 104)" fill-opacity="1" width="16" height="13.200000000000001" y="19.8" cursor="ns-resize" stroke="black" stroke-width="0.2"/><rect class="bandrect" stroke-opacity="1" fill="rgb(138, 14, 162)" fill-opacity="1" width="16" height="6.6000000000000005" y="33" cursor="ns-resize" stroke="black" stroke-width="0.2"/><text class="catlabel" pointer-events="none" text-anchor="end" alignment-baseline="middle" x="-5" y="19.8" style="text-shadow: rgb(255, 255, 255) -1px 1px 2px, rgb(255, 255, 255) 1px 1px 2px, rgb(255, 255, 255) 1px -1px 2px, rgb(255, 255, 255) -1px -1px 2px; fill: rgb(68, 68, 68); font-family: 'Open Sans', verdana, arial, sans-serif; font-size: 15px; fill-opacity: 1; white-space: pre;">(test_r2 > 0.65)</text><text class="dimlabel" text-anchor="middle" alignment-baseline="baseline" cursor="ew-resize" x="8" y="-5" style="font-family: 'Open Sans', verdana, arial, sans-serif; font-size: 18px; fill: rgb(68, 68, 68); fill-opacity: 1;"/></g></g><g class="dimension" transform="translate(187.5, 0)"><g class="category" transform="translate(0, 20)"><rect class="catrect" pointer-events="none" fill="none" width="16" height="132" stroke="black" stroke-width="1" stroke-opacity="1"/><rect class="bandrect" stroke-opacity="1" fill="rgb(240, 249, 33)" fill-opacity="1" width="16" height="33" y="0" cursor="ns-resize" stroke="black" stroke-width="0.2"/><rect class="bandrect" stroke-opacity="1" fill="rgb(252, 190, 44)" fill-opacity="1" width="16" height="19.8" y="33" cursor="ns-resize" stroke="black" stroke-width="0.2"/><rect class="bandrect" stroke-opacity="1" fill="rgb(243, 137, 72)" fill-opacity="1" width="16" height="13.200000000000001" y="52.8" cursor="ns-resize" stroke="black" stroke-width="0.2"/><rect class="bandrect" stroke-opacity="1" fill="rgb(219, 92, 104)" fill-opacity="1" width="16" height="26.400000000000002" y="66" cursor="ns-resize" stroke="black" stroke-width="0.2"/><rect class="bandrect" stroke-opacity="1" fill="rgb(138, 14, 162)" fill-opacity="1" width="16" height="26.400000000000002" y="92.4" cursor="ns-resize" stroke="black" stroke-width="0.2"/><rect class="bandrect" stroke-opacity="1" fill="rgb(83, 2, 162)" fill-opacity="1" width="16" height="6.6000000000000005" y="118.80000000000001" cursor="ns-resize" stroke="black" stroke-width="0.2"/><rect class="bandrect" stroke-opacity="1" fill="rgb(13, 8, 135)" fill-opacity="1" width="16" height="6.6000000000000005" y="125.4" cursor="ns-resize" stroke="black" stroke-width="0.2"/><text class="catlabel" pointer-events="none" text-anchor="end" alignment-baseline="middle" x="-5" y="66" style="text-shadow: rgb(255, 255, 255) -1px 1px 2px, rgb(255, 255, 255) 1px 1px 2px, rgb(255, 255, 255) 1px -1px 2px, rgb(255, 255, 255) -1px -1px 2px; fill: rgb(68, 68, 68); font-family: 'Open Sans', verdana, arial, sans-serif; font-size: 15px; fill-opacity: 1; white-space: pre;">(ndf_surr_score > 0.9)</text><text class="dimlabel" text-anchor="middle" alignment-baseline="baseline" cursor="ew-resize" x="8" y="-5" style="font-family: 'Open Sans', verdana, arial, sans-serif; font-size: 18px; fill: rgb(68, 68, 68); fill-opacity: 1;">Test-set threshold</text></g><g class="category" transform="translate(0, 160)"><rect class="catrect" pointer-events="none" fill="none" width="16" height="59.4" stroke="black" stroke-width="1" stroke-opacity="1"/><rect class="bandrect" stroke-opacity="1" fill="rgb(240, 249, 33)" fill-opacity="1" width="16" height="26.400000000000002" y="0" cursor="ns-resize" stroke="black" stroke-width="0.2"/><rect class="bandrect" stroke-opacity="1" fill="rgb(252, 190, 44)" fill-opacity="1" width="16" height="13.200000000000001" y="26.400000000000002" cursor="ns-resize" stroke="black" stroke-width="0.2"/><rect class="bandrect" stroke-opacity="1" fill="rgb(243, 137, 72)" fill-opacity="1" width="16" height="6.6000000000000005" y="39.6" cursor="ns-resize" stroke="black" stroke-width="0.2"/><rect class="bandrect" stroke-opacity="1" fill="rgb(219, 92, 104)" fill-opacity="1" width="16" height="6.6000000000000005" y="46.2" cursor="ns-resize" stroke="black" stroke-width="0.2"/><rect class="bandrect" stroke-opacity="1" fill="rgb(13, 8, 135)" fill-opacity="1" width="16" height="6.6000000000000005" y="52.800000000000004" cursor="ns-resize" stroke="black" stroke-width="0.2"/><text class="catlabel" pointer-events="none" text-anchor="end" alignment-baseline="middle" x="-5" y="29.7" style="text-shadow: rgb(255, 255, 255) -1px 1px 2px, rgb(255, 255, 255) 1px 1px 2px, rgb(255, 255, 255) 1px -1px 2px, rgb(255, 255, 255) -1px -1px 2px; fill: rgb(68, 68, 68); font-family: 'Open Sans', verdana, arial, sans-serif; font-size: 15px; fill-opacity: 1; white-space: pre;">(ndf_surr_score > 0)</text><text class="dimlabel" text-anchor="middle" alignment-baseline="baseline" cursor="ew-resize" x="8" y="-5" style="font-family: 'Open Sans', verdana, arial, sans-serif; font-size: 18px; fill: rgb(68, 68, 68); fill-opacity: 1;"/></g><g class="category" transform="translate(0, 227.4)"><rect class="catrect" pointer-events="none" fill="none" width="16" height="72.60000000000001" stroke="black" stroke-width="1" stroke-opacity="1"/><rect class="bandrect" stroke-opacity="1" fill="rgb(240, 249, 33)" fill-opacity="1" width="16" height="19.8" y="0" cursor="ns-resize" stroke="black" stroke-width="0.2"/><rect class="bandrect" stroke-opacity="1" fill="rgb(252, 190, 44)" fill-opacity="1" width="16" height="19.8" y="19.8" cursor="ns-resize" stroke="black" stroke-width="0.2"/><rect class="bandrect" stroke-opacity="1" fill="rgb(243, 137, 72)" fill-opacity="1" width="16" height="13.200000000000001" y="39.6" cursor="ns-resize" stroke="black" stroke-width="0.2"/><rect class="bandrect" stroke-opacity="1" fill="rgb(184, 50, 137)" fill-opacity="1" width="16" height="13.200000000000001" y="52.800000000000004" cursor="ns-resize" stroke="black" stroke-width="0.2"/><rect class="bandrect" stroke-opacity="1" fill="rgb(138, 14, 162)" fill-opacity="1" width="16" height="6.6000000000000005" y="66" cursor="ns-resize" stroke="black" stroke-width="0.2"/><text class="catlabel" pointer-events="none" text-anchor="end" alignment-baseline="middle" x="-5" y="36.300000000000004" style="text-shadow: rgb(255, 255, 255) -1px 1px 2px, rgb(255, 255, 255) 1px 1px 2px, rgb(255, 255, 255) 1px -1px 2px, rgb(255, 255, 255) -1px -1px 2px; fill: rgb(68, 68, 68); font-family: 'Open Sans', verdana, arial, sans-serif; font-size: 15px; fill-opacity: 1; white-space: pre;">(ndf_surr_score > 0.6)</text><text class="dimlabel" text-anchor="middle" alignment-baseline="baseline" cursor="ew-resize" x="8" y="-5" style="font-family: 'Open Sans', verdana, arial, sans-serif; font-size: 18px; fill: rgb(68, 68, 68); fill-opacity: 1;"/></g></g><g class="dimension" transform="translate(335, 0)"><g class="category" transform="translate(0, 24)"><rect class="catrect" pointer-events="none" fill="none" width="16" height="118.8" stroke="black" stroke-width="1" stroke-opacity="1"/><rect class="bandrect" stroke-opacity="1" fill="rgb(240, 249, 33)" fill-opacity="1" width="16" height="39.6" y="0" cursor="ns-resize" stroke="black" stroke-width="0.2"/><rect class="bandrect" stroke-opacity="1" fill="rgb(252, 190, 44)" fill-opacity="1" width="16" height="13.200000000000001" y="39.6" cursor="ns-resize" stroke="black" stroke-width="0.2"/><rect class="bandrect" stroke-opacity="1" fill="rgb(243, 137, 72)" fill-opacity="1" width="16" height="19.8" y="52.800000000000004" cursor="ns-resize" stroke="black" stroke-width="0.2"/><rect class="bandrect" stroke-opacity="1" fill="rgb(219, 92, 104)" fill-opacity="1" width="16" height="19.8" y="72.60000000000001" cursor="ns-resize" stroke="black" stroke-width="0.2"/><rect class="bandrect" stroke-opacity="1" fill="rgb(184, 50, 137)" fill-opacity="1" width="16" height="6.6000000000000005" y="92.4" cursor="ns-resize" stroke="black" stroke-width="0.2"/><rect class="bandrect" stroke-opacity="1" fill="rgb(138, 14, 162)" fill-opacity="1" width="16" height="6.6000000000000005" y="99" cursor="ns-resize" stroke="black" stroke-width="0.2"/><rect class="bandrect" stroke-opacity="1" fill="rgb(83, 2, 162)" fill-opacity="1" width="16" height="6.6000000000000005" y="105.6" cursor="ns-resize" stroke="black" stroke-width="0.2"/><rect class="bandrect" stroke-opacity="1" fill="rgb(13, 8, 135)" fill-opacity="1" width="16" height="6.6000000000000005" y="112.19999999999999" cursor="ns-resize" stroke="black" stroke-width="0.2"/><text class="catlabel" pointer-events="none" text-anchor="end" alignment-baseline="middle" x="-5" y="59.4" style="text-shadow: rgb(255, 255, 255) -1px 1px 2px, rgb(255, 255, 255) 1px 1px 2px, rgb(255, 255, 255) 1px -1px 2px, rgb(255, 255, 255) -1px -1px 2px; fill: rgb(68, 68, 68); font-family: 'Open Sans', verdana, arial, sans-serif; font-size: 15px; fill-opacity: 1; white-space: pre;">stack</text><text class="dimlabel" text-anchor="middle" alignment-baseline="baseline" cursor="ew-resize" x="8" y="-5" style="font-family: 'Open Sans', verdana, arial, sans-serif; font-size: 18px; fill: rgb(68, 68, 68); fill-opacity: 1;">Solution combination</text></g><g class="category" transform="translate(0, 150.8)"><rect class="catrect" pointer-events="none" fill="none" width="16" height="145.20000000000002" stroke="black" stroke-width="1" stroke-opacity="1"/><rect class="bandrect" stroke-opacity="1" fill="rgb(240, 249, 33)" fill-opacity="1" width="16" height="39.6" y="0" cursor="ns-resize" stroke="black" stroke-width="0.2"/><rect class="bandrect" stroke-opacity="1" fill="rgb(252, 190, 44)" fill-opacity="1" width="16" height="39.6" y="39.6" cursor="ns-resize" stroke="black" stroke-width="0.2"/><rect class="bandrect" stroke-opacity="1" fill="rgb(243, 137, 72)" fill-opacity="1" width="16" height="13.200000000000001" y="79.2" cursor="ns-resize" stroke="black" stroke-width="0.2"/><rect class="bandrect" stroke-opacity="1" fill="rgb(219, 92, 104)" fill-opacity="1" width="16" height="13.200000000000001" y="92.4" cursor="ns-resize" stroke="black" stroke-width="0.2"/><rect class="bandrect" stroke-opacity="1" fill="rgb(184, 50, 137)" fill-opacity="1" width="16" height="6.6000000000000005" y="105.60000000000001" cursor="ns-resize" stroke="black" stroke-width="0.2"/><rect class="bandrect" stroke-opacity="1" fill="rgb(138, 14, 162)" fill-opacity="1" width="16" height="26.400000000000002" y="112.2" cursor="ns-resize" stroke="black" stroke-width="0.2"/><rect class="bandrect" stroke-opacity="1" fill="rgb(13, 8, 135)" fill-opacity="1" width="16" height="6.6000000000000005" y="138.6" cursor="ns-resize" stroke="black" stroke-width="0.2"/><text class="catlabel" pointer-events="none" text-anchor="end" alignment-baseline="middle" x="-5" y="72.60000000000001" style="text-shadow: rgb(255, 255, 255) -1px 1px 2px, rgb(255, 255, 255) 1px 1px 2px, rgb(255, 255, 255) 1px -1px 2px, rgb(255, 255, 255) -1px -1px 2px; fill: rgb(68, 68, 68); font-family: 'Open Sans', verdana, arial, sans-serif; font-size: 15px; fill-opacity: 1; white-space: pre;">ndf_score</text><text class="dimlabel" text-anchor="middle" alignment-baseline="baseline" cursor="ew-resize" x="8" y="-5" style="font-family: 'Open Sans', verdana, arial, sans-serif; font-size: 18px; fill: rgb(68, 68, 68); fill-opacity: 1;"/></g></g><g class="dimension" transform="translate(482.5, 0)"><g class="category" transform="translate(0, 24)"><rect class="catrect" pointer-events="none" fill="none" width="16" height="145.20000000000002" stroke="black" stroke-width="1" stroke-opacity="1"/><rect class="bandrect" stroke-opacity="1" fill="rgb(240, 249, 33)" fill-opacity="1" width="16" height="33" y="0" cursor="ns-resize" stroke="black" stroke-width="0.2"/><rect class="bandrect" stroke-opacity="1" fill="rgb(252, 190, 44)" fill-opacity="1" width="16" height="19.8" y="33" cursor="ns-resize" stroke="black" stroke-width="0.2"/><rect class="bandrect" stroke-opacity="1" fill="rgb(243, 137, 72)" fill-opacity="1" width="16" height="19.8" y="52.8" cursor="ns-resize" stroke="black" stroke-width="0.2"/><rect class="bandrect" stroke-opacity="1" fill="rgb(219, 92, 104)" fill-opacity="1" width="16" height="13.200000000000001" y="72.6" cursor="ns-resize" stroke="black" stroke-width="0.2"/><rect class="bandrect" stroke-opacity="1" fill="rgb(184, 50, 137)" fill-opacity="1" width="16" height="13.200000000000001" y="85.8" cursor="ns-resize" stroke="black" stroke-width="0.2"/><rect class="bandrect" stroke-opacity="1" fill="rgb(138, 14, 162)" fill-opacity="1" width="16" height="26.400000000000002" y="99" cursor="ns-resize" stroke="black" stroke-width="0.2"/><rect class="bandrect" stroke-opacity="1" fill="rgb(83, 2, 162)" fill-opacity="1" width="16" height="6.6000000000000005" y="125.4" cursor="ns-resize" stroke="black" stroke-width="0.2"/><rect class="bandrect" stroke-opacity="1" fill="rgb(13, 8, 135)" fill-opacity="1" width="16" height="13.200000000000001" y="132" cursor="ns-resize" stroke="black" stroke-width="0.2"/><text class="catlabel" pointer-events="none" text-anchor="end" alignment-baseline="middle" x="-5" y="72.60000000000001" style="text-shadow: rgb(255, 255, 255) -1px 1px 2px, rgb(255, 255, 255) 1px 1px 2px, rgb(255, 255, 255) 1px -1px 2px, rgb(255, 255, 255) -1px -1px 2px; fill: rgb(68, 68, 68); font-family: 'Open Sans', verdana, arial, sans-serif; font-size: 15px; fill-opacity: 1; white-space: pre;">0.25</text><text class="dimlabel" text-anchor="middle" alignment-baseline="baseline" cursor="ew-resize" x="8" y="-5" style="font-family: 'Open Sans', verdana, arial, sans-serif; font-size: 18px; fill: rgb(68, 68, 68); fill-opacity: 1;">train/test split</text></g><g class="category" transform="translate(0, 177.20000000000002)"><rect class="catrect" pointer-events="none" fill="none" width="16" height="118.8" stroke="black" stroke-width="1" stroke-opacity="1"/><rect class="bandrect" stroke-opacity="1" fill="rgb(240, 249, 33)" fill-opacity="1" width="16" height="46.2" y="0" cursor="ns-resize" stroke="black" stroke-width="0.2"/><rect class="bandrect" stroke-opacity="1" fill="rgb(252, 190, 44)" fill-opacity="1" width="16" height="33" y="46.2" cursor="ns-resize" stroke="black" stroke-width="0.2"/><rect class="bandrect" stroke-opacity="1" fill="rgb(243, 137, 72)" fill-opacity="1" width="16" height="13.200000000000001" y="79.2" cursor="ns-resize" stroke="black" stroke-width="0.2"/><rect class="bandrect" stroke-opacity="1" fill="rgb(219, 92, 104)" fill-opacity="1" width="16" height="19.8" y="92.4" cursor="ns-resize" stroke="black" stroke-width="0.2"/><rect class="bandrect" stroke-opacity="1" fill="rgb(138, 14, 162)" fill-opacity="1" width="16" height="6.6000000000000005" y="112.2" cursor="ns-resize" stroke="black" stroke-width="0.2"/><text class="catlabel" pointer-events="none" text-anchor="end" alignment-baseline="middle" x="-5" y="59.4" style="text-shadow: rgb(255, 255, 255) -1px 1px 2px, rgb(255, 255, 255) 1px 1px 2px, rgb(255, 255, 255) 1px -1px 2px, rgb(255, 255, 255) -1px -1px 2px; fill: rgb(68, 68, 68); font-family: 'Open Sans', verdana, arial, sans-serif; font-size: 15px; fill-opacity: 1; white-space: pre;">0.1</text><text class="dimlabel" text-anchor="middle" alignment-baseline="baseline" cursor="ew-resize" x="8" y="-5" style="font-family: 'Open Sans', verdana, arial, sans-serif; font-size: 18px; fill: rgb(68, 68, 68); fill-opacity: 1;"/></g></g><g class="dimension" transform="translate(630, 0)"><g class="category" transform="translate(0, 24)"><rect class="catrect" pointer-events="none" fill="none" width="16" height="99" stroke="black" stroke-width="1" stroke-opacity="1"/><rect class="bandrect" stroke-opacity="1" fill="rgb(240, 249, 33)" fill-opacity="1" width="16" height="26.400000000000002" y="0" cursor="ns-resize" stroke="black" stroke-width="0.2"/><rect class="bandrect" stroke-opacity="1" fill="rgb(252, 190, 44)" fill-opacity="1" width="16" height="26.400000000000002" y="26.400000000000002" cursor="ns-resize" stroke="black" stroke-width="0.2"/><rect class="bandrect" stroke-opacity="1" fill="rgb(243, 137, 72)" fill-opacity="1" width="16" height="6.6000000000000005" y="52.800000000000004" cursor="ns-resize" stroke="black" stroke-width="0.2"/><rect class="bandrect" stroke-opacity="1" fill="rgb(219, 92, 104)" fill-opacity="1" width="16" height="6.6000000000000005" y="59.400000000000006" cursor="ns-resize" stroke="black" stroke-width="0.2"/><rect class="bandrect" stroke-opacity="1" fill="rgb(138, 14, 162)" fill-opacity="1" width="16" height="19.8" y="66" cursor="ns-resize" stroke="black" stroke-width="0.2"/><rect class="bandrect" stroke-opacity="1" fill="rgb(13, 8, 135)" fill-opacity="1" width="16" height="13.200000000000001" y="85.8" cursor="ns-resize" stroke="black" stroke-width="0.2"/><text class="catlabel" pointer-events="none" text-anchor="end" alignment-baseline="middle" x="-5" y="49.5" style="text-shadow: rgb(255, 255, 255) -1px 1px 2px, rgb(255, 255, 255) 1px 1px 2px, rgb(255, 255, 255) 1px -1px 2px, rgb(255, 255, 255) -1px -1px 2px; fill: rgb(68, 68, 68); font-family: 'Open Sans', verdana, arial, sans-serif; font-size: 15px; fill-opacity: 1; white-space: pre;">nsga2</text><text class="dimlabel" text-anchor="middle" alignment-baseline="baseline" cursor="ew-resize" x="8" y="-5" style="font-family: 'Open Sans', verdana, arial, sans-serif; font-size: 18px; fill: rgb(68, 68, 68); fill-opacity: 1;">Solver</text></g><g class="category" transform="translate(0, 131)"><rect class="catrect" pointer-events="none" fill="none" width="16" height="165" stroke="black" stroke-width="1" stroke-opacity="1"/><rect class="bandrect" stroke-opacity="1" fill="rgb(240, 249, 33)" fill-opacity="1" width="16" height="52.800000000000004" y="0" cursor="ns-resize" stroke="black" stroke-width="0.2"/><rect class="bandrect" stroke-opacity="1" fill="rgb(252, 190, 44)" fill-opacity="1" width="16" height="26.400000000000002" y="52.800000000000004" cursor="ns-resize" stroke="black" stroke-width="0.2"/><rect class="bandrect" stroke-opacity="1" fill="rgb(243, 137, 72)" fill-opacity="1" width="16" height="26.400000000000002" y="79.2" cursor="ns-resize" stroke="black" stroke-width="0.2"/><rect class="bandrect" stroke-opacity="1" fill="rgb(219, 92, 104)" fill-opacity="1" width="16" height="26.400000000000002" y="105.60000000000001" cursor="ns-resize" stroke="black" stroke-width="0.2"/><rect class="bandrect" stroke-opacity="1" fill="rgb(184, 50, 137)" fill-opacity="1" width="16" height="13.200000000000001" y="132" cursor="ns-resize" stroke="black" stroke-width="0.2"/><rect class="bandrect" stroke-opacity="1" fill="rgb(138, 14, 162)" fill-opacity="1" width="16" height="13.200000000000001" y="145.2" cursor="ns-resize" stroke="black" stroke-width="0.2"/><rect class="bandrect" stroke-opacity="1" fill="rgb(83, 2, 162)" fill-opacity="1" width="16" height="6.6000000000000005" y="158.39999999999998" cursor="ns-resize" stroke="black" stroke-width="0.2"/><text class="catlabel" pointer-events="none" text-anchor="end" alignment-baseline="middle" x="-5" y="82.5" style="text-shadow: rgb(255, 255, 255) -1px 1px 2px, rgb(255, 255, 255) 1px 1px 2px, rgb(255, 255, 255) 1px -1px 2px, rgb(255, 255, 255) -1px -1px 2px; fill: rgb(68, 68, 68); font-family: 'Open Sans', verdana, arial, sans-serif; font-size: 15px; fill-opacity: 1; white-space: pre;">moea_control</text><text class="dimlabel" text-anchor="middle" alignment-baseline="baseline" cursor="ew-resize" x="8" y="-5" style="font-family: 'Open Sans', verdana, arial, sans-serif; font-size: 18px; fill: rgb(68, 68, 68); fill-opacity: 1;"/></g></g><g class="dimension" transform="translate(777.5, 0)"><g class="category" transform="translate(0, 24)"><rect class="catrect" pointer-events="none" fill="none" width="16" height="72.60000000000001" stroke="black" stroke-width="1" stroke-opacity="1"/><rect class="bandrect" stroke-opacity="1" fill="rgb(240, 249, 33)" fill-opacity="1" width="16" height="19.8" y="0" cursor="ns-resize" stroke="black" stroke-width="0.2"/><rect class="bandrect" stroke-opacity="1" fill="rgb(252, 190, 44)" fill-opacity="1" width="16" height="19.8" y="19.8" cursor="ns-resize" stroke="black" stroke-width="0.2"/><rect class="bandrect" stroke-opacity="1" fill="rgb(219, 92, 104)" fill-opacity="1" width="16" height="13.200000000000001" y="39.6" cursor="ns-resize" stroke="black" stroke-width="0.2"/><rect class="bandrect" stroke-opacity="1" fill="rgb(138, 14, 162)" fill-opacity="1" width="16" height="13.200000000000001" y="52.800000000000004" cursor="ns-resize" stroke="black" stroke-width="0.2"/><rect class="bandrect" stroke-opacity="1" fill="rgb(13, 8, 135)" fill-opacity="1" width="16" height="6.6000000000000005" y="66" cursor="ns-resize" stroke="black" stroke-width="0.2"/><text class="catlabel" pointer-events="none" text-anchor="end" alignment-baseline="middle" x="-5" y="36.300000000000004" style="text-shadow: rgb(255, 255, 255) -1px 1px 2px, rgb(255, 255, 255) 1px 1px 2px, rgb(255, 255, 255) 1px -1px 2px, rgb(255, 255, 255) -1px -1px 2px; fill: rgb(68, 68, 68); font-family: 'Open Sans', verdana, arial, sans-serif; font-size: 15px; fill-opacity: 1; white-space: pre;">100</text><text class="dimlabel" text-anchor="middle" alignment-baseline="baseline" cursor="ew-resize" x="8" y="-5" style="font-family: 'Open Sans', verdana, arial, sans-serif; font-size: 18px; fill: rgb(68, 68, 68); fill-opacity: 1;">Predict size</text></g><g class="category" transform="translate(0, 104.60000000000001)"><rect class="catrect" pointer-events="none" fill="none" width="16" height="191.4" stroke="black" stroke-width="1" stroke-opacity="1"/><rect class="bandrect" stroke-opacity="1" fill="rgb(240, 249, 33)" fill-opacity="1" width="16" height="59.400000000000006" y="0" cursor="ns-resize" stroke="black" stroke-width="0.2"/><rect class="bandrect" stroke-opacity="1" fill="rgb(252, 190, 44)" fill-opacity="1" width="16" height="33" y="59.400000000000006" cursor="ns-resize" stroke="black" stroke-width="0.2"/><rect class="bandrect" stroke-opacity="1" fill="rgb(243, 137, 72)" fill-opacity="1" width="16" height="33" y="92.4" cursor="ns-resize" stroke="black" stroke-width="0.2"/><rect class="bandrect" stroke-opacity="1" fill="rgb(219, 92, 104)" fill-opacity="1" width="16" height="19.8" y="125.4" cursor="ns-resize" stroke="black" stroke-width="0.2"/><rect class="bandrect" stroke-opacity="1" fill="rgb(184, 50, 137)" fill-opacity="1" width="16" height="13.200000000000001" y="145.20000000000002" cursor="ns-resize" stroke="black" stroke-width="0.2"/><rect class="bandrect" stroke-opacity="1" fill="rgb(138, 14, 162)" fill-opacity="1" width="16" height="19.8" y="158.4" cursor="ns-resize" stroke="black" stroke-width="0.2"/><rect class="bandrect" stroke-opacity="1" fill="rgb(83, 2, 162)" fill-opacity="1" width="16" height="6.6000000000000005" y="178.20000000000002" cursor="ns-resize" stroke="black" stroke-width="0.2"/><rect class="bandrect" stroke-opacity="1" fill="rgb(13, 8, 135)" fill-opacity="1" width="16" height="6.6000000000000005" y="184.8" cursor="ns-resize" stroke="black" stroke-width="0.2"/><text class="catlabel" pointer-events="none" text-anchor="end" alignment-baseline="middle" x="-5" y="95.7" style="text-shadow: rgb(255, 255, 255) -1px 1px 2px, rgb(255, 255, 255) 1px 1px 2px, rgb(255, 255, 255) 1px -1px 2px, rgb(255, 255, 255) -1px -1px 2px; fill: rgb(68, 68, 68); font-family: 'Open Sans', verdana, arial, sans-serif; font-size: 15px; fill-opacity: 1; white-space: pre;">10</text><text class="dimlabel" text-anchor="middle" alignment-baseline="baseline" cursor="ew-resize" x="8" y="-5" style="font-family: 'Open Sans', verdana, arial, sans-serif; font-size: 18px; fill: rgb(68, 68, 68); fill-opacity: 1;"/></g></g><g class="dimension" transform="translate(925, 0)"><g class="category" transform="translate(0, 0)"><rect class="catrect" pointer-events="none" fill="none" width="16" height="13.200000000000001" stroke="black" stroke-width="1" stroke-opacity="1"/><rect class="bandrect" stroke-opacity="1" fill="rgb(13, 8, 135)" fill-opacity="1" width="16" height="13.200000000000001" y="0" cursor="ns-resize" stroke="black" stroke-width="0.2"/><text class="catlabel" pointer-events="none" text-anchor="start" alignment-baseline="middle" x="21" y="6.6000000000000005" style="text-shadow: rgb(255, 255, 255) -1px 1px 2px, rgb(255, 255, 255) 1px 1px 2px, rgb(255, 255, 255) 1px -1px 2px, rgb(255, 255, 255) -1px -1px 2px; fill: rgb(68, 68, 68); font-family: 'Open Sans', verdana, arial, sans-serif; font-size: 15px; fill-opacity: 1; white-space: pre;">3.7</text><text class="dimlabel" text-anchor="middle" alignment-baseline="baseline" cursor="ew-resize" x="8" y="-5" style="font-family: 'Open Sans', verdana, arial, sans-serif; font-size: 18px; fill: rgb(68, 68, 68); fill-opacity: 1;">p-distance</text></g><g class="category" transform="translate(0, 21.200000000000003)"><rect class="catrect" pointer-events="none" fill="none" width="16" height="6.6000000000000005" stroke="black" stroke-width="1" stroke-opacity="1"/><rect class="bandrect" stroke-opacity="1" fill="rgb(83, 2, 162)" fill-opacity="1" width="16" height="6.6000000000000005" y="0" cursor="ns-resize" stroke="black" stroke-width="0.2"/><text class="catlabel" pointer-events="none" text-anchor="start" alignment-baseline="middle" x="21" y="3.3000000000000003" style="text-shadow: rgb(255, 255, 255) -1px 1px 2px, rgb(255, 255, 255) 1px 1px 2px, rgb(255, 255, 255) 1px -1px 2px, rgb(255, 255, 255) -1px -1px 2px; fill: rgb(68, 68, 68); font-family: 'Open Sans', verdana, arial, sans-serif; font-size: 15px; fill-opacity: 1; white-space: pre;">3.6</text><text class="dimlabel" text-anchor="middle" alignment-baseline="baseline" cursor="ew-resize" x="8" y="-5" style="font-family: 'Open Sans', verdana, arial, sans-serif; font-size: 18px; fill: rgb(68, 68, 68); fill-opacity: 1;"/></g><g class="category" transform="translate(0, 35.800000000000004)"><rect class="catrect" pointer-events="none" fill="none" width="16" height="33" stroke="black" stroke-width="1" stroke-opacity="1"/><rect class="bandrect" stroke-opacity="1" fill="rgb(138, 14, 162)" fill-opacity="1" width="16" height="33" y="0" cursor="ns-resize" stroke="black" stroke-width="0.2"/><text class="catlabel" pointer-events="none" text-anchor="start" alignment-baseline="middle" x="21" y="16.5" style="text-shadow: rgb(255, 255, 255) -1px 1px 2px, rgb(255, 255, 255) 1px 1px 2px, rgb(255, 255, 255) 1px -1px 2px, rgb(255, 255, 255) -1px -1px 2px; fill: rgb(68, 68, 68); font-family: 'Open Sans', verdana, arial, sans-serif; font-size: 15px; fill-opacity: 1; white-space: pre;">3.5</text><text class="dimlabel" text-anchor="middle" alignment-baseline="baseline" cursor="ew-resize" x="8" y="-5" style="font-family: 'Open Sans', verdana, arial, sans-serif; font-size: 18px; fill: rgb(68, 68, 68); fill-opacity: 1;"/></g><g class="category" transform="translate(0, 76.80000000000001)"><rect class="catrect" pointer-events="none" fill="none" width="16" height="13.200000000000001" stroke="black" stroke-width="1" stroke-opacity="1"/><rect class="bandrect" stroke-opacity="1" fill="rgb(184, 50, 137)" fill-opacity="1" width="16" height="13.200000000000001" y="0" cursor="ns-resize" stroke="black" stroke-width="0.2"/><text class="catlabel" pointer-events="none" text-anchor="start" alignment-baseline="middle" x="21" y="6.6000000000000005" style="text-shadow: rgb(255, 255, 255) -1px 1px 2px, rgb(255, 255, 255) 1px 1px 2px, rgb(255, 255, 255) 1px -1px 2px, rgb(255, 255, 255) -1px -1px 2px; fill: rgb(68, 68, 68); font-family: 'Open Sans', verdana, arial, sans-serif; font-size: 15px; fill-opacity: 1; white-space: pre;">3.4</text><text class="dimlabel" text-anchor="middle" alignment-baseline="baseline" cursor="ew-resize" x="8" y="-5" style="font-family: 'Open Sans', verdana, arial, sans-serif; font-size: 18px; fill: rgb(68, 68, 68); fill-opacity: 1;"/></g><g class="category" transform="translate(0, 98.00000000000001)"><rect class="catrect" pointer-events="none" fill="none" width="16" height="33" stroke="black" stroke-width="1" stroke-opacity="1"/><rect class="bandrect" stroke-opacity="1" fill="rgb(219, 92, 104)" fill-opacity="1" width="16" height="33" y="0" cursor="ns-resize" stroke="black" stroke-width="0.2"/><text class="catlabel" pointer-events="none" text-anchor="start" alignment-baseline="middle" x="21" y="16.5" style="text-shadow: rgb(255, 255, 255) -1px 1px 2px, rgb(255, 255, 255) 1px 1px 2px, rgb(255, 255, 255) 1px -1px 2px, rgb(255, 255, 255) -1px -1px 2px; fill: rgb(68, 68, 68); font-family: 'Open Sans', verdana, arial, sans-serif; font-size: 15px; fill-opacity: 1; white-space: pre;">3.3</text><text class="dimlabel" text-anchor="middle" alignment-baseline="baseline" cursor="ew-resize" x="8" y="-5" style="font-family: 'Open Sans', verdana, arial, sans-serif; font-size: 18px; fill: rgb(68, 68, 68); fill-opacity: 1;"/></g><g class="category" transform="translate(0, 139)"><rect class="catrect" pointer-events="none" fill="none" width="16" height="33" stroke="black" stroke-width="1" stroke-opacity="1"/><rect class="bandrect" stroke-opacity="1" fill="rgb(243, 137, 72)" fill-opacity="1" width="16" height="33" y="0" cursor="ns-resize" stroke="black" stroke-width="0.2"/><text class="catlabel" pointer-events="none" text-anchor="start" alignment-baseline="middle" x="21" y="16.5" style="text-shadow: rgb(255, 255, 255) -1px 1px 2px, rgb(255, 255, 255) 1px 1px 2px, rgb(255, 255, 255) 1px -1px 2px, rgb(255, 255, 255) -1px -1px 2px; fill: rgb(68, 68, 68); font-family: 'Open Sans', verdana, arial, sans-serif; font-size: 15px; fill-opacity: 1; white-space: pre;">3.2</text><text class="dimlabel" text-anchor="middle" alignment-baseline="baseline" cursor="ew-resize" x="8" y="-5" style="font-family: 'Open Sans', verdana, arial, sans-serif; font-size: 18px; fill: rgb(68, 68, 68); fill-opacity: 1;"/></g><g class="category" transform="translate(0, 180)"><rect class="catrect" pointer-events="none" fill="none" width="16" height="52.800000000000004" stroke="black" stroke-width="1" stroke-opacity="1"/><rect class="bandrect" stroke-opacity="1" fill="rgb(252, 190, 44)" fill-opacity="1" width="16" height="52.800000000000004" y="0" cursor="ns-resize" stroke="black" stroke-width="0.2"/><text class="catlabel" pointer-events="none" text-anchor="start" alignment-baseline="middle" x="21" y="26.400000000000002" style="text-shadow: rgb(255, 255, 255) -1px 1px 2px, rgb(255, 255, 255) 1px 1px 2px, rgb(255, 255, 255) 1px -1px 2px, rgb(255, 255, 255) -1px -1px 2px; fill: rgb(68, 68, 68); font-family: 'Open Sans', verdana, arial, sans-serif; font-size: 15px; fill-opacity: 1; white-space: pre;">3.1</text><text class="dimlabel" text-anchor="middle" alignment-baseline="baseline" cursor="ew-resize" x="8" y="-5" style="font-family: 'Open Sans', verdana, arial, sans-serif; font-size: 18px; fill: rgb(68, 68, 68); fill-opacity: 1;"/></g><g class="category" transform="translate(0, 240.8)"><rect class="catrect" pointer-events="none" fill="none" width="16" height="79.2" stroke="black" stroke-width="1" stroke-opacity="1"/><rect class="bandrect" stroke-opacity="1" fill="rgb(240, 249, 33)" fill-opacity="1" width="16" height="79.2" y="0" cursor="ns-resize" stroke="black" stroke-width="0.2"/><text class="catlabel" pointer-events="none" text-anchor="start" alignment-baseline="middle" x="21" y="39.6" style="text-shadow: rgb(255, 255, 255) -1px 1px 2px, rgb(255, 255, 255) 1px 1px 2px, rgb(255, 255, 255) 1px -1px 2px, rgb(255, 255, 255) -1px -1px 2px; fill: rgb(68, 68, 68); font-family: 'Open Sans', verdana, arial, sans-serif; font-size: 15px; fill-opacity: 1; white-space: pre;">3</text><text class="dimlabel" text-anchor="middle" alignment-baseline="baseline" cursor="ew-resize" x="8" y="-5" style="font-family: 'Open Sans', verdana, arial, sans-serif; font-size: 18px; fill: rgb(68, 68, 68); fill-opacity: 1;"/></g></g></g></g></g><defs id="topdefs-7e4b74"><g class="clips"/></defs><g class="layer-above"><g class="imagelayer"/><g class="shapelayer"/></g><g class="infolayer"><g class="cbcoloraxis colorbar" transform="translate(80,100)"><rect class="cbbg" x="1000.5" y="-0.5" width="107.578125" height="321" style="fill: rgb(0, 0, 0); fill-opacity: 0; stroke: rgb(68, 68, 68); stroke-opacity: 1; stroke-width: 0;"/><g class="cbfills" transform="translate(0,39)"><rect class="cbfill" x="1011" width="30" y="0" height="271" style="stroke: none; fill: url('#g7e4b74-cbcoloraxis');"/></g><g class="cblines" transform="translate(0,39)"/><g class="cbaxis crisp" transform="translate(0,-100)"><g class="ycbcoloraxistick"><text text-anchor="start" x="1045.6" y="6.3" transform="translate(0,410)" style="font-family: 'Open Sans', verdana, arial, sans-serif; font-size: 18px; fill: rgb(68, 68, 68); fill-opacity: 1; white-space: pre;">3</text></g><g class="ycbcoloraxistick"><text text-anchor="start" x="1045.6" y="6.3" transform="translate(0,371.28999999999996)" style="font-family: 'Open Sans', verdana, arial, sans-serif; font-size: 18px; fill: rgb(68, 68, 68); fill-opacity: 1; white-space: pre;">3.1</text></g><g class="ycbcoloraxistick"><text text-anchor="start" x="1045.6" y="6.3" transform="translate(0,332.57)" style="font-family: 'Open Sans', verdana, arial, sans-serif; font-size: 18px; fill: rgb(68, 68, 68); fill-opacity: 1; white-space: pre;">3.2</text></g><g class="ycbcoloraxistick"><text text-anchor="start" x="1045.6" y="6.3" transform="translate(0,293.86)" style="font-family: 'Open Sans', verdana, arial, sans-serif; font-size: 18px; fill: rgb(68, 68, 68); fill-opacity: 1; white-space: pre;">3.3</text></g><g class="ycbcoloraxistick"><text text-anchor="start" x="1045.6" y="6.3" transform="translate(0,255.14)" style="font-family: 'Open Sans', verdana, arial, sans-serif; font-size: 18px; fill: rgb(68, 68, 68); fill-opacity: 1; white-space: pre;">3.4</text></g><g class="ycbcoloraxistick"><text text-anchor="start" x="1045.6" y="6.3" transform="translate(0,216.43)" style="font-family: 'Open Sans', verdana, arial, sans-serif; font-size: 18px; fill: rgb(68, 68, 68); fill-opacity: 1; white-space: pre;">3.5</text></g><g class="ycbcoloraxistick"><text text-anchor="start" x="1045.6" y="6.3" transform="translate(0,177.71)" style="font-family: 'Open Sans', verdana, arial, sans-serif; font-size: 18px; fill: rgb(68, 68, 68); fill-opacity: 1; white-space: pre;">3.6</text></g><g class="ycbcoloraxistick"><text text-anchor="start" x="1045.6" y="6.3" transform="translate(0,139)" style="font-family: 'Open Sans', verdana, arial, sans-serif; font-size: 18px; fill: rgb(68, 68, 68); fill-opacity: 1; white-space: pre;">3.7</text></g></g><g class="cbtitleunshift" transform="translate(-80,-100)"><g class="cbtitle" transform="translate(-0.5,-0.5)"><text class="ycbcoloraxistitle" x="1090.62" y="126.5" text-anchor="start" style="font-family: 'Open Sans', verdana, arial, sans-serif; font-size: 18px; fill: rgb(68, 68, 68); opacity: 1; font-weight: normal; white-space: pre;">p-distance</text></g></g><rect class="cboutline" x="1011" y="39" width="30" height="271" style="stroke: rgb(68, 68, 68); stroke-opacity: 1; fill: none; stroke-width: 1;"/></g><g class="g-gtitle"><text class="gtitle" x="600" y="50" text-anchor="middle" dy="0em" style="font-family: 'Open Sans', verdana, arial, sans-serif; font-size: 25px; fill: rgb(68, 68, 68); opacity: 1; font-weight: normal; white-space: pre;">ZDT4: TutorM worst combinations</text></g></g></svg>