<svg class="main-svg" xmlns="http://www.w3.org/2000/svg" xmlns:xlink="http://www.w3.org/1999/xlink" width="1200" height="500" viewBox="0 0 1200 500"><rect x="0" y="0" width="1200" height="500" style="fill: rgb(255, 255, 255); fill-opacity: 1;"/><defs id="defs-72b664"><g class="clips"/><g class="gradients"><linearGradient x1="0" x2="0" y1="1" y2="0" id="g72b664-cbcoloraxis"><stop offset="0%" stop-color="rgb(0, 0, 0)" stop-opacity="1"/><stop offset="33.33333333333333%" stop-color="rgb(230, 0, 0)" stop-opacity="1"/><stop offset="66.66666666666666%" stop-color="rgb(255, 210, 0)" stop-opacity="1"/><stop offset="100%" stop-color="rgb(255, 255, 255)" stop-opacity="1"/></linearGradient></g></defs><g class="bglayer"/><g class="layer-below"><g class="imagelayer"/><g class="shapelayer"/></g><g class="cartesianlayer"/><g class="polarlayer"/><g class="ternarylayer"/><g class="geolayer"/><g class="funnelarealayer"/><g class="pielayer"/><g class="treemaplayer"/><g class="sunburstlayer"/><g class="glimages"/><g class="parcatslayer" style="pointer-events: all;"><g class="trace parcats" transform="translate(80, 100)"><g class="paths"><path class="path" stroke-opacity="1" fill="rgb(0, 0, 0)" fill-opacity="0.6" stroke="lightgray" stroke-width="0.2" d="M 40,8l16,0 C56,8 187.5,8 187.5,8l16,0 C203.5,8 335,12 335,12l16,0 C351,12 482.5,12 482.5,12l16,0 C498.5,12 630,12 630,12l16,0 C646,12 777.5,12 777.5,12l16,0 C793.5,12 925,0 925,0l16,0 l0,7.2 l -16,0 C925,7.2 793.5,19.2 793.5,19.2l-16,0 C777.5,19.2 646,19.2 646,19.2l-16,0 C630,19.2 498.5,19.2 498.5,19.2l-16,0 C482.5,19.2 351,19.2 351,19.2l-16,0 C335,19.2 203.5,15.2 203.5,15.2l-16,0 C187.5,15.2 56,15.2 56,15.2l-16,0 Z"/><path class="path" stroke-opacity="1" fill="rgb(0, 0, 0)" fill-opacity="0.6" stroke="lightgray" stroke-width="0.2" d="M 40,196l16,0 C56,196 187.5,131.2 187.5,131.2l16,0 C203.5,131.2 335,19.2 335,19.2l16,0 C351,19.2 482.5,164 482.5,164l16,0 C498.5,164 630,19.2 630,19.2l16,0 C646,19.2 777.5,200 777.5,200l16,0 C793.5,200 925,7.2 925,7.2l16,0 l0,7.2 l -16,0 C925,14.4 793.5,207.2 793.5,207.2l-16,0 C777.5,207.2 646,26.4 646,26.4l-16,0 C630,26.4 498.5,171.2 498.5,171.2l-16,0 C482.5,171.2 351,26.4 351,26.4l-16,0 C335,26.4 203.5,138.39999999999998 203.5,138.39999999999998l-16,0 C187.5,138.39999999999998 56,203.2 56,203.2l-16,0 Z"/><path class="path" stroke-opacity="1" fill="rgb(173, 0, 0)" fill-opacity="0.6" stroke="lightgray" stroke-width="0.2" d="M 40,22.4l16,0 C56,22.4 187.5,138.39999999999998 187.5,138.39999999999998l16,0 C203.5,138.39999999999998 335,26.4 335,26.4l16,0 C351,26.4 482.5,171.2 482.5,171.2l16,0 C498.5,171.2 630,33.6 630,33.6l16,0 C646,33.6 777.5,26.4 777.5,26.4l16,0 C793.5,26.4 925,29.599999999999998 925,29.599999999999998l16,0 l0,7.2 l -16,0 C925,36.8 793.5,33.6 793.5,33.6l-16,0 C777.5,33.6 646,40.800000000000004 646,40.800000000000004l-16,0 C630,40.800000000000004 498.5,178.39999999999998 498.5,178.39999999999998l-16,0 C482.5,178.39999999999998 351,33.6 351,33.6l-16,0 C335,33.6 203.5,145.59999999999997 203.5,145.59999999999997l-16,0 C187.5,145.59999999999997 56,29.599999999999998 56,29.599999999999998l-16,0 Z"/><path class="path" stroke-opacity="1" fill="rgb(173, 0, 0)" fill-opacity="0.6" stroke="lightgray" stroke-width="0.2" d="M 40,232.8l16,0 C56,232.8 187.5,152.79999999999995 187.5,152.79999999999995l16,0 C203.5,152.79999999999995 335,33.6 335,33.6l16,0 C351,33.6 482.5,33.6 482.5,33.6l16,0 C498.5,33.6 630,48.00000000000001 630,48.00000000000001l16,0 C646,48.00000000000001 777.5,40.800000000000004 777.5,40.800000000000004l16,0 C793.5,40.800000000000004 925,44 925,44l16,0 l0,7.2 l -16,0 C925,51.2 793.5,48.00000000000001 793.5,48.00000000000001l-16,0 C777.5,48.00000000000001 646,55.20000000000001 646,55.20000000000001l-16,0 C630,55.20000000000001 498.5,40.800000000000004 498.5,40.800000000000004l-16,0 C482.5,40.800000000000004 351,40.800000000000004 351,40.800000000000004l-16,0 C335,40.800000000000004 203.5,159.99999999999994 203.5,159.99999999999994l-16,0 C187.5,159.99999999999994 56,240 56,240l-16,0 Z"/><path class="path" stroke-opacity="1" fill="rgb(173, 0, 0)" fill-opacity="0.6" stroke="lightgray" stroke-width="0.2" d="M 40,15.2l16,0 C56,15.2 187.5,15.2 187.5,15.2l16,0 C203.5,15.2 335,185.6 335,185.6l16,0 C351,185.6 482.5,19.2 482.5,19.2l16,0 C498.5,19.2 630,26.4 630,26.4l16,0 C646,26.4 777.5,19.2 777.5,19.2l16,0 C793.5,19.2 925,22.4 925,22.4l16,0 l0,7.2 l -16,0 C925,29.599999999999998 793.5,26.4 793.5,26.4l-16,0 C777.5,26.4 646,33.6 646,33.6l-16,0 C630,33.6 498.5,26.4 498.5,26.4l-16,0 C482.5,26.4 351,192.79999999999998 351,192.79999999999998l-16,0 C335,192.79999999999998 203.5,22.4 203.5,22.4l-16,0 C187.5,22.4 56,22.4 56,22.4l-16,0 Z"/><path class="path" stroke-opacity="1" fill="rgb(173, 0, 0)" fill-opacity="0.6" stroke="lightgray" stroke-width="0.2" d="M 40,29.599999999999998l16,0 C56,29.599999999999998 187.5,145.59999999999997 187.5,145.59999999999997l16,0 C203.5,145.59999999999997 335,192.79999999999998 335,192.79999999999998l16,0 C351,192.79999999999998 482.5,26.4 482.5,26.4l16,0 C498.5,26.4 630,40.800000000000004 630,40.800000000000004l16,0 C646,40.800000000000004 777.5,33.6 777.5,33.6l16,0 C793.5,33.6 925,36.8 925,36.8l16,0 l0,7.2 l -16,0 C925,44 793.5,40.800000000000004 793.5,40.800000000000004l-16,0 C777.5,40.800000000000004 646,48.00000000000001 646,48.00000000000001l-16,0 C630,48.00000000000001 498.5,33.6 498.5,33.6l-16,0 C482.5,33.6 351,199.99999999999997 351,199.99999999999997l-16,0 C335,199.99999999999997 203.5,152.79999999999995 203.5,152.79999999999995l-16,0 C187.5,152.79999999999995 56,36.8 56,36.8l-16,0 Z"/><path class="path" stroke-opacity="1" fill="rgb(243, 105, 0)" fill-opacity="0.6" stroke="lightgray" stroke-width="0.2" d="M 40,44l16,0 C56,44 187.5,29.599999999999998 187.5,29.599999999999998l16,0 C203.5,29.599999999999998 335,48.00000000000001 335,48.00000000000001l16,0 C351,48.00000000000001 482.5,178.39999999999998 482.5,178.39999999999998l16,0 C498.5,178.39999999999998 630,178.4 630,178.4l16,0 C646,178.4 777.5,48.00000000000001 777.5,48.00000000000001l16,0 C793.5,48.00000000000001 925,66.4 925,66.4l16,0 l0,7.2 l -16,0 C925,73.60000000000001 793.5,55.20000000000001 793.5,55.20000000000001l-16,0 C777.5,55.20000000000001 646,185.6 646,185.6l-16,0 C630,185.6 498.5,185.59999999999997 498.5,185.59999999999997l-16,0 C482.5,185.59999999999997 351,55.20000000000001 351,55.20000000000001l-16,0 C335,55.20000000000001 203.5,36.8 203.5,36.8l-16,0 C187.5,36.8 56,51.2 56,51.2l-16,0 Z"/><path class="path" stroke-opacity="1" fill="rgb(243, 105, 0)" fill-opacity="0.6" stroke="lightgray" stroke-width="0.2" d="M 40,51.2l16,0 C56,51.2 187.5,36.8 187.5,36.8l16,0 C203.5,36.8 335,199.99999999999997 335,199.99999999999997l16,0 C351,199.99999999999997 482.5,185.59999999999997 482.5,185.59999999999997l16,0 C498.5,185.59999999999997 630,185.6 630,185.6l16,0 C646,185.6 777.5,55.20000000000001 777.5,55.20000000000001l16,0 C793.5,55.20000000000001 925,73.60000000000001 925,73.60000000000001l16,0 l0,7.2 l -16,0 C925,80.80000000000001 793.5,62.40000000000001 793.5,62.40000000000001l-16,0 C777.5,62.40000000000001 646,192.79999999999998 646,192.79999999999998l-16,0 C630,192.79999999999998 498.5,192.79999999999995 498.5,192.79999999999995l-16,0 C482.5,192.79999999999995 351,207.19999999999996 351,207.19999999999996l-16,0 C335,207.19999999999996 203.5,44 203.5,44l-16,0 C187.5,44 56,58.400000000000006 56,58.400000000000006l-16,0 Z"/><path class="path" stroke-opacity="1" fill="rgb(243, 105, 0)" fill-opacity="0.6" stroke="lightgray" stroke-width="0.2" d="M 40,58.400000000000006l16,0 C56,58.400000000000006 187.5,159.99999999999994 187.5,159.99999999999994l16,0 C203.5,159.99999999999994 335,55.20000000000001 335,55.20000000000001l16,0 C351,55.20000000000001 482.5,48.00000000000001 482.5,48.00000000000001l16,0 C498.5,48.00000000000001 630,192.79999999999998 630,192.79999999999998l16,0 C646,192.79999999999998 777.5,214.39999999999998 777.5,214.39999999999998l16,0 C793.5,214.39999999999998 925,80.80000000000001 925,80.80000000000001l16,0 l0,7.2 l -16,0 C925,88.00000000000001 793.5,221.59999999999997 793.5,221.59999999999997l-16,0 C777.5,221.59999999999997 646,199.99999999999997 646,199.99999999999997l-16,0 C630,199.99999999999997 498.5,55.20000000000001 498.5,55.20000000000001l-16,0 C482.5,55.20000000000001 351,62.40000000000001 351,62.40000000000001l-16,0 C335,62.40000000000001 203.5,167.19999999999993 203.5,167.19999999999993l-16,0 C187.5,167.19999999999993 56,65.60000000000001 56,65.60000000000001l-16,0 Z"/><path class="path" stroke-opacity="1" fill="rgb(243, 105, 0)" fill-opacity="0.6" stroke="lightgray" stroke-width="0.2" d="M 40,65.60000000000001l16,0 C56,65.60000000000001 187.5,167.19999999999993 187.5,167.19999999999993l16,0 C203.5,167.19999999999993 335,207.19999999999996 335,207.19999999999996l16,0 C351,207.19999999999996 482.5,192.79999999999995 482.5,192.79999999999995l16,0 C498.5,192.79999999999995 630,62.40000000000001 630,62.40000000000001l16,0 C646,62.40000000000001 777.5,62.40000000000001 777.5,62.40000000000001l16,0 C793.5,62.40000000000001 925,88.00000000000001 925,88.00000000000001l16,0 l0,7.2 l -16,0 C925,95.20000000000002 793.5,69.60000000000001 793.5,69.60000000000001l-16,0 C777.5,69.60000000000001 646,69.60000000000001 646,69.60000000000001l-16,0 C630,69.60000000000001 498.5,199.99999999999994 498.5,199.99999999999994l-16,0 C482.5,199.99999999999994 351,214.39999999999995 351,214.39999999999995l-16,0 C335,214.39999999999995 203.5,174.39999999999992 203.5,174.39999999999992l-16,0 C187.5,174.39999999999992 56,72.80000000000001 56,72.80000000000001l-16,0 Z"/><path class="path" stroke-opacity="1" fill="rgb(243, 105, 0)" fill-opacity="0.6" stroke="lightgray" stroke-width="0.2" d="M 40,36.8l16,0 C56,36.8 187.5,22.4 187.5,22.4l16,0 C203.5,22.4 335,40.800000000000004 335,40.800000000000004l16,0 C351,40.800000000000004 482.5,40.800000000000004 482.5,40.800000000000004l16,0 C498.5,40.800000000000004 630,55.20000000000001 630,55.20000000000001l16,0 C646,55.20000000000001 777.5,207.2 777.5,207.2l16,0 C793.5,207.2 925,59.2 925,59.2l16,0 l0,7.2 l -16,0 C925,66.4 793.5,214.39999999999998 793.5,214.39999999999998l-16,0 C777.5,214.39999999999998 646,62.40000000000001 646,62.40000000000001l-16,0 C630,62.40000000000001 498.5,48.00000000000001 498.5,48.00000000000001l-16,0 C482.5,48.00000000000001 351,48.00000000000001 351,48.00000000000001l-16,0 C335,48.00000000000001 203.5,29.599999999999998 203.5,29.599999999999998l-16,0 C187.5,29.599999999999998 56,44 56,44l-16,0 Z"/><path class="path" stroke-opacity="1" fill="rgb(243, 105, 0)" fill-opacity="0.6" stroke="lightgray" stroke-width="0.2" d="M 40,80.00000000000001l16,0 C56,80.00000000000001 187.5,268.79999999999995 187.5,268.79999999999995l16,0 C203.5,268.79999999999995 335,62.40000000000001 335,62.40000000000001l16,0 C351,62.40000000000001 482.5,55.20000000000001 482.5,55.20000000000001l16,0 C498.5,55.20000000000001 630,69.60000000000001 630,69.60000000000001l16,0 C646,69.60000000000001 777.5,76.80000000000001 777.5,76.80000000000001l16,0 C793.5,76.80000000000001 925,102.40000000000002 925,102.40000000000002l16,0 l0,7.2 l -16,0 C925,109.60000000000002 793.5,84.00000000000001 793.5,84.00000000000001l-16,0 C777.5,84.00000000000001 646,76.80000000000001 646,76.80000000000001l-16,0 C630,76.80000000000001 498.5,62.40000000000001 498.5,62.40000000000001l-16,0 C482.5,62.40000000000001 351,69.60000000000001 351,69.60000000000001l-16,0 C335,69.60000000000001 203.5,275.99999999999994 203.5,275.99999999999994l-16,0 C187.5,275.99999999999994 56,87.20000000000002 56,87.20000000000002l-16,0 Z"/><path class="path" stroke-opacity="1" fill="rgb(243, 105, 0)" fill-opacity="0.6" stroke="lightgray" stroke-width="0.2" d="M 40,203.2l16,0 C56,203.2 187.5,181.5999999999999 187.5,181.5999999999999l16,0 C203.5,181.5999999999999 335,69.60000000000001 335,69.60000000000001l16,0 C351,69.60000000000001 482.5,62.40000000000001 482.5,62.40000000000001l16,0 C498.5,62.40000000000001 630,76.80000000000001 630,76.80000000000001l16,0 C646,76.80000000000001 777.5,221.59999999999997 777.5,221.59999999999997l16,0 C793.5,221.59999999999997 925,109.60000000000002 925,109.60000000000002l16,0 l0,7.2 l -16,0 C925,116.80000000000003 793.5,228.79999999999995 793.5,228.79999999999995l-16,0 C777.5,228.79999999999995 646,84.00000000000001 646,84.00000000000001l-16,0 C630,84.00000000000001 498.5,69.60000000000001 498.5,69.60000000000001l-16,0 C482.5,69.60000000000001 351,76.80000000000001 351,76.80000000000001l-16,0 C335,76.80000000000001 203.5,188.7999999999999 203.5,188.7999999999999l-16,0 C187.5,188.7999999999999 56,210.39999999999998 56,210.39999999999998l-16,0 Z"/><path class="path" stroke-opacity="1" fill="rgb(243, 105, 0)" fill-opacity="0.6" stroke="lightgray" stroke-width="0.2" d="M 40,210.39999999999998l16,0 C56,210.39999999999998 187.5,275.99999999999994 187.5,275.99999999999994l16,0 C203.5,275.99999999999994 335,76.80000000000001 335,76.80000000000001l16,0 C351,76.80000000000001 482.5,69.60000000000001 482.5,69.60000000000001l16,0 C498.5,69.60000000000001 630,84.00000000000001 630,84.00000000000001l16,0 C646,84.00000000000001 777.5,228.79999999999995 777.5,228.79999999999995l16,0 C793.5,228.79999999999995 925,116.80000000000003 925,116.80000000000003l16,0 l0,7.2 l -16,0 C925,124.00000000000003 793.5,235.99999999999994 793.5,235.99999999999994l-16,0 C777.5,235.99999999999994 646,91.20000000000002 646,91.20000000000002l-16,0 C630,91.20000000000002 498.5,76.80000000000001 498.5,76.80000000000001l-16,0 C482.5,76.80000000000001 351,84.00000000000001 351,84.00000000000001l-16,0 C335,84.00000000000001 203.5,283.19999999999993 203.5,283.19999999999993l-16,0 C187.5,283.19999999999993 56,217.59999999999997 56,217.59999999999997l-16,0 Z"/><path class="path" stroke-opacity="1" fill="rgb(243, 105, 0)" fill-opacity="0.6" stroke="lightgray" stroke-width="0.2" d="M 40,240l16,0 C56,240 187.5,44 187.5,44l16,0 C203.5,44 335,84.00000000000001 335,84.00000000000001l16,0 C351,84.00000000000001 482.5,207.19999999999993 482.5,207.19999999999993l16,0 C498.5,207.19999999999993 630,91.20000000000002 630,91.20000000000002l16,0 C646,91.20000000000002 777.5,84.00000000000001 777.5,84.00000000000001l16,0 C793.5,84.00000000000001 925,124.00000000000003 925,124.00000000000003l16,0 l0,7.2 l -16,0 C925,131.20000000000002 793.5,91.20000000000002 793.5,91.20000000000002l-16,0 C777.5,91.20000000000002 646,98.40000000000002 646,98.40000000000002l-16,0 C630,98.40000000000002 498.5,214.39999999999992 498.5,214.39999999999992l-16,0 C482.5,214.39999999999992 351,91.20000000000002 351,91.20000000000002l-16,0 C335,91.20000000000002 203.5,51.2 203.5,51.2l-16,0 C187.5,51.2 56,247.2 56,247.2l-16,0 Z"/><path class="path" stroke-opacity="1" fill="rgb(243, 105, 0)" fill-opacity="0.6" stroke="lightgray" stroke-width="0.2" d="M 40,247.2l16,0 C56,247.2 187.5,51.2 187.5,51.2l16,0 C203.5,51.2 335,221.59999999999994 335,221.59999999999994l16,0 C351,221.59999999999994 482.5,76.80000000000001 482.5,76.80000000000001l16,0 C498.5,76.80000000000001 630,98.40000000000002 630,98.40000000000002l16,0 C646,98.40000000000002 777.5,91.20000000000002 777.5,91.20000000000002l16,0 C793.5,91.20000000000002 925,131.20000000000002 925,131.20000000000002l16,0 l0,7.2 l -16,0 C925,138.4 793.5,98.40000000000002 793.5,98.40000000000002l-16,0 C777.5,98.40000000000002 646,105.60000000000002 646,105.60000000000002l-16,0 C630,105.60000000000002 498.5,84.00000000000001 498.5,84.00000000000001l-16,0 C482.5,84.00000000000001 351,228.79999999999993 351,228.79999999999993l-16,0 C335,228.79999999999993 203.5,58.400000000000006 203.5,58.400000000000006l-16,0 C187.5,58.400000000000006 56,254.39999999999998 56,254.39999999999998l-16,0 Z"/><path class="path" stroke-opacity="1" fill="rgb(243, 105, 0)" fill-opacity="0.6" stroke="lightgray" stroke-width="0.2" d="M 40,254.39999999999998l16,0 C56,254.39999999999998 187.5,188.7999999999999 187.5,188.7999999999999l16,0 C203.5,188.7999999999999 335,91.20000000000002 335,91.20000000000002l16,0 C351,91.20000000000002 482.5,84.00000000000001 482.5,84.00000000000001l16,0 C498.5,84.00000000000001 630,105.60000000000002 630,105.60000000000002l16,0 C646,105.60000000000002 777.5,98.40000000000002 777.5,98.40000000000002l16,0 C793.5,98.40000000000002 925,138.4 925,138.4l16,0 l0,7.2 l -16,0 C925,145.6 793.5,105.60000000000002 793.5,105.60000000000002l-16,0 C777.5,105.60000000000002 646,112.80000000000003 646,112.80000000000003l-16,0 C630,112.80000000000003 498.5,91.20000000000002 498.5,91.20000000000002l-16,0 C482.5,91.20000000000002 351,98.40000000000002 351,98.40000000000002l-16,0 C335,98.40000000000002 203.5,195.9999999999999 203.5,195.9999999999999l-16,0 C187.5,195.9999999999999 56,261.59999999999997 56,261.59999999999997l-16,0 Z"/><path class="path" stroke-opacity="1" fill="rgb(243, 105, 0)" fill-opacity="0.6" stroke="lightgray" stroke-width="0.2" d="M 40,261.59999999999997l16,0 C56,261.59999999999997 187.5,283.19999999999993 187.5,283.19999999999993l16,0 C203.5,283.19999999999993 335,228.79999999999993 335,228.79999999999993l16,0 C351,228.79999999999993 482.5,214.39999999999992 482.5,214.39999999999992l16,0 C498.5,214.39999999999992 630,207.19999999999996 630,207.19999999999996l16,0 C646,207.19999999999996 777.5,235.99999999999994 777.5,235.99999999999994l16,0 C793.5,235.99999999999994 925,145.6 925,145.6l16,0 l0,7.2 l -16,0 C925,152.79999999999998 793.5,243.19999999999993 793.5,243.19999999999993l-16,0 C777.5,243.19999999999993 646,214.39999999999995 646,214.39999999999995l-16,0 C630,214.39999999999995 498.5,221.5999999999999 498.5,221.5999999999999l-16,0 C482.5,221.5999999999999 351,235.99999999999991 351,235.99999999999991l-16,0 C335,235.99999999999991 203.5,290.3999999999999 203.5,290.3999999999999l-16,0 C187.5,290.3999999999999 56,268.79999999999995 56,268.79999999999995l-16,0 Z"/><path class="path" stroke-opacity="1" fill="rgb(243, 105, 0)" fill-opacity="0.6" stroke="lightgray" stroke-width="0.2" d="M 40,72.80000000000001l16,0 C56,72.80000000000001 187.5,174.39999999999992 187.5,174.39999999999992l16,0 C203.5,174.39999999999992 335,214.39999999999995 335,214.39999999999995l16,0 C351,214.39999999999995 482.5,199.99999999999994 482.5,199.99999999999994l16,0 C498.5,199.99999999999994 630,199.99999999999997 630,199.99999999999997l16,0 C646,199.99999999999997 777.5,69.60000000000001 777.5,69.60000000000001l16,0 C793.5,69.60000000000001 925,95.20000000000002 925,95.20000000000002l16,0 l0,7.2 l -16,0 C925,102.40000000000002 793.5,76.80000000000001 793.5,76.80000000000001l-16,0 C777.5,76.80000000000001 646,207.19999999999996 646,207.19999999999996l-16,0 C630,207.19999999999996 498.5,207.19999999999993 498.5,207.19999999999993l-16,0 C482.5,207.19999999999993 351,221.59999999999994 351,221.59999999999994l-16,0 C335,221.59999999999994 203.5,181.5999999999999 203.5,181.5999999999999l-16,0 C187.5,181.5999999999999 56,80.00000000000001 56,80.00000000000001l-16,0 Z"/><path class="path" stroke-opacity="1" fill="rgb(255, 221, 64)" fill-opacity="0.6" stroke="lightgray" stroke-width="0.2" d="M 40,87.20000000000002l16,0 C56,87.20000000000002 187.5,58.400000000000006 187.5,58.400000000000006l16,0 C203.5,58.400000000000006 335,98.40000000000002 335,98.40000000000002l16,0 C351,98.40000000000002 482.5,91.20000000000002 482.5,91.20000000000002l16,0 C498.5,91.20000000000002 630,214.39999999999995 630,214.39999999999995l16,0 C646,214.39999999999995 777.5,243.19999999999993 777.5,243.19999999999993l16,0 C793.5,243.19999999999993 925,160.8 925,160.8l16,0 l0,7.2 l -16,0 C925,168 793.5,250.39999999999992 793.5,250.39999999999992l-16,0 C777.5,250.39999999999992 646,221.59999999999994 646,221.59999999999994l-16,0 C630,221.59999999999994 498.5,98.40000000000002 498.5,98.40000000000002l-16,0 C482.5,98.40000000000002 351,105.60000000000002 351,105.60000000000002l-16,0 C335,105.60000000000002 203.5,65.60000000000001 203.5,65.60000000000001l-16,0 C187.5,65.60000000000001 56,94.40000000000002 56,94.40000000000002l-16,0 Z"/><path class="path" stroke-opacity="1" fill="rgb(255, 221, 64)" fill-opacity="0.6" stroke="lightgray" stroke-width="0.2" d="M 40,94.40000000000002l16,0 C56,94.40000000000002 187.5,65.60000000000001 187.5,65.60000000000001l16,0 C203.5,65.60000000000001 335,105.60000000000002 335,105.60000000000002l16,0 C351,105.60000000000002 482.5,221.5999999999999 482.5,221.5999999999999l16,0 C498.5,221.5999999999999 630,221.59999999999994 630,221.59999999999994l16,0 C646,221.59999999999994 777.5,105.60000000000002 777.5,105.60000000000002l16,0 C793.5,105.60000000000002 925,168 925,168l16,0 l0,7.2 l -16,0 C925,175.2 793.5,112.80000000000003 793.5,112.80000000000003l-16,0 C777.5,112.80000000000003 646,228.79999999999993 646,228.79999999999993l-16,0 C630,228.79999999999993 498.5,228.7999999999999 498.5,228.7999999999999l-16,0 C482.5,228.7999999999999 351,112.80000000000003 351,112.80000000000003l-16,0 C335,112.80000000000003 203.5,72.80000000000001 203.5,72.80000000000001l-16,0 C187.5,72.80000000000001 56,101.60000000000002 56,101.60000000000002l-16,0 Z"/><path class="path" stroke-opacity="1" fill="rgb(255, 221, 64)" fill-opacity="0.6" stroke="lightgray" stroke-width="0.2" d="M 40,101.60000000000002l16,0 C56,101.60000000000002 187.5,72.80000000000001 187.5,72.80000000000001l16,0 C203.5,72.80000000000001 335,235.99999999999991 335,235.99999999999991l16,0 C351,235.99999999999991 482.5,98.40000000000002 482.5,98.40000000000002l16,0 C498.5,98.40000000000002 630,228.79999999999993 630,228.79999999999993l16,0 C646,228.79999999999993 777.5,112.80000000000003 777.5,112.80000000000003l16,0 C793.5,112.80000000000003 925,175.2 925,175.2l16,0 l0,7.2 l -16,0 C925,182.39999999999998 793.5,120.00000000000003 793.5,120.00000000000003l-16,0 C777.5,120.00000000000003 646,235.99999999999991 646,235.99999999999991l-16,0 C630,235.99999999999991 498.5,105.60000000000002 498.5,105.60000000000002l-16,0 C482.5,105.60000000000002 351,243.1999999999999 351,243.1999999999999l-16,0 C335,243.1999999999999 203.5,80.00000000000001 203.5,80.00000000000001l-16,0 C187.5,80.00000000000001 56,108.80000000000003 56,108.80000000000003l-16,0 Z"/><path class="path" stroke-opacity="1" fill="rgb(255, 221, 64)" fill-opacity="0.6" stroke="lightgray" stroke-width="0.2" d="M 40,108.80000000000003l16,0 C56,108.80000000000003 187.5,80.00000000000001 187.5,80.00000000000001l16,0 C203.5,80.00000000000001 335,243.1999999999999 335,243.1999999999999l16,0 C351,243.1999999999999 482.5,228.7999999999999 482.5,228.7999999999999l16,0 C498.5,228.7999999999999 630,112.80000000000003 630,112.80000000000003l16,0 C646,112.80000000000003 777.5,250.39999999999992 777.5,250.39999999999992l16,0 C793.5,250.39999999999992 925,182.39999999999998 925,182.39999999999998l16,0 l0,7.2 l -16,0 C925,189.59999999999997 793.5,257.5999999999999 793.5,257.5999999999999l-16,0 C777.5,257.5999999999999 646,120.00000000000003 646,120.00000000000003l-16,0 C630,120.00000000000003 498.5,235.9999999999999 498.5,235.9999999999999l-16,0 C482.5,235.9999999999999 351,250.3999999999999 351,250.3999999999999l-16,0 C335,250.3999999999999 203.5,87.20000000000002 203.5,87.20000000000002l-16,0 C187.5,87.20000000000002 56,116.00000000000003 56,116.00000000000003l-16,0 Z"/><path class="path" stroke-opacity="1" fill="rgb(255, 221, 64)" fill-opacity="0.6" stroke="lightgray" stroke-width="0.2" d="M 40,116.00000000000003l16,0 C56,116.00000000000003 187.5,195.9999999999999 187.5,195.9999999999999l16,0 C203.5,195.9999999999999 335,250.3999999999999 335,250.3999999999999l16,0 C351,250.3999999999999 482.5,105.60000000000002 482.5,105.60000000000002l16,0 C498.5,105.60000000000002 630,235.99999999999991 630,235.99999999999991l16,0 C646,235.99999999999991 777.5,257.5999999999999 777.5,257.5999999999999l16,0 C793.5,257.5999999999999 925,189.59999999999997 925,189.59999999999997l16,0 l0,14.4 l -16,0 C925,203.99999999999997 793.5,271.9999999999999 793.5,271.9999999999999l-16,0 C777.5,271.9999999999999 646,250.39999999999992 646,250.39999999999992l-16,0 C630,250.39999999999992 498.5,120.00000000000003 498.5,120.00000000000003l-16,0 C482.5,120.00000000000003 351,264.7999999999999 351,264.7999999999999l-16,0 C335,264.7999999999999 203.5,210.3999999999999 203.5,210.3999999999999l-16,0 C187.5,210.3999999999999 56,130.40000000000003 56,130.40000000000003l-16,0 Z"/><path class="path" stroke-opacity="1" fill="rgb(255, 221, 64)" fill-opacity="0.6" stroke="lightgray" stroke-width="0.2" d="M 40,130.40000000000003l16,0 C56,130.40000000000003 187.5,210.3999999999999 187.5,210.3999999999999l16,0 C203.5,210.3999999999999 335,264.7999999999999 335,264.7999999999999l16,0 C351,264.7999999999999 482.5,235.9999999999999 482.5,235.9999999999999l16,0 C498.5,235.9999999999999 630,120.00000000000003 630,120.00000000000003l16,0 C646,120.00000000000003 777.5,120.00000000000003 777.5,120.00000000000003l16,0 C793.5,120.00000000000003 925,203.99999999999997 925,203.99999999999997l16,0 l0,7.2 l -16,0 C925,211.19999999999996 793.5,127.20000000000003 793.5,127.20000000000003l-16,0 C777.5,127.20000000000003 646,127.20000000000003 646,127.20000000000003l-16,0 C630,127.20000000000003 498.5,243.19999999999987 498.5,243.19999999999987l-16,0 C482.5,243.19999999999987 351,271.9999999999999 351,271.9999999999999l-16,0 C335,271.9999999999999 203.5,217.59999999999988 203.5,217.59999999999988l-16,0 C187.5,217.59999999999988 56,137.60000000000002 56,137.60000000000002l-16,0 Z"/><path class="path" stroke-opacity="1" fill="rgb(255, 221, 64)" fill-opacity="0.6" stroke="lightgray" stroke-width="0.2" d="M 40,137.60000000000002l16,0 C56,137.60000000000002 187.5,217.59999999999988 187.5,217.59999999999988l16,0 C203.5,217.59999999999988 335,271.9999999999999 335,271.9999999999999l16,0 C351,271.9999999999999 482.5,243.19999999999987 482.5,243.19999999999987l16,0 C498.5,243.19999999999987 630,127.20000000000003 630,127.20000000000003l16,0 C646,127.20000000000003 777.5,271.9999999999999 777.5,271.9999999999999l16,0 C793.5,271.9999999999999 925,211.19999999999996 925,211.19999999999996l16,0 l0,7.2 l -16,0 C925,218.39999999999995 793.5,279.1999999999999 793.5,279.1999999999999l-16,0 C777.5,279.1999999999999 646,134.40000000000003 646,134.40000000000003l-16,0 C630,134.40000000000003 498.5,250.39999999999986 498.5,250.39999999999986l-16,0 C482.5,250.39999999999986 351,279.1999999999999 351,279.1999999999999l-16,0 C335,279.1999999999999 203.5,224.79999999999987 203.5,224.79999999999987l-16,0 C187.5,224.79999999999987 56,144.8 56,144.8l-16,0 Z"/><path class="path" stroke-opacity="1" fill="rgb(255, 221, 64)" fill-opacity="0.6" stroke="lightgray" stroke-width="0.2" d="M 40,144.8l16,0 C56,144.8 187.5,224.79999999999987 187.5,224.79999999999987l16,0 C203.5,224.79999999999987 335,279.1999999999999 335,279.1999999999999l16,0 C351,279.1999999999999 482.5,250.39999999999986 482.5,250.39999999999986l16,0 C498.5,250.39999999999986 630,250.39999999999992 630,250.39999999999992l16,0 C646,250.39999999999992 777.5,127.20000000000003 777.5,127.20000000000003l16,0 C793.5,127.20000000000003 925,218.39999999999995 925,218.39999999999995l16,0 l0,7.2 l -16,0 C925,225.59999999999994 793.5,134.40000000000003 793.5,134.40000000000003l-16,0 C777.5,134.40000000000003 646,257.5999999999999 646,257.5999999999999l-16,0 C630,257.5999999999999 498.5,257.59999999999985 498.5,257.59999999999985l-16,0 C482.5,257.59999999999985 351,286.39999999999986 351,286.39999999999986l-16,0 C335,286.39999999999986 203.5,231.99999999999986 203.5,231.99999999999986l-16,0 C187.5,231.99999999999986 56,152 56,152l-16,0 Z"/><path class="path" stroke-opacity="1" fill="rgb(255, 221, 64)" fill-opacity="0.6" stroke="lightgray" stroke-width="0.2" d="M 40,152l16,0 C56,152 187.5,290.3999999999999 187.5,290.3999999999999l16,0 C203.5,290.3999999999999 335,112.80000000000003 335,112.80000000000003l16,0 C351,112.80000000000003 482.5,120.00000000000003 482.5,120.00000000000003l16,0 C498.5,120.00000000000003 630,257.5999999999999 630,257.5999999999999l16,0 C646,257.5999999999999 777.5,279.1999999999999 777.5,279.1999999999999l16,0 C793.5,279.1999999999999 925,225.59999999999994 925,225.59999999999994l16,0 l0,7.2 l -16,0 C925,232.79999999999993 793.5,286.39999999999986 793.5,286.39999999999986l-16,0 C777.5,286.39999999999986 646,264.7999999999999 646,264.7999999999999l-16,0 C630,264.7999999999999 498.5,127.20000000000003 498.5,127.20000000000003l-16,0 C482.5,127.20000000000003 351,120.00000000000003 351,120.00000000000003l-16,0 C335,120.00000000000003 203.5,297.5999999999999 203.5,297.5999999999999l-16,0 C187.5,297.5999999999999 56,159.2 56,159.2l-16,0 Z"/><path class="path" stroke-opacity="1" fill="rgb(255, 221, 64)" fill-opacity="0.6" stroke="lightgray" stroke-width="0.2" d="M 40,217.59999999999997l16,0 C56,217.59999999999997 187.5,297.5999999999999 187.5,297.5999999999999l16,0 C203.5,297.5999999999999 335,120.00000000000003 335,120.00000000000003l16,0 C351,120.00000000000003 482.5,257.59999999999985 482.5,257.59999999999985l16,0 C498.5,257.59999999999985 630,134.40000000000003 630,134.40000000000003l16,0 C646,134.40000000000003 777.5,286.39999999999986 777.5,286.39999999999986l16,0 C793.5,286.39999999999986 925,232.79999999999993 925,232.79999999999993l16,0 l0,7.2 l -16,0 C925,239.99999999999991 793.5,293.59999999999985 793.5,293.59999999999985l-16,0 C777.5,293.59999999999985 646,141.60000000000002 646,141.60000000000002l-16,0 C630,141.60000000000002 498.5,264.79999999999984 498.5,264.79999999999984l-16,0 C482.5,264.79999999999984 351,127.20000000000003 351,127.20000000000003l-16,0 C335,127.20000000000003 203.5,304.7999999999999 203.5,304.7999999999999l-16,0 C187.5,304.7999999999999 56,224.79999999999995 56,224.79999999999995l-16,0 Z"/><path class="path" stroke-opacity="1" fill="rgb(255, 221, 64)" fill-opacity="0.6" stroke="lightgray" stroke-width="0.2" d="M 40,268.79999999999995l16,0 C56,268.79999999999995 187.5,87.20000000000002 187.5,87.20000000000002l16,0 C203.5,87.20000000000002 335,127.20000000000003 335,127.20000000000003l16,0 C351,127.20000000000003 482.5,127.20000000000003 482.5,127.20000000000003l16,0 C498.5,127.20000000000003 630,264.7999999999999 630,264.7999999999999l16,0 C646,264.7999999999999 777.5,134.40000000000003 777.5,134.40000000000003l16,0 C793.5,134.40000000000003 925,239.99999999999991 925,239.99999999999991l16,0 l0,7.2 l -16,0 C925,247.1999999999999 793.5,141.60000000000002 793.5,141.60000000000002l-16,0 C777.5,141.60000000000002 646,271.9999999999999 646,271.9999999999999l-16,0 C630,271.9999999999999 498.5,134.40000000000003 498.5,134.40000000000003l-16,0 C482.5,134.40000000000003 351,134.40000000000003 351,134.40000000000003l-16,0 C335,134.40000000000003 203.5,94.40000000000002 203.5,94.40000000000002l-16,0 C187.5,94.40000000000002 56,275.99999999999994 56,275.99999999999994l-16,0 Z"/><path class="path" stroke-opacity="1" fill="rgb(255, 221, 64)" fill-opacity="0.6" stroke="lightgray" stroke-width="0.2" d="M 40,275.99999999999994l16,0 C56,275.99999999999994 187.5,231.99999999999986 187.5,231.99999999999986l16,0 C203.5,231.99999999999986 335,134.40000000000003 335,134.40000000000003l16,0 C351,134.40000000000003 482.5,134.40000000000003 482.5,134.40000000000003l16,0 C498.5,134.40000000000003 630,271.9999999999999 630,271.9999999999999l16,0 C646,271.9999999999999 777.5,141.60000000000002 777.5,141.60000000000002l16,0 C793.5,141.60000000000002 925,247.1999999999999 925,247.1999999999999l16,0 l0,7.2 l -16,0 C925,254.3999999999999 793.5,148.8 793.5,148.8l-16,0 C777.5,148.8 646,279.1999999999999 646,279.1999999999999l-16,0 C630,279.1999999999999 498.5,141.60000000000002 498.5,141.60000000000002l-16,0 C482.5,141.60000000000002 351,141.60000000000002 351,141.60000000000002l-16,0 C335,141.60000000000002 203.5,239.19999999999985 203.5,239.19999999999985l-16,0 C187.5,239.19999999999985 56,283.19999999999993 56,283.19999999999993l-16,0 Z"/><path class="path" stroke-opacity="1" fill="rgb(255, 221, 64)" fill-opacity="0.6" stroke="lightgray" stroke-width="0.2" d="M 40,283.19999999999993l16,0 C56,283.19999999999993 187.5,239.19999999999985 187.5,239.19999999999985l16,0 C203.5,239.19999999999985 335,141.60000000000002 335,141.60000000000002l16,0 C351,141.60000000000002 482.5,141.60000000000002 482.5,141.60000000000002l16,0 C498.5,141.60000000000002 630,279.1999999999999 630,279.1999999999999l16,0 C646,279.1999999999999 777.5,293.59999999999985 777.5,293.59999999999985l16,0 C793.5,293.59999999999985 925,254.3999999999999 925,254.3999999999999l16,0 l0,7.2 l -16,0 C925,261.5999999999999 793.5,300.79999999999984 793.5,300.79999999999984l-16,0 C777.5,300.79999999999984 646,286.39999999999986 646,286.39999999999986l-16,0 C630,286.39999999999986 498.5,148.8 498.5,148.8l-16,0 C482.5,148.8 351,148.8 351,148.8l-16,0 C335,148.8 203.5,246.39999999999984 203.5,246.39999999999984l-16,0 C187.5,246.39999999999984 56,290.3999999999999 56,290.3999999999999l-16,0 Z"/><path class="path" stroke-opacity="1" fill="rgb(255, 221, 64)" fill-opacity="0.6" stroke="lightgray" stroke-width="0.2" d="M 40,290.3999999999999l16,0 C56,290.3999999999999 187.5,246.39999999999984 187.5,246.39999999999984l16,0 C203.5,246.39999999999984 335,148.8 335,148.8l16,0 C351,148.8 482.5,264.79999999999984 482.5,264.79999999999984l16,0 C498.5,264.79999999999984 630,141.60000000000002 630,141.60000000000002l16,0 C646,141.60000000000002 777.5,148.8 777.5,148.8l16,0 C793.5,148.8 925,261.5999999999999 925,261.5999999999999l16,0 l0,14.4 l -16,0 C925,275.9999999999999 793.5,163.20000000000002 793.5,163.20000000000002l-16,0 C777.5,163.20000000000002 646,156.00000000000003 646,156.00000000000003l-16,0 C630,156.00000000000003 498.5,279.1999999999998 498.5,279.1999999999998l-16,0 C482.5,279.1999999999998 351,163.20000000000002 351,163.20000000000002l-16,0 C335,163.20000000000002 203.5,260.79999999999984 203.5,260.79999999999984l-16,0 C187.5,260.79999999999984 56,304.7999999999999 56,304.7999999999999l-16,0 Z"/><path class="path" stroke-opacity="1" fill="rgb(255, 221, 64)" fill-opacity="0.6" stroke="lightgray" stroke-width="0.2" d="M 40,304.7999999999999l16,0 C56,304.7999999999999 187.5,304.7999999999999 187.5,304.7999999999999l16,0 C203.5,304.7999999999999 335,163.20000000000002 335,163.20000000000002l16,0 C351,163.20000000000002 482.5,279.1999999999998 482.5,279.1999999999998l16,0 C498.5,279.1999999999998 630,286.39999999999986 630,286.39999999999986l16,0 C646,286.39999999999986 777.5,300.79999999999984 777.5,300.79999999999984l16,0 C793.5,300.79999999999984 925,275.9999999999999 925,275.9999999999999l16,0 l0,7.2 l -16,0 C925,283.1999999999999 793.5,307.99999999999983 793.5,307.99999999999983l-16,0 C777.5,307.99999999999983 646,293.59999999999985 646,293.59999999999985l-16,0 C630,293.59999999999985 498.5,286.3999999999998 498.5,286.3999999999998l-16,0 C482.5,286.3999999999998 351,170.4 351,170.4l-16,0 C335,170.4 203.5,311.9999999999999 203.5,311.9999999999999l-16,0 C187.5,311.9999999999999 56,311.9999999999999 56,311.9999999999999l-16,0 Z"/><path class="path" stroke-opacity="1" fill="rgb(255, 255, 255)" fill-opacity="0.6" stroke="lightgray" stroke-width="0.2" d="M 40,159.2l16,0 C56,159.2 187.5,94.40000000000002 187.5,94.40000000000002l16,0 C203.5,94.40000000000002 335,170.4 335,170.4l16,0 C351,170.4 482.5,286.3999999999998 482.5,286.3999999999998l16,0 C498.5,286.3999999999998 630,156.00000000000003 630,156.00000000000003l16,0 C646,156.00000000000003 777.5,163.20000000000002 777.5,163.20000000000002l16,0 C793.5,163.20000000000002 925,291.2 925,291.2l16,0 l0,7.2 l -16,0 C925,298.4 793.5,170.4 793.5,170.4l-16,0 C777.5,170.4 646,163.20000000000002 646,163.20000000000002l-16,0 C630,163.20000000000002 498.5,293.5999999999998 498.5,293.5999999999998l-16,0 C482.5,293.5999999999998 351,177.6 351,177.6l-16,0 C335,177.6 203.5,101.60000000000002 203.5,101.60000000000002l-16,0 C187.5,101.60000000000002 56,166.39999999999998 56,166.39999999999998l-16,0 Z"/><path class="path" stroke-opacity="1" fill="rgb(255, 255, 255)" fill-opacity="0.6" stroke="lightgray" stroke-width="0.2" d="M 40,166.39999999999998l16,0 C56,166.39999999999998 187.5,101.60000000000002 187.5,101.60000000000002l16,0 C203.5,101.60000000000002 335,286.39999999999986 335,286.39999999999986l16,0 C351,286.39999999999986 482.5,148.8 482.5,148.8l16,0 C498.5,148.8 630,293.59999999999985 630,293.59999999999985l16,0 C646,293.59999999999985 777.5,170.4 777.5,170.4l16,0 C793.5,170.4 925,298.4 925,298.4l16,0 l0,7.2 l -16,0 C925,305.59999999999997 793.5,177.6 793.5,177.6l-16,0 C777.5,177.6 646,300.79999999999984 646,300.79999999999984l-16,0 C630,300.79999999999984 498.5,156 498.5,156l-16,0 C482.5,156 351,293.59999999999985 351,293.59999999999985l-16,0 C335,293.59999999999985 203.5,108.80000000000003 203.5,108.80000000000003l-16,0 C187.5,108.80000000000003 56,173.59999999999997 56,173.59999999999997l-16,0 Z"/><path class="path" stroke-opacity="1" fill="rgb(255, 255, 255)" fill-opacity="0.6" stroke="lightgray" stroke-width="0.2" d="M 40,173.59999999999997l16,0 C56,173.59999999999997 187.5,108.80000000000003 187.5,108.80000000000003l16,0 C203.5,108.80000000000003 335,293.59999999999985 335,293.59999999999985l16,0 C351,293.59999999999985 482.5,293.5999999999998 482.5,293.5999999999998l16,0 C498.5,293.5999999999998 630,163.20000000000002 630,163.20000000000002l16,0 C646,163.20000000000002 777.5,177.6 777.5,177.6l16,0 C793.5,177.6 925,305.59999999999997 925,305.59999999999997l16,0 l0,7.2 l -16,0 C925,312.79999999999995 793.5,184.79999999999998 793.5,184.79999999999998l-16,0 C777.5,184.79999999999998 646,170.4 646,170.4l-16,0 C630,170.4 498.5,300.7999999999998 498.5,300.7999999999998l-16,0 C482.5,300.7999999999998 351,300.79999999999984 351,300.79999999999984l-16,0 C335,300.79999999999984 203.5,116.00000000000003 203.5,116.00000000000003l-16,0 C187.5,116.00000000000003 56,180.79999999999995 56,180.79999999999995l-16,0 Z"/><path class="path" stroke-opacity="1" fill="rgb(255, 255, 255)" fill-opacity="0.6" stroke="lightgray" stroke-width="0.2" d="M 40,180.79999999999995l16,0 C56,180.79999999999995 187.5,116.00000000000003 187.5,116.00000000000003l16,0 C203.5,116.00000000000003 335,300.79999999999984 335,300.79999999999984l16,0 C351,300.79999999999984 482.5,300.7999999999998 482.5,300.7999999999998l16,0 C498.5,300.7999999999998 630,300.79999999999984 630,300.79999999999984l16,0 C646,300.79999999999984 777.5,184.79999999999998 777.5,184.79999999999998l16,0 C793.5,184.79999999999998 925,312.79999999999995 925,312.79999999999995l16,0 l0,7.2 l -16,0 C925,319.99999999999994 793.5,191.99999999999997 793.5,191.99999999999997l-16,0 C777.5,191.99999999999997 646,307.99999999999983 646,307.99999999999983l-16,0 C630,307.99999999999983 498.5,307.9999999999998 498.5,307.9999999999998l-16,0 C482.5,307.9999999999998 351,307.99999999999983 351,307.99999999999983l-16,0 C335,307.99999999999983 203.5,123.20000000000003 203.5,123.20000000000003l-16,0 C187.5,123.20000000000003 56,187.99999999999994 56,187.99999999999994l-16,0 Z"/></g><g class="dimensions"><g class="dimension" transform="translate(40, 0)"><g class="category" transform="translate(0, 8)"><rect class="catrect" pointer-events="none" fill="none" width="16" height="180" stroke="black" stroke-width="1" stroke-opacity="1"/><rect class="bandrect" stroke-opacity="1" fill="rgb(0, 0, 0)" fill-opacity="1" width="16" height="7.2" y="0" cursor="ns-resize" stroke="black" stroke-width="0.2"/><rect class="bandrect" stroke-opacity="1" fill="rgb(173, 0, 0)" fill-opacity="1" width="16" height="21.6" y="7.2" cursor="ns-resize" stroke="black" stroke-width="0.2"/><rect class="bandrect" stroke-opacity="1" fill="rgb(243, 105, 0)" fill-opacity="1" width="16" height="50.400000000000006" y="28.8" cursor="ns-resize" stroke="black" stroke-width="0.2"/><rect class="bandrect" stroke-opacity="1" fill="rgb(255, 221, 64)" fill-opacity="1" width="16" height="72.00000000000001" y="79.2" cursor="ns-resize" stroke="black" stroke-width="0.2"/><rect class="bandrect" stroke-opacity="1" fill="rgb(255, 255, 255)" fill-opacity="1" width="16" height="28.8" y="151.20000000000002" cursor="ns-resize" stroke="black" stroke-width="0.2"/><text class="catlabel" pointer-events="none" text-anchor="end" alignment-baseline="middle" x="-5" y="90" style="text-shadow: rgb(255, 255, 255) -1px 1px 2px, rgb(255, 255, 255) 1px 1px 2px, rgb(255, 255, 255) 1px -1px 2px, rgb(255, 255, 255) -1px -1px 2px; fill: rgb(68, 68, 68); font-family: 'Open Sans', verdana, arial, sans-serif; font-size: 15px; fill-opacity: 1; white-space: pre;">(test_r2 > 0.2)</text><text class="dimlabel" text-anchor="middle" alignment-baseline="baseline" cursor="ew-resize" x="8" y="-5" style="font-family: 'Open Sans', verdana, arial, sans-serif; font-size: 18px; fill: rgb(68, 68, 68); fill-opacity: 1;">CV threshold</text></g><g class="category" transform="translate(0, 196)"><rect class="catrect" pointer-events="none" fill="none" width="16" height="28.8" stroke="black" stroke-width="1" stroke-opacity="1"/><rect class="bandrect" stroke-opacity="1" fill="rgb(0, 0, 0)" fill-opacity="1" width="16" height="7.2" y="0" cursor="ns-resize" stroke="black" stroke-width="0.2"/><rect class="bandrect" stroke-opacity="1" fill="rgb(243, 105, 0)" fill-opacity="1" width="16" height="14.4" y="7.2" cursor="ns-resize" stroke="black" stroke-width="0.2"/><rect class="bandrect" stroke-opacity="1" fill="rgb(255, 221, 64)" fill-opacity="1" width="16" height="7.2" y="21.6" cursor="ns-resize" stroke="black" stroke-width="0.2"/><text class="catlabel" pointer-events="none" text-anchor="end" alignment-baseline="middle" x="-5" y="14.4" style="text-shadow: rgb(255, 255, 255) -1px 1px 2px, rgb(255, 255, 255) 1px 1px 2px, rgb(255, 255, 255) 1px -1px 2px, rgb(255, 255, 255) -1px -1px 2px; fill: rgb(68, 68, 68); font-family: 'Open Sans', verdana, arial, sans-serif; font-size: 15px; fill-opacity: 1; white-space: pre;">(test_r2 > 0.9)</text><text class="dimlabel" text-anchor="middle" alignment-baseline="baseline" cursor="ew-resize" x="8" y="-5" style="font-family: 'Open Sans', verdana, arial, sans-serif; font-size: 18px; fill: rgb(68, 68, 68); fill-opacity: 1;"/></g><g class="category" transform="translate(0, 232.8)"><rect class="catrect" pointer-events="none" fill="none" width="16" height="79.2" stroke="black" stroke-width="1" stroke-opacity="1"/><rect class="bandrect" stroke-opacity="1" fill="rgb(173, 0, 0)" fill-opacity="1" width="16" height="7.2" y="0" cursor="ns-resize" stroke="black" stroke-width="0.2"/><rect class="bandrect" stroke-opacity="1" fill="rgb(243, 105, 0)" fill-opacity="1" width="16" height="28.8" y="7.2" cursor="ns-resize" stroke="black" stroke-width="0.2"/><rect class="bandrect" stroke-opacity="1" fill="rgb(255, 221, 64)" fill-opacity="1" width="16" height="43.2" y="36" cursor="ns-resize" stroke="black" stroke-width="0.2"/><text class="catlabel" pointer-events="none" text-anchor="end" alignment-baseline="middle" x="-5" y="39.6" style="text-shadow: rgb(255, 255, 255) -1px 1px 2px, rgb(255, 255, 255) 1px 1px 2px, rgb(255, 255, 255) 1px -1px 2px, rgb(255, 255, 255) -1px -1px 2px; fill: rgb(68, 68, 68); font-family: 'Open Sans', verdana, arial, sans-serif; font-size: 15px; fill-opacity: 1; white-space: pre;">(test_r2 > 0.65)</text><text class="dimlabel" text-anchor="middle" alignment-baseline="baseline" cursor="ew-resize" x="8" y="-5" style="font-family: 'Open Sans', verdana, arial, sans-serif; font-size: 18px; fill: rgb(68, 68, 68); fill-opacity: 1;"/></g></g><g class="dimension" transform="translate(187.5, 0)"><g class="category" transform="translate(0, 8)"><rect class="catrect" pointer-events="none" fill="none" width="16" height="115.2" stroke="black" stroke-width="1" stroke-opacity="1"/><rect class="bandrect" stroke-opacity="1" fill="rgb(0, 0, 0)" fill-opacity="1" width="16" height="7.2" y="0" cursor="ns-resize" stroke="black" stroke-width="0.2"/><rect class="bandrect" stroke-opacity="1" fill="rgb(173, 0, 0)" fill-opacity="1" width="16" height="7.2" y="7.2" cursor="ns-resize" stroke="black" stroke-width="0.2"/><rect class="bandrect" stroke-opacity="1" fill="rgb(243, 105, 0)" fill-opacity="1" width="16" height="36" y="14.4" cursor="ns-resize" stroke="black" stroke-width="0.2"/><rect class="bandrect" stroke-opacity="1" fill="rgb(255, 221, 64)" fill-opacity="1" width="16" height="36" y="50.4" cursor="ns-resize" stroke="black" stroke-width="0.2"/><rect class="bandrect" stroke-opacity="1" fill="rgb(255, 255, 255)" fill-opacity="1" width="16" height="28.8" y="86.4" cursor="ns-resize" stroke="black" stroke-width="0.2"/><text class="catlabel" pointer-events="none" text-anchor="end" alignment-baseline="middle" x="-5" y="57.6" style="text-shadow: rgb(255, 255, 255) -1px 1px 2px, rgb(255, 255, 255) 1px 1px 2px, rgb(255, 255, 255) 1px -1px 2px, rgb(255, 255, 255) -1px -1px 2px; fill: rgb(68, 68, 68); font-family: 'Open Sans', verdana, arial, sans-serif; font-size: 15px; fill-opacity: 1; white-space: pre;">(ndf_surr_score > 0)</text><text class="dimlabel" text-anchor="middle" alignment-baseline="baseline" cursor="ew-resize" x="8" y="-5" style="font-family: 'Open Sans', verdana, arial, sans-serif; font-size: 18px; fill: rgb(68, 68, 68); fill-opacity: 1;">Test-set threshold</text></g><g class="category" transform="translate(0, 131.2)"><rect class="catrect" pointer-events="none" fill="none" width="16" height="129.6" stroke="black" stroke-width="1" stroke-opacity="1"/><rect class="bandrect" stroke-opacity="1" fill="rgb(0, 0, 0)" fill-opacity="1" width="16" height="7.2" y="0" cursor="ns-resize" stroke="black" stroke-width="0.2"/><rect class="bandrect" stroke-opacity="1" fill="rgb(173, 0, 0)" fill-opacity="1" width="16" height="21.6" y="7.2" cursor="ns-resize" stroke="black" stroke-width="0.2"/><rect class="bandrect" stroke-opacity="1" fill="rgb(243, 105, 0)" fill-opacity="1" width="16" height="36" y="28.8" cursor="ns-resize" stroke="black" stroke-width="0.2"/><rect class="bandrect" stroke-opacity="1" fill="rgb(255, 221, 64)" fill-opacity="1" width="16" height="64.80000000000001" y="64.8" cursor="ns-resize" stroke="black" stroke-width="0.2"/><text class="catlabel" pointer-events="none" text-anchor="end" alignment-baseline="middle" x="-5" y="64.8" style="text-shadow: rgb(255, 255, 255) -1px 1px 2px, rgb(255, 255, 255) 1px 1px 2px, rgb(255, 255, 255) 1px -1px 2px, rgb(255, 255, 255) -1px -1px 2px; fill: rgb(68, 68, 68); font-family: 'Open Sans', verdana, arial, sans-serif; font-size: 15px; fill-opacity: 1; white-space: pre;">(ndf_surr_score > 0.6)</text><text class="dimlabel" text-anchor="middle" alignment-baseline="baseline" cursor="ew-resize" x="8" y="-5" style="font-family: 'Open Sans', verdana, arial, sans-serif; font-size: 18px; fill: rgb(68, 68, 68); fill-opacity: 1;"/></g><g class="category" transform="translate(0, 268.79999999999995)"><rect class="catrect" pointer-events="none" fill="none" width="16" height="43.199999999999996" stroke="black" stroke-width="1" stroke-opacity="1"/><rect class="bandrect" stroke-opacity="1" fill="rgb(243, 105, 0)" fill-opacity="1" width="16" height="21.6" y="0" cursor="ns-resize" stroke="black" stroke-width="0.2"/><rect class="bandrect" stroke-opacity="1" fill="rgb(255, 221, 64)" fill-opacity="1" width="16" height="21.6" y="21.6" cursor="ns-resize" stroke="black" stroke-width="0.2"/><text class="catlabel" pointer-events="none" text-anchor="end" alignment-baseline="middle" x="-5" y="21.599999999999998" style="text-shadow: rgb(255, 255, 255) -1px 1px 2px, rgb(255, 255, 255) 1px 1px 2px, rgb(255, 255, 255) 1px -1px 2px, rgb(255, 255, 255) -1px -1px 2px; fill: rgb(68, 68, 68); font-family: 'Open Sans', verdana, arial, sans-serif; font-size: 15px; fill-opacity: 1; white-space: pre;">(ndf_surr_score > 0.9)</text><text class="dimlabel" text-anchor="middle" alignment-baseline="baseline" cursor="ew-resize" x="8" y="-5" style="font-family: 'Open Sans', verdana, arial, sans-serif; font-size: 18px; fill: rgb(68, 68, 68); fill-opacity: 1;"/></g></g><g class="dimension" transform="translate(335, 0)"><g class="category" transform="translate(0, 12)"><rect class="catrect" pointer-events="none" fill="none" width="16" height="165.6" stroke="black" stroke-width="1" stroke-opacity="1"/><rect class="bandrect" stroke-opacity="1" fill="rgb(0, 0, 0)" fill-opacity="1" width="16" height="14.4" y="0" cursor="ns-resize" stroke="black" stroke-width="0.2"/><rect class="bandrect" stroke-opacity="1" fill="rgb(173, 0, 0)" fill-opacity="1" width="16" height="14.4" y="14.4" cursor="ns-resize" stroke="black" stroke-width="0.2"/><rect class="bandrect" stroke-opacity="1" fill="rgb(243, 105, 0)" fill-opacity="1" width="16" height="57.60000000000001" y="28.8" cursor="ns-resize" stroke="black" stroke-width="0.2"/><rect class="bandrect" stroke-opacity="1" fill="rgb(255, 221, 64)" fill-opacity="1" width="16" height="72.00000000000001" y="86.4" cursor="ns-resize" stroke="black" stroke-width="0.2"/><rect class="bandrect" stroke-opacity="1" fill="rgb(255, 255, 255)" fill-opacity="1" width="16" height="7.2" y="158.40000000000003" cursor="ns-resize" stroke="black" stroke-width="0.2"/><text class="catlabel" pointer-events="none" text-anchor="end" alignment-baseline="middle" x="-5" y="82.8" style="text-shadow: rgb(255, 255, 255) -1px 1px 2px, rgb(255, 255, 255) 1px 1px 2px, rgb(255, 255, 255) 1px -1px 2px, rgb(255, 255, 255) -1px -1px 2px; fill: rgb(68, 68, 68); font-family: 'Open Sans', verdana, arial, sans-serif; font-size: 15px; fill-opacity: 1; white-space: pre;">stack</text><text class="dimlabel" text-anchor="middle" alignment-baseline="baseline" cursor="ew-resize" x="8" y="-5" style="font-family: 'Open Sans', verdana, arial, sans-serif; font-size: 18px; fill: rgb(68, 68, 68); fill-opacity: 1;">Solution combination</text></g><g class="category" transform="translate(0, 185.6)"><rect class="catrect" pointer-events="none" fill="none" width="16" height="122.39999999999999" stroke="black" stroke-width="1" stroke-opacity="1"/><rect class="bandrect" stroke-opacity="1" fill="rgb(173, 0, 0)" fill-opacity="1" width="16" height="14.4" y="0" cursor="ns-resize" stroke="black" stroke-width="0.2"/><rect class="bandrect" stroke-opacity="1" fill="rgb(243, 105, 0)" fill-opacity="1" width="16" height="36" y="14.4" cursor="ns-resize" stroke="black" stroke-width="0.2"/><rect class="bandrect" stroke-opacity="1" fill="rgb(255, 221, 64)" fill-opacity="1" width="16" height="50.400000000000006" y="50.4" cursor="ns-resize" stroke="black" stroke-width="0.2"/><rect class="bandrect" stroke-opacity="1" fill="rgb(255, 255, 255)" fill-opacity="1" width="16" height="21.6" y="100.80000000000001" cursor="ns-resize" stroke="black" stroke-width="0.2"/><text class="catlabel" pointer-events="none" text-anchor="end" alignment-baseline="middle" x="-5" y="61.199999999999996" style="text-shadow: rgb(255, 255, 255) -1px 1px 2px, rgb(255, 255, 255) 1px 1px 2px, rgb(255, 255, 255) 1px -1px 2px, rgb(255, 255, 255) -1px -1px 2px; fill: rgb(68, 68, 68); font-family: 'Open Sans', verdana, arial, sans-serif; font-size: 15px; fill-opacity: 1; white-space: pre;">ndf_score</text><text class="dimlabel" text-anchor="middle" alignment-baseline="baseline" cursor="ew-resize" x="8" y="-5" style="font-family: 'Open Sans', verdana, arial, sans-serif; font-size: 18px; fill: rgb(68, 68, 68); fill-opacity: 1;"/></g></g><g class="dimension" transform="translate(482.5, 0)"><g class="category" transform="translate(0, 12)"><rect class="catrect" pointer-events="none" fill="none" width="16" height="144" stroke="black" stroke-width="1" stroke-opacity="1"/><rect class="bandrect" stroke-opacity="1" fill="rgb(0, 0, 0)" fill-opacity="1" width="16" height="7.2" y="0" cursor="ns-resize" stroke="black" stroke-width="0.2"/><rect class="bandrect" stroke-opacity="1" fill="rgb(173, 0, 0)" fill-opacity="1" width="16" height="21.6" y="7.2" cursor="ns-resize" stroke="black" stroke-width="0.2"/><rect class="bandrect" stroke-opacity="1" fill="rgb(243, 105, 0)" fill-opacity="1" width="16" height="50.400000000000006" y="28.8" cursor="ns-resize" stroke="black" stroke-width="0.2"/><rect class="bandrect" stroke-opacity="1" fill="rgb(255, 221, 64)" fill-opacity="1" width="16" height="57.60000000000001" y="79.2" cursor="ns-resize" stroke="black" stroke-width="0.2"/><rect class="bandrect" stroke-opacity="1" fill="rgb(255, 255, 255)" fill-opacity="1" width="16" height="7.2" y="136.8" cursor="ns-resize" stroke="black" stroke-width="0.2"/><text class="catlabel" pointer-events="none" text-anchor="end" alignment-baseline="middle" x="-5" y="72" style="text-shadow: rgb(255, 255, 255) -1px 1px 2px, rgb(255, 255, 255) 1px 1px 2px, rgb(255, 255, 255) 1px -1px 2px, rgb(255, 255, 255) -1px -1px 2px; fill: rgb(68, 68, 68); font-family: 'Open Sans', verdana, arial, sans-serif; font-size: 15px; fill-opacity: 1; white-space: pre;">0.25</text><text class="dimlabel" text-anchor="middle" alignment-baseline="baseline" cursor="ew-resize" x="8" y="-5" style="font-family: 'Open Sans', verdana, arial, sans-serif; font-size: 18px; fill: rgb(68, 68, 68); fill-opacity: 1;">train/test split</text></g><g class="category" transform="translate(0, 164)"><rect class="catrect" pointer-events="none" fill="none" width="16" height="144" stroke="black" stroke-width="1" stroke-opacity="1"/><rect class="bandrect" stroke-opacity="1" fill="rgb(0, 0, 0)" fill-opacity="1" width="16" height="7.2" y="0" cursor="ns-resize" stroke="black" stroke-width="0.2"/><rect class="bandrect" stroke-opacity="1" fill="rgb(173, 0, 0)" fill-opacity="1" width="16" height="7.2" y="7.2" cursor="ns-resize" stroke="black" stroke-width="0.2"/><rect class="bandrect" stroke-opacity="1" fill="rgb(243, 105, 0)" fill-opacity="1" width="16" height="43.2" y="14.4" cursor="ns-resize" stroke="black" stroke-width="0.2"/><rect class="bandrect" stroke-opacity="1" fill="rgb(255, 221, 64)" fill-opacity="1" width="16" height="64.8" y="57.6" cursor="ns-resize" stroke="black" stroke-width="0.2"/><rect class="bandrect" stroke-opacity="1" fill="rgb(255, 255, 255)" fill-opacity="1" width="16" height="21.6" y="122.4" cursor="ns-resize" stroke="black" stroke-width="0.2"/><text class="catlabel" pointer-events="none" text-anchor="end" alignment-baseline="middle" x="-5" y="72" style="text-shadow: rgb(255, 255, 255) -1px 1px 2px, rgb(255, 255, 255) 1px 1px 2px, rgb(255, 255, 255) 1px -1px 2px, rgb(255, 255, 255) -1px -1px 2px; fill: rgb(68, 68, 68); font-family: 'Open Sans', verdana, arial, sans-serif; font-size: 15px; fill-opacity: 1; white-space: pre;">0.1</text><text class="dimlabel" text-anchor="middle" alignment-baseline="baseline" cursor="ew-resize" x="8" y="-5" style="font-family: 'Open Sans', verdana, arial, sans-serif; font-size: 18px; fill: rgb(68, 68, 68); fill-opacity: 1;"/></g></g><g class="dimension" transform="translate(630, 0)"><g class="category" transform="translate(0, 12)"><rect class="catrect" pointer-events="none" fill="none" width="16" height="158.4" stroke="black" stroke-width="1" stroke-opacity="1"/><rect class="bandrect" stroke-opacity="1" fill="rgb(0, 0, 0)" fill-opacity="1" width="16" height="14.4" y="0" cursor="ns-resize" stroke="black" stroke-width="0.2"/><rect class="bandrect" stroke-opacity="1" fill="rgb(173, 0, 0)" fill-opacity="1" width="16" height="28.8" y="14.4" cursor="ns-resize" stroke="black" stroke-width="0.2"/><rect class="bandrect" stroke-opacity="1" fill="rgb(243, 105, 0)" fill-opacity="1" width="16" height="57.60000000000001" y="43.2" cursor="ns-resize" stroke="black" stroke-width="0.2"/><rect class="bandrect" stroke-opacity="1" fill="rgb(255, 221, 64)" fill-opacity="1" width="16" height="43.2" y="100.80000000000001" cursor="ns-resize" stroke="black" stroke-width="0.2"/><rect class="bandrect" stroke-opacity="1" fill="rgb(255, 255, 255)" fill-opacity="1" width="16" height="14.4" y="144" cursor="ns-resize" stroke="black" stroke-width="0.2"/><text class="catlabel" pointer-events="none" text-anchor="end" alignment-baseline="middle" x="-5" y="79.2" style="text-shadow: rgb(255, 255, 255) -1px 1px 2px, rgb(255, 255, 255) 1px 1px 2px, rgb(255, 255, 255) 1px -1px 2px, rgb(255, 255, 255) -1px -1px 2px; fill: rgb(68, 68, 68); font-family: 'Open Sans', verdana, arial, sans-serif; font-size: 15px; fill-opacity: 1; white-space: pre;">moea_control</text><text class="dimlabel" text-anchor="middle" alignment-baseline="baseline" cursor="ew-resize" x="8" y="-5" style="font-family: 'Open Sans', verdana, arial, sans-serif; font-size: 18px; fill: rgb(68, 68, 68); fill-opacity: 1;">Solver</text></g><g class="category" transform="translate(0, 178.4)"><rect class="catrect" pointer-events="none" fill="none" width="16" height="129.6" stroke="black" stroke-width="1" stroke-opacity="1"/><rect class="bandrect" stroke-opacity="1" fill="rgb(243, 105, 0)" fill-opacity="1" width="16" height="36" y="0" cursor="ns-resize" stroke="black" stroke-width="0.2"/><rect class="bandrect" stroke-opacity="1" fill="rgb(255, 221, 64)" fill-opacity="1" width="16" height="79.20000000000002" y="36" cursor="ns-resize" stroke="black" stroke-width="0.2"/><rect class="bandrect" stroke-opacity="1" fill="rgb(255, 255, 255)" fill-opacity="1" width="16" height="14.4" y="115.20000000000002" cursor="ns-resize" stroke="black" stroke-width="0.2"/><text class="catlabel" pointer-events="none" text-anchor="end" alignment-baseline="middle" x="-5" y="64.8" style="text-shadow: rgb(255, 255, 255) -1px 1px 2px, rgb(255, 255, 255) 1px 1px 2px, rgb(255, 255, 255) 1px -1px 2px, rgb(255, 255, 255) -1px -1px 2px; fill: rgb(68, 68, 68); font-family: 'Open Sans', verdana, arial, sans-serif; font-size: 15px; fill-opacity: 1; white-space: pre;">nsga2</text><text class="dimlabel" text-anchor="middle" alignment-baseline="baseline" cursor="ew-resize" x="8" y="-5" style="font-family: 'Open Sans', verdana, arial, sans-serif; font-size: 18px; fill: rgb(68, 68, 68); fill-opacity: 1;"/></g></g><g class="dimension" transform="translate(777.5, 0)"><g class="category" transform="translate(0, 12)"><rect class="catrect" pointer-events="none" fill="none" width="16" height="180" stroke="black" stroke-width="1" stroke-opacity="1"/><rect class="bandrect" stroke-opacity="1" fill="rgb(0, 0, 0)" fill-opacity="1" width="16" height="7.2" y="0" cursor="ns-resize" stroke="black" stroke-width="0.2"/><rect class="bandrect" stroke-opacity="1" fill="rgb(173, 0, 0)" fill-opacity="1" width="16" height="28.8" y="7.2" cursor="ns-resize" stroke="black" stroke-width="0.2"/><rect class="bandrect" stroke-opacity="1" fill="rgb(243, 105, 0)" fill-opacity="1" width="16" height="57.60000000000001" y="36" cursor="ns-resize" stroke="black" stroke-width="0.2"/><rect class="bandrect" stroke-opacity="1" fill="rgb(255, 221, 64)" fill-opacity="1" width="16" height="57.6" y="93.60000000000001" cursor="ns-resize" stroke="black" stroke-width="0.2"/><rect class="bandrect" stroke-opacity="1" fill="rgb(255, 255, 255)" fill-opacity="1" width="16" height="28.8" y="151.20000000000002" cursor="ns-resize" stroke="black" stroke-width="0.2"/><text class="catlabel" pointer-events="none" text-anchor="end" alignment-baseline="middle" x="-5" y="90" style="text-shadow: rgb(255, 255, 255) -1px 1px 2px, rgb(255, 255, 255) 1px 1px 2px, rgb(255, 255, 255) 1px -1px 2px, rgb(255, 255, 255) -1px -1px 2px; fill: rgb(68, 68, 68); font-family: 'Open Sans', verdana, arial, sans-serif; font-size: 15px; fill-opacity: 1; white-space: pre;">100</text><text class="dimlabel" text-anchor="middle" alignment-baseline="baseline" cursor="ew-resize" x="8" y="-5" style="font-family: 'Open Sans', verdana, arial, sans-serif; font-size: 18px; fill: rgb(68, 68, 68); fill-opacity: 1;">Predict size</text></g><g class="category" transform="translate(0, 200)"><rect class="catrect" pointer-events="none" fill="none" width="16" height="108" stroke="black" stroke-width="1" stroke-opacity="1"/><rect class="bandrect" stroke-opacity="1" fill="rgb(0, 0, 0)" fill-opacity="1" width="16" height="7.2" y="0" cursor="ns-resize" stroke="black" stroke-width="0.2"/><rect class="bandrect" stroke-opacity="1" fill="rgb(243, 105, 0)" fill-opacity="1" width="16" height="36" y="7.2" cursor="ns-resize" stroke="black" stroke-width="0.2"/><rect class="bandrect" stroke-opacity="1" fill="rgb(255, 221, 64)" fill-opacity="1" width="16" height="64.80000000000001" y="43.2" cursor="ns-resize" stroke="black" stroke-width="0.2"/><text class="catlabel" pointer-events="none" text-anchor="end" alignment-baseline="middle" x="-5" y="54" style="text-shadow: rgb(255, 255, 255) -1px 1px 2px, rgb(255, 255, 255) 1px 1px 2px, rgb(255, 255, 255) 1px -1px 2px, rgb(255, 255, 255) -1px -1px 2px; fill: rgb(68, 68, 68); font-family: 'Open Sans', verdana, arial, sans-serif; font-size: 15px; fill-opacity: 1; white-space: pre;">10</text><text class="dimlabel" text-anchor="middle" alignment-baseline="baseline" cursor="ew-resize" x="8" y="-5" style="font-family: 'Open Sans', verdana, arial, sans-serif; font-size: 18px; fill: rgb(68, 68, 68); fill-opacity: 1;"/></g></g><g class="dimension" transform="translate(925, 0)"><g class="category" transform="translate(0, 0)"><rect class="catrect" pointer-events="none" fill="none" width="16" height="14.4" stroke="black" stroke-width="1" stroke-opacity="1"/><rect class="bandrect" stroke-opacity="1" fill="rgb(0, 0, 0)" fill-opacity="1" width="16" height="14.4" y="0" cursor="ns-resize" stroke="black" stroke-width="0.2"/><text class="catlabel" pointer-events="none" text-anchor="start" alignment-baseline="middle" x="21" y="7.2" style="text-shadow: rgb(255, 255, 255) -1px 1px 2px, rgb(255, 255, 255) 1px 1px 2px, rgb(255, 255, 255) 1px -1px 2px, rgb(255, 255, 255) -1px -1px 2px; fill: rgb(68, 68, 68); font-family: 'Open Sans', verdana, arial, sans-serif; font-size: 15px; fill-opacity: 1; white-space: pre;">0.2</text><text class="dimlabel" text-anchor="middle" alignment-baseline="baseline" cursor="ew-resize" x="8" y="-5" style="font-family: 'Open Sans', verdana, arial, sans-serif; font-size: 18px; fill: rgb(68, 68, 68); fill-opacity: 1;">p-distance</text></g><g class="category" transform="translate(0, 22.4)"><rect class="catrect" pointer-events="none" fill="none" width="16" height="28.8" stroke="black" stroke-width="1" stroke-opacity="1"/><rect class="bandrect" stroke-opacity="1" fill="rgb(173, 0, 0)" fill-opacity="1" width="16" height="28.8" y="0" cursor="ns-resize" stroke="black" stroke-width="0.2"/><text class="catlabel" pointer-events="none" text-anchor="start" alignment-baseline="middle" x="21" y="14.4" style="text-shadow: rgb(255, 255, 255) -1px 1px 2px, rgb(255, 255, 255) 1px 1px 2px, rgb(255, 255, 255) 1px -1px 2px, rgb(255, 255, 255) -1px -1px 2px; fill: rgb(68, 68, 68); font-family: 'Open Sans', verdana, arial, sans-serif; font-size: 15px; fill-opacity: 1; white-space: pre;">0.3</text><text class="dimlabel" text-anchor="middle" alignment-baseline="baseline" cursor="ew-resize" x="8" y="-5" style="font-family: 'Open Sans', verdana, arial, sans-serif; font-size: 18px; fill: rgb(68, 68, 68); fill-opacity: 1;"/></g><g class="category" transform="translate(0, 59.2)"><rect class="catrect" pointer-events="none" fill="none" width="16" height="93.60000000000001" stroke="black" stroke-width="1" stroke-opacity="1"/><rect class="bandrect" stroke-opacity="1" fill="rgb(243, 105, 0)" fill-opacity="1" width="16" height="93.60000000000002" y="0" cursor="ns-resize" stroke="black" stroke-width="0.2"/><text class="catlabel" pointer-events="none" text-anchor="start" alignment-baseline="middle" x="21" y="46.800000000000004" style="text-shadow: rgb(255, 255, 255) -1px 1px 2px, rgb(255, 255, 255) 1px 1px 2px, rgb(255, 255, 255) 1px -1px 2px, rgb(255, 255, 255) -1px -1px 2px; fill: rgb(68, 68, 68); font-family: 'Open Sans', verdana, arial, sans-serif; font-size: 15px; fill-opacity: 1; white-space: pre;">0.4</text><text class="dimlabel" text-anchor="middle" alignment-baseline="baseline" cursor="ew-resize" x="8" y="-5" style="font-family: 'Open Sans', verdana, arial, sans-serif; font-size: 18px; fill: rgb(68, 68, 68); fill-opacity: 1;"/></g><g class="category" transform="translate(0, 160.8)"><rect class="catrect" pointer-events="none" fill="none" width="16" height="122.39999999999999" stroke="black" stroke-width="1" stroke-opacity="1"/><rect class="bandrect" stroke-opacity="1" fill="rgb(255, 221, 64)" fill-opacity="1" width="16" height="122.40000000000003" y="0" cursor="ns-resize" stroke="black" stroke-width="0.2"/><text class="catlabel" pointer-events="none" text-anchor="start" alignment-baseline="middle" x="21" y="61.199999999999996" style="text-shadow: rgb(255, 255, 255) -1px 1px 2px, rgb(255, 255, 255) 1px 1px 2px, rgb(255, 255, 255) 1px -1px 2px, rgb(255, 255, 255) -1px -1px 2px; fill: rgb(68, 68, 68); font-family: 'Open Sans', verdana, arial, sans-serif; font-size: 15px; fill-opacity: 1; white-space: pre;">0.5</text><text class="dimlabel" text-anchor="middle" alignment-baseline="baseline" cursor="ew-resize" x="8" y="-5" style="font-family: 'Open Sans', verdana, arial, sans-serif; font-size: 18px; fill: rgb(68, 68, 68); fill-opacity: 1;"/></g><g class="category" transform="translate(0, 291.2)"><rect class="catrect" pointer-events="none" fill="none" width="16" height="28.8" stroke="black" stroke-width="1" stroke-opacity="1"/><rect class="bandrect" stroke-opacity="1" fill="rgb(255, 255, 255)" fill-opacity="1" width="16" height="28.8" y="0" cursor="ns-resize" stroke="black" stroke-width="0.2"/><text class="catlabel" pointer-events="none" text-anchor="start" alignment-baseline="middle" x="21" y="14.4" style="text-shadow: rgb(255, 255, 255) -1px 1px 2px, rgb(255, 255, 255) 1px 1px 2px, rgb(255, 255, 255) 1px -1px 2px, rgb(255, 255, 255) -1px -1px 2px; fill: rgb(68, 68, 68); font-family: 'Open Sans', verdana, arial, sans-serif; font-size: 15px; fill-opacity: 1; white-space: pre;">0.6</text><text class="dimlabel" text-anchor="middle" alignment-baseline="baseline" cursor="ew-resize" x="8" y="-5" style="font-family: 'Open Sans', verdana, arial, sans-serif; font-size: 18px; fill: rgb(68, 68, 68); fill-opacity: 1;"/></g></g></g></g></g><defs id="topdefs-72b664"><g class="clips"/></defs><g class="layer-above"><g class="imagelayer"/><g class="shapelayer"/></g><g class="infolayer"><g class="cbcoloraxis colorbar" transform="translate(80,100)"><rect class="cbbg" x="1000.5" y="-0.5" width="107.578125" height="321" style="fill: rgb(0, 0, 0); fill-opacity: 0; stroke: rgb(68, 68, 68); stroke-opacity: 1; stroke-width: 0;"/><g class="cbfills" transform="translate(0,39)"><rect class="cbfill" x="1011" width="30" y="0" height="271" style="stroke: none; fill: url('#g72b664-cbcoloraxis');"/></g><g class="cblines" transform="translate(0,39)"/><g class="cbaxis crisp" transform="translate(0,-100)"><g class="ycbcoloraxistick"><text text-anchor="start" x="1045.6" y="6.3" transform="translate(0,410)" style="font-family: 'Open Sans', verdana, arial, sans-serif; font-size: 18px; fill: rgb(68, 68, 68); fill-opacity: 1; white-space: pre;">0.2</text></g><g class="ycbcoloraxistick"><text text-anchor="start" x="1045.6" y="6.3" transform="translate(0,342.25)" style="font-family: 'Open Sans', verdana, arial, sans-serif; font-size: 18px; fill: rgb(68, 68, 68); fill-opacity: 1; white-space: pre;">0.3</text></g><g class="ycbcoloraxistick"><text text-anchor="start" x="1045.6" y="6.3" transform="translate(0,274.5)" style="font-family: 'Open Sans', verdana, arial, sans-serif; font-size: 18px; fill: rgb(68, 68, 68); fill-opacity: 1; white-space: pre;">0.4</text></g><g class="ycbcoloraxistick"><text text-anchor="start" x="1045.6" y="6.3" transform="translate(0,206.75)" style="font-family: 'Open Sans', verdana, arial, sans-serif; font-size: 18px; fill: rgb(68, 68, 68); fill-opacity: 1; white-space: pre;">0.5</text></g><g class="ycbcoloraxistick"><text text-anchor="start" x="1045.6" y="6.3" transform="translate(0,139)" style="font-family: 'Open Sans', verdana, arial, sans-serif; font-size: 18px; fill: rgb(68, 68, 68); fill-opacity: 1; white-space: pre;">0.6</text></g></g><g class="cbtitleunshift" transform="translate(-80,-100)"><g class="cbtitle" transform="translate(-0.5,-0.5)"><text class="ycbcoloraxistitle" x="1090.62" y="126.5" text-anchor="start" style="font-family: 'Open Sans', verdana, arial, sans-serif; font-size: 18px; fill: rgb(68, 68, 68); opacity: 1; font-weight: normal; white-space: pre;">p-distance</text></g></g><rect class="cboutline" x="1011" y="39" width="30" height="271" style="stroke: rgb(68, 68, 68); stroke-opacity: 1; fill: none; stroke-width: 1;"/></g><g class="g-gtitle"><text class="gtitle" x="600" y="50" text-anchor="middle" dy="0em" style="font-family: 'Open Sans', verdana, arial, sans-serif; font-size: 25px; fill: rgb(68, 68, 68); opacity: 1; font-weight: normal; white-space: pre;">ZDT4: TutorM best combinations</text></g></g></svg>