<svg class="main-svg" xmlns="http://www.w3.org/2000/svg" xmlns:xlink="http://www.w3.org/1999/xlink" width="1200" height="500" viewBox="0 0 1200 500"><rect x="0" y="0" width="1200" height="500" style="fill: rgb(255, 255, 255); fill-opacity: 1;"/><defs id="defs-95c10b"><g class="clips"/><g class="gradients"/></defs><g class="bglayer"/><g class="layer-below"><g class="imagelayer"/><g class="shapelayer"/></g><g class="cartesianlayer"/><g class="polarlayer"/><g class="ternarylayer"/><g class="geolayer"/><g class="funnelarealayer"/><g class="pielayer"/><g class="treemaplayer"/><g class="sunburstlayer"/><g class="glimages"/><g class="parcatslayer" style="pointer-events: all;"><g class="trace parcats" transform="translate(80, 100)"><g class="paths"><path class="path" stroke-opacity="1" fill="rgb(240, 249, 33)" fill-opacity="0.6" stroke="lightgray" stroke-width="0.2" d="M 40,267l16,0 C56,267 197.33333333333334,39.800000000000004 197.33333333333334,39.800000000000004l16,0 C213.33333333333334,39.800000000000004 354.6666666666667,50.400000000000006 354.6666666666667,50.400000000000006l16,0 C370.6666666666667,50.400000000000006 512,43.800000000000004 512,43.800000000000004l16,0 C528,43.800000000000004 669.3333333333334,170.59999999999997 669.3333333333334,170.59999999999997l16,0 C685.3333333333334,170.59999999999997 826.6666666666667,30.6 826.6666666666667,30.6l16,0 C842.6666666666667,30.6 984,306.8000000000002 984,306.8000000000002l16,0 l0,13.200000000000001 l -16,0 C984,320.00000000000017 842.6666666666667,43.800000000000004 842.6666666666667,43.800000000000004l-16,0 C826.6666666666667,43.800000000000004 685.3333333333334,183.79999999999995 685.3333333333334,183.79999999999995l-16,0 C669.3333333333334,183.79999999999995 528,57.00000000000001 528,57.00000000000001l-16,0 C512,57.00000000000001 370.6666666666667,63.60000000000001 370.6666666666667,63.60000000000001l-16,0 C354.6666666666667,63.60000000000001 213.33333333333334,53.00000000000001 213.33333333333334,53.00000000000001l-16,0 C197.33333333333334,53.00000000000001 56,280.2 56,280.2l-16,0 Z"/><path class="path" stroke-opacity="1" fill="rgb(240, 249, 33)" fill-opacity="0.6" stroke="lightgray" stroke-width="0.2" d="M 40,61l16,0 C56,61 197.33333333333334,20 197.33333333333334,20l16,0 C213.33333333333334,20 354.6666666666667,150.8 354.6666666666667,150.8l16,0 C370.6666666666667,150.8 512,177.20000000000002 512,177.20000000000002l16,0 C528,177.20000000000002 669.3333333333334,24 669.3333333333334,24l16,0 C685.3333333333334,24 826.6666666666667,104.60000000000001 826.6666666666667,104.60000000000001l16,0 C842.6666666666667,104.60000000000001 984,240.8 984,240.8l16,0 l0,6.6000000000000005 l -16,0 C984,247.4 842.6666666666667,111.2 842.6666666666667,111.2l-16,0 C826.6666666666667,111.2 685.3333333333334,30.6 685.3333333333334,30.6l-16,0 C669.3333333333334,30.6 528,183.8 528,183.8l-16,0 C512,183.8 370.6666666666667,157.4 370.6666666666667,157.4l-16,0 C354.6666666666667,157.4 213.33333333333334,26.6 213.33333333333334,26.6l-16,0 C197.33333333333334,26.6 56,67.6 56,67.6l-16,0 Z"/><path class="path" stroke-opacity="1" fill="rgb(240, 249, 33)" fill-opacity="0.6" stroke="lightgray" stroke-width="0.2" d="M 40,80.79999999999998l16,0 C56,80.79999999999998 197.33333333333334,166.6 197.33333333333334,166.6l16,0 C213.33333333333334,166.6 354.6666666666667,30.6 354.6666666666667,30.6l16,0 C370.6666666666667,30.6 512,197 512,197l16,0 C528,197 669.3333333333334,137.6 669.3333333333334,137.6l16,0 C685.3333333333334,137.6 826.6666666666667,124.39999999999999 826.6666666666667,124.39999999999999l16,0 C842.6666666666667,124.39999999999999 984,260.6 984,260.6l16,0 l0,6.6000000000000005 l -16,0 C984,267.20000000000005 842.6666666666667,131 842.6666666666667,131l-16,0 C826.6666666666667,131 685.3333333333334,144.2 685.3333333333334,144.2l-16,0 C669.3333333333334,144.2 528,203.6 528,203.6l-16,0 C512,203.6 370.6666666666667,37.2 370.6666666666667,37.2l-16,0 C354.6666666666667,37.2 213.33333333333334,173.2 213.33333333333334,173.2l-16,0 C197.33333333333334,173.2 56,87.39999999999998 56,87.39999999999998l-16,0 Z"/><path class="path" stroke-opacity="1" fill="rgb(240, 249, 33)" fill-opacity="0.6" stroke="lightgray" stroke-width="0.2" d="M 40,87.39999999999998l16,0 C56,87.39999999999998 197.33333333333334,173.2 197.33333333333334,173.2l16,0 C213.33333333333334,173.2 354.6666666666667,164 354.6666666666667,164l16,0 C370.6666666666667,164 512,24 512,24l16,0 C528,24 669.3333333333334,37.2 669.3333333333334,37.2l16,0 C685.3333333333334,37.2 826.6666666666667,131 826.6666666666667,131l16,0 C842.6666666666667,131 984,267.20000000000005 984,267.20000000000005l16,0 l0,6.6000000000000005 l -16,0 C984,273.80000000000007 842.6666666666667,137.6 842.6666666666667,137.6l-16,0 C826.6666666666667,137.6 685.3333333333334,43.800000000000004 685.3333333333334,43.800000000000004l-16,0 C669.3333333333334,43.800000000000004 528,30.6 528,30.6l-16,0 C512,30.6 370.6666666666667,170.6 370.6666666666667,170.6l-16,0 C354.6666666666667,170.6 213.33333333333334,179.79999999999998 213.33333333333334,179.79999999999998l-16,0 C197.33333333333334,179.79999999999998 56,93.99999999999997 56,93.99999999999997l-16,0 Z"/><path class="path" stroke-opacity="1" fill="rgb(240, 249, 33)" fill-opacity="0.6" stroke="lightgray" stroke-width="0.2" d="M 40,93.99999999999997l16,0 C56,93.99999999999997 197.33333333333334,179.79999999999998 197.33333333333334,179.79999999999998l16,0 C213.33333333333334,179.79999999999998 354.6666666666667,170.6 354.6666666666667,170.6l16,0 C370.6666666666667,170.6 512,203.6 512,203.6l16,0 C528,203.6 669.3333333333334,144.2 669.3333333333334,144.2l16,0 C685.3333333333334,144.2 826.6666666666667,137.6 826.6666666666667,137.6l16,0 C842.6666666666667,137.6 984,273.80000000000007 984,273.80000000000007l16,0 l0,6.6000000000000005 l -16,0 C984,280.4000000000001 842.6666666666667,144.2 842.6666666666667,144.2l-16,0 C826.6666666666667,144.2 685.3333333333334,150.79999999999998 685.3333333333334,150.79999999999998l-16,0 C669.3333333333334,150.79999999999998 528,210.2 528,210.2l-16,0 C512,210.2 370.6666666666667,177.2 370.6666666666667,177.2l-16,0 C354.6666666666667,177.2 213.33333333333334,186.39999999999998 213.33333333333334,186.39999999999998l-16,0 C197.33333333333334,186.39999999999998 56,100.59999999999997 56,100.59999999999997l-16,0 Z"/><path class="path" stroke-opacity="1" fill="rgb(240, 249, 33)" fill-opacity="0.6" stroke="lightgray" stroke-width="0.2" d="M 40,100.59999999999997l16,0 C56,100.59999999999997 197.33333333333334,227.4 197.33333333333334,227.4l16,0 C213.33333333333334,227.4 354.6666666666667,37.2 354.6666666666667,37.2l16,0 C370.6666666666667,37.2 512,210.2 512,210.2l16,0 C528,210.2 669.3333333333334,150.79999999999998 669.3333333333334,150.79999999999998l16,0 C685.3333333333334,150.79999999999998 826.6666666666667,144.2 826.6666666666667,144.2l16,0 C842.6666666666667,144.2 984,280.4000000000001 984,280.4000000000001l16,0 l0,6.6000000000000005 l -16,0 C984,287.0000000000001 842.6666666666667,150.79999999999998 842.6666666666667,150.79999999999998l-16,0 C826.6666666666667,150.79999999999998 685.3333333333334,157.39999999999998 685.3333333333334,157.39999999999998l-16,0 C669.3333333333334,157.39999999999998 528,216.79999999999998 528,216.79999999999998l-16,0 C512,216.79999999999998 370.6666666666667,43.800000000000004 370.6666666666667,43.800000000000004l-16,0 C354.6666666666667,43.800000000000004 213.33333333333334,234 213.33333333333334,234l-16,0 C197.33333333333334,234 56,107.19999999999996 56,107.19999999999996l-16,0 Z"/><path class="path" stroke-opacity="1" fill="rgb(240, 249, 33)" fill-opacity="0.6" stroke="lightgray" stroke-width="0.2" d="M 40,107.19999999999996l16,0 C56,107.19999999999996 197.33333333333334,234 197.33333333333334,234l16,0 C213.33333333333334,234 354.6666666666667,177.2 354.6666666666667,177.2l16,0 C370.6666666666667,177.2 512,30.6 512,30.6l16,0 C528,30.6 669.3333333333334,157.39999999999998 669.3333333333334,157.39999999999998l16,0 C685.3333333333334,157.39999999999998 826.6666666666667,150.79999999999998 826.6666666666667,150.79999999999998l16,0 C842.6666666666667,150.79999999999998 984,287.0000000000001 984,287.0000000000001l16,0 l0,6.6000000000000005 l -16,0 C984,293.60000000000014 842.6666666666667,157.39999999999998 842.6666666666667,157.39999999999998l-16,0 C826.6666666666667,157.39999999999998 685.3333333333334,163.99999999999997 685.3333333333334,163.99999999999997l-16,0 C669.3333333333334,163.99999999999997 528,37.2 528,37.2l-16,0 C512,37.2 370.6666666666667,183.79999999999998 370.6666666666667,183.79999999999998l-16,0 C354.6666666666667,183.79999999999998 213.33333333333334,240.6 213.33333333333334,240.6l-16,0 C197.33333333333334,240.6 56,113.79999999999995 56,113.79999999999995l-16,0 Z"/><path class="path" stroke-opacity="1" fill="rgb(240, 249, 33)" fill-opacity="0.6" stroke="lightgray" stroke-width="0.2" d="M 40,113.79999999999995l16,0 C56,113.79999999999995 197.33333333333334,240.6 197.33333333333334,240.6l16,0 C213.33333333333334,240.6 354.6666666666667,183.79999999999998 354.6666666666667,183.79999999999998l16,0 C370.6666666666667,183.79999999999998 512,216.79999999999998 512,216.79999999999998l16,0 C528,216.79999999999998 669.3333333333334,163.99999999999997 669.3333333333334,163.99999999999997l16,0 C685.3333333333334,163.99999999999997 826.6666666666667,157.39999999999998 826.6666666666667,157.39999999999998l16,0 C842.6666666666667,157.39999999999998 984,293.60000000000014 984,293.60000000000014l16,0 l0,6.6000000000000005 l -16,0 C984,300.20000000000016 842.6666666666667,163.99999999999997 842.6666666666667,163.99999999999997l-16,0 C826.6666666666667,163.99999999999997 685.3333333333334,170.59999999999997 685.3333333333334,170.59999999999997l-16,0 C669.3333333333334,170.59999999999997 528,223.39999999999998 528,223.39999999999998l-16,0 C512,223.39999999999998 370.6666666666667,190.39999999999998 370.6666666666667,190.39999999999998l-16,0 C354.6666666666667,190.39999999999998 213.33333333333334,247.2 213.33333333333334,247.2l-16,0 C197.33333333333334,247.2 56,120.39999999999995 56,120.39999999999995l-16,0 Z"/><path class="path" stroke-opacity="1" fill="rgb(240, 249, 33)" fill-opacity="0.6" stroke="lightgray" stroke-width="0.2" d="M 40,260.4l16,0 C56,260.4 197.33333333333334,33.2 197.33333333333334,33.2l16,0 C213.33333333333334,33.2 354.6666666666667,43.800000000000004 354.6666666666667,43.800000000000004l16,0 C370.6666666666667,43.800000000000004 512,37.2 512,37.2l16,0 C528,37.2 669.3333333333334,43.800000000000004 669.3333333333334,43.800000000000004l16,0 C685.3333333333334,43.800000000000004 826.6666666666667,24 826.6666666666667,24l16,0 C842.6666666666667,24 984,300.20000000000016 984,300.20000000000016l16,0 l0,6.6000000000000005 l -16,0 C984,306.8000000000002 842.6666666666667,30.6 842.6666666666667,30.6l-16,0 C826.6666666666667,30.6 685.3333333333334,50.400000000000006 685.3333333333334,50.400000000000006l-16,0 C669.3333333333334,50.400000000000006 528,43.800000000000004 528,43.800000000000004l-16,0 C512,43.800000000000004 370.6666666666667,50.400000000000006 370.6666666666667,50.400000000000006l-16,0 C354.6666666666667,50.400000000000006 213.33333333333334,39.800000000000004 213.33333333333334,39.800000000000004l-16,0 C197.33333333333334,39.800000000000004 56,267 56,267l-16,0 Z"/><path class="path" stroke-opacity="1" fill="rgb(240, 249, 33)" fill-opacity="0.6" stroke="lightgray" stroke-width="0.2" d="M 40,74.19999999999999l16,0 C56,74.19999999999999 197.33333333333334,160 197.33333333333334,160l16,0 C213.33333333333334,160 354.6666666666667,24 354.6666666666667,24l16,0 C370.6666666666667,24 512,190.4 512,190.4l16,0 C528,190.4 669.3333333333334,30.6 669.3333333333334,30.6l16,0 C685.3333333333334,30.6 826.6666666666667,117.8 826.6666666666667,117.8l16,0 C842.6666666666667,117.8 984,254 984,254l16,0 l0,6.6000000000000005 l -16,0 C984,260.6 842.6666666666667,124.39999999999999 842.6666666666667,124.39999999999999l-16,0 C826.6666666666667,124.39999999999999 685.3333333333334,37.2 685.3333333333334,37.2l-16,0 C669.3333333333334,37.2 528,197 528,197l-16,0 C512,197 370.6666666666667,30.6 370.6666666666667,30.6l-16,0 C354.6666666666667,30.6 213.33333333333334,166.6 213.33333333333334,166.6l-16,0 C197.33333333333334,166.6 56,80.79999999999998 56,80.79999999999998l-16,0 Z"/><path class="path" stroke-opacity="1" fill="rgb(240, 249, 33)" fill-opacity="0.6" stroke="lightgray" stroke-width="0.2" d="M 40,67.6l16,0 C56,67.6 197.33333333333334,26.6 197.33333333333334,26.6l16,0 C213.33333333333334,26.6 354.6666666666667,157.4 354.6666666666667,157.4l16,0 C370.6666666666667,157.4 512,183.8 512,183.8l16,0 C528,183.8 669.3333333333334,131 669.3333333333334,131l16,0 C685.3333333333334,131 826.6666666666667,111.2 826.6666666666667,111.2l16,0 C842.6666666666667,111.2 984,247.4 984,247.4l16,0 l0,6.6000000000000005 l -16,0 C984,254 842.6666666666667,117.8 842.6666666666667,117.8l-16,0 C826.6666666666667,117.8 685.3333333333334,137.6 685.3333333333334,137.6l-16,0 C669.3333333333334,137.6 528,190.4 528,190.4l-16,0 C512,190.4 370.6666666666667,164 370.6666666666667,164l-16,0 C354.6666666666667,164 213.33333333333334,33.2 213.33333333333334,33.2l-16,0 C197.33333333333334,33.2 56,74.19999999999999 56,74.19999999999999l-16,0 Z"/><path class="path" stroke-opacity="1" fill="rgb(252, 190, 44)" fill-opacity="0.6" stroke="lightgray" stroke-width="0.2" d="M 40,20l16,0 C56,20 197.33333333333334,53.00000000000001 197.33333333333334,53.00000000000001l16,0 C213.33333333333334,53.00000000000001 354.6666666666667,63.60000000000001 354.6666666666667,63.60000000000001l16,0 C370.6666666666667,63.60000000000001 512,57.00000000000001 512,57.00000000000001l16,0 C528,57.00000000000001 669.3333333333334,183.79999999999995 669.3333333333334,183.79999999999995l16,0 C685.3333333333334,183.79999999999995 826.6666666666667,43.800000000000004 826.6666666666667,43.800000000000004l16,0 C842.6666666666667,43.800000000000004 984,180 984,180l16,0 l0,6.6000000000000005 l -16,0 C984,186.6 842.6666666666667,50.400000000000006 842.6666666666667,50.400000000000006l-16,0 C826.6666666666667,50.400000000000006 685.3333333333334,190.39999999999995 685.3333333333334,190.39999999999995l-16,0 C669.3333333333334,190.39999999999995 528,63.60000000000001 528,63.60000000000001l-16,0 C512,63.60000000000001 370.6666666666667,70.2 370.6666666666667,70.2l-16,0 C354.6666666666667,70.2 213.33333333333334,59.60000000000001 213.33333333333334,59.60000000000001l-16,0 C197.33333333333334,59.60000000000001 56,26.6 56,26.6l-16,0 Z"/><path class="path" stroke-opacity="1" fill="rgb(252, 190, 44)" fill-opacity="0.6" stroke="lightgray" stroke-width="0.2" d="M 40,26.6l16,0 C56,26.6 197.33333333333334,59.60000000000001 197.33333333333334,59.60000000000001l16,0 C213.33333333333334,59.60000000000001 354.6666666666667,190.39999999999998 354.6666666666667,190.39999999999998l16,0 C370.6666666666667,190.39999999999998 512,223.39999999999998 512,223.39999999999998l16,0 C528,223.39999999999998 669.3333333333334,50.400000000000006 669.3333333333334,50.400000000000006l16,0 C685.3333333333334,50.400000000000006 826.6666666666667,50.400000000000006 826.6666666666667,50.400000000000006l16,0 C842.6666666666667,50.400000000000006 984,186.6 984,186.6l16,0 l0,6.6000000000000005 l -16,0 C984,193.2 842.6666666666667,57.00000000000001 842.6666666666667,57.00000000000001l-16,0 C826.6666666666667,57.00000000000001 685.3333333333334,57.00000000000001 685.3333333333334,57.00000000000001l-16,0 C669.3333333333334,57.00000000000001 528,229.99999999999997 528,229.99999999999997l-16,0 C512,229.99999999999997 370.6666666666667,196.99999999999997 370.6666666666667,196.99999999999997l-16,0 C354.6666666666667,196.99999999999997 213.33333333333334,66.2 213.33333333333334,66.2l-16,0 C197.33333333333334,66.2 56,33.2 56,33.2l-16,0 Z"/><path class="path" stroke-opacity="1" fill="rgb(252, 190, 44)" fill-opacity="0.6" stroke="lightgray" stroke-width="0.2" d="M 40,33.2l16,0 C56,33.2 197.33333333333334,247.2 197.33333333333334,247.2l16,0 C213.33333333333334,247.2 354.6666666666667,196.99999999999997 354.6666666666667,196.99999999999997l16,0 C370.6666666666667,196.99999999999997 512,229.99999999999997 512,229.99999999999997l16,0 C528,229.99999999999997 669.3333333333334,57.00000000000001 669.3333333333334,57.00000000000001l16,0 C685.3333333333334,57.00000000000001 826.6666666666667,57.00000000000001 826.6666666666667,57.00000000000001l16,0 C842.6666666666667,57.00000000000001 984,193.2 984,193.2l16,0 l0,6.6000000000000005 l -16,0 C984,199.79999999999998 842.6666666666667,63.60000000000001 842.6666666666667,63.60000000000001l-16,0 C826.6666666666667,63.60000000000001 685.3333333333334,63.60000000000001 685.3333333333334,63.60000000000001l-16,0 C669.3333333333334,63.60000000000001 528,236.59999999999997 528,236.59999999999997l-16,0 C512,236.59999999999997 370.6666666666667,203.59999999999997 370.6666666666667,203.59999999999997l-16,0 C354.6666666666667,203.59999999999997 213.33333333333334,253.79999999999998 213.33333333333334,253.79999999999998l-16,0 C197.33333333333334,253.79999999999998 56,39.800000000000004 56,39.800000000000004l-16,0 Z"/><path class="path" stroke-opacity="1" fill="rgb(252, 190, 44)" fill-opacity="0.6" stroke="lightgray" stroke-width="0.2" d="M 40,120.39999999999995l16,0 C56,120.39999999999995 197.33333333333334,66.2 197.33333333333334,66.2l16,0 C213.33333333333334,66.2 354.6666666666667,203.59999999999997 354.6666666666667,203.59999999999997l16,0 C370.6666666666667,203.59999999999997 512,236.59999999999997 512,236.59999999999997l16,0 C528,236.59999999999997 669.3333333333334,63.60000000000001 669.3333333333334,63.60000000000001l16,0 C685.3333333333334,63.60000000000001 826.6666666666667,163.99999999999997 826.6666666666667,163.99999999999997l16,0 C842.6666666666667,163.99999999999997 984,199.79999999999998 984,199.79999999999998l16,0 l0,6.6000000000000005 l -16,0 C984,206.39999999999998 842.6666666666667,170.59999999999997 842.6666666666667,170.59999999999997l-16,0 C826.6666666666667,170.59999999999997 685.3333333333334,70.2 685.3333333333334,70.2l-16,0 C669.3333333333334,70.2 528,243.19999999999996 528,243.19999999999996l-16,0 C512,243.19999999999996 370.6666666666667,210.19999999999996 370.6666666666667,210.19999999999996l-16,0 C354.6666666666667,210.19999999999996 213.33333333333334,72.8 213.33333333333334,72.8l-16,0 C197.33333333333334,72.8 56,126.99999999999994 56,126.99999999999994l-16,0 Z"/><path class="path" stroke-opacity="1" fill="rgb(252, 190, 44)" fill-opacity="0.6" stroke="lightgray" stroke-width="0.2" d="M 40,126.99999999999994l16,0 C56,126.99999999999994 197.33333333333334,186.39999999999998 197.33333333333334,186.39999999999998l16,0 C213.33333333333334,186.39999999999998 354.6666666666667,210.19999999999996 354.6666666666667,210.19999999999996l16,0 C370.6666666666667,210.19999999999996 512,63.60000000000001 512,63.60000000000001l16,0 C528,63.60000000000001 669.3333333333334,190.39999999999995 669.3333333333334,190.39999999999995l16,0 C685.3333333333334,190.39999999999995 826.6666666666667,170.59999999999997 826.6666666666667,170.59999999999997l16,0 C842.6666666666667,170.59999999999997 984,206.39999999999998 984,206.39999999999998l16,0 l0,6.6000000000000005 l -16,0 C984,212.99999999999997 842.6666666666667,177.19999999999996 842.6666666666667,177.19999999999996l-16,0 C826.6666666666667,177.19999999999996 685.3333333333334,196.99999999999994 685.3333333333334,196.99999999999994l-16,0 C669.3333333333334,196.99999999999994 528,70.2 528,70.2l-16,0 C512,70.2 370.6666666666667,216.79999999999995 370.6666666666667,216.79999999999995l-16,0 C354.6666666666667,216.79999999999995 213.33333333333334,192.99999999999997 213.33333333333334,192.99999999999997l-16,0 C197.33333333333334,192.99999999999997 56,133.59999999999994 56,133.59999999999994l-16,0 Z"/><path class="path" stroke-opacity="1" fill="rgb(252, 190, 44)" fill-opacity="0.6" stroke="lightgray" stroke-width="0.2" d="M 40,133.59999999999994l16,0 C56,133.59999999999994 197.33333333333334,192.99999999999997 197.33333333333334,192.99999999999997l16,0 C213.33333333333334,192.99999999999997 354.6666666666667,216.79999999999995 354.6666666666667,216.79999999999995l16,0 C370.6666666666667,216.79999999999995 512,243.19999999999996 512,243.19999999999996l16,0 C528,243.19999999999996 669.3333333333334,196.99999999999994 669.3333333333334,196.99999999999994l16,0 C685.3333333333334,196.99999999999994 826.6666666666667,177.19999999999996 826.6666666666667,177.19999999999996l16,0 C842.6666666666667,177.19999999999996 984,212.99999999999997 984,212.99999999999997l16,0 l0,6.6000000000000005 l -16,0 C984,219.59999999999997 842.6666666666667,183.79999999999995 842.6666666666667,183.79999999999995l-16,0 C826.6666666666667,183.79999999999995 685.3333333333334,203.59999999999994 685.3333333333334,203.59999999999994l-16,0 C669.3333333333334,203.59999999999994 528,249.79999999999995 528,249.79999999999995l-16,0 C512,249.79999999999995 370.6666666666667,223.39999999999995 370.6666666666667,223.39999999999995l-16,0 C354.6666666666667,223.39999999999995 213.33333333333334,199.59999999999997 213.33333333333334,199.59999999999997l-16,0 C197.33333333333334,199.59999999999997 56,140.19999999999993 56,140.19999999999993l-16,0 Z"/><path class="path" stroke-opacity="1" fill="rgb(252, 190, 44)" fill-opacity="0.6" stroke="lightgray" stroke-width="0.2" d="M 40,140.19999999999993l16,0 C56,140.19999999999993 197.33333333333334,253.79999999999998 197.33333333333334,253.79999999999998l16,0 C213.33333333333334,253.79999999999998 354.6666666666667,70.2 354.6666666666667,70.2l16,0 C370.6666666666667,70.2 512,249.79999999999995 512,249.79999999999995l16,0 C528,249.79999999999995 669.3333333333334,203.59999999999994 669.3333333333334,203.59999999999994l16,0 C685.3333333333334,203.59999999999994 826.6666666666667,183.79999999999995 826.6666666666667,183.79999999999995l16,0 C842.6666666666667,183.79999999999995 984,219.59999999999997 984,219.59999999999997l16,0 l0,6.6000000000000005 l -16,0 C984,226.19999999999996 842.6666666666667,190.39999999999995 842.6666666666667,190.39999999999995l-16,0 C826.6666666666667,190.39999999999995 685.3333333333334,210.19999999999993 685.3333333333334,210.19999999999993l-16,0 C669.3333333333334,210.19999999999993 528,256.4 528,256.4l-16,0 C512,256.4 370.6666666666667,76.8 370.6666666666667,76.8l-16,0 C354.6666666666667,76.8 213.33333333333334,260.4 213.33333333333334,260.4l-16,0 C197.33333333333334,260.4 56,146.79999999999993 56,146.79999999999993l-16,0 Z"/><path class="path" stroke-opacity="1" fill="rgb(252, 190, 44)" fill-opacity="0.6" stroke="lightgray" stroke-width="0.2" d="M 40,146.79999999999993l16,0 C56,146.79999999999993 197.33333333333334,260.4 197.33333333333334,260.4l16,0 C213.33333333333334,260.4 354.6666666666667,223.39999999999995 354.6666666666667,223.39999999999995l16,0 C370.6666666666667,223.39999999999995 512,70.2 512,70.2l16,0 C528,70.2 669.3333333333334,70.2 669.3333333333334,70.2l16,0 C685.3333333333334,70.2 826.6666666666667,190.39999999999995 826.6666666666667,190.39999999999995l16,0 C842.6666666666667,190.39999999999995 984,226.19999999999996 984,226.19999999999996l16,0 l0,6.6000000000000005 l -16,0 C984,232.79999999999995 842.6666666666667,196.99999999999994 842.6666666666667,196.99999999999994l-16,0 C826.6666666666667,196.99999999999994 685.3333333333334,76.8 685.3333333333334,76.8l-16,0 C669.3333333333334,76.8 528,76.8 528,76.8l-16,0 C512,76.8 370.6666666666667,229.99999999999994 370.6666666666667,229.99999999999994l-16,0 C354.6666666666667,229.99999999999994 213.33333333333334,267 213.33333333333334,267l-16,0 C197.33333333333334,267 56,153.39999999999992 56,153.39999999999992l-16,0 Z"/><path class="path" stroke-opacity="1" fill="rgb(243, 137, 72)" fill-opacity="0.6" stroke="lightgray" stroke-width="0.2" d="M 40,153.39999999999992l16,0 C56,153.39999999999992 197.33333333333334,72.8 197.33333333333334,72.8l16,0 C213.33333333333334,72.8 354.6666666666667,76.8 354.6666666666667,76.8l16,0 C370.6666666666667,76.8 512,256.4 512,256.4l16,0 C528,256.4 669.3333333333334,210.19999999999993 669.3333333333334,210.19999999999993l16,0 C685.3333333333334,210.19999999999993 826.6666666666667,196.99999999999994 826.6666666666667,196.99999999999994l16,0 C842.6666666666667,196.99999999999994 984,139 984,139l16,0 l0,6.6000000000000005 l -16,0 C984,145.6 842.6666666666667,203.59999999999994 842.6666666666667,203.59999999999994l-16,0 C826.6666666666667,203.59999999999994 685.3333333333334,216.79999999999993 685.3333333333334,216.79999999999993l-16,0 C669.3333333333334,216.79999999999993 528,263 528,263l-16,0 C512,263 370.6666666666667,83.39999999999999 370.6666666666667,83.39999999999999l-16,0 C354.6666666666667,83.39999999999999 213.33333333333334,79.39999999999999 213.33333333333334,79.39999999999999l-16,0 C197.33333333333334,79.39999999999999 56,159.99999999999991 56,159.99999999999991l-16,0 Z"/><path class="path" stroke-opacity="1" fill="rgb(243, 137, 72)" fill-opacity="0.6" stroke="lightgray" stroke-width="0.2" d="M 40,159.99999999999991l16,0 C56,159.99999999999991 197.33333333333334,79.39999999999999 197.33333333333334,79.39999999999999l16,0 C213.33333333333334,79.39999999999999 354.6666666666667,229.99999999999994 354.6666666666667,229.99999999999994l16,0 C370.6666666666667,229.99999999999994 512,76.8 512,76.8l16,0 C528,76.8 669.3333333333334,216.79999999999993 669.3333333333334,216.79999999999993l16,0 C685.3333333333334,216.79999999999993 826.6666666666667,203.59999999999994 826.6666666666667,203.59999999999994l16,0 C842.6666666666667,203.59999999999994 984,145.6 984,145.6l16,0 l0,6.6000000000000005 l -16,0 C984,152.2 842.6666666666667,210.19999999999993 842.6666666666667,210.19999999999993l-16,0 C826.6666666666667,210.19999999999993 685.3333333333334,223.39999999999992 685.3333333333334,223.39999999999992l-16,0 C669.3333333333334,223.39999999999992 528,83.39999999999999 528,83.39999999999999l-16,0 C512,83.39999999999999 370.6666666666667,236.59999999999994 370.6666666666667,236.59999999999994l-16,0 C354.6666666666667,236.59999999999994 213.33333333333334,85.99999999999999 213.33333333333334,85.99999999999999l-16,0 C197.33333333333334,85.99999999999999 56,166.5999999999999 56,166.5999999999999l-16,0 Z"/><path class="path" stroke-opacity="1" fill="rgb(243, 137, 72)" fill-opacity="0.6" stroke="lightgray" stroke-width="0.2" d="M 40,166.5999999999999l16,0 C56,166.5999999999999 197.33333333333334,199.59999999999997 197.33333333333334,199.59999999999997l16,0 C213.33333333333334,199.59999999999997 354.6666666666667,83.39999999999999 354.6666666666667,83.39999999999999l16,0 C370.6666666666667,83.39999999999999 512,83.39999999999999 512,83.39999999999999l16,0 C528,83.39999999999999 669.3333333333334,223.39999999999992 669.3333333333334,223.39999999999992l16,0 C685.3333333333334,223.39999999999992 826.6666666666667,210.19999999999993 826.6666666666667,210.19999999999993l16,0 C842.6666666666667,210.19999999999993 984,152.2 984,152.2l16,0 l0,6.6000000000000005 l -16,0 C984,158.79999999999998 842.6666666666667,216.79999999999993 842.6666666666667,216.79999999999993l-16,0 C826.6666666666667,216.79999999999993 685.3333333333334,229.99999999999991 685.3333333333334,229.99999999999991l-16,0 C669.3333333333334,229.99999999999991 528,89.99999999999999 528,89.99999999999999l-16,0 C512,89.99999999999999 370.6666666666667,89.99999999999999 370.6666666666667,89.99999999999999l-16,0 C354.6666666666667,89.99999999999999 213.33333333333334,206.19999999999996 213.33333333333334,206.19999999999996l-16,0 C197.33333333333334,206.19999999999996 56,173.1999999999999 56,173.1999999999999l-16,0 Z"/><path class="path" stroke-opacity="1" fill="rgb(243, 137, 72)" fill-opacity="0.6" stroke="lightgray" stroke-width="0.2" d="M 40,173.1999999999999l16,0 C56,173.1999999999999 197.33333333333334,267 197.33333333333334,267l16,0 C213.33333333333334,267 354.6666666666667,89.99999999999999 354.6666666666667,89.99999999999999l16,0 C370.6666666666667,89.99999999999999 512,89.99999999999999 512,89.99999999999999l16,0 C528,89.99999999999999 669.3333333333334,229.99999999999991 669.3333333333334,229.99999999999991l16,0 C685.3333333333334,229.99999999999991 826.6666666666667,216.79999999999993 826.6666666666667,216.79999999999993l16,0 C842.6666666666667,216.79999999999993 984,158.79999999999998 984,158.79999999999998l16,0 l0,6.6000000000000005 l -16,0 C984,165.39999999999998 842.6666666666667,223.39999999999992 842.6666666666667,223.39999999999992l-16,0 C826.6666666666667,223.39999999999992 685.3333333333334,236.5999999999999 685.3333333333334,236.5999999999999l-16,0 C669.3333333333334,236.5999999999999 528,96.59999999999998 528,96.59999999999998l-16,0 C512,96.59999999999998 370.6666666666667,96.59999999999998 370.6666666666667,96.59999999999998l-16,0 C354.6666666666667,96.59999999999998 213.33333333333334,273.6 213.33333333333334,273.6l-16,0 C197.33333333333334,273.6 56,179.7999999999999 56,179.7999999999999l-16,0 Z"/><path class="path" stroke-opacity="1" fill="rgb(243, 137, 72)" fill-opacity="0.6" stroke="lightgray" stroke-width="0.2" d="M 40,179.7999999999999l16,0 C56,179.7999999999999 197.33333333333334,273.6 197.33333333333334,273.6l16,0 C213.33333333333334,273.6 354.6666666666667,236.59999999999994 354.6666666666667,236.59999999999994l16,0 C370.6666666666667,236.59999999999994 512,263 512,263l16,0 C528,263 669.3333333333334,76.8 669.3333333333334,76.8l16,0 C685.3333333333334,76.8 826.6666666666667,223.39999999999992 826.6666666666667,223.39999999999992l16,0 C842.6666666666667,223.39999999999992 984,165.39999999999998 984,165.39999999999998l16,0 l0,6.6000000000000005 l -16,0 C984,171.99999999999997 842.6666666666667,229.99999999999991 842.6666666666667,229.99999999999991l-16,0 C826.6666666666667,229.99999999999991 685.3333333333334,83.39999999999999 685.3333333333334,83.39999999999999l-16,0 C669.3333333333334,83.39999999999999 528,269.6 528,269.6l-16,0 C512,269.6 370.6666666666667,243.19999999999993 370.6666666666667,243.19999999999993l-16,0 C354.6666666666667,243.19999999999993 213.33333333333334,280.20000000000005 213.33333333333334,280.20000000000005l-16,0 C197.33333333333334,280.20000000000005 56,186.3999999999999 56,186.3999999999999l-16,0 Z"/><path class="path" stroke-opacity="1" fill="rgb(219, 92, 104)" fill-opacity="0.6" stroke="lightgray" stroke-width="0.2" d="M 40,186.3999999999999l16,0 C56,186.3999999999999 197.33333333333334,85.99999999999999 197.33333333333334,85.99999999999999l16,0 C213.33333333333334,85.99999999999999 354.6666666666667,96.59999999999998 354.6666666666667,96.59999999999998l16,0 C370.6666666666667,96.59999999999998 512,269.6 512,269.6l16,0 C528,269.6 669.3333333333334,236.5999999999999 669.3333333333334,236.5999999999999l16,0 C685.3333333333334,236.5999999999999 826.6666666666667,229.99999999999991 826.6666666666667,229.99999999999991l16,0 C842.6666666666667,229.99999999999991 984,98.00000000000001 984,98.00000000000001l16,0 l0,6.6000000000000005 l -16,0 C984,104.60000000000001 842.6666666666667,236.5999999999999 842.6666666666667,236.5999999999999l-16,0 C826.6666666666667,236.5999999999999 685.3333333333334,243.1999999999999 685.3333333333334,243.1999999999999l-16,0 C669.3333333333334,243.1999999999999 528,276.20000000000005 528,276.20000000000005l-16,0 C512,276.20000000000005 370.6666666666667,103.19999999999997 370.6666666666667,103.19999999999997l-16,0 C354.6666666666667,103.19999999999997 213.33333333333334,92.59999999999998 213.33333333333334,92.59999999999998l-16,0 C197.33333333333334,92.59999999999998 56,192.9999999999999 56,192.9999999999999l-16,0 Z"/><path class="path" stroke-opacity="1" fill="rgb(219, 92, 104)" fill-opacity="0.6" stroke="lightgray" stroke-width="0.2" d="M 40,199.59999999999988l16,0 C56,199.59999999999988 197.33333333333334,206.19999999999996 197.33333333333334,206.19999999999996l16,0 C213.33333333333334,206.19999999999996 354.6666666666667,103.19999999999997 354.6666666666667,103.19999999999997l16,0 C370.6666666666667,103.19999999999997 512,103.19999999999997 512,103.19999999999997l16,0 C528,103.19999999999997 669.3333333333334,249.7999999999999 669.3333333333334,249.7999999999999l16,0 C685.3333333333334,249.7999999999999 826.6666666666667,243.1999999999999 826.6666666666667,243.1999999999999l16,0 C842.6666666666667,243.1999999999999 984,111.2 984,111.2l16,0 l0,6.6000000000000005 l -16,0 C984,117.8 842.6666666666667,249.7999999999999 842.6666666666667,249.7999999999999l-16,0 C826.6666666666667,249.7999999999999 685.3333333333334,256.3999999999999 685.3333333333334,256.3999999999999l-16,0 C669.3333333333334,256.3999999999999 528,109.79999999999997 528,109.79999999999997l-16,0 C512,109.79999999999997 370.6666666666667,109.79999999999997 370.6666666666667,109.79999999999997l-16,0 C354.6666666666667,109.79999999999997 213.33333333333334,212.79999999999995 213.33333333333334,212.79999999999995l-16,0 C197.33333333333334,212.79999999999995 56,206.19999999999987 56,206.19999999999987l-16,0 Z"/><path class="path" stroke-opacity="1" fill="rgb(219, 92, 104)" fill-opacity="0.6" stroke="lightgray" stroke-width="0.2" d="M 40,280.2l16,0 C56,280.2 197.33333333333334,99.19999999999997 197.33333333333334,99.19999999999997l16,0 C213.33333333333334,99.19999999999997 354.6666666666667,109.79999999999997 354.6666666666667,109.79999999999997l16,0 C370.6666666666667,109.79999999999997 512,276.20000000000005 512,276.20000000000005l16,0 C528,276.20000000000005 669.3333333333334,83.39999999999999 669.3333333333334,83.39999999999999l16,0 C685.3333333333334,83.39999999999999 826.6666666666667,63.60000000000001 826.6666666666667,63.60000000000001l16,0 C842.6666666666667,63.60000000000001 984,117.8 984,117.8l16,0 l0,6.6000000000000005 l -16,0 C984,124.39999999999999 842.6666666666667,70.2 842.6666666666667,70.2l-16,0 C826.6666666666667,70.2 685.3333333333334,89.99999999999999 685.3333333333334,89.99999999999999l-16,0 C669.3333333333334,89.99999999999999 528,282.80000000000007 528,282.80000000000007l-16,0 C512,282.80000000000007 370.6666666666667,116.39999999999996 370.6666666666667,116.39999999999996l-16,0 C354.6666666666667,116.39999999999996 213.33333333333334,105.79999999999997 213.33333333333334,105.79999999999997l-16,0 C197.33333333333334,105.79999999999997 56,286.8 56,286.8l-16,0 Z"/><path class="path" stroke-opacity="1" fill="rgb(219, 92, 104)" fill-opacity="0.6" stroke="lightgray" stroke-width="0.2" d="M 40,286.8l16,0 C56,286.8 197.33333333333334,105.79999999999997 197.33333333333334,105.79999999999997l16,0 C213.33333333333334,105.79999999999997 354.6666666666667,249.79999999999993 354.6666666666667,249.79999999999993l16,0 C370.6666666666667,249.79999999999993 512,282.80000000000007 512,282.80000000000007l16,0 C528,282.80000000000007 669.3333333333334,256.3999999999999 669.3333333333334,256.3999999999999l16,0 C685.3333333333334,256.3999999999999 826.6666666666667,70.2 826.6666666666667,70.2l16,0 C842.6666666666667,70.2 984,124.39999999999999 984,124.39999999999999l16,0 l0,6.6000000000000005 l -16,0 C984,131 842.6666666666667,76.8 842.6666666666667,76.8l-16,0 C826.6666666666667,76.8 685.3333333333334,262.99999999999994 685.3333333333334,262.99999999999994l-16,0 C669.3333333333334,262.99999999999994 528,289.4000000000001 528,289.4000000000001l-16,0 C512,289.4000000000001 370.6666666666667,256.3999999999999 370.6666666666667,256.3999999999999l-16,0 C354.6666666666667,256.3999999999999 213.33333333333334,112.39999999999996 213.33333333333334,112.39999999999996l-16,0 C197.33333333333334,112.39999999999996 56,293.40000000000003 56,293.40000000000003l-16,0 Z"/><path class="path" stroke-opacity="1" fill="rgb(219, 92, 104)" fill-opacity="0.6" stroke="lightgray" stroke-width="0.2" d="M 40,192.9999999999999l16,0 C56,192.9999999999999 197.33333333333334,92.59999999999998 197.33333333333334,92.59999999999998l16,0 C213.33333333333334,92.59999999999998 354.6666666666667,243.19999999999993 354.6666666666667,243.19999999999993l16,0 C370.6666666666667,243.19999999999993 512,96.59999999999998 512,96.59999999999998l16,0 C528,96.59999999999998 669.3333333333334,243.1999999999999 669.3333333333334,243.1999999999999l16,0 C685.3333333333334,243.1999999999999 826.6666666666667,236.5999999999999 826.6666666666667,236.5999999999999l16,0 C842.6666666666667,236.5999999999999 984,104.60000000000001 984,104.60000000000001l16,0 l0,6.6000000000000005 l -16,0 C984,111.2 842.6666666666667,243.1999999999999 842.6666666666667,243.1999999999999l-16,0 C826.6666666666667,243.1999999999999 685.3333333333334,249.7999999999999 685.3333333333334,249.7999999999999l-16,0 C669.3333333333334,249.7999999999999 528,103.19999999999997 528,103.19999999999997l-16,0 C512,103.19999999999997 370.6666666666667,249.79999999999993 370.6666666666667,249.79999999999993l-16,0 C354.6666666666667,249.79999999999993 213.33333333333334,99.19999999999997 213.33333333333334,99.19999999999997l-16,0 C197.33333333333334,99.19999999999997 56,199.59999999999988 56,199.59999999999988l-16,0 Z"/><path class="path" stroke-opacity="1" fill="rgb(184, 50, 137)" fill-opacity="0.6" stroke="lightgray" stroke-width="0.2" d="M 40,206.19999999999987l16,0 C56,206.19999999999987 197.33333333333334,280.20000000000005 197.33333333333334,280.20000000000005l16,0 C213.33333333333334,280.20000000000005 354.6666666666667,116.39999999999996 354.6666666666667,116.39999999999996l16,0 C370.6666666666667,116.39999999999996 512,109.79999999999997 512,109.79999999999997l16,0 C528,109.79999999999997 669.3333333333334,262.99999999999994 669.3333333333334,262.99999999999994l16,0 C685.3333333333334,262.99999999999994 826.6666666666667,249.7999999999999 826.6666666666667,249.7999999999999l16,0 C842.6666666666667,249.7999999999999 984,76.80000000000001 984,76.80000000000001l16,0 l0,6.6000000000000005 l -16,0 C984,83.4 842.6666666666667,256.3999999999999 842.6666666666667,256.3999999999999l-16,0 C826.6666666666667,256.3999999999999 685.3333333333334,269.59999999999997 685.3333333333334,269.59999999999997l-16,0 C669.3333333333334,269.59999999999997 528,116.39999999999996 528,116.39999999999996l-16,0 C512,116.39999999999996 370.6666666666667,122.99999999999996 370.6666666666667,122.99999999999996l-16,0 C354.6666666666667,122.99999999999996 213.33333333333334,286.80000000000007 213.33333333333334,286.80000000000007l-16,0 C197.33333333333334,286.80000000000007 56,212.79999999999987 56,212.79999999999987l-16,0 Z"/><path class="path" stroke-opacity="1" fill="rgb(184, 50, 137)" fill-opacity="0.6" stroke="lightgray" stroke-width="0.2" d="M 40,212.79999999999987l16,0 C56,212.79999999999987 197.33333333333334,286.80000000000007 197.33333333333334,286.80000000000007l16,0 C213.33333333333334,286.80000000000007 354.6666666666667,256.3999999999999 354.6666666666667,256.3999999999999l16,0 C370.6666666666667,256.3999999999999 512,116.39999999999996 512,116.39999999999996l16,0 C528,116.39999999999996 669.3333333333334,269.59999999999997 669.3333333333334,269.59999999999997l16,0 C685.3333333333334,269.59999999999997 826.6666666666667,256.3999999999999 826.6666666666667,256.3999999999999l16,0 C842.6666666666667,256.3999999999999 984,83.4 984,83.4l16,0 l0,6.6000000000000005 l -16,0 C984,90 842.6666666666667,262.99999999999994 842.6666666666667,262.99999999999994l-16,0 C826.6666666666667,262.99999999999994 685.3333333333334,276.2 685.3333333333334,276.2l-16,0 C669.3333333333334,276.2 528,122.99999999999996 528,122.99999999999996l-16,0 C512,122.99999999999996 370.6666666666667,262.99999999999994 370.6666666666667,262.99999999999994l-16,0 C354.6666666666667,262.99999999999994 213.33333333333334,293.4000000000001 213.33333333333334,293.4000000000001l-16,0 C197.33333333333334,293.4000000000001 56,219.39999999999986 56,219.39999999999986l-16,0 Z"/><path class="path" stroke-opacity="1" fill="rgb(138, 14, 162)" fill-opacity="0.6" stroke="lightgray" stroke-width="0.2" d="M 40,39.800000000000004l16,0 C56,39.800000000000004 197.33333333333334,112.39999999999996 197.33333333333334,112.39999999999996l16,0 C213.33333333333334,112.39999999999996 354.6666666666667,262.99999999999994 354.6666666666667,262.99999999999994l16,0 C370.6666666666667,262.99999999999994 512,122.99999999999996 512,122.99999999999996l16,0 C528,122.99999999999996 669.3333333333334,89.99999999999999 669.3333333333334,89.99999999999999l16,0 C685.3333333333334,89.99999999999999 826.6666666666667,76.8 826.6666666666667,76.8l16,0 C842.6666666666667,76.8 984,35.800000000000004 984,35.800000000000004l16,0 l0,6.6000000000000005 l -16,0 C984,42.400000000000006 842.6666666666667,83.39999999999999 842.6666666666667,83.39999999999999l-16,0 C826.6666666666667,83.39999999999999 685.3333333333334,96.59999999999998 685.3333333333334,96.59999999999998l-16,0 C669.3333333333334,96.59999999999998 528,129.59999999999997 528,129.59999999999997l-16,0 C512,129.59999999999997 370.6666666666667,269.59999999999997 370.6666666666667,269.59999999999997l-16,0 C354.6666666666667,269.59999999999997 213.33333333333334,118.99999999999996 213.33333333333334,118.99999999999996l-16,0 C197.33333333333334,118.99999999999996 56,46.400000000000006 56,46.400000000000006l-16,0 Z"/><path class="path" stroke-opacity="1" fill="rgb(138, 14, 162)" fill-opacity="0.6" stroke="lightgray" stroke-width="0.2" d="M 40,219.39999999999986l16,0 C56,219.39999999999986 197.33333333333334,118.99999999999996 197.33333333333334,118.99999999999996l16,0 C213.33333333333334,118.99999999999996 354.6666666666667,122.99999999999996 354.6666666666667,122.99999999999996l16,0 C370.6666666666667,122.99999999999996 512,129.59999999999997 512,129.59999999999997l16,0 C528,129.59999999999997 669.3333333333334,276.2 669.3333333333334,276.2l16,0 C685.3333333333334,276.2 826.6666666666667,262.99999999999994 826.6666666666667,262.99999999999994l16,0 C842.6666666666667,262.99999999999994 984,42.400000000000006 984,42.400000000000006l16,0 l0,6.6000000000000005 l -16,0 C984,49.00000000000001 842.6666666666667,269.59999999999997 842.6666666666667,269.59999999999997l-16,0 C826.6666666666667,269.59999999999997 685.3333333333334,282.8 685.3333333333334,282.8l-16,0 C669.3333333333334,282.8 528,136.19999999999996 528,136.19999999999996l-16,0 C512,136.19999999999996 370.6666666666667,129.59999999999997 370.6666666666667,129.59999999999997l-16,0 C354.6666666666667,129.59999999999997 213.33333333333334,125.59999999999995 213.33333333333334,125.59999999999995l-16,0 C197.33333333333334,125.59999999999995 56,225.99999999999986 56,225.99999999999986l-16,0 Z"/><path class="path" stroke-opacity="1" fill="rgb(138, 14, 162)" fill-opacity="0.6" stroke="lightgray" stroke-width="0.2" d="M 40,225.99999999999986l16,0 C56,225.99999999999986 197.33333333333334,125.59999999999995 197.33333333333334,125.59999999999995l16,0 C213.33333333333334,125.59999999999995 354.6666666666667,269.59999999999997 354.6666666666667,269.59999999999997l16,0 C370.6666666666667,269.59999999999997 512,136.19999999999996 512,136.19999999999996l16,0 C528,136.19999999999996 669.3333333333334,96.59999999999998 669.3333333333334,96.59999999999998l16,0 C685.3333333333334,96.59999999999998 826.6666666666667,269.59999999999997 826.6666666666667,269.59999999999997l16,0 C842.6666666666667,269.59999999999997 984,49.00000000000001 984,49.00000000000001l16,0 l0,6.6000000000000005 l -16,0 C984,55.60000000000001 842.6666666666667,276.2 842.6666666666667,276.2l-16,0 C826.6666666666667,276.2 685.3333333333334,103.19999999999997 685.3333333333334,103.19999999999997l-16,0 C669.3333333333334,103.19999999999997 528,142.79999999999995 528,142.79999999999995l-16,0 C512,142.79999999999995 370.6666666666667,276.2 370.6666666666667,276.2l-16,0 C354.6666666666667,276.2 213.33333333333334,132.19999999999996 213.33333333333334,132.19999999999996l-16,0 C197.33333333333334,132.19999999999996 56,232.59999999999985 56,232.59999999999985l-16,0 Z"/><path class="path" stroke-opacity="1" fill="rgb(138, 14, 162)" fill-opacity="0.6" stroke="lightgray" stroke-width="0.2" d="M 40,232.59999999999985l16,0 C56,232.59999999999985 197.33333333333334,293.4000000000001 197.33333333333334,293.4000000000001l16,0 C213.33333333333334,293.4000000000001 354.6666666666667,276.2 354.6666666666667,276.2l16,0 C370.6666666666667,276.2 512,289.4000000000001 512,289.4000000000001l16,0 C528,289.4000000000001 669.3333333333334,103.19999999999997 669.3333333333334,103.19999999999997l16,0 C685.3333333333334,103.19999999999997 826.6666666666667,276.2 826.6666666666667,276.2l16,0 C842.6666666666667,276.2 984,55.60000000000001 984,55.60000000000001l16,0 l0,6.6000000000000005 l -16,0 C984,62.20000000000001 842.6666666666667,282.8 842.6666666666667,282.8l-16,0 C826.6666666666667,282.8 685.3333333333334,109.79999999999997 685.3333333333334,109.79999999999997l-16,0 C669.3333333333334,109.79999999999997 528,296.0000000000001 528,296.0000000000001l-16,0 C512,296.0000000000001 370.6666666666667,282.8 370.6666666666667,282.8l-16,0 C354.6666666666667,282.8 213.33333333333334,300.0000000000001 213.33333333333334,300.0000000000001l-16,0 C197.33333333333334,300.0000000000001 56,239.19999999999985 56,239.19999999999985l-16,0 Z"/><path class="path" stroke-opacity="1" fill="rgb(138, 14, 162)" fill-opacity="0.6" stroke="lightgray" stroke-width="0.2" d="M 40,293.40000000000003l16,0 C56,293.40000000000003 197.33333333333334,132.19999999999996 197.33333333333334,132.19999999999996l16,0 C213.33333333333334,132.19999999999996 354.6666666666667,282.8 354.6666666666667,282.8l16,0 C370.6666666666667,282.8 512,142.79999999999995 512,142.79999999999995l16,0 C528,142.79999999999995 669.3333333333334,282.8 669.3333333333334,282.8l16,0 C685.3333333333334,282.8 826.6666666666667,83.39999999999999 826.6666666666667,83.39999999999999l16,0 C842.6666666666667,83.39999999999999 984,62.20000000000001 984,62.20000000000001l16,0 l0,6.6000000000000005 l -16,0 C984,68.80000000000001 842.6666666666667,89.99999999999999 842.6666666666667,89.99999999999999l-16,0 C826.6666666666667,89.99999999999999 685.3333333333334,289.40000000000003 685.3333333333334,289.40000000000003l-16,0 C669.3333333333334,289.40000000000003 528,149.39999999999995 528,149.39999999999995l-16,0 C512,149.39999999999995 370.6666666666667,289.40000000000003 370.6666666666667,289.40000000000003l-16,0 C354.6666666666667,289.40000000000003 213.33333333333334,138.79999999999995 213.33333333333334,138.79999999999995l-16,0 C197.33333333333334,138.79999999999995 56,300.00000000000006 56,300.00000000000006l-16,0 Z"/><path class="path" stroke-opacity="1" fill="rgb(83, 2, 162)" fill-opacity="0.6" stroke="lightgray" stroke-width="0.2" d="M 40,239.19999999999985l16,0 C56,239.19999999999985 197.33333333333334,138.79999999999995 197.33333333333334,138.79999999999995l16,0 C213.33333333333334,138.79999999999995 354.6666666666667,129.59999999999997 354.6666666666667,129.59999999999997l16,0 C370.6666666666667,129.59999999999997 512,149.39999999999995 512,149.39999999999995l16,0 C528,149.39999999999995 669.3333333333334,289.40000000000003 669.3333333333334,289.40000000000003l16,0 C685.3333333333334,289.40000000000003 826.6666666666667,282.8 826.6666666666667,282.8l16,0 C842.6666666666667,282.8 984,21.200000000000003 984,21.200000000000003l16,0 l0,6.6000000000000005 l -16,0 C984,27.800000000000004 842.6666666666667,289.40000000000003 842.6666666666667,289.40000000000003l-16,0 C826.6666666666667,289.40000000000003 685.3333333333334,296.00000000000006 685.3333333333334,296.00000000000006l-16,0 C669.3333333333334,296.00000000000006 528,155.99999999999994 528,155.99999999999994l-16,0 C512,155.99999999999994 370.6666666666667,136.19999999999996 370.6666666666667,136.19999999999996l-16,0 C354.6666666666667,136.19999999999996 213.33333333333334,145.39999999999995 213.33333333333334,145.39999999999995l-16,0 C197.33333333333334,145.39999999999995 56,245.79999999999984 56,245.79999999999984l-16,0 Z"/><path class="path" stroke-opacity="1" fill="rgb(13, 8, 135)" fill-opacity="0.6" stroke="lightgray" stroke-width="0.2" d="M 40,46.400000000000006l16,0 C56,46.400000000000006 197.33333333333334,145.39999999999995 197.33333333333334,145.39999999999995l16,0 C213.33333333333334,145.39999999999995 354.6666666666667,136.19999999999996 354.6666666666667,136.19999999999996l16,0 C370.6666666666667,136.19999999999996 512,155.99999999999994 512,155.99999999999994l16,0 C528,155.99999999999994 669.3333333333334,109.79999999999997 669.3333333333334,109.79999999999997l16,0 C685.3333333333334,109.79999999999997 826.6666666666667,89.99999999999999 826.6666666666667,89.99999999999999l16,0 C842.6666666666667,89.99999999999999 984,0 984,0l16,0 l0,6.6000000000000005 l -16,0 C984,6.6000000000000005 842.6666666666667,96.59999999999998 842.6666666666667,96.59999999999998l-16,0 C826.6666666666667,96.59999999999998 685.3333333333334,116.39999999999996 685.3333333333334,116.39999999999996l-16,0 C669.3333333333334,116.39999999999996 528,162.59999999999994 528,162.59999999999994l-16,0 C512,162.59999999999994 370.6666666666667,142.79999999999995 370.6666666666667,142.79999999999995l-16,0 C354.6666666666667,142.79999999999995 213.33333333333334,151.99999999999994 213.33333333333334,151.99999999999994l-16,0 C197.33333333333334,151.99999999999994 56,53.00000000000001 56,53.00000000000001l-16,0 Z"/><path class="path" stroke-opacity="1" fill="rgb(13, 8, 135)" fill-opacity="0.6" stroke="lightgray" stroke-width="0.2" d="M 40,245.79999999999984l16,0 C56,245.79999999999984 197.33333333333334,212.79999999999995 197.33333333333334,212.79999999999995l16,0 C213.33333333333334,212.79999999999995 354.6666666666667,289.40000000000003 354.6666666666667,289.40000000000003l16,0 C370.6666666666667,289.40000000000003 512,162.59999999999994 512,162.59999999999994l16,0 C528,162.59999999999994 669.3333333333334,116.39999999999996 669.3333333333334,116.39999999999996l16,0 C685.3333333333334,116.39999999999996 826.6666666666667,289.40000000000003 826.6666666666667,289.40000000000003l16,0 C842.6666666666667,289.40000000000003 984,6.6000000000000005 984,6.6000000000000005l16,0 l0,6.6000000000000005 l -16,0 C984,13.200000000000001 842.6666666666667,296.00000000000006 842.6666666666667,296.00000000000006l-16,0 C826.6666666666667,296.00000000000006 685.3333333333334,122.99999999999996 685.3333333333334,122.99999999999996l-16,0 C669.3333333333334,122.99999999999996 528,169.19999999999993 528,169.19999999999993l-16,0 C512,169.19999999999993 370.6666666666667,296.00000000000006 370.6666666666667,296.00000000000006l-16,0 C354.6666666666667,296.00000000000006 213.33333333333334,219.39999999999995 213.33333333333334,219.39999999999995l-16,0 C197.33333333333334,219.39999999999995 56,252.39999999999984 56,252.39999999999984l-16,0 Z"/></g><g class="dimensions"><g class="dimension" transform="translate(40, 0)"><g class="category" transform="translate(0, 20)"><rect class="catrect" pointer-events="none" fill="none" width="16" height="33" stroke="black" stroke-width="1" stroke-opacity="1"/><rect class="bandrect" stroke-opacity="1" fill="rgb(252, 190, 44)" fill-opacity="1" width="16" height="19.8" y="0" cursor="ns-resize" stroke="black" stroke-width="0.2"/><rect class="bandrect" stroke-opacity="1" fill="rgb(138, 14, 162)" fill-opacity="1" width="16" height="6.6000000000000005" y="19.8" cursor="ns-resize" stroke="black" stroke-width="0.2"/><rect class="bandrect" stroke-opacity="1" fill="rgb(13, 8, 135)" fill-opacity="1" width="16" height="6.6000000000000005" y="26.400000000000002" cursor="ns-resize" stroke="black" stroke-width="0.2"/><text class="catlabel" pointer-events="none" text-anchor="end" alignment-baseline="middle" x="-5" y="16.5" style="text-shadow: rgb(255, 255, 255) -1px 1px 2px, rgb(255, 255, 255) 1px 1px 2px, rgb(255, 255, 255) 1px -1px 2px, rgb(255, 255, 255) -1px -1px 2px; fill: rgb(68, 68, 68); font-family: 'Open Sans', verdana, arial, sans-serif; font-size: 15px; fill-opacity: 1; white-space: pre;">(test_r2 > 0.2)</text><text class="dimlabel" text-anchor="middle" alignment-baseline="baseline" cursor="ew-resize" x="8" y="-5" style="font-family: 'Open Sans', verdana, arial, sans-serif; font-size: 18px; fill: rgb(68, 68, 68); fill-opacity: 1;">CV threshold</text></g><g class="category" transform="translate(0, 61)"><rect class="catrect" pointer-events="none" fill="none" width="16" height="191.4" stroke="black" stroke-width="1" stroke-opacity="1"/><rect class="bandrect" stroke-opacity="1" fill="rgb(240, 249, 33)" fill-opacity="1" width="16" height="59.400000000000006" y="0" cursor="ns-resize" stroke="black" stroke-width="0.2"/><rect class="bandrect" stroke-opacity="1" fill="rgb(252, 190, 44)" fill-opacity="1" width="16" height="33" y="59.400000000000006" cursor="ns-resize" stroke="black" stroke-width="0.2"/><rect class="bandrect" stroke-opacity="1" fill="rgb(243, 137, 72)" fill-opacity="1" width="16" height="33" y="92.4" cursor="ns-resize" stroke="black" stroke-width="0.2"/><rect class="bandrect" stroke-opacity="1" fill="rgb(219, 92, 104)" fill-opacity="1" width="16" height="19.8" y="125.4" cursor="ns-resize" stroke="black" stroke-width="0.2"/><rect class="bandrect" stroke-opacity="1" fill="rgb(184, 50, 137)" fill-opacity="1" width="16" height="13.200000000000001" y="145.20000000000002" cursor="ns-resize" stroke="black" stroke-width="0.2"/><rect class="bandrect" stroke-opacity="1" fill="rgb(138, 14, 162)" fill-opacity="1" width="16" height="19.8" y="158.4" cursor="ns-resize" stroke="black" stroke-width="0.2"/><rect class="bandrect" stroke-opacity="1" fill="rgb(83, 2, 162)" fill-opacity="1" width="16" height="6.6000000000000005" y="178.20000000000002" cursor="ns-resize" stroke="black" stroke-width="0.2"/><rect class="bandrect" stroke-opacity="1" fill="rgb(13, 8, 135)" fill-opacity="1" width="16" height="6.6000000000000005" y="184.8" cursor="ns-resize" stroke="black" stroke-width="0.2"/><text class="catlabel" pointer-events="none" text-anchor="end" alignment-baseline="middle" x="-5" y="95.7" style="text-shadow: rgb(255, 255, 255) -1px 1px 2px, rgb(255, 255, 255) 1px 1px 2px, rgb(255, 255, 255) 1px -1px 2px, rgb(255, 255, 255) -1px -1px 2px; fill: rgb(68, 68, 68); font-family: 'Open Sans', verdana, arial, sans-serif; font-size: 15px; fill-opacity: 1; white-space: pre;">(test_r2 > 0.9)</text><text class="dimlabel" text-anchor="middle" alignment-baseline="baseline" cursor="ew-resize" x="8" y="-5" style="font-family: 'Open Sans', verdana, arial, sans-serif; font-size: 18px; fill: rgb(68, 68, 68); fill-opacity: 1;"/></g><g class="category" transform="translate(0, 260.4)"><rect class="catrect" pointer-events="none" fill="none" width="16" height="39.6" stroke="black" stroke-width="1" stroke-opacity="1"/><rect class="bandrect" stroke-opacity="1" fill="rgb(240, 249, 33)" fill-opacity="1" width="16" height="19.8" y="0" cursor="ns-resize" stroke="black" stroke-width="0.2"/><rect class="bandrect" stroke-opacity="1" fill="rgb(219, 92, 104)" fill-opacity="1" width="16" height="13.200000000000001" y="19.8" cursor="ns-resize" stroke="black" stroke-width="0.2"/><rect class="bandrect" stroke-opacity="1" fill="rgb(138, 14, 162)" fill-opacity="1" width="16" height="6.6000000000000005" y="33" cursor="ns-resize" stroke="black" stroke-width="0.2"/><text class="catlabel" pointer-events="none" text-anchor="end" alignment-baseline="middle" x="-5" y="19.8" style="text-shadow: rgb(255, 255, 255) -1px 1px 2px, rgb(255, 255, 255) 1px 1px 2px, rgb(255, 255, 255) 1px -1px 2px, rgb(255, 255, 255) -1px -1px 2px; fill: rgb(68, 68, 68); font-family: 'Open Sans', verdana, arial, sans-serif; font-size: 15px; fill-opacity: 1; white-space: pre;">(test_r2 > 0.65)</text><text class="dimlabel" text-anchor="middle" alignment-baseline="baseline" cursor="ew-resize" x="8" y="-5" style="font-family: 'Open Sans', verdana, arial, sans-serif; font-size: 18px; fill: rgb(68, 68, 68); fill-opacity: 1;"/></g></g><g class="dimension" transform="translate(197.33333333333334, 0)"><g class="category" transform="translate(0, 20)"><rect class="catrect" pointer-events="none" fill="none" width="16" height="132" stroke="black" stroke-width="1" stroke-opacity="1"/><rect class="bandrect" stroke-opacity="1" fill="rgb(240, 249, 33)" fill-opacity="1" width="16" height="33" y="0" cursor="ns-resize" stroke="black" stroke-width="0.2"/><rect class="bandrect" stroke-opacity="1" fill="rgb(252, 190, 44)" fill-opacity="1" width="16" height="19.8" y="33" cursor="ns-resize" stroke="black" stroke-width="0.2"/><rect class="bandrect" stroke-opacity="1" fill="rgb(243, 137, 72)" fill-opacity="1" width="16" height="13.200000000000001" y="52.8" cursor="ns-resize" stroke="black" stroke-width="0.2"/><rect class="bandrect" stroke-opacity="1" fill="rgb(219, 92, 104)" fill-opacity="1" width="16" height="26.400000000000002" y="66" cursor="ns-resize" stroke="black" stroke-width="0.2"/><rect class="bandrect" stroke-opacity="1" fill="rgb(138, 14, 162)" fill-opacity="1" width="16" height="26.400000000000002" y="92.4" cursor="ns-resize" stroke="black" stroke-width="0.2"/><rect class="bandrect" stroke-opacity="1" fill="rgb(83, 2, 162)" fill-opacity="1" width="16" height="6.6000000000000005" y="118.80000000000001" cursor="ns-resize" stroke="black" stroke-width="0.2"/><rect class="bandrect" stroke-opacity="1" fill="rgb(13, 8, 135)" fill-opacity="1" width="16" height="6.6000000000000005" y="125.4" cursor="ns-resize" stroke="black" stroke-width="0.2"/><text class="catlabel" pointer-events="none" text-anchor="end" alignment-baseline="middle" x="-5" y="66" style="text-shadow: rgb(255, 255, 255) -1px 1px 2px, rgb(255, 255, 255) 1px 1px 2px, rgb(255, 255, 255) 1px -1px 2px, rgb(255, 255, 255) -1px -1px 2px; fill: rgb(68, 68, 68); font-family: 'Open Sans', verdana, arial, sans-serif; font-size: 15px; fill-opacity: 1; white-space: pre;">(ndf_surr_score > 0.9)</text><text class="dimlabel" text-anchor="middle" alignment-baseline="baseline" cursor="ew-resize" x="8" y="-5" style="font-family: 'Open Sans', verdana, arial, sans-serif; font-size: 18px; fill: rgb(68, 68, 68); fill-opacity: 1;">Test-set threshold</text></g><g class="category" transform="translate(0, 160)"><rect class="catrect" pointer-events="none" fill="none" width="16" height="59.4" stroke="black" stroke-width="1" stroke-opacity="1"/><rect class="bandrect" stroke-opacity="1" fill="rgb(240, 249, 33)" fill-opacity="1" width="16" height="26.400000000000002" y="0" cursor="ns-resize" stroke="black" stroke-width="0.2"/><rect class="bandrect" stroke-opacity="1" fill="rgb(252, 190, 44)" fill-opacity="1" width="16" height="13.200000000000001" y="26.400000000000002" cursor="ns-resize" stroke="black" stroke-width="0.2"/><rect class="bandrect" stroke-opacity="1" fill="rgb(243, 137, 72)" fill-opacity="1" width="16" height="6.6000000000000005" y="39.6" cursor="ns-resize" stroke="black" stroke-width="0.2"/><rect class="bandrect" stroke-opacity="1" fill="rgb(219, 92, 104)" fill-opacity="1" width="16" height="6.6000000000000005" y="46.2" cursor="ns-resize" stroke="black" stroke-width="0.2"/><rect class="bandrect" stroke-opacity="1" fill="rgb(13, 8, 135)" fill-opacity="1" width="16" height="6.6000000000000005" y="52.800000000000004" cursor="ns-resize" stroke="black" stroke-width="0.2"/><text class="catlabel" pointer-events="none" text-anchor="end" alignment-baseline="middle" x="-5" y="29.7" style="text-shadow: rgb(255, 255, 255) -1px 1px 2px, rgb(255, 255, 255) 1px 1px 2px, rgb(255, 255, 255) 1px -1px 2px, rgb(255, 255, 255) -1px -1px 2px; fill: rgb(68, 68, 68); font-family: 'Open Sans', verdana, arial, sans-serif; font-size: 15px; fill-opacity: 1; white-space: pre;">(ndf_surr_score > 0)</text><text class="dimlabel" text-anchor="middle" alignment-baseline="baseline" cursor="ew-resize" x="8" y="-5" style="font-family: 'Open Sans', verdana, arial, sans-serif; font-size: 18px; fill: rgb(68, 68, 68); fill-opacity: 1;"/></g><g class="category" transform="translate(0, 227.4)"><rect class="catrect" pointer-events="none" fill="none" width="16" height="72.60000000000001" stroke="black" stroke-width="1" stroke-opacity="1"/><rect class="bandrect" stroke-opacity="1" fill="rgb(240, 249, 33)" fill-opacity="1" width="16" height="19.8" y="0" cursor="ns-resize" stroke="black" stroke-width="0.2"/><rect class="bandrect" stroke-opacity="1" fill="rgb(252, 190, 44)" fill-opacity="1" width="16" height="19.8" y="19.8" cursor="ns-resize" stroke="black" stroke-width="0.2"/><rect class="bandrect" stroke-opacity="1" fill="rgb(243, 137, 72)" fill-opacity="1" width="16" height="13.200000000000001" y="39.6" cursor="ns-resize" stroke="black" stroke-width="0.2"/><rect class="bandrect" stroke-opacity="1" fill="rgb(184, 50, 137)" fill-opacity="1" width="16" height="13.200000000000001" y="52.800000000000004" cursor="ns-resize" stroke="black" stroke-width="0.2"/><rect class="bandrect" stroke-opacity="1" fill="rgb(138, 14, 162)" fill-opacity="1" width="16" height="6.6000000000000005" y="66" cursor="ns-resize" stroke="black" stroke-width="0.2"/><text class="catlabel" pointer-events="none" text-anchor="end" alignment-baseline="middle" x="-5" y="36.300000000000004" style="text-shadow: rgb(255, 255, 255) -1px 1px 2px, rgb(255, 255, 255) 1px 1px 2px, rgb(255, 255, 255) 1px -1px 2px, rgb(255, 255, 255) -1px -1px 2px; fill: rgb(68, 68, 68); font-family: 'Open Sans', verdana, arial, sans-serif; font-size: 15px; fill-opacity: 1; white-space: pre;">(ndf_surr_score > 0.6)</text><text class="dimlabel" text-anchor="middle" alignment-baseline="baseline" cursor="ew-resize" x="8" y="-5" style="font-family: 'Open Sans', verdana, arial, sans-serif; font-size: 18px; fill: rgb(68, 68, 68); fill-opacity: 1;"/></g></g><g class="dimension" transform="translate(354.6666666666667, 0)"><g class="category" transform="translate(0, 24)"><rect class="catrect" pointer-events="none" fill="none" width="16" height="118.8" stroke="black" stroke-width="1" stroke-opacity="1"/><rect class="bandrect" stroke-opacity="1" fill="rgb(240, 249, 33)" fill-opacity="1" width="16" height="39.6" y="0" cursor="ns-resize" stroke="black" stroke-width="0.2"/><rect class="bandrect" stroke-opacity="1" fill="rgb(252, 190, 44)" fill-opacity="1" width="16" height="13.200000000000001" y="39.6" cursor="ns-resize" stroke="black" stroke-width="0.2"/><rect class="bandrect" stroke-opacity="1" fill="rgb(243, 137, 72)" fill-opacity="1" width="16" height="19.8" y="52.800000000000004" cursor="ns-resize" stroke="black" stroke-width="0.2"/><rect class="bandrect" stroke-opacity="1" fill="rgb(219, 92, 104)" fill-opacity="1" width="16" height="19.8" y="72.60000000000001" cursor="ns-resize" stroke="black" stroke-width="0.2"/><rect class="bandrect" stroke-opacity="1" fill="rgb(184, 50, 137)" fill-opacity="1" width="16" height="6.6000000000000005" y="92.4" cursor="ns-resize" stroke="black" stroke-width="0.2"/><rect class="bandrect" stroke-opacity="1" fill="rgb(138, 14, 162)" fill-opacity="1" width="16" height="6.6000000000000005" y="99" cursor="ns-resize" stroke="black" stroke-width="0.2"/><rect class="bandrect" stroke-opacity="1" fill="rgb(83, 2, 162)" fill-opacity="1" width="16" height="6.6000000000000005" y="105.6" cursor="ns-resize" stroke="black" stroke-width="0.2"/><rect class="bandrect" stroke-opacity="1" fill="rgb(13, 8, 135)" fill-opacity="1" width="16" height="6.6000000000000005" y="112.19999999999999" cursor="ns-resize" stroke="black" stroke-width="0.2"/><text class="catlabel" pointer-events="none" text-anchor="end" alignment-baseline="middle" x="-5" y="59.4" style="text-shadow: rgb(255, 255, 255) -1px 1px 2px, rgb(255, 255, 255) 1px 1px 2px, rgb(255, 255, 255) 1px -1px 2px, rgb(255, 255, 255) -1px -1px 2px; fill: rgb(68, 68, 68); font-family: 'Open Sans', verdana, arial, sans-serif; font-size: 15px; fill-opacity: 1; white-space: pre;">stack</text><text class="dimlabel" text-anchor="middle" alignment-baseline="baseline" cursor="ew-resize" x="8" y="-5" style="font-family: 'Open Sans', verdana, arial, sans-serif; font-size: 18px; fill: rgb(68, 68, 68); fill-opacity: 1;">Solution combination</text></g><g class="category" transform="translate(0, 150.8)"><rect class="catrect" pointer-events="none" fill="none" width="16" height="145.20000000000002" stroke="black" stroke-width="1" stroke-opacity="1"/><rect class="bandrect" stroke-opacity="1" fill="rgb(240, 249, 33)" fill-opacity="1" width="16" height="39.6" y="0" cursor="ns-resize" stroke="black" stroke-width="0.2"/><rect class="bandrect" stroke-opacity="1" fill="rgb(252, 190, 44)" fill-opacity="1" width="16" height="39.6" y="39.6" cursor="ns-resize" stroke="black" stroke-width="0.2"/><rect class="bandrect" stroke-opacity="1" fill="rgb(243, 137, 72)" fill-opacity="1" width="16" height="13.200000000000001" y="79.2" cursor="ns-resize" stroke="black" stroke-width="0.2"/><rect class="bandrect" stroke-opacity="1" fill="rgb(219, 92, 104)" fill-opacity="1" width="16" height="13.200000000000001" y="92.4" cursor="ns-resize" stroke="black" stroke-width="0.2"/><rect class="bandrect" stroke-opacity="1" fill="rgb(184, 50, 137)" fill-opacity="1" width="16" height="6.6000000000000005" y="105.60000000000001" cursor="ns-resize" stroke="black" stroke-width="0.2"/><rect class="bandrect" stroke-opacity="1" fill="rgb(138, 14, 162)" fill-opacity="1" width="16" height="26.400000000000002" y="112.2" cursor="ns-resize" stroke="black" stroke-width="0.2"/><rect class="bandrect" stroke-opacity="1" fill="rgb(13, 8, 135)" fill-opacity="1" width="16" height="6.6000000000000005" y="138.6" cursor="ns-resize" stroke="black" stroke-width="0.2"/><text class="catlabel" pointer-events="none" text-anchor="end" alignment-baseline="middle" x="-5" y="72.60000000000001" style="text-shadow: rgb(255, 255, 255) -1px 1px 2px, rgb(255, 255, 255) 1px 1px 2px, rgb(255, 255, 255) 1px -1px 2px, rgb(255, 255, 255) -1px -1px 2px; fill: rgb(68, 68, 68); font-family: 'Open Sans', verdana, arial, sans-serif; font-size: 15px; fill-opacity: 1; white-space: pre;">ndf_score</text><text class="dimlabel" text-anchor="middle" alignment-baseline="baseline" cursor="ew-resize" x="8" y="-5" style="font-family: 'Open Sans', verdana, arial, sans-serif; font-size: 18px; fill: rgb(68, 68, 68); fill-opacity: 1;"/></g></g><g class="dimension" transform="translate(512, 0)"><g class="category" transform="translate(0, 24)"><rect class="catrect" pointer-events="none" fill="none" width="16" height="145.20000000000002" stroke="black" stroke-width="1" stroke-opacity="1"/><rect class="bandrect" stroke-opacity="1" fill="rgb(240, 249, 33)" fill-opacity="1" width="16" height="33" y="0" cursor="ns-resize" stroke="black" stroke-width="0.2"/><rect class="bandrect" stroke-opacity="1" fill="rgb(252, 190, 44)" fill-opacity="1" width="16" height="19.8" y="33" cursor="ns-resize" stroke="black" stroke-width="0.2"/><rect class="bandrect" stroke-opacity="1" fill="rgb(243, 137, 72)" fill-opacity="1" width="16" height="19.8" y="52.8" cursor="ns-resize" stroke="black" stroke-width="0.2"/><rect class="bandrect" stroke-opacity="1" fill="rgb(219, 92, 104)" fill-opacity="1" width="16" height="13.200000000000001" y="72.6" cursor="ns-resize" stroke="black" stroke-width="0.2"/><rect class="bandrect" stroke-opacity="1" fill="rgb(184, 50, 137)" fill-opacity="1" width="16" height="13.200000000000001" y="85.8" cursor="ns-resize" stroke="black" stroke-width="0.2"/><rect class="bandrect" stroke-opacity="1" fill="rgb(138, 14, 162)" fill-opacity="1" width="16" height="26.400000000000002" y="99" cursor="ns-resize" stroke="black" stroke-width="0.2"/><rect class="bandrect" stroke-opacity="1" fill="rgb(83, 2, 162)" fill-opacity="1" width="16" height="6.6000000000000005" y="125.4" cursor="ns-resize" stroke="black" stroke-width="0.2"/><rect class="bandrect" stroke-opacity="1" fill="rgb(13, 8, 135)" fill-opacity="1" width="16" height="13.200000000000001" y="132" cursor="ns-resize" stroke="black" stroke-width="0.2"/><text class="catlabel" pointer-events="none" text-anchor="end" alignment-baseline="middle" x="-5" y="72.60000000000001" style="text-shadow: rgb(255, 255, 255) -1px 1px 2px, rgb(255, 255, 255) 1px 1px 2px, rgb(255, 255, 255) 1px -1px 2px, rgb(255, 255, 255) -1px -1px 2px; fill: rgb(68, 68, 68); font-family: 'Open Sans', verdana, arial, sans-serif; font-size: 15px; fill-opacity: 1; white-space: pre;">0.25</text><text class="dimlabel" text-anchor="middle" alignment-baseline="baseline" cursor="ew-resize" x="8" y="-5" style="font-family: 'Open Sans', verdana, arial, sans-serif; font-size: 18px; fill: rgb(68, 68, 68); fill-opacity: 1;">train/test split</text></g><g class="category" transform="translate(0, 177.20000000000002)"><rect class="catrect" pointer-events="none" fill="none" width="16" height="118.8" stroke="black" stroke-width="1" stroke-opacity="1"/><rect class="bandrect" stroke-opacity="1" fill="rgb(240, 249, 33)" fill-opacity="1" width="16" height="46.2" y="0" cursor="ns-resize" stroke="black" stroke-width="0.2"/><rect class="bandrect" stroke-opacity="1" fill="rgb(252, 190, 44)" fill-opacity="1" width="16" height="33" y="46.2" cursor="ns-resize" stroke="black" stroke-width="0.2"/><rect class="bandrect" stroke-opacity="1" fill="rgb(243, 137, 72)" fill-opacity="1" width="16" height="13.200000000000001" y="79.2" cursor="ns-resize" stroke="black" stroke-width="0.2"/><rect class="bandrect" stroke-opacity="1" fill="rgb(219, 92, 104)" fill-opacity="1" width="16" height="19.8" y="92.4" cursor="ns-resize" stroke="black" stroke-width="0.2"/><rect class="bandrect" stroke-opacity="1" fill="rgb(138, 14, 162)" fill-opacity="1" width="16" height="6.6000000000000005" y="112.2" cursor="ns-resize" stroke="black" stroke-width="0.2"/><text class="catlabel" pointer-events="none" text-anchor="end" alignment-baseline="middle" x="-5" y="59.4" style="text-shadow: rgb(255, 255, 255) -1px 1px 2px, rgb(255, 255, 255) 1px 1px 2px, rgb(255, 255, 255) 1px -1px 2px, rgb(255, 255, 255) -1px -1px 2px; fill: rgb(68, 68, 68); font-family: 'Open Sans', verdana, arial, sans-serif; font-size: 15px; fill-opacity: 1; white-space: pre;">0.1</text><text class="dimlabel" text-anchor="middle" alignment-baseline="baseline" cursor="ew-resize" x="8" y="-5" style="font-family: 'Open Sans', verdana, arial, sans-serif; font-size: 18px; fill: rgb(68, 68, 68); fill-opacity: 1;"/></g></g><g class="dimension" transform="translate(669.3333333333334, 0)"><g class="category" transform="translate(0, 24)"><rect class="catrect" pointer-events="none" fill="none" width="16" height="99" stroke="black" stroke-width="1" stroke-opacity="1"/><rect class="bandrect" stroke-opacity="1" fill="rgb(240, 249, 33)" fill-opacity="1" width="16" height="26.400000000000002" y="0" cursor="ns-resize" stroke="black" stroke-width="0.2"/><rect class="bandrect" stroke-opacity="1" fill="rgb(252, 190, 44)" fill-opacity="1" width="16" height="26.400000000000002" y="26.400000000000002" cursor="ns-resize" stroke="black" stroke-width="0.2"/><rect class="bandrect" stroke-opacity="1" fill="rgb(243, 137, 72)" fill-opacity="1" width="16" height="6.6000000000000005" y="52.800000000000004" cursor="ns-resize" stroke="black" stroke-width="0.2"/><rect class="bandrect" stroke-opacity="1" fill="rgb(219, 92, 104)" fill-opacity="1" width="16" height="6.6000000000000005" y="59.400000000000006" cursor="ns-resize" stroke="black" stroke-width="0.2"/><rect class="bandrect" stroke-opacity="1" fill="rgb(138, 14, 162)" fill-opacity="1" width="16" height="19.8" y="66" cursor="ns-resize" stroke="black" stroke-width="0.2"/><rect class="bandrect" stroke-opacity="1" fill="rgb(13, 8, 135)" fill-opacity="1" width="16" height="13.200000000000001" y="85.8" cursor="ns-resize" stroke="black" stroke-width="0.2"/><text class="catlabel" pointer-events="none" text-anchor="end" alignment-baseline="middle" x="-5" y="49.5" style="text-shadow: rgb(255, 255, 255) -1px 1px 2px, rgb(255, 255, 255) 1px 1px 2px, rgb(255, 255, 255) 1px -1px 2px, rgb(255, 255, 255) -1px -1px 2px; fill: rgb(68, 68, 68); font-family: 'Open Sans', verdana, arial, sans-serif; font-size: 15px; fill-opacity: 1; white-space: pre;">nsga2</text><text class="dimlabel" text-anchor="middle" alignment-baseline="baseline" cursor="ew-resize" x="8" y="-5" style="font-family: 'Open Sans', verdana, arial, sans-serif; font-size: 18px; fill: rgb(68, 68, 68); fill-opacity: 1;">Solver</text></g><g class="category" transform="translate(0, 131)"><rect class="catrect" pointer-events="none" fill="none" width="16" height="165" stroke="black" stroke-width="1" stroke-opacity="1"/><rect class="bandrect" stroke-opacity="1" fill="rgb(240, 249, 33)" fill-opacity="1" width="16" height="52.800000000000004" y="0" cursor="ns-resize" stroke="black" stroke-width="0.2"/><rect class="bandrect" stroke-opacity="1" fill="rgb(252, 190, 44)" fill-opacity="1" width="16" height="26.400000000000002" y="52.800000000000004" cursor="ns-resize" stroke="black" stroke-width="0.2"/><rect class="bandrect" stroke-opacity="1" fill="rgb(243, 137, 72)" fill-opacity="1" width="16" height="26.400000000000002" y="79.2" cursor="ns-resize" stroke="black" stroke-width="0.2"/><rect class="bandrect" stroke-opacity="1" fill="rgb(219, 92, 104)" fill-opacity="1" width="16" height="26.400000000000002" y="105.60000000000001" cursor="ns-resize" stroke="black" stroke-width="0.2"/><rect class="bandrect" stroke-opacity="1" fill="rgb(184, 50, 137)" fill-opacity="1" width="16" height="13.200000000000001" y="132" cursor="ns-resize" stroke="black" stroke-width="0.2"/><rect class="bandrect" stroke-opacity="1" fill="rgb(138, 14, 162)" fill-opacity="1" width="16" height="13.200000000000001" y="145.2" cursor="ns-resize" stroke="black" stroke-width="0.2"/><rect class="bandrect" stroke-opacity="1" fill="rgb(83, 2, 162)" fill-opacity="1" width="16" height="6.6000000000000005" y="158.39999999999998" cursor="ns-resize" stroke="black" stroke-width="0.2"/><text class="catlabel" pointer-events="none" text-anchor="end" alignment-baseline="middle" x="-5" y="82.5" style="text-shadow: rgb(255, 255, 255) -1px 1px 2px, rgb(255, 255, 255) 1px 1px 2px, rgb(255, 255, 255) 1px -1px 2px, rgb(255, 255, 255) -1px -1px 2px; fill: rgb(68, 68, 68); font-family: 'Open Sans', verdana, arial, sans-serif; font-size: 15px; fill-opacity: 1; white-space: pre;">moea_control</text><text class="dimlabel" text-anchor="middle" alignment-baseline="baseline" cursor="ew-resize" x="8" y="-5" style="font-family: 'Open Sans', verdana, arial, sans-serif; font-size: 18px; fill: rgb(68, 68, 68); fill-opacity: 1;"/></g></g><g class="dimension" transform="translate(826.6666666666667, 0)"><g class="category" transform="translate(0, 24)"><rect class="catrect" pointer-events="none" fill="none" width="16" height="72.60000000000001" stroke="black" stroke-width="1" stroke-opacity="1"/><rect class="bandrect" stroke-opacity="1" fill="rgb(240, 249, 33)" fill-opacity="1" width="16" height="19.8" y="0" cursor="ns-resize" stroke="black" stroke-width="0.2"/><rect class="bandrect" stroke-opacity="1" fill="rgb(252, 190, 44)" fill-opacity="1" width="16" height="19.8" y="19.8" cursor="ns-resize" stroke="black" stroke-width="0.2"/><rect class="bandrect" stroke-opacity="1" fill="rgb(219, 92, 104)" fill-opacity="1" width="16" height="13.200000000000001" y="39.6" cursor="ns-resize" stroke="black" stroke-width="0.2"/><rect class="bandrect" stroke-opacity="1" fill="rgb(138, 14, 162)" fill-opacity="1" width="16" height="13.200000000000001" y="52.800000000000004" cursor="ns-resize" stroke="black" stroke-width="0.2"/><rect class="bandrect" stroke-opacity="1" fill="rgb(13, 8, 135)" fill-opacity="1" width="16" height="6.6000000000000005" y="66" cursor="ns-resize" stroke="black" stroke-width="0.2"/><text class="catlabel" pointer-events="none" text-anchor="end" alignment-baseline="middle" x="-5" y="36.300000000000004" style="text-shadow: rgb(255, 255, 255) -1px 1px 2px, rgb(255, 255, 255) 1px 1px 2px, rgb(255, 255, 255) 1px -1px 2px, rgb(255, 255, 255) -1px -1px 2px; fill: rgb(68, 68, 68); font-family: 'Open Sans', verdana, arial, sans-serif; font-size: 15px; fill-opacity: 1; white-space: pre;">100</text><text class="dimlabel" text-anchor="middle" alignment-baseline="baseline" cursor="ew-resize" x="8" y="-5" style="font-family: 'Open Sans', verdana, arial, sans-serif; font-size: 18px; fill: rgb(68, 68, 68); fill-opacity: 1;">Predict size</text></g><g class="category" transform="translate(0, 104.60000000000001)"><rect class="catrect" pointer-events="none" fill="none" width="16" height="191.4" stroke="black" stroke-width="1" stroke-opacity="1"/><rect class="bandrect" stroke-opacity="1" fill="rgb(240, 249, 33)" fill-opacity="1" width="16" height="59.400000000000006" y="0" cursor="ns-resize" stroke="black" stroke-width="0.2"/><rect class="bandrect" stroke-opacity="1" fill="rgb(252, 190, 44)" fill-opacity="1" width="16" height="33" y="59.400000000000006" cursor="ns-resize" stroke="black" stroke-width="0.2"/><rect class="bandrect" stroke-opacity="1" fill="rgb(243, 137, 72)" fill-opacity="1" width="16" height="33" y="92.4" cursor="ns-resize" stroke="black" stroke-width="0.2"/><rect class="bandrect" stroke-opacity="1" fill="rgb(219, 92, 104)" fill-opacity="1" width="16" height="19.8" y="125.4" cursor="ns-resize" stroke="black" stroke-width="0.2"/><rect class="bandrect" stroke-opacity="1" fill="rgb(184, 50, 137)" fill-opacity="1" width="16" height="13.200000000000001" y="145.20000000000002" cursor="ns-resize" stroke="black" stroke-width="0.2"/><rect class="bandrect" stroke-opacity="1" fill="rgb(138, 14, 162)" fill-opacity="1" width="16" height="19.8" y="158.4" cursor="ns-resize" stroke="black" stroke-width="0.2"/><rect class="bandrect" stroke-opacity="1" fill="rgb(83, 2, 162)" fill-opacity="1" width="16" height="6.6000000000000005" y="178.20000000000002" cursor="ns-resize" stroke="black" stroke-width="0.2"/><rect class="bandrect" stroke-opacity="1" fill="rgb(13, 8, 135)" fill-opacity="1" width="16" height="6.6000000000000005" y="184.8" cursor="ns-resize" stroke="black" stroke-width="0.2"/><text class="catlabel" pointer-events="none" text-anchor="end" alignment-baseline="middle" x="-5" y="95.7" style="text-shadow: rgb(255, 255, 255) -1px 1px 2px, rgb(255, 255, 255) 1px 1px 2px, rgb(255, 255, 255) 1px -1px 2px, rgb(255, 255, 255) -1px -1px 2px; fill: rgb(68, 68, 68); font-family: 'Open Sans', verdana, arial, sans-serif; font-size: 15px; fill-opacity: 1; white-space: pre;">10</text><text class="dimlabel" text-anchor="middle" alignment-baseline="baseline" cursor="ew-resize" x="8" y="-5" style="font-family: 'Open Sans', verdana, arial, sans-serif; font-size: 18px; fill: rgb(68, 68, 68); fill-opacity: 1;"/></g></g><g class="dimension" transform="translate(984, 0)"><g class="category" transform="translate(0, 0)"><rect class="catrect" pointer-events="none" fill="none" width="16" height="13.200000000000001" stroke="black" stroke-width="1" stroke-opacity="1"/><rect class="bandrect" stroke-opacity="1" fill="rgb(13, 8, 135)" fill-opacity="1" width="16" height="13.200000000000001" y="0" cursor="ns-resize" stroke="black" stroke-width="0.2"/><text class="catlabel" pointer-events="none" text-anchor="start" alignment-baseline="middle" x="21" y="6.6000000000000005" style="text-shadow: rgb(255, 255, 255) -1px 1px 2px, rgb(255, 255, 255) 1px 1px 2px, rgb(255, 255, 255) 1px -1px 2px, rgb(255, 255, 255) -1px -1px 2px; fill: rgb(68, 68, 68); font-family: 'Open Sans', verdana, arial, sans-serif; font-size: 15px; fill-opacity: 1; white-space: pre;">3.7</text><text class="dimlabel" text-anchor="middle" alignment-baseline="baseline" cursor="ew-resize" x="8" y="-5" style="font-family: 'Open Sans', verdana, arial, sans-serif; font-size: 18px; fill: rgb(68, 68, 68); fill-opacity: 1;">p-distance</text></g><g class="category" transform="translate(0, 21.200000000000003)"><rect class="catrect" pointer-events="none" fill="none" width="16" height="6.6000000000000005" stroke="black" stroke-width="1" stroke-opacity="1"/><rect class="bandrect" stroke-opacity="1" fill="rgb(83, 2, 162)" fill-opacity="1" width="16" height="6.6000000000000005" y="0" cursor="ns-resize" stroke="black" stroke-width="0.2"/><text class="catlabel" pointer-events="none" text-anchor="start" alignment-baseline="middle" x="21" y="3.3000000000000003" style="text-shadow: rgb(255, 255, 255) -1px 1px 2px, rgb(255, 255, 255) 1px 1px 2px, rgb(255, 255, 255) 1px -1px 2px, rgb(255, 255, 255) -1px -1px 2px; fill: rgb(68, 68, 68); font-family: 'Open Sans', verdana, arial, sans-serif; font-size: 15px; fill-opacity: 1; white-space: pre;">3.6</text><text class="dimlabel" text-anchor="middle" alignment-baseline="baseline" cursor="ew-resize" x="8" y="-5" style="font-family: 'Open Sans', verdana, arial, sans-serif; font-size: 18px; fill: rgb(68, 68, 68); fill-opacity: 1;"/></g><g class="category" transform="translate(0, 35.800000000000004)"><rect class="catrect" pointer-events="none" fill="none" width="16" height="33" stroke="black" stroke-width="1" stroke-opacity="1"/><rect class="bandrect" stroke-opacity="1" fill="rgb(138, 14, 162)" fill-opacity="1" width="16" height="33" y="0" cursor="ns-resize" stroke="black" stroke-width="0.2"/><text class="catlabel" pointer-events="none" text-anchor="start" alignment-baseline="middle" x="21" y="16.5" style="text-shadow: rgb(255, 255, 255) -1px 1px 2px, rgb(255, 255, 255) 1px 1px 2px, rgb(255, 255, 255) 1px -1px 2px, rgb(255, 255, 255) -1px -1px 2px; fill: rgb(68, 68, 68); font-family: 'Open Sans', verdana, arial, sans-serif; font-size: 15px; fill-opacity: 1; white-space: pre;">3.5</text><text class="dimlabel" text-anchor="middle" alignment-baseline="baseline" cursor="ew-resize" x="8" y="-5" style="font-family: 'Open Sans', verdana, arial, sans-serif; font-size: 18px; fill: rgb(68, 68, 68); fill-opacity: 1;"/></g><g class="category" transform="translate(0, 76.80000000000001)"><rect class="catrect" pointer-events="none" fill="none" width="16" height="13.200000000000001" stroke="black" stroke-width="1" stroke-opacity="1"/><rect class="bandrect" stroke-opacity="1" fill="rgb(184, 50, 137)" fill-opacity="1" width="16" height="13.200000000000001" y="0" cursor="ns-resize" stroke="black" stroke-width="0.2"/><text class="catlabel" pointer-events="none" text-anchor="start" alignment-baseline="middle" x="21" y="6.6000000000000005" style="text-shadow: rgb(255, 255, 255) -1px 1px 2px, rgb(255, 255, 255) 1px 1px 2px, rgb(255, 255, 255) 1px -1px 2px, rgb(255, 255, 255) -1px -1px 2px; fill: rgb(68, 68, 68); font-family: 'Open Sans', verdana, arial, sans-serif; font-size: 15px; fill-opacity: 1; white-space: pre;">3.4</text><text class="dimlabel" text-anchor="middle" alignment-baseline="baseline" cursor="ew-resize" x="8" y="-5" style="font-family: 'Open Sans', verdana, arial, sans-serif; font-size: 18px; fill: rgb(68, 68, 68); fill-opacity: 1;"/></g><g class="category" transform="translate(0, 98.00000000000001)"><rect class="catrect" pointer-events="none" fill="none" width="16" height="33" stroke="black" stroke-width="1" stroke-opacity="1"/><rect class="bandrect" stroke-opacity="1" fill="rgb(219, 92, 104)" fill-opacity="1" width="16" height="33" y="0" cursor="ns-resize" stroke="black" stroke-width="0.2"/><text class="catlabel" pointer-events="none" text-anchor="start" alignment-baseline="middle" x="21" y="16.5" style="text-shadow: rgb(255, 255, 255) -1px 1px 2px, rgb(255, 255, 255) 1px 1px 2px, rgb(255, 255, 255) 1px -1px 2px, rgb(255, 255, 255) -1px -1px 2px; fill: rgb(68, 68, 68); font-family: 'Open Sans', verdana, arial, sans-serif; font-size: 15px; fill-opacity: 1; white-space: pre;">3.3</text><text class="dimlabel" text-anchor="middle" alignment-baseline="baseline" cursor="ew-resize" x="8" y="-5" style="font-family: 'Open Sans', verdana, arial, sans-serif; font-size: 18px; fill: rgb(68, 68, 68); fill-opacity: 1;"/></g><g class="category" transform="translate(0, 139)"><rect class="catrect" pointer-events="none" fill="none" width="16" height="33" stroke="black" stroke-width="1" stroke-opacity="1"/><rect class="bandrect" stroke-opacity="1" fill="rgb(243, 137, 72)" fill-opacity="1" width="16" height="33" y="0" cursor="ns-resize" stroke="black" stroke-width="0.2"/><text class="catlabel" pointer-events="none" text-anchor="start" alignment-baseline="middle" x="21" y="16.5" style="text-shadow: rgb(255, 255, 255) -1px 1px 2px, rgb(255, 255, 255) 1px 1px 2px, rgb(255, 255, 255) 1px -1px 2px, rgb(255, 255, 255) -1px -1px 2px; fill: rgb(68, 68, 68); font-family: 'Open Sans', verdana, arial, sans-serif; font-size: 15px; fill-opacity: 1; white-space: pre;">3.2</text><text class="dimlabel" text-anchor="middle" alignment-baseline="baseline" cursor="ew-resize" x="8" y="-5" style="font-family: 'Open Sans', verdana, arial, sans-serif; font-size: 18px; fill: rgb(68, 68, 68); fill-opacity: 1;"/></g><g class="category" transform="translate(0, 180)"><rect class="catrect" pointer-events="none" fill="none" width="16" height="52.800000000000004" stroke="black" stroke-width="1" stroke-opacity="1"/><rect class="bandrect" stroke-opacity="1" fill="rgb(252, 190, 44)" fill-opacity="1" width="16" height="52.800000000000004" y="0" cursor="ns-resize" stroke="black" stroke-width="0.2"/><text class="catlabel" pointer-events="none" text-anchor="start" alignment-baseline="middle" x="21" y="26.400000000000002" style="text-shadow: rgb(255, 255, 255) -1px 1px 2px, rgb(255, 255, 255) 1px 1px 2px, rgb(255, 255, 255) 1px -1px 2px, rgb(255, 255, 255) -1px -1px 2px; fill: rgb(68, 68, 68); font-family: 'Open Sans', verdana, arial, sans-serif; font-size: 15px; fill-opacity: 1; white-space: pre;">3.1</text><text class="dimlabel" text-anchor="middle" alignment-baseline="baseline" cursor="ew-resize" x="8" y="-5" style="font-family: 'Open Sans', verdana, arial, sans-serif; font-size: 18px; fill: rgb(68, 68, 68); fill-opacity: 1;"/></g><g class="category" transform="translate(0, 240.8)"><rect class="catrect" pointer-events="none" fill="none" width="16" height="79.2" stroke="black" stroke-width="1" stroke-opacity="1"/><rect class="bandrect" stroke-opacity="1" fill="rgb(240, 249, 33)" fill-opacity="1" width="16" height="79.2" y="0" cursor="ns-resize" stroke="black" stroke-width="0.2"/><text class="catlabel" pointer-events="none" text-anchor="start" alignment-baseline="middle" x="21" y="39.6" style="text-shadow: rgb(255, 255, 255) -1px 1px 2px, rgb(255, 255, 255) 1px 1px 2px, rgb(255, 255, 255) 1px -1px 2px, rgb(255, 255, 255) -1px -1px 2px; fill: rgb(68, 68, 68); font-family: 'Open Sans', verdana, arial, sans-serif; font-size: 15px; fill-opacity: 1; white-space: pre;">3</text><text class="dimlabel" text-anchor="middle" alignment-baseline="baseline" cursor="ew-resize" x="8" y="-5" style="font-family: 'Open Sans', verdana, arial, sans-serif; font-size: 18px; fill: rgb(68, 68, 68); fill-opacity: 1;"/></g></g></g></g></g><defs id="topdefs-95c10b"><g class="clips"/></defs><g class="layer-above"><g class="imagelayer"/><g class="shapelayer"/></g><g class="infolayer"><g class="g-gtitle"/></g></svg>