<svg class="main-svg" xmlns="http://www.w3.org/2000/svg" xmlns:xlink="http://www.w3.org/1999/xlink" width="1200" height="500" viewBox="0 0 1200 500"><rect x="0" y="0" width="1200" height="500" style="fill: rgb(255, 255, 255); fill-opacity: 1;"/><defs id="defs-ff8c4c"><g class="clips"/><g class="gradients"/></defs><g class="bglayer"/><g class="layer-below"><g class="imagelayer"/><g class="shapelayer"/></g><g class="cartesianlayer"/><g class="polarlayer"/><g class="ternarylayer"/><g class="geolayer"/><g class="funnelarealayer"/><g class="pielayer"/><g class="treemaplayer"/><g class="sunburstlayer"/><g class="glimages"/><g class="parcatslayer" style="pointer-events: all;"><g class="trace parcats" transform="translate(80, 100)"><g class="paths"><path class="path" stroke-opacity="1" fill="rgb(0, 0, 0)" fill-opacity="0.6" stroke="lightgray" stroke-width="0.2" d="M 40,4l16,0 C56,4 197.33333333333334,0 197.33333333333334,0l16,0 C213.33333333333334,0 354.6666666666667,4 354.6666666666667,4l16,0 C370.6666666666667,4 512,4 512,4l16,0 C528,4 669.3333333333334,4 669.3333333333334,4l16,0 C685.3333333333334,4 826.6666666666667,4 826.6666666666667,4l16,0 C842.6666666666667,4 984,0 984,0l16,0 l0,7.6000000000000005 l -16,0 C984,7.6000000000000005 842.6666666666667,11.600000000000001 842.6666666666667,11.600000000000001l-16,0 C826.6666666666667,11.600000000000001 685.3333333333334,11.600000000000001 685.3333333333334,11.600000000000001l-16,0 C669.3333333333334,11.600000000000001 528,11.600000000000001 528,11.600000000000001l-16,0 C512,11.600000000000001 370.6666666666667,11.600000000000001 370.6666666666667,11.600000000000001l-16,0 C354.6666666666667,11.600000000000001 213.33333333333334,7.6000000000000005 213.33333333333334,7.6000000000000005l-16,0 C197.33333333333334,7.6000000000000005 56,11.600000000000001 56,11.600000000000001l-16,0 Z"/><path class="path" stroke-opacity="1" fill="rgb(243, 105, 0)" fill-opacity="0.6" stroke="lightgray" stroke-width="0.2" d="M 40,156.4l16,0 C56,156.4 197.33333333333334,68.4 197.33333333333334,68.4l16,0 C213.33333333333334,68.4 354.6666666666667,72.4 354.6666666666667,72.4l16,0 C370.6666666666667,72.4 512,80 512,80l16,0 C528,80 669.3333333333334,125.6 669.3333333333334,125.6l16,0 C685.3333333333334,125.6 826.6666666666667,308.4 826.6666666666667,308.4l16,0 C842.6666666666667,308.4 984,152.39999999999998 984,152.39999999999998l16,0 l0,7.6000000000000005 l -16,0 C984,159.99999999999997 842.6666666666667,316 842.6666666666667,316l-16,0 C826.6666666666667,316 685.3333333333334,133.2 685.3333333333334,133.2l-16,0 C669.3333333333334,133.2 528,87.6 528,87.6l-16,0 C512,87.6 370.6666666666667,80 370.6666666666667,80l-16,0 C354.6666666666667,80 213.33333333333334,76 213.33333333333334,76l-16,0 C197.33333333333334,76 56,164 56,164l-16,0 Z"/><path class="path" stroke-opacity="1" fill="rgb(243, 105, 0)" fill-opacity="0.6" stroke="lightgray" stroke-width="0.2" d="M 40,19.200000000000003l16,0 C56,19.200000000000003 197.33333333333334,15.200000000000001 197.33333333333334,15.200000000000001l16,0 C213.33333333333334,15.200000000000001 354.6666666666667,19.200000000000003 354.6666666666667,19.200000000000003l16,0 C370.6666666666667,19.200000000000003 512,171.6 512,171.6l16,0 C528,171.6 669.3333333333334,19.200000000000003 669.3333333333334,19.200000000000003l16,0 C685.3333333333334,19.200000000000003 826.6666666666667,19.200000000000003 826.6666666666667,19.200000000000003l16,0 C842.6666666666667,19.200000000000003 984,23.200000000000003 984,23.200000000000003l16,0 l0,15.200000000000001 l -16,0 C984,38.400000000000006 842.6666666666667,34.400000000000006 842.6666666666667,34.400000000000006l-16,0 C826.6666666666667,34.400000000000006 685.3333333333334,34.400000000000006 685.3333333333334,34.400000000000006l-16,0 C669.3333333333334,34.400000000000006 528,186.79999999999998 528,186.79999999999998l-16,0 C512,186.79999999999998 370.6666666666667,34.400000000000006 370.6666666666667,34.400000000000006l-16,0 C354.6666666666667,34.400000000000006 213.33333333333334,30.400000000000002 213.33333333333334,30.400000000000002l-16,0 C197.33333333333334,30.400000000000002 56,34.400000000000006 56,34.400000000000006l-16,0 Z"/><path class="path" stroke-opacity="1" fill="rgb(243, 105, 0)" fill-opacity="0.6" stroke="lightgray" stroke-width="0.2" d="M 40,34.400000000000006l16,0 C56,34.400000000000006 197.33333333333334,30.400000000000002 197.33333333333334,30.400000000000002l16,0 C213.33333333333334,30.400000000000002 354.6666666666667,171.6 354.6666666666667,171.6l16,0 C370.6666666666667,171.6 512,19.200000000000003 512,19.200000000000003l16,0 C528,19.200000000000003 669.3333333333334,34.400000000000006 669.3333333333334,34.400000000000006l16,0 C685.3333333333334,34.400000000000006 826.6666666666667,34.400000000000006 826.6666666666667,34.400000000000006l16,0 C842.6666666666667,34.400000000000006 984,38.400000000000006 984,38.400000000000006l16,0 l0,15.200000000000001 l -16,0 C984,53.60000000000001 842.6666666666667,49.60000000000001 842.6666666666667,49.60000000000001l-16,0 C826.6666666666667,49.60000000000001 685.3333333333334,49.60000000000001 685.3333333333334,49.60000000000001l-16,0 C669.3333333333334,49.60000000000001 528,34.400000000000006 528,34.400000000000006l-16,0 C512,34.400000000000006 370.6666666666667,186.79999999999998 370.6666666666667,186.79999999999998l-16,0 C354.6666666666667,186.79999999999998 213.33333333333334,45.6 213.33333333333334,45.6l-16,0 C197.33333333333334,45.6 56,49.60000000000001 56,49.60000000000001l-16,0 Z"/><path class="path" stroke-opacity="1" fill="rgb(243, 105, 0)" fill-opacity="0.6" stroke="lightgray" stroke-width="0.2" d="M 40,49.60000000000001l16,0 C56,49.60000000000001 197.33333333333334,45.6 197.33333333333334,45.6l16,0 C213.33333333333334,45.6 354.6666666666667,186.79999999999998 354.6666666666667,186.79999999999998l16,0 C370.6666666666667,186.79999999999998 512,34.400000000000006 512,34.400000000000006l16,0 C528,34.400000000000006 669.3333333333334,270.4 669.3333333333334,270.4l16,0 C685.3333333333334,270.4 826.6666666666667,49.60000000000001 826.6666666666667,49.60000000000001l16,0 C842.6666666666667,49.60000000000001 984,53.60000000000001 984,53.60000000000001l16,0 l0,7.6000000000000005 l -16,0 C984,61.20000000000001 842.6666666666667,57.20000000000001 842.6666666666667,57.20000000000001l-16,0 C826.6666666666667,57.20000000000001 685.3333333333334,278 685.3333333333334,278l-16,0 C669.3333333333334,278 528,42.00000000000001 528,42.00000000000001l-16,0 C512,42.00000000000001 370.6666666666667,194.39999999999998 370.6666666666667,194.39999999999998l-16,0 C354.6666666666667,194.39999999999998 213.33333333333334,53.2 213.33333333333334,53.2l-16,0 C197.33333333333334,53.2 56,57.20000000000001 56,57.20000000000001l-16,0 Z"/><path class="path" stroke-opacity="1" fill="rgb(243, 105, 0)" fill-opacity="0.6" stroke="lightgray" stroke-width="0.2" d="M 40,57.20000000000001l16,0 C56,57.20000000000001 197.33333333333334,53.2 197.33333333333334,53.2l16,0 C213.33333333333334,53.2 354.6666666666667,194.39999999999998 354.6666666666667,194.39999999999998l16,0 C370.6666666666667,194.39999999999998 512,186.79999999999998 512,186.79999999999998l16,0 C528,186.79999999999998 669.3333333333334,49.60000000000001 669.3333333333334,49.60000000000001l16,0 C685.3333333333334,49.60000000000001 826.6666666666667,57.20000000000001 826.6666666666667,57.20000000000001l16,0 C842.6666666666667,57.20000000000001 984,61.20000000000001 984,61.20000000000001l16,0 l0,7.6000000000000005 l -16,0 C984,68.80000000000001 842.6666666666667,64.80000000000001 842.6666666666667,64.80000000000001l-16,0 C826.6666666666667,64.80000000000001 685.3333333333334,57.20000000000001 685.3333333333334,57.20000000000001l-16,0 C669.3333333333334,57.20000000000001 528,194.39999999999998 528,194.39999999999998l-16,0 C512,194.39999999999998 370.6666666666667,201.99999999999997 370.6666666666667,201.99999999999997l-16,0 C354.6666666666667,201.99999999999997 213.33333333333334,60.800000000000004 213.33333333333334,60.800000000000004l-16,0 C197.33333333333334,60.800000000000004 56,64.80000000000001 56,64.80000000000001l-16,0 Z"/><path class="path" stroke-opacity="1" fill="rgb(243, 105, 0)" fill-opacity="0.6" stroke="lightgray" stroke-width="0.2" d="M 40,64.80000000000001l16,0 C56,64.80000000000001 197.33333333333334,129.60000000000002 197.33333333333334,129.60000000000002l16,0 C213.33333333333334,129.60000000000002 354.6666666666667,34.400000000000006 354.6666666666667,34.400000000000006l16,0 C370.6666666666667,34.400000000000006 512,42.00000000000001 512,42.00000000000001l16,0 C528,42.00000000000001 669.3333333333334,57.20000000000001 669.3333333333334,57.20000000000001l16,0 C685.3333333333334,57.20000000000001 826.6666666666667,64.80000000000001 826.6666666666667,64.80000000000001l16,0 C842.6666666666667,64.80000000000001 984,68.80000000000001 984,68.80000000000001l16,0 l0,7.6000000000000005 l -16,0 C984,76.4 842.6666666666667,72.4 842.6666666666667,72.4l-16,0 C826.6666666666667,72.4 685.3333333333334,64.80000000000001 685.3333333333334,64.80000000000001l-16,0 C669.3333333333334,64.80000000000001 528,49.60000000000001 528,49.60000000000001l-16,0 C512,49.60000000000001 370.6666666666667,42.00000000000001 370.6666666666667,42.00000000000001l-16,0 C354.6666666666667,42.00000000000001 213.33333333333334,137.20000000000002 213.33333333333334,137.20000000000002l-16,0 C197.33333333333334,137.20000000000002 56,72.4 56,72.4l-16,0 Z"/><path class="path" stroke-opacity="1" fill="rgb(243, 105, 0)" fill-opacity="0.6" stroke="lightgray" stroke-width="0.2" d="M 40,72.4l16,0 C56,72.4 197.33333333333334,137.20000000000002 197.33333333333334,137.20000000000002l16,0 C213.33333333333334,137.20000000000002 354.6666666666667,42.00000000000001 354.6666666666667,42.00000000000001l16,0 C370.6666666666667,42.00000000000001 512,194.39999999999998 512,194.39999999999998l16,0 C528,194.39999999999998 669.3333333333334,64.80000000000001 669.3333333333334,64.80000000000001l16,0 C685.3333333333334,64.80000000000001 826.6666666666667,72.4 826.6666666666667,72.4l16,0 C842.6666666666667,72.4 984,76.4 984,76.4l16,0 l0,15.200000000000001 l -16,0 C984,91.60000000000001 842.6666666666667,87.60000000000001 842.6666666666667,87.60000000000001l-16,0 C826.6666666666667,87.60000000000001 685.3333333333334,80.00000000000001 685.3333333333334,80.00000000000001l-16,0 C669.3333333333334,80.00000000000001 528,209.59999999999997 528,209.59999999999997l-16,0 C512,209.59999999999997 370.6666666666667,57.20000000000001 370.6666666666667,57.20000000000001l-16,0 C354.6666666666667,57.20000000000001 213.33333333333334,152.4 213.33333333333334,152.4l-16,0 C197.33333333333334,152.4 56,87.60000000000001 56,87.60000000000001l-16,0 Z"/><path class="path" stroke-opacity="1" fill="rgb(243, 105, 0)" fill-opacity="0.6" stroke="lightgray" stroke-width="0.2" d="M 40,87.60000000000001l16,0 C56,87.60000000000001 197.33333333333334,152.4 197.33333333333334,152.4l16,0 C213.33333333333334,152.4 354.6666666666667,201.99999999999997 354.6666666666667,201.99999999999997l16,0 C370.6666666666667,201.99999999999997 512,49.60000000000001 512,49.60000000000001l16,0 C528,49.60000000000001 669.3333333333334,80.00000000000001 669.3333333333334,80.00000000000001l16,0 C685.3333333333334,80.00000000000001 826.6666666666667,87.60000000000001 826.6666666666667,87.60000000000001l16,0 C842.6666666666667,87.60000000000001 984,91.60000000000001 984,91.60000000000001l16,0 l0,7.6000000000000005 l -16,0 C984,99.2 842.6666666666667,95.2 842.6666666666667,95.2l-16,0 C826.6666666666667,95.2 685.3333333333334,87.60000000000001 685.3333333333334,87.60000000000001l-16,0 C669.3333333333334,87.60000000000001 528,57.20000000000001 528,57.20000000000001l-16,0 C512,57.20000000000001 370.6666666666667,209.59999999999997 370.6666666666667,209.59999999999997l-16,0 C354.6666666666667,209.59999999999997 213.33333333333334,160 213.33333333333334,160l-16,0 C197.33333333333334,160 56,95.2 56,95.2l-16,0 Z"/><path class="path" stroke-opacity="1" fill="rgb(243, 105, 0)" fill-opacity="0.6" stroke="lightgray" stroke-width="0.2" d="M 40,95.2l16,0 C56,95.2 197.33333333333334,160 197.33333333333334,160l16,0 C213.33333333333334,160 354.6666666666667,209.59999999999997 354.6666666666667,209.59999999999997l16,0 C370.6666666666667,209.59999999999997 512,57.20000000000001 512,57.20000000000001l16,0 C528,57.20000000000001 669.3333333333334,278 669.3333333333334,278l16,0 C685.3333333333334,278 826.6666666666667,95.2 826.6666666666667,95.2l16,0 C842.6666666666667,95.2 984,99.2 984,99.2l16,0 l0,7.6000000000000005 l -16,0 C984,106.8 842.6666666666667,102.8 842.6666666666667,102.8l-16,0 C826.6666666666667,102.8 685.3333333333334,285.6 685.3333333333334,285.6l-16,0 C669.3333333333334,285.6 528,64.80000000000001 528,64.80000000000001l-16,0 C512,64.80000000000001 370.6666666666667,217.19999999999996 370.6666666666667,217.19999999999996l-16,0 C354.6666666666667,217.19999999999996 213.33333333333334,167.6 213.33333333333334,167.6l-16,0 C197.33333333333334,167.6 56,102.8 56,102.8l-16,0 Z"/><path class="path" stroke-opacity="1" fill="rgb(243, 105, 0)" fill-opacity="0.6" stroke="lightgray" stroke-width="0.2" d="M 40,102.8l16,0 C56,102.8 197.33333333333334,167.6 197.33333333333334,167.6l16,0 C213.33333333333334,167.6 354.6666666666667,217.19999999999996 354.6666666666667,217.19999999999996l16,0 C370.6666666666667,217.19999999999996 512,209.59999999999997 512,209.59999999999997l16,0 C528,209.59999999999997 669.3333333333334,87.60000000000001 669.3333333333334,87.60000000000001l16,0 C685.3333333333334,87.60000000000001 826.6666666666667,102.8 826.6666666666667,102.8l16,0 C842.6666666666667,102.8 984,106.8 984,106.8l16,0 l0,15.200000000000001 l -16,0 C984,122 842.6666666666667,118 842.6666666666667,118l-16,0 C826.6666666666667,118 685.3333333333334,102.80000000000001 685.3333333333334,102.80000000000001l-16,0 C669.3333333333334,102.80000000000001 528,224.79999999999995 528,224.79999999999995l-16,0 C512,224.79999999999995 370.6666666666667,232.39999999999995 370.6666666666667,232.39999999999995l-16,0 C354.6666666666667,232.39999999999995 213.33333333333334,182.79999999999998 213.33333333333334,182.79999999999998l-16,0 C197.33333333333334,182.79999999999998 56,118 56,118l-16,0 Z"/><path class="path" stroke-opacity="1" fill="rgb(243, 105, 0)" fill-opacity="0.6" stroke="lightgray" stroke-width="0.2" d="M 40,118l16,0 C56,118 197.33333333333334,259.20000000000005 197.33333333333334,259.20000000000005l16,0 C213.33333333333334,259.20000000000005 354.6666666666667,57.20000000000001 354.6666666666667,57.20000000000001l16,0 C370.6666666666667,57.20000000000001 512,224.79999999999995 512,224.79999999999995l16,0 C528,224.79999999999995 669.3333333333334,102.80000000000001 669.3333333333334,102.80000000000001l16,0 C685.3333333333334,102.80000000000001 826.6666666666667,118 826.6666666666667,118l16,0 C842.6666666666667,118 984,122 984,122l16,0 l0,7.6000000000000005 l -16,0 C984,129.6 842.6666666666667,125.6 842.6666666666667,125.6l-16,0 C826.6666666666667,125.6 685.3333333333334,110.4 685.3333333333334,110.4l-16,0 C669.3333333333334,110.4 528,232.39999999999995 528,232.39999999999995l-16,0 C512,232.39999999999995 370.6666666666667,64.80000000000001 370.6666666666667,64.80000000000001l-16,0 C354.6666666666667,64.80000000000001 213.33333333333334,266.80000000000007 213.33333333333334,266.80000000000007l-16,0 C197.33333333333334,266.80000000000007 56,125.6 56,125.6l-16,0 Z"/><path class="path" stroke-opacity="1" fill="rgb(243, 105, 0)" fill-opacity="0.6" stroke="lightgray" stroke-width="0.2" d="M 40,125.6l16,0 C56,125.6 197.33333333333334,266.80000000000007 197.33333333333334,266.80000000000007l16,0 C213.33333333333334,266.80000000000007 354.6666666666667,232.39999999999995 354.6666666666667,232.39999999999995l16,0 C370.6666666666667,232.39999999999995 512,64.80000000000001 512,64.80000000000001l16,0 C528,64.80000000000001 669.3333333333334,285.6 669.3333333333334,285.6l16,0 C685.3333333333334,285.6 826.6666666666667,125.6 826.6666666666667,125.6l16,0 C842.6666666666667,125.6 984,129.6 984,129.6l16,0 l0,7.6000000000000005 l -16,0 C984,137.2 842.6666666666667,133.2 842.6666666666667,133.2l-16,0 C826.6666666666667,133.2 685.3333333333334,293.20000000000005 685.3333333333334,293.20000000000005l-16,0 C669.3333333333334,293.20000000000005 528,72.4 528,72.4l-16,0 C512,72.4 370.6666666666667,239.99999999999994 370.6666666666667,239.99999999999994l-16,0 C354.6666666666667,239.99999999999994 213.33333333333334,274.4000000000001 213.33333333333334,274.4000000000001l-16,0 C197.33333333333334,274.4000000000001 56,133.2 56,133.2l-16,0 Z"/><path class="path" stroke-opacity="1" fill="rgb(243, 105, 0)" fill-opacity="0.6" stroke="lightgray" stroke-width="0.2" d="M 40,133.2l16,0 C56,133.2 197.33333333333334,274.4000000000001 197.33333333333334,274.4000000000001l16,0 C213.33333333333334,274.4000000000001 354.6666666666667,239.99999999999994 354.6666666666667,239.99999999999994l16,0 C370.6666666666667,239.99999999999994 512,232.39999999999995 512,232.39999999999995l16,0 C528,232.39999999999995 669.3333333333334,110.4 669.3333333333334,110.4l16,0 C685.3333333333334,110.4 826.6666666666667,133.2 826.6666666666667,133.2l16,0 C842.6666666666667,133.2 984,137.2 984,137.2l16,0 l0,7.6000000000000005 l -16,0 C984,144.79999999999998 842.6666666666667,140.79999999999998 842.6666666666667,140.79999999999998l-16,0 C826.6666666666667,140.79999999999998 685.3333333333334,118 685.3333333333334,118l-16,0 C669.3333333333334,118 528,239.99999999999994 528,239.99999999999994l-16,0 C512,239.99999999999994 370.6666666666667,247.59999999999994 370.6666666666667,247.59999999999994l-16,0 C354.6666666666667,247.59999999999994 213.33333333333334,282.0000000000001 213.33333333333334,282.0000000000001l-16,0 C197.33333333333334,282.0000000000001 56,140.79999999999998 56,140.79999999999998l-16,0 Z"/><path class="path" stroke-opacity="1" fill="rgb(243, 105, 0)" fill-opacity="0.6" stroke="lightgray" stroke-width="0.2" d="M 40,148.8l16,0 C56,148.8 197.33333333333334,60.800000000000004 197.33333333333334,60.800000000000004l16,0 C213.33333333333334,60.800000000000004 354.6666666666667,64.80000000000001 354.6666666666667,64.80000000000001l16,0 C370.6666666666667,64.80000000000001 512,72.4 512,72.4l16,0 C528,72.4 669.3333333333334,118 669.3333333333334,118l16,0 C685.3333333333334,118 826.6666666666667,140.79999999999998 826.6666666666667,140.79999999999998l16,0 C842.6666666666667,140.79999999999998 984,144.79999999999998 984,144.79999999999998l16,0 l0,7.6000000000000005 l -16,0 C984,152.39999999999998 842.6666666666667,148.39999999999998 842.6666666666667,148.39999999999998l-16,0 C826.6666666666667,148.39999999999998 685.3333333333334,125.6 685.3333333333334,125.6l-16,0 C669.3333333333334,125.6 528,80 528,80l-16,0 C512,80 370.6666666666667,72.4 370.6666666666667,72.4l-16,0 C354.6666666666667,72.4 213.33333333333334,68.4 213.33333333333334,68.4l-16,0 C197.33333333333334,68.4 56,156.4 56,156.4l-16,0 Z"/><path class="path" stroke-opacity="1" fill="rgb(243, 105, 0)" fill-opacity="0.6" stroke="lightgray" stroke-width="0.2" d="M 40,11.600000000000001l16,0 C56,11.600000000000001 197.33333333333334,7.6000000000000005 197.33333333333334,7.6000000000000005l16,0 C213.33333333333334,7.6000000000000005 354.6666666666667,11.600000000000001 354.6666666666667,11.600000000000001l16,0 C370.6666666666667,11.600000000000001 512,11.600000000000001 512,11.600000000000001l16,0 C528,11.600000000000001 669.3333333333334,11.600000000000001 669.3333333333334,11.600000000000001l16,0 C685.3333333333334,11.600000000000001 826.6666666666667,11.600000000000001 826.6666666666667,11.600000000000001l16,0 C842.6666666666667,11.600000000000001 984,15.600000000000001 984,15.600000000000001l16,0 l0,7.6000000000000005 l -16,0 C984,23.200000000000003 842.6666666666667,19.200000000000003 842.6666666666667,19.200000000000003l-16,0 C826.6666666666667,19.200000000000003 685.3333333333334,19.200000000000003 685.3333333333334,19.200000000000003l-16,0 C669.3333333333334,19.200000000000003 528,19.200000000000003 528,19.200000000000003l-16,0 C512,19.200000000000003 370.6666666666667,19.200000000000003 370.6666666666667,19.200000000000003l-16,0 C354.6666666666667,19.200000000000003 213.33333333333334,15.200000000000001 213.33333333333334,15.200000000000001l-16,0 C197.33333333333334,15.200000000000001 56,19.200000000000003 56,19.200000000000003l-16,0 Z"/><path class="path" stroke-opacity="1" fill="rgb(243, 105, 0)" fill-opacity="0.6" stroke="lightgray" stroke-width="0.2" d="M 40,164l16,0 C56,164 197.33333333333334,76 197.33333333333334,76l16,0 C213.33333333333334,76 354.6666666666667,80 354.6666666666667,80l16,0 C370.6666666666667,80 512,87.6 512,87.6l16,0 C528,87.6 669.3333333333334,293.20000000000005 669.3333333333334,293.20000000000005l16,0 C685.3333333333334,293.20000000000005 826.6666666666667,148.39999999999998 826.6666666666667,148.39999999999998l16,0 C842.6666666666667,148.39999999999998 984,159.99999999999997 984,159.99999999999997l16,0 l0,7.6000000000000005 l -16,0 C984,167.59999999999997 842.6666666666667,155.99999999999997 842.6666666666667,155.99999999999997l-16,0 C826.6666666666667,155.99999999999997 685.3333333333334,300.80000000000007 685.3333333333334,300.80000000000007l-16,0 C669.3333333333334,300.80000000000007 528,95.19999999999999 528,95.19999999999999l-16,0 C512,95.19999999999999 370.6666666666667,87.6 370.6666666666667,87.6l-16,0 C354.6666666666667,87.6 213.33333333333334,83.6 213.33333333333334,83.6l-16,0 C197.33333333333334,83.6 56,171.6 56,171.6l-16,0 Z"/><path class="path" stroke-opacity="1" fill="rgb(243, 105, 0)" fill-opacity="0.6" stroke="lightgray" stroke-width="0.2" d="M 40,171.6l16,0 C56,171.6 197.33333333333334,83.6 197.33333333333334,83.6l16,0 C213.33333333333334,83.6 354.6666666666667,87.6 354.6666666666667,87.6l16,0 C370.6666666666667,87.6 512,239.99999999999994 512,239.99999999999994l16,0 C528,239.99999999999994 669.3333333333334,133.2 669.3333333333334,133.2l16,0 C685.3333333333334,133.2 826.6666666666667,155.99999999999997 826.6666666666667,155.99999999999997l16,0 C842.6666666666667,155.99999999999997 984,167.59999999999997 984,167.59999999999997l16,0 l0,7.6000000000000005 l -16,0 C984,175.19999999999996 842.6666666666667,163.59999999999997 842.6666666666667,163.59999999999997l-16,0 C826.6666666666667,163.59999999999997 685.3333333333334,140.79999999999998 685.3333333333334,140.79999999999998l-16,0 C669.3333333333334,140.79999999999998 528,247.59999999999994 528,247.59999999999994l-16,0 C512,247.59999999999994 370.6666666666667,95.19999999999999 370.6666666666667,95.19999999999999l-16,0 C354.6666666666667,95.19999999999999 213.33333333333334,91.19999999999999 213.33333333333334,91.19999999999999l-16,0 C197.33333333333334,91.19999999999999 56,179.2 56,179.2l-16,0 Z"/><path class="path" stroke-opacity="1" fill="rgb(243, 105, 0)" fill-opacity="0.6" stroke="lightgray" stroke-width="0.2" d="M 40,179.2l16,0 C56,179.2 197.33333333333334,91.19999999999999 197.33333333333334,91.19999999999999l16,0 C213.33333333333334,91.19999999999999 354.6666666666667,247.59999999999994 354.6666666666667,247.59999999999994l16,0 C370.6666666666667,247.59999999999994 512,95.19999999999999 512,95.19999999999999l16,0 C528,95.19999999999999 669.3333333333334,140.79999999999998 669.3333333333334,140.79999999999998l16,0 C685.3333333333334,140.79999999999998 826.6666666666667,163.59999999999997 826.6666666666667,163.59999999999997l16,0 C842.6666666666667,163.59999999999997 984,175.19999999999996 984,175.19999999999996l16,0 l0,15.200000000000001 l -16,0 C984,190.39999999999995 842.6666666666667,178.79999999999995 842.6666666666667,178.79999999999995l-16,0 C826.6666666666667,178.79999999999995 685.3333333333334,155.99999999999997 685.3333333333334,155.99999999999997l-16,0 C669.3333333333334,155.99999999999997 528,110.39999999999999 528,110.39999999999999l-16,0 C512,110.39999999999999 370.6666666666667,262.79999999999995 370.6666666666667,262.79999999999995l-16,0 C354.6666666666667,262.79999999999995 213.33333333333334,106.39999999999999 213.33333333333334,106.39999999999999l-16,0 C197.33333333333334,106.39999999999999 56,194.39999999999998 56,194.39999999999998l-16,0 Z"/><path class="path" stroke-opacity="1" fill="rgb(243, 105, 0)" fill-opacity="0.6" stroke="lightgray" stroke-width="0.2" d="M 40,194.39999999999998l16,0 C56,194.39999999999998 197.33333333333334,106.39999999999999 197.33333333333334,106.39999999999999l16,0 C213.33333333333334,106.39999999999999 354.6666666666667,262.79999999999995 354.6666666666667,262.79999999999995l16,0 C370.6666666666667,262.79999999999995 512,247.59999999999994 512,247.59999999999994l16,0 C528,247.59999999999994 669.3333333333334,155.99999999999997 669.3333333333334,155.99999999999997l16,0 C685.3333333333334,155.99999999999997 826.6666666666667,178.79999999999995 826.6666666666667,178.79999999999995l16,0 C842.6666666666667,178.79999999999995 984,190.39999999999995 984,190.39999999999995l16,0 l0,15.200000000000001 l -16,0 C984,205.59999999999994 842.6666666666667,193.99999999999994 842.6666666666667,193.99999999999994l-16,0 C826.6666666666667,193.99999999999994 685.3333333333334,171.19999999999996 685.3333333333334,171.19999999999996l-16,0 C669.3333333333334,171.19999999999996 528,262.79999999999995 528,262.79999999999995l-16,0 C512,262.79999999999995 370.6666666666667,277.99999999999994 370.6666666666667,277.99999999999994l-16,0 C354.6666666666667,277.99999999999994 213.33333333333334,121.6 213.33333333333334,121.6l-16,0 C197.33333333333334,121.6 56,209.59999999999997 56,209.59999999999997l-16,0 Z"/><path class="path" stroke-opacity="1" fill="rgb(243, 105, 0)" fill-opacity="0.6" stroke="lightgray" stroke-width="0.2" d="M 40,209.59999999999997l16,0 C56,209.59999999999997 197.33333333333334,182.79999999999998 197.33333333333334,182.79999999999998l16,0 C213.33333333333334,182.79999999999998 354.6666666666667,95.19999999999999 354.6666666666667,95.19999999999999l16,0 C370.6666666666667,95.19999999999999 512,110.39999999999999 512,110.39999999999999l16,0 C528,110.39999999999999 669.3333333333334,171.19999999999996 669.3333333333334,171.19999999999996l16,0 C685.3333333333334,171.19999999999996 826.6666666666667,193.99999999999994 826.6666666666667,193.99999999999994l16,0 C842.6666666666667,193.99999999999994 984,205.59999999999994 984,205.59999999999994l16,0 l0,15.200000000000001 l -16,0 C984,220.79999999999993 842.6666666666667,209.19999999999993 842.6666666666667,209.19999999999993l-16,0 C826.6666666666667,209.19999999999993 685.3333333333334,186.39999999999995 685.3333333333334,186.39999999999995l-16,0 C669.3333333333334,186.39999999999995 528,125.6 528,125.6l-16,0 C512,125.6 370.6666666666667,110.39999999999999 370.6666666666667,110.39999999999999l-16,0 C354.6666666666667,110.39999999999999 213.33333333333334,197.99999999999997 213.33333333333334,197.99999999999997l-16,0 C197.33333333333334,197.99999999999997 56,224.79999999999995 56,224.79999999999995l-16,0 Z"/><path class="path" stroke-opacity="1" fill="rgb(243, 105, 0)" fill-opacity="0.6" stroke="lightgray" stroke-width="0.2" d="M 40,224.79999999999995l16,0 C56,224.79999999999995 197.33333333333334,197.99999999999997 197.33333333333334,197.99999999999997l16,0 C213.33333333333334,197.99999999999997 354.6666666666667,110.39999999999999 354.6666666666667,110.39999999999999l16,0 C370.6666666666667,110.39999999999999 512,262.79999999999995 512,262.79999999999995l16,0 C528,262.79999999999995 669.3333333333334,186.39999999999995 669.3333333333334,186.39999999999995l16,0 C685.3333333333334,186.39999999999995 826.6666666666667,209.19999999999993 826.6666666666667,209.19999999999993l16,0 C842.6666666666667,209.19999999999993 984,220.79999999999993 984,220.79999999999993l16,0 l0,15.200000000000001 l -16,0 C984,235.99999999999991 842.6666666666667,224.39999999999992 842.6666666666667,224.39999999999992l-16,0 C826.6666666666667,224.39999999999992 685.3333333333334,201.59999999999994 685.3333333333334,201.59999999999994l-16,0 C669.3333333333334,201.59999999999994 528,277.99999999999994 528,277.99999999999994l-16,0 C512,277.99999999999994 370.6666666666667,125.6 370.6666666666667,125.6l-16,0 C354.6666666666667,125.6 213.33333333333334,213.19999999999996 213.33333333333334,213.19999999999996l-16,0 C197.33333333333334,213.19999999999996 56,239.99999999999994 56,239.99999999999994l-16,0 Z"/><path class="path" stroke-opacity="1" fill="rgb(243, 105, 0)" fill-opacity="0.6" stroke="lightgray" stroke-width="0.2" d="M 40,239.99999999999994l16,0 C56,239.99999999999994 197.33333333333334,213.19999999999996 197.33333333333334,213.19999999999996l16,0 C213.33333333333334,213.19999999999996 354.6666666666667,277.99999999999994 354.6666666666667,277.99999999999994l16,0 C370.6666666666667,277.99999999999994 512,125.6 512,125.6l16,0 C528,125.6 669.3333333333334,201.59999999999994 669.3333333333334,201.59999999999994l16,0 C685.3333333333334,201.59999999999994 826.6666666666667,224.39999999999992 826.6666666666667,224.39999999999992l16,0 C842.6666666666667,224.39999999999992 984,235.99999999999991 984,235.99999999999991l16,0 l0,7.6000000000000005 l -16,0 C984,243.5999999999999 842.6666666666667,231.99999999999991 842.6666666666667,231.99999999999991l-16,0 C826.6666666666667,231.99999999999991 685.3333333333334,209.19999999999993 685.3333333333334,209.19999999999993l-16,0 C669.3333333333334,209.19999999999993 528,133.2 528,133.2l-16,0 C512,133.2 370.6666666666667,285.59999999999997 370.6666666666667,285.59999999999997l-16,0 C354.6666666666667,285.59999999999997 213.33333333333334,220.79999999999995 213.33333333333334,220.79999999999995l-16,0 C197.33333333333334,220.79999999999995 56,247.59999999999994 56,247.59999999999994l-16,0 Z"/><path class="path" stroke-opacity="1" fill="rgb(243, 105, 0)" fill-opacity="0.6" stroke="lightgray" stroke-width="0.2" d="M 40,247.59999999999994l16,0 C56,247.59999999999994 197.33333333333334,220.79999999999995 197.33333333333334,220.79999999999995l16,0 C213.33333333333334,220.79999999999995 354.6666666666667,285.59999999999997 354.6666666666667,285.59999999999997l16,0 C370.6666666666667,285.59999999999997 512,277.99999999999994 512,277.99999999999994l16,0 C528,277.99999999999994 669.3333333333334,209.19999999999993 669.3333333333334,209.19999999999993l16,0 C685.3333333333334,209.19999999999993 826.6666666666667,231.99999999999991 826.6666666666667,231.99999999999991l16,0 C842.6666666666667,231.99999999999991 984,243.5999999999999 984,243.5999999999999l16,0 l0,15.200000000000001 l -16,0 C984,258.7999999999999 842.6666666666667,247.1999999999999 842.6666666666667,247.1999999999999l-16,0 C826.6666666666667,247.1999999999999 685.3333333333334,224.39999999999992 685.3333333333334,224.39999999999992l-16,0 C669.3333333333334,224.39999999999992 528,293.19999999999993 528,293.19999999999993l-16,0 C512,293.19999999999993 370.6666666666667,300.79999999999995 370.6666666666667,300.79999999999995l-16,0 C354.6666666666667,300.79999999999995 213.33333333333334,235.99999999999994 213.33333333333334,235.99999999999994l-16,0 C197.33333333333334,235.99999999999994 56,262.79999999999995 56,262.79999999999995l-16,0 Z"/><path class="path" stroke-opacity="1" fill="rgb(243, 105, 0)" fill-opacity="0.6" stroke="lightgray" stroke-width="0.2" d="M 40,262.79999999999995l16,0 C56,262.79999999999995 197.33333333333334,282.0000000000001 197.33333333333334,282.0000000000001l16,0 C213.33333333333334,282.0000000000001 354.6666666666667,125.6 354.6666666666667,125.6l16,0 C370.6666666666667,125.6 512,133.2 512,133.2l16,0 C528,133.2 669.3333333333334,224.39999999999992 669.3333333333334,224.39999999999992l16,0 C685.3333333333334,224.39999999999992 826.6666666666667,247.1999999999999 826.6666666666667,247.1999999999999l16,0 C842.6666666666667,247.1999999999999 984,258.7999999999999 984,258.7999999999999l16,0 l0,15.200000000000001 l -16,0 C984,273.9999999999999 842.6666666666667,262.3999999999999 842.6666666666667,262.3999999999999l-16,0 C826.6666666666667,262.3999999999999 685.3333333333334,239.5999999999999 685.3333333333334,239.5999999999999l-16,0 C669.3333333333334,239.5999999999999 528,148.39999999999998 528,148.39999999999998l-16,0 C512,148.39999999999998 370.6666666666667,140.79999999999998 370.6666666666667,140.79999999999998l-16,0 C354.6666666666667,140.79999999999998 213.33333333333334,297.2000000000001 213.33333333333334,297.2000000000001l-16,0 C197.33333333333334,297.2000000000001 56,277.99999999999994 56,277.99999999999994l-16,0 Z"/><path class="path" stroke-opacity="1" fill="rgb(243, 105, 0)" fill-opacity="0.6" stroke="lightgray" stroke-width="0.2" d="M 40,277.99999999999994l16,0 C56,277.99999999999994 197.33333333333334,297.2000000000001 197.33333333333334,297.2000000000001l16,0 C213.33333333333334,297.2000000000001 354.6666666666667,140.79999999999998 354.6666666666667,140.79999999999998l16,0 C370.6666666666667,140.79999999999998 512,293.19999999999993 512,293.19999999999993l16,0 C528,293.19999999999993 669.3333333333334,239.5999999999999 669.3333333333334,239.5999999999999l16,0 C685.3333333333334,239.5999999999999 826.6666666666667,262.3999999999999 826.6666666666667,262.3999999999999l16,0 C842.6666666666667,262.3999999999999 984,273.9999999999999 984,273.9999999999999l16,0 l0,7.6000000000000005 l -16,0 C984,281.5999999999999 842.6666666666667,269.99999999999994 842.6666666666667,269.99999999999994l-16,0 C826.6666666666667,269.99999999999994 685.3333333333334,247.1999999999999 685.3333333333334,247.1999999999999l-16,0 C669.3333333333334,247.1999999999999 528,300.79999999999995 528,300.79999999999995l-16,0 C512,300.79999999999995 370.6666666666667,148.39999999999998 370.6666666666667,148.39999999999998l-16,0 C354.6666666666667,148.39999999999998 213.33333333333334,304.8000000000001 213.33333333333334,304.8000000000001l-16,0 C197.33333333333334,304.8000000000001 56,285.59999999999997 56,285.59999999999997l-16,0 Z"/><path class="path" stroke-opacity="1" fill="rgb(243, 105, 0)" fill-opacity="0.6" stroke="lightgray" stroke-width="0.2" d="M 40,285.59999999999997l16,0 C56,285.59999999999997 197.33333333333334,304.8000000000001 197.33333333333334,304.8000000000001l16,0 C213.33333333333334,304.8000000000001 354.6666666666667,300.79999999999995 354.6666666666667,300.79999999999995l16,0 C370.6666666666667,300.79999999999995 512,148.39999999999998 512,148.39999999999998l16,0 C528,148.39999999999998 669.3333333333334,247.1999999999999 669.3333333333334,247.1999999999999l16,0 C685.3333333333334,247.1999999999999 826.6666666666667,269.99999999999994 826.6666666666667,269.99999999999994l16,0 C842.6666666666667,269.99999999999994 984,281.5999999999999 984,281.5999999999999l16,0 l0,7.6000000000000005 l -16,0 C984,289.19999999999993 842.6666666666667,277.59999999999997 842.6666666666667,277.59999999999997l-16,0 C826.6666666666667,277.59999999999997 685.3333333333334,254.7999999999999 685.3333333333334,254.7999999999999l-16,0 C669.3333333333334,254.7999999999999 528,155.99999999999997 528,155.99999999999997l-16,0 C512,155.99999999999997 370.6666666666667,308.4 370.6666666666667,308.4l-16,0 C354.6666666666667,308.4 213.33333333333334,312.40000000000015 213.33333333333334,312.40000000000015l-16,0 C197.33333333333334,312.40000000000015 56,293.2 56,293.2l-16,0 Z"/><path class="path" stroke-opacity="1" fill="rgb(243, 105, 0)" fill-opacity="0.6" stroke="lightgray" stroke-width="0.2" d="M 40,293.2l16,0 C56,293.2 197.33333333333334,312.40000000000015 197.33333333333334,312.40000000000015l16,0 C213.33333333333334,312.40000000000015 354.6666666666667,308.4 354.6666666666667,308.4l16,0 C370.6666666666667,308.4 512,300.79999999999995 512,300.79999999999995l16,0 C528,300.79999999999995 669.3333333333334,254.7999999999999 669.3333333333334,254.7999999999999l16,0 C685.3333333333334,254.7999999999999 826.6666666666667,277.59999999999997 826.6666666666667,277.59999999999997l16,0 C842.6666666666667,277.59999999999997 984,289.19999999999993 984,289.19999999999993l16,0 l0,7.6000000000000005 l -16,0 C984,296.79999999999995 842.6666666666667,285.2 842.6666666666667,285.2l-16,0 C826.6666666666667,285.2 685.3333333333334,262.3999999999999 685.3333333333334,262.3999999999999l-16,0 C669.3333333333334,262.3999999999999 528,308.4 528,308.4l-16,0 C512,308.4 370.6666666666667,316 370.6666666666667,316l-16,0 C354.6666666666667,316 213.33333333333334,320.00000000000017 213.33333333333334,320.00000000000017l-16,0 C197.33333333333334,320.00000000000017 56,300.8 56,300.8l-16,0 Z"/><path class="path" stroke-opacity="1" fill="rgb(255, 255, 255)" fill-opacity="0.6" stroke="lightgray" stroke-width="0.2" d="M 40,300.8l16,0 C56,300.8 197.33333333333334,235.99999999999994 197.33333333333334,235.99999999999994l16,0 C213.33333333333334,235.99999999999994 354.6666666666667,148.39999999999998 354.6666666666667,148.39999999999998l16,0 C370.6666666666667,148.39999999999998 512,155.99999999999997 512,155.99999999999997l16,0 C528,155.99999999999997 669.3333333333334,300.80000000000007 669.3333333333334,300.80000000000007l16,0 C685.3333333333334,300.80000000000007 826.6666666666667,285.2 826.6666666666667,285.2l16,0 C842.6666666666667,285.2 984,304.8 984,304.8l16,0 l0,7.6000000000000005 l -16,0 C984,312.40000000000003 842.6666666666667,292.8 842.6666666666667,292.8l-16,0 C826.6666666666667,292.8 685.3333333333334,308.4000000000001 685.3333333333334,308.4000000000001l-16,0 C669.3333333333334,308.4000000000001 528,163.59999999999997 528,163.59999999999997l-16,0 C512,163.59999999999997 370.6666666666667,155.99999999999997 370.6666666666667,155.99999999999997l-16,0 C354.6666666666667,155.99999999999997 213.33333333333334,243.59999999999994 213.33333333333334,243.59999999999994l-16,0 C197.33333333333334,243.59999999999994 56,308.40000000000003 56,308.40000000000003l-16,0 Z"/><path class="path" stroke-opacity="1" fill="rgb(255, 255, 255)" fill-opacity="0.6" stroke="lightgray" stroke-width="0.2" d="M 40,308.40000000000003l16,0 C56,308.40000000000003 197.33333333333334,243.59999999999994 197.33333333333334,243.59999999999994l16,0 C213.33333333333334,243.59999999999994 354.6666666666667,155.99999999999997 354.6666666666667,155.99999999999997l16,0 C370.6666666666667,155.99999999999997 512,308.4 512,308.4l16,0 C528,308.4 669.3333333333334,308.4000000000001 669.3333333333334,308.4000000000001l16,0 C685.3333333333334,308.4000000000001 826.6666666666667,292.8 826.6666666666667,292.8l16,0 C842.6666666666667,292.8 984,312.40000000000003 984,312.40000000000003l16,0 l0,7.6000000000000005 l -16,0 C984,320.00000000000006 842.6666666666667,300.40000000000003 842.6666666666667,300.40000000000003l-16,0 C826.6666666666667,300.40000000000003 685.3333333333334,316.0000000000001 685.3333333333334,316.0000000000001l-16,0 C669.3333333333334,316.0000000000001 528,316 528,316l-16,0 C512,316 370.6666666666667,163.59999999999997 370.6666666666667,163.59999999999997l-16,0 C354.6666666666667,163.59999999999997 213.33333333333334,251.19999999999993 213.33333333333334,251.19999999999993l-16,0 C197.33333333333334,251.19999999999993 56,316.00000000000006 56,316.00000000000006l-16,0 Z"/></g><g class="dimensions"><g class="dimension" transform="translate(40, 0)"><g class="category" transform="translate(0, 4)"><rect class="catrect" pointer-events="none" fill="none" width="16" height="136.8" stroke="black" stroke-width="1" stroke-opacity="1"/><rect class="bandrect" stroke-opacity="1" fill="rgb(0, 0, 0)" fill-opacity="1" width="16" height="7.6000000000000005" y="0" cursor="ns-resize" stroke="black" stroke-width="0.2"/><rect class="bandrect" stroke-opacity="1" fill="rgb(243, 105, 0)" fill-opacity="1" width="16" height="129.2" y="7.6000000000000005" cursor="ns-resize" stroke="black" stroke-width="0.2"/><text class="catlabel" pointer-events="none" text-anchor="end" alignment-baseline="middle" x="-5" y="68.4" style="text-shadow: rgb(255, 255, 255) -1px 1px 2px, rgb(255, 255, 255) 1px 1px 2px, rgb(255, 255, 255) 1px -1px 2px, rgb(255, 255, 255) -1px -1px 2px; fill: rgb(68, 68, 68); font-family: 'Open Sans', verdana, arial, sans-serif; font-size: 15px; fill-opacity: 1; white-space: pre;">(test_r2 > 0.65)</text><text class="dimlabel" text-anchor="middle" alignment-baseline="baseline" cursor="ew-resize" x="8" y="-5" style="font-family: 'Open Sans', verdana, arial, sans-serif; font-size: 18px; fill: rgb(68, 68, 68); fill-opacity: 1;">CV threshold</text></g><g class="category" transform="translate(0, 148.8)"><rect class="catrect" pointer-events="none" fill="none" width="16" height="167.20000000000002" stroke="black" stroke-width="1" stroke-opacity="1"/><rect class="bandrect" stroke-opacity="1" fill="rgb(243, 105, 0)" fill-opacity="1" width="16" height="151.99999999999997" y="0" cursor="ns-resize" stroke="black" stroke-width="0.2"/><rect class="bandrect" stroke-opacity="1" fill="rgb(255, 255, 255)" fill-opacity="1" width="16" height="15.200000000000001" y="151.99999999999997" cursor="ns-resize" stroke="black" stroke-width="0.2"/><text class="catlabel" pointer-events="none" text-anchor="end" alignment-baseline="middle" x="-5" y="83.60000000000001" style="text-shadow: rgb(255, 255, 255) -1px 1px 2px, rgb(255, 255, 255) 1px 1px 2px, rgb(255, 255, 255) 1px -1px 2px, rgb(255, 255, 255) -1px -1px 2px; fill: rgb(68, 68, 68); font-family: 'Open Sans', verdana, arial, sans-serif; font-size: 15px; fill-opacity: 1; white-space: pre;">(test_r2 > 0.2)</text><text class="dimlabel" text-anchor="middle" alignment-baseline="baseline" cursor="ew-resize" x="8" y="-5" style="font-family: 'Open Sans', verdana, arial, sans-serif; font-size: 18px; fill: rgb(68, 68, 68); fill-opacity: 1;"/></g></g><g class="dimension" transform="translate(197.33333333333334, 0)"><g class="category" transform="translate(0, 0)"><rect class="catrect" pointer-events="none" fill="none" width="16" height="121.60000000000001" stroke="black" stroke-width="1" stroke-opacity="1"/><rect class="bandrect" stroke-opacity="1" fill="rgb(0, 0, 0)" fill-opacity="1" width="16" height="7.6000000000000005" y="0" cursor="ns-resize" stroke="black" stroke-width="0.2"/><rect class="bandrect" stroke-opacity="1" fill="rgb(243, 105, 0)" fill-opacity="1" width="16" height="114" y="7.6000000000000005" cursor="ns-resize" stroke="black" stroke-width="0.2"/><text class="catlabel" pointer-events="none" text-anchor="end" alignment-baseline="middle" x="-5" y="60.800000000000004" style="text-shadow: rgb(255, 255, 255) -1px 1px 2px, rgb(255, 255, 255) 1px 1px 2px, rgb(255, 255, 255) 1px -1px 2px, rgb(255, 255, 255) -1px -1px 2px; fill: rgb(68, 68, 68); font-family: 'Open Sans', verdana, arial, sans-serif; font-size: 15px; fill-opacity: 1; white-space: pre;">(ndf_surr_score > 0.6)</text><text class="dimlabel" text-anchor="middle" alignment-baseline="baseline" cursor="ew-resize" x="8" y="-5" style="font-family: 'Open Sans', verdana, arial, sans-serif; font-size: 18px; fill: rgb(68, 68, 68); fill-opacity: 1;">Test-set threshold</text></g><g class="category" transform="translate(0, 129.60000000000002)"><rect class="catrect" pointer-events="none" fill="none" width="16" height="121.60000000000001" stroke="black" stroke-width="1" stroke-opacity="1"/><rect class="bandrect" stroke-opacity="1" fill="rgb(243, 105, 0)" fill-opacity="1" width="16" height="106.4" y="0" cursor="ns-resize" stroke="black" stroke-width="0.2"/><rect class="bandrect" stroke-opacity="1" fill="rgb(255, 255, 255)" fill-opacity="1" width="16" height="15.200000000000001" y="106.4" cursor="ns-resize" stroke="black" stroke-width="0.2"/><text class="catlabel" pointer-events="none" text-anchor="end" alignment-baseline="middle" x="-5" y="60.800000000000004" style="text-shadow: rgb(255, 255, 255) -1px 1px 2px, rgb(255, 255, 255) 1px 1px 2px, rgb(255, 255, 255) 1px -1px 2px, rgb(255, 255, 255) -1px -1px 2px; fill: rgb(68, 68, 68); font-family: 'Open Sans', verdana, arial, sans-serif; font-size: 15px; fill-opacity: 1; white-space: pre;">(ndf_surr_score > 0)</text><text class="dimlabel" text-anchor="middle" alignment-baseline="baseline" cursor="ew-resize" x="8" y="-5" style="font-family: 'Open Sans', verdana, arial, sans-serif; font-size: 18px; fill: rgb(68, 68, 68); fill-opacity: 1;"/></g><g class="category" transform="translate(0, 259.20000000000005)"><rect class="catrect" pointer-events="none" fill="none" width="16" height="60.800000000000004" stroke="black" stroke-width="1" stroke-opacity="1"/><rect class="bandrect" stroke-opacity="1" fill="rgb(243, 105, 0)" fill-opacity="1" width="16" height="60.800000000000004" y="0" cursor="ns-resize" stroke="black" stroke-width="0.2"/><text class="catlabel" pointer-events="none" text-anchor="end" alignment-baseline="middle" x="-5" y="30.400000000000002" style="text-shadow: rgb(255, 255, 255) -1px 1px 2px, rgb(255, 255, 255) 1px 1px 2px, rgb(255, 255, 255) 1px -1px 2px, rgb(255, 255, 255) -1px -1px 2px; fill: rgb(68, 68, 68); font-family: 'Open Sans', verdana, arial, sans-serif; font-size: 15px; fill-opacity: 1; white-space: pre;">(ndf_surr_score > 0.9)</text><text class="dimlabel" text-anchor="middle" alignment-baseline="baseline" cursor="ew-resize" x="8" y="-5" style="font-family: 'Open Sans', verdana, arial, sans-serif; font-size: 18px; fill: rgb(68, 68, 68); fill-opacity: 1;"/></g></g><g class="dimension" transform="translate(354.6666666666667, 0)"><g class="category" transform="translate(0, 4)"><rect class="catrect" pointer-events="none" fill="none" width="16" height="159.6" stroke="black" stroke-width="1" stroke-opacity="1"/><rect class="bandrect" stroke-opacity="1" fill="rgb(0, 0, 0)" fill-opacity="1" width="16" height="7.6000000000000005" y="0" cursor="ns-resize" stroke="black" stroke-width="0.2"/><rect class="bandrect" stroke-opacity="1" fill="rgb(243, 105, 0)" fill-opacity="1" width="16" height="136.79999999999998" y="7.6000000000000005" cursor="ns-resize" stroke="black" stroke-width="0.2"/><rect class="bandrect" stroke-opacity="1" fill="rgb(255, 255, 255)" fill-opacity="1" width="16" height="15.200000000000001" y="144.39999999999998" cursor="ns-resize" stroke="black" stroke-width="0.2"/><text class="catlabel" pointer-events="none" text-anchor="end" alignment-baseline="middle" x="-5" y="79.8" style="text-shadow: rgb(255, 255, 255) -1px 1px 2px, rgb(255, 255, 255) 1px 1px 2px, rgb(255, 255, 255) 1px -1px 2px, rgb(255, 255, 255) -1px -1px 2px; fill: rgb(68, 68, 68); font-family: 'Open Sans', verdana, arial, sans-serif; font-size: 15px; fill-opacity: 1; white-space: pre;">ndf_score</text><text class="dimlabel" text-anchor="middle" alignment-baseline="baseline" cursor="ew-resize" x="8" y="-5" style="font-family: 'Open Sans', verdana, arial, sans-serif; font-size: 18px; fill: rgb(68, 68, 68); fill-opacity: 1;">Solution combination</text></g><g class="category" transform="translate(0, 171.6)"><rect class="catrect" pointer-events="none" fill="none" width="16" height="144.4" stroke="black" stroke-width="1" stroke-opacity="1"/><rect class="bandrect" stroke-opacity="1" fill="rgb(243, 105, 0)" fill-opacity="1" width="16" height="144.39999999999998" y="0" cursor="ns-resize" stroke="black" stroke-width="0.2"/><text class="catlabel" pointer-events="none" text-anchor="end" alignment-baseline="middle" x="-5" y="72.2" style="text-shadow: rgb(255, 255, 255) -1px 1px 2px, rgb(255, 255, 255) 1px 1px 2px, rgb(255, 255, 255) 1px -1px 2px, rgb(255, 255, 255) -1px -1px 2px; fill: rgb(68, 68, 68); font-family: 'Open Sans', verdana, arial, sans-serif; font-size: 15px; fill-opacity: 1; white-space: pre;">stack</text><text class="dimlabel" text-anchor="middle" alignment-baseline="baseline" cursor="ew-resize" x="8" y="-5" style="font-family: 'Open Sans', verdana, arial, sans-serif; font-size: 18px; fill: rgb(68, 68, 68); fill-opacity: 1;"/></g></g><g class="dimension" transform="translate(512, 0)"><g class="category" transform="translate(0, 4)"><rect class="catrect" pointer-events="none" fill="none" width="16" height="159.6" stroke="black" stroke-width="1" stroke-opacity="1"/><rect class="bandrect" stroke-opacity="1" fill="rgb(0, 0, 0)" fill-opacity="1" width="16" height="7.6000000000000005" y="0" cursor="ns-resize" stroke="black" stroke-width="0.2"/><rect class="bandrect" stroke-opacity="1" fill="rgb(243, 105, 0)" fill-opacity="1" width="16" height="144.39999999999998" y="7.6000000000000005" cursor="ns-resize" stroke="black" stroke-width="0.2"/><rect class="bandrect" stroke-opacity="1" fill="rgb(255, 255, 255)" fill-opacity="1" width="16" height="7.6000000000000005" y="151.99999999999997" cursor="ns-resize" stroke="black" stroke-width="0.2"/><text class="catlabel" pointer-events="none" text-anchor="end" alignment-baseline="middle" x="-5" y="79.8" style="text-shadow: rgb(255, 255, 255) -1px 1px 2px, rgb(255, 255, 255) 1px 1px 2px, rgb(255, 255, 255) 1px -1px 2px, rgb(255, 255, 255) -1px -1px 2px; fill: rgb(68, 68, 68); font-family: 'Open Sans', verdana, arial, sans-serif; font-size: 15px; fill-opacity: 1; white-space: pre;">0.25</text><text class="dimlabel" text-anchor="middle" alignment-baseline="baseline" cursor="ew-resize" x="8" y="-5" style="font-family: 'Open Sans', verdana, arial, sans-serif; font-size: 18px; fill: rgb(68, 68, 68); fill-opacity: 1;">train/test split</text></g><g class="category" transform="translate(0, 171.6)"><rect class="catrect" pointer-events="none" fill="none" width="16" height="144.4" stroke="black" stroke-width="1" stroke-opacity="1"/><rect class="bandrect" stroke-opacity="1" fill="rgb(243, 105, 0)" fill-opacity="1" width="16" height="136.8" y="0" cursor="ns-resize" stroke="black" stroke-width="0.2"/><rect class="bandrect" stroke-opacity="1" fill="rgb(255, 255, 255)" fill-opacity="1" width="16" height="7.6000000000000005" y="136.8" cursor="ns-resize" stroke="black" stroke-width="0.2"/><text class="catlabel" pointer-events="none" text-anchor="end" alignment-baseline="middle" x="-5" y="72.2" style="text-shadow: rgb(255, 255, 255) -1px 1px 2px, rgb(255, 255, 255) 1px 1px 2px, rgb(255, 255, 255) 1px -1px 2px, rgb(255, 255, 255) -1px -1px 2px; fill: rgb(68, 68, 68); font-family: 'Open Sans', verdana, arial, sans-serif; font-size: 15px; fill-opacity: 1; white-space: pre;">0.1</text><text class="dimlabel" text-anchor="middle" alignment-baseline="baseline" cursor="ew-resize" x="8" y="-5" style="font-family: 'Open Sans', verdana, arial, sans-serif; font-size: 18px; fill: rgb(68, 68, 68); fill-opacity: 1;"/></g></g><g class="dimension" transform="translate(669.3333333333334, 0)"><g class="category" transform="translate(0, 4)"><rect class="catrect" pointer-events="none" fill="none" width="16" height="258.4" stroke="black" stroke-width="1" stroke-opacity="1"/><rect class="bandrect" stroke-opacity="1" fill="rgb(0, 0, 0)" fill-opacity="1" width="16" height="7.6000000000000005" y="0" cursor="ns-resize" stroke="black" stroke-width="0.2"/><rect class="bandrect" stroke-opacity="1" fill="rgb(243, 105, 0)" fill-opacity="1" width="16" height="250.7999999999999" y="7.6000000000000005" cursor="ns-resize" stroke="black" stroke-width="0.2"/><text class="catlabel" pointer-events="none" text-anchor="end" alignment-baseline="middle" x="-5" y="129.2" style="text-shadow: rgb(255, 255, 255) -1px 1px 2px, rgb(255, 255, 255) 1px 1px 2px, rgb(255, 255, 255) 1px -1px 2px, rgb(255, 255, 255) -1px -1px 2px; fill: rgb(68, 68, 68); font-family: 'Open Sans', verdana, arial, sans-serif; font-size: 15px; fill-opacity: 1; white-space: pre;">moea_control</text><text class="dimlabel" text-anchor="middle" alignment-baseline="baseline" cursor="ew-resize" x="8" y="-5" style="font-family: 'Open Sans', verdana, arial, sans-serif; font-size: 18px; fill: rgb(68, 68, 68); fill-opacity: 1;">Solver</text></g><g class="category" transform="translate(0, 270.4)"><rect class="catrect" pointer-events="none" fill="none" width="16" height="45.6" stroke="black" stroke-width="1" stroke-opacity="1"/><rect class="bandrect" stroke-opacity="1" fill="rgb(243, 105, 0)" fill-opacity="1" width="16" height="30.400000000000002" y="0" cursor="ns-resize" stroke="black" stroke-width="0.2"/><rect class="bandrect" stroke-opacity="1" fill="rgb(255, 255, 255)" fill-opacity="1" width="16" height="15.200000000000001" y="30.400000000000002" cursor="ns-resize" stroke="black" stroke-width="0.2"/><text class="catlabel" pointer-events="none" text-anchor="end" alignment-baseline="middle" x="-5" y="22.8" style="text-shadow: rgb(255, 255, 255) -1px 1px 2px, rgb(255, 255, 255) 1px 1px 2px, rgb(255, 255, 255) 1px -1px 2px, rgb(255, 255, 255) -1px -1px 2px; fill: rgb(68, 68, 68); font-family: 'Open Sans', verdana, arial, sans-serif; font-size: 15px; fill-opacity: 1; white-space: pre;">nsga2</text><text class="dimlabel" text-anchor="middle" alignment-baseline="baseline" cursor="ew-resize" x="8" y="-5" style="font-family: 'Open Sans', verdana, arial, sans-serif; font-size: 18px; fill: rgb(68, 68, 68); fill-opacity: 1;"/></g></g><g class="dimension" transform="translate(826.6666666666667, 0)"><g class="category" transform="translate(0, 4)"><rect class="catrect" pointer-events="none" fill="none" width="16" height="296.4" stroke="black" stroke-width="1" stroke-opacity="1"/><rect class="bandrect" stroke-opacity="1" fill="rgb(0, 0, 0)" fill-opacity="1" width="16" height="7.6000000000000005" y="0" cursor="ns-resize" stroke="black" stroke-width="0.2"/><rect class="bandrect" stroke-opacity="1" fill="rgb(243, 105, 0)" fill-opacity="1" width="16" height="273.59999999999997" y="7.6000000000000005" cursor="ns-resize" stroke="black" stroke-width="0.2"/><rect class="bandrect" stroke-opacity="1" fill="rgb(255, 255, 255)" fill-opacity="1" width="16" height="15.200000000000001" y="281.2" cursor="ns-resize" stroke="black" stroke-width="0.2"/><text class="catlabel" pointer-events="none" text-anchor="end" alignment-baseline="middle" x="-5" y="148.2" style="text-shadow: rgb(255, 255, 255) -1px 1px 2px, rgb(255, 255, 255) 1px 1px 2px, rgb(255, 255, 255) 1px -1px 2px, rgb(255, 255, 255) -1px -1px 2px; fill: rgb(68, 68, 68); font-family: 'Open Sans', verdana, arial, sans-serif; font-size: 15px; fill-opacity: 1; white-space: pre;">10</text><text class="dimlabel" text-anchor="middle" alignment-baseline="baseline" cursor="ew-resize" x="8" y="-5" style="font-family: 'Open Sans', verdana, arial, sans-serif; font-size: 18px; fill: rgb(68, 68, 68); fill-opacity: 1;">Predict size</text></g><g class="category" transform="translate(0, 308.4)"><rect class="catrect" pointer-events="none" fill="none" width="16" height="7.6000000000000005" stroke="black" stroke-width="1" stroke-opacity="1"/><rect class="bandrect" stroke-opacity="1" fill="rgb(243, 105, 0)" fill-opacity="1" width="16" height="7.6000000000000005" y="0" cursor="ns-resize" stroke="black" stroke-width="0.2"/><text class="catlabel" pointer-events="none" text-anchor="end" alignment-baseline="middle" x="-5" y="3.8000000000000003" style="text-shadow: rgb(255, 255, 255) -1px 1px 2px, rgb(255, 255, 255) 1px 1px 2px, rgb(255, 255, 255) 1px -1px 2px, rgb(255, 255, 255) -1px -1px 2px; fill: rgb(68, 68, 68); font-family: 'Open Sans', verdana, arial, sans-serif; font-size: 15px; fill-opacity: 1; white-space: pre;">100</text><text class="dimlabel" text-anchor="middle" alignment-baseline="baseline" cursor="ew-resize" x="8" y="-5" style="font-family: 'Open Sans', verdana, arial, sans-serif; font-size: 18px; fill: rgb(68, 68, 68); fill-opacity: 1;"/></g></g><g class="dimension" transform="translate(984, 0)"><g class="category" transform="translate(0, 0)"><rect class="catrect" pointer-events="none" fill="none" width="16" height="7.6000000000000005" stroke="black" stroke-width="1" stroke-opacity="1"/><rect class="bandrect" stroke-opacity="1" fill="rgb(0, 0, 0)" fill-opacity="1" width="16" height="7.6000000000000005" y="0" cursor="ns-resize" stroke="black" stroke-width="0.2"/><text class="catlabel" pointer-events="none" text-anchor="start" alignment-baseline="middle" x="21" y="3.8000000000000003" style="text-shadow: rgb(255, 255, 255) -1px 1px 2px, rgb(255, 255, 255) 1px 1px 2px, rgb(255, 255, 255) 1px -1px 2px, rgb(255, 255, 255) -1px -1px 2px; fill: rgb(68, 68, 68); font-family: 'Open Sans', verdana, arial, sans-serif; font-size: 15px; fill-opacity: 1; white-space: pre;">0.1</text><text class="dimlabel" text-anchor="middle" alignment-baseline="baseline" cursor="ew-resize" x="8" y="-5" style="font-family: 'Open Sans', verdana, arial, sans-serif; font-size: 18px; fill: rgb(68, 68, 68); fill-opacity: 1;">p-distance</text></g><g class="category" transform="translate(0, 15.600000000000001)"><rect class="catrect" pointer-events="none" fill="none" width="16" height="281.2" stroke="black" stroke-width="1" stroke-opacity="1"/><rect class="bandrect" stroke-opacity="1" fill="rgb(243, 105, 0)" fill-opacity="1" width="16" height="281.2" y="0" cursor="ns-resize" stroke="black" stroke-width="0.2"/><text class="catlabel" pointer-events="none" text-anchor="start" alignment-baseline="middle" x="21" y="140.6" style="text-shadow: rgb(255, 255, 255) -1px 1px 2px, rgb(255, 255, 255) 1px 1px 2px, rgb(255, 255, 255) 1px -1px 2px, rgb(255, 255, 255) -1px -1px 2px; fill: rgb(68, 68, 68); font-family: 'Open Sans', verdana, arial, sans-serif; font-size: 15px; fill-opacity: 1; white-space: pre;">0.2</text><text class="dimlabel" text-anchor="middle" alignment-baseline="baseline" cursor="ew-resize" x="8" y="-5" style="font-family: 'Open Sans', verdana, arial, sans-serif; font-size: 18px; fill: rgb(68, 68, 68); fill-opacity: 1;"/></g><g class="category" transform="translate(0, 304.8)"><rect class="catrect" pointer-events="none" fill="none" width="16" height="15.200000000000001" stroke="black" stroke-width="1" stroke-opacity="1"/><rect class="bandrect" stroke-opacity="1" fill="rgb(255, 255, 255)" fill-opacity="1" width="16" height="15.200000000000001" y="0" cursor="ns-resize" stroke="black" stroke-width="0.2"/><text class="catlabel" pointer-events="none" text-anchor="start" alignment-baseline="middle" x="21" y="7.6000000000000005" style="text-shadow: rgb(255, 255, 255) -1px 1px 2px, rgb(255, 255, 255) 1px 1px 2px, rgb(255, 255, 255) 1px -1px 2px, rgb(255, 255, 255) -1px -1px 2px; fill: rgb(68, 68, 68); font-family: 'Open Sans', verdana, arial, sans-serif; font-size: 15px; fill-opacity: 1; white-space: pre;">0.3</text><text class="dimlabel" text-anchor="middle" alignment-baseline="baseline" cursor="ew-resize" x="8" y="-5" style="font-family: 'Open Sans', verdana, arial, sans-serif; font-size: 18px; fill: rgb(68, 68, 68); fill-opacity: 1;"/></g></g></g></g></g><defs id="topdefs-ff8c4c"><g class="clips"/></defs><g class="layer-above"><g class="imagelayer"/><g class="shapelayer"/></g><g class="infolayer"><g class="g-gtitle"/></g></svg>