<svg class="main-svg" xmlns="http://www.w3.org/2000/svg" xmlns:xlink="http://www.w3.org/1999/xlink" width="1200" height="500" viewBox="0 0 1200 500"><rect x="0" y="0" width="1200" height="500" style="fill: rgb(255, 255, 255); fill-opacity: 1;"/><defs id="defs-352037"><g class="clips"/><g class="gradients"/></defs><g class="bglayer"/><g class="layer-below"><g class="imagelayer"/><g class="shapelayer"/></g><g class="cartesianlayer"/><g class="polarlayer"/><g class="ternarylayer"/><g class="geolayer"/><g class="funnelarealayer"/><g class="pielayer"/><g class="treemaplayer"/><g class="sunburstlayer"/><g class="glimages"/><g class="parcatslayer" style="pointer-events: all;"><g class="trace parcats" transform="translate(80, 100)"><g class="paths"><path class="path" stroke-opacity="1" fill="rgb(0, 0, 0)" fill-opacity="0.6" stroke="lightgray" stroke-width="0.2" d="M 40,8l16,0 C56,8 197.33333333333334,8 197.33333333333334,8l16,0 C213.33333333333334,8 354.6666666666667,12 354.6666666666667,12l16,0 C370.6666666666667,12 512,12 512,12l16,0 C528,12 669.3333333333334,12 669.3333333333334,12l16,0 C685.3333333333334,12 826.6666666666667,12 826.6666666666667,12l16,0 C842.6666666666667,12 984,0 984,0l16,0 l0,7.2 l -16,0 C984,7.2 842.6666666666667,19.2 842.6666666666667,19.2l-16,0 C826.6666666666667,19.2 685.3333333333334,19.2 685.3333333333334,19.2l-16,0 C669.3333333333334,19.2 528,19.2 528,19.2l-16,0 C512,19.2 370.6666666666667,19.2 370.6666666666667,19.2l-16,0 C354.6666666666667,19.2 213.33333333333334,15.2 213.33333333333334,15.2l-16,0 C197.33333333333334,15.2 56,15.2 56,15.2l-16,0 Z"/><path class="path" stroke-opacity="1" fill="rgb(0, 0, 0)" fill-opacity="0.6" stroke="lightgray" stroke-width="0.2" d="M 40,196l16,0 C56,196 197.33333333333334,131.2 197.33333333333334,131.2l16,0 C213.33333333333334,131.2 354.6666666666667,19.2 354.6666666666667,19.2l16,0 C370.6666666666667,19.2 512,164 512,164l16,0 C528,164 669.3333333333334,19.2 669.3333333333334,19.2l16,0 C685.3333333333334,19.2 826.6666666666667,200 826.6666666666667,200l16,0 C842.6666666666667,200 984,7.2 984,7.2l16,0 l0,7.2 l -16,0 C984,14.4 842.6666666666667,207.2 842.6666666666667,207.2l-16,0 C826.6666666666667,207.2 685.3333333333334,26.4 685.3333333333334,26.4l-16,0 C669.3333333333334,26.4 528,171.2 528,171.2l-16,0 C512,171.2 370.6666666666667,26.4 370.6666666666667,26.4l-16,0 C354.6666666666667,26.4 213.33333333333334,138.39999999999998 213.33333333333334,138.39999999999998l-16,0 C197.33333333333334,138.39999999999998 56,203.2 56,203.2l-16,0 Z"/><path class="path" stroke-opacity="1" fill="rgb(173, 0, 0)" fill-opacity="0.6" stroke="lightgray" stroke-width="0.2" d="M 40,22.4l16,0 C56,22.4 197.33333333333334,138.39999999999998 197.33333333333334,138.39999999999998l16,0 C213.33333333333334,138.39999999999998 354.6666666666667,26.4 354.6666666666667,26.4l16,0 C370.6666666666667,26.4 512,171.2 512,171.2l16,0 C528,171.2 669.3333333333334,33.6 669.3333333333334,33.6l16,0 C685.3333333333334,33.6 826.6666666666667,26.4 826.6666666666667,26.4l16,0 C842.6666666666667,26.4 984,29.599999999999998 984,29.599999999999998l16,0 l0,7.2 l -16,0 C984,36.8 842.6666666666667,33.6 842.6666666666667,33.6l-16,0 C826.6666666666667,33.6 685.3333333333334,40.800000000000004 685.3333333333334,40.800000000000004l-16,0 C669.3333333333334,40.800000000000004 528,178.39999999999998 528,178.39999999999998l-16,0 C512,178.39999999999998 370.6666666666667,33.6 370.6666666666667,33.6l-16,0 C354.6666666666667,33.6 213.33333333333334,145.59999999999997 213.33333333333334,145.59999999999997l-16,0 C197.33333333333334,145.59999999999997 56,29.599999999999998 56,29.599999999999998l-16,0 Z"/><path class="path" stroke-opacity="1" fill="rgb(173, 0, 0)" fill-opacity="0.6" stroke="lightgray" stroke-width="0.2" d="M 40,232.8l16,0 C56,232.8 197.33333333333334,152.79999999999995 197.33333333333334,152.79999999999995l16,0 C213.33333333333334,152.79999999999995 354.6666666666667,33.6 354.6666666666667,33.6l16,0 C370.6666666666667,33.6 512,33.6 512,33.6l16,0 C528,33.6 669.3333333333334,48.00000000000001 669.3333333333334,48.00000000000001l16,0 C685.3333333333334,48.00000000000001 826.6666666666667,40.800000000000004 826.6666666666667,40.800000000000004l16,0 C842.6666666666667,40.800000000000004 984,44 984,44l16,0 l0,7.2 l -16,0 C984,51.2 842.6666666666667,48.00000000000001 842.6666666666667,48.00000000000001l-16,0 C826.6666666666667,48.00000000000001 685.3333333333334,55.20000000000001 685.3333333333334,55.20000000000001l-16,0 C669.3333333333334,55.20000000000001 528,40.800000000000004 528,40.800000000000004l-16,0 C512,40.800000000000004 370.6666666666667,40.800000000000004 370.6666666666667,40.800000000000004l-16,0 C354.6666666666667,40.800000000000004 213.33333333333334,159.99999999999994 213.33333333333334,159.99999999999994l-16,0 C197.33333333333334,159.99999999999994 56,240 56,240l-16,0 Z"/><path class="path" stroke-opacity="1" fill="rgb(173, 0, 0)" fill-opacity="0.6" stroke="lightgray" stroke-width="0.2" d="M 40,15.2l16,0 C56,15.2 197.33333333333334,15.2 197.33333333333334,15.2l16,0 C213.33333333333334,15.2 354.6666666666667,185.6 354.6666666666667,185.6l16,0 C370.6666666666667,185.6 512,19.2 512,19.2l16,0 C528,19.2 669.3333333333334,26.4 669.3333333333334,26.4l16,0 C685.3333333333334,26.4 826.6666666666667,19.2 826.6666666666667,19.2l16,0 C842.6666666666667,19.2 984,22.4 984,22.4l16,0 l0,7.2 l -16,0 C984,29.599999999999998 842.6666666666667,26.4 842.6666666666667,26.4l-16,0 C826.6666666666667,26.4 685.3333333333334,33.6 685.3333333333334,33.6l-16,0 C669.3333333333334,33.6 528,26.4 528,26.4l-16,0 C512,26.4 370.6666666666667,192.79999999999998 370.6666666666667,192.79999999999998l-16,0 C354.6666666666667,192.79999999999998 213.33333333333334,22.4 213.33333333333334,22.4l-16,0 C197.33333333333334,22.4 56,22.4 56,22.4l-16,0 Z"/><path class="path" stroke-opacity="1" fill="rgb(173, 0, 0)" fill-opacity="0.6" stroke="lightgray" stroke-width="0.2" d="M 40,29.599999999999998l16,0 C56,29.599999999999998 197.33333333333334,145.59999999999997 197.33333333333334,145.59999999999997l16,0 C213.33333333333334,145.59999999999997 354.6666666666667,192.79999999999998 354.6666666666667,192.79999999999998l16,0 C370.6666666666667,192.79999999999998 512,26.4 512,26.4l16,0 C528,26.4 669.3333333333334,40.800000000000004 669.3333333333334,40.800000000000004l16,0 C685.3333333333334,40.800000000000004 826.6666666666667,33.6 826.6666666666667,33.6l16,0 C842.6666666666667,33.6 984,36.8 984,36.8l16,0 l0,7.2 l -16,0 C984,44 842.6666666666667,40.800000000000004 842.6666666666667,40.800000000000004l-16,0 C826.6666666666667,40.800000000000004 685.3333333333334,48.00000000000001 685.3333333333334,48.00000000000001l-16,0 C669.3333333333334,48.00000000000001 528,33.6 528,33.6l-16,0 C512,33.6 370.6666666666667,199.99999999999997 370.6666666666667,199.99999999999997l-16,0 C354.6666666666667,199.99999999999997 213.33333333333334,152.79999999999995 213.33333333333334,152.79999999999995l-16,0 C197.33333333333334,152.79999999999995 56,36.8 56,36.8l-16,0 Z"/><path class="path" stroke-opacity="1" fill="rgb(243, 105, 0)" fill-opacity="0.6" stroke="lightgray" stroke-width="0.2" d="M 40,44l16,0 C56,44 197.33333333333334,29.599999999999998 197.33333333333334,29.599999999999998l16,0 C213.33333333333334,29.599999999999998 354.6666666666667,48.00000000000001 354.6666666666667,48.00000000000001l16,0 C370.6666666666667,48.00000000000001 512,178.39999999999998 512,178.39999999999998l16,0 C528,178.39999999999998 669.3333333333334,178.4 669.3333333333334,178.4l16,0 C685.3333333333334,178.4 826.6666666666667,48.00000000000001 826.6666666666667,48.00000000000001l16,0 C842.6666666666667,48.00000000000001 984,66.4 984,66.4l16,0 l0,7.2 l -16,0 C984,73.60000000000001 842.6666666666667,55.20000000000001 842.6666666666667,55.20000000000001l-16,0 C826.6666666666667,55.20000000000001 685.3333333333334,185.6 685.3333333333334,185.6l-16,0 C669.3333333333334,185.6 528,185.59999999999997 528,185.59999999999997l-16,0 C512,185.59999999999997 370.6666666666667,55.20000000000001 370.6666666666667,55.20000000000001l-16,0 C354.6666666666667,55.20000000000001 213.33333333333334,36.8 213.33333333333334,36.8l-16,0 C197.33333333333334,36.8 56,51.2 56,51.2l-16,0 Z"/><path class="path" stroke-opacity="1" fill="rgb(243, 105, 0)" fill-opacity="0.6" stroke="lightgray" stroke-width="0.2" d="M 40,51.2l16,0 C56,51.2 197.33333333333334,36.8 197.33333333333334,36.8l16,0 C213.33333333333334,36.8 354.6666666666667,199.99999999999997 354.6666666666667,199.99999999999997l16,0 C370.6666666666667,199.99999999999997 512,185.59999999999997 512,185.59999999999997l16,0 C528,185.59999999999997 669.3333333333334,185.6 669.3333333333334,185.6l16,0 C685.3333333333334,185.6 826.6666666666667,55.20000000000001 826.6666666666667,55.20000000000001l16,0 C842.6666666666667,55.20000000000001 984,73.60000000000001 984,73.60000000000001l16,0 l0,7.2 l -16,0 C984,80.80000000000001 842.6666666666667,62.40000000000001 842.6666666666667,62.40000000000001l-16,0 C826.6666666666667,62.40000000000001 685.3333333333334,192.79999999999998 685.3333333333334,192.79999999999998l-16,0 C669.3333333333334,192.79999999999998 528,192.79999999999995 528,192.79999999999995l-16,0 C512,192.79999999999995 370.6666666666667,207.19999999999996 370.6666666666667,207.19999999999996l-16,0 C354.6666666666667,207.19999999999996 213.33333333333334,44 213.33333333333334,44l-16,0 C197.33333333333334,44 56,58.400000000000006 56,58.400000000000006l-16,0 Z"/><path class="path" stroke-opacity="1" fill="rgb(243, 105, 0)" fill-opacity="0.6" stroke="lightgray" stroke-width="0.2" d="M 40,58.400000000000006l16,0 C56,58.400000000000006 197.33333333333334,159.99999999999994 197.33333333333334,159.99999999999994l16,0 C213.33333333333334,159.99999999999994 354.6666666666667,55.20000000000001 354.6666666666667,55.20000000000001l16,0 C370.6666666666667,55.20000000000001 512,48.00000000000001 512,48.00000000000001l16,0 C528,48.00000000000001 669.3333333333334,192.79999999999998 669.3333333333334,192.79999999999998l16,0 C685.3333333333334,192.79999999999998 826.6666666666667,214.39999999999998 826.6666666666667,214.39999999999998l16,0 C842.6666666666667,214.39999999999998 984,80.80000000000001 984,80.80000000000001l16,0 l0,7.2 l -16,0 C984,88.00000000000001 842.6666666666667,221.59999999999997 842.6666666666667,221.59999999999997l-16,0 C826.6666666666667,221.59999999999997 685.3333333333334,199.99999999999997 685.3333333333334,199.99999999999997l-16,0 C669.3333333333334,199.99999999999997 528,55.20000000000001 528,55.20000000000001l-16,0 C512,55.20000000000001 370.6666666666667,62.40000000000001 370.6666666666667,62.40000000000001l-16,0 C354.6666666666667,62.40000000000001 213.33333333333334,167.19999999999993 213.33333333333334,167.19999999999993l-16,0 C197.33333333333334,167.19999999999993 56,65.60000000000001 56,65.60000000000001l-16,0 Z"/><path class="path" stroke-opacity="1" fill="rgb(243, 105, 0)" fill-opacity="0.6" stroke="lightgray" stroke-width="0.2" d="M 40,65.60000000000001l16,0 C56,65.60000000000001 197.33333333333334,167.19999999999993 197.33333333333334,167.19999999999993l16,0 C213.33333333333334,167.19999999999993 354.6666666666667,207.19999999999996 354.6666666666667,207.19999999999996l16,0 C370.6666666666667,207.19999999999996 512,192.79999999999995 512,192.79999999999995l16,0 C528,192.79999999999995 669.3333333333334,62.40000000000001 669.3333333333334,62.40000000000001l16,0 C685.3333333333334,62.40000000000001 826.6666666666667,62.40000000000001 826.6666666666667,62.40000000000001l16,0 C842.6666666666667,62.40000000000001 984,88.00000000000001 984,88.00000000000001l16,0 l0,7.2 l -16,0 C984,95.20000000000002 842.6666666666667,69.60000000000001 842.6666666666667,69.60000000000001l-16,0 C826.6666666666667,69.60000000000001 685.3333333333334,69.60000000000001 685.3333333333334,69.60000000000001l-16,0 C669.3333333333334,69.60000000000001 528,199.99999999999994 528,199.99999999999994l-16,0 C512,199.99999999999994 370.6666666666667,214.39999999999995 370.6666666666667,214.39999999999995l-16,0 C354.6666666666667,214.39999999999995 213.33333333333334,174.39999999999992 213.33333333333334,174.39999999999992l-16,0 C197.33333333333334,174.39999999999992 56,72.80000000000001 56,72.80000000000001l-16,0 Z"/><path class="path" stroke-opacity="1" fill="rgb(243, 105, 0)" fill-opacity="0.6" stroke="lightgray" stroke-width="0.2" d="M 40,36.8l16,0 C56,36.8 197.33333333333334,22.4 197.33333333333334,22.4l16,0 C213.33333333333334,22.4 354.6666666666667,40.800000000000004 354.6666666666667,40.800000000000004l16,0 C370.6666666666667,40.800000000000004 512,40.800000000000004 512,40.800000000000004l16,0 C528,40.800000000000004 669.3333333333334,55.20000000000001 669.3333333333334,55.20000000000001l16,0 C685.3333333333334,55.20000000000001 826.6666666666667,207.2 826.6666666666667,207.2l16,0 C842.6666666666667,207.2 984,59.2 984,59.2l16,0 l0,7.2 l -16,0 C984,66.4 842.6666666666667,214.39999999999998 842.6666666666667,214.39999999999998l-16,0 C826.6666666666667,214.39999999999998 685.3333333333334,62.40000000000001 685.3333333333334,62.40000000000001l-16,0 C669.3333333333334,62.40000000000001 528,48.00000000000001 528,48.00000000000001l-16,0 C512,48.00000000000001 370.6666666666667,48.00000000000001 370.6666666666667,48.00000000000001l-16,0 C354.6666666666667,48.00000000000001 213.33333333333334,29.599999999999998 213.33333333333334,29.599999999999998l-16,0 C197.33333333333334,29.599999999999998 56,44 56,44l-16,0 Z"/><path class="path" stroke-opacity="1" fill="rgb(243, 105, 0)" fill-opacity="0.6" stroke="lightgray" stroke-width="0.2" d="M 40,80.00000000000001l16,0 C56,80.00000000000001 197.33333333333334,268.79999999999995 197.33333333333334,268.79999999999995l16,0 C213.33333333333334,268.79999999999995 354.6666666666667,62.40000000000001 354.6666666666667,62.40000000000001l16,0 C370.6666666666667,62.40000000000001 512,55.20000000000001 512,55.20000000000001l16,0 C528,55.20000000000001 669.3333333333334,69.60000000000001 669.3333333333334,69.60000000000001l16,0 C685.3333333333334,69.60000000000001 826.6666666666667,76.80000000000001 826.6666666666667,76.80000000000001l16,0 C842.6666666666667,76.80000000000001 984,102.40000000000002 984,102.40000000000002l16,0 l0,7.2 l -16,0 C984,109.60000000000002 842.6666666666667,84.00000000000001 842.6666666666667,84.00000000000001l-16,0 C826.6666666666667,84.00000000000001 685.3333333333334,76.80000000000001 685.3333333333334,76.80000000000001l-16,0 C669.3333333333334,76.80000000000001 528,62.40000000000001 528,62.40000000000001l-16,0 C512,62.40000000000001 370.6666666666667,69.60000000000001 370.6666666666667,69.60000000000001l-16,0 C354.6666666666667,69.60000000000001 213.33333333333334,275.99999999999994 213.33333333333334,275.99999999999994l-16,0 C197.33333333333334,275.99999999999994 56,87.20000000000002 56,87.20000000000002l-16,0 Z"/><path class="path" stroke-opacity="1" fill="rgb(243, 105, 0)" fill-opacity="0.6" stroke="lightgray" stroke-width="0.2" d="M 40,203.2l16,0 C56,203.2 197.33333333333334,181.5999999999999 197.33333333333334,181.5999999999999l16,0 C213.33333333333334,181.5999999999999 354.6666666666667,69.60000000000001 354.6666666666667,69.60000000000001l16,0 C370.6666666666667,69.60000000000001 512,62.40000000000001 512,62.40000000000001l16,0 C528,62.40000000000001 669.3333333333334,76.80000000000001 669.3333333333334,76.80000000000001l16,0 C685.3333333333334,76.80000000000001 826.6666666666667,221.59999999999997 826.6666666666667,221.59999999999997l16,0 C842.6666666666667,221.59999999999997 984,109.60000000000002 984,109.60000000000002l16,0 l0,7.2 l -16,0 C984,116.80000000000003 842.6666666666667,228.79999999999995 842.6666666666667,228.79999999999995l-16,0 C826.6666666666667,228.79999999999995 685.3333333333334,84.00000000000001 685.3333333333334,84.00000000000001l-16,0 C669.3333333333334,84.00000000000001 528,69.60000000000001 528,69.60000000000001l-16,0 C512,69.60000000000001 370.6666666666667,76.80000000000001 370.6666666666667,76.80000000000001l-16,0 C354.6666666666667,76.80000000000001 213.33333333333334,188.7999999999999 213.33333333333334,188.7999999999999l-16,0 C197.33333333333334,188.7999999999999 56,210.39999999999998 56,210.39999999999998l-16,0 Z"/><path class="path" stroke-opacity="1" fill="rgb(243, 105, 0)" fill-opacity="0.6" stroke="lightgray" stroke-width="0.2" d="M 40,210.39999999999998l16,0 C56,210.39999999999998 197.33333333333334,275.99999999999994 197.33333333333334,275.99999999999994l16,0 C213.33333333333334,275.99999999999994 354.6666666666667,76.80000000000001 354.6666666666667,76.80000000000001l16,0 C370.6666666666667,76.80000000000001 512,69.60000000000001 512,69.60000000000001l16,0 C528,69.60000000000001 669.3333333333334,84.00000000000001 669.3333333333334,84.00000000000001l16,0 C685.3333333333334,84.00000000000001 826.6666666666667,228.79999999999995 826.6666666666667,228.79999999999995l16,0 C842.6666666666667,228.79999999999995 984,116.80000000000003 984,116.80000000000003l16,0 l0,7.2 l -16,0 C984,124.00000000000003 842.6666666666667,235.99999999999994 842.6666666666667,235.99999999999994l-16,0 C826.6666666666667,235.99999999999994 685.3333333333334,91.20000000000002 685.3333333333334,91.20000000000002l-16,0 C669.3333333333334,91.20000000000002 528,76.80000000000001 528,76.80000000000001l-16,0 C512,76.80000000000001 370.6666666666667,84.00000000000001 370.6666666666667,84.00000000000001l-16,0 C354.6666666666667,84.00000000000001 213.33333333333334,283.19999999999993 213.33333333333334,283.19999999999993l-16,0 C197.33333333333334,283.19999999999993 56,217.59999999999997 56,217.59999999999997l-16,0 Z"/><path class="path" stroke-opacity="1" fill="rgb(243, 105, 0)" fill-opacity="0.6" stroke="lightgray" stroke-width="0.2" d="M 40,240l16,0 C56,240 197.33333333333334,44 197.33333333333334,44l16,0 C213.33333333333334,44 354.6666666666667,84.00000000000001 354.6666666666667,84.00000000000001l16,0 C370.6666666666667,84.00000000000001 512,207.19999999999993 512,207.19999999999993l16,0 C528,207.19999999999993 669.3333333333334,91.20000000000002 669.3333333333334,91.20000000000002l16,0 C685.3333333333334,91.20000000000002 826.6666666666667,84.00000000000001 826.6666666666667,84.00000000000001l16,0 C842.6666666666667,84.00000000000001 984,124.00000000000003 984,124.00000000000003l16,0 l0,7.2 l -16,0 C984,131.20000000000002 842.6666666666667,91.20000000000002 842.6666666666667,91.20000000000002l-16,0 C826.6666666666667,91.20000000000002 685.3333333333334,98.40000000000002 685.3333333333334,98.40000000000002l-16,0 C669.3333333333334,98.40000000000002 528,214.39999999999992 528,214.39999999999992l-16,0 C512,214.39999999999992 370.6666666666667,91.20000000000002 370.6666666666667,91.20000000000002l-16,0 C354.6666666666667,91.20000000000002 213.33333333333334,51.2 213.33333333333334,51.2l-16,0 C197.33333333333334,51.2 56,247.2 56,247.2l-16,0 Z"/><path class="path" stroke-opacity="1" fill="rgb(243, 105, 0)" fill-opacity="0.6" stroke="lightgray" stroke-width="0.2" d="M 40,247.2l16,0 C56,247.2 197.33333333333334,51.2 197.33333333333334,51.2l16,0 C213.33333333333334,51.2 354.6666666666667,221.59999999999994 354.6666666666667,221.59999999999994l16,0 C370.6666666666667,221.59999999999994 512,76.80000000000001 512,76.80000000000001l16,0 C528,76.80000000000001 669.3333333333334,98.40000000000002 669.3333333333334,98.40000000000002l16,0 C685.3333333333334,98.40000000000002 826.6666666666667,91.20000000000002 826.6666666666667,91.20000000000002l16,0 C842.6666666666667,91.20000000000002 984,131.20000000000002 984,131.20000000000002l16,0 l0,7.2 l -16,0 C984,138.4 842.6666666666667,98.40000000000002 842.6666666666667,98.40000000000002l-16,0 C826.6666666666667,98.40000000000002 685.3333333333334,105.60000000000002 685.3333333333334,105.60000000000002l-16,0 C669.3333333333334,105.60000000000002 528,84.00000000000001 528,84.00000000000001l-16,0 C512,84.00000000000001 370.6666666666667,228.79999999999993 370.6666666666667,228.79999999999993l-16,0 C354.6666666666667,228.79999999999993 213.33333333333334,58.400000000000006 213.33333333333334,58.400000000000006l-16,0 C197.33333333333334,58.400000000000006 56,254.39999999999998 56,254.39999999999998l-16,0 Z"/><path class="path" stroke-opacity="1" fill="rgb(243, 105, 0)" fill-opacity="0.6" stroke="lightgray" stroke-width="0.2" d="M 40,254.39999999999998l16,0 C56,254.39999999999998 197.33333333333334,188.7999999999999 197.33333333333334,188.7999999999999l16,0 C213.33333333333334,188.7999999999999 354.6666666666667,91.20000000000002 354.6666666666667,91.20000000000002l16,0 C370.6666666666667,91.20000000000002 512,84.00000000000001 512,84.00000000000001l16,0 C528,84.00000000000001 669.3333333333334,105.60000000000002 669.3333333333334,105.60000000000002l16,0 C685.3333333333334,105.60000000000002 826.6666666666667,98.40000000000002 826.6666666666667,98.40000000000002l16,0 C842.6666666666667,98.40000000000002 984,138.4 984,138.4l16,0 l0,7.2 l -16,0 C984,145.6 842.6666666666667,105.60000000000002 842.6666666666667,105.60000000000002l-16,0 C826.6666666666667,105.60000000000002 685.3333333333334,112.80000000000003 685.3333333333334,112.80000000000003l-16,0 C669.3333333333334,112.80000000000003 528,91.20000000000002 528,91.20000000000002l-16,0 C512,91.20000000000002 370.6666666666667,98.40000000000002 370.6666666666667,98.40000000000002l-16,0 C354.6666666666667,98.40000000000002 213.33333333333334,195.9999999999999 213.33333333333334,195.9999999999999l-16,0 C197.33333333333334,195.9999999999999 56,261.59999999999997 56,261.59999999999997l-16,0 Z"/><path class="path" stroke-opacity="1" fill="rgb(243, 105, 0)" fill-opacity="0.6" stroke="lightgray" stroke-width="0.2" d="M 40,261.59999999999997l16,0 C56,261.59999999999997 197.33333333333334,283.19999999999993 197.33333333333334,283.19999999999993l16,0 C213.33333333333334,283.19999999999993 354.6666666666667,228.79999999999993 354.6666666666667,228.79999999999993l16,0 C370.6666666666667,228.79999999999993 512,214.39999999999992 512,214.39999999999992l16,0 C528,214.39999999999992 669.3333333333334,207.19999999999996 669.3333333333334,207.19999999999996l16,0 C685.3333333333334,207.19999999999996 826.6666666666667,235.99999999999994 826.6666666666667,235.99999999999994l16,0 C842.6666666666667,235.99999999999994 984,145.6 984,145.6l16,0 l0,7.2 l -16,0 C984,152.79999999999998 842.6666666666667,243.19999999999993 842.6666666666667,243.19999999999993l-16,0 C826.6666666666667,243.19999999999993 685.3333333333334,214.39999999999995 685.3333333333334,214.39999999999995l-16,0 C669.3333333333334,214.39999999999995 528,221.5999999999999 528,221.5999999999999l-16,0 C512,221.5999999999999 370.6666666666667,235.99999999999991 370.6666666666667,235.99999999999991l-16,0 C354.6666666666667,235.99999999999991 213.33333333333334,290.3999999999999 213.33333333333334,290.3999999999999l-16,0 C197.33333333333334,290.3999999999999 56,268.79999999999995 56,268.79999999999995l-16,0 Z"/><path class="path" stroke-opacity="1" fill="rgb(243, 105, 0)" fill-opacity="0.6" stroke="lightgray" stroke-width="0.2" d="M 40,72.80000000000001l16,0 C56,72.80000000000001 197.33333333333334,174.39999999999992 197.33333333333334,174.39999999999992l16,0 C213.33333333333334,174.39999999999992 354.6666666666667,214.39999999999995 354.6666666666667,214.39999999999995l16,0 C370.6666666666667,214.39999999999995 512,199.99999999999994 512,199.99999999999994l16,0 C528,199.99999999999994 669.3333333333334,199.99999999999997 669.3333333333334,199.99999999999997l16,0 C685.3333333333334,199.99999999999997 826.6666666666667,69.60000000000001 826.6666666666667,69.60000000000001l16,0 C842.6666666666667,69.60000000000001 984,95.20000000000002 984,95.20000000000002l16,0 l0,7.2 l -16,0 C984,102.40000000000002 842.6666666666667,76.80000000000001 842.6666666666667,76.80000000000001l-16,0 C826.6666666666667,76.80000000000001 685.3333333333334,207.19999999999996 685.3333333333334,207.19999999999996l-16,0 C669.3333333333334,207.19999999999996 528,207.19999999999993 528,207.19999999999993l-16,0 C512,207.19999999999993 370.6666666666667,221.59999999999994 370.6666666666667,221.59999999999994l-16,0 C354.6666666666667,221.59999999999994 213.33333333333334,181.5999999999999 213.33333333333334,181.5999999999999l-16,0 C197.33333333333334,181.5999999999999 56,80.00000000000001 56,80.00000000000001l-16,0 Z"/><path class="path" stroke-opacity="1" fill="rgb(255, 221, 64)" fill-opacity="0.6" stroke="lightgray" stroke-width="0.2" d="M 40,87.20000000000002l16,0 C56,87.20000000000002 197.33333333333334,58.400000000000006 197.33333333333334,58.400000000000006l16,0 C213.33333333333334,58.400000000000006 354.6666666666667,98.40000000000002 354.6666666666667,98.40000000000002l16,0 C370.6666666666667,98.40000000000002 512,91.20000000000002 512,91.20000000000002l16,0 C528,91.20000000000002 669.3333333333334,214.39999999999995 669.3333333333334,214.39999999999995l16,0 C685.3333333333334,214.39999999999995 826.6666666666667,243.19999999999993 826.6666666666667,243.19999999999993l16,0 C842.6666666666667,243.19999999999993 984,160.8 984,160.8l16,0 l0,7.2 l -16,0 C984,168 842.6666666666667,250.39999999999992 842.6666666666667,250.39999999999992l-16,0 C826.6666666666667,250.39999999999992 685.3333333333334,221.59999999999994 685.3333333333334,221.59999999999994l-16,0 C669.3333333333334,221.59999999999994 528,98.40000000000002 528,98.40000000000002l-16,0 C512,98.40000000000002 370.6666666666667,105.60000000000002 370.6666666666667,105.60000000000002l-16,0 C354.6666666666667,105.60000000000002 213.33333333333334,65.60000000000001 213.33333333333334,65.60000000000001l-16,0 C197.33333333333334,65.60000000000001 56,94.40000000000002 56,94.40000000000002l-16,0 Z"/><path class="path" stroke-opacity="1" fill="rgb(255, 221, 64)" fill-opacity="0.6" stroke="lightgray" stroke-width="0.2" d="M 40,94.40000000000002l16,0 C56,94.40000000000002 197.33333333333334,65.60000000000001 197.33333333333334,65.60000000000001l16,0 C213.33333333333334,65.60000000000001 354.6666666666667,105.60000000000002 354.6666666666667,105.60000000000002l16,0 C370.6666666666667,105.60000000000002 512,221.5999999999999 512,221.5999999999999l16,0 C528,221.5999999999999 669.3333333333334,221.59999999999994 669.3333333333334,221.59999999999994l16,0 C685.3333333333334,221.59999999999994 826.6666666666667,105.60000000000002 826.6666666666667,105.60000000000002l16,0 C842.6666666666667,105.60000000000002 984,168 984,168l16,0 l0,7.2 l -16,0 C984,175.2 842.6666666666667,112.80000000000003 842.6666666666667,112.80000000000003l-16,0 C826.6666666666667,112.80000000000003 685.3333333333334,228.79999999999993 685.3333333333334,228.79999999999993l-16,0 C669.3333333333334,228.79999999999993 528,228.7999999999999 528,228.7999999999999l-16,0 C512,228.7999999999999 370.6666666666667,112.80000000000003 370.6666666666667,112.80000000000003l-16,0 C354.6666666666667,112.80000000000003 213.33333333333334,72.80000000000001 213.33333333333334,72.80000000000001l-16,0 C197.33333333333334,72.80000000000001 56,101.60000000000002 56,101.60000000000002l-16,0 Z"/><path class="path" stroke-opacity="1" fill="rgb(255, 221, 64)" fill-opacity="0.6" stroke="lightgray" stroke-width="0.2" d="M 40,101.60000000000002l16,0 C56,101.60000000000002 197.33333333333334,72.80000000000001 197.33333333333334,72.80000000000001l16,0 C213.33333333333334,72.80000000000001 354.6666666666667,235.99999999999991 354.6666666666667,235.99999999999991l16,0 C370.6666666666667,235.99999999999991 512,98.40000000000002 512,98.40000000000002l16,0 C528,98.40000000000002 669.3333333333334,228.79999999999993 669.3333333333334,228.79999999999993l16,0 C685.3333333333334,228.79999999999993 826.6666666666667,112.80000000000003 826.6666666666667,112.80000000000003l16,0 C842.6666666666667,112.80000000000003 984,175.2 984,175.2l16,0 l0,7.2 l -16,0 C984,182.39999999999998 842.6666666666667,120.00000000000003 842.6666666666667,120.00000000000003l-16,0 C826.6666666666667,120.00000000000003 685.3333333333334,235.99999999999991 685.3333333333334,235.99999999999991l-16,0 C669.3333333333334,235.99999999999991 528,105.60000000000002 528,105.60000000000002l-16,0 C512,105.60000000000002 370.6666666666667,243.1999999999999 370.6666666666667,243.1999999999999l-16,0 C354.6666666666667,243.1999999999999 213.33333333333334,80.00000000000001 213.33333333333334,80.00000000000001l-16,0 C197.33333333333334,80.00000000000001 56,108.80000000000003 56,108.80000000000003l-16,0 Z"/><path class="path" stroke-opacity="1" fill="rgb(255, 221, 64)" fill-opacity="0.6" stroke="lightgray" stroke-width="0.2" d="M 40,108.80000000000003l16,0 C56,108.80000000000003 197.33333333333334,80.00000000000001 197.33333333333334,80.00000000000001l16,0 C213.33333333333334,80.00000000000001 354.6666666666667,243.1999999999999 354.6666666666667,243.1999999999999l16,0 C370.6666666666667,243.1999999999999 512,228.7999999999999 512,228.7999999999999l16,0 C528,228.7999999999999 669.3333333333334,112.80000000000003 669.3333333333334,112.80000000000003l16,0 C685.3333333333334,112.80000000000003 826.6666666666667,250.39999999999992 826.6666666666667,250.39999999999992l16,0 C842.6666666666667,250.39999999999992 984,182.39999999999998 984,182.39999999999998l16,0 l0,7.2 l -16,0 C984,189.59999999999997 842.6666666666667,257.5999999999999 842.6666666666667,257.5999999999999l-16,0 C826.6666666666667,257.5999999999999 685.3333333333334,120.00000000000003 685.3333333333334,120.00000000000003l-16,0 C669.3333333333334,120.00000000000003 528,235.9999999999999 528,235.9999999999999l-16,0 C512,235.9999999999999 370.6666666666667,250.3999999999999 370.6666666666667,250.3999999999999l-16,0 C354.6666666666667,250.3999999999999 213.33333333333334,87.20000000000002 213.33333333333334,87.20000000000002l-16,0 C197.33333333333334,87.20000000000002 56,116.00000000000003 56,116.00000000000003l-16,0 Z"/><path class="path" stroke-opacity="1" fill="rgb(255, 221, 64)" fill-opacity="0.6" stroke="lightgray" stroke-width="0.2" d="M 40,116.00000000000003l16,0 C56,116.00000000000003 197.33333333333334,195.9999999999999 197.33333333333334,195.9999999999999l16,0 C213.33333333333334,195.9999999999999 354.6666666666667,250.3999999999999 354.6666666666667,250.3999999999999l16,0 C370.6666666666667,250.3999999999999 512,105.60000000000002 512,105.60000000000002l16,0 C528,105.60000000000002 669.3333333333334,235.99999999999991 669.3333333333334,235.99999999999991l16,0 C685.3333333333334,235.99999999999991 826.6666666666667,257.5999999999999 826.6666666666667,257.5999999999999l16,0 C842.6666666666667,257.5999999999999 984,189.59999999999997 984,189.59999999999997l16,0 l0,14.4 l -16,0 C984,203.99999999999997 842.6666666666667,271.9999999999999 842.6666666666667,271.9999999999999l-16,0 C826.6666666666667,271.9999999999999 685.3333333333334,250.39999999999992 685.3333333333334,250.39999999999992l-16,0 C669.3333333333334,250.39999999999992 528,120.00000000000003 528,120.00000000000003l-16,0 C512,120.00000000000003 370.6666666666667,264.7999999999999 370.6666666666667,264.7999999999999l-16,0 C354.6666666666667,264.7999999999999 213.33333333333334,210.3999999999999 213.33333333333334,210.3999999999999l-16,0 C197.33333333333334,210.3999999999999 56,130.40000000000003 56,130.40000000000003l-16,0 Z"/><path class="path" stroke-opacity="1" fill="rgb(255, 221, 64)" fill-opacity="0.6" stroke="lightgray" stroke-width="0.2" d="M 40,130.40000000000003l16,0 C56,130.40000000000003 197.33333333333334,210.3999999999999 197.33333333333334,210.3999999999999l16,0 C213.33333333333334,210.3999999999999 354.6666666666667,264.7999999999999 354.6666666666667,264.7999999999999l16,0 C370.6666666666667,264.7999999999999 512,235.9999999999999 512,235.9999999999999l16,0 C528,235.9999999999999 669.3333333333334,120.00000000000003 669.3333333333334,120.00000000000003l16,0 C685.3333333333334,120.00000000000003 826.6666666666667,120.00000000000003 826.6666666666667,120.00000000000003l16,0 C842.6666666666667,120.00000000000003 984,203.99999999999997 984,203.99999999999997l16,0 l0,7.2 l -16,0 C984,211.19999999999996 842.6666666666667,127.20000000000003 842.6666666666667,127.20000000000003l-16,0 C826.6666666666667,127.20000000000003 685.3333333333334,127.20000000000003 685.3333333333334,127.20000000000003l-16,0 C669.3333333333334,127.20000000000003 528,243.19999999999987 528,243.19999999999987l-16,0 C512,243.19999999999987 370.6666666666667,271.9999999999999 370.6666666666667,271.9999999999999l-16,0 C354.6666666666667,271.9999999999999 213.33333333333334,217.59999999999988 213.33333333333334,217.59999999999988l-16,0 C197.33333333333334,217.59999999999988 56,137.60000000000002 56,137.60000000000002l-16,0 Z"/><path class="path" stroke-opacity="1" fill="rgb(255, 221, 64)" fill-opacity="0.6" stroke="lightgray" stroke-width="0.2" d="M 40,137.60000000000002l16,0 C56,137.60000000000002 197.33333333333334,217.59999999999988 197.33333333333334,217.59999999999988l16,0 C213.33333333333334,217.59999999999988 354.6666666666667,271.9999999999999 354.6666666666667,271.9999999999999l16,0 C370.6666666666667,271.9999999999999 512,243.19999999999987 512,243.19999999999987l16,0 C528,243.19999999999987 669.3333333333334,127.20000000000003 669.3333333333334,127.20000000000003l16,0 C685.3333333333334,127.20000000000003 826.6666666666667,271.9999999999999 826.6666666666667,271.9999999999999l16,0 C842.6666666666667,271.9999999999999 984,211.19999999999996 984,211.19999999999996l16,0 l0,7.2 l -16,0 C984,218.39999999999995 842.6666666666667,279.1999999999999 842.6666666666667,279.1999999999999l-16,0 C826.6666666666667,279.1999999999999 685.3333333333334,134.40000000000003 685.3333333333334,134.40000000000003l-16,0 C669.3333333333334,134.40000000000003 528,250.39999999999986 528,250.39999999999986l-16,0 C512,250.39999999999986 370.6666666666667,279.1999999999999 370.6666666666667,279.1999999999999l-16,0 C354.6666666666667,279.1999999999999 213.33333333333334,224.79999999999987 213.33333333333334,224.79999999999987l-16,0 C197.33333333333334,224.79999999999987 56,144.8 56,144.8l-16,0 Z"/><path class="path" stroke-opacity="1" fill="rgb(255, 221, 64)" fill-opacity="0.6" stroke="lightgray" stroke-width="0.2" d="M 40,144.8l16,0 C56,144.8 197.33333333333334,224.79999999999987 197.33333333333334,224.79999999999987l16,0 C213.33333333333334,224.79999999999987 354.6666666666667,279.1999999999999 354.6666666666667,279.1999999999999l16,0 C370.6666666666667,279.1999999999999 512,250.39999999999986 512,250.39999999999986l16,0 C528,250.39999999999986 669.3333333333334,250.39999999999992 669.3333333333334,250.39999999999992l16,0 C685.3333333333334,250.39999999999992 826.6666666666667,127.20000000000003 826.6666666666667,127.20000000000003l16,0 C842.6666666666667,127.20000000000003 984,218.39999999999995 984,218.39999999999995l16,0 l0,7.2 l -16,0 C984,225.59999999999994 842.6666666666667,134.40000000000003 842.6666666666667,134.40000000000003l-16,0 C826.6666666666667,134.40000000000003 685.3333333333334,257.5999999999999 685.3333333333334,257.5999999999999l-16,0 C669.3333333333334,257.5999999999999 528,257.59999999999985 528,257.59999999999985l-16,0 C512,257.59999999999985 370.6666666666667,286.39999999999986 370.6666666666667,286.39999999999986l-16,0 C354.6666666666667,286.39999999999986 213.33333333333334,231.99999999999986 213.33333333333334,231.99999999999986l-16,0 C197.33333333333334,231.99999999999986 56,152 56,152l-16,0 Z"/><path class="path" stroke-opacity="1" fill="rgb(255, 221, 64)" fill-opacity="0.6" stroke="lightgray" stroke-width="0.2" d="M 40,152l16,0 C56,152 197.33333333333334,290.3999999999999 197.33333333333334,290.3999999999999l16,0 C213.33333333333334,290.3999999999999 354.6666666666667,112.80000000000003 354.6666666666667,112.80000000000003l16,0 C370.6666666666667,112.80000000000003 512,120.00000000000003 512,120.00000000000003l16,0 C528,120.00000000000003 669.3333333333334,257.5999999999999 669.3333333333334,257.5999999999999l16,0 C685.3333333333334,257.5999999999999 826.6666666666667,279.1999999999999 826.6666666666667,279.1999999999999l16,0 C842.6666666666667,279.1999999999999 984,225.59999999999994 984,225.59999999999994l16,0 l0,7.2 l -16,0 C984,232.79999999999993 842.6666666666667,286.39999999999986 842.6666666666667,286.39999999999986l-16,0 C826.6666666666667,286.39999999999986 685.3333333333334,264.7999999999999 685.3333333333334,264.7999999999999l-16,0 C669.3333333333334,264.7999999999999 528,127.20000000000003 528,127.20000000000003l-16,0 C512,127.20000000000003 370.6666666666667,120.00000000000003 370.6666666666667,120.00000000000003l-16,0 C354.6666666666667,120.00000000000003 213.33333333333334,297.5999999999999 213.33333333333334,297.5999999999999l-16,0 C197.33333333333334,297.5999999999999 56,159.2 56,159.2l-16,0 Z"/><path class="path" stroke-opacity="1" fill="rgb(255, 221, 64)" fill-opacity="0.6" stroke="lightgray" stroke-width="0.2" d="M 40,217.59999999999997l16,0 C56,217.59999999999997 197.33333333333334,297.5999999999999 197.33333333333334,297.5999999999999l16,0 C213.33333333333334,297.5999999999999 354.6666666666667,120.00000000000003 354.6666666666667,120.00000000000003l16,0 C370.6666666666667,120.00000000000003 512,257.59999999999985 512,257.59999999999985l16,0 C528,257.59999999999985 669.3333333333334,134.40000000000003 669.3333333333334,134.40000000000003l16,0 C685.3333333333334,134.40000000000003 826.6666666666667,286.39999999999986 826.6666666666667,286.39999999999986l16,0 C842.6666666666667,286.39999999999986 984,232.79999999999993 984,232.79999999999993l16,0 l0,7.2 l -16,0 C984,239.99999999999991 842.6666666666667,293.59999999999985 842.6666666666667,293.59999999999985l-16,0 C826.6666666666667,293.59999999999985 685.3333333333334,141.60000000000002 685.3333333333334,141.60000000000002l-16,0 C669.3333333333334,141.60000000000002 528,264.79999999999984 528,264.79999999999984l-16,0 C512,264.79999999999984 370.6666666666667,127.20000000000003 370.6666666666667,127.20000000000003l-16,0 C354.6666666666667,127.20000000000003 213.33333333333334,304.7999999999999 213.33333333333334,304.7999999999999l-16,0 C197.33333333333334,304.7999999999999 56,224.79999999999995 56,224.79999999999995l-16,0 Z"/><path class="path" stroke-opacity="1" fill="rgb(255, 221, 64)" fill-opacity="0.6" stroke="lightgray" stroke-width="0.2" d="M 40,268.79999999999995l16,0 C56,268.79999999999995 197.33333333333334,87.20000000000002 197.33333333333334,87.20000000000002l16,0 C213.33333333333334,87.20000000000002 354.6666666666667,127.20000000000003 354.6666666666667,127.20000000000003l16,0 C370.6666666666667,127.20000000000003 512,127.20000000000003 512,127.20000000000003l16,0 C528,127.20000000000003 669.3333333333334,264.7999999999999 669.3333333333334,264.7999999999999l16,0 C685.3333333333334,264.7999999999999 826.6666666666667,134.40000000000003 826.6666666666667,134.40000000000003l16,0 C842.6666666666667,134.40000000000003 984,239.99999999999991 984,239.99999999999991l16,0 l0,7.2 l -16,0 C984,247.1999999999999 842.6666666666667,141.60000000000002 842.6666666666667,141.60000000000002l-16,0 C826.6666666666667,141.60000000000002 685.3333333333334,271.9999999999999 685.3333333333334,271.9999999999999l-16,0 C669.3333333333334,271.9999999999999 528,134.40000000000003 528,134.40000000000003l-16,0 C512,134.40000000000003 370.6666666666667,134.40000000000003 370.6666666666667,134.40000000000003l-16,0 C354.6666666666667,134.40000000000003 213.33333333333334,94.40000000000002 213.33333333333334,94.40000000000002l-16,0 C197.33333333333334,94.40000000000002 56,275.99999999999994 56,275.99999999999994l-16,0 Z"/><path class="path" stroke-opacity="1" fill="rgb(255, 221, 64)" fill-opacity="0.6" stroke="lightgray" stroke-width="0.2" d="M 40,275.99999999999994l16,0 C56,275.99999999999994 197.33333333333334,231.99999999999986 197.33333333333334,231.99999999999986l16,0 C213.33333333333334,231.99999999999986 354.6666666666667,134.40000000000003 354.6666666666667,134.40000000000003l16,0 C370.6666666666667,134.40000000000003 512,134.40000000000003 512,134.40000000000003l16,0 C528,134.40000000000003 669.3333333333334,271.9999999999999 669.3333333333334,271.9999999999999l16,0 C685.3333333333334,271.9999999999999 826.6666666666667,141.60000000000002 826.6666666666667,141.60000000000002l16,0 C842.6666666666667,141.60000000000002 984,247.1999999999999 984,247.1999999999999l16,0 l0,7.2 l -16,0 C984,254.3999999999999 842.6666666666667,148.8 842.6666666666667,148.8l-16,0 C826.6666666666667,148.8 685.3333333333334,279.1999999999999 685.3333333333334,279.1999999999999l-16,0 C669.3333333333334,279.1999999999999 528,141.60000000000002 528,141.60000000000002l-16,0 C512,141.60000000000002 370.6666666666667,141.60000000000002 370.6666666666667,141.60000000000002l-16,0 C354.6666666666667,141.60000000000002 213.33333333333334,239.19999999999985 213.33333333333334,239.19999999999985l-16,0 C197.33333333333334,239.19999999999985 56,283.19999999999993 56,283.19999999999993l-16,0 Z"/><path class="path" stroke-opacity="1" fill="rgb(255, 221, 64)" fill-opacity="0.6" stroke="lightgray" stroke-width="0.2" d="M 40,283.19999999999993l16,0 C56,283.19999999999993 197.33333333333334,239.19999999999985 197.33333333333334,239.19999999999985l16,0 C213.33333333333334,239.19999999999985 354.6666666666667,141.60000000000002 354.6666666666667,141.60000000000002l16,0 C370.6666666666667,141.60000000000002 512,141.60000000000002 512,141.60000000000002l16,0 C528,141.60000000000002 669.3333333333334,279.1999999999999 669.3333333333334,279.1999999999999l16,0 C685.3333333333334,279.1999999999999 826.6666666666667,293.59999999999985 826.6666666666667,293.59999999999985l16,0 C842.6666666666667,293.59999999999985 984,254.3999999999999 984,254.3999999999999l16,0 l0,7.2 l -16,0 C984,261.5999999999999 842.6666666666667,300.79999999999984 842.6666666666667,300.79999999999984l-16,0 C826.6666666666667,300.79999999999984 685.3333333333334,286.39999999999986 685.3333333333334,286.39999999999986l-16,0 C669.3333333333334,286.39999999999986 528,148.8 528,148.8l-16,0 C512,148.8 370.6666666666667,148.8 370.6666666666667,148.8l-16,0 C354.6666666666667,148.8 213.33333333333334,246.39999999999984 213.33333333333334,246.39999999999984l-16,0 C197.33333333333334,246.39999999999984 56,290.3999999999999 56,290.3999999999999l-16,0 Z"/><path class="path" stroke-opacity="1" fill="rgb(255, 221, 64)" fill-opacity="0.6" stroke="lightgray" stroke-width="0.2" d="M 40,290.3999999999999l16,0 C56,290.3999999999999 197.33333333333334,246.39999999999984 197.33333333333334,246.39999999999984l16,0 C213.33333333333334,246.39999999999984 354.6666666666667,148.8 354.6666666666667,148.8l16,0 C370.6666666666667,148.8 512,264.79999999999984 512,264.79999999999984l16,0 C528,264.79999999999984 669.3333333333334,141.60000000000002 669.3333333333334,141.60000000000002l16,0 C685.3333333333334,141.60000000000002 826.6666666666667,148.8 826.6666666666667,148.8l16,0 C842.6666666666667,148.8 984,261.5999999999999 984,261.5999999999999l16,0 l0,14.4 l -16,0 C984,275.9999999999999 842.6666666666667,163.20000000000002 842.6666666666667,163.20000000000002l-16,0 C826.6666666666667,163.20000000000002 685.3333333333334,156.00000000000003 685.3333333333334,156.00000000000003l-16,0 C669.3333333333334,156.00000000000003 528,279.1999999999998 528,279.1999999999998l-16,0 C512,279.1999999999998 370.6666666666667,163.20000000000002 370.6666666666667,163.20000000000002l-16,0 C354.6666666666667,163.20000000000002 213.33333333333334,260.79999999999984 213.33333333333334,260.79999999999984l-16,0 C197.33333333333334,260.79999999999984 56,304.7999999999999 56,304.7999999999999l-16,0 Z"/><path class="path" stroke-opacity="1" fill="rgb(255, 221, 64)" fill-opacity="0.6" stroke="lightgray" stroke-width="0.2" d="M 40,304.7999999999999l16,0 C56,304.7999999999999 197.33333333333334,304.7999999999999 197.33333333333334,304.7999999999999l16,0 C213.33333333333334,304.7999999999999 354.6666666666667,163.20000000000002 354.6666666666667,163.20000000000002l16,0 C370.6666666666667,163.20000000000002 512,279.1999999999998 512,279.1999999999998l16,0 C528,279.1999999999998 669.3333333333334,286.39999999999986 669.3333333333334,286.39999999999986l16,0 C685.3333333333334,286.39999999999986 826.6666666666667,300.79999999999984 826.6666666666667,300.79999999999984l16,0 C842.6666666666667,300.79999999999984 984,275.9999999999999 984,275.9999999999999l16,0 l0,7.2 l -16,0 C984,283.1999999999999 842.6666666666667,307.99999999999983 842.6666666666667,307.99999999999983l-16,0 C826.6666666666667,307.99999999999983 685.3333333333334,293.59999999999985 685.3333333333334,293.59999999999985l-16,0 C669.3333333333334,293.59999999999985 528,286.3999999999998 528,286.3999999999998l-16,0 C512,286.3999999999998 370.6666666666667,170.4 370.6666666666667,170.4l-16,0 C354.6666666666667,170.4 213.33333333333334,311.9999999999999 213.33333333333334,311.9999999999999l-16,0 C197.33333333333334,311.9999999999999 56,311.9999999999999 56,311.9999999999999l-16,0 Z"/><path class="path" stroke-opacity="1" fill="rgb(255, 255, 255)" fill-opacity="0.6" stroke="lightgray" stroke-width="0.2" d="M 40,159.2l16,0 C56,159.2 197.33333333333334,94.40000000000002 197.33333333333334,94.40000000000002l16,0 C213.33333333333334,94.40000000000002 354.6666666666667,170.4 354.6666666666667,170.4l16,0 C370.6666666666667,170.4 512,286.3999999999998 512,286.3999999999998l16,0 C528,286.3999999999998 669.3333333333334,156.00000000000003 669.3333333333334,156.00000000000003l16,0 C685.3333333333334,156.00000000000003 826.6666666666667,163.20000000000002 826.6666666666667,163.20000000000002l16,0 C842.6666666666667,163.20000000000002 984,291.2 984,291.2l16,0 l0,7.2 l -16,0 C984,298.4 842.6666666666667,170.4 842.6666666666667,170.4l-16,0 C826.6666666666667,170.4 685.3333333333334,163.20000000000002 685.3333333333334,163.20000000000002l-16,0 C669.3333333333334,163.20000000000002 528,293.5999999999998 528,293.5999999999998l-16,0 C512,293.5999999999998 370.6666666666667,177.6 370.6666666666667,177.6l-16,0 C354.6666666666667,177.6 213.33333333333334,101.60000000000002 213.33333333333334,101.60000000000002l-16,0 C197.33333333333334,101.60000000000002 56,166.39999999999998 56,166.39999999999998l-16,0 Z"/><path class="path" stroke-opacity="1" fill="rgb(255, 255, 255)" fill-opacity="0.6" stroke="lightgray" stroke-width="0.2" d="M 40,166.39999999999998l16,0 C56,166.39999999999998 197.33333333333334,101.60000000000002 197.33333333333334,101.60000000000002l16,0 C213.33333333333334,101.60000000000002 354.6666666666667,286.39999999999986 354.6666666666667,286.39999999999986l16,0 C370.6666666666667,286.39999999999986 512,148.8 512,148.8l16,0 C528,148.8 669.3333333333334,293.59999999999985 669.3333333333334,293.59999999999985l16,0 C685.3333333333334,293.59999999999985 826.6666666666667,170.4 826.6666666666667,170.4l16,0 C842.6666666666667,170.4 984,298.4 984,298.4l16,0 l0,7.2 l -16,0 C984,305.59999999999997 842.6666666666667,177.6 842.6666666666667,177.6l-16,0 C826.6666666666667,177.6 685.3333333333334,300.79999999999984 685.3333333333334,300.79999999999984l-16,0 C669.3333333333334,300.79999999999984 528,156 528,156l-16,0 C512,156 370.6666666666667,293.59999999999985 370.6666666666667,293.59999999999985l-16,0 C354.6666666666667,293.59999999999985 213.33333333333334,108.80000000000003 213.33333333333334,108.80000000000003l-16,0 C197.33333333333334,108.80000000000003 56,173.59999999999997 56,173.59999999999997l-16,0 Z"/><path class="path" stroke-opacity="1" fill="rgb(255, 255, 255)" fill-opacity="0.6" stroke="lightgray" stroke-width="0.2" d="M 40,173.59999999999997l16,0 C56,173.59999999999997 197.33333333333334,108.80000000000003 197.33333333333334,108.80000000000003l16,0 C213.33333333333334,108.80000000000003 354.6666666666667,293.59999999999985 354.6666666666667,293.59999999999985l16,0 C370.6666666666667,293.59999999999985 512,293.5999999999998 512,293.5999999999998l16,0 C528,293.5999999999998 669.3333333333334,163.20000000000002 669.3333333333334,163.20000000000002l16,0 C685.3333333333334,163.20000000000002 826.6666666666667,177.6 826.6666666666667,177.6l16,0 C842.6666666666667,177.6 984,305.59999999999997 984,305.59999999999997l16,0 l0,7.2 l -16,0 C984,312.79999999999995 842.6666666666667,184.79999999999998 842.6666666666667,184.79999999999998l-16,0 C826.6666666666667,184.79999999999998 685.3333333333334,170.4 685.3333333333334,170.4l-16,0 C669.3333333333334,170.4 528,300.7999999999998 528,300.7999999999998l-16,0 C512,300.7999999999998 370.6666666666667,300.79999999999984 370.6666666666667,300.79999999999984l-16,0 C354.6666666666667,300.79999999999984 213.33333333333334,116.00000000000003 213.33333333333334,116.00000000000003l-16,0 C197.33333333333334,116.00000000000003 56,180.79999999999995 56,180.79999999999995l-16,0 Z"/><path class="path" stroke-opacity="1" fill="rgb(255, 255, 255)" fill-opacity="0.6" stroke="lightgray" stroke-width="0.2" d="M 40,180.79999999999995l16,0 C56,180.79999999999995 197.33333333333334,116.00000000000003 197.33333333333334,116.00000000000003l16,0 C213.33333333333334,116.00000000000003 354.6666666666667,300.79999999999984 354.6666666666667,300.79999999999984l16,0 C370.6666666666667,300.79999999999984 512,300.7999999999998 512,300.7999999999998l16,0 C528,300.7999999999998 669.3333333333334,300.79999999999984 669.3333333333334,300.79999999999984l16,0 C685.3333333333334,300.79999999999984 826.6666666666667,184.79999999999998 826.6666666666667,184.79999999999998l16,0 C842.6666666666667,184.79999999999998 984,312.79999999999995 984,312.79999999999995l16,0 l0,7.2 l -16,0 C984,319.99999999999994 842.6666666666667,191.99999999999997 842.6666666666667,191.99999999999997l-16,0 C826.6666666666667,191.99999999999997 685.3333333333334,307.99999999999983 685.3333333333334,307.99999999999983l-16,0 C669.3333333333334,307.99999999999983 528,307.9999999999998 528,307.9999999999998l-16,0 C512,307.9999999999998 370.6666666666667,307.99999999999983 370.6666666666667,307.99999999999983l-16,0 C354.6666666666667,307.99999999999983 213.33333333333334,123.20000000000003 213.33333333333334,123.20000000000003l-16,0 C197.33333333333334,123.20000000000003 56,187.99999999999994 56,187.99999999999994l-16,0 Z"/></g><g class="dimensions"><g class="dimension" transform="translate(40, 0)"><g class="category" transform="translate(0, 8)"><rect class="catrect" pointer-events="none" fill="none" width="16" height="180" stroke="black" stroke-width="1" stroke-opacity="1"/><rect class="bandrect" stroke-opacity="1" fill="rgb(0, 0, 0)" fill-opacity="1" width="16" height="7.2" y="0" cursor="ns-resize" stroke="black" stroke-width="0.2"/><rect class="bandrect" stroke-opacity="1" fill="rgb(173, 0, 0)" fill-opacity="1" width="16" height="21.6" y="7.2" cursor="ns-resize" stroke="black" stroke-width="0.2"/><rect class="bandrect" stroke-opacity="1" fill="rgb(243, 105, 0)" fill-opacity="1" width="16" height="50.400000000000006" y="28.8" cursor="ns-resize" stroke="black" stroke-width="0.2"/><rect class="bandrect" stroke-opacity="1" fill="rgb(255, 221, 64)" fill-opacity="1" width="16" height="72.00000000000001" y="79.2" cursor="ns-resize" stroke="black" stroke-width="0.2"/><rect class="bandrect" stroke-opacity="1" fill="rgb(255, 255, 255)" fill-opacity="1" width="16" height="28.8" y="151.20000000000002" cursor="ns-resize" stroke="black" stroke-width="0.2"/><text class="catlabel" pointer-events="none" text-anchor="end" alignment-baseline="middle" x="-5" y="90" style="text-shadow: rgb(255, 255, 255) -1px 1px 2px, rgb(255, 255, 255) 1px 1px 2px, rgb(255, 255, 255) 1px -1px 2px, rgb(255, 255, 255) -1px -1px 2px; fill: rgb(68, 68, 68); font-family: 'Open Sans', verdana, arial, sans-serif; font-size: 15px; fill-opacity: 1; white-space: pre;">(test_r2 > 0.2)</text><text class="dimlabel" text-anchor="middle" alignment-baseline="baseline" cursor="ew-resize" x="8" y="-5" style="font-family: 'Open Sans', verdana, arial, sans-serif; font-size: 18px; fill: rgb(68, 68, 68); fill-opacity: 1;">CV threshold</text></g><g class="category" transform="translate(0, 196)"><rect class="catrect" pointer-events="none" fill="none" width="16" height="28.8" stroke="black" stroke-width="1" stroke-opacity="1"/><rect class="bandrect" stroke-opacity="1" fill="rgb(0, 0, 0)" fill-opacity="1" width="16" height="7.2" y="0" cursor="ns-resize" stroke="black" stroke-width="0.2"/><rect class="bandrect" stroke-opacity="1" fill="rgb(243, 105, 0)" fill-opacity="1" width="16" height="14.4" y="7.2" cursor="ns-resize" stroke="black" stroke-width="0.2"/><rect class="bandrect" stroke-opacity="1" fill="rgb(255, 221, 64)" fill-opacity="1" width="16" height="7.2" y="21.6" cursor="ns-resize" stroke="black" stroke-width="0.2"/><text class="catlabel" pointer-events="none" text-anchor="end" alignment-baseline="middle" x="-5" y="14.4" style="text-shadow: rgb(255, 255, 255) -1px 1px 2px, rgb(255, 255, 255) 1px 1px 2px, rgb(255, 255, 255) 1px -1px 2px, rgb(255, 255, 255) -1px -1px 2px; fill: rgb(68, 68, 68); font-family: 'Open Sans', verdana, arial, sans-serif; font-size: 15px; fill-opacity: 1; white-space: pre;">(test_r2 > 0.9)</text><text class="dimlabel" text-anchor="middle" alignment-baseline="baseline" cursor="ew-resize" x="8" y="-5" style="font-family: 'Open Sans', verdana, arial, sans-serif; font-size: 18px; fill: rgb(68, 68, 68); fill-opacity: 1;"/></g><g class="category" transform="translate(0, 232.8)"><rect class="catrect" pointer-events="none" fill="none" width="16" height="79.2" stroke="black" stroke-width="1" stroke-opacity="1"/><rect class="bandrect" stroke-opacity="1" fill="rgb(173, 0, 0)" fill-opacity="1" width="16" height="7.2" y="0" cursor="ns-resize" stroke="black" stroke-width="0.2"/><rect class="bandrect" stroke-opacity="1" fill="rgb(243, 105, 0)" fill-opacity="1" width="16" height="28.8" y="7.2" cursor="ns-resize" stroke="black" stroke-width="0.2"/><rect class="bandrect" stroke-opacity="1" fill="rgb(255, 221, 64)" fill-opacity="1" width="16" height="43.2" y="36" cursor="ns-resize" stroke="black" stroke-width="0.2"/><text class="catlabel" pointer-events="none" text-anchor="end" alignment-baseline="middle" x="-5" y="39.6" style="text-shadow: rgb(255, 255, 255) -1px 1px 2px, rgb(255, 255, 255) 1px 1px 2px, rgb(255, 255, 255) 1px -1px 2px, rgb(255, 255, 255) -1px -1px 2px; fill: rgb(68, 68, 68); font-family: 'Open Sans', verdana, arial, sans-serif; font-size: 15px; fill-opacity: 1; white-space: pre;">(test_r2 > 0.65)</text><text class="dimlabel" text-anchor="middle" alignment-baseline="baseline" cursor="ew-resize" x="8" y="-5" style="font-family: 'Open Sans', verdana, arial, sans-serif; font-size: 18px; fill: rgb(68, 68, 68); fill-opacity: 1;"/></g></g><g class="dimension" transform="translate(197.33333333333334, 0)"><g class="category" transform="translate(0, 8)"><rect class="catrect" pointer-events="none" fill="none" width="16" height="115.2" stroke="black" stroke-width="1" stroke-opacity="1"/><rect class="bandrect" stroke-opacity="1" fill="rgb(0, 0, 0)" fill-opacity="1" width="16" height="7.2" y="0" cursor="ns-resize" stroke="black" stroke-width="0.2"/><rect class="bandrect" stroke-opacity="1" fill="rgb(173, 0, 0)" fill-opacity="1" width="16" height="7.2" y="7.2" cursor="ns-resize" stroke="black" stroke-width="0.2"/><rect class="bandrect" stroke-opacity="1" fill="rgb(243, 105, 0)" fill-opacity="1" width="16" height="36" y="14.4" cursor="ns-resize" stroke="black" stroke-width="0.2"/><rect class="bandrect" stroke-opacity="1" fill="rgb(255, 221, 64)" fill-opacity="1" width="16" height="36" y="50.4" cursor="ns-resize" stroke="black" stroke-width="0.2"/><rect class="bandrect" stroke-opacity="1" fill="rgb(255, 255, 255)" fill-opacity="1" width="16" height="28.8" y="86.4" cursor="ns-resize" stroke="black" stroke-width="0.2"/><text class="catlabel" pointer-events="none" text-anchor="end" alignment-baseline="middle" x="-5" y="57.6" style="text-shadow: rgb(255, 255, 255) -1px 1px 2px, rgb(255, 255, 255) 1px 1px 2px, rgb(255, 255, 255) 1px -1px 2px, rgb(255, 255, 255) -1px -1px 2px; fill: rgb(68, 68, 68); font-family: 'Open Sans', verdana, arial, sans-serif; font-size: 15px; fill-opacity: 1; white-space: pre;">(ndf_surr_score > 0)</text><text class="dimlabel" text-anchor="middle" alignment-baseline="baseline" cursor="ew-resize" x="8" y="-5" style="font-family: 'Open Sans', verdana, arial, sans-serif; font-size: 18px; fill: rgb(68, 68, 68); fill-opacity: 1;">Test-set threshold</text></g><g class="category" transform="translate(0, 131.2)"><rect class="catrect" pointer-events="none" fill="none" width="16" height="129.6" stroke="black" stroke-width="1" stroke-opacity="1"/><rect class="bandrect" stroke-opacity="1" fill="rgb(0, 0, 0)" fill-opacity="1" width="16" height="7.2" y="0" cursor="ns-resize" stroke="black" stroke-width="0.2"/><rect class="bandrect" stroke-opacity="1" fill="rgb(173, 0, 0)" fill-opacity="1" width="16" height="21.6" y="7.2" cursor="ns-resize" stroke="black" stroke-width="0.2"/><rect class="bandrect" stroke-opacity="1" fill="rgb(243, 105, 0)" fill-opacity="1" width="16" height="36" y="28.8" cursor="ns-resize" stroke="black" stroke-width="0.2"/><rect class="bandrect" stroke-opacity="1" fill="rgb(255, 221, 64)" fill-opacity="1" width="16" height="64.80000000000001" y="64.8" cursor="ns-resize" stroke="black" stroke-width="0.2"/><text class="catlabel" pointer-events="none" text-anchor="end" alignment-baseline="middle" x="-5" y="64.8" style="text-shadow: rgb(255, 255, 255) -1px 1px 2px, rgb(255, 255, 255) 1px 1px 2px, rgb(255, 255, 255) 1px -1px 2px, rgb(255, 255, 255) -1px -1px 2px; fill: rgb(68, 68, 68); font-family: 'Open Sans', verdana, arial, sans-serif; font-size: 15px; fill-opacity: 1; white-space: pre;">(ndf_surr_score > 0.6)</text><text class="dimlabel" text-anchor="middle" alignment-baseline="baseline" cursor="ew-resize" x="8" y="-5" style="font-family: 'Open Sans', verdana, arial, sans-serif; font-size: 18px; fill: rgb(68, 68, 68); fill-opacity: 1;"/></g><g class="category" transform="translate(0, 268.79999999999995)"><rect class="catrect" pointer-events="none" fill="none" width="16" height="43.199999999999996" stroke="black" stroke-width="1" stroke-opacity="1"/><rect class="bandrect" stroke-opacity="1" fill="rgb(243, 105, 0)" fill-opacity="1" width="16" height="21.6" y="0" cursor="ns-resize" stroke="black" stroke-width="0.2"/><rect class="bandrect" stroke-opacity="1" fill="rgb(255, 221, 64)" fill-opacity="1" width="16" height="21.6" y="21.6" cursor="ns-resize" stroke="black" stroke-width="0.2"/><text class="catlabel" pointer-events="none" text-anchor="end" alignment-baseline="middle" x="-5" y="21.599999999999998" style="text-shadow: rgb(255, 255, 255) -1px 1px 2px, rgb(255, 255, 255) 1px 1px 2px, rgb(255, 255, 255) 1px -1px 2px, rgb(255, 255, 255) -1px -1px 2px; fill: rgb(68, 68, 68); font-family: 'Open Sans', verdana, arial, sans-serif; font-size: 15px; fill-opacity: 1; white-space: pre;">(ndf_surr_score > 0.9)</text><text class="dimlabel" text-anchor="middle" alignment-baseline="baseline" cursor="ew-resize" x="8" y="-5" style="font-family: 'Open Sans', verdana, arial, sans-serif; font-size: 18px; fill: rgb(68, 68, 68); fill-opacity: 1;"/></g></g><g class="dimension" transform="translate(354.6666666666667, 0)"><g class="category" transform="translate(0, 12)"><rect class="catrect" pointer-events="none" fill="none" width="16" height="165.6" stroke="black" stroke-width="1" stroke-opacity="1"/><rect class="bandrect" stroke-opacity="1" fill="rgb(0, 0, 0)" fill-opacity="1" width="16" height="14.4" y="0" cursor="ns-resize" stroke="black" stroke-width="0.2"/><rect class="bandrect" stroke-opacity="1" fill="rgb(173, 0, 0)" fill-opacity="1" width="16" height="14.4" y="14.4" cursor="ns-resize" stroke="black" stroke-width="0.2"/><rect class="bandrect" stroke-opacity="1" fill="rgb(243, 105, 0)" fill-opacity="1" width="16" height="57.60000000000001" y="28.8" cursor="ns-resize" stroke="black" stroke-width="0.2"/><rect class="bandrect" stroke-opacity="1" fill="rgb(255, 221, 64)" fill-opacity="1" width="16" height="72.00000000000001" y="86.4" cursor="ns-resize" stroke="black" stroke-width="0.2"/><rect class="bandrect" stroke-opacity="1" fill="rgb(255, 255, 255)" fill-opacity="1" width="16" height="7.2" y="158.40000000000003" cursor="ns-resize" stroke="black" stroke-width="0.2"/><text class="catlabel" pointer-events="none" text-anchor="end" alignment-baseline="middle" x="-5" y="82.8" style="text-shadow: rgb(255, 255, 255) -1px 1px 2px, rgb(255, 255, 255) 1px 1px 2px, rgb(255, 255, 255) 1px -1px 2px, rgb(255, 255, 255) -1px -1px 2px; fill: rgb(68, 68, 68); font-family: 'Open Sans', verdana, arial, sans-serif; font-size: 15px; fill-opacity: 1; white-space: pre;">stack</text><text class="dimlabel" text-anchor="middle" alignment-baseline="baseline" cursor="ew-resize" x="8" y="-5" style="font-family: 'Open Sans', verdana, arial, sans-serif; font-size: 18px; fill: rgb(68, 68, 68); fill-opacity: 1;">Solution combination</text></g><g class="category" transform="translate(0, 185.6)"><rect class="catrect" pointer-events="none" fill="none" width="16" height="122.39999999999999" stroke="black" stroke-width="1" stroke-opacity="1"/><rect class="bandrect" stroke-opacity="1" fill="rgb(173, 0, 0)" fill-opacity="1" width="16" height="14.4" y="0" cursor="ns-resize" stroke="black" stroke-width="0.2"/><rect class="bandrect" stroke-opacity="1" fill="rgb(243, 105, 0)" fill-opacity="1" width="16" height="36" y="14.4" cursor="ns-resize" stroke="black" stroke-width="0.2"/><rect class="bandrect" stroke-opacity="1" fill="rgb(255, 221, 64)" fill-opacity="1" width="16" height="50.400000000000006" y="50.4" cursor="ns-resize" stroke="black" stroke-width="0.2"/><rect class="bandrect" stroke-opacity="1" fill="rgb(255, 255, 255)" fill-opacity="1" width="16" height="21.6" y="100.80000000000001" cursor="ns-resize" stroke="black" stroke-width="0.2"/><text class="catlabel" pointer-events="none" text-anchor="end" alignment-baseline="middle" x="-5" y="61.199999999999996" style="text-shadow: rgb(255, 255, 255) -1px 1px 2px, rgb(255, 255, 255) 1px 1px 2px, rgb(255, 255, 255) 1px -1px 2px, rgb(255, 255, 255) -1px -1px 2px; fill: rgb(68, 68, 68); font-family: 'Open Sans', verdana, arial, sans-serif; font-size: 15px; fill-opacity: 1; white-space: pre;">ndf_score</text><text class="dimlabel" text-anchor="middle" alignment-baseline="baseline" cursor="ew-resize" x="8" y="-5" style="font-family: 'Open Sans', verdana, arial, sans-serif; font-size: 18px; fill: rgb(68, 68, 68); fill-opacity: 1;"/></g></g><g class="dimension" transform="translate(512, 0)"><g class="category" transform="translate(0, 12)"><rect class="catrect" pointer-events="none" fill="none" width="16" height="144" stroke="black" stroke-width="1" stroke-opacity="1"/><rect class="bandrect" stroke-opacity="1" fill="rgb(0, 0, 0)" fill-opacity="1" width="16" height="7.2" y="0" cursor="ns-resize" stroke="black" stroke-width="0.2"/><rect class="bandrect" stroke-opacity="1" fill="rgb(173, 0, 0)" fill-opacity="1" width="16" height="21.6" y="7.2" cursor="ns-resize" stroke="black" stroke-width="0.2"/><rect class="bandrect" stroke-opacity="1" fill="rgb(243, 105, 0)" fill-opacity="1" width="16" height="50.400000000000006" y="28.8" cursor="ns-resize" stroke="black" stroke-width="0.2"/><rect class="bandrect" stroke-opacity="1" fill="rgb(255, 221, 64)" fill-opacity="1" width="16" height="57.60000000000001" y="79.2" cursor="ns-resize" stroke="black" stroke-width="0.2"/><rect class="bandrect" stroke-opacity="1" fill="rgb(255, 255, 255)" fill-opacity="1" width="16" height="7.2" y="136.8" cursor="ns-resize" stroke="black" stroke-width="0.2"/><text class="catlabel" pointer-events="none" text-anchor="end" alignment-baseline="middle" x="-5" y="72" style="text-shadow: rgb(255, 255, 255) -1px 1px 2px, rgb(255, 255, 255) 1px 1px 2px, rgb(255, 255, 255) 1px -1px 2px, rgb(255, 255, 255) -1px -1px 2px; fill: rgb(68, 68, 68); font-family: 'Open Sans', verdana, arial, sans-serif; font-size: 15px; fill-opacity: 1; white-space: pre;">0.25</text><text class="dimlabel" text-anchor="middle" alignment-baseline="baseline" cursor="ew-resize" x="8" y="-5" style="font-family: 'Open Sans', verdana, arial, sans-serif; font-size: 18px; fill: rgb(68, 68, 68); fill-opacity: 1;">train/test split</text></g><g class="category" transform="translate(0, 164)"><rect class="catrect" pointer-events="none" fill="none" width="16" height="144" stroke="black" stroke-width="1" stroke-opacity="1"/><rect class="bandrect" stroke-opacity="1" fill="rgb(0, 0, 0)" fill-opacity="1" width="16" height="7.2" y="0" cursor="ns-resize" stroke="black" stroke-width="0.2"/><rect class="bandrect" stroke-opacity="1" fill="rgb(173, 0, 0)" fill-opacity="1" width="16" height="7.2" y="7.2" cursor="ns-resize" stroke="black" stroke-width="0.2"/><rect class="bandrect" stroke-opacity="1" fill="rgb(243, 105, 0)" fill-opacity="1" width="16" height="43.2" y="14.4" cursor="ns-resize" stroke="black" stroke-width="0.2"/><rect class="bandrect" stroke-opacity="1" fill="rgb(255, 221, 64)" fill-opacity="1" width="16" height="64.8" y="57.6" cursor="ns-resize" stroke="black" stroke-width="0.2"/><rect class="bandrect" stroke-opacity="1" fill="rgb(255, 255, 255)" fill-opacity="1" width="16" height="21.6" y="122.4" cursor="ns-resize" stroke="black" stroke-width="0.2"/><text class="catlabel" pointer-events="none" text-anchor="end" alignment-baseline="middle" x="-5" y="72" style="text-shadow: rgb(255, 255, 255) -1px 1px 2px, rgb(255, 255, 255) 1px 1px 2px, rgb(255, 255, 255) 1px -1px 2px, rgb(255, 255, 255) -1px -1px 2px; fill: rgb(68, 68, 68); font-family: 'Open Sans', verdana, arial, sans-serif; font-size: 15px; fill-opacity: 1; white-space: pre;">0.1</text><text class="dimlabel" text-anchor="middle" alignment-baseline="baseline" cursor="ew-resize" x="8" y="-5" style="font-family: 'Open Sans', verdana, arial, sans-serif; font-size: 18px; fill: rgb(68, 68, 68); fill-opacity: 1;"/></g></g><g class="dimension" transform="translate(669.3333333333334, 0)"><g class="category" transform="translate(0, 12)"><rect class="catrect" pointer-events="none" fill="none" width="16" height="158.4" stroke="black" stroke-width="1" stroke-opacity="1"/><rect class="bandrect" stroke-opacity="1" fill="rgb(0, 0, 0)" fill-opacity="1" width="16" height="14.4" y="0" cursor="ns-resize" stroke="black" stroke-width="0.2"/><rect class="bandrect" stroke-opacity="1" fill="rgb(173, 0, 0)" fill-opacity="1" width="16" height="28.8" y="14.4" cursor="ns-resize" stroke="black" stroke-width="0.2"/><rect class="bandrect" stroke-opacity="1" fill="rgb(243, 105, 0)" fill-opacity="1" width="16" height="57.60000000000001" y="43.2" cursor="ns-resize" stroke="black" stroke-width="0.2"/><rect class="bandrect" stroke-opacity="1" fill="rgb(255, 221, 64)" fill-opacity="1" width="16" height="43.2" y="100.80000000000001" cursor="ns-resize" stroke="black" stroke-width="0.2"/><rect class="bandrect" stroke-opacity="1" fill="rgb(255, 255, 255)" fill-opacity="1" width="16" height="14.4" y="144" cursor="ns-resize" stroke="black" stroke-width="0.2"/><text class="catlabel" pointer-events="none" text-anchor="end" alignment-baseline="middle" x="-5" y="79.2" style="text-shadow: rgb(255, 255, 255) -1px 1px 2px, rgb(255, 255, 255) 1px 1px 2px, rgb(255, 255, 255) 1px -1px 2px, rgb(255, 255, 255) -1px -1px 2px; fill: rgb(68, 68, 68); font-family: 'Open Sans', verdana, arial, sans-serif; font-size: 15px; fill-opacity: 1; white-space: pre;">moea_control</text><text class="dimlabel" text-anchor="middle" alignment-baseline="baseline" cursor="ew-resize" x="8" y="-5" style="font-family: 'Open Sans', verdana, arial, sans-serif; font-size: 18px; fill: rgb(68, 68, 68); fill-opacity: 1;">Solver</text></g><g class="category" transform="translate(0, 178.4)"><rect class="catrect" pointer-events="none" fill="none" width="16" height="129.6" stroke="black" stroke-width="1" stroke-opacity="1"/><rect class="bandrect" stroke-opacity="1" fill="rgb(243, 105, 0)" fill-opacity="1" width="16" height="36" y="0" cursor="ns-resize" stroke="black" stroke-width="0.2"/><rect class="bandrect" stroke-opacity="1" fill="rgb(255, 221, 64)" fill-opacity="1" width="16" height="79.20000000000002" y="36" cursor="ns-resize" stroke="black" stroke-width="0.2"/><rect class="bandrect" stroke-opacity="1" fill="rgb(255, 255, 255)" fill-opacity="1" width="16" height="14.4" y="115.20000000000002" cursor="ns-resize" stroke="black" stroke-width="0.2"/><text class="catlabel" pointer-events="none" text-anchor="end" alignment-baseline="middle" x="-5" y="64.8" style="text-shadow: rgb(255, 255, 255) -1px 1px 2px, rgb(255, 255, 255) 1px 1px 2px, rgb(255, 255, 255) 1px -1px 2px, rgb(255, 255, 255) -1px -1px 2px; fill: rgb(68, 68, 68); font-family: 'Open Sans', verdana, arial, sans-serif; font-size: 15px; fill-opacity: 1; white-space: pre;">nsga2</text><text class="dimlabel" text-anchor="middle" alignment-baseline="baseline" cursor="ew-resize" x="8" y="-5" style="font-family: 'Open Sans', verdana, arial, sans-serif; font-size: 18px; fill: rgb(68, 68, 68); fill-opacity: 1;"/></g></g><g class="dimension" transform="translate(826.6666666666667, 0)"><g class="category" transform="translate(0, 12)"><rect class="catrect" pointer-events="none" fill="none" width="16" height="180" stroke="black" stroke-width="1" stroke-opacity="1"/><rect class="bandrect" stroke-opacity="1" fill="rgb(0, 0, 0)" fill-opacity="1" width="16" height="7.2" y="0" cursor="ns-resize" stroke="black" stroke-width="0.2"/><rect class="bandrect" stroke-opacity="1" fill="rgb(173, 0, 0)" fill-opacity="1" width="16" height="28.8" y="7.2" cursor="ns-resize" stroke="black" stroke-width="0.2"/><rect class="bandrect" stroke-opacity="1" fill="rgb(243, 105, 0)" fill-opacity="1" width="16" height="57.60000000000001" y="36" cursor="ns-resize" stroke="black" stroke-width="0.2"/><rect class="bandrect" stroke-opacity="1" fill="rgb(255, 221, 64)" fill-opacity="1" width="16" height="57.6" y="93.60000000000001" cursor="ns-resize" stroke="black" stroke-width="0.2"/><rect class="bandrect" stroke-opacity="1" fill="rgb(255, 255, 255)" fill-opacity="1" width="16" height="28.8" y="151.20000000000002" cursor="ns-resize" stroke="black" stroke-width="0.2"/><text class="catlabel" pointer-events="none" text-anchor="end" alignment-baseline="middle" x="-5" y="90" style="text-shadow: rgb(255, 255, 255) -1px 1px 2px, rgb(255, 255, 255) 1px 1px 2px, rgb(255, 255, 255) 1px -1px 2px, rgb(255, 255, 255) -1px -1px 2px; fill: rgb(68, 68, 68); font-family: 'Open Sans', verdana, arial, sans-serif; font-size: 15px; fill-opacity: 1; white-space: pre;">100</text><text class="dimlabel" text-anchor="middle" alignment-baseline="baseline" cursor="ew-resize" x="8" y="-5" style="font-family: 'Open Sans', verdana, arial, sans-serif; font-size: 18px; fill: rgb(68, 68, 68); fill-opacity: 1;">Predict size</text></g><g class="category" transform="translate(0, 200)"><rect class="catrect" pointer-events="none" fill="none" width="16" height="108" stroke="black" stroke-width="1" stroke-opacity="1"/><rect class="bandrect" stroke-opacity="1" fill="rgb(0, 0, 0)" fill-opacity="1" width="16" height="7.2" y="0" cursor="ns-resize" stroke="black" stroke-width="0.2"/><rect class="bandrect" stroke-opacity="1" fill="rgb(243, 105, 0)" fill-opacity="1" width="16" height="36" y="7.2" cursor="ns-resize" stroke="black" stroke-width="0.2"/><rect class="bandrect" stroke-opacity="1" fill="rgb(255, 221, 64)" fill-opacity="1" width="16" height="64.80000000000001" y="43.2" cursor="ns-resize" stroke="black" stroke-width="0.2"/><text class="catlabel" pointer-events="none" text-anchor="end" alignment-baseline="middle" x="-5" y="54" style="text-shadow: rgb(255, 255, 255) -1px 1px 2px, rgb(255, 255, 255) 1px 1px 2px, rgb(255, 255, 255) 1px -1px 2px, rgb(255, 255, 255) -1px -1px 2px; fill: rgb(68, 68, 68); font-family: 'Open Sans', verdana, arial, sans-serif; font-size: 15px; fill-opacity: 1; white-space: pre;">10</text><text class="dimlabel" text-anchor="middle" alignment-baseline="baseline" cursor="ew-resize" x="8" y="-5" style="font-family: 'Open Sans', verdana, arial, sans-serif; font-size: 18px; fill: rgb(68, 68, 68); fill-opacity: 1;"/></g></g><g class="dimension" transform="translate(984, 0)"><g class="category" transform="translate(0, 0)"><rect class="catrect" pointer-events="none" fill="none" width="16" height="14.4" stroke="black" stroke-width="1" stroke-opacity="1"/><rect class="bandrect" stroke-opacity="1" fill="rgb(0, 0, 0)" fill-opacity="1" width="16" height="14.4" y="0" cursor="ns-resize" stroke="black" stroke-width="0.2"/><text class="catlabel" pointer-events="none" text-anchor="start" alignment-baseline="middle" x="21" y="7.2" style="text-shadow: rgb(255, 255, 255) -1px 1px 2px, rgb(255, 255, 255) 1px 1px 2px, rgb(255, 255, 255) 1px -1px 2px, rgb(255, 255, 255) -1px -1px 2px; fill: rgb(68, 68, 68); font-family: 'Open Sans', verdana, arial, sans-serif; font-size: 15px; fill-opacity: 1; white-space: pre;">0.2</text><text class="dimlabel" text-anchor="middle" alignment-baseline="baseline" cursor="ew-resize" x="8" y="-5" style="font-family: 'Open Sans', verdana, arial, sans-serif; font-size: 18px; fill: rgb(68, 68, 68); fill-opacity: 1;">p-distance</text></g><g class="category" transform="translate(0, 22.4)"><rect class="catrect" pointer-events="none" fill="none" width="16" height="28.8" stroke="black" stroke-width="1" stroke-opacity="1"/><rect class="bandrect" stroke-opacity="1" fill="rgb(173, 0, 0)" fill-opacity="1" width="16" height="28.8" y="0" cursor="ns-resize" stroke="black" stroke-width="0.2"/><text class="catlabel" pointer-events="none" text-anchor="start" alignment-baseline="middle" x="21" y="14.4" style="text-shadow: rgb(255, 255, 255) -1px 1px 2px, rgb(255, 255, 255) 1px 1px 2px, rgb(255, 255, 255) 1px -1px 2px, rgb(255, 255, 255) -1px -1px 2px; fill: rgb(68, 68, 68); font-family: 'Open Sans', verdana, arial, sans-serif; font-size: 15px; fill-opacity: 1; white-space: pre;">0.3</text><text class="dimlabel" text-anchor="middle" alignment-baseline="baseline" cursor="ew-resize" x="8" y="-5" style="font-family: 'Open Sans', verdana, arial, sans-serif; font-size: 18px; fill: rgb(68, 68, 68); fill-opacity: 1;"/></g><g class="category" transform="translate(0, 59.2)"><rect class="catrect" pointer-events="none" fill="none" width="16" height="93.60000000000001" stroke="black" stroke-width="1" stroke-opacity="1"/><rect class="bandrect" stroke-opacity="1" fill="rgb(243, 105, 0)" fill-opacity="1" width="16" height="93.60000000000002" y="0" cursor="ns-resize" stroke="black" stroke-width="0.2"/><text class="catlabel" pointer-events="none" text-anchor="start" alignment-baseline="middle" x="21" y="46.800000000000004" style="text-shadow: rgb(255, 255, 255) -1px 1px 2px, rgb(255, 255, 255) 1px 1px 2px, rgb(255, 255, 255) 1px -1px 2px, rgb(255, 255, 255) -1px -1px 2px; fill: rgb(68, 68, 68); font-family: 'Open Sans', verdana, arial, sans-serif; font-size: 15px; fill-opacity: 1; white-space: pre;">0.4</text><text class="dimlabel" text-anchor="middle" alignment-baseline="baseline" cursor="ew-resize" x="8" y="-5" style="font-family: 'Open Sans', verdana, arial, sans-serif; font-size: 18px; fill: rgb(68, 68, 68); fill-opacity: 1;"/></g><g class="category" transform="translate(0, 160.8)"><rect class="catrect" pointer-events="none" fill="none" width="16" height="122.39999999999999" stroke="black" stroke-width="1" stroke-opacity="1"/><rect class="bandrect" stroke-opacity="1" fill="rgb(255, 221, 64)" fill-opacity="1" width="16" height="122.40000000000003" y="0" cursor="ns-resize" stroke="black" stroke-width="0.2"/><text class="catlabel" pointer-events="none" text-anchor="start" alignment-baseline="middle" x="21" y="61.199999999999996" style="text-shadow: rgb(255, 255, 255) -1px 1px 2px, rgb(255, 255, 255) 1px 1px 2px, rgb(255, 255, 255) 1px -1px 2px, rgb(255, 255, 255) -1px -1px 2px; fill: rgb(68, 68, 68); font-family: 'Open Sans', verdana, arial, sans-serif; font-size: 15px; fill-opacity: 1; white-space: pre;">0.5</text><text class="dimlabel" text-anchor="middle" alignment-baseline="baseline" cursor="ew-resize" x="8" y="-5" style="font-family: 'Open Sans', verdana, arial, sans-serif; font-size: 18px; fill: rgb(68, 68, 68); fill-opacity: 1;"/></g><g class="category" transform="translate(0, 291.2)"><rect class="catrect" pointer-events="none" fill="none" width="16" height="28.8" stroke="black" stroke-width="1" stroke-opacity="1"/><rect class="bandrect" stroke-opacity="1" fill="rgb(255, 255, 255)" fill-opacity="1" width="16" height="28.8" y="0" cursor="ns-resize" stroke="black" stroke-width="0.2"/><text class="catlabel" pointer-events="none" text-anchor="start" alignment-baseline="middle" x="21" y="14.4" style="text-shadow: rgb(255, 255, 255) -1px 1px 2px, rgb(255, 255, 255) 1px 1px 2px, rgb(255, 255, 255) 1px -1px 2px, rgb(255, 255, 255) -1px -1px 2px; fill: rgb(68, 68, 68); font-family: 'Open Sans', verdana, arial, sans-serif; font-size: 15px; fill-opacity: 1; white-space: pre;">0.6</text><text class="dimlabel" text-anchor="middle" alignment-baseline="baseline" cursor="ew-resize" x="8" y="-5" style="font-family: 'Open Sans', verdana, arial, sans-serif; font-size: 18px; fill: rgb(68, 68, 68); fill-opacity: 1;"/></g></g></g></g></g><defs id="topdefs-352037"><g class="clips"/></defs><g class="layer-above"><g class="imagelayer"/><g class="shapelayer"/></g><g class="infolayer"><g class="g-gtitle"/></g></svg>