<svg class="main-svg" xmlns="http://www.w3.org/2000/svg" xmlns:xlink="http://www.w3.org/1999/xlink" width="1200" height="500" viewBox="0 0 1200 500"><rect x="0" y="0" width="1200" height="500" style="fill: rgb(255, 255, 255); fill-opacity: 1;"/><defs id="defs-1d788b"><g class="clips"/><g class="gradients"/></defs><g class="bglayer"/><g class="layer-below"><g class="imagelayer"/><g class="shapelayer"/></g><g class="cartesianlayer"/><g class="polarlayer"/><g class="ternarylayer"/><g class="geolayer"/><g class="funnelarealayer"/><g class="pielayer"/><g class="treemaplayer"/><g class="sunburstlayer"/><g class="glimages"/><g class="parcatslayer" style="pointer-events: all;"><g class="trace parcats" transform="translate(80, 100)"><g class="paths"><path class="path" stroke-opacity="1" fill="rgb(240, 249, 33)" fill-opacity="0.6" stroke="lightgray" stroke-width="0.2" d="M 40,178l16,0 C56,178 197.33333333333334,26 197.33333333333334,26l16,0 C213.33333333333334,26 354.6666666666667,185 354.6666666666667,185l16,0 C370.6666666666667,185 512,44 512,44l16,0 C528,44 669.3333333333334,248 669.3333333333334,248l16,0 C685.3333333333334,248 826.6666666666667,83 826.6666666666667,83l16,0 C842.6666666666667,83 984,271 984,271l16,0 l0,7 l -16,0 C984,278 842.6666666666667,90 842.6666666666667,90l-16,0 C826.6666666666667,90 685.3333333333334,255 685.3333333333334,255l-16,0 C669.3333333333334,255 528,51 528,51l-16,0 C512,51 370.6666666666667,192 370.6666666666667,192l-16,0 C354.6666666666667,192 213.33333333333334,33 213.33333333333334,33l-16,0 C197.33333333333334,33 56,185 56,185l-16,0 Z"/><path class="path" stroke-opacity="1" fill="rgb(240, 249, 33)" fill-opacity="0.6" stroke="lightgray" stroke-width="0.2" d="M 40,16l16,0 C56,16 197.33333333333334,12 197.33333333333334,12l16,0 C213.33333333333334,12 354.6666666666667,143 354.6666666666667,143l16,0 C370.6666666666667,143 512,16 512,16l16,0 C528,16 669.3333333333334,16 669.3333333333334,16l16,0 C685.3333333333334,16 826.6666666666667,20 826.6666666666667,20l16,0 C842.6666666666667,20 984,208 984,208l16,0 l0,7 l -16,0 C984,215 842.6666666666667,27 842.6666666666667,27l-16,0 C826.6666666666667,27 685.3333333333334,23 685.3333333333334,23l-16,0 C669.3333333333334,23 528,23 528,23l-16,0 C512,23 370.6666666666667,150 370.6666666666667,150l-16,0 C354.6666666666667,150 213.33333333333334,19 213.33333333333334,19l-16,0 C197.33333333333334,19 56,23 56,23l-16,0 Z"/><path class="path" stroke-opacity="1" fill="rgb(240, 249, 33)" fill-opacity="0.6" stroke="lightgray" stroke-width="0.2" d="M 40,37l16,0 C56,37 197.33333333333334,97 197.33333333333334,97l16,0 C213.33333333333334,97 354.6666666666667,164 354.6666666666667,164l16,0 C370.6666666666667,164 512,171 512,171l16,0 C528,171 669.3333333333334,234 669.3333333333334,234l16,0 C685.3333333333334,234 826.6666666666667,41 826.6666666666667,41l16,0 C842.6666666666667,41 984,229 984,229l16,0 l0,7 l -16,0 C984,236 842.6666666666667,48 842.6666666666667,48l-16,0 C826.6666666666667,48 685.3333333333334,241 685.3333333333334,241l-16,0 C669.3333333333334,241 528,178 528,178l-16,0 C512,178 370.6666666666667,171 370.6666666666667,171l-16,0 C354.6666666666667,171 213.33333333333334,104 213.33333333333334,104l-16,0 C197.33333333333334,104 56,44 56,44l-16,0 Z"/><path class="path" stroke-opacity="1" fill="rgb(240, 249, 33)" fill-opacity="0.6" stroke="lightgray" stroke-width="0.2" d="M 40,44l16,0 C56,44 197.33333333333334,217 197.33333333333334,217l16,0 C213.33333333333334,217 354.6666666666667,16 354.6666666666667,16l16,0 C370.6666666666667,16 512,30 512,30l16,0 C528,30 669.3333333333334,37 669.3333333333334,37l16,0 C685.3333333333334,37 826.6666666666667,48 826.6666666666667,48l16,0 C842.6666666666667,48 984,236 984,236l16,0 l0,7 l -16,0 C984,243 842.6666666666667,55 842.6666666666667,55l-16,0 C826.6666666666667,55 685.3333333333334,44 685.3333333333334,44l-16,0 C669.3333333333334,44 528,37 528,37l-16,0 C512,37 370.6666666666667,23 370.6666666666667,23l-16,0 C354.6666666666667,23 213.33333333333334,224 213.33333333333334,224l-16,0 C197.33333333333334,224 56,51 56,51l-16,0 Z"/><path class="path" stroke-opacity="1" fill="rgb(240, 249, 33)" fill-opacity="0.6" stroke="lightgray" stroke-width="0.2" d="M 40,51l16,0 C56,51 197.33333333333334,224 197.33333333333334,224l16,0 C213.33333333333334,224 354.6666666666667,23 354.6666666666667,23l16,0 C370.6666666666667,23 512,178 512,178l16,0 C528,178 669.3333333333334,44 669.3333333333334,44l16,0 C685.3333333333334,44 826.6666666666667,55 826.6666666666667,55l16,0 C842.6666666666667,55 984,243 984,243l16,0 l0,7 l -16,0 C984,250 842.6666666666667,62 842.6666666666667,62l-16,0 C826.6666666666667,62 685.3333333333334,51 685.3333333333334,51l-16,0 C669.3333333333334,51 528,185 528,185l-16,0 C512,185 370.6666666666667,30 370.6666666666667,30l-16,0 C354.6666666666667,30 213.33333333333334,231 213.33333333333334,231l-16,0 C197.33333333333334,231 56,58 56,58l-16,0 Z"/><path class="path" stroke-opacity="1" fill="rgb(240, 249, 33)" fill-opacity="0.6" stroke="lightgray" stroke-width="0.2" d="M 40,58l16,0 C56,58 197.33333333333334,231 197.33333333333334,231l16,0 C213.33333333333334,231 354.6666666666667,171 354.6666666666667,171l16,0 C370.6666666666667,171 512,37 512,37l16,0 C528,37 669.3333333333334,51 669.3333333333334,51l16,0 C685.3333333333334,51 826.6666666666667,62 826.6666666666667,62l16,0 C842.6666666666667,62 984,250 984,250l16,0 l0,7 l -16,0 C984,257 842.6666666666667,69 842.6666666666667,69l-16,0 C826.6666666666667,69 685.3333333333334,58 685.3333333333334,58l-16,0 C669.3333333333334,58 528,44 528,44l-16,0 C512,44 370.6666666666667,178 370.6666666666667,178l-16,0 C354.6666666666667,178 213.33333333333334,238 213.33333333333334,238l-16,0 C197.33333333333334,238 56,65 56,65l-16,0 Z"/><path class="path" stroke-opacity="1" fill="rgb(240, 249, 33)" fill-opacity="0.6" stroke="lightgray" stroke-width="0.2" d="M 40,65l16,0 C56,65 197.33333333333334,238 197.33333333333334,238l16,0 C213.33333333333334,238 354.6666666666667,178 354.6666666666667,178l16,0 C370.6666666666667,178 512,185 512,185l16,0 C528,185 669.3333333333334,241 669.3333333333334,241l16,0 C685.3333333333334,241 826.6666666666667,69 826.6666666666667,69l16,0 C842.6666666666667,69 984,257 984,257l16,0 l0,7 l -16,0 C984,264 842.6666666666667,76 842.6666666666667,76l-16,0 C826.6666666666667,76 685.3333333333334,248 685.3333333333334,248l-16,0 C669.3333333333334,248 528,192 528,192l-16,0 C512,192 370.6666666666667,185 370.6666666666667,185l-16,0 C354.6666666666667,185 213.33333333333334,245 213.33333333333334,245l-16,0 C197.33333333333334,245 56,72 56,72l-16,0 Z"/><path class="path" stroke-opacity="1" fill="rgb(240, 249, 33)" fill-opacity="0.6" stroke="lightgray" stroke-width="0.2" d="M 40,171l16,0 C56,171 197.33333333333334,19 197.33333333333334,19l16,0 C213.33333333333334,19 354.6666666666667,30 354.6666666666667,30l16,0 C370.6666666666667,30 512,192 512,192l16,0 C528,192 669.3333333333334,58 669.3333333333334,58l16,0 C685.3333333333334,58 826.6666666666667,76 826.6666666666667,76l16,0 C842.6666666666667,76 984,264 984,264l16,0 l0,7 l -16,0 C984,271 842.6666666666667,83 842.6666666666667,83l-16,0 C826.6666666666667,83 685.3333333333334,65 685.3333333333334,65l-16,0 C669.3333333333334,65 528,199 528,199l-16,0 C512,199 370.6666666666667,37 370.6666666666667,37l-16,0 C354.6666666666667,37 213.33333333333334,26 213.33333333333334,26l-16,0 C197.33333333333334,26 56,178 56,178l-16,0 Z"/><path class="path" stroke-opacity="1" fill="rgb(240, 249, 33)" fill-opacity="0.6" stroke="lightgray" stroke-width="0.2" d="M 40,30l16,0 C56,30 197.33333333333334,90 197.33333333333334,90l16,0 C213.33333333333334,90 354.6666666666667,157 354.6666666666667,157l16,0 C370.6666666666667,157 512,164 512,164l16,0 C528,164 669.3333333333334,30 669.3333333333334,30l16,0 C685.3333333333334,30 826.6666666666667,34 826.6666666666667,34l16,0 C842.6666666666667,34 984,222 984,222l16,0 l0,7 l -16,0 C984,229 842.6666666666667,41 842.6666666666667,41l-16,0 C826.6666666666667,41 685.3333333333334,37 685.3333333333334,37l-16,0 C669.3333333333334,37 528,171 528,171l-16,0 C512,171 370.6666666666667,164 370.6666666666667,164l-16,0 C354.6666666666667,164 213.33333333333334,97 213.33333333333334,97l-16,0 C197.33333333333334,97 56,37 56,37l-16,0 Z"/><path class="path" stroke-opacity="1" fill="rgb(240, 249, 33)" fill-opacity="0.6" stroke="lightgray" stroke-width="0.2" d="M 40,185l16,0 C56,185 197.33333333333334,33 197.33333333333334,33l16,0 C213.33333333333334,33 354.6666666666667,192 354.6666666666667,192l16,0 C370.6666666666667,192 512,199 512,199l16,0 C528,199 669.3333333333334,255 669.3333333333334,255l16,0 C685.3333333333334,255 826.6666666666667,90 826.6666666666667,90l16,0 C842.6666666666667,90 984,278 984,278l16,0 l0,7 l -16,0 C984,285 842.6666666666667,97 842.6666666666667,97l-16,0 C826.6666666666667,97 685.3333333333334,262 685.3333333333334,262l-16,0 C669.3333333333334,262 528,206 528,206l-16,0 C512,206 370.6666666666667,199 370.6666666666667,199l-16,0 C354.6666666666667,199 213.33333333333334,40 213.33333333333334,40l-16,0 C197.33333333333334,40 56,192 56,192l-16,0 Z"/><path class="path" stroke-opacity="1" fill="rgb(240, 249, 33)" fill-opacity="0.6" stroke="lightgray" stroke-width="0.2" d="M 40,192l16,0 C56,192 197.33333333333334,104 197.33333333333334,104l16,0 C213.33333333333334,104 354.6666666666667,37 354.6666666666667,37l16,0 C370.6666666666667,37 512,51 512,51l16,0 C528,51 669.3333333333334,65 669.3333333333334,65l16,0 C685.3333333333334,65 826.6666666666667,97 826.6666666666667,97l16,0 C842.6666666666667,97 984,285 984,285l16,0 l0,7 l -16,0 C984,292 842.6666666666667,104 842.6666666666667,104l-16,0 C826.6666666666667,104 685.3333333333334,72 685.3333333333334,72l-16,0 C669.3333333333334,72 528,58 528,58l-16,0 C512,58 370.6666666666667,44 370.6666666666667,44l-16,0 C354.6666666666667,44 213.33333333333334,111 213.33333333333334,111l-16,0 C197.33333333333334,111 56,199 56,199l-16,0 Z"/><path class="path" stroke-opacity="1" fill="rgb(240, 249, 33)" fill-opacity="0.6" stroke="lightgray" stroke-width="0.2" d="M 40,199l16,0 C56,199 197.33333333333334,111 197.33333333333334,111l16,0 C213.33333333333334,111 354.6666666666667,44 354.6666666666667,44l16,0 C370.6666666666667,44 512,206 512,206l16,0 C528,206 669.3333333333334,72 669.3333333333334,72l16,0 C685.3333333333334,72 826.6666666666667,104 826.6666666666667,104l16,0 C842.6666666666667,104 984,292 984,292l16,0 l0,7 l -16,0 C984,299 842.6666666666667,111 842.6666666666667,111l-16,0 C826.6666666666667,111 685.3333333333334,79 685.3333333333334,79l-16,0 C669.3333333333334,79 528,213 528,213l-16,0 C512,213 370.6666666666667,51 370.6666666666667,51l-16,0 C354.6666666666667,51 213.33333333333334,118 213.33333333333334,118l-16,0 C197.33333333333334,118 56,206 56,206l-16,0 Z"/><path class="path" stroke-opacity="1" fill="rgb(240, 249, 33)" fill-opacity="0.6" stroke="lightgray" stroke-width="0.2" d="M 40,206l16,0 C56,206 197.33333333333334,118 197.33333333333334,118l16,0 C213.33333333333334,118 354.6666666666667,199 354.6666666666667,199l16,0 C370.6666666666667,199 512,58 512,58l16,0 C528,58 669.3333333333334,79 669.3333333333334,79l16,0 C685.3333333333334,79 826.6666666666667,111 826.6666666666667,111l16,0 C842.6666666666667,111 984,299 984,299l16,0 l0,7 l -16,0 C984,306 842.6666666666667,118 842.6666666666667,118l-16,0 C826.6666666666667,118 685.3333333333334,86 685.3333333333334,86l-16,0 C669.3333333333334,86 528,65 528,65l-16,0 C512,65 370.6666666666667,206 370.6666666666667,206l-16,0 C354.6666666666667,206 213.33333333333334,125 213.33333333333334,125l-16,0 C197.33333333333334,125 56,213 56,213l-16,0 Z"/><path class="path" stroke-opacity="1" fill="rgb(240, 249, 33)" fill-opacity="0.6" stroke="lightgray" stroke-width="0.2" d="M 40,213l16,0 C56,213 197.33333333333334,125 197.33333333333334,125l16,0 C213.33333333333334,125 354.6666666666667,206 354.6666666666667,206l16,0 C370.6666666666667,206 512,65 512,65l16,0 C528,65 669.3333333333334,262 669.3333333333334,262l16,0 C685.3333333333334,262 826.6666666666667,118 826.6666666666667,118l16,0 C842.6666666666667,118 984,306 984,306l16,0 l0,7 l -16,0 C984,313 842.6666666666667,125 842.6666666666667,125l-16,0 C826.6666666666667,125 685.3333333333334,269 685.3333333333334,269l-16,0 C669.3333333333334,269 528,72 528,72l-16,0 C512,72 370.6666666666667,213 370.6666666666667,213l-16,0 C354.6666666666667,213 213.33333333333334,132 213.33333333333334,132l-16,0 C197.33333333333334,132 56,220 56,220l-16,0 Z"/><path class="path" stroke-opacity="1" fill="rgb(240, 249, 33)" fill-opacity="0.6" stroke="lightgray" stroke-width="0.2" d="M 40,220l16,0 C56,220 197.33333333333334,245 197.33333333333334,245l16,0 C213.33333333333334,245 354.6666666666667,51 354.6666666666667,51l16,0 C370.6666666666667,51 512,213 512,213l16,0 C528,213 669.3333333333334,86 669.3333333333334,86l16,0 C685.3333333333334,86 826.6666666666667,125 826.6666666666667,125l16,0 C842.6666666666667,125 984,313 984,313l16,0 l0,7 l -16,0 C984,320 842.6666666666667,132 842.6666666666667,132l-16,0 C826.6666666666667,132 685.3333333333334,93 685.3333333333334,93l-16,0 C669.3333333333334,93 528,220 528,220l-16,0 C512,220 370.6666666666667,58 370.6666666666667,58l-16,0 C354.6666666666667,58 213.33333333333334,252 213.33333333333334,252l-16,0 C197.33333333333334,252 56,227 56,227l-16,0 Z"/><path class="path" stroke-opacity="1" fill="rgb(240, 249, 33)" fill-opacity="0.6" stroke="lightgray" stroke-width="0.2" d="M 40,23l16,0 C56,23 197.33333333333334,83 197.33333333333334,83l16,0 C213.33333333333334,83 354.6666666666667,150 354.6666666666667,150l16,0 C370.6666666666667,150 512,23 512,23l16,0 C528,23 669.3333333333334,23 669.3333333333334,23l16,0 C685.3333333333334,23 826.6666666666667,27 826.6666666666667,27l16,0 C842.6666666666667,27 984,215 984,215l16,0 l0,7 l -16,0 C984,222 842.6666666666667,34 842.6666666666667,34l-16,0 C826.6666666666667,34 685.3333333333334,30 685.3333333333334,30l-16,0 C669.3333333333334,30 528,30 528,30l-16,0 C512,30 370.6666666666667,157 370.6666666666667,157l-16,0 C354.6666666666667,157 213.33333333333334,90 213.33333333333334,90l-16,0 C197.33333333333334,90 56,30 56,30l-16,0 Z"/><path class="path" stroke-opacity="1" fill="rgb(251, 168, 54)" fill-opacity="0.6" stroke="lightgray" stroke-width="0.2" d="M 40,72l16,0 C56,72 197.33333333333334,40 197.33333333333334,40l16,0 C213.33333333333334,40 354.6666666666667,213 354.6666666666667,213l16,0 C370.6666666666667,213 512,220 512,220l16,0 C528,220 669.3333333333334,93 669.3333333333334,93l16,0 C685.3333333333334,93 826.6666666666667,132 826.6666666666667,132l16,0 C842.6666666666667,132 984,137 984,137l16,0 l0,7 l -16,0 C984,144 842.6666666666667,139 842.6666666666667,139l-16,0 C826.6666666666667,139 685.3333333333334,100 685.3333333333334,100l-16,0 C669.3333333333334,100 528,227 528,227l-16,0 C512,227 370.6666666666667,220 370.6666666666667,220l-16,0 C354.6666666666667,220 213.33333333333334,47 213.33333333333334,47l-16,0 C197.33333333333334,47 56,79 56,79l-16,0 Z"/><path class="path" stroke-opacity="1" fill="rgb(251, 168, 54)" fill-opacity="0.6" stroke="lightgray" stroke-width="0.2" d="M 40,79l16,0 C56,79 197.33333333333334,132 197.33333333333334,132l16,0 C213.33333333333334,132 354.6666666666667,58 354.6666666666667,58l16,0 C370.6666666666667,58 512,72 512,72l16,0 C528,72 669.3333333333334,100 669.3333333333334,100l16,0 C685.3333333333334,100 826.6666666666667,139 826.6666666666667,139l16,0 C842.6666666666667,139 984,144 984,144l16,0 l0,7 l -16,0 C984,151 842.6666666666667,146 842.6666666666667,146l-16,0 C826.6666666666667,146 685.3333333333334,107 685.3333333333334,107l-16,0 C669.3333333333334,107 528,79 528,79l-16,0 C512,79 370.6666666666667,65 370.6666666666667,65l-16,0 C354.6666666666667,65 213.33333333333334,139 213.33333333333334,139l-16,0 C197.33333333333334,139 56,86 56,86l-16,0 Z"/><path class="path" stroke-opacity="1" fill="rgb(251, 168, 54)" fill-opacity="0.6" stroke="lightgray" stroke-width="0.2" d="M 40,86l16,0 C56,86 197.33333333333334,139 197.33333333333334,139l16,0 C213.33333333333334,139 354.6666666666667,220 354.6666666666667,220l16,0 C370.6666666666667,220 512,79 512,79l16,0 C528,79 669.3333333333334,107 669.3333333333334,107l16,0 C685.3333333333334,107 826.6666666666667,146 826.6666666666667,146l16,0 C842.6666666666667,146 984,151 984,151l16,0 l0,7 l -16,0 C984,158 842.6666666666667,153 842.6666666666667,153l-16,0 C826.6666666666667,153 685.3333333333334,114 685.3333333333334,114l-16,0 C669.3333333333334,114 528,86 528,86l-16,0 C512,86 370.6666666666667,227 370.6666666666667,227l-16,0 C354.6666666666667,227 213.33333333333334,146 213.33333333333334,146l-16,0 C197.33333333333334,146 56,93 56,93l-16,0 Z"/><path class="path" stroke-opacity="1" fill="rgb(251, 168, 54)" fill-opacity="0.6" stroke="lightgray" stroke-width="0.2" d="M 40,93l16,0 C56,93 197.33333333333334,252 197.33333333333334,252l16,0 C213.33333333333334,252 354.6666666666667,227 354.6666666666667,227l16,0 C370.6666666666667,227 512,86 512,86l16,0 C528,86 669.3333333333334,114 669.3333333333334,114l16,0 C685.3333333333334,114 826.6666666666667,153 826.6666666666667,153l16,0 C842.6666666666667,153 984,158 984,158l16,0 l0,7 l -16,0 C984,165 842.6666666666667,160 842.6666666666667,160l-16,0 C826.6666666666667,160 685.3333333333334,121 685.3333333333334,121l-16,0 C669.3333333333334,121 528,93 528,93l-16,0 C512,93 370.6666666666667,234 370.6666666666667,234l-16,0 C354.6666666666667,234 213.33333333333334,259 213.33333333333334,259l-16,0 C197.33333333333334,259 56,100 56,100l-16,0 Z"/><path class="path" stroke-opacity="1" fill="rgb(251, 168, 54)" fill-opacity="0.6" stroke="lightgray" stroke-width="0.2" d="M 40,100l16,0 C56,100 197.33333333333334,259 197.33333333333334,259l16,0 C213.33333333333334,259 354.6666666666667,234 354.6666666666667,234l16,0 C370.6666666666667,234 512,227 512,227l16,0 C528,227 669.3333333333334,121 669.3333333333334,121l16,0 C685.3333333333334,121 826.6666666666667,160 826.6666666666667,160l16,0 C842.6666666666667,160 984,165 984,165l16,0 l0,7 l -16,0 C984,172 842.6666666666667,167 842.6666666666667,167l-16,0 C826.6666666666667,167 685.3333333333334,128 685.3333333333334,128l-16,0 C669.3333333333334,128 528,234 528,234l-16,0 C512,234 370.6666666666667,241 370.6666666666667,241l-16,0 C354.6666666666667,241 213.33333333333334,266 213.33333333333334,266l-16,0 C197.33333333333334,266 56,107 56,107l-16,0 Z"/><path class="path" stroke-opacity="1" fill="rgb(251, 168, 54)" fill-opacity="0.6" stroke="lightgray" stroke-width="0.2" d="M 40,227l16,0 C56,227 197.33333333333334,47 197.33333333333334,47l16,0 C213.33333333333334,47 354.6666666666667,65 354.6666666666667,65l16,0 C370.6666666666667,65 512,234 512,234l16,0 C528,234 669.3333333333334,128 669.3333333333334,128l16,0 C685.3333333333334,128 826.6666666666667,167 826.6666666666667,167l16,0 C842.6666666666667,167 984,172 984,172l16,0 l0,7 l -16,0 C984,179 842.6666666666667,174 842.6666666666667,174l-16,0 C826.6666666666667,174 685.3333333333334,135 685.3333333333334,135l-16,0 C669.3333333333334,135 528,241 528,241l-16,0 C512,241 370.6666666666667,72 370.6666666666667,72l-16,0 C354.6666666666667,72 213.33333333333334,54 213.33333333333334,54l-16,0 C197.33333333333334,54 56,234 56,234l-16,0 Z"/><path class="path" stroke-opacity="1" fill="rgb(251, 168, 54)" fill-opacity="0.6" stroke="lightgray" stroke-width="0.2" d="M 40,234l16,0 C56,234 197.33333333333334,54 197.33333333333334,54l16,0 C213.33333333333334,54 354.6666666666667,241 354.6666666666667,241l16,0 C370.6666666666667,241 512,241 512,241l16,0 C528,241 669.3333333333334,135 669.3333333333334,135l16,0 C685.3333333333334,135 826.6666666666667,174 826.6666666666667,174l16,0 C842.6666666666667,174 984,179 984,179l16,0 l0,7 l -16,0 C984,186 842.6666666666667,181 842.6666666666667,181l-16,0 C826.6666666666667,181 685.3333333333334,142 685.3333333333334,142l-16,0 C669.3333333333334,142 528,248 528,248l-16,0 C512,248 370.6666666666667,248 370.6666666666667,248l-16,0 C354.6666666666667,248 213.33333333333334,61 213.33333333333334,61l-16,0 C197.33333333333334,61 56,241 56,241l-16,0 Z"/><path class="path" stroke-opacity="1" fill="rgb(251, 168, 54)" fill-opacity="0.6" stroke="lightgray" stroke-width="0.2" d="M 40,241l16,0 C56,241 197.33333333333334,146 197.33333333333334,146l16,0 C213.33333333333334,146 354.6666666666667,248 354.6666666666667,248l16,0 C370.6666666666667,248 512,248 512,248l16,0 C528,248 669.3333333333334,269 669.3333333333334,269l16,0 C685.3333333333334,269 826.6666666666667,181 826.6666666666667,181l16,0 C842.6666666666667,181 984,186 984,186l16,0 l0,7 l -16,0 C984,193 842.6666666666667,188 842.6666666666667,188l-16,0 C826.6666666666667,188 685.3333333333334,276 685.3333333333334,276l-16,0 C669.3333333333334,276 528,255 528,255l-16,0 C512,255 370.6666666666667,255 370.6666666666667,255l-16,0 C354.6666666666667,255 213.33333333333334,153 213.33333333333334,153l-16,0 C197.33333333333334,153 56,248 56,248l-16,0 Z"/><path class="path" stroke-opacity="1" fill="rgb(251, 168, 54)" fill-opacity="0.6" stroke="lightgray" stroke-width="0.2" d="M 40,248l16,0 C56,248 197.33333333333334,266 197.33333333333334,266l16,0 C213.33333333333334,266 354.6666666666667,255 354.6666666666667,255l16,0 C370.6666666666667,255 512,93 512,93l16,0 C528,93 669.3333333333334,276 669.3333333333334,276l16,0 C685.3333333333334,276 826.6666666666667,188 826.6666666666667,188l16,0 C842.6666666666667,188 984,193 984,193l16,0 l0,7 l -16,0 C984,200 842.6666666666667,195 842.6666666666667,195l-16,0 C826.6666666666667,195 685.3333333333334,283 685.3333333333334,283l-16,0 C669.3333333333334,283 528,100 528,100l-16,0 C512,100 370.6666666666667,262 370.6666666666667,262l-16,0 C354.6666666666667,262 213.33333333333334,273 213.33333333333334,273l-16,0 C197.33333333333334,273 56,255 56,255l-16,0 Z"/><path class="path" stroke-opacity="1" fill="rgb(224, 101, 97)" fill-opacity="0.6" stroke="lightgray" stroke-width="0.2" d="M 40,107l16,0 C56,107 197.33333333333334,153 197.33333333333334,153l16,0 C213.33333333333334,153 354.6666666666667,262 354.6666666666667,262l16,0 C370.6666666666667,262 512,100 512,100l16,0 C528,100 669.3333333333334,142 669.3333333333334,142l16,0 C685.3333333333334,142 826.6666666666667,195 826.6666666666667,195l16,0 C842.6666666666667,195 984,94 984,94l16,0 l0,7 l -16,0 C984,101 842.6666666666667,202 842.6666666666667,202l-16,0 C826.6666666666667,202 685.3333333333334,149 685.3333333333334,149l-16,0 C669.3333333333334,149 528,107 528,107l-16,0 C512,107 370.6666666666667,269 370.6666666666667,269l-16,0 C354.6666666666667,269 213.33333333333334,160 213.33333333333334,160l-16,0 C197.33333333333334,160 56,114 56,114l-16,0 Z"/><path class="path" stroke-opacity="1" fill="rgb(224, 101, 97)" fill-opacity="0.6" stroke="lightgray" stroke-width="0.2" d="M 40,121l16,0 C56,121 197.33333333333334,280 197.33333333333334,280l16,0 C213.33333333333334,280 354.6666666666667,79 354.6666666666667,79l16,0 C370.6666666666667,79 512,255 512,255l16,0 C528,255 669.3333333333334,283 669.3333333333334,283l16,0 C685.3333333333334,283 826.6666666666667,209 826.6666666666667,209l16,0 C842.6666666666667,209 984,108 984,108l16,0 l0,7 l -16,0 C984,115 842.6666666666667,216 842.6666666666667,216l-16,0 C826.6666666666667,216 685.3333333333334,290 685.3333333333334,290l-16,0 C669.3333333333334,290 528,262 528,262l-16,0 C512,262 370.6666666666667,86 370.6666666666667,86l-16,0 C354.6666666666667,86 213.33333333333334,287 213.33333333333334,287l-16,0 C197.33333333333334,287 56,128 56,128l-16,0 Z"/><path class="path" stroke-opacity="1" fill="rgb(224, 101, 97)" fill-opacity="0.6" stroke="lightgray" stroke-width="0.2" d="M 40,255l16,0 C56,255 197.33333333333334,61 197.33333333333334,61l16,0 C213.33333333333334,61 354.6666666666667,269 354.6666666666667,269l16,0 C370.6666666666667,269 512,114 512,114l16,0 C528,114 669.3333333333334,156 669.3333333333334,156l16,0 C685.3333333333334,156 826.6666666666667,216 826.6666666666667,216l16,0 C842.6666666666667,216 984,115 984,115l16,0 l0,7 l -16,0 C984,122 842.6666666666667,223 842.6666666666667,223l-16,0 C826.6666666666667,223 685.3333333333334,163 685.3333333333334,163l-16,0 C669.3333333333334,163 528,121 528,121l-16,0 C512,121 370.6666666666667,276 370.6666666666667,276l-16,0 C354.6666666666667,276 213.33333333333334,68 213.33333333333334,68l-16,0 C197.33333333333334,68 56,262 56,262l-16,0 Z"/><path class="path" stroke-opacity="1" fill="rgb(224, 101, 97)" fill-opacity="0.6" stroke="lightgray" stroke-width="0.2" d="M 40,262l16,0 C56,262 197.33333333333334,287 197.33333333333334,287l16,0 C213.33333333333334,287 354.6666666666667,276 354.6666666666667,276l16,0 C370.6666666666667,276 512,262 512,262l16,0 C528,262 669.3333333333334,163 669.3333333333334,163l16,0 C685.3333333333334,163 826.6666666666667,223 826.6666666666667,223l16,0 C842.6666666666667,223 984,122 984,122l16,0 l0,7 l -16,0 C984,129 842.6666666666667,230 842.6666666666667,230l-16,0 C826.6666666666667,230 685.3333333333334,170 685.3333333333334,170l-16,0 C669.3333333333334,170 528,269 528,269l-16,0 C512,269 370.6666666666667,283 370.6666666666667,283l-16,0 C354.6666666666667,283 213.33333333333334,294 213.33333333333334,294l-16,0 C197.33333333333334,294 56,269 56,269l-16,0 Z"/><path class="path" stroke-opacity="1" fill="rgb(224, 101, 97)" fill-opacity="0.6" stroke="lightgray" stroke-width="0.2" d="M 40,114l16,0 C56,114 197.33333333333334,273 197.33333333333334,273l16,0 C213.33333333333334,273 354.6666666666667,72 354.6666666666667,72l16,0 C370.6666666666667,72 512,107 512,107l16,0 C528,107 669.3333333333334,149 669.3333333333334,149l16,0 C685.3333333333334,149 826.6666666666667,202 826.6666666666667,202l16,0 C842.6666666666667,202 984,101 984,101l16,0 l0,7 l -16,0 C984,108 842.6666666666667,209 842.6666666666667,209l-16,0 C826.6666666666667,209 685.3333333333334,156 685.3333333333334,156l-16,0 C669.3333333333334,156 528,114 528,114l-16,0 C512,114 370.6666666666667,79 370.6666666666667,79l-16,0 C354.6666666666667,79 213.33333333333334,280 213.33333333333334,280l-16,0 C197.33333333333334,280 56,121 56,121l-16,0 Z"/><path class="path" stroke-opacity="1" fill="rgb(176, 42, 144)" fill-opacity="0.6" stroke="lightgray" stroke-width="0.2" d="M 40,128l16,0 C56,128 197.33333333333334,160 197.33333333333334,160l16,0 C213.33333333333334,160 354.6666666666667,86 354.6666666666667,86l16,0 C370.6666666666667,86 512,269 512,269l16,0 C528,269 669.3333333333334,170 669.3333333333334,170l16,0 C685.3333333333334,170 826.6666666666667,230 826.6666666666667,230l16,0 C842.6666666666667,230 984,51 984,51l16,0 l0,7 l -16,0 C984,58 842.6666666666667,237 842.6666666666667,237l-16,0 C826.6666666666667,237 685.3333333333334,177 685.3333333333334,177l-16,0 C669.3333333333334,177 528,276 528,276l-16,0 C512,276 370.6666666666667,93 370.6666666666667,93l-16,0 C354.6666666666667,93 213.33333333333334,167 213.33333333333334,167l-16,0 C197.33333333333334,167 56,135 56,135l-16,0 Z"/><path class="path" stroke-opacity="1" fill="rgb(176, 42, 144)" fill-opacity="0.6" stroke="lightgray" stroke-width="0.2" d="M 40,135l16,0 C56,135 197.33333333333334,294 197.33333333333334,294l16,0 C213.33333333333334,294 354.6666666666667,93 354.6666666666667,93l16,0 C370.6666666666667,93 512,121 512,121l16,0 C528,121 669.3333333333334,290 669.3333333333334,290l16,0 C685.3333333333334,290 826.6666666666667,237 826.6666666666667,237l16,0 C842.6666666666667,237 984,58 984,58l16,0 l0,7 l -16,0 C984,65 842.6666666666667,244 842.6666666666667,244l-16,0 C826.6666666666667,244 685.3333333333334,297 685.3333333333334,297l-16,0 C669.3333333333334,297 528,128 528,128l-16,0 C512,128 370.6666666666667,100 370.6666666666667,100l-16,0 C354.6666666666667,100 213.33333333333334,301 213.33333333333334,301l-16,0 C197.33333333333334,301 56,142 56,142l-16,0 Z"/><path class="path" stroke-opacity="1" fill="rgb(176, 42, 144)" fill-opacity="0.6" stroke="lightgray" stroke-width="0.2" d="M 40,269l16,0 C56,269 197.33333333333334,167 197.33333333333334,167l16,0 C213.33333333333334,167 354.6666666666667,100 354.6666666666667,100l16,0 C370.6666666666667,100 512,128 512,128l16,0 C528,128 669.3333333333334,297 669.3333333333334,297l16,0 C685.3333333333334,297 826.6666666666667,244 826.6666666666667,244l16,0 C842.6666666666667,244 984,65 984,65l16,0 l0,7 l -16,0 C984,72 842.6666666666667,251 842.6666666666667,251l-16,0 C826.6666666666667,251 685.3333333333334,304 685.3333333333334,304l-16,0 C669.3333333333334,304 528,135 528,135l-16,0 C512,135 370.6666666666667,107 370.6666666666667,107l-16,0 C354.6666666666667,107 213.33333333333334,174 213.33333333333334,174l-16,0 C197.33333333333334,174 56,276 56,276l-16,0 Z"/><path class="path" stroke-opacity="1" fill="rgb(176, 42, 144)" fill-opacity="0.6" stroke="lightgray" stroke-width="0.2" d="M 40,276l16,0 C56,276 197.33333333333334,174 197.33333333333334,174l16,0 C213.33333333333334,174 354.6666666666667,283 354.6666666666667,283l16,0 C370.6666666666667,283 512,276 512,276l16,0 C528,276 669.3333333333334,177 669.3333333333334,177l16,0 C685.3333333333334,177 826.6666666666667,251 826.6666666666667,251l16,0 C842.6666666666667,251 984,72 984,72l16,0 l0,7 l -16,0 C984,79 842.6666666666667,258 842.6666666666667,258l-16,0 C826.6666666666667,258 685.3333333333334,184 685.3333333333334,184l-16,0 C669.3333333333334,184 528,283 528,283l-16,0 C512,283 370.6666666666667,290 370.6666666666667,290l-16,0 C354.6666666666667,290 213.33333333333334,181 213.33333333333334,181l-16,0 C197.33333333333334,181 56,283 56,283l-16,0 Z"/><path class="path" stroke-opacity="1" fill="rgb(176, 42, 144)" fill-opacity="0.6" stroke="lightgray" stroke-width="0.2" d="M 40,283l16,0 C56,283 197.33333333333334,301 197.33333333333334,301l16,0 C213.33333333333334,301 354.6666666666667,107 354.6666666666667,107l16,0 C370.6666666666667,107 512,283 512,283l16,0 C528,283 669.3333333333334,184 669.3333333333334,184l16,0 C685.3333333333334,184 826.6666666666667,258 826.6666666666667,258l16,0 C842.6666666666667,258 984,79 984,79l16,0 l0,7 l -16,0 C984,86 842.6666666666667,265 842.6666666666667,265l-16,0 C826.6666666666667,265 685.3333333333334,191 685.3333333333334,191l-16,0 C669.3333333333334,191 528,290 528,290l-16,0 C512,290 370.6666666666667,114 370.6666666666667,114l-16,0 C354.6666666666667,114 213.33333333333334,308 213.33333333333334,308l-16,0 C197.33333333333334,308 56,290 56,290l-16,0 Z"/><path class="path" stroke-opacity="1" fill="rgb(105, 1, 166)" fill-opacity="0.6" stroke="lightgray" stroke-width="0.2" d="M 40,142l16,0 C56,142 197.33333333333334,181 197.33333333333334,181l16,0 C213.33333333333334,181 354.6666666666667,114 354.6666666666667,114l16,0 C370.6666666666667,114 512,290 512,290l16,0 C528,290 669.3333333333334,191 669.3333333333334,191l16,0 C685.3333333333334,191 826.6666666666667,265 826.6666666666667,265l16,0 C842.6666666666667,265 984,15 984,15l16,0 l0,7 l -16,0 C984,22 842.6666666666667,272 842.6666666666667,272l-16,0 C826.6666666666667,272 685.3333333333334,198 685.3333333333334,198l-16,0 C669.3333333333334,198 528,297 528,297l-16,0 C512,297 370.6666666666667,121 370.6666666666667,121l-16,0 C354.6666666666667,121 213.33333333333334,188 213.33333333333334,188l-16,0 C197.33333333333334,188 56,149 56,149l-16,0 Z"/><path class="path" stroke-opacity="1" fill="rgb(105, 1, 166)" fill-opacity="0.6" stroke="lightgray" stroke-width="0.2" d="M 40,149l16,0 C56,149 197.33333333333334,188 197.33333333333334,188l16,0 C213.33333333333334,188 354.6666666666667,290 354.6666666666667,290l16,0 C370.6666666666667,290 512,135 512,135l16,0 C528,135 669.3333333333334,198 669.3333333333334,198l16,0 C685.3333333333334,198 826.6666666666667,272 826.6666666666667,272l16,0 C842.6666666666667,272 984,22 984,22l16,0 l0,7 l -16,0 C984,29 842.6666666666667,279 842.6666666666667,279l-16,0 C826.6666666666667,279 685.3333333333334,205 685.3333333333334,205l-16,0 C669.3333333333334,205 528,142 528,142l-16,0 C512,142 370.6666666666667,297 370.6666666666667,297l-16,0 C354.6666666666667,297 213.33333333333334,195 213.33333333333334,195l-16,0 C197.33333333333334,195 56,156 56,156l-16,0 Z"/><path class="path" stroke-opacity="1" fill="rgb(105, 1, 166)" fill-opacity="0.6" stroke="lightgray" stroke-width="0.2" d="M 40,290l16,0 C56,290 197.33333333333334,195 197.33333333333334,195l16,0 C213.33333333333334,195 354.6666666666667,121 354.6666666666667,121l16,0 C370.6666666666667,121 512,297 512,297l16,0 C528,297 669.3333333333334,205 669.3333333333334,205l16,0 C685.3333333333334,205 826.6666666666667,279 826.6666666666667,279l16,0 C842.6666666666667,279 984,29 984,29l16,0 l0,7 l -16,0 C984,36 842.6666666666667,286 842.6666666666667,286l-16,0 C826.6666666666667,286 685.3333333333334,212 685.3333333333334,212l-16,0 C669.3333333333334,212 528,304 528,304l-16,0 C512,304 370.6666666666667,128 370.6666666666667,128l-16,0 C354.6666666666667,128 213.33333333333334,202 213.33333333333334,202l-16,0 C197.33333333333334,202 56,297 56,297l-16,0 Z"/><path class="path" stroke-opacity="1" fill="rgb(105, 1, 166)" fill-opacity="0.6" stroke="lightgray" stroke-width="0.2" d="M 40,297l16,0 C56,297 197.33333333333334,202 197.33333333333334,202l16,0 C213.33333333333334,202 354.6666666666667,297 354.6666666666667,297l16,0 C370.6666666666667,297 512,142 512,142l16,0 C528,142 669.3333333333334,212 669.3333333333334,212l16,0 C685.3333333333334,212 826.6666666666667,286 826.6666666666667,286l16,0 C842.6666666666667,286 984,36 984,36l16,0 l0,7 l -16,0 C984,43 842.6666666666667,293 842.6666666666667,293l-16,0 C826.6666666666667,293 685.3333333333334,219 685.3333333333334,219l-16,0 C669.3333333333334,219 528,149 528,149l-16,0 C512,149 370.6666666666667,304 370.6666666666667,304l-16,0 C354.6666666666667,304 213.33333333333334,209 213.33333333333334,209l-16,0 C197.33333333333334,209 56,304 56,304l-16,0 Z"/><path class="path" stroke-opacity="1" fill="rgb(13, 8, 135)" fill-opacity="0.6" stroke="lightgray" stroke-width="0.2" d="M 40,156l16,0 C56,156 197.33333333333334,68 197.33333333333334,68l16,0 C213.33333333333334,68 354.6666666666667,128 354.6666666666667,128l16,0 C370.6666666666667,128 512,149 512,149l16,0 C528,149 669.3333333333334,219 669.3333333333334,219l16,0 C685.3333333333334,219 826.6666666666667,293 826.6666666666667,293l16,0 C842.6666666666667,293 984,0 984,0l16,0 l0,7 l -16,0 C984,7 842.6666666666667,300 842.6666666666667,300l-16,0 C826.6666666666667,300 685.3333333333334,226 685.3333333333334,226l-16,0 C669.3333333333334,226 528,156 528,156l-16,0 C512,156 370.6666666666667,135 370.6666666666667,135l-16,0 C354.6666666666667,135 213.33333333333334,75 213.33333333333334,75l-16,0 C197.33333333333334,75 56,163 56,163l-16,0 Z"/></g><g class="dimensions"><g class="dimension" transform="translate(40, 0)"><g class="category" transform="translate(0, 16)"><rect class="catrect" pointer-events="none" fill="none" width="16" height="147" stroke="black" stroke-width="1" stroke-opacity="1"/><rect class="bandrect" stroke-opacity="1" fill="rgb(240, 249, 33)" fill-opacity="1" width="16" height="56" y="0" cursor="ns-resize" stroke="black" stroke-width="0.2"/><rect class="bandrect" stroke-opacity="1" fill="rgb(251, 168, 54)" fill-opacity="1" width="16" height="35" y="56" cursor="ns-resize" stroke="black" stroke-width="0.2"/><rect class="bandrect" stroke-opacity="1" fill="rgb(224, 101, 97)" fill-opacity="1" width="16" height="21" y="91" cursor="ns-resize" stroke="black" stroke-width="0.2"/><rect class="bandrect" stroke-opacity="1" fill="rgb(176, 42, 144)" fill-opacity="1" width="16" height="14" y="112" cursor="ns-resize" stroke="black" stroke-width="0.2"/><rect class="bandrect" stroke-opacity="1" fill="rgb(105, 1, 166)" fill-opacity="1" width="16" height="14" y="126" cursor="ns-resize" stroke="black" stroke-width="0.2"/><rect class="bandrect" stroke-opacity="1" fill="rgb(13, 8, 135)" fill-opacity="1" width="16" height="7" y="140" cursor="ns-resize" stroke="black" stroke-width="0.2"/><text class="catlabel" pointer-events="none" text-anchor="end" alignment-baseline="middle" x="-5" y="73.5" style="text-shadow: rgb(255, 255, 255) -1px 1px 2px, rgb(255, 255, 255) 1px 1px 2px, rgb(255, 255, 255) 1px -1px 2px, rgb(255, 255, 255) -1px -1px 2px; fill: rgb(68, 68, 68); font-family: 'Open Sans', verdana, arial, sans-serif; font-size: 15px; fill-opacity: 1; white-space: pre;">(test_r2 > 0.65)</text><text class="dimlabel" text-anchor="middle" alignment-baseline="baseline" cursor="ew-resize" x="8" y="-5" style="font-family: 'Open Sans', verdana, arial, sans-serif; font-size: 18px; fill: rgb(68, 68, 68); fill-opacity: 1;">CV threshold</text></g><g class="category" transform="translate(0, 171)"><rect class="catrect" pointer-events="none" fill="none" width="16" height="133" stroke="black" stroke-width="1" stroke-opacity="1"/><rect class="bandrect" stroke-opacity="1" fill="rgb(240, 249, 33)" fill-opacity="1" width="16" height="56" y="0" cursor="ns-resize" stroke="black" stroke-width="0.2"/><rect class="bandrect" stroke-opacity="1" fill="rgb(251, 168, 54)" fill-opacity="1" width="16" height="28" y="56" cursor="ns-resize" stroke="black" stroke-width="0.2"/><rect class="bandrect" stroke-opacity="1" fill="rgb(224, 101, 97)" fill-opacity="1" width="16" height="14" y="84" cursor="ns-resize" stroke="black" stroke-width="0.2"/><rect class="bandrect" stroke-opacity="1" fill="rgb(176, 42, 144)" fill-opacity="1" width="16" height="21" y="98" cursor="ns-resize" stroke="black" stroke-width="0.2"/><rect class="bandrect" stroke-opacity="1" fill="rgb(105, 1, 166)" fill-opacity="1" width="16" height="14" y="119" cursor="ns-resize" stroke="black" stroke-width="0.2"/><text class="catlabel" pointer-events="none" text-anchor="end" alignment-baseline="middle" x="-5" y="66.5" style="text-shadow: rgb(255, 255, 255) -1px 1px 2px, rgb(255, 255, 255) 1px 1px 2px, rgb(255, 255, 255) 1px -1px 2px, rgb(255, 255, 255) -1px -1px 2px; fill: rgb(68, 68, 68); font-family: 'Open Sans', verdana, arial, sans-serif; font-size: 15px; fill-opacity: 1; white-space: pre;">(test_r2 > 0.2)</text><text class="dimlabel" text-anchor="middle" alignment-baseline="baseline" cursor="ew-resize" x="8" y="-5" style="font-family: 'Open Sans', verdana, arial, sans-serif; font-size: 18px; fill: rgb(68, 68, 68); fill-opacity: 1;"/></g></g><g class="dimension" transform="translate(197.33333333333334, 0)"><g class="category" transform="translate(0, 12)"><rect class="catrect" pointer-events="none" fill="none" width="16" height="63" stroke="black" stroke-width="1" stroke-opacity="1"/><rect class="bandrect" stroke-opacity="1" fill="rgb(240, 249, 33)" fill-opacity="1" width="16" height="28" y="0" cursor="ns-resize" stroke="black" stroke-width="0.2"/><rect class="bandrect" stroke-opacity="1" fill="rgb(251, 168, 54)" fill-opacity="1" width="16" height="21" y="28" cursor="ns-resize" stroke="black" stroke-width="0.2"/><rect class="bandrect" stroke-opacity="1" fill="rgb(224, 101, 97)" fill-opacity="1" width="16" height="7" y="49" cursor="ns-resize" stroke="black" stroke-width="0.2"/><rect class="bandrect" stroke-opacity="1" fill="rgb(13, 8, 135)" fill-opacity="1" width="16" height="7" y="56" cursor="ns-resize" stroke="black" stroke-width="0.2"/><text class="catlabel" pointer-events="none" text-anchor="end" alignment-baseline="middle" x="-5" y="31.5" style="text-shadow: rgb(255, 255, 255) -1px 1px 2px, rgb(255, 255, 255) 1px 1px 2px, rgb(255, 255, 255) 1px -1px 2px, rgb(255, 255, 255) -1px -1px 2px; fill: rgb(68, 68, 68); font-family: 'Open Sans', verdana, arial, sans-serif; font-size: 15px; fill-opacity: 1; white-space: pre;">(ndf_surr_score > 0.6)</text><text class="dimlabel" text-anchor="middle" alignment-baseline="baseline" cursor="ew-resize" x="8" y="-5" style="font-family: 'Open Sans', verdana, arial, sans-serif; font-size: 18px; fill: rgb(68, 68, 68); fill-opacity: 1;">Test-set threshold</text></g><g class="category" transform="translate(0, 83)"><rect class="catrect" pointer-events="none" fill="none" width="16" height="126" stroke="black" stroke-width="1" stroke-opacity="1"/><rect class="bandrect" stroke-opacity="1" fill="rgb(240, 249, 33)" fill-opacity="1" width="16" height="49" y="0" cursor="ns-resize" stroke="black" stroke-width="0.2"/><rect class="bandrect" stroke-opacity="1" fill="rgb(251, 168, 54)" fill-opacity="1" width="16" height="21" y="49" cursor="ns-resize" stroke="black" stroke-width="0.2"/><rect class="bandrect" stroke-opacity="1" fill="rgb(224, 101, 97)" fill-opacity="1" width="16" height="7" y="70" cursor="ns-resize" stroke="black" stroke-width="0.2"/><rect class="bandrect" stroke-opacity="1" fill="rgb(176, 42, 144)" fill-opacity="1" width="16" height="21" y="77" cursor="ns-resize" stroke="black" stroke-width="0.2"/><rect class="bandrect" stroke-opacity="1" fill="rgb(105, 1, 166)" fill-opacity="1" width="16" height="28" y="98" cursor="ns-resize" stroke="black" stroke-width="0.2"/><text class="catlabel" pointer-events="none" text-anchor="end" alignment-baseline="middle" x="-5" y="63" style="text-shadow: rgb(255, 255, 255) -1px 1px 2px, rgb(255, 255, 255) 1px 1px 2px, rgb(255, 255, 255) 1px -1px 2px, rgb(255, 255, 255) -1px -1px 2px; fill: rgb(68, 68, 68); font-family: 'Open Sans', verdana, arial, sans-serif; font-size: 15px; fill-opacity: 1; white-space: pre;">(ndf_surr_score > 0.9)</text><text class="dimlabel" text-anchor="middle" alignment-baseline="baseline" cursor="ew-resize" x="8" y="-5" style="font-family: 'Open Sans', verdana, arial, sans-serif; font-size: 18px; fill: rgb(68, 68, 68); fill-opacity: 1;"/></g><g class="category" transform="translate(0, 217)"><rect class="catrect" pointer-events="none" fill="none" width="16" height="91" stroke="black" stroke-width="1" stroke-opacity="1"/><rect class="bandrect" stroke-opacity="1" fill="rgb(240, 249, 33)" fill-opacity="1" width="16" height="35" y="0" cursor="ns-resize" stroke="black" stroke-width="0.2"/><rect class="bandrect" stroke-opacity="1" fill="rgb(251, 168, 54)" fill-opacity="1" width="16" height="21" y="35" cursor="ns-resize" stroke="black" stroke-width="0.2"/><rect class="bandrect" stroke-opacity="1" fill="rgb(224, 101, 97)" fill-opacity="1" width="16" height="21" y="56" cursor="ns-resize" stroke="black" stroke-width="0.2"/><rect class="bandrect" stroke-opacity="1" fill="rgb(176, 42, 144)" fill-opacity="1" width="16" height="14" y="77" cursor="ns-resize" stroke="black" stroke-width="0.2"/><text class="catlabel" pointer-events="none" text-anchor="end" alignment-baseline="middle" x="-5" y="45.5" style="text-shadow: rgb(255, 255, 255) -1px 1px 2px, rgb(255, 255, 255) 1px 1px 2px, rgb(255, 255, 255) 1px -1px 2px, rgb(255, 255, 255) -1px -1px 2px; fill: rgb(68, 68, 68); font-family: 'Open Sans', verdana, arial, sans-serif; font-size: 15px; fill-opacity: 1; white-space: pre;">(ndf_surr_score > 0)</text><text class="dimlabel" text-anchor="middle" alignment-baseline="baseline" cursor="ew-resize" x="8" y="-5" style="font-family: 'Open Sans', verdana, arial, sans-serif; font-size: 18px; fill: rgb(68, 68, 68); fill-opacity: 1;"/></g></g><g class="dimension" transform="translate(354.6666666666667, 0)"><g class="category" transform="translate(0, 16)"><rect class="catrect" pointer-events="none" fill="none" width="16" height="119" stroke="black" stroke-width="1" stroke-opacity="1"/><rect class="bandrect" stroke-opacity="1" fill="rgb(240, 249, 33)" fill-opacity="1" width="16" height="42" y="0" cursor="ns-resize" stroke="black" stroke-width="0.2"/><rect class="bandrect" stroke-opacity="1" fill="rgb(251, 168, 54)" fill-opacity="1" width="16" height="14" y="42" cursor="ns-resize" stroke="black" stroke-width="0.2"/><rect class="bandrect" stroke-opacity="1" fill="rgb(224, 101, 97)" fill-opacity="1" width="16" height="14" y="56" cursor="ns-resize" stroke="black" stroke-width="0.2"/><rect class="bandrect" stroke-opacity="1" fill="rgb(176, 42, 144)" fill-opacity="1" width="16" height="28" y="70" cursor="ns-resize" stroke="black" stroke-width="0.2"/><rect class="bandrect" stroke-opacity="1" fill="rgb(105, 1, 166)" fill-opacity="1" width="16" height="14" y="98" cursor="ns-resize" stroke="black" stroke-width="0.2"/><rect class="bandrect" stroke-opacity="1" fill="rgb(13, 8, 135)" fill-opacity="1" width="16" height="7" y="112" cursor="ns-resize" stroke="black" stroke-width="0.2"/><text class="catlabel" pointer-events="none" text-anchor="end" alignment-baseline="middle" x="-5" y="59.5" style="text-shadow: rgb(255, 255, 255) -1px 1px 2px, rgb(255, 255, 255) 1px 1px 2px, rgb(255, 255, 255) 1px -1px 2px, rgb(255, 255, 255) -1px -1px 2px; fill: rgb(68, 68, 68); font-family: 'Open Sans', verdana, arial, sans-serif; font-size: 15px; fill-opacity: 1; white-space: pre;">stack</text><text class="dimlabel" text-anchor="middle" alignment-baseline="baseline" cursor="ew-resize" x="8" y="-5" style="font-family: 'Open Sans', verdana, arial, sans-serif; font-size: 18px; fill: rgb(68, 68, 68); fill-opacity: 1;">Solution combination</text></g><g class="category" transform="translate(0, 143)"><rect class="catrect" pointer-events="none" fill="none" width="16" height="161" stroke="black" stroke-width="1" stroke-opacity="1"/><rect class="bandrect" stroke-opacity="1" fill="rgb(240, 249, 33)" fill-opacity="1" width="16" height="70" y="0" cursor="ns-resize" stroke="black" stroke-width="0.2"/><rect class="bandrect" stroke-opacity="1" fill="rgb(251, 168, 54)" fill-opacity="1" width="16" height="49" y="70" cursor="ns-resize" stroke="black" stroke-width="0.2"/><rect class="bandrect" stroke-opacity="1" fill="rgb(224, 101, 97)" fill-opacity="1" width="16" height="21" y="119" cursor="ns-resize" stroke="black" stroke-width="0.2"/><rect class="bandrect" stroke-opacity="1" fill="rgb(176, 42, 144)" fill-opacity="1" width="16" height="7" y="140" cursor="ns-resize" stroke="black" stroke-width="0.2"/><rect class="bandrect" stroke-opacity="1" fill="rgb(105, 1, 166)" fill-opacity="1" width="16" height="14" y="147" cursor="ns-resize" stroke="black" stroke-width="0.2"/><text class="catlabel" pointer-events="none" text-anchor="end" alignment-baseline="middle" x="-5" y="80.5" style="text-shadow: rgb(255, 255, 255) -1px 1px 2px, rgb(255, 255, 255) 1px 1px 2px, rgb(255, 255, 255) 1px -1px 2px, rgb(255, 255, 255) -1px -1px 2px; fill: rgb(68, 68, 68); font-family: 'Open Sans', verdana, arial, sans-serif; font-size: 15px; fill-opacity: 1; white-space: pre;">ndf_score</text><text class="dimlabel" text-anchor="middle" alignment-baseline="baseline" cursor="ew-resize" x="8" y="-5" style="font-family: 'Open Sans', verdana, arial, sans-serif; font-size: 18px; fill: rgb(68, 68, 68); fill-opacity: 1;"/></g></g><g class="dimension" transform="translate(512, 0)"><g class="category" transform="translate(0, 16)"><rect class="catrect" pointer-events="none" fill="none" width="16" height="140" stroke="black" stroke-width="1" stroke-opacity="1"/><rect class="bandrect" stroke-opacity="1" fill="rgb(240, 249, 33)" fill-opacity="1" width="16" height="56" y="0" cursor="ns-resize" stroke="black" stroke-width="0.2"/><rect class="bandrect" stroke-opacity="1" fill="rgb(251, 168, 54)" fill-opacity="1" width="16" height="28" y="56" cursor="ns-resize" stroke="black" stroke-width="0.2"/><rect class="bandrect" stroke-opacity="1" fill="rgb(224, 101, 97)" fill-opacity="1" width="16" height="21" y="84" cursor="ns-resize" stroke="black" stroke-width="0.2"/><rect class="bandrect" stroke-opacity="1" fill="rgb(176, 42, 144)" fill-opacity="1" width="16" height="14" y="105" cursor="ns-resize" stroke="black" stroke-width="0.2"/><rect class="bandrect" stroke-opacity="1" fill="rgb(105, 1, 166)" fill-opacity="1" width="16" height="14" y="119" cursor="ns-resize" stroke="black" stroke-width="0.2"/><rect class="bandrect" stroke-opacity="1" fill="rgb(13, 8, 135)" fill-opacity="1" width="16" height="7" y="133" cursor="ns-resize" stroke="black" stroke-width="0.2"/><text class="catlabel" pointer-events="none" text-anchor="end" alignment-baseline="middle" x="-5" y="70" style="text-shadow: rgb(255, 255, 255) -1px 1px 2px, rgb(255, 255, 255) 1px 1px 2px, rgb(255, 255, 255) 1px -1px 2px, rgb(255, 255, 255) -1px -1px 2px; fill: rgb(68, 68, 68); font-family: 'Open Sans', verdana, arial, sans-serif; font-size: 15px; fill-opacity: 1; white-space: pre;">0.1</text><text class="dimlabel" text-anchor="middle" alignment-baseline="baseline" cursor="ew-resize" x="8" y="-5" style="font-family: 'Open Sans', verdana, arial, sans-serif; font-size: 18px; fill: rgb(68, 68, 68); fill-opacity: 1;">train/test split</text></g><g class="category" transform="translate(0, 164)"><rect class="catrect" pointer-events="none" fill="none" width="16" height="140" stroke="black" stroke-width="1" stroke-opacity="1"/><rect class="bandrect" stroke-opacity="1" fill="rgb(240, 249, 33)" fill-opacity="1" width="16" height="56" y="0" cursor="ns-resize" stroke="black" stroke-width="0.2"/><rect class="bandrect" stroke-opacity="1" fill="rgb(251, 168, 54)" fill-opacity="1" width="16" height="35" y="56" cursor="ns-resize" stroke="black" stroke-width="0.2"/><rect class="bandrect" stroke-opacity="1" fill="rgb(224, 101, 97)" fill-opacity="1" width="16" height="14" y="91" cursor="ns-resize" stroke="black" stroke-width="0.2"/><rect class="bandrect" stroke-opacity="1" fill="rgb(176, 42, 144)" fill-opacity="1" width="16" height="21" y="105" cursor="ns-resize" stroke="black" stroke-width="0.2"/><rect class="bandrect" stroke-opacity="1" fill="rgb(105, 1, 166)" fill-opacity="1" width="16" height="14" y="126" cursor="ns-resize" stroke="black" stroke-width="0.2"/><text class="catlabel" pointer-events="none" text-anchor="end" alignment-baseline="middle" x="-5" y="70" style="text-shadow: rgb(255, 255, 255) -1px 1px 2px, rgb(255, 255, 255) 1px 1px 2px, rgb(255, 255, 255) 1px -1px 2px, rgb(255, 255, 255) -1px -1px 2px; fill: rgb(68, 68, 68); font-family: 'Open Sans', verdana, arial, sans-serif; font-size: 15px; fill-opacity: 1; white-space: pre;">0.25</text><text class="dimlabel" text-anchor="middle" alignment-baseline="baseline" cursor="ew-resize" x="8" y="-5" style="font-family: 'Open Sans', verdana, arial, sans-serif; font-size: 18px; fill: rgb(68, 68, 68); fill-opacity: 1;"/></g></g><g class="dimension" transform="translate(669.3333333333334, 0)"><g class="category" transform="translate(0, 16)"><rect class="catrect" pointer-events="none" fill="none" width="16" height="210" stroke="black" stroke-width="1" stroke-opacity="1"/><rect class="bandrect" stroke-opacity="1" fill="rgb(240, 249, 33)" fill-opacity="1" width="16" height="77" y="0" cursor="ns-resize" stroke="black" stroke-width="0.2"/><rect class="bandrect" stroke-opacity="1" fill="rgb(251, 168, 54)" fill-opacity="1" width="16" height="49" y="77" cursor="ns-resize" stroke="black" stroke-width="0.2"/><rect class="bandrect" stroke-opacity="1" fill="rgb(224, 101, 97)" fill-opacity="1" width="16" height="28" y="126" cursor="ns-resize" stroke="black" stroke-width="0.2"/><rect class="bandrect" stroke-opacity="1" fill="rgb(176, 42, 144)" fill-opacity="1" width="16" height="21" y="154" cursor="ns-resize" stroke="black" stroke-width="0.2"/><rect class="bandrect" stroke-opacity="1" fill="rgb(105, 1, 166)" fill-opacity="1" width="16" height="28" y="175" cursor="ns-resize" stroke="black" stroke-width="0.2"/><rect class="bandrect" stroke-opacity="1" fill="rgb(13, 8, 135)" fill-opacity="1" width="16" height="7" y="203" cursor="ns-resize" stroke="black" stroke-width="0.2"/><text class="catlabel" pointer-events="none" text-anchor="end" alignment-baseline="middle" x="-5" y="105" style="text-shadow: rgb(255, 255, 255) -1px 1px 2px, rgb(255, 255, 255) 1px 1px 2px, rgb(255, 255, 255) 1px -1px 2px, rgb(255, 255, 255) -1px -1px 2px; fill: rgb(68, 68, 68); font-family: 'Open Sans', verdana, arial, sans-serif; font-size: 15px; fill-opacity: 1; white-space: pre;">nsga2</text><text class="dimlabel" text-anchor="middle" alignment-baseline="baseline" cursor="ew-resize" x="8" y="-5" style="font-family: 'Open Sans', verdana, arial, sans-serif; font-size: 18px; fill: rgb(68, 68, 68); fill-opacity: 1;">Solver</text></g><g class="category" transform="translate(0, 234)"><rect class="catrect" pointer-events="none" fill="none" width="16" height="70" stroke="black" stroke-width="1" stroke-opacity="1"/><rect class="bandrect" stroke-opacity="1" fill="rgb(240, 249, 33)" fill-opacity="1" width="16" height="35" y="0" cursor="ns-resize" stroke="black" stroke-width="0.2"/><rect class="bandrect" stroke-opacity="1" fill="rgb(251, 168, 54)" fill-opacity="1" width="16" height="14" y="35" cursor="ns-resize" stroke="black" stroke-width="0.2"/><rect class="bandrect" stroke-opacity="1" fill="rgb(224, 101, 97)" fill-opacity="1" width="16" height="7" y="49" cursor="ns-resize" stroke="black" stroke-width="0.2"/><rect class="bandrect" stroke-opacity="1" fill="rgb(176, 42, 144)" fill-opacity="1" width="16" height="14" y="56" cursor="ns-resize" stroke="black" stroke-width="0.2"/><text class="catlabel" pointer-events="none" text-anchor="end" alignment-baseline="middle" x="-5" y="35" style="text-shadow: rgb(255, 255, 255) -1px 1px 2px, rgb(255, 255, 255) 1px 1px 2px, rgb(255, 255, 255) 1px -1px 2px, rgb(255, 255, 255) -1px -1px 2px; fill: rgb(68, 68, 68); font-family: 'Open Sans', verdana, arial, sans-serif; font-size: 15px; fill-opacity: 1; white-space: pre;">moea_control</text><text class="dimlabel" text-anchor="middle" alignment-baseline="baseline" cursor="ew-resize" x="8" y="-5" style="font-family: 'Open Sans', verdana, arial, sans-serif; font-size: 18px; fill: rgb(68, 68, 68); fill-opacity: 1;"/></g></g><g class="dimension" transform="translate(826.6666666666667, 0)"><g class="category" transform="translate(0, 20)"><rect class="catrect" pointer-events="none" fill="none" width="16" height="280" stroke="black" stroke-width="1" stroke-opacity="1"/><rect class="bandrect" stroke-opacity="1" fill="rgb(240, 249, 33)" fill-opacity="1" width="16" height="112" y="0" cursor="ns-resize" stroke="black" stroke-width="0.2"/><rect class="bandrect" stroke-opacity="1" fill="rgb(251, 168, 54)" fill-opacity="1" width="16" height="63" y="112" cursor="ns-resize" stroke="black" stroke-width="0.2"/><rect class="bandrect" stroke-opacity="1" fill="rgb(224, 101, 97)" fill-opacity="1" width="16" height="35" y="175" cursor="ns-resize" stroke="black" stroke-width="0.2"/><rect class="bandrect" stroke-opacity="1" fill="rgb(176, 42, 144)" fill-opacity="1" width="16" height="35" y="210" cursor="ns-resize" stroke="black" stroke-width="0.2"/><rect class="bandrect" stroke-opacity="1" fill="rgb(105, 1, 166)" fill-opacity="1" width="16" height="28" y="245" cursor="ns-resize" stroke="black" stroke-width="0.2"/><rect class="bandrect" stroke-opacity="1" fill="rgb(13, 8, 135)" fill-opacity="1" width="16" height="7" y="273" cursor="ns-resize" stroke="black" stroke-width="0.2"/><text class="catlabel" pointer-events="none" text-anchor="end" alignment-baseline="middle" x="-5" y="140" style="text-shadow: rgb(255, 255, 255) -1px 1px 2px, rgb(255, 255, 255) 1px 1px 2px, rgb(255, 255, 255) 1px -1px 2px, rgb(255, 255, 255) -1px -1px 2px; fill: rgb(68, 68, 68); font-family: 'Open Sans', verdana, arial, sans-serif; font-size: 15px; fill-opacity: 1; white-space: pre;">100</text><text class="dimlabel" text-anchor="middle" alignment-baseline="baseline" cursor="ew-resize" x="8" y="-5" style="font-family: 'Open Sans', verdana, arial, sans-serif; font-size: 18px; fill: rgb(68, 68, 68); fill-opacity: 1;">Predict size</text></g></g><g class="dimension" transform="translate(984, 0)"><g class="category" transform="translate(0, 0)"><rect class="catrect" pointer-events="none" fill="none" width="16" height="7" stroke="black" stroke-width="1" stroke-opacity="1"/><rect class="bandrect" stroke-opacity="1" fill="rgb(13, 8, 135)" fill-opacity="1" width="16" height="7" y="0" cursor="ns-resize" stroke="black" stroke-width="0.2"/><text class="catlabel" pointer-events="none" text-anchor="start" alignment-baseline="middle" x="21" y="3.5" style="text-shadow: rgb(255, 255, 255) -1px 1px 2px, rgb(255, 255, 255) 1px 1px 2px, rgb(255, 255, 255) 1px -1px 2px, rgb(255, 255, 255) -1px -1px 2px; fill: rgb(68, 68, 68); font-family: 'Open Sans', verdana, arial, sans-serif; font-size: 15px; fill-opacity: 1; white-space: pre;">1.6</text><text class="dimlabel" text-anchor="middle" alignment-baseline="baseline" cursor="ew-resize" x="8" y="-5" style="font-family: 'Open Sans', verdana, arial, sans-serif; font-size: 18px; fill: rgb(68, 68, 68); fill-opacity: 1;">p-distance</text></g><g class="category" transform="translate(0, 15)"><rect class="catrect" pointer-events="none" fill="none" width="16" height="28" stroke="black" stroke-width="1" stroke-opacity="1"/><rect class="bandrect" stroke-opacity="1" fill="rgb(105, 1, 166)" fill-opacity="1" width="16" height="28" y="0" cursor="ns-resize" stroke="black" stroke-width="0.2"/><text class="catlabel" pointer-events="none" text-anchor="start" alignment-baseline="middle" x="21" y="14" style="text-shadow: rgb(255, 255, 255) -1px 1px 2px, rgb(255, 255, 255) 1px 1px 2px, rgb(255, 255, 255) 1px -1px 2px, rgb(255, 255, 255) -1px -1px 2px; fill: rgb(68, 68, 68); font-family: 'Open Sans', verdana, arial, sans-serif; font-size: 15px; fill-opacity: 1; white-space: pre;">1.5</text><text class="dimlabel" text-anchor="middle" alignment-baseline="baseline" cursor="ew-resize" x="8" y="-5" style="font-family: 'Open Sans', verdana, arial, sans-serif; font-size: 18px; fill: rgb(68, 68, 68); fill-opacity: 1;"/></g><g class="category" transform="translate(0, 51)"><rect class="catrect" pointer-events="none" fill="none" width="16" height="35" stroke="black" stroke-width="1" stroke-opacity="1"/><rect class="bandrect" stroke-opacity="1" fill="rgb(176, 42, 144)" fill-opacity="1" width="16" height="35" y="0" cursor="ns-resize" stroke="black" stroke-width="0.2"/><text class="catlabel" pointer-events="none" text-anchor="start" alignment-baseline="middle" x="21" y="17.5" style="text-shadow: rgb(255, 255, 255) -1px 1px 2px, rgb(255, 255, 255) 1px 1px 2px, rgb(255, 255, 255) 1px -1px 2px, rgb(255, 255, 255) -1px -1px 2px; fill: rgb(68, 68, 68); font-family: 'Open Sans', verdana, arial, sans-serif; font-size: 15px; fill-opacity: 1; white-space: pre;">1.4</text><text class="dimlabel" text-anchor="middle" alignment-baseline="baseline" cursor="ew-resize" x="8" y="-5" style="font-family: 'Open Sans', verdana, arial, sans-serif; font-size: 18px; fill: rgb(68, 68, 68); fill-opacity: 1;"/></g><g class="category" transform="translate(0, 94)"><rect class="catrect" pointer-events="none" fill="none" width="16" height="35" stroke="black" stroke-width="1" stroke-opacity="1"/><rect class="bandrect" stroke-opacity="1" fill="rgb(224, 101, 97)" fill-opacity="1" width="16" height="35" y="0" cursor="ns-resize" stroke="black" stroke-width="0.2"/><text class="catlabel" pointer-events="none" text-anchor="start" alignment-baseline="middle" x="21" y="17.5" style="text-shadow: rgb(255, 255, 255) -1px 1px 2px, rgb(255, 255, 255) 1px 1px 2px, rgb(255, 255, 255) 1px -1px 2px, rgb(255, 255, 255) -1px -1px 2px; fill: rgb(68, 68, 68); font-family: 'Open Sans', verdana, arial, sans-serif; font-size: 15px; fill-opacity: 1; white-space: pre;">1.3</text><text class="dimlabel" text-anchor="middle" alignment-baseline="baseline" cursor="ew-resize" x="8" y="-5" style="font-family: 'Open Sans', verdana, arial, sans-serif; font-size: 18px; fill: rgb(68, 68, 68); fill-opacity: 1;"/></g><g class="category" transform="translate(0, 137)"><rect class="catrect" pointer-events="none" fill="none" width="16" height="63" stroke="black" stroke-width="1" stroke-opacity="1"/><rect class="bandrect" stroke-opacity="1" fill="rgb(251, 168, 54)" fill-opacity="1" width="16" height="63" y="0" cursor="ns-resize" stroke="black" stroke-width="0.2"/><text class="catlabel" pointer-events="none" text-anchor="start" alignment-baseline="middle" x="21" y="31.5" style="text-shadow: rgb(255, 255, 255) -1px 1px 2px, rgb(255, 255, 255) 1px 1px 2px, rgb(255, 255, 255) 1px -1px 2px, rgb(255, 255, 255) -1px -1px 2px; fill: rgb(68, 68, 68); font-family: 'Open Sans', verdana, arial, sans-serif; font-size: 15px; fill-opacity: 1; white-space: pre;">1.2</text><text class="dimlabel" text-anchor="middle" alignment-baseline="baseline" cursor="ew-resize" x="8" y="-5" style="font-family: 'Open Sans', verdana, arial, sans-serif; font-size: 18px; fill: rgb(68, 68, 68); fill-opacity: 1;"/></g><g class="category" transform="translate(0, 208)"><rect class="catrect" pointer-events="none" fill="none" width="16" height="112" stroke="black" stroke-width="1" stroke-opacity="1"/><rect class="bandrect" stroke-opacity="1" fill="rgb(240, 249, 33)" fill-opacity="1" width="16" height="112" y="0" cursor="ns-resize" stroke="black" stroke-width="0.2"/><text class="catlabel" pointer-events="none" text-anchor="start" alignment-baseline="middle" x="21" y="56" style="text-shadow: rgb(255, 255, 255) -1px 1px 2px, rgb(255, 255, 255) 1px 1px 2px, rgb(255, 255, 255) 1px -1px 2px, rgb(255, 255, 255) -1px -1px 2px; fill: rgb(68, 68, 68); font-family: 'Open Sans', verdana, arial, sans-serif; font-size: 15px; fill-opacity: 1; white-space: pre;">1.1</text><text class="dimlabel" text-anchor="middle" alignment-baseline="baseline" cursor="ew-resize" x="8" y="-5" style="font-family: 'Open Sans', verdana, arial, sans-serif; font-size: 18px; fill: rgb(68, 68, 68); fill-opacity: 1;"/></g></g></g></g></g><defs id="topdefs-1d788b"><g class="clips"/></defs><g class="layer-above"><g class="imagelayer"/><g class="shapelayer"/></g><g class="infolayer"><g class="g-gtitle"/></g></svg>