<?xml version="1.0" encoding="UTF-8" standalone="no"?>
<svg
   xmlns:dc="http://purl.org/dc/elements/1.1/"
   xmlns:cc="http://creativecommons.org/ns#"
   xmlns:rdf="http://www.w3.org/1999/02/22-rdf-syntax-ns#"
   xmlns:svg="http://www.w3.org/2000/svg"
   xmlns="http://www.w3.org/2000/svg"
   viewBox="0 0 530.56 320"
   height="320"
   width="530.56"
   xml:space="preserve"
   id="svg2"
   version="1.1"><metadata
     id="metadata8"><rdf:RDF><cc:Work
         rdf:about=""><dc:format>image/svg+xml</dc:format><dc:type
           rdf:resource="http://purl.org/dc/dcmitype/StillImage" /><dc:title></dc:title></cc:Work></rdf:RDF></metadata><defs
     id="defs6"><clipPath
       id="clipPath18"
       clipPathUnits="userSpaceOnUse"><path
         style="clip-rule:evenodd"
         id="path16"
         d="M 0,0 H 1658.3333 V 998.59851 H 0 Z" /></clipPath><clipPath
       id="clipPath30"
       clipPathUnits="userSpaceOnUse"><path
         style="clip-rule:evenodd"
         id="path28"
         d="M 0,0 H 1658.3333 V 995.59973 H 0 Z" /></clipPath></defs><g
     transform="matrix(0.31999998,0,0,0.31999998,0,8e-6)"
     id="g10"><g
       id="g12"><g
         clip-path="url(#clipPath18)"
         id="g14"><g
           transform="scale(2.9987943)"
           id="g20"><path
             id="path22"
             style="fill:#ffffff;fill-opacity:1;fill-rule:nonzero;stroke:none"
             d="M 0,0 H 553 V 333 H 0 Z" /></g></g></g><g
       id="g24"><g
         clip-path="url(#clipPath30)"
         id="g26"><g
           transform="matrix(2.9987943,0,0,2.9987943,1.4993972,1.4993972)"
           id="g32"><path
             id="path34"
             style="fill:none;stroke:#000000;stroke-width:1;stroke-linecap:butt;stroke-linejoin:miter;stroke-miterlimit:10;stroke-dasharray:none;stroke-opacity:1"
             d="M 313,41 V 53 H 163 v 19.760002" /><path
             id="path36"
             style="fill:none;stroke:#000000;stroke-width:1;stroke-linecap:butt;stroke-linejoin:miter;stroke-miterlimit:10;stroke-dasharray:none;stroke-opacity:1"
             d="m 159.5,66.879997 3.5,7 3.5,-7" /><path
             id="path38"
             style="fill:none;stroke:#000000;stroke-width:1;stroke-linecap:butt;stroke-linejoin:miter;stroke-miterlimit:10;stroke-dasharray:none;stroke-opacity:1"
             d="M 313,41 V 80.760002" /><path
             id="path40"
             style="fill:none;stroke:#000000;stroke-width:1;stroke-linecap:butt;stroke-linejoin:miter;stroke-miterlimit:10;stroke-dasharray:none;stroke-opacity:1"
             d="m 309.5,74.879997 3.5,7 3.5,-7" /><path
             id="path42"
             style="fill:#ffffff;fill-opacity:1;fill-rule:nonzero;stroke:none"
             d="m 259,1 h 108 c 0.39395,0 0.78409,0.038429 1.17047,0.1152884 0.38638,0.076859 0.7616,0.1906701 1.12558,0.3414342 0.36398,0.1507641 0.70975,0.3355839 1.03735,0.5544595 0.32761,0.2188756 0.63068,0.4676013 0.90925,0.7461769 0.27859,0.2785757 0.52731,0.5816486 0.74615,0.9092188 0.21884,0.3275702 0.40366,0.6733437 0.55444,1.0373206 0.15076,0.363977 0.26456,0.7391634 0.34143,1.1255589 C 372.96155,6.2158532 372.99997,6.6060343 373,7 v 28 c -3e-5,0.393963 -0.0385,0.784145 -0.11533,1.17054 -0.0769,0.386394 -0.19067,0.761577 -0.34143,1.125557 -0.15078,0.363975 -0.3356,0.709747 -0.55444,1.037319 -0.21884,0.327568 -0.46756,0.630642 -0.74615,0.909222 -0.27857,0.278572 -0.58164,0.527298 -0.90925,0.746173 -0.3276,0.218876 -0.67337,0.403698 -1.03735,0.554463 -0.36398,0.150761 -0.73917,0.264572 -1.12555,0.341431 C 367.78412,40.961567 367.39395,40.999996 367,41 H 259 c -0.39395,-4e-6 -0.78415,-0.03843 -1.17056,-0.115295 -0.38639,-0.07686 -0.76157,-0.19067 -1.12555,-0.341431 -0.36399,-0.150765 -0.70978,-0.335587 -1.03736,-0.554463 -0.32756,-0.218875 -0.63063,-0.467601 -0.90919,-0.746173 -0.27858,-0.27858 -0.52731,-0.581654 -0.7462,-0.909222 -0.21887,-0.327572 -0.40369,-0.673344 -0.55444,-1.037319 -0.15078,-0.36398 -0.26458,-0.739163 -0.34144,-1.125557 C 253.03842,35.784145 253,35.393963 253,35 V 7 c 0,-0.3939657 0.0384,-0.7841468 0.11526,-1.1705427 0.0769,-0.3863955 0.19066,-0.7615819 0.34144,-1.1255589 0.15075,-0.3639769 0.33557,-0.7097501 0.55444,-1.0373203 0.21889,-0.3275705 0.46762,-0.6306434 0.7462,-0.9092191 0.27856,-0.2785756 0.58163,-0.5273013 0.90919,-0.7461769 0.32758,-0.2188756 0.67337,-0.4036954 1.03736,-0.5544595 0.36398,-0.1507641 0.73916,-0.2645755 1.12555,-0.3414343 C 258.21585,1.0384294 258.60605,1 259,1 Z" /><path
             id="path44"
             style="fill:none;stroke:#000000;stroke-width:1;stroke-linecap:butt;stroke-linejoin:miter;stroke-miterlimit:10;stroke-dasharray:none;stroke-opacity:1"
             d="m 259,1 h 108 c 0.39395,0 0.78409,0.038429 1.17047,0.1152884 0.38638,0.076859 0.7616,0.1906701 1.12558,0.3414342 0.36398,0.1507641 0.70975,0.3355839 1.03735,0.5544595 0.32761,0.2188756 0.63068,0.4676013 0.90925,0.7461769 0.27859,0.2785757 0.52731,0.5816486 0.74615,0.9092188 0.21884,0.3275702 0.40366,0.6733437 0.55444,1.0373206 0.15076,0.363977 0.26456,0.7391634 0.34143,1.1255589 C 372.96155,6.2158532 372.99997,6.6060343 373,7 v 28 c -3e-5,0.393963 -0.0385,0.784145 -0.11533,1.17054 -0.0769,0.386394 -0.19067,0.761577 -0.34143,1.125557 -0.15078,0.363975 -0.3356,0.709747 -0.55444,1.037319 -0.21884,0.327568 -0.46756,0.630642 -0.74615,0.909222 -0.27857,0.278572 -0.58164,0.527298 -0.90925,0.746173 -0.3276,0.218876 -0.67337,0.403698 -1.03735,0.554463 -0.36398,0.150761 -0.73917,0.264572 -1.12555,0.341431 C 367.78412,40.961567 367.39395,40.999996 367,41 H 259 c -0.39395,-4e-6 -0.78415,-0.03843 -1.17056,-0.115295 -0.38639,-0.07686 -0.76157,-0.19067 -1.12555,-0.341431 -0.36399,-0.150765 -0.70978,-0.335587 -1.03736,-0.554463 -0.32756,-0.218875 -0.63063,-0.467601 -0.90919,-0.746173 -0.27858,-0.27858 -0.52731,-0.581654 -0.7462,-0.909222 -0.21887,-0.327572 -0.40369,-0.673344 -0.55444,-1.037319 -0.15078,-0.36398 -0.26458,-0.739163 -0.34144,-1.125557 C 253.03842,35.784145 253,35.393963 253,35 V 7 c 0,-0.3939657 0.0384,-0.7841468 0.11526,-1.1705427 0.0769,-0.3863955 0.19066,-0.7615819 0.34144,-1.1255589 0.15075,-0.3639769 0.33557,-0.7097501 0.55444,-1.0373203 0.21889,-0.3275705 0.46762,-0.6306434 0.7462,-0.9092191 0.27856,-0.2785756 0.58163,-0.5273013 0.90919,-0.7461769 0.32758,-0.2188756 0.67337,-0.4036954 1.03736,-0.5544595 0.36398,-0.1507641 0.73916,-0.2645755 1.12555,-0.3414343 C 258.21585,1.0384294 258.60605,1 259,1 Z" /></g><g
           transform="scale(2.9987943)"
           id="g46"><text
             id="text50"
             style="font-variant:normal;font-weight:normal;font-size:12px;font-family:Helvetica;-inkscape-font-specification:Helvetica;writing-mode:lr-tb;fill:#000000;fill-opacity:1;fill-rule:nonzero;stroke:none"
             transform="translate(271.98438,19)"><tspan
               id="tspan48"
               y="0"
               x="0 8.6660156 18 26.003906 29.337891 33.333984 42 48.673828 55.347656 62.021484 68.695312 78.691406">DOE (Random,</tspan></text>
<text
             id="text54"
             style="font-variant:normal;font-weight:normal;font-size:12px;font-family:Helvetica;-inkscape-font-specification:Helvetica;writing-mode:lr-tb;fill:#000000;fill-opacity:1;fill-rule:nonzero;stroke:none"
             transform="translate(280.65625,33)"><tspan
               id="tspan52"
               y="0"
               x="0 8.0039062 14.677734 21.351562 28.025391 30.691406 34.025391 37.359375 44.033203 52.699219 60.703125">Sobol, LHS)</tspan></text>
<path
             id="path56"
             style="fill:#000000;fill-opacity:1;fill-rule:nonzero;stroke:none"
             d="m 3,62 h 6 v 2 H 3 m 12,-2 h 6 v 2 h -6 m 12,-2 h 6 v 2 h -6 m 12,-2 h 6 v 2 h -6 m 12,-2 h 6 v 2 h -6 m 12,-2 h 6 v 2 h -6 m 12,-2 h 6 v 2 h -6 m 12,-2 h 6 v 2 h -6 m 12,-2 h 6 v 2 h -6 m 12,-2 h 6 v 2 h -6 m 12,-2 h 6 v 2 h -6 m 12,-2 h 6 v 2 h -6 m 12,-2 h 6 v 2 h -6 m 12,-2 h 6 v 2 h -6 m 12,-2 h 6 v 2 h -6 m 12,-2 h 6 v 2 h -6 m 12,-2 h 6 v 2 h -6 m 12,-2 h 6 v 2 h -6 m 12,-2 h 6 v 2 h -6 m 12,-2 h 6 v 2 h -6 m 12,-2 h 6 v 2 h -6 m 12,-2 h 6 v 2 h -6 m 12,-2 h 6 v 2 h -6 m 12,-2 h 6 v 2 h -6 m 12,-2 h 6 v 2 h -6 m 12,-2 h 6 v 2 h -6 m 12,-2 h 6 v 2 h -6 m 12,-2 h 6 v 2 h -6 m 12,-2 h 6 v 2 h -6 m 12,-2 h 6 v 2 h -6 m 12,-2 h 6 v 2 h -6 m 12,-2 h 6 v 2 h -6 m 12,-2 h 6 v 2 h -6 m 12,-2 h 6 v 2 h -6 m 12,-2 h 6 v 2 h -6 m 12,-2 h 6 v 2 h -6 m 12,-2 h 6 v 2 h -6 m 12,-2 h 6 v 2 h -6 m 12,-2 h 6 v 2 h -6 m 12,-2 h 6 v 2 h -6 m 12,-2 h 6 v 2 h -6 m 12,-2 h 6 v 2 h -6 m 12,-2 h 6 v 2 h -6 m 12,-2 h 4 v 2 h -4" /><path
             id="path58"
             style="fill:#ffffff;fill-opacity:1;fill-rule:nonzero;stroke:none"
             d="M 1,38 H 78 V 52 H 1 Z" /><text
             id="text62"
             style="font-variant:normal;font-weight:normal;font-size:12px;font-family:Helvetica;-inkscape-font-specification:Helvetica;writing-mode:lr-tb;fill:#000000;fill-opacity:1;fill-rule:nonzero;stroke:none"
             transform="translate(1.46875,49)"><tspan
               id="tspan60"
               y="0"
               x="0 8.0039062 14.677734 24.673828 31.347656 34.013672 36.679688 43.353516 50.027344 53.361328 60.035156 62.701172 69.375">Sampling plan</tspan></text>
<path
             id="path64"
             style="fill:#000000;fill-opacity:1;fill-rule:nonzero;stroke:none"
             d="m 3,142 h 6 v 2 H 3 m 12,-2 h 6 v 2 h -6 m 12,-2 h 6 v 2 h -6 m 12,-2 h 6 v 2 h -6 m 12,-2 h 6 v 2 h -6 m 12,-2 h 6 v 2 h -6 m 12,-2 h 6 v 2 h -6 m 12,-2 h 6 v 2 h -6 m 12,-2 h 6 v 2 h -6 m 12,-2 h 6 v 2 h -6 m 12,-2 h 6 v 2 h -6 m 12,-2 h 6 v 2 h -6 m 12,-2 h 6 v 2 h -6 m 12,-2 h 6 v 2 h -6 m 12,-2 h 6 v 2 h -6 m 12,-2 h 6 v 2 h -6 m 12,-2 h 6 v 2 h -6 m 12,-2 h 6 v 2 h -6 m 12,-2 h 6 v 2 h -6 m 12,-2 h 6 v 2 h -6 m 12,-2 h 6 v 2 h -6 m 12,-2 h 6 v 2 h -6 m 12,-2 h 6 v 2 h -6 m 12,-2 h 6 v 2 h -6 m 12,-2 h 6 v 2 h -6 m 12,-2 h 6 v 2 h -6 m 12,-2 h 6 v 2 h -6 m 12,-2 h 6 v 2 h -6 m 12,-2 h 6 v 2 h -6 m 12,-2 h 6 v 2 h -6 m 12,-2 h 6 v 2 h -6 m 12,-2 h 6 v 2 h -6 m 12,-2 h 6 v 2 h -6 m 12,-2 h 6 v 2 h -6 m 12,-2 h 6 v 2 h -6 m 12,-2 h 6 v 2 h -6 m 12,-2 h 6 v 2 h -6 m 12,-2 h 6 v 2 h -6 m 12,-2 h 6 v 2 h -6 m 12,-2 h 6 v 2 h -6 m 12,-2 h 6 v 2 h -6 m 12,-2 h 6 v 2 h -6 m 12,-2 h 6 v 2 h -6 m 12,-2 h 4 v 2 h -4" /><path
             id="path66"
             style="fill:#ffffff;fill-opacity:1;fill-rule:nonzero;stroke:none"
             d="m 5,108 h 65 v 28 H 5 Z" /><text
             id="text70"
             style="font-variant:normal;font-weight:normal;font-size:12px;font-family:Helvetica;-inkscape-font-specification:Helvetica;writing-mode:lr-tb;fill:#000000;fill-opacity:1;fill-rule:nonzero;stroke:none"
             transform="translate(5,119)"><tspan
               id="tspan68"
               y="0"
               x="0 8.0039062 14.677734 17.34375 20.009766 26.683594">Build </tspan></text>
<text
             id="text74"
             style="font-variant:normal;font-weight:normal;font-size:12px;font-family:Helvetica;-inkscape-font-specification:Helvetica;writing-mode:lr-tb;fill:#000000;fill-opacity:1;fill-rule:nonzero;stroke:none"
             transform="translate(5,133)"><tspan
               id="tspan72"
               y="0"
               x="0 6 12.673828 16.669922 20.666016 27.339844 34.013672 40.6875 44.021484 50.695312 54.691406 60.691406">surrogate(s)</tspan></text>
<path
             id="path76"
             style="fill:#000000;fill-opacity:1;fill-rule:nonzero;stroke:none"
             d="m 2,223 h 6 v 2 H 2 m 12,-2 h 6 v 2 h -6 m 12,-2 h 6 v 2 h -6 m 12,-2 h 6 v 2 h -6 m 12,-2 h 6 v 2 h -6 m 12,-2 h 6 v 2 h -6 m 12,-2 h 6 v 2 h -6 m 12,-2 h 6 v 2 h -6 m 12,-2 h 6 v 2 h -6 m 12,-2 h 6 v 2 h -6 m 12,-2 h 6 v 2 h -6 m 12,-2 h 6 v 2 h -6 m 12,-2 h 6 v 2 h -6 m 12,-2 h 6 v 2 h -6 m 12,-2 h 6 v 2 h -6 m 12,-2 h 6 v 2 h -6 m 12,-2 h 6 v 2 h -6 m 12,-2 h 6 v 2 h -6 m 12,-2 h 6 v 2 h -6 m 12,-2 h 6 v 2 h -6 m 12,-2 h 6 v 2 h -6 m 12,-2 h 6 v 2 h -6 m 12,-2 h 6 v 2 h -6 m 12,-2 h 6 v 2 h -6 m 12,-2 h 6 v 2 h -6 m 12,-2 h 6 v 2 h -6 m 12,-2 h 6 v 2 h -6 m 12,-2 h 6 v 2 h -6 m 12,-2 h 6 v 2 h -6 m 12,-2 h 6 v 2 h -6 m 12,-2 h 6 v 2 h -6 m 12,-2 h 6 v 2 h -6 m 12,-2 h 6 v 2 h -6 m 12,-2 h 6 v 2 h -6 m 12,-2 h 6 v 2 h -6 m 12,-2 h 6 v 2 h -6 m 12,-2 h 6 v 2 h -6 m 12,-2 h 6 v 2 h -6 m 12,-2 h 6 v 2 h -6 m 12,-2 h 6 v 2 h -6 m 12,-2 h 6 v 2 h -6 m 12,-2 h 6 v 2 h -6 m 12,-2 h 6 v 2 h -6 m 12,-2 h 5 v 2 h -5" /><path
             id="path78"
             style="fill:#ffffff;fill-opacity:1;fill-rule:nonzero;stroke:none"
             d="m 4,189 h 70 v 28 H 4 Z" /><text
             id="text82"
             style="font-variant:normal;font-weight:normal;font-size:12px;font-family:Helvetica;-inkscape-font-specification:Helvetica;writing-mode:lr-tb;fill:#000000;fill-opacity:1;fill-rule:nonzero;stroke:none"
             transform="translate(4,200)"><tspan
               id="tspan80"
               y="0"
               x="0 9.3339844 16.007812 19.341797 22.007812 32.003906 34.669922 40.669922 47.34375 50.677734 53.34375 60.017578 66.691406">Optimization </tspan></text>
<text
             id="text86"
             style="font-variant:normal;font-weight:normal;font-size:12px;font-family:Helvetica;-inkscape-font-specification:Helvetica;writing-mode:lr-tb;fill:#000000;fill-opacity:1;fill-rule:nonzero;stroke:none"
             transform="translate(4,214)"><tspan
               id="tspan84"
               y="0"
               x="0 6 12.673828 19.347656 23.34375 29.34375">search</tspan></text>
</g><g
           transform="matrix(2.9987943,0,0,2.9987943,1.4993972,1.4993972)"
           id="g88"><path
             id="path90"
             style="fill:none;stroke:#000000;stroke-width:1;stroke-linecap:butt;stroke-linejoin:miter;stroke-miterlimit:10;stroke-dasharray:none;stroke-opacity:1"
             d="m 163,125 v 20 -2 17.75999" /><path
             id="path92"
             style="fill:none;stroke:#000000;stroke-width:1;stroke-linecap:butt;stroke-linejoin:miter;stroke-miterlimit:10;stroke-dasharray:none;stroke-opacity:1"
             d="m 159.5,154.88 3.5,7 3.5,-7" /><path
             id="path94"
             style="fill:none;stroke:#000000;stroke-width:1;stroke-linecap:butt;stroke-linejoin:miter;stroke-miterlimit:10;stroke-dasharray:none;stroke-opacity:1"
             d="m 163,133 h 30 90 v 27.75999" /><path
             id="path96"
             style="fill:none;stroke:#000000;stroke-width:1;stroke-linecap:butt;stroke-linejoin:miter;stroke-miterlimit:10;stroke-dasharray:none;stroke-opacity:1"
             d="m 279.5,154.88 3.5,7 3.5,-7" /><path
             id="path98"
             style="fill:#ffffff;fill-opacity:1;fill-rule:nonzero;stroke:none"
             d="m 110.5,75 h 105 c 0.49245,0 0.98018,0.04803 1.46317,0.144104 0.48298,0.09608 0.95196,0.238335 1.40693,0.426788 0.45497,0.188462 0.88718,0.419487 1.29665,0.693085 0.40947,0.27359 0.78831,0.584496 1.13653,0.932716 0.34821,0.348221 0.65912,0.727059 0.93273,1.136521 0.27357,0.409462 0.50459,0.841682 0.69305,1.296654 0.18846,0.454978 0.33072,0.923957 0.42681,1.406951 0.0961,0.482995 0.14411,0.970719 0.14413,1.463181 v 35 c -2e-5,0.49246 -0.048,0.98018 -0.14413,1.46317 -0.0961,0.48299 -0.23835,0.95197 -0.42679,1.40694 -0.18846,0.45497 -0.4195,0.88718 -0.69309,1.29665 -0.2736,0.40946 -0.5845,0.7883 -0.93271,1.13652 -0.34822,0.34822 -0.72706,0.65912 -1.13653,0.93272 -0.40947,0.27359 -0.84168,0.50462 -1.29665,0.69307 -0.45497,0.18846 -0.92395,0.33073 -1.40693,0.4268 -0.48299,0.0961 -0.97072,0.14412 -1.46317,0.14413 h -105 c -0.49246,-1e-5 -0.98019,-0.0481 -1.46319,-0.14413 -0.48299,-0.0961 -0.95197,-0.23834 -1.40695,-0.4268 -0.45497,-0.18845 -0.88719,-0.41948 -1.29665,-0.69308 -0.40947,-0.27359 -0.7883,-0.58449 -1.13652,-0.93271 -0.34822,-0.34822 -0.65912,-0.72706 -0.93272,-1.13652 -0.2736,-0.40947 -0.50462,-0.84168 -0.69308,-1.29665 -0.18845,-0.45497 -0.33072,-0.92395 -0.42678,-1.40694 -0.0961,-0.483 -0.14412,-0.97071 -0.14411,-1.46317 v -35 c -1e-5,-0.492462 0.048,-0.980186 0.1441,-1.463181 0.0961,-0.482994 0.23834,-0.951973 0.42679,-1.406951 0.18846,-0.454972 0.41948,-0.887192 0.69308,-1.296654 0.2736,-0.409462 0.5845,-0.7883 0.93272,-1.136521 0.34822,-0.34822 0.72705,-0.659126 1.13652,-0.932716 0.40946,-0.273598 0.84168,-0.504623 1.29665,-0.693085 0.45498,-0.188453 0.92396,-0.330711 1.40695,-0.426788 C 109.51981,75.048035 110.00754,75 110.5,75 Z" /><path
             id="path100"
             style="fill:none;stroke:#000000;stroke-width:1;stroke-linecap:butt;stroke-linejoin:miter;stroke-miterlimit:10;stroke-dasharray:none;stroke-opacity:1"
             d="m 110.5,75 h 105 c 0.49245,0 0.98018,0.04803 1.46317,0.144104 0.48298,0.09608 0.95196,0.238335 1.40693,0.426788 0.45497,0.188462 0.88718,0.419487 1.29665,0.693085 0.40947,0.27359 0.78831,0.584496 1.13653,0.932716 0.34821,0.348221 0.65912,0.727059 0.93273,1.136521 0.27357,0.409462 0.50459,0.841682 0.69305,1.296654 0.18846,0.454978 0.33072,0.923957 0.42681,1.406951 0.0961,0.482995 0.14411,0.970719 0.14413,1.463181 v 35 c -2e-5,0.49246 -0.048,0.98018 -0.14413,1.46317 -0.0961,0.48299 -0.23835,0.95197 -0.42679,1.40694 -0.18846,0.45497 -0.4195,0.88718 -0.69309,1.29665 -0.2736,0.40946 -0.5845,0.7883 -0.93271,1.13652 -0.34822,0.34822 -0.72706,0.65912 -1.13653,0.93272 -0.40947,0.27359 -0.84168,0.50462 -1.29665,0.69307 -0.45497,0.18846 -0.92395,0.33073 -1.40693,0.4268 -0.48299,0.0961 -0.97072,0.14412 -1.46317,0.14413 h -105 c -0.49246,-1e-5 -0.98019,-0.0481 -1.46319,-0.14413 -0.48299,-0.0961 -0.95197,-0.23834 -1.40695,-0.4268 -0.45497,-0.18845 -0.88719,-0.41948 -1.29665,-0.69308 -0.40947,-0.27359 -0.7883,-0.58449 -1.13652,-0.93271 -0.34822,-0.34822 -0.65912,-0.72706 -0.93272,-1.13652 -0.2736,-0.40947 -0.50462,-0.84168 -0.69308,-1.29665 -0.18845,-0.45497 -0.33072,-0.92395 -0.42678,-1.40694 -0.0961,-0.483 -0.14412,-0.97071 -0.14411,-1.46317 v -35 c -1e-5,-0.492462 0.048,-0.980186 0.1441,-1.463181 0.0961,-0.482994 0.23834,-0.951973 0.42679,-1.406951 0.18846,-0.454972 0.41948,-0.887192 0.69308,-1.296654 0.2736,-0.409462 0.5845,-0.7883 0.93272,-1.136521 0.34822,-0.34822 0.72705,-0.659126 1.13652,-0.932716 0.40946,-0.273598 0.84168,-0.504623 1.29665,-0.693085 0.45498,-0.188453 0.92396,-0.330711 1.40695,-0.426788 C 109.51981,75.048035 110.00754,75 110.5,75 Z" /></g><g
           transform="scale(2.9987943)"
           id="g102"><text
             id="text106"
             style="font-variant:normal;font-weight:normal;font-size:12px;font-family:Helvetica;-inkscape-font-specification:Helvetica;writing-mode:lr-tb;fill:#000000;fill-opacity:1;fill-rule:nonzero;stroke:none"
             transform="translate(104.29688,98)"><tspan
               id="tspan104"
               y="0"
               x="0 8.0039062 10.669922 17.34375 24.017578 26.683594 33.357422 36.691406 43.365234 47.361328 50.695312 59.361328 66.035156 76.03125 82.705078 89.378906 95.378906 98.044922 101.37891 104.04492 110.71875">Single or Composition</tspan></text>
<text
             id="text110"
             style="font-variant:normal;font-weight:normal;font-size:12px;font-family:Helvetica;-inkscape-font-specification:Helvetica;writing-mode:lr-tb;fill:#000000;fill-opacity:1;fill-rule:nonzero;stroke:none"
             transform="translate(106.64063,112)"><tspan
               id="tspan108"
               y="0"
               x="0 9.9960938 16.669922 23.34375 30.017578 32.683594 38.683594 42.017578 45.351562 52.025391 56.021484 59.355469 66.029297 72.703125 75.369141 82.042969 88.042969 91.376953 94.042969 100.04297 106.7168">models for objectives</tspan></text>
</g><g
           transform="matrix(2.9987943,0,0,2.9987943,1.4993972,1.4993972)"
           id="g112"><path
             id="path114"
             style="fill:none;stroke:#000000;stroke-width:1;stroke-linecap:butt;stroke-linejoin:miter;stroke-miterlimit:10;stroke-dasharray:none;stroke-opacity:1"
             d="m 373,103 h 27.76001" /><path
             id="path116"
             style="fill:none;stroke:#000000;stroke-width:1;stroke-linecap:butt;stroke-linejoin:miter;stroke-miterlimit:10;stroke-dasharray:none;stroke-opacity:1"
             d="m 394.88,106.5 7,-3.5 -7,-3.5" /><path
             id="path118"
             style="fill:#ffffff;fill-opacity:1;fill-rule:nonzero;stroke:none"
             d="m 259,83 h 108 c 0.39395,0 0.78409,0.03843 1.17047,0.115288 0.38638,0.07686 0.7616,0.190666 1.12558,0.34143 0.36398,0.150765 0.70975,0.335579 1.03735,0.554451 0.32761,0.21888 0.63068,0.467606 0.90925,0.746186 0.27859,0.278572 0.52731,0.581642 0.74615,0.909218 0.21884,0.327568 0.40366,0.673347 0.55444,1.037323 0.15076,0.363975 0.26456,0.739166 0.34143,1.125557 0.0769,0.38639 0.1153,0.776573 0.11533,1.170547 v 28 c -3e-5,0.39397 -0.0385,0.78415 -0.11533,1.17054 -0.0769,0.38639 -0.19067,0.76157 -0.34143,1.12556 -0.15078,0.36397 -0.3356,0.70974 -0.55444,1.03731 -0.21884,0.32757 -0.46756,0.63065 -0.74615,0.90923 -0.27857,0.27857 -0.58164,0.52729 -0.90925,0.74617 -0.3276,0.21887 -0.67337,0.40369 -1.03735,0.55446 -0.36398,0.15076 -0.73917,0.26457 -1.12555,0.34143 -0.38638,0.0769 -0.77655,0.11529 -1.1705,0.1153 H 259 c -0.39395,-1e-5 -0.78415,-0.0384 -1.17056,-0.1153 -0.38639,-0.0769 -0.76157,-0.19067 -1.12555,-0.34143 -0.36399,-0.15077 -0.70978,-0.33559 -1.03736,-0.55446 -0.32756,-0.21888 -0.63063,-0.4676 -0.90919,-0.74617 -0.27858,-0.27858 -0.52731,-0.58166 -0.7462,-0.90923 -0.21887,-0.32757 -0.40369,-0.67334 -0.55444,-1.03732 -0.15078,-0.36398 -0.26458,-0.73916 -0.34144,-1.12555 C 253.03842,117.78415 253,117.39397 253,117 V 89 c 0,-0.393974 0.0384,-0.784157 0.11526,-1.170547 0.0769,-0.386391 0.19066,-0.761582 0.34144,-1.125557 0.15075,-0.363976 0.33557,-0.709755 0.55444,-1.037323 0.21889,-0.327576 0.46762,-0.630646 0.7462,-0.909218 0.27856,-0.27858 0.58163,-0.527306 0.90919,-0.746186 0.32758,-0.218872 0.67337,-0.403686 1.03736,-0.554451 0.36398,-0.150764 0.73916,-0.264572 1.12555,-0.34143 C 258.21585,83.038429 258.60605,83 259,83 Z" /><path
             id="path120"
             style="fill:none;stroke:#000000;stroke-width:1;stroke-linecap:butt;stroke-linejoin:miter;stroke-miterlimit:10;stroke-dasharray:none;stroke-opacity:1"
             d="m 259,83 h 108 c 0.39395,0 0.78409,0.03843 1.17047,0.115288 0.38638,0.07686 0.7616,0.190666 1.12558,0.34143 0.36398,0.150765 0.70975,0.335579 1.03735,0.554451 0.32761,0.21888 0.63068,0.467606 0.90925,0.746186 0.27859,0.278572 0.52731,0.581642 0.74615,0.909218 0.21884,0.327568 0.40366,0.673347 0.55444,1.037323 0.15076,0.363975 0.26456,0.739166 0.34143,1.125557 0.0769,0.38639 0.1153,0.776573 0.11533,1.170547 v 28 c -3e-5,0.39397 -0.0385,0.78415 -0.11533,1.17054 -0.0769,0.38639 -0.19067,0.76157 -0.34143,1.12556 -0.15078,0.36397 -0.3356,0.70974 -0.55444,1.03731 -0.21884,0.32757 -0.46756,0.63065 -0.74615,0.90923 -0.27857,0.27857 -0.58164,0.52729 -0.90925,0.74617 -0.3276,0.21887 -0.67337,0.40369 -1.03735,0.55446 -0.36398,0.15076 -0.73917,0.26457 -1.12555,0.34143 -0.38638,0.0769 -0.77655,0.11529 -1.1705,0.1153 H 259 c -0.39395,-1e-5 -0.78415,-0.0384 -1.17056,-0.1153 -0.38639,-0.0769 -0.76157,-0.19067 -1.12555,-0.34143 -0.36399,-0.15077 -0.70978,-0.33559 -1.03736,-0.55446 -0.32756,-0.21888 -0.63063,-0.4676 -0.90919,-0.74617 -0.27858,-0.27858 -0.52731,-0.58166 -0.7462,-0.90923 -0.21887,-0.32757 -0.40369,-0.67334 -0.55444,-1.03732 -0.15078,-0.36398 -0.26458,-0.73916 -0.34144,-1.12555 C 253.03842,117.78415 253,117.39397 253,117 V 89 c 0,-0.393974 0.0384,-0.784157 0.11526,-1.170547 0.0769,-0.386391 0.19066,-0.761582 0.34144,-1.125557 0.15075,-0.363976 0.33557,-0.709755 0.55444,-1.037323 0.21889,-0.327576 0.46762,-0.630646 0.7462,-0.909218 0.27856,-0.27858 0.58163,-0.527306 0.90919,-0.746186 0.32758,-0.218872 0.67337,-0.403686 1.03736,-0.554451 0.36398,-0.150764 0.73916,-0.264572 1.12555,-0.34143 C 258.21585,83.038429 258.60605,83 259,83 Z" /></g><g
           transform="scale(2.9987943)"
           id="g122"><text
             id="text126"
             style="font-variant:normal;font-weight:normal;font-size:12px;font-family:Helvetica;-inkscape-font-specification:Helvetica;writing-mode:lr-tb;fill:#000000;fill-opacity:1;fill-rule:nonzero;stroke:none"
             transform="translate(262.96875,108)"><tspan
               id="tspan124"
               y="0"
               x="0 8.0039062 14.003906 20.677734 23.34375 30.017578 34.013672 36.679688 42.679688 49.353516 52.6875 59.361328 66.035156 68.701172 75.375 81.375 84.708984 87.375 93.375">Scalarize objective</tspan></text>
</g><g
           transform="matrix(2.9987943,0,0,2.9987943,1.4993972,1.4993972)"
           id="g128"><path
             id="path130"
             style="fill:none;stroke:#000000;stroke-width:1;stroke-linecap:butt;stroke-linejoin:miter;stroke-miterlimit:10;stroke-dasharray:none;stroke-opacity:1"
             d="m 463,123 v 37.75999" /><path
             id="path132"
             style="fill:none;stroke:#000000;stroke-width:1;stroke-linecap:butt;stroke-linejoin:miter;stroke-miterlimit:10;stroke-dasharray:none;stroke-opacity:1"
             d="m 459.5,154.88 3.5,7 3.5,-7" /><path
             id="path134"
             style="fill:none;stroke:#000000;stroke-width:1;stroke-linecap:butt;stroke-linejoin:miter;stroke-miterlimit:10;stroke-dasharray:none;stroke-opacity:1"
             d="m 463,123 v 10 H 343 v 27.75999" /><path
             id="path136"
             style="fill:none;stroke:#000000;stroke-width:1;stroke-linecap:butt;stroke-linejoin:miter;stroke-miterlimit:10;stroke-dasharray:none;stroke-opacity:1"
             d="m 339.5,154.88 3.5,7 3.5,-7" /><path
             id="path138"
             style="fill:#ffffff;fill-opacity:1;fill-rule:nonzero;stroke:none"
             d="m 409,83 h 108 c 0.39392,0 0.78406,0.03843 1.17047,0.115288 0.38641,0.07686 0.7616,0.190666 1.12555,0.34143 0.36395,0.150765 0.70978,0.335579 1.03735,0.554451 0.32758,0.21888 0.63062,0.467606 0.90924,0.746186 0.27857,0.278572 0.52729,0.581642 0.74616,0.909218 0.21881,0.327568 0.40363,0.673347 0.55444,1.037323 0.15076,0.363975 0.26459,0.739166 0.34149,1.125557 C 522.96155,88.215843 523,88.606026 523,89 v 28 c 0,0.39397 -0.0385,0.78415 -0.1153,1.17054 -0.0769,0.38639 -0.19073,0.76157 -0.34149,1.12556 -0.15081,0.36397 -0.33563,0.70974 -0.55444,1.03731 -0.21887,0.32757 -0.46759,0.63065 -0.74616,0.90923 -0.27862,0.27857 -0.58166,0.52729 -0.90924,0.74617 -0.32757,0.21887 -0.6734,0.40369 -1.03735,0.55446 -0.36395,0.15076 -0.73914,0.26457 -1.12555,0.34143 C 517.78406,122.9616 517.39392,122.99999 517,123 H 409 c -0.39398,-1e-5 -0.78418,-0.0384 -1.17059,-0.1153 -0.38639,-0.0769 -0.76157,-0.19067 -1.12555,-0.34143 -0.36399,-0.15077 -0.70975,-0.33559 -1.03733,-0.55446 -0.32754,-0.21888 -0.63061,-0.4676 -0.90921,-0.74617 -0.27859,-0.27858 -0.52734,-0.58166 -0.74621,-0.90923 -0.2189,-0.32757 -0.40372,-0.67334 -0.55448,-1.03732 -0.15078,-0.36398 -0.26458,-0.73916 -0.34143,-1.12555 C 403.03836,117.78415 402.99997,117.39397 403,117 V 89 c -3e-5,-0.393974 0.0384,-0.784157 0.1152,-1.170547 0.0768,-0.386391 0.19065,-0.761582 0.34143,-1.125557 0.15076,-0.363976 0.33558,-0.709755 0.55448,-1.037323 0.21887,-0.327576 0.46762,-0.630646 0.74621,-0.909218 0.2786,-0.27858 0.58167,-0.527306 0.90921,-0.746186 0.32758,-0.218872 0.67334,-0.403686 1.03733,-0.554451 0.36398,-0.150764 0.73916,-0.264572 1.12555,-0.34143 C 408.21582,83.038429 408.60602,83 409,83 Z" /><path
             id="path140"
             style="fill:none;stroke:#000000;stroke-width:1;stroke-linecap:butt;stroke-linejoin:miter;stroke-miterlimit:10;stroke-dasharray:none;stroke-opacity:1"
             d="m 409,83 h 108 c 0.39392,0 0.78406,0.03843 1.17047,0.115288 0.38641,0.07686 0.7616,0.190666 1.12555,0.34143 0.36395,0.150765 0.70978,0.335579 1.03735,0.554451 0.32758,0.21888 0.63062,0.467606 0.90924,0.746186 0.27857,0.278572 0.52729,0.581642 0.74616,0.909218 0.21881,0.327568 0.40363,0.673347 0.55444,1.037323 0.15076,0.363975 0.26459,0.739166 0.34149,1.125557 C 522.96155,88.215843 523,88.606026 523,89 v 28 c 0,0.39397 -0.0385,0.78415 -0.1153,1.17054 -0.0769,0.38639 -0.19073,0.76157 -0.34149,1.12556 -0.15081,0.36397 -0.33563,0.70974 -0.55444,1.03731 -0.21887,0.32757 -0.46759,0.63065 -0.74616,0.90923 -0.27862,0.27857 -0.58166,0.52729 -0.90924,0.74617 -0.32757,0.21887 -0.6734,0.40369 -1.03735,0.55446 -0.36395,0.15076 -0.73914,0.26457 -1.12555,0.34143 C 517.78406,122.9616 517.39392,122.99999 517,123 H 409 c -0.39398,-1e-5 -0.78418,-0.0384 -1.17059,-0.1153 -0.38639,-0.0769 -0.76157,-0.19067 -1.12555,-0.34143 -0.36399,-0.15077 -0.70975,-0.33559 -1.03733,-0.55446 -0.32754,-0.21888 -0.63061,-0.4676 -0.90921,-0.74617 -0.27859,-0.27858 -0.52734,-0.58166 -0.74621,-0.90923 -0.2189,-0.32757 -0.40372,-0.67334 -0.55448,-1.03732 -0.15078,-0.36398 -0.26458,-0.73916 -0.34143,-1.12555 C 403.03836,117.78415 402.99997,117.39397 403,117 V 89 c -3e-5,-0.393974 0.0384,-0.784157 0.1152,-1.170547 0.0768,-0.386391 0.19065,-0.761582 0.34143,-1.125557 0.15076,-0.363976 0.33558,-0.709755 0.55448,-1.037323 0.21887,-0.327576 0.46762,-0.630646 0.74621,-0.909218 0.2786,-0.27858 0.58167,-0.527306 0.90921,-0.746186 0.32758,-0.218872 0.67334,-0.403686 1.03733,-0.554451 0.36398,-0.150764 0.73916,-0.264572 1.12555,-0.34143 C 408.21582,83.038429 408.60602,83 409,83 Z" /></g><g
           transform="scale(2.9987943)"
           id="g142"><text
             id="text146"
             style="font-variant:normal;font-weight:normal;font-size:12px;font-family:Helvetica;-inkscape-font-specification:Helvetica;writing-mode:lr-tb;fill:#000000;fill-opacity:1;fill-rule:nonzero;stroke:none"
             transform="translate(404.96875,108)"><tspan
               id="tspan144"
               y="0"
               x="0 9.9960938 16.669922 23.34375 30.017578 32.683594 36.017578 42.691406 46.025391 49.359375 55.359375 61.359375 68.033203 70.699219 77.373047 81.369141 84.035156 90.035156 96.708984 100.04297 102.70898 109.38281">Model of scalarization</tspan></text>
</g><g
           transform="matrix(2.9987943,0,0,2.9987943,1.4993972,1.4993972)"
           id="g148"><path
             id="path150"
             style="fill:none;stroke:#000000;stroke-width:1;stroke-linecap:butt;stroke-linejoin:miter;stroke-miterlimit:10;stroke-dasharray:none;stroke-opacity:1"
             d="m 463,203 v 10 h -80 v 27.75999" /><path
             id="path152"
             style="fill:none;stroke:#000000;stroke-width:1;stroke-linecap:butt;stroke-linejoin:miter;stroke-miterlimit:10;stroke-dasharray:none;stroke-opacity:1"
             d="m 379.5,234.88 3.5,7 3.5,-7" /><path
             id="path154"
             style="fill:#ffffff;fill-opacity:1;fill-rule:nonzero;stroke:none"
             d="m 409,163 h 108 c 0.39392,0 0.78406,0.0384 1.17047,0.11529 0.38641,0.0769 0.7616,0.19065 1.12555,0.34142 0.36395,0.15076 0.70978,0.33557 1.03735,0.55444 0.32758,0.21889 0.63062,0.46761 0.90924,0.74619 0.27857,0.27858 0.52729,0.58165 0.74616,0.90921 0.21881,0.32756 0.40363,0.67334 0.55444,1.03732 0.15076,0.36397 0.26459,0.73917 0.34149,1.12557 C 522.9616,168.21584 523,168.60603 523,169 v 28 c 0,0.39397 -0.0385,0.78413 -0.1153,1.17052 -0.0769,0.38638 -0.19073,0.76156 -0.34149,1.12555 -0.15081,0.36396 -0.33563,0.70974 -0.55444,1.0373 -0.21887,0.32759 -0.46759,0.63067 -0.74616,0.90924 -0.27862,0.27858 -0.58166,0.5273 -0.90924,0.74619 -0.32757,0.21886 -0.6734,0.40367 -1.03735,0.55444 -0.36395,0.15078 -0.73914,0.26459 -1.12555,0.34146 C 517.78406,202.9616 517.39392,202.99998 517,203 H 409 c -0.39398,-2e-5 -0.78418,-0.0384 -1.17059,-0.1153 -0.38639,-0.0769 -0.76157,-0.19068 -1.12555,-0.34144 -0.36399,-0.15077 -0.70975,-0.33559 -1.03733,-0.55446 -0.32754,-0.21889 -0.63061,-0.46761 -0.90921,-0.74619 -0.27859,-0.27857 -0.52734,-0.58165 -0.74621,-0.90924 -0.2189,-0.32756 -0.40372,-0.67334 -0.55448,-1.0373 -0.15078,-0.36399 -0.26458,-0.73917 -0.34143,-1.12555 C 403.03836,197.78413 402.99997,197.39397 403,197 v -28 c -3e-5,-0.39397 0.0384,-0.78416 0.1152,-1.17056 0.0768,-0.3864 0.19065,-0.7616 0.34143,-1.12557 0.15076,-0.36398 0.33558,-0.70976 0.55448,-1.03732 0.21887,-0.32756 0.46762,-0.63063 0.74621,-0.90921 0.2786,-0.27858 0.58167,-0.5273 0.90921,-0.74617 0.32758,-0.21889 0.67334,-0.4037 1.03733,-0.55446 0.36398,-0.15077 0.73916,-0.26457 1.12555,-0.34142 C 408.21582,163.03844 408.60602,163 409,163 Z" /><path
             id="path156"
             style="fill:none;stroke:#000000;stroke-width:1;stroke-linecap:butt;stroke-linejoin:miter;stroke-miterlimit:10;stroke-dasharray:none;stroke-opacity:1"
             d="m 409,163 h 108 c 0.39392,0 0.78406,0.0384 1.17047,0.11529 0.38641,0.0769 0.7616,0.19065 1.12555,0.34142 0.36395,0.15076 0.70978,0.33557 1.03735,0.55444 0.32758,0.21889 0.63062,0.46761 0.90924,0.74619 0.27857,0.27858 0.52729,0.58165 0.74616,0.90921 0.21881,0.32756 0.40363,0.67334 0.55444,1.03732 0.15076,0.36397 0.26459,0.73917 0.34149,1.12557 C 522.9616,168.21584 523,168.60603 523,169 v 28 c 0,0.39397 -0.0385,0.78413 -0.1153,1.17052 -0.0769,0.38638 -0.19073,0.76156 -0.34149,1.12555 -0.15081,0.36396 -0.33563,0.70974 -0.55444,1.0373 -0.21887,0.32759 -0.46759,0.63067 -0.74616,0.90924 -0.27862,0.27858 -0.58166,0.5273 -0.90924,0.74619 -0.32757,0.21886 -0.6734,0.40367 -1.03735,0.55444 -0.36395,0.15078 -0.73914,0.26459 -1.12555,0.34146 C 517.78406,202.9616 517.39392,202.99998 517,203 H 409 c -0.39398,-2e-5 -0.78418,-0.0384 -1.17059,-0.1153 -0.38639,-0.0769 -0.76157,-0.19068 -1.12555,-0.34144 -0.36399,-0.15077 -0.70975,-0.33559 -1.03733,-0.55446 -0.32754,-0.21889 -0.63061,-0.46761 -0.90921,-0.74619 -0.27859,-0.27857 -0.52734,-0.58165 -0.74621,-0.90924 -0.2189,-0.32756 -0.40372,-0.67334 -0.55448,-1.0373 -0.15078,-0.36399 -0.26458,-0.73917 -0.34143,-1.12555 C 403.03836,197.78413 402.99997,197.39397 403,197 v -28 c -3e-5,-0.39397 0.0384,-0.78416 0.1152,-1.17056 0.0768,-0.3864 0.19065,-0.7616 0.34143,-1.12557 0.15076,-0.36398 0.33558,-0.70976 0.55448,-1.03732 0.21887,-0.32756 0.46762,-0.63063 0.74621,-0.90921 0.2786,-0.27858 0.58167,-0.5273 0.90921,-0.74617 0.32758,-0.21889 0.67334,-0.4037 1.03733,-0.55446 0.36398,-0.15077 0.73916,-0.26457 1.12555,-0.34142 C 408.21582,163.03844 408.60602,163 409,163 Z" /></g><g
           transform="scale(2.9987943)"
           id="g158"><text
             id="text162"
             style="font-variant:normal;font-weight:normal;font-size:12px;font-family:Helvetica;-inkscape-font-specification:Helvetica;writing-mode:lr-tb;fill:#000000;fill-opacity:1;fill-rule:nonzero;stroke:none"
             transform="translate(432.98438,181)"><tspan
               id="tspan160"
               y="0"
               x="0 8.0039062 10.669922 17.34375 24.017578 26.683594 33.357422 37.353516 44.027344 50.701172 53.367188 56.701172">Single-obj. </tspan></text>
<text
             id="text166"
             style="font-variant:normal;font-weight:normal;font-size:12px;font-family:Helvetica;-inkscape-font-specification:Helvetica;writing-mode:lr-tb;fill:#000000;fill-opacity:1;fill-rule:nonzero;stroke:none"
             transform="translate(430.98438,195)"><tspan
               id="tspan164"
               y="0"
               x="0 6.6738281 13.347656 16.681641 19.347656 29.34375 32.009766 38.009766 44.683594 48.017578 50.683594 57.357422">optimization</tspan></text>
</g><g
           transform="matrix(2.9987943,0,0,2.9987943,1.4993972,1.4993972)"
           id="g168"><path
             id="path170"
             style="fill:none;stroke:#000000;stroke-width:1;stroke-linecap:butt;stroke-linejoin:miter;stroke-miterlimit:10;stroke-dasharray:none;stroke-opacity:1"
             d="m 303,203 v 10 H 163 v 27.75999" /><path
             id="path172"
             style="fill:none;stroke:#000000;stroke-width:1;stroke-linecap:butt;stroke-linejoin:miter;stroke-miterlimit:10;stroke-dasharray:none;stroke-opacity:1"
             d="m 159.5,234.88 3.5,7 3.5,-7" /><path
             id="path174"
             style="fill:none;stroke:#000000;stroke-width:1;stroke-linecap:butt;stroke-linejoin:miter;stroke-miterlimit:10;stroke-dasharray:none;stroke-opacity:1"
             d="m 323,203 v 10 h 60 v 27.75999" /><path
             id="path176"
             style="fill:none;stroke:#000000;stroke-width:1;stroke-linecap:butt;stroke-linejoin:miter;stroke-miterlimit:10;stroke-dasharray:none;stroke-opacity:1"
             d="m 379.5,234.88 3.5,7 3.5,-7" /><path
             id="path178"
             style="fill:#ffffff;fill-opacity:1;fill-rule:nonzero;stroke:none"
             d="m 259,163 h 108 c 0.39395,0 0.78409,0.0384 1.17047,0.11529 0.38638,0.0769 0.7616,0.19065 1.12558,0.34142 0.36398,0.15076 0.70975,0.33557 1.03735,0.55444 0.32761,0.21889 0.63068,0.46761 0.90925,0.74619 0.27859,0.27858 0.52731,0.58165 0.74615,0.90921 0.21884,0.32756 0.40366,0.67334 0.55444,1.03732 0.15076,0.36397 0.26456,0.73917 0.34143,1.12557 0.0769,0.3864 0.1153,0.77659 0.11533,1.17056 v 28 c -3e-5,0.39397 -0.0385,0.78413 -0.11533,1.17052 -0.0769,0.38638 -0.19067,0.76156 -0.34143,1.12555 -0.15078,0.36396 -0.3356,0.70974 -0.55444,1.0373 -0.21884,0.32759 -0.46756,0.63067 -0.74615,0.90924 -0.27857,0.27858 -0.58164,0.5273 -0.90925,0.74619 -0.3276,0.21886 -0.67337,0.40367 -1.03735,0.55444 -0.36398,0.15078 -0.73917,0.26459 -1.12555,0.34146 -0.38638,0.0769 -0.77655,0.11528 -1.1705,0.1153 H 259 c -0.39395,-2e-5 -0.78415,-0.0384 -1.17056,-0.1153 -0.38639,-0.0769 -0.76157,-0.19068 -1.12555,-0.34144 -0.36399,-0.15077 -0.70978,-0.33559 -1.03736,-0.55446 -0.32756,-0.21889 -0.63063,-0.46761 -0.90919,-0.74619 -0.27858,-0.27857 -0.52731,-0.58165 -0.7462,-0.90924 -0.21887,-0.32756 -0.40369,-0.67334 -0.55444,-1.0373 -0.15078,-0.36399 -0.26458,-0.73917 -0.34144,-1.12555 C 253.03842,197.78413 253,197.39397 253,197 v -28 c 0,-0.39397 0.0384,-0.78416 0.11526,-1.17056 0.0769,-0.3864 0.19066,-0.7616 0.34144,-1.12557 0.15075,-0.36398 0.33557,-0.70976 0.55444,-1.03732 0.21889,-0.32756 0.46762,-0.63063 0.7462,-0.90921 0.27856,-0.27858 0.58163,-0.5273 0.90919,-0.74617 0.32758,-0.21889 0.67337,-0.4037 1.03736,-0.55446 0.36398,-0.15077 0.73916,-0.26457 1.12555,-0.34142 C 258.21585,163.03844 258.60605,163 259,163 Z" /><path
             id="path180"
             style="fill:none;stroke:#000000;stroke-width:1;stroke-linecap:butt;stroke-linejoin:miter;stroke-miterlimit:10;stroke-dasharray:none;stroke-opacity:1"
             d="m 259,163 h 108 c 0.39395,0 0.78409,0.0384 1.17047,0.11529 0.38638,0.0769 0.7616,0.19065 1.12558,0.34142 0.36398,0.15076 0.70975,0.33557 1.03735,0.55444 0.32761,0.21889 0.63068,0.46761 0.90925,0.74619 0.27859,0.27858 0.52731,0.58165 0.74615,0.90921 0.21884,0.32756 0.40366,0.67334 0.55444,1.03732 0.15076,0.36397 0.26456,0.73917 0.34143,1.12557 0.0769,0.3864 0.1153,0.77659 0.11533,1.17056 v 28 c -3e-5,0.39397 -0.0385,0.78413 -0.11533,1.17052 -0.0769,0.38638 -0.19067,0.76156 -0.34143,1.12555 -0.15078,0.36396 -0.3356,0.70974 -0.55444,1.0373 -0.21884,0.32759 -0.46756,0.63067 -0.74615,0.90924 -0.27857,0.27858 -0.58164,0.5273 -0.90925,0.74619 -0.3276,0.21886 -0.67337,0.40367 -1.03735,0.55444 -0.36398,0.15078 -0.73917,0.26459 -1.12555,0.34146 -0.38638,0.0769 -0.77655,0.11528 -1.1705,0.1153 H 259 c -0.39395,-2e-5 -0.78415,-0.0384 -1.17056,-0.1153 -0.38639,-0.0769 -0.76157,-0.19068 -1.12555,-0.34144 -0.36399,-0.15077 -0.70978,-0.33559 -1.03736,-0.55446 -0.32756,-0.21889 -0.63063,-0.46761 -0.90919,-0.74619 -0.27858,-0.27857 -0.52731,-0.58165 -0.7462,-0.90924 -0.21887,-0.32756 -0.40369,-0.67334 -0.55444,-1.0373 -0.15078,-0.36399 -0.26458,-0.73917 -0.34144,-1.12555 C 253.03842,197.78413 253,197.39397 253,197 v -28 c 0,-0.39397 0.0384,-0.78416 0.11526,-1.17056 0.0769,-0.3864 0.19066,-0.7616 0.34144,-1.12557 0.15075,-0.36398 0.33557,-0.70976 0.55444,-1.03732 0.21889,-0.32756 0.46762,-0.63063 0.7462,-0.90921 0.27856,-0.27858 0.58163,-0.5273 0.90919,-0.74617 0.32758,-0.21889 0.67337,-0.4037 1.03736,-0.55446 0.36398,-0.15077 0.73916,-0.26457 1.12555,-0.34142 C 258.21585,163.03844 258.60605,163 259,163 Z" /></g><g
           transform="scale(2.9987943)"
           id="g182"><text
             id="text186"
             style="font-variant:normal;font-weight:normal;font-size:12px;font-family:Helvetica;-inkscape-font-specification:Helvetica;writing-mode:lr-tb;fill:#000000;fill-opacity:1;fill-rule:nonzero;stroke:none"
             transform="translate(261.64063,181)"><tspan
               id="tspan184"
               y="0"
               x="0 9.9960938 16.669922 19.335938 22.669922 25.335938 32.009766 34.675781 41.349609 44.683594 50.683594 53.349609 60.023438 66.697266 69.363281 76.037109 80.033203 86.707031 93.380859 96.046875 99.380859">Multiple single-obj. </tspan></text>
<text
             id="text190"
             style="font-variant:normal;font-weight:normal;font-size:12px;font-family:Helvetica;-inkscape-font-specification:Helvetica;writing-mode:lr-tb;fill:#000000;fill-opacity:1;fill-rule:nonzero;stroke:none"
             transform="translate(280.98438,195)"><tspan
               id="tspan188"
               y="0"
               x="0 6.6738281 13.347656 16.681641 19.347656 29.34375 32.009766 38.009766 44.683594 48.017578 50.683594 57.357422">optimization</tspan></text>
</g><g
           transform="matrix(2.9987943,0,0,2.9987943,1.4993972,1.4993972)"
           id="g192"><path
             id="path194"
             style="fill:none;stroke:#000000;stroke-width:1;stroke-linecap:butt;stroke-linejoin:miter;stroke-miterlimit:10;stroke-dasharray:none;stroke-opacity:1"
             d="m 163,203 v 37.75999" /><path
             id="path196"
             style="fill:none;stroke:#000000;stroke-width:1;stroke-linecap:butt;stroke-linejoin:miter;stroke-miterlimit:10;stroke-dasharray:none;stroke-opacity:1"
             d="m 159.5,234.88 3.5,7 3.5,-7" /><path
             id="path198"
             style="fill:#ffffff;fill-opacity:1;fill-rule:nonzero;stroke:none"
             d="m 109,163 h 108 c 0.39395,0 0.78412,0.0384 1.17052,0.11529 0.3864,0.0769 0.76158,0.19065 1.12555,0.34142 0.36396,0.15076 0.70974,0.33557 1.03732,0.55444 0.32757,0.21889 0.63066,0.46761 0.90924,0.74619 0.27856,0.27858 0.52728,0.58165 0.74617,0.90921 0.21889,0.32756 0.4037,0.67334 0.55446,1.03732 0.15077,0.36397 0.26457,0.73917 0.34143,1.12557 0.0769,0.3864 0.11529,0.77659 0.11531,1.17056 v 28 c -2e-5,0.39397 -0.0385,0.78413 -0.11531,1.17052 -0.0769,0.38638 -0.19066,0.76156 -0.34143,1.12555 -0.15076,0.36396 -0.33557,0.70974 -0.55446,1.0373 -0.21889,0.32759 -0.46761,0.63067 -0.74617,0.90924 -0.27858,0.27858 -0.58167,0.5273 -0.90923,0.74619 -0.32759,0.21886 -0.67337,0.40367 -1.03733,0.55444 -0.36397,0.15078 -0.73915,0.26459 -1.12555,0.34146 -0.3864,0.0769 -0.77657,0.11528 -1.17052,0.1153 H 109 c -0.39397,-2e-5 -0.78416,-0.0384 -1.17055,-0.1153 -0.3864,-0.0769 -0.76159,-0.19068 -1.12556,-0.34144 -0.36398,-0.15077 -0.70975,-0.33559 -1.03732,-0.55446 -0.32757,-0.21889 -0.63064,-0.46761 -0.90921,-0.74619 -0.27858,-0.27857 -0.52731,-0.58165 -0.74619,-0.90924 -0.21888,-0.32756 -0.4037,-0.67334 -0.55446,-1.0373 -0.15076,-0.36399 -0.26457,-0.73917 -0.34143,-1.12555 C 103.03842,197.78413 102.99999,197.39397 103,197 v -28 c -1e-5,-0.39397 0.0384,-0.78416 0.11528,-1.17056 0.0769,-0.3864 0.19067,-0.7616 0.34143,-1.12557 0.15076,-0.36398 0.33558,-0.70976 0.55446,-1.03732 0.21888,-0.32756 0.46761,-0.63063 0.74619,-0.90921 0.27857,-0.27858 0.58164,-0.5273 0.90921,-0.74617 0.32757,-0.21889 0.67334,-0.4037 1.03732,-0.55446 0.36397,-0.15077 0.73916,-0.26457 1.12556,-0.34142 C 108.21584,163.03844 108.60603,163 109,163 Z" /><path
             id="path200"
             style="fill:none;stroke:#000000;stroke-width:1;stroke-linecap:butt;stroke-linejoin:miter;stroke-miterlimit:10;stroke-dasharray:none;stroke-opacity:1"
             d="m 109,163 h 108 c 0.39395,0 0.78412,0.0384 1.17052,0.11529 0.3864,0.0769 0.76158,0.19065 1.12555,0.34142 0.36396,0.15076 0.70974,0.33557 1.03732,0.55444 0.32757,0.21889 0.63066,0.46761 0.90924,0.74619 0.27856,0.27858 0.52728,0.58165 0.74617,0.90921 0.21889,0.32756 0.4037,0.67334 0.55446,1.03732 0.15077,0.36397 0.26457,0.73917 0.34143,1.12557 0.0769,0.3864 0.11529,0.77659 0.11531,1.17056 v 28 c -2e-5,0.39397 -0.0385,0.78413 -0.11531,1.17052 -0.0769,0.38638 -0.19066,0.76156 -0.34143,1.12555 -0.15076,0.36396 -0.33557,0.70974 -0.55446,1.0373 -0.21889,0.32759 -0.46761,0.63067 -0.74617,0.90924 -0.27858,0.27858 -0.58167,0.5273 -0.90923,0.74619 -0.32759,0.21886 -0.67337,0.40367 -1.03733,0.55444 -0.36397,0.15078 -0.73915,0.26459 -1.12555,0.34146 -0.3864,0.0769 -0.77657,0.11528 -1.17052,0.1153 H 109 c -0.39397,-2e-5 -0.78416,-0.0384 -1.17055,-0.1153 -0.3864,-0.0769 -0.76159,-0.19068 -1.12556,-0.34144 -0.36398,-0.15077 -0.70975,-0.33559 -1.03732,-0.55446 -0.32757,-0.21889 -0.63064,-0.46761 -0.90921,-0.74619 -0.27858,-0.27857 -0.52731,-0.58165 -0.74619,-0.90924 -0.21888,-0.32756 -0.4037,-0.67334 -0.55446,-1.0373 -0.15076,-0.36399 -0.26457,-0.73917 -0.34143,-1.12555 C 103.03842,197.78413 102.99999,197.39397 103,197 v -28 c -1e-5,-0.39397 0.0384,-0.78416 0.11528,-1.17056 0.0769,-0.3864 0.19067,-0.7616 0.34143,-1.12557 0.15076,-0.36398 0.33558,-0.70976 0.55446,-1.03732 0.21888,-0.32756 0.46761,-0.63063 0.74619,-0.90921 0.27857,-0.27858 0.58164,-0.5273 0.90921,-0.74617 0.32757,-0.21889 0.67334,-0.4037 1.03732,-0.55446 0.36397,-0.15077 0.73916,-0.26457 1.12556,-0.34142 C 108.21584,163.03844 108.60603,163 109,163 Z" /></g><g
           transform="scale(2.9987943)"
           id="g202"><text
             id="text206"
             style="font-variant:normal;font-weight:normal;font-size:12px;font-family:Helvetica;-inkscape-font-specification:Helvetica;writing-mode:lr-tb;fill:#000000;fill-opacity:1;fill-rule:nonzero;stroke:none"
             transform="translate(137,181)"><tspan
               id="tspan204"
               y="0"
               x="0 9.9960938 16.669922 19.335938 22.669922 25.335938 29.332031 36.005859 42.679688 45.345703 48.679688">Multi-obj. </tspan></text>
<text
             id="text210"
             style="font-variant:normal;font-weight:normal;font-size:12px;font-family:Helvetica;-inkscape-font-specification:Helvetica;writing-mode:lr-tb;fill:#000000;fill-opacity:1;fill-rule:nonzero;stroke:none"
             transform="translate(130.98437,195)"><tspan
               id="tspan208"
               y="0"
               x="0 6.6738281 13.347656 16.681641 19.347656 29.34375 32.009766 38.009766 44.683594 48.017578 50.683594 57.357422">optimization</tspan></text>
<path
             id="path212"
             style="fill:#000000;fill-opacity:1;fill-rule:nonzero;stroke:none"
             d="m 6,302 h 6 v 2 H 6 m 12,-2 h 6 v 2 h -6 m 12,-2 h 6 v 2 h -6 m 12,-2 h 6 v 2 h -6 m 12,-2 h 6 v 2 h -6 m 12,-2 h 6 v 2 h -6 m 12,-2 h 6 v 2 h -6 m 12,-2 h 6 v 2 h -6 m 12,-2 h 6 v 2 h -6 m 12,-2 h 6 v 2 h -6 m 12,-2 h 6 v 2 h -6 m 12,-2 h 6 v 2 h -6 m 12,-2 h 6 v 2 h -6 m 12,-2 h 6 v 2 h -6 m 12,-2 h 6 v 2 h -6 m 12,-2 h 6 v 2 h -6 m 12,-2 h 6 v 2 h -6 m 12,-2 h 6 v 2 h -6 m 12,-2 h 6 v 2 h -6 m 12,-2 h 6 v 2 h -6 m 12,-2 h 6 v 2 h -6 m 12,-2 h 6 v 2 h -6 m 12,-2 h 6 v 2 h -6 m 12,-2 h 6 v 2 h -6 m 12,-2 h 6 v 2 h -6 m 12,-2 h 6 v 2 h -6 m 12,-2 h 6 v 2 h -6 m 12,-2 h 6 v 2 h -6 m 12,-2 h 6 v 2 h -6 m 12,-2 h 6 v 2 h -6 m 12,-2 h 6 v 2 h -6 m 12,-2 h 6 v 2 h -6 m 12,-2 h 6 v 2 h -6 m 12,-2 h 6 v 2 h -6 m 12,-2 h 6 v 2 h -6 m 12,-2 h 6 v 2 h -6 m 12,-2 h 6 v 2 h -6 m 12,-2 h 6 v 2 h -6 m 12,-2 h 6 v 2 h -6 m 12,-2 h 6 v 2 h -6 m 12,-2 h 6 v 2 h -6 m 12,-2 h 6 v 2 h -6 m 12,-2 h 6 v 2 h -6 m 12,-2 h 1 v 2 h -1" /><path
             id="path214"
             style="fill:#ffffff;fill-opacity:1;fill-rule:nonzero;stroke:none"
             d="m 2,266 h 69 v 28 H 2 Z" /><text
             id="text218"
             style="font-variant:normal;font-weight:normal;font-size:12px;font-family:Helvetica;-inkscape-font-specification:Helvetica;writing-mode:lr-tb;fill:#000000;fill-opacity:1;fill-rule:nonzero;stroke:none"
             transform="translate(2,277)"><tspan
               id="tspan216"
               y="0"
               x="0 8.0039062 12 18.673828 25.347656 28.013672 34.013672 37.347656">Predict </tspan></text>
<text
             id="text222"
             style="font-variant:normal;font-weight:normal;font-size:12px;font-family:Helvetica;-inkscape-font-specification:Helvetica;writing-mode:lr-tb;fill:#000000;fill-opacity:1;fill-rule:nonzero;stroke:none"
             transform="translate(2,291)"><tspan
               id="tspan220"
               y="0"
               x="0 6 12.673828 19.347656 25.347656 32.021484 38.695312 42.691406 49.365234 52.699219 55.365234 62.039062">conﬁguration</tspan></text>
</g><g
           transform="matrix(2.9987943,0,0,2.9987943,1.4993972,1.4993972)"
           id="g224"><path
             id="path226"
             style="fill:none;stroke:#000000;stroke-width:1;stroke-linecap:butt;stroke-linejoin:miter;stroke-miterlimit:10;stroke-dasharray:none;stroke-opacity:1"
             d="m 383,283 v 37.76001" /><path
             id="path228"
             style="fill:none;stroke:#000000;stroke-width:1;stroke-linecap:butt;stroke-linejoin:miter;stroke-miterlimit:10;stroke-dasharray:none;stroke-opacity:1"
             d="m 379.5,314.88 3.5,7 3.5,-7" /><path
             id="path230"
             style="fill:#ffffff;fill-opacity:1;fill-rule:nonzero;stroke:none"
             d="m 329,243 h 108 c 0.39395,0 0.78412,0.0384 1.17053,0.11526 0.38639,0.0769 0.76157,0.19068 1.12555,0.34144 0.36395,0.15077 0.70972,0.33558 1.03732,0.55447 0.32755,0.21889 0.63062,0.46761 0.90921,0.74618 0.27857,0.27858 0.52729,0.58165 0.74616,0.90921 0.21884,0.32758 0.40366,0.67336 0.55444,1.03733 0.15079,0.36397 0.26459,0.73915 0.34146,1.12555 0.0769,0.3864 0.1153,0.77659 0.11533,1.17056 v 28 c -3e-5,0.39395 -0.0385,0.78412 -0.11533,1.1705 -0.0769,0.38638 -0.19067,0.76157 -0.34146,1.12555 -0.15078,0.36398 -0.3356,0.70978 -0.55444,1.03735 -0.21887,0.32755 -0.46759,0.63062 -0.74616,0.90921 -0.27859,0.27857 -0.58169,0.52729 -0.90924,0.74619 -0.3276,0.21887 -0.67337,0.40369 -1.03732,0.55444 -0.36398,0.15079 -0.73913,0.26459 -1.12552,0.34146 C 437.78412,282.96158 437.39395,283 437,283 H 329 c -0.39395,0 -0.78415,-0.0384 -1.17056,-0.1153 -0.38639,-0.0769 -0.7616,-0.19067 -1.12558,-0.34146 -0.36399,-0.15075 -0.70975,-0.33557 -1.03733,-0.55447 -0.32754,-0.21887 -0.63061,-0.46759 -0.90918,-0.74616 -0.27859,-0.27859 -0.52734,-0.58166 -0.74621,-0.90921 -0.21887,-0.32757 -0.40369,-0.67337 -0.55444,-1.03735 -0.15076,-0.36398 -0.26456,-0.73917 -0.34144,-1.12555 C 323.03842,277.78412 323,277.39395 323,277 v -28 c 0,-0.39397 0.0384,-0.78416 0.11526,-1.17056 0.0769,-0.3864 0.19068,-0.76158 0.34144,-1.12555 0.15075,-0.36397 0.33557,-0.70975 0.55444,-1.03733 0.21887,-0.32756 0.46762,-0.63063 0.74621,-0.90921 0.27857,-0.27857 0.58164,-0.52729 0.90918,-0.74618 0.32758,-0.21889 0.67334,-0.4037 1.03733,-0.55447 0.36398,-0.15076 0.73919,-0.26456 1.12558,-0.34142 C 328.21585,243.03842 328.60605,243 329,243 Z" /><path
             id="path232"
             style="fill:none;stroke:#000000;stroke-width:1;stroke-linecap:butt;stroke-linejoin:miter;stroke-miterlimit:10;stroke-dasharray:none;stroke-opacity:1"
             d="m 329,243 h 108 c 0.39395,0 0.78412,0.0384 1.17053,0.11526 0.38639,0.0769 0.76157,0.19068 1.12555,0.34144 0.36395,0.15077 0.70972,0.33558 1.03732,0.55447 0.32755,0.21889 0.63062,0.46761 0.90921,0.74618 0.27857,0.27858 0.52729,0.58165 0.74616,0.90921 0.21884,0.32758 0.40366,0.67336 0.55444,1.03733 0.15079,0.36397 0.26459,0.73915 0.34146,1.12555 0.0769,0.3864 0.1153,0.77659 0.11533,1.17056 v 28 c -3e-5,0.39395 -0.0385,0.78412 -0.11533,1.1705 -0.0769,0.38638 -0.19067,0.76157 -0.34146,1.12555 -0.15078,0.36398 -0.3356,0.70978 -0.55444,1.03735 -0.21887,0.32755 -0.46759,0.63062 -0.74616,0.90921 -0.27859,0.27857 -0.58169,0.52729 -0.90924,0.74619 -0.3276,0.21887 -0.67337,0.40369 -1.03732,0.55444 -0.36398,0.15079 -0.73913,0.26459 -1.12552,0.34146 C 437.78412,282.96158 437.39395,283 437,283 H 329 c -0.39395,0 -0.78415,-0.0384 -1.17056,-0.1153 -0.38639,-0.0769 -0.7616,-0.19067 -1.12558,-0.34146 -0.36399,-0.15075 -0.70975,-0.33557 -1.03733,-0.55447 -0.32754,-0.21887 -0.63061,-0.46759 -0.90918,-0.74616 -0.27859,-0.27859 -0.52734,-0.58166 -0.74621,-0.90921 -0.21887,-0.32757 -0.40369,-0.67337 -0.55444,-1.03735 -0.15076,-0.36398 -0.26456,-0.73917 -0.34144,-1.12555 C 323.03842,277.78412 323,277.39395 323,277 v -28 c 0,-0.39397 0.0384,-0.78416 0.11526,-1.17056 0.0769,-0.3864 0.19068,-0.76158 0.34144,-1.12555 0.15075,-0.36397 0.33557,-0.70975 0.55444,-1.03733 0.21887,-0.32756 0.46762,-0.63063 0.74621,-0.90921 0.27857,-0.27857 0.58164,-0.52729 0.90918,-0.74618 0.32758,-0.21889 0.67334,-0.4037 1.03733,-0.55447 0.36398,-0.15076 0.73919,-0.26456 1.12558,-0.34142 C 328.21585,243.03842 328.60605,243 329,243 Z" /></g><g
           transform="scale(2.9987943)"
           id="g234"><text
             id="text238"
             style="font-variant:normal;font-weight:normal;font-size:12px;font-family:Helvetica;-inkscape-font-specification:Helvetica;writing-mode:lr-tb;fill:#000000;fill-opacity:1;fill-rule:nonzero;stroke:none"
             transform="translate(344.64063,261)"><tspan
               id="tspan236"
               y="0"
               x="0 8.0039062 10.669922 17.34375 24.017578 26.683594 33.357422 37.353516 43.353516 47.349609 50.015625 53.349609 60.023438 64.019531 66.685547 73.359375">Single-criteria </tspan></text>
<text
             id="text242"
             style="font-variant:normal;font-weight:normal;font-size:12px;font-family:Helvetica;-inkscape-font-specification:Helvetica;writing-mode:lr-tb;fill:#000000;fill-opacity:1;fill-rule:nonzero;stroke:none"
             transform="translate(359.3125,275)"><tspan
               id="tspan240"
               y="0"
               x="0 6 12.673828 15.339844 22.013672 28.013672 31.347656 34.013672 40.6875">selection</tspan></text>
</g><g
           transform="matrix(2.9987943,0,0,2.9987943,1.4993972,1.4993972)"
           id="g244"><path
             id="path246"
             style="fill:none;stroke:#000000;stroke-width:1;stroke-linecap:butt;stroke-linejoin:miter;stroke-miterlimit:10;stroke-dasharray:none;stroke-opacity:1"
             d="M 463,41 V 53 H 315.23999" /><path
             id="path248"
             style="fill:none;stroke:#000000;stroke-width:1;stroke-linecap:butt;stroke-linejoin:miter;stroke-miterlimit:10;stroke-dasharray:none;stroke-opacity:1"
             d="m 321.12,49.5 -7,3.5 7,3.5" /><path
             id="path250"
             style="fill:#ffffff;fill-opacity:1;fill-rule:nonzero;stroke:none"
             d="m 109,243 h 108 c 0.39395,0 0.78412,0.0384 1.17052,0.11526 0.3864,0.0769 0.76158,0.19068 1.12555,0.34144 0.36396,0.15077 0.70974,0.33558 1.03732,0.55447 0.32757,0.21889 0.63066,0.46761 0.90924,0.74618 0.27856,0.27858 0.52728,0.58165 0.74617,0.90921 0.21889,0.32758 0.4037,0.67336 0.55446,1.03733 0.15077,0.36397 0.26457,0.73915 0.34143,1.12555 0.0769,0.3864 0.11529,0.77659 0.11531,1.17056 v 28 c -2e-5,0.39395 -0.0385,0.78412 -0.11531,1.1705 -0.0769,0.38638 -0.19066,0.76157 -0.34143,1.12555 -0.15076,0.36398 -0.33557,0.70978 -0.55446,1.03735 -0.21889,0.32755 -0.46761,0.63062 -0.74617,0.90921 -0.27858,0.27857 -0.58167,0.52729 -0.90923,0.74619 -0.32759,0.21887 -0.67337,0.40369 -1.03733,0.55444 -0.36397,0.15079 -0.73915,0.26459 -1.12555,0.34146 C 217.78412,282.96158 217.39395,283 217,283 H 109 c -0.39397,0 -0.78416,-0.0384 -1.17055,-0.1153 -0.3864,-0.0769 -0.76159,-0.19067 -1.12556,-0.34146 -0.36398,-0.15075 -0.70975,-0.33557 -1.03732,-0.55447 -0.32757,-0.21887 -0.63064,-0.46759 -0.90921,-0.74616 -0.27858,-0.27859 -0.52731,-0.58166 -0.74619,-0.90921 -0.21888,-0.32757 -0.4037,-0.67337 -0.55446,-1.03735 -0.15076,-0.36398 -0.26457,-0.73917 -0.34143,-1.12555 C 103.03842,277.78412 102.99999,277.39395 103,277 v -28 c -1e-5,-0.39397 0.0384,-0.78416 0.11528,-1.17056 0.0769,-0.3864 0.19067,-0.76158 0.34143,-1.12555 0.15076,-0.36397 0.33558,-0.70975 0.55446,-1.03733 0.21888,-0.32756 0.46761,-0.63063 0.74619,-0.90921 0.27857,-0.27857 0.58164,-0.52729 0.90921,-0.74618 0.32757,-0.21889 0.67334,-0.4037 1.03732,-0.55447 0.36397,-0.15076 0.73916,-0.26456 1.12556,-0.34142 C 108.21584,243.03842 108.60603,243 109,243 Z" /><path
             id="path252"
             style="fill:none;stroke:#000000;stroke-width:1;stroke-linecap:butt;stroke-linejoin:miter;stroke-miterlimit:10;stroke-dasharray:none;stroke-opacity:1"
             d="m 109,243 h 108 c 0.39395,0 0.78412,0.0384 1.17052,0.11526 0.3864,0.0769 0.76158,0.19068 1.12555,0.34144 0.36396,0.15077 0.70974,0.33558 1.03732,0.55447 0.32757,0.21889 0.63066,0.46761 0.90924,0.74618 0.27856,0.27858 0.52728,0.58165 0.74617,0.90921 0.21889,0.32758 0.4037,0.67336 0.55446,1.03733 0.15077,0.36397 0.26457,0.73915 0.34143,1.12555 0.0769,0.3864 0.11529,0.77659 0.11531,1.17056 v 28 c -2e-5,0.39395 -0.0385,0.78412 -0.11531,1.1705 -0.0769,0.38638 -0.19066,0.76157 -0.34143,1.12555 -0.15076,0.36398 -0.33557,0.70978 -0.55446,1.03735 -0.21889,0.32755 -0.46761,0.63062 -0.74617,0.90921 -0.27858,0.27857 -0.58167,0.52729 -0.90923,0.74619 -0.32759,0.21887 -0.67337,0.40369 -1.03733,0.55444 -0.36397,0.15079 -0.73915,0.26459 -1.12555,0.34146 C 217.78412,282.96158 217.39395,283 217,283 H 109 c -0.39397,0 -0.78416,-0.0384 -1.17055,-0.1153 -0.3864,-0.0769 -0.76159,-0.19067 -1.12556,-0.34146 -0.36398,-0.15075 -0.70975,-0.33557 -1.03732,-0.55447 -0.32757,-0.21887 -0.63064,-0.46759 -0.90921,-0.74616 -0.27858,-0.27859 -0.52731,-0.58166 -0.74619,-0.90921 -0.21888,-0.32757 -0.4037,-0.67337 -0.55446,-1.03735 -0.15076,-0.36398 -0.26457,-0.73917 -0.34143,-1.12555 C 103.03842,277.78412 102.99999,277.39395 103,277 v -28 c -1e-5,-0.39397 0.0384,-0.78416 0.11528,-1.17056 0.0769,-0.3864 0.19067,-0.76158 0.34143,-1.12555 0.15076,-0.36397 0.33558,-0.70975 0.55446,-1.03733 0.21888,-0.32756 0.46761,-0.63063 0.74619,-0.90921 0.27857,-0.27857 0.58164,-0.52729 0.90921,-0.74618 0.32757,-0.21889 0.67334,-0.4037 1.03732,-0.55447 0.36397,-0.15076 0.73916,-0.26456 1.12556,-0.34142 C 108.21584,243.03842 108.60603,243 109,243 Z" /></g><g
           transform="scale(2.9987943)"
           id="g254"><text
             id="text258"
             style="font-variant:normal;font-weight:normal;font-size:12px;font-family:Helvetica;-inkscape-font-specification:Helvetica;writing-mode:lr-tb;fill:#000000;fill-opacity:1;fill-rule:nonzero;stroke:none"
             transform="translate(128.65625,261)"><tspan
               id="tspan256"
               y="0"
               x="0 9.9960938 16.669922 19.335938 22.669922 25.335938 29.332031 35.332031 39.328125 41.994141 45.328125 52.001953 55.998047 58.664062 65.337891">Multi-criteria </tspan></text>
<text
             id="text262"
             style="font-variant:normal;font-weight:normal;font-size:12px;font-family:Helvetica;-inkscape-font-specification:Helvetica;writing-mode:lr-tb;fill:#000000;fill-opacity:1;fill-rule:nonzero;stroke:none"
             transform="translate(139.3125,275)"><tspan
               id="tspan260"
               y="0"
               x="0 6 12.673828 15.339844 22.013672 28.013672 31.347656 34.013672 40.6875">selection</tspan></text>
</g><g
           transform="matrix(2.9987943,0,0,2.9987943,1.4993972,1.4993972)"
           id="g264"><path
             id="path266"
             style="fill:#ffffff;fill-opacity:1;fill-rule:nonzero;stroke:none"
             d="m 409,1 h 108 c 0.39392,0 0.78406,0.038429 1.17047,0.1152884 0.38641,0.076859 0.7616,0.1906701 1.12555,0.3414342 0.36395,0.1507641 0.70978,0.3355839 1.03735,0.5544595 0.32758,0.2188756 0.63062,0.4676013 0.90924,0.7461769 0.27857,0.2785757 0.52729,0.5816486 0.74616,0.9092188 0.21881,0.3275702 0.40363,0.6733437 0.55444,1.0373206 0.15076,0.363977 0.26459,0.7391634 0.34149,1.1255589 C 522.96155,6.2158532 523,6.6060343 523,7 v 28 c 0,0.393963 -0.0385,0.784145 -0.1153,1.17054 -0.0769,0.386394 -0.19073,0.761577 -0.34149,1.125557 -0.15081,0.363975 -0.33563,0.709747 -0.55444,1.037319 -0.21887,0.327568 -0.46759,0.630642 -0.74616,0.909222 -0.27862,0.278572 -0.58166,0.527298 -0.90924,0.746173 -0.32757,0.218876 -0.6734,0.403698 -1.03735,0.554463 -0.36395,0.150761 -0.73914,0.264572 -1.12555,0.341431 C 517.78406,40.961567 517.39392,40.999996 517,41 H 409 c -0.39398,-4e-6 -0.78418,-0.03843 -1.17059,-0.115295 -0.38639,-0.07686 -0.76157,-0.19067 -1.12555,-0.341431 -0.36399,-0.150765 -0.70975,-0.335587 -1.03733,-0.554463 -0.32754,-0.218875 -0.63061,-0.467601 -0.90921,-0.746173 -0.27859,-0.27858 -0.52734,-0.581654 -0.74621,-0.909222 -0.2189,-0.327572 -0.40372,-0.673344 -0.55448,-1.037319 -0.15078,-0.36398 -0.26458,-0.739163 -0.34143,-1.125557 C 403.03836,35.784145 402.99997,35.393963 403,35 V 7 c -3e-5,-0.3939657 0.0384,-0.7841468 0.1152,-1.1705427 0.0768,-0.3863955 0.19065,-0.7615819 0.34143,-1.1255589 0.15076,-0.3639769 0.33558,-0.7097501 0.55448,-1.0373203 0.21887,-0.3275705 0.46762,-0.6306434 0.74621,-0.9092191 0.2786,-0.2785756 0.58167,-0.5273013 0.90921,-0.7461769 0.32758,-0.2188756 0.67334,-0.4036954 1.03733,-0.5544595 0.36398,-0.1507641 0.73916,-0.2645755 1.12555,-0.3414343 C 408.21582,1.0384294 408.60602,1 409,1 Z" /><path
             id="path268"
             style="fill:none;stroke:#000000;stroke-width:1;stroke-linecap:butt;stroke-linejoin:miter;stroke-miterlimit:10;stroke-dasharray:none;stroke-opacity:1"
             d="m 409,1 h 108 c 0.39392,0 0.78406,0.038429 1.17047,0.1152884 0.38641,0.076859 0.7616,0.1906701 1.12555,0.3414342 0.36395,0.1507641 0.70978,0.3355839 1.03735,0.5544595 0.32758,0.2188756 0.63062,0.4676013 0.90924,0.7461769 0.27857,0.2785757 0.52729,0.5816486 0.74616,0.9092188 0.21881,0.3275702 0.40363,0.6733437 0.55444,1.0373206 0.15076,0.363977 0.26459,0.7391634 0.34149,1.1255589 C 522.96155,6.2158532 523,6.6060343 523,7 v 28 c 0,0.393963 -0.0385,0.784145 -0.1153,1.17054 -0.0769,0.386394 -0.19073,0.761577 -0.34149,1.125557 -0.15081,0.363975 -0.33563,0.709747 -0.55444,1.037319 -0.21887,0.327568 -0.46759,0.630642 -0.74616,0.909222 -0.27862,0.278572 -0.58166,0.527298 -0.90924,0.746173 -0.32757,0.218876 -0.6734,0.403698 -1.03735,0.554463 -0.36395,0.150761 -0.73914,0.264572 -1.12555,0.341431 C 517.78406,40.961567 517.39392,40.999996 517,41 H 409 c -0.39398,-4e-6 -0.78418,-0.03843 -1.17059,-0.115295 -0.38639,-0.07686 -0.76157,-0.19067 -1.12555,-0.341431 -0.36399,-0.150765 -0.70975,-0.335587 -1.03733,-0.554463 -0.32754,-0.218875 -0.63061,-0.467601 -0.90921,-0.746173 -0.27859,-0.27858 -0.52734,-0.581654 -0.74621,-0.909222 -0.2189,-0.327572 -0.40372,-0.673344 -0.55448,-1.037319 -0.15078,-0.36398 -0.26458,-0.739163 -0.34143,-1.125557 C 403.03836,35.784145 402.99997,35.393963 403,35 V 7 c -3e-5,-0.3939657 0.0384,-0.7841468 0.1152,-1.1705427 0.0768,-0.3863955 0.19065,-0.7615819 0.34143,-1.1255589 0.15076,-0.3639769 0.33558,-0.7097501 0.55448,-1.0373203 0.21887,-0.3275705 0.46762,-0.6306434 0.74621,-0.9092191 0.2786,-0.2785756 0.58167,-0.5273013 0.90921,-0.7461769 0.32758,-0.2188756 0.67334,-0.4036954 1.03733,-0.5544595 0.36398,-0.1507641 0.73916,-0.2645755 1.12555,-0.3414343 C 408.21582,1.0384294 408.60602,1 409,1 Z" /></g><g
           transform="scale(2.9987943)"
           id="g270"><text
             id="text274"
             style="font-variant:normal;font-weight:normal;font-size:12px;font-family:Helvetica;-inkscape-font-specification:Helvetica;writing-mode:lr-tb;fill:#000000;fill-opacity:1;fill-rule:nonzero;stroke:none"
             transform="translate(419.64063,26)"><tspan
               id="tspan272"
               y="0"
               x="0 8.6660156 15.339844 22.013672 28.6875 32.021484 38.695312 42.029297 48.029297 54.703125 64.699219 71.373047 74.039062 80.712891">Update samples</tspan></text>
</g><g
           transform="matrix(2.9987943,0,0,2.9987943,1.4993972,1.4993972)"
           id="g276"><path
             id="path278"
             style="fill:none;stroke:#000000;stroke-width:1;stroke-linecap:butt;stroke-linejoin:miter;stroke-miterlimit:10;stroke-dasharray:none;stroke-opacity:1"
             d="m 163,283 v 40 H 543 V 21 h -17.76001" /><path
             id="path280"
             style="fill:none;stroke:#000000;stroke-width:1;stroke-linecap:butt;stroke-linejoin:miter;stroke-miterlimit:10;stroke-dasharray:none;stroke-opacity:1"
             d="m 531.12,17.5 -7,3.5 7,3.5" /></g></g></g></g></svg>