<?xml version="1.0" encoding="UTF-8" standalone="no"?>
<svg
   xmlns:dc="http://purl.org/dc/elements/1.1/"
   xmlns:cc="http://creativecommons.org/ns#"
   xmlns:rdf="http://www.w3.org/1999/02/22-rdf-syntax-ns#"
   xmlns:svg="http://www.w3.org/2000/svg"
   xmlns="http://www.w3.org/2000/svg"
   viewBox="0 0 501.44 184"
   height="184"
   width="501.44"
   xml:space="preserve"
   id="svg10051"
   version="1.1"><metadata
     id="metadata10057"><rdf:RDF><cc:Work
         rdf:about=""><dc:format>image/svg+xml</dc:format><dc:type
           rdf:resource="http://purl.org/dc/dcmitype/StillImage" /><dc:title></dc:title></cc:Work></rdf:RDF></metadata><defs
     id="defs10055"><clipPath
       id="clipPath10067"
       clipPathUnits="userSpaceOnUse"><path
         style="clip-rule:evenodd"
         id="path10065"
         d="M 0,0 H 1566.6665 V 572.14783 H 0 Z" /></clipPath><clipPath
       id="clipPath10079"
       clipPathUnits="userSpaceOnUse"><path
         style="clip-rule:evenodd"
         id="path10077"
         d="M 2.9955382,2.9955382 H 1560.6753 V 569.15228 H 2.9955382 Z" /></clipPath><clipPath
       id="clipPath10151"
       clipPathUnits="userSpaceOnUse"><path
         style="clip-rule:evenodd"
         id="path10149"
         d="M 117.61307,2.9955382 H 1560.6753 V 450.89791 H 117.61307 Z" /></clipPath><clipPath
       id="clipPath10563"
       clipPathUnits="userSpaceOnUse"><path
         style="clip-rule:evenodd"
         id="path10561"
         d="M 2.9955382,2.9955382 H 1560.6753 V 569.15228 H 2.9955382 Z" /></clipPath><clipPath
       id="clipPath10631"
       clipPathUnits="userSpaceOnUse"><path
         style="clip-rule:evenodd"
         id="path10629"
         d="M 786.14142,198.41335 H 1560.6753 V 399.39899 H 786.14142 Z" /></clipPath><clipPath
       id="clipPath10689"
       clipPathUnits="userSpaceOnUse"><path
         style="clip-rule:evenodd"
         id="path10687"
         d="M 2.9955382,2.9955382 H 1560.6753 V 569.15228 H 2.9955382 Z" /></clipPath></defs><g
     transform="matrix(0.31999998,0,0,0.31999998,0,4.6e-6)"
     id="g10059"><g
       id="g10061"><g
         clip-path="url(#clipPath10067)"
         id="g10063"><g
           transform="scale(2.9955382)"
           id="g10069"><path
             id="path10071"
             style="fill:#ffffff;fill-opacity:1;fill-rule:nonzero;stroke:none"
             d="M 0,0 H 523 V 191 H 0 Z" /></g></g></g><g
       id="g10073"><g
         clip-path="url(#clipPath10079)"
         id="g10075"><g
           transform="matrix(1.4160726,0,0,1.4153918,2.9955382,2.9955382)"
           id="g10081"><path
             id="path10083"
             style="fill:#ffffff;fill-opacity:1;fill-rule:nonzero;stroke:none"
             d="M 0.94043887,-29.110012 H 1121.4733 V 415.40409 H 0.94043887 Z" /></g><g
           transform="matrix(1.4160726,0,0,1.4153918,443.97531,-95.443314)"
           id="g10085"><path
             id="path10087"
             style="fill:#000000;fill-opacity:1;fill-rule:nonzero;stroke:none"
             d="M 0,60 V 386" /><path
             id="path10089"
             style="fill:none;stroke:#ebf0f8;stroke-width:1;stroke-linecap:butt;stroke-linejoin:miter;stroke-miterlimit:10;stroke-dasharray:none;stroke-opacity:1"
             d="M 0,60 V 386" /></g><g
           transform="matrix(1.4160726,0,0,1.4153918,703.17328,-95.443314)"
           id="g10091"><path
             id="path10093"
             style="fill:#000000;fill-opacity:1;fill-rule:nonzero;stroke:none"
             d="M 0,60 V 386" /><path
             id="path10095"
             style="fill:none;stroke:#ebf0f8;stroke-width:1;stroke-linecap:butt;stroke-linejoin:miter;stroke-miterlimit:10;stroke-dasharray:none;stroke-opacity:1"
             d="M 0,60 V 386" /></g><g
           transform="matrix(1.4160726,0,0,1.4153918,962.35699,-95.443314)"
           id="g10097"><path
             id="path10099"
             style="fill:#000000;fill-opacity:1;fill-rule:nonzero;stroke:none"
             d="M 0,60 V 386" /><path
             id="path10101"
             style="fill:none;stroke:#ebf0f8;stroke-width:1;stroke-linecap:butt;stroke-linejoin:miter;stroke-miterlimit:10;stroke-dasharray:none;stroke-opacity:1"
             d="M 0,60 V 386" /></g><g
           transform="matrix(1.4160726,0,0,1.4153918,1221.5549,-95.443314)"
           id="g10103"><path
             id="path10105"
             style="fill:#000000;fill-opacity:1;fill-rule:nonzero;stroke:none"
             d="M 0,60 V 386" /><path
             id="path10107"
             style="fill:none;stroke:#ebf0f8;stroke-width:1;stroke-linecap:butt;stroke-linejoin:miter;stroke-miterlimit:10;stroke-dasharray:none;stroke-opacity:1"
             d="M 0,60 V 386" /></g><g
           transform="matrix(1.4160726,0,0,1.4153918,1480.7528,-95.443314)"
           id="g10109"><path
             id="path10111"
             style="fill:#000000;fill-opacity:1;fill-rule:nonzero;stroke:none"
             d="M 0,60 V 386" /><path
             id="path10113"
             style="fill:none;stroke:#ebf0f8;stroke-width:1;stroke-linecap:butt;stroke-linejoin:miter;stroke-miterlimit:10;stroke-dasharray:none;stroke-opacity:1"
             d="M 0,60 V 386" /></g><g
           transform="matrix(1.4160726,0,0,1.4153918,4.3272681,303.58398)"
           id="g10115"><path
             id="path10117"
             style="fill:#000000;fill-opacity:1;fill-rule:nonzero;stroke:none"
             d="M 80,0 H 1099.2" /><path
             id="path10119"
             style="fill:none;stroke:#ebf0f8;stroke-width:1;stroke-linecap:butt;stroke-linejoin:miter;stroke-miterlimit:10;stroke-dasharray:none;stroke-opacity:1"
             d="M 80,0 H 1099.2" /></g><g
           transform="matrix(1.4160726,0,0,1.4153918,4.3272681,184.80428)"
           id="g10121"><path
             id="path10123"
             style="fill:#000000;fill-opacity:1;fill-rule:nonzero;stroke:none"
             d="M 80,0 H 1099.2" /><path
             id="path10125"
             style="fill:none;stroke:#ebf0f8;stroke-width:1;stroke-linecap:butt;stroke-linejoin:miter;stroke-miterlimit:10;stroke-dasharray:none;stroke-opacity:1"
             d="M 80,0 H 1099.2" /></g><g
           transform="matrix(1.4160726,0,0,1.4153918,4.3272681,66.038734)"
           id="g10127"><path
             id="path10129"
             style="fill:#000000;fill-opacity:1;fill-rule:nonzero;stroke:none"
             d="M 80,0 H 1099.2" /><path
             id="path10131"
             style="fill:none;stroke:#ebf0f8;stroke-width:1;stroke-linecap:butt;stroke-linejoin:miter;stroke-miterlimit:10;stroke-dasharray:none;stroke-opacity:1"
             d="M 80,0 H 1099.2" /></g><g
           transform="matrix(1.4160726,0,0,1.4153918,184.7774,-95.443314)"
           id="g10133"><path
             id="path10135"
             style="fill:#000000;fill-opacity:1;fill-rule:nonzero;stroke:none"
             d="M 0,60 V 386" /><path
             id="path10137"
             style="fill:none;stroke:#ebf0f8;stroke-width:1;stroke-linecap:butt;stroke-linejoin:miter;stroke-miterlimit:10;stroke-dasharray:none;stroke-opacity:1"
             d="M 0,60 V 386" /></g><g
           transform="matrix(1.4160726,0,0,1.4153918,4.3272681,422.34946)"
           id="g10139"><path
             id="path10141"
             style="fill:#000000;fill-opacity:1;fill-rule:nonzero;stroke:none"
             d="M 80,0 H 1099.2" /><path
             id="path10143"
             style="fill:none;stroke:#ebf0f8;stroke-width:1;stroke-linecap:butt;stroke-linejoin:miter;stroke-miterlimit:10;stroke-dasharray:none;stroke-opacity:1"
             d="M 80,0 H 1099.2" /></g></g></g><g
       id="g10145"><g
         clip-path="url(#clipPath10151)"
         id="g10147"><g
           transform="matrix(1.4160726,0,0,1.4153918,197.74863,419.87253)"
           id="g10153"><path
             id="path10155"
             style="fill:#3366cc;fill-opacity:1;fill-rule:nonzero;stroke:none"
             d="M 4.5,0 C 4.4999995,0.59673703 4.385819,1.1707621 4.1574574,1.7220752 3.929096,2.2733884 3.6039369,2.7600234 3.1819801,3.1819801 2.7600234,3.6039369 2.2733884,3.929096 1.7220752,4.1574574 1.1707621,4.385819 0.59673703,4.4999995 0,4.5 -0.59673703,4.4999995 -1.1707621,4.385819 -1.7220752,4.1574574 -2.2733884,3.929096 -2.7600234,3.6039369 -3.1819801,3.1819801 -3.6039369,2.7600234 -3.929096,2.2733884 -4.1574574,1.7220752 -4.385819,1.1707621 -4.4999995,0.59673703 -4.5,0 c 5e-7,-0.59673703 0.114181,-1.1707621 0.3425426,-1.7220752 0.2283614,-0.5513132 0.5535205,-1.0379482 0.9754773,-1.4599049 0.4219567,-0.4219568 0.9085917,-0.7471159 1.4599049,-0.9754773 C -1.1707621,-4.385819 -0.59673703,-4.4999995 0,-4.5 c 0.59673703,5e-7 1.1707621,0.114181 1.7220752,0.3425426 0.5513132,0.2283614 1.0379482,0.5535205 1.4599049,0.9754773 0.4219568,0.4219567 0.7471159,0.9085917 0.9754773,1.4599049 C 4.385819,-1.1707621 4.4999995,-0.59673703 4.5,0 Z" /></g><g
           transform="matrix(1.4160726,0,0,1.4153918,210.70569,417.40976)"
           id="g10157"><path
             id="path10159"
             style="fill:#3366cc;fill-opacity:1;fill-rule:nonzero;stroke:none"
             d="M 4.5,0 C 4.4999995,0.59673703 4.385819,1.1707621 4.1574574,1.7220752 3.929096,2.2733884 3.6039369,2.7600234 3.1819801,3.1819801 2.7600234,3.6039369 2.2733884,3.929096 1.7220752,4.1574574 1.1707621,4.385819 0.59673703,4.4999995 0,4.5 -0.59673703,4.4999995 -1.1707621,4.385819 -1.7220752,4.1574574 -2.2733884,3.929096 -2.7600234,3.6039369 -3.1819801,3.1819801 -3.6039369,2.7600234 -3.929096,2.2733884 -4.1574574,1.7220752 -4.385819,1.1707621 -4.4999995,0.59673703 -4.5,0 c 5e-7,-0.59673703 0.114181,-1.1707621 0.3425426,-1.7220752 0.2283614,-0.5513132 0.5535205,-1.0379482 0.9754773,-1.4599049 0.4219567,-0.4219568 0.9085917,-0.7471159 1.4599049,-0.9754773 C -1.1707621,-4.385819 -0.59673703,-4.4999995 0,-4.5 c 0.59673703,5e-7 1.1707621,0.114181 1.7220752,0.3425426 0.5513132,0.2283614 1.0379482,0.5535205 1.4599049,0.9754773 0.4219568,0.4219567 0.7471159,0.9085917 0.9754773,1.4599049 C 4.385819,-1.1707621 4.4999995,-0.59673703 4.5,0 Z" /></g><g
           transform="matrix(1.4160726,0,0,1.4153918,223.66275,417.01343)"
           id="g10161"><path
             id="path10163"
             style="fill:#3366cc;fill-opacity:1;fill-rule:nonzero;stroke:none"
             d="M 4.5,0 C 4.4999995,0.59673703 4.385819,1.1707621 4.1574574,1.7220752 3.929096,2.2733884 3.6039369,2.7600234 3.1819801,3.1819801 2.7600234,3.6039369 2.2733884,3.929096 1.7220752,4.1574574 1.1707621,4.385819 0.59673703,4.4999995 0,4.5 -0.59673703,4.4999995 -1.1707621,4.385819 -1.7220752,4.1574574 -2.2733884,3.929096 -2.7600234,3.6039369 -3.1819801,3.1819801 -3.6039369,2.7600234 -3.929096,2.2733884 -4.1574574,1.7220752 -4.385819,1.1707621 -4.4999995,0.59673703 -4.5,0 c 5e-7,-0.59673703 0.114181,-1.1707621 0.3425426,-1.7220752 0.2283614,-0.5513132 0.5535205,-1.0379482 0.9754773,-1.4599049 0.4219567,-0.4219568 0.9085917,-0.7471159 1.4599049,-0.9754773 C -1.1707621,-4.385819 -0.59673703,-4.4999995 0,-4.5 c 0.59673703,5e-7 1.1707621,0.114181 1.7220752,0.3425426 0.5513132,0.2283614 1.0379482,0.5535205 1.4599049,0.9754773 0.4219568,0.4219567 0.7471159,0.9085917 0.9754773,1.4599049 C 4.385819,-1.1707621 4.4999995,-0.59673703 4.5,0 Z" /></g><g
           transform="matrix(1.4160726,0,0,1.4153918,236.61981,414.72052)"
           id="g10165"><path
             id="path10167"
             style="fill:#3366cc;fill-opacity:1;fill-rule:nonzero;stroke:none"
             d="M 4.5,0 C 4.4999995,0.59673703 4.385819,1.1707621 4.1574574,1.7220752 3.929096,2.2733884 3.6039369,2.7600234 3.1819801,3.1819801 2.7600234,3.6039369 2.2733884,3.929096 1.7220752,4.1574574 1.1707621,4.385819 0.59673703,4.4999995 0,4.5 -0.59673703,4.4999995 -1.1707621,4.385819 -1.7220752,4.1574574 -2.2733884,3.929096 -2.7600234,3.6039369 -3.1819801,3.1819801 -3.6039369,2.7600234 -3.929096,2.2733884 -4.1574574,1.7220752 -4.385819,1.1707621 -4.4999995,0.59673703 -4.5,0 c 5e-7,-0.59673703 0.114181,-1.1707621 0.3425426,-1.7220752 0.2283614,-0.5513132 0.5535205,-1.0379482 0.9754773,-1.4599049 0.4219567,-0.4219568 0.9085917,-0.7471159 1.4599049,-0.9754773 C -1.1707621,-4.385819 -0.59673703,-4.4999995 0,-4.5 c 0.59673703,5e-7 1.1707621,0.114181 1.7220752,0.3425426 0.5513132,0.2283614 1.0379482,0.5535205 1.4599049,0.9754773 0.4219568,0.4219567 0.7471159,0.9085917 0.9754773,1.4599049 C 4.385819,-1.1707621 4.4999995,-0.59673703 4.5,0 Z" /></g><g
           transform="matrix(1.4160726,0,0,1.4153918,249.57687,414.72052)"
           id="g10169"><path
             id="path10171"
             style="fill:#3366cc;fill-opacity:1;fill-rule:nonzero;stroke:none"
             d="M 4.5,0 C 4.4999995,0.59673703 4.385819,1.1707621 4.1574574,1.7220752 3.929096,2.2733884 3.6039369,2.7600234 3.1819801,3.1819801 2.7600234,3.6039369 2.2733884,3.929096 1.7220752,4.1574574 1.1707621,4.385819 0.59673703,4.4999995 0,4.5 -0.59673703,4.4999995 -1.1707621,4.385819 -1.7220752,4.1574574 -2.2733884,3.929096 -2.7600234,3.6039369 -3.1819801,3.1819801 -3.6039369,2.7600234 -3.929096,2.2733884 -4.1574574,1.7220752 -4.385819,1.1707621 -4.4999995,0.59673703 -4.5,0 c 5e-7,-0.59673703 0.114181,-1.1707621 0.3425426,-1.7220752 0.2283614,-0.5513132 0.5535205,-1.0379482 0.9754773,-1.4599049 0.4219567,-0.4219568 0.9085917,-0.7471159 1.4599049,-0.9754773 C -1.1707621,-4.385819 -0.59673703,-4.4999995 0,-4.5 c 0.59673703,5e-7 1.1707621,0.114181 1.7220752,0.3425426 0.5513132,0.2283614 1.0379482,0.5535205 1.4599049,0.9754773 0.4219568,0.4219567 0.7471159,0.9085917 0.9754773,1.4599049 C 4.385819,-1.1707621 4.4999995,-0.59673703 4.5,0 Z" /></g><g
           transform="matrix(1.4160726,0,0,1.4153918,262.53394,414.28174)"
           id="g10173"><path
             id="path10175"
             style="fill:#3366cc;fill-opacity:1;fill-rule:nonzero;stroke:none"
             d="M 4.5,0 C 4.4999995,0.59673703 4.385819,1.1707621 4.1574574,1.7220752 3.929096,2.2733884 3.6039369,2.7600234 3.1819801,3.1819801 2.7600234,3.6039369 2.2733884,3.929096 1.7220752,4.1574574 1.1707621,4.385819 0.59673703,4.4999995 0,4.5 -0.59673703,4.4999995 -1.1707621,4.385819 -1.7220752,4.1574574 -2.2733884,3.929096 -2.7600234,3.6039369 -3.1819801,3.1819801 -3.6039369,2.7600234 -3.929096,2.2733884 -4.1574574,1.7220752 -4.385819,1.1707621 -4.4999995,0.59673703 -4.5,0 c 5e-7,-0.59673703 0.114181,-1.1707621 0.3425426,-1.7220752 0.2283614,-0.5513132 0.5535205,-1.0379482 0.9754773,-1.4599049 0.4219567,-0.4219568 0.9085917,-0.7471159 1.4599049,-0.9754773 C -1.1707621,-4.385819 -0.59673703,-4.4999995 0,-4.5 c 0.59673703,5e-7 1.1707621,0.114181 1.7220752,0.3425426 0.5513132,0.2283614 1.0379482,0.5535205 1.4599049,0.9754773 0.4219568,0.4219567 0.7471159,0.9085917 0.9754773,1.4599049 C 4.385819,-1.1707621 4.4999995,-0.59673703 4.5,0 Z" /></g><g
           transform="matrix(1.4160726,0,0,1.4153918,301.41931,303.32919)"
           id="g10177"><path
             id="path10179"
             style="fill:#3366cc;fill-opacity:1;fill-rule:nonzero;stroke:none"
             d="M 4.5,0 C 4.4999995,0.59673703 4.385819,1.1707621 4.1574574,1.7220752 3.929096,2.2733884 3.6039369,2.7600234 3.1819801,3.1819801 2.7600234,3.6039369 2.2733884,3.929096 1.7220752,4.1574574 1.1707621,4.385819 0.59673703,4.4999995 0,4.5 -0.59673703,4.4999995 -1.1707621,4.385819 -1.7220752,4.1574574 -2.2733884,3.929096 -2.7600234,3.6039369 -3.1819801,3.1819801 -3.6039369,2.7600234 -3.929096,2.2733884 -4.1574574,1.7220752 -4.385819,1.1707621 -4.4999995,0.59673703 -4.5,0 c 5e-7,-0.59673703 0.114181,-1.1707621 0.3425426,-1.7220752 0.2283614,-0.5513132 0.5535205,-1.0379482 0.9754773,-1.4599049 0.4219567,-0.4219568 0.9085917,-0.7471159 1.4599049,-0.9754773 C -1.1707621,-4.385819 -0.59673703,-4.4999995 0,-4.5 c 0.59673703,5e-7 1.1707621,0.114181 1.7220752,0.3425426 0.5513132,0.2283614 1.0379482,0.5535205 1.4599049,0.9754773 0.4219568,0.4219567 0.7471159,0.9085917 0.9754773,1.4599049 C 4.385819,-1.1707621 4.4999995,-0.59673703 4.5,0 Z" /></g><g
           transform="matrix(1.4160726,0,0,1.4153918,275.50516,335.00565)"
           id="g10181"><path
             id="path10183"
             style="fill:#dc3912;fill-opacity:1;fill-rule:nonzero;stroke:none"
             d="M 5.8499999,0 0,5.8499999 -5.8499999,0 0,-5.8499999 Z" /></g><g
           transform="matrix(1.4160726,0,0,1.4153918,780.92987,56.371605)"
           id="g10185"><path
             id="path10187"
             style="fill:#dc3912;fill-opacity:1;fill-rule:nonzero;stroke:none"
             d="M 5.8499999,0 0,5.8499999 -5.8499999,0 0,-5.8499999 Z" /></g><g
           transform="matrix(1.4160726,0,0,1.4153918,806.84393,53.880524)"
           id="g10189"><path
             id="path10191"
             style="fill:#dc3912;fill-opacity:1;fill-rule:nonzero;stroke:none"
             d="M 5.8499999,0 0,5.8499999 -5.8499999,0 0,-5.8499999 Z" /></g><g
           transform="matrix(1.4160726,0,0,1.4153918,819.80103,48.71434)"
           id="g10193"><path
             id="path10195"
             style="fill:#dc3912;fill-opacity:1;fill-rule:nonzero;stroke:none"
             d="M 5.8499999,0 0,5.8499999 -5.8499999,0 0,-5.8499999 Z" /></g><g
           transform="matrix(1.4160726,0,0,1.4153918,832.75806,48.671879)"
           id="g10197"><path
             id="path10199"
             style="fill:#dc3912;fill-opacity:1;fill-rule:nonzero;stroke:none"
             d="M 5.8499999,0 0,5.8499999 -5.8499999,0 0,-5.8499999 Z" /></g><g
           transform="matrix(1.4160726,0,0,1.4153918,871.64343,47.907566)"
           id="g10201"><path
             id="path10203"
             style="fill:#dc3912;fill-opacity:1;fill-rule:nonzero;stroke:none"
             d="M 5.8499999,0 0,5.8499999 -5.8499999,0 0,-5.8499999 Z" /></g><g
           transform="matrix(1.4160726,0,0,1.4153918,884.60052,45.727867)"
           id="g10205"><path
             id="path10207"
             style="fill:#dc3912;fill-opacity:1;fill-rule:nonzero;stroke:none"
             d="M 5.8499999,0 0,5.8499999 -5.8499999,0 0,-5.8499999 Z" /></g><g
           transform="matrix(1.4160726,0,0,1.4153918,897.55762,45.614632)"
           id="g10209"><path
             id="path10211"
             style="fill:#dc3912;fill-opacity:1;fill-rule:nonzero;stroke:none"
             d="M 5.8499999,0 0,5.8499999 -5.8499999,0 0,-5.8499999 Z" /></g><g
           transform="matrix(1.4160726,0,0,1.4153918,910.51465,45.572174)"
           id="g10213"><path
             id="path10215"
             style="fill:#dc3912;fill-opacity:1;fill-rule:nonzero;stroke:none"
             d="M 5.8499999,0 0,5.8499999 -5.8499999,0 0,-5.8499999 Z" /></g><g
           transform="matrix(1.4160726,0,0,1.4153918,923.4859,44.114315)"
           id="g10217"><path
             id="path10219"
             style="fill:#dc3912;fill-opacity:1;fill-rule:nonzero;stroke:none"
             d="M 5.8499999,0 0,5.8499999 -5.8499999,0 0,-5.8499999 Z" /></g><g
           transform="matrix(1.4160726,0,0,1.4153918,936.44293,40.915531)"
           id="g10221"><path
             id="path10223"
             style="fill:#dc3912;fill-opacity:1;fill-rule:nonzero;stroke:none"
             d="M 5.8499999,0 0,5.8499999 -5.8499999,0 0,-5.8499999 Z" /></g><g
           transform="matrix(1.4160726,0,0,1.4153918,949.40002,40.788147)"
           id="g10225"><path
             id="path10227"
             style="fill:#dc3912;fill-opacity:1;fill-rule:nonzero;stroke:none"
             d="M 5.8499999,0 0,5.8499999 -5.8499999,0 0,-5.8499999 Z" /></g><g
           transform="matrix(1.4160726,0,0,1.4153918,962.35699,40.589993)"
           id="g10229"><path
             id="path10231"
             style="fill:#dc3912;fill-opacity:1;fill-rule:nonzero;stroke:none"
             d="M 5.8499999,0 0,5.8499999 -5.8499999,0 0,-5.8499999 Z" /></g><g
           transform="matrix(1.4160726,0,0,1.4153918,975.31415,40.292763)"
           id="g10233"><path
             id="path10235"
             style="fill:#dc3912;fill-opacity:1;fill-rule:nonzero;stroke:none"
             d="M 5.8499999,0 0,5.8499999 -5.8499999,0 0,-5.8499999 Z" /></g><g
           transform="matrix(1.4160726,0,0,1.4153918,988.28528,40.207836)"
           id="g10237"><path
             id="path10239"
             style="fill:#dc3912;fill-opacity:1;fill-rule:nonzero;stroke:none"
             d="M 5.8499999,0 0,5.8499999 -5.8499999,0 0,-5.8499999 Z" /></g><g
           transform="matrix(1.4160726,0,0,1.4153918,1001.2424,40.179527)"
           id="g10241"><path
             id="path10243"
             style="fill:#dc3912;fill-opacity:1;fill-rule:nonzero;stroke:none"
             d="M 5.8499999,0 0,5.8499999 -5.8499999,0 0,-5.8499999 Z" /></g><g
           transform="matrix(1.4160726,0,0,1.4153918,1014.1995,40.179527)"
           id="g10245"><path
             id="path10247"
             style="fill:#dc3912;fill-opacity:1;fill-rule:nonzero;stroke:none"
             d="M 5.8499999,0 0,5.8499999 -5.8499999,0 0,-5.8499999 Z" /></g><g
           transform="matrix(1.4160726,0,0,1.4153918,1027.1565,39.386906)"
           id="g10249"><path
             id="path10251"
             style="fill:#dc3912;fill-opacity:1;fill-rule:nonzero;stroke:none"
             d="M 5.8499999,0 0,5.8499999 -5.8499999,0 0,-5.8499999 Z" /></g><g
           transform="matrix(1.4160726,0,0,1.4153918,1040.1135,34.631191)"
           id="g10253"><path
             id="path10255"
             style="fill:#dc3912;fill-opacity:1;fill-rule:nonzero;stroke:none"
             d="M 5.8499999,0 0,5.8499999 -5.8499999,0 0,-5.8499999 Z" /></g><g
           transform="matrix(1.4160726,0,0,1.4153918,1053.0847,33.697033)"
           id="g10257"><path
             id="path10259"
             style="fill:#dc3912;fill-opacity:1;fill-rule:nonzero;stroke:none"
             d="M 5.8499999,0 0,5.8499999 -5.8499999,0 0,-5.8499999 Z" /></g><g
           transform="matrix(1.4160726,0,0,1.4153918,1066.0419,31.276714)"
           id="g10261"><path
             id="path10263"
             style="fill:#dc3912;fill-opacity:1;fill-rule:nonzero;stroke:none"
             d="M 5.8499999,0 0,5.8499999 -5.8499999,0 0,-5.8499999 Z" /></g><g
           transform="matrix(1.4160726,0,0,1.4153918,1078.9989,31.036098)"
           id="g10265"><path
             id="path10267"
             style="fill:#dc3912;fill-opacity:1;fill-rule:nonzero;stroke:none"
             d="M 5.8499999,0 0,5.8499999 -5.8499999,0 0,-5.8499999 Z" /></g><g
           transform="matrix(1.4160726,0,0,1.4153918,1091.9559,30.781326)"
           id="g10269"><path
             id="path10271"
             style="fill:#dc3912;fill-opacity:1;fill-rule:nonzero;stroke:none"
             d="M 5.8499999,0 0,5.8499999 -5.8499999,0 0,-5.8499999 Z" /></g><g
           transform="matrix(1.4160726,0,0,1.4153918,1104.9131,30.130245)"
           id="g10273"><path
             id="path10275"
             style="fill:#dc3912;fill-opacity:1;fill-rule:nonzero;stroke:none"
             d="M 5.8499999,0 0,5.8499999 -5.8499999,0 0,-5.8499999 Z" /></g><g
           transform="matrix(1.4160726,0,0,1.4153918,1117.8701,30.130245)"
           id="g10277"><path
             id="path10279"
             style="fill:#dc3912;fill-opacity:1;fill-rule:nonzero;stroke:none"
             d="M 5.8499999,0 0,5.8499999 -5.8499999,0 0,-5.8499999 Z" /></g><g
           transform="matrix(1.4160726,0,0,1.4153918,1130.8413,30.130245)"
           id="g10281"><path
             id="path10283"
             style="fill:#dc3912;fill-opacity:1;fill-rule:nonzero;stroke:none"
             d="M 5.8499999,0 0,5.8499999 -5.8499999,0 0,-5.8499999 Z" /></g><g
           transform="matrix(1.4160726,0,0,1.4153918,1143.7983,30.130245)"
           id="g10285"><path
             id="path10287"
             style="fill:#dc3912;fill-opacity:1;fill-rule:nonzero;stroke:none"
             d="M 5.8499999,0 0,5.8499999 -5.8499999,0 0,-5.8499999 Z" /></g><g
           transform="matrix(1.4160726,0,0,1.4153918,1156.7555,30.045322)"
           id="g10289"><path
             id="path10291"
             style="fill:#dc3912;fill-opacity:1;fill-rule:nonzero;stroke:none"
             d="M 5.8499999,0 0,5.8499999 -5.8499999,0 0,-5.8499999 Z" /></g><g
           transform="matrix(1.4160726,0,0,1.4153918,1169.7124,30.002861)"
           id="g10293"><path
             id="path10295"
             style="fill:#dc3912;fill-opacity:1;fill-rule:nonzero;stroke:none"
             d="M 5.8499999,0 0,5.8499999 -5.8499999,0 0,-5.8499999 Z" /></g><g
           transform="matrix(1.4160726,0,0,1.4153918,1182.6696,28.431778)"
           id="g10297"><path
             id="path10299"
             style="fill:#dc3912;fill-opacity:1;fill-rule:nonzero;stroke:none"
             d="M 5.8499999,0 0,5.8499999 -5.8499999,0 0,-5.8499999 Z" /></g><g
           transform="matrix(1.4160726,0,0,1.4153918,1195.6409,28.431778)"
           id="g10301"><path
             id="path10303"
             style="fill:#dc3912;fill-opacity:1;fill-rule:nonzero;stroke:none"
             d="M 5.8499999,0 0,5.8499999 -5.8499999,0 0,-5.8499999 Z" /></g><g
           transform="matrix(1.4160726,0,0,1.4153918,1208.5979,24.171448)"
           id="g10305"><path
             id="path10307"
             style="fill:#dc3912;fill-opacity:1;fill-rule:nonzero;stroke:none"
             d="M 5.8499999,0 0,5.8499999 -5.8499999,0 0,-5.8499999 Z" /></g><g
           transform="matrix(1.4160726,0,0,1.4153918,1221.5549,24.001598)"
           id="g10309"><path
             id="path10311"
             style="fill:#dc3912;fill-opacity:1;fill-rule:nonzero;stroke:none"
             d="M 5.8499999,0 0,5.8499999 -5.8499999,0 0,-5.8499999 Z" /></g><g
           transform="matrix(1.4160726,0,0,1.4153918,1234.512,24.001598)"
           id="g10313"><path
             id="path10315"
             style="fill:#dc3912;fill-opacity:1;fill-rule:nonzero;stroke:none"
             d="M 5.8499999,0 0,5.8499999 -5.8499999,0 0,-5.8499999 Z" /></g><g
           transform="matrix(1.4160726,0,0,1.4153918,1247.4691,23.152367)"
           id="g10317"><path
             id="path10319"
             style="fill:#dc3912;fill-opacity:1;fill-rule:nonzero;stroke:none"
             d="M 5.8499999,0 0,5.8499999 -5.8499999,0 0,-5.8499999 Z" /></g><g
           transform="matrix(1.4160726,0,0,1.4153918,1260.4262,22.826824)"
           id="g10321"><path
             id="path10323"
             style="fill:#dc3912;fill-opacity:1;fill-rule:nonzero;stroke:none"
             d="M 5.8499999,0 0,5.8499999 -5.8499999,0 0,-5.8499999 Z" /></g><g
           transform="matrix(1.4160726,0,0,1.4153918,1273.3973,22.671131)"
           id="g10325"><path
             id="path10327"
             style="fill:#dc3912;fill-opacity:1;fill-rule:nonzero;stroke:none"
             d="M 5.8499999,0 0,5.8499999 -5.8499999,0 0,-5.8499999 Z" /></g><g
           transform="matrix(1.4160726,0,0,1.4153918,1286.3545,22.317284)"
           id="g10329"><path
             id="path10331"
             style="fill:#dc3912;fill-opacity:1;fill-rule:nonzero;stroke:none"
             d="M 5.8499999,0 0,5.8499999 -5.8499999,0 0,-5.8499999 Z" /></g><g
           transform="matrix(1.4160726,0,0,1.4153918,1299.3114,22.317284)"
           id="g10333"><path
             id="path10335"
             style="fill:#dc3912;fill-opacity:1;fill-rule:nonzero;stroke:none"
             d="M 5.8499999,0 0,5.8499999 -5.8499999,0 0,-5.8499999 Z" /></g><g
           transform="matrix(1.4160726,0,0,1.4153918,1312.2686,22.317284)"
           id="g10337"><path
             id="path10339"
             style="fill:#dc3912;fill-opacity:1;fill-rule:nonzero;stroke:none"
             d="M 5.8499999,0 0,5.8499999 -5.8499999,0 0,-5.8499999 Z" /></g><g
           transform="matrix(1.4160726,0,0,1.4153918,1325.2256,22.204052)"
           id="g10341"><path
             id="path10343"
             style="fill:#dc3912;fill-opacity:1;fill-rule:nonzero;stroke:none"
             d="M 5.8499999,0 0,5.8499999 -5.8499999,0 0,-5.8499999 Z" /></g><g
           transform="matrix(1.4160726,0,0,1.4153918,1338.1968,22.204052)"
           id="g10345"><path
             id="path10347"
             style="fill:#dc3912;fill-opacity:1;fill-rule:nonzero;stroke:none"
             d="M 5.8499999,0 0,5.8499999 -5.8499999,0 0,-5.8499999 Z" /></g><g
           transform="matrix(1.4160726,0,0,1.4153918,1351.1538,22.204052)"
           id="g10349"><path
             id="path10351"
             style="fill:#dc3912;fill-opacity:1;fill-rule:nonzero;stroke:none"
             d="M 5.8499999,0 0,5.8499999 -5.8499999,0 0,-5.8499999 Z" /></g><g
           transform="matrix(1.4160726,0,0,1.4153918,1364.111,21.991741)"
           id="g10353"><path
             id="path10355"
             style="fill:#dc3912;fill-opacity:1;fill-rule:nonzero;stroke:none"
             d="M 5.8499999,0 0,5.8499999 -5.8499999,0 0,-5.8499999 Z" /></g><g
           transform="matrix(1.4160726,0,0,1.4153918,1377.068,21.807743)"
           id="g10357"><path
             id="path10359"
             style="fill:#dc3912;fill-opacity:1;fill-rule:nonzero;stroke:none"
             d="M 5.8499999,0 0,5.8499999 -5.8499999,0 0,-5.8499999 Z" /></g><g
           transform="matrix(1.4160726,0,0,1.4153918,1390.025,21.807743)"
           id="g10361"><path
             id="path10363"
             style="fill:#dc3912;fill-opacity:1;fill-rule:nonzero;stroke:none"
             d="M 5.8499999,0 0,5.8499999 -5.8499999,0 0,-5.8499999 Z" /></g><g
           transform="matrix(1.4160726,0,0,1.4153918,1402.9822,21.807743)"
           id="g10365"><path
             id="path10367"
             style="fill:#dc3912;fill-opacity:1;fill-rule:nonzero;stroke:none"
             d="M 5.8499999,0 0,5.8499999 -5.8499999,0 0,-5.8499999 Z" /></g><g
           transform="matrix(1.4160726,0,0,1.4153918,1415.9534,21.807743)"
           id="g10369"><path
             id="path10371"
             style="fill:#dc3912;fill-opacity:1;fill-rule:nonzero;stroke:none"
             d="M 5.8499999,0 0,5.8499999 -5.8499999,0 0,-5.8499999 Z" /></g><g
           transform="matrix(1.4160726,0,0,1.4153918,1428.9104,21.807743)"
           id="g10373"><path
             id="path10375"
             style="fill:#dc3912;fill-opacity:1;fill-rule:nonzero;stroke:none"
             d="M 5.8499999,0 0,5.8499999 -5.8499999,0 0,-5.8499999 Z" /></g><g
           transform="matrix(1.4160726,0,0,1.4153918,1441.8674,20.901894)"
           id="g10377"><path
             id="path10379"
             style="fill:#dc3912;fill-opacity:1;fill-rule:nonzero;stroke:none"
             d="M 5.8499999,0 0,5.8499999 -5.8499999,0 0,-5.8499999 Z" /></g><g
           transform="matrix(1.4160726,0,0,1.4153918,1454.8246,20.901894)"
           id="g10381"><path
             id="path10383"
             style="fill:#dc3912;fill-opacity:1;fill-rule:nonzero;stroke:none"
             d="M 5.8499999,0 0,5.8499999 -5.8499999,0 0,-5.8499999 Z" /></g><g
           transform="matrix(1.4160726,0,0,1.4153918,1467.7816,20.703737)"
           id="g10385"><path
             id="path10387"
             style="fill:#dc3912;fill-opacity:1;fill-rule:nonzero;stroke:none"
             d="M 5.8499999,0 0,5.8499999 -5.8499999,0 0,-5.8499999 Z" /></g><g
           transform="matrix(1.4160726,0,0,1.4153918,1480.7528,20.519737)"
           id="g10389"><path
             id="path10391"
             style="fill:#dc3912;fill-opacity:1;fill-rule:nonzero;stroke:none"
             d="M 5.8499999,0 0,5.8499999 -5.8499999,0 0,-5.8499999 Z" /></g><g
           transform="matrix(1.4160726,0,0,1.4153918,288.46225,305.08426)"
           id="g10393"><path
             id="path10395"
             style="fill:#ff9900;fill-opacity:1;fill-rule:nonzero;stroke:none"
             d="m -4.5,-4.5 h 9 v 9 h -9 z" /></g><g
           transform="matrix(1.4160726,0,0,1.4153918,314.37637,300.66824)"
           id="g10397"><path
             id="path10399"
             style="fill:#ff9900;fill-opacity:1;fill-rule:nonzero;stroke:none"
             d="m -4.5,-4.5 h 9 v 9 h -9 z" /></g><g
           transform="matrix(1.4160726,0,0,1.4153918,340.30466,283.78259)"
           id="g10401"><path
             id="path10403"
             style="fill:#ff9900;fill-opacity:1;fill-rule:nonzero;stroke:none"
             d="m -4.5,-4.5 h 9 v 9 h -9 z" /></g><g
           transform="matrix(1.4160726,0,0,1.4153918,353.26172,193.18338)"
           id="g10405"><path
             id="path10407"
             style="fill:#ff9900;fill-opacity:1;fill-rule:nonzero;stroke:none"
             d="m -4.5,-4.5 h 9 v 9 h -9 z" /></g><g
           transform="matrix(1.4160726,0,0,1.4153918,366.21878,187.35197)"
           id="g10409"><path
             id="path10411"
             style="fill:#ff9900;fill-opacity:1;fill-rule:nonzero;stroke:none"
             d="m -4.5,-4.5 h 9 v 9 h -9 z" /></g><g
           transform="matrix(1.4160726,0,0,1.4153918,379.17584,184.95996)"
           id="g10413"><path
             id="path10415"
             style="fill:#ff9900;fill-opacity:1;fill-rule:nonzero;stroke:none"
             d="m -4.5,-4.5 h 9 v 9 h -9 z" /></g><g
           transform="matrix(1.4160726,0,0,1.4153918,392.1329,180.31747)"
           id="g10417"><path
             id="path10419"
             style="fill:#ff9900;fill-opacity:1;fill-rule:nonzero;stroke:none"
             d="m -4.5,-4.5 h 9 v 9 h -9 z" /></g><g
           transform="matrix(1.4160726,0,0,1.4153918,418.06119,167.43741)"
           id="g10421"><path
             id="path10423"
             style="fill:#ff9900;fill-opacity:1;fill-rule:nonzero;stroke:none"
             d="m -4.5,-4.5 h 9 v 9 h -9 z" /></g><g
           transform="matrix(1.4160726,0,0,1.4153918,431.01828,163.24785)"
           id="g10425"><path
             id="path10427"
             style="fill:#ff9900;fill-opacity:1;fill-rule:nonzero;stroke:none"
             d="m -4.5,-4.5 h 9 v 9 h -9 z" /></g><g
           transform="matrix(1.4160726,0,0,1.4153918,443.97531,153.89211)"
           id="g10429"><path
             id="path10431"
             style="fill:#ff9900;fill-opacity:1;fill-rule:nonzero;stroke:none"
             d="m -4.5,-4.5 h 9 v 9 h -9 z" /></g><g
           transform="matrix(1.4160726,0,0,1.4153918,456.93237,150.96223)"
           id="g10433"><path
             id="path10435"
             style="fill:#ff9900;fill-opacity:1;fill-rule:nonzero;stroke:none"
             d="m -4.5,-4.5 h 9 v 9 h -9 z" /></g><g
           transform="matrix(1.4160726,0,0,1.4153918,469.88947,147.97577)"
           id="g10437"><path
             id="path10439"
             style="fill:#ff9900;fill-opacity:1;fill-rule:nonzero;stroke:none"
             d="m -4.5,-4.5 h 9 v 9 h -9 z" /></g><g
           transform="matrix(1.4160726,0,0,1.4153918,482.86066,145.2299)"
           id="g10441"><path
             id="path10443"
             style="fill:#ff9900;fill-opacity:1;fill-rule:nonzero;stroke:none"
             d="m -4.5,-4.5 h 9 v 9 h -9 z" /></g><g
           transform="matrix(1.4160726,0,0,1.4153918,495.81772,136.45447)"
           id="g10445"><path
             id="path10447"
             style="fill:#ff9900;fill-opacity:1;fill-rule:nonzero;stroke:none"
             d="m -4.5,-4.5 h 9 v 9 h -9 z" /></g><g
           transform="matrix(1.4160726,0,0,1.4153918,508.77481,133.25569)"
           id="g10449"><path
             id="path10451"
             style="fill:#ff9900;fill-opacity:1;fill-rule:nonzero;stroke:none"
             d="m -4.5,-4.5 h 9 v 9 h -9 z" /></g><g
           transform="matrix(1.4160726,0,0,1.4153918,521.73187,127.33935)"
           id="g10453"><path
             id="path10455"
             style="fill:#ff9900;fill-opacity:1;fill-rule:nonzero;stroke:none"
             d="m -4.5,-4.5 h 9 v 9 h -9 z" /></g><g
           transform="matrix(1.4160726,0,0,1.4153918,534.68896,122.37132)"
           id="g10457"><path
             id="path10459"
             style="fill:#ff9900;fill-opacity:1;fill-rule:nonzero;stroke:none"
             d="m -4.5,-4.5 h 9 v 9 h -9 z" /></g><g
           transform="matrix(1.4160726,0,0,1.4153918,547.646,114.07713)"
           id="g10461"><path
             id="path10463"
             style="fill:#ff9900;fill-opacity:1;fill-rule:nonzero;stroke:none"
             d="m -4.5,-4.5 h 9 v 9 h -9 z" /></g><g
           transform="matrix(1.4160726,0,0,1.4153918,560.61725,107.33987)"
           id="g10465"><path
             id="path10467"
             style="fill:#ff9900;fill-opacity:1;fill-rule:nonzero;stroke:none"
             d="m -4.5,-4.5 h 9 v 9 h -9 z" /></g><g
           transform="matrix(1.4160726,0,0,1.4153918,573.57428,103.13616)"
           id="g10469"><path
             id="path10471"
             style="fill:#ff9900;fill-opacity:1;fill-rule:nonzero;stroke:none"
             d="m -4.5,-4.5 h 9 v 9 h -9 z" /></g><g
           transform="matrix(1.4160726,0,0,1.4153918,586.53137,90.227783)"
           id="g10473"><path
             id="path10475"
             style="fill:#ff9900;fill-opacity:1;fill-rule:nonzero;stroke:none"
             d="m -4.5,-4.5 h 9 v 9 h -9 z" /></g><g
           transform="matrix(1.4160726,0,0,1.4153918,599.48846,87.949005)"
           id="g10477"><path
             id="path10479"
             style="fill:#ff9900;fill-opacity:1;fill-rule:nonzero;stroke:none"
             d="m -4.5,-4.5 h 9 v 9 h -9 z" /></g><g
           transform="matrix(1.4160726,0,0,1.4153918,612.4455,87.694229)"
           id="g10481"><path
             id="path10483"
             style="fill:#ff9900;fill-opacity:1;fill-rule:nonzero;stroke:none"
             d="m -4.5,-4.5 h 9 v 9 h -9 z" /></g><g
           transform="matrix(1.4160726,0,0,1.4153918,625.41675,83.561287)"
           id="g10485"><path
             id="path10487"
             style="fill:#ff9900;fill-opacity:1;fill-rule:nonzero;stroke:none"
             d="m -4.5,-4.5 h 9 v 9 h -9 z" /></g><g
           transform="matrix(1.4160726,0,0,1.4153918,638.37378,83.532974)"
           id="g10489"><path
             id="path10491"
             style="fill:#ff9900;fill-opacity:1;fill-rule:nonzero;stroke:none"
             d="m -4.5,-4.5 h 9 v 9 h -9 z" /></g><g
           transform="matrix(1.4160726,0,0,1.4153918,651.33087,82.344048)"
           id="g10493"><path
             id="path10495"
             style="fill:#ff9900;fill-opacity:1;fill-rule:nonzero;stroke:none"
             d="m -4.5,-4.5 h 9 v 9 h -9 z" /></g><g
           transform="matrix(1.4160726,0,0,1.4153918,664.2879,81.70713)"
           id="g10497"><path
             id="path10499"
             style="fill:#ff9900;fill-opacity:1;fill-rule:nonzero;stroke:none"
             d="m -4.5,-4.5 h 9 v 9 h -9 z" /></g><g
           transform="matrix(1.4160726,0,0,1.4153918,677.245,74.899086)"
           id="g10501"><path
             id="path10503"
             style="fill:#ff9900;fill-opacity:1;fill-rule:nonzero;stroke:none"
             d="m -4.5,-4.5 h 9 v 9 h -9 z" /></g><g
           transform="matrix(1.4160726,0,0,1.4153918,690.20209,74.899086)"
           id="g10505"><path
             id="path10507"
             style="fill:#ff9900;fill-opacity:1;fill-rule:nonzero;stroke:none"
             d="m -4.5,-4.5 h 9 v 9 h -9 z" /></g><g
           transform="matrix(1.4160726,0,0,1.4153918,703.17328,69.676292)"
           id="g10509"><path
             id="path10511"
             style="fill:#ff9900;fill-opacity:1;fill-rule:nonzero;stroke:none"
             d="m -4.5,-4.5 h 9 v 9 h -9 z" /></g><g
           transform="matrix(1.4160726,0,0,1.4153918,716.13037,69.251678)"
           id="g10513"><path
             id="path10515"
             style="fill:#ff9900;fill-opacity:1;fill-rule:nonzero;stroke:none"
             d="m -4.5,-4.5 h 9 v 9 h -9 z" /></g><g
           transform="matrix(1.4160726,0,0,1.4153918,729.0874,67.963669)"
           id="g10517"><path
             id="path10519"
             style="fill:#ff9900;fill-opacity:1;fill-rule:nonzero;stroke:none"
             d="m -4.5,-4.5 h 9 v 9 h -9 z" /></g><g
           transform="matrix(1.4160726,0,0,1.4153918,742.04443,67.935364)"
           id="g10521"><path
             id="path10523"
             style="fill:#ff9900;fill-opacity:1;fill-rule:nonzero;stroke:none"
             d="m -4.5,-4.5 h 9 v 9 h -9 z" /></g><g
           transform="matrix(1.4160726,0,0,1.4153918,755.00153,63.264572)"
           id="g10525"><path
             id="path10527"
             style="fill:#ff9900;fill-opacity:1;fill-rule:nonzero;stroke:none"
             d="m -4.5,-4.5 h 9 v 9 h -9 z" /></g><g
           transform="matrix(1.4160726,0,0,1.4153918,767.97278,57.985161)"
           id="g10529"><path
             id="path10531"
             style="fill:#ff9900;fill-opacity:1;fill-rule:nonzero;stroke:none"
             d="m -4.5,-4.5 h 9 v 9 h -9 z" /></g><g
           transform="matrix(1.4160726,0,0,1.4153918,793.8869,56.371605)"
           id="g10533"><path
             id="path10535"
             style="fill:#ff9900;fill-opacity:1;fill-rule:nonzero;stroke:none"
             d="m -4.5,-4.5 h 9 v 9 h -9 z" /></g><g
           transform="matrix(1.4160726,0,0,1.4153918,845.72931,48.671879)"
           id="g10537"><path
             id="path10539"
             style="fill:#ff9900;fill-opacity:1;fill-rule:nonzero;stroke:none"
             d="m -4.5,-4.5 h 9 v 9 h -9 z" /></g><g
           transform="matrix(1.4160726,0,0,1.4153918,858.6864,48.431263)"
           id="g10541"><path
             id="path10543"
             style="fill:#ff9900;fill-opacity:1;fill-rule:nonzero;stroke:none"
             d="m -4.5,-4.5 h 9 v 9 h -9 z" /></g><g
           transform="matrix(1.4160726,0,0,1.4153918,327.33344,300.49838)"
           id="g10545"><path
             id="path10547"
             style="fill:#109618;fill-opacity:1;fill-rule:nonzero;stroke:none"
             d="M 0,2.55 2.55,5.0999999 5.0999999,2.55 2.55,0 5.0999999,-2.55 2.55,-5.0999999 0,-2.55 -2.55,-5.0999999 -5.0999999,-2.55 -2.55,0 -5.0999999,2.55 -2.55,5.0999999 Z" /></g><g
           transform="matrix(1.4160726,0,0,1.4153918,405.08997,172.27803)"
           id="g10549"><path
             id="path10551"
             style="fill:#990099;fill-opacity:1;fill-rule:nonzero;stroke:none"
             d="M 5.4000001,1.8 H 1.8 V 5.4000001 H -1.8 V 1.8 h -3.5999996 v -3.6 h 3.5999999 v -3.5999996 h 3.5999999 v 3.5999999 h 3.5999999 z" /></g><g
           transform="matrix(1.4160726,0,0,1.4153918,117.61307,-10.519806)"
           id="g10553"><path
             id="path10555"
             style="fill:none;stroke:#555555;stroke-width:1;stroke-linecap:butt;stroke-linejoin:miter;stroke-miterlimit:10;stroke-dasharray:none;stroke-opacity:0.2"
             d="m 56.59,304.07999 9.149998,-1.73999 9.150001,-0.28 9.150002,-1.62 h 9.150001 l 9.149998,-0.31 9.16,-56.00999 9.15,-21.14 9.15,-1.24 9.15,-1.88001 9.14999,-0.11999 9.16,-11.81 9.15,-64.01 9.14999,-4.11999 9.15,-1.69 9.14999,-3.28 9.14999,-5.68 18.31,-6.37999 9.15,-6.61 27.46,-6.12001 9.15,-6.19999 9.14999,-2.26 9.14999,-4.180006 9.15,-3.510002 9.14999,-5.86 9.16001,-4.760002 9.14999,-2.970002 9.14999,-9.120002 9.15,-1.610001 9.14999,-0.18 9.16,-2.919999 9.15,-0.02 9.14999,-0.839997 9.15,-0.449996 9.14999,-4.810002 h 9.14999 l 9.16001,-3.689998 27.45001,-1.23 9.14999,-3.299999 9.16001,-3.73 9.14999,-1.139999 h 9.15 l 9.14999,-1.759998 9.14999,-3.650002 9.15,-0.03 27.45999,-0.540001 9.15002,-1.540001 18.29999,-0.11 9.15997,-1.029999 9.15003,-2.259998 9.15002,-0.09 54.90998,-0.990002 9.15002,-3.360001 9.15997,-0.66 9.15003,-1.709999 64.06,-0.870001 9.15002,-0.03 9.15002,-1.110001 h 9.15998 l 9.15002,-3.01 9.15003,-0.120001 18.29998,-0.6 9.15003,-0.23 109.83002,-0.719999 h 9.15002 l 18.29999,-0.64 9.15002,-0.139999 9.15998,-0.129999" /></g></g></g><g
       id="g10557"><g
         clip-path="url(#clipPath10563)"
         id="g10559"><g
           transform="matrix(1.4160726,0,0,1.4153918,184.7774,-95.443314)"
           id="g10565"><text
             id="text10569"
             style="font-variant:normal;font-weight:normal;font-size:18px;font-family:'Open Sans';-inkscape-font-specification:OpenSans-Regular;writing-mode:lr-tb;fill:#2a3f5f;fill-opacity:1;fill-rule:nonzero;stroke:none"
             transform="translate(-5.1459961,405)"><tspan
               id="tspan10567"
               y="0"
               x="0">0</tspan></text>
</g><g
           transform="matrix(1.4160726,0,0,1.4153918,443.97531,-95.443314)"
           id="g10571"><text
             id="text10575"
             style="font-variant:normal;font-weight:normal;font-size:18px;font-family:'Open Sans';-inkscape-font-specification:OpenSans-Regular;writing-mode:lr-tb;fill:#2a3f5f;fill-opacity:1;fill-rule:nonzero;stroke:none"
             transform="translate(-15.437988,405)"><tspan
               id="tspan10573"
               y="0"
               x="0 10.291992 20.583984">200</tspan></text>
</g><g
           transform="matrix(1.4160726,0,0,1.4153918,703.17328,-95.443314)"
           id="g10577"><text
             id="text10581"
             style="font-variant:normal;font-weight:normal;font-size:18px;font-family:'Open Sans';-inkscape-font-specification:OpenSans-Regular;writing-mode:lr-tb;fill:#2a3f5f;fill-opacity:1;fill-rule:nonzero;stroke:none"
             transform="translate(-15.437988,405)"><tspan
               id="tspan10579"
               y="0"
               x="0 10.291992 20.583984">400</tspan></text>
</g><g
           transform="matrix(1.4160726,0,0,1.4153918,962.35699,-95.443314)"
           id="g10583"><text
             id="text10587"
             style="font-variant:normal;font-weight:normal;font-size:18px;font-family:'Open Sans';-inkscape-font-specification:OpenSans-Regular;writing-mode:lr-tb;fill:#2a3f5f;fill-opacity:1;fill-rule:nonzero;stroke:none"
             transform="translate(-15.437988,405)"><tspan
               id="tspan10585"
               y="0"
               x="0 10.291992 20.583984">600</tspan></text>
</g><g
           transform="matrix(1.4160726,0,0,1.4153918,1221.5549,-95.443314)"
           id="g10589"><text
             id="text10593"
             style="font-variant:normal;font-weight:normal;font-size:18px;font-family:'Open Sans';-inkscape-font-specification:OpenSans-Regular;writing-mode:lr-tb;fill:#2a3f5f;fill-opacity:1;fill-rule:nonzero;stroke:none"
             transform="translate(-15.437988,405)"><tspan
               id="tspan10591"
               y="0"
               x="0 10.291992 20.583984">800</tspan></text>
</g><g
           transform="matrix(1.4160726,0,0,1.4153918,1480.7528,-95.443314)"
           id="g10595"><text
             id="text10599"
             style="font-variant:normal;font-weight:normal;font-size:18px;font-family:'Open Sans';-inkscape-font-specification:OpenSans-Regular;writing-mode:lr-tb;fill:#2a3f5f;fill-opacity:1;fill-rule:nonzero;stroke:none"
             transform="translate(-20.583984,405)"><tspan
               id="tspan10597"
               y="0"
               x="0 10.291992 20.583984 30.875977">1000</tspan></text>
</g><g
           transform="matrix(1.4160726,0,0,1.4153918,4.3272681,422.34946)"
           id="g10601"><text
             id="text10605"
             style="font-variant:normal;font-weight:normal;font-size:18px;font-family:'Open Sans';-inkscape-font-specification:OpenSans-Regular;writing-mode:lr-tb;fill:#2a3f5f;fill-opacity:1;fill-rule:nonzero;stroke:none"
             transform="translate(68.708008,6.3000002)"><tspan
               id="tspan10603"
               y="0"
               x="0">0</tspan></text>
</g><g
           transform="matrix(1.4160726,0,0,1.4153918,4.3272681,303.58398)"
           id="g10607"><text
             id="text10611"
             style="font-variant:normal;font-weight:normal;font-size:18px;font-family:'Open Sans';-inkscape-font-specification:OpenSans-Regular;writing-mode:lr-tb;fill:#2a3f5f;fill-opacity:1;fill-rule:nonzero;stroke:none"
             transform="translate(53.625977,6.3000002)"><tspan
               id="tspan10609"
               y="0"
               x="0 10.291992 15.082031">0.5</tspan></text>
</g><g
           transform="matrix(1.4160726,0,0,1.4153918,4.3272681,184.80428)"
           id="g10613"><text
             id="text10617"
             style="font-variant:normal;font-weight:normal;font-size:18px;font-family:'Open Sans';-inkscape-font-specification:OpenSans-Regular;writing-mode:lr-tb;fill:#2a3f5f;fill-opacity:1;fill-rule:nonzero;stroke:none"
             transform="translate(68.708008,6.3000002)"><tspan
               id="tspan10615"
               y="0"
               x="0">1</tspan></text>
</g><g
           transform="matrix(1.4160726,0,0,1.4153918,4.3272681,66.038734)"
           id="g10619"><text
             id="text10623"
             style="font-variant:normal;font-weight:normal;font-size:18px;font-family:'Open Sans';-inkscape-font-specification:OpenSans-Regular;writing-mode:lr-tb;fill:#2a3f5f;fill-opacity:1;fill-rule:nonzero;stroke:none"
             transform="translate(53.625977,6.3000002)"><tspan
               id="tspan10621"
               y="0"
               x="0 10.291992 15.082031">1.5</tspan></text>
</g></g></g><g
       id="g10625"><g
         clip-path="url(#clipPath10631)"
         id="g10627"><g
           transform="matrix(1.4160726,0,0,1.4153918,786.14142,224.17348)"
           id="g10633"><text
             id="text10637"
             style="font-variant:normal;font-weight:normal;font-size:18px;font-family:'Open Sans';-inkscape-font-specification:OpenSans-Regular;writing-mode:lr-tb;fill:#2a3f5f;fill-opacity:1;fill-rule:nonzero;stroke:none"
             transform="translate(40,7.02)"><tspan
               id="tspan10635"
               y="0"
               x="0 8.5869141 18.597656 35.34082 46.371094 50.923828 55.476562 66.524414 76.385742 81.061523 92.091797 96.644531 106.65527">sampling	plan</tspan></text>
</g><g
           transform="matrix(1.4160726,0,0,1.4153918,814.46289,224.17348)"
           id="g10639"><path
             id="path10641"
             style="fill:#3366cc;fill-opacity:1;fill-rule:nonzero;stroke:none"
             d="M 4.5,0 C 4.4999995,0.59673703 4.385819,1.1707621 4.1574574,1.7220752 3.929096,2.2733884 3.6039369,2.7600234 3.1819801,3.1819801 2.7600234,3.6039369 2.2733884,3.929096 1.7220752,4.1574574 1.1707621,4.385819 0.59673703,4.4999995 0,4.5 -0.59673703,4.4999995 -1.1707621,4.385819 -1.7220752,4.1574574 -2.2733884,3.929096 -2.7600234,3.6039369 -3.1819801,3.1819801 -3.6039369,2.7600234 -3.929096,2.2733884 -4.1574574,1.7220752 -4.385819,1.1707621 -4.4999995,0.59673703 -4.5,0 c 5e-7,-0.59673703 0.114181,-1.1707621 0.3425426,-1.7220752 0.2283614,-0.5513132 0.5535205,-1.0379482 0.9754773,-1.4599049 0.4219567,-0.4219568 0.9085917,-0.7471159 1.4599049,-0.9754773 C -1.1707621,-4.385819 -0.59673703,-4.4999995 0,-4.5 c 0.59673703,5e-7 1.1707621,0.114181 1.7220752,0.3425426 0.5513132,0.2283614 1.0379482,0.5535205 1.4599049,0.9754773 0.4219568,0.4219567 0.7471159,0.9085917 0.9754773,1.4599049 C 4.385819,-1.1707621 4.4999995,-0.59673703 4.5,0 Z" /></g><g
           transform="matrix(1.4160726,0,0,1.4153918,786.14142,261.53979)"
           id="g10643"><text
             id="text10647"
             style="font-variant:normal;font-weight:normal;font-size:18px;font-family:'Open Sans';-inkscape-font-specification:OpenSans-Regular;writing-mode:lr-tb;fill:#2a3f5f;fill-opacity:1;fill-rule:nonzero;stroke:none"
             transform="translate(40,7.02)"><tspan
               id="tspan10645"
               y="0"
               x="0 9.8613281 19.87207 30.919922 39.506836 48.09375 52.646484 62.657227 73.705078 84.735352 92.083008 102.95508 111.52441 121.62305 130.20996 138.79688 146.14453 156.24316 166.10449 173.45215 183.55078 192.1377 200.72461 211.59668">gaussianprocessregressor</tspan></text>
</g><g
           transform="matrix(1.4160726,0,0,1.4153918,814.46289,261.53979)"
           id="g10649"><path
             id="path10651"
             style="fill:#dc3912;fill-opacity:1;fill-rule:nonzero;stroke:none"
             d="M 5.8499999,0 0,5.8499999 -5.8499999,0 0,-5.8499999 Z" /></g><g
           transform="matrix(1.4160726,0,0,1.4153918,786.14142,298.90616)"
           id="g10653"><text
             id="text10657"
             style="font-variant:normal;font-weight:normal;font-size:18px;font-family:'Open Sans';-inkscape-font-specification:OpenSans-Regular;writing-mode:lr-tb;fill:#2a3f5f;fill-opacity:1;fill-rule:nonzero;stroke:none"
             transform="translate(40,7.02)"><tspan
               id="tspan10655"
               y="0"
               x="0 5.9238281 9.9052734 19.766602 27.114258 37.125 48.155273 52.708008 62.806641 73.854492 80.208984 91.239258 102.11133 112.9834 121.57031 127.9248 132.47754 143.52539 153.38672 160.73438 170.83301 180.69434 188.04199 198.14062 206.72754 215.31445 226.18652 233.53418 237.51562 241.92773 246.60352 250.58496 260.44629 267.79395 277.80469 288.83496 293.3877 303.48633 314.53418 320.88867 331.91895 342.79102 353.66309 362.25 368.60449 373.15723 384.20508 394.06641 401.41406 411.5127 421.37402 428.72168 438.82031 447.40723 455.99414 466.86621 474.21387 478.19531">['gradientboostingregressor',	'gradientboostingregressor']</tspan></text>
</g><g
           transform="matrix(1.4160726,0,0,1.4153918,814.46289,298.90616)"
           id="g10659"><path
             id="path10661"
             style="fill:#ff9900;fill-opacity:1;fill-rule:nonzero;stroke:none"
             d="m -4.5,-4.5 h 9 v 9 h -9 z" /></g><g
           transform="matrix(1.4160726,0,0,1.4153918,786.14142,336.27249)"
           id="g10663"><text
             id="text10667"
             style="font-variant:normal;font-weight:normal;font-size:18px;font-family:'Open Sans';-inkscape-font-specification:OpenSans-Regular;writing-mode:lr-tb;fill:#2a3f5f;fill-opacity:1;fill-rule:nonzero;stroke:none"
             transform="translate(40,7.02)"><tspan
               id="tspan10665"
               y="0"
               x="0 5.9238281 9.9052734 26.648438 31.201172 42.231445 49.579102 59.677734 69.539062 76.886719 86.985352 95.572266 104.15918 115.03125 122.37891 126.36035 130.77246 135.44824 139.42969 156.17285 160.72559 171.75586 179.10352 189.20215 199.06348 206.41113 216.50977 225.09668 233.68359 244.55566 251.90332 255.88477">['mlpregressor',	'mlpregressor']</tspan></text>
</g><g
           transform="matrix(1.4160726,0,0,1.4153918,814.46289,336.27249)"
           id="g10669"><path
             id="path10671"
             style="fill:#109618;fill-opacity:1;fill-rule:nonzero;stroke:none"
             d="M 0,2.55 2.55,5.0999999 5.0999999,2.55 2.55,0 5.0999999,-2.55 2.55,-5.0999999 0,-2.55 -2.55,-5.0999999 -5.0999999,-2.55 -2.55,0 -5.0999999,2.55 -2.55,5.0999999 Z" /></g><g
           transform="matrix(1.4160726,0,0,1.4153918,786.14142,373.63885)"
           id="g10673"><text
             id="text10677"
             style="font-variant:normal;font-weight:normal;font-size:18px;font-family:'Open Sans';-inkscape-font-specification:OpenSans-Regular;writing-mode:lr-tb;fill:#2a3f5f;fill-opacity:1;fill-rule:nonzero;stroke:none"
             transform="translate(40,7.02)"><tspan
               id="tspan10675"
               y="0"
               x="0 5.9238281 9.9052734 19.766602 27.114258 37.125 48.155273 52.708008 62.806641 73.854492 80.208984 91.239258 102.11133 112.9834 121.57031 127.9248 132.47754 143.52539 153.38672 160.73438 170.83301 180.69434 188.04199 198.14062 206.72754 215.31445 226.18652 233.53418 237.51562 241.92773 246.60352 250.58496 267.32812 271.88086 282.91113 290.25879 300.35742 310.21875 317.56641 327.66504 336.25195 344.83887 355.71094 363.05859 367.04004">['gradientboostingregressor',	'mlpregressor']</tspan></text>
</g><g
           transform="matrix(1.4160726,0,0,1.4153918,814.46289,373.63885)"
           id="g10679"><path
             id="path10681"
             style="fill:#990099;fill-opacity:1;fill-rule:nonzero;stroke:none"
             d="M 5.4000001,1.8 H 1.8 V 5.4000001 H -1.8 V 1.8 h -3.5999996 v -3.6 h 3.5999999 v -3.5999996 h 3.5999999 v 3.5999999 h 3.5999999 z" /></g></g></g><g
       id="g10683"><g
         clip-path="url(#clipPath10689)"
         id="g10685"><g
           transform="matrix(1.4160726,0,0,1.4153918,4.3272681,-95.443314)"
           id="g10691"><text
             id="text10695"
             style="font-variant:normal;font-weight:normal;font-size:22px;font-family:'Open Sans';-inkscape-font-specification:OpenSans-Regular;writing-mode:lr-tb;fill:#2a3f5f;fill-opacity:1;fill-rule:nonzero;stroke:none"
             transform="translate(426.68933,462)"><tspan
               id="tspan10693"
               y="0"
               x="0 16.585938 30.088867 50.552734 64.03418 76.376953 85.357422 91.072266 104.36035 111.81543 117.53027 124.98535 138.48828 151.99121 162.46484 170.23145 175.7959 189.08398 202.58691 208.30176 220.64453 231.66602 243.90137 249.46582 262.96875 275.2041 282.9707 288.53516 301.82324 315.32617">Number	of	function	evaluations</tspan></text>
</g><g
           transform="matrix(0,-1.4153918,1.4160726,0,-274.63901,256.98926)"
           id="g10697"><text
             id="text10701"
             style="font-variant:normal;font-weight:normal;font-size:22px;font-family:'Open Sans';-inkscape-font-specification:OpenSans-Regular;writing-mode:lr-tb;fill:#2a3f5f;fill-opacity:1;fill-rule:nonzero;stroke:none"
             transform="translate(-41.788574,223)"><tspan
               id="tspan10699"
               y="0"
               x="0 13.50293 24.588867 38.070312 50.413086 59.393555 70.415039 83.703125 89.267578 102.77051 123.23438">hypervolume</tspan></text>
</g></g></g></g></svg>