<?xml version="1.0" encoding="UTF-8" standalone="no"?>
<svg
   xmlns:dc="http://purl.org/dc/elements/1.1/"
   xmlns:cc="http://creativecommons.org/ns#"
   xmlns:rdf="http://www.w3.org/1999/02/22-rdf-syntax-ns#"
   xmlns:svg="http://www.w3.org/2000/svg"
   xmlns="http://www.w3.org/2000/svg"
   xmlns:sodipodi="http://sodipodi.sourceforge.net/DTD/sodipodi-0.dtd"
   xmlns:inkscape="http://www.inkscape.org/namespaces/inkscape"
   version="1.1"
   id="svg2"
   xml:space="preserve"
   width="350.56"
   height="187.28"
   viewBox="0 0 350.56 187.28"
   sodipodi:docname="architecture_surr_opt.svg"
   inkscape:version="0.92.3 (2405546, 2018-03-11)"><sodipodi:namedview
   pagecolor="#ffffff"
   bordercolor="#666666"
   borderopacity="1"
   objecttolerance="10"
   gridtolerance="10"
   guidetolerance="10"
   inkscape:pageopacity="0"
   inkscape:pageshadow="2"
   inkscape:window-width="2560"
   inkscape:window-height="1385"
   id="namedview55"
   showgrid="false"
   inkscape:pagecheckerboard="true"
   inkscape:zoom="3.6398905"
   inkscape:cx="103.69201"
   inkscape:cy="95.345196"
   inkscape:window-x="0"
   inkscape:window-y="27"
   inkscape:window-maximized="1"
   inkscape:current-layer="layer2" /><metadata
   id="metadata8"><rdf:RDF><cc:Work
       rdf:about=""><dc:format>image/svg+xml</dc:format><dc:type
         rdf:resource="http://purl.org/dc/dcmitype/StillImage" /><dc:title /></cc:Work></rdf:RDF></metadata><defs
   id="defs6"><clipPath
     clipPathUnits="userSpaceOnUse"
     id="clipPath18"><path
       d="M 0,0 H 533.33331 V 428.46442 H 0 Z"
       id="path16"
       style="clip-rule:evenodd" /></clipPath><clipPath
     clipPathUnits="userSpaceOnUse"
     id="clipPath30"><path
       d="M 0,0 H 533.33331 V 425.46817 H 0 Z"
       id="path28"
       style="clip-rule:evenodd" /></clipPath><clipPath
     id="clipPath889"
     clipPathUnits="userSpaceOnUse"><path
       style="clip-rule:evenodd"
       id="path887"
       d="M 0,0 H 366.66663 V 426.28723 H 0 Z" /></clipPath><clipPath
     id="clipPath901"
     clipPathUnits="userSpaceOnUse"><path
       style="clip-rule:evenodd"
       id="path899"
       d="M 0,0 H 366.66663 V 423.30618 H 0 Z" /></clipPath></defs>

<g
   inkscape:groupmode="layer"
   id="layer1"
   inkscape:label="Layer 1"
   style="display:inline"><rect
     style="fill:#ffffff;fill-opacity:1;stroke:none;stroke-width:0.94163364;stroke-opacity:1"
     id="rect864"
     width="351.21698"
     height="187.36829"
     x="-1.286933e-07"
     y="0.18645273" /></g><g
   inkscape:groupmode="layer"
   id="layer2"
   inkscape:label="Layer 2"><g
   id="g10"
   transform="matrix(0.29752794,0,0,0.29752794,15.870932,14.564996)"><g
     id="g24"><g
       id="g26"
       clip-path="url(#clipPath30)"><g
         id="g32"
         transform="matrix(2.9962547,0,0,2.9962547,1.4981273,1.4981273)"><path
           d="M 28,31 H 8 v 80 h 11.879999"
           style="fill:none;stroke:#333333;stroke-width:1;stroke-linecap:butt;stroke-linejoin:miter;stroke-miterlimit:10;stroke-dasharray:none;stroke-opacity:1"
           id="path34"
           inkscape:connector-curvature="0" /><path
           d="m 26.879999,111 -7,2.33 v -4.66 z"
           style="fill:#333333;fill-opacity:1;fill-rule:nonzero;stroke:none"
           id="path36"
           inkscape:connector-curvature="0" /><path
           d="m 26.879999,111 -7,2.33 v -4.66 z"
           style="fill:none;stroke:#333333;stroke-width:1;stroke-linecap:butt;stroke-linejoin:miter;stroke-miterlimit:10;stroke-dasharray:none;stroke-opacity:1"
           id="path38"
           inkscape:connector-curvature="0" /><path
           d="m 37,1 h 102 c 0.59094,0 1.17621,0.057644 1.7558,0.1729325 0.57957,0.1152883 1.14235,0.2860055 1.68832,0.5121516 0.54596,0.2261462 1.06462,0.503376 1.55599,0.8316891 0.49136,0.3283134 0.94598,0.7014017 1.36384,1.1192653 0.41786,0.4178636 0.79096,0.8724735 1.11926,1.3638289 0.32831,0.4913555 0.60554,1.0100155 0.83169,1.5559807 0.22615,0.5459657 0.39686,1.1087451 0.51216,1.6883383 C 147.94234,8.8237801 147.99998,9.4090509 148,10 v 42 c -2e-5,0.590946 -0.0577,1.176216 -0.17294,1.755806 -0.1153,0.579594 -0.28601,1.142376 -0.51216,1.688339 -0.22615,0.545963 -0.50338,1.064621 -0.83169,1.555977 -0.3283,0.491356 -0.7014,0.945969 -1.11926,1.363834 -0.41786,0.417866 -0.87248,0.790955 -1.36384,1.119267 -0.49137,0.328312 -1.01003,0.605537 -1.55599,0.831684 -0.54597,0.226147 -1.10875,0.396866 -1.68832,0.512154 C 140.17621,60.942352 139.59094,60.999996 139,61 H 37 c -0.590946,-4e-6 -1.176216,-0.05765 -1.75581,-0.172939 C 34.664597,60.711773 34.101814,60.541054 33.555847,60.314907 33.00988,60.08876 32.491219,59.811531 31.999863,59.483219 31.508509,59.154907 31.0539,58.781822 30.636036,58.363956 30.218172,57.946091 29.845081,57.491478 29.516768,57.000126 29.188456,56.508766 28.911226,55.990108 28.685081,55.444145 28.458933,54.898182 28.288216,54.3354 28.17293,53.755806 28.05764,53.176216 27.999998,52.590946 28,52 V 10 c -2e-6,-0.5909491 0.05764,-1.1762199 0.172928,-1.7558136 C 28.288216,7.6645932 28.458933,7.1018138 28.685081,6.5558481 28.911226,6.0098829 29.188456,5.4912224 29.516769,4.999867 29.845083,4.5085115 30.218172,4.0539021 30.636036,3.6360385 31.0539,3.2181749 31.508509,2.8450866 31.999865,2.5167732 32.491219,2.1884599 33.00988,1.9112301 33.555847,1.685084 34.101814,1.4589379 34.664597,1.2882206 35.24419,1.1729324 35.823784,1.0576441 36.409054,1 37,1 Z"
           style="fill:#fff2cc;fill-opacity:1;fill-rule:nonzero;stroke:none"
           id="path40"
           inkscape:connector-curvature="0" /><path
           d="m 37,1 h 102 c 0.59094,0 1.17621,0.057644 1.7558,0.1729325 0.57957,0.1152883 1.14235,0.2860055 1.68832,0.5121516 0.54596,0.2261462 1.06462,0.503376 1.55599,0.8316891 0.49136,0.3283134 0.94598,0.7014017 1.36384,1.1192653 0.41786,0.4178636 0.79096,0.8724735 1.11926,1.3638289 0.32831,0.4913555 0.60554,1.0100155 0.83169,1.5559807 0.22615,0.5459657 0.39686,1.1087451 0.51216,1.6883383 C 147.94234,8.8237801 147.99998,9.4090509 148,10 v 42 c -2e-5,0.590946 -0.0577,1.176216 -0.17294,1.755806 -0.1153,0.579594 -0.28601,1.142376 -0.51216,1.688339 -0.22615,0.545963 -0.50338,1.064621 -0.83169,1.555977 -0.3283,0.491356 -0.7014,0.945969 -1.11926,1.363834 -0.41786,0.417866 -0.87248,0.790955 -1.36384,1.119267 -0.49137,0.328312 -1.01003,0.605537 -1.55599,0.831684 -0.54597,0.226147 -1.10875,0.396866 -1.68832,0.512154 C 140.17621,60.942352 139.59094,60.999996 139,61 H 37 c -0.590946,-4e-6 -1.176216,-0.05765 -1.75581,-0.172939 C 34.664597,60.711773 34.101814,60.541054 33.555847,60.314907 33.00988,60.08876 32.491219,59.811531 31.999863,59.483219 31.508509,59.154907 31.0539,58.781822 30.636036,58.363956 30.218172,57.946091 29.845081,57.491478 29.516768,57.000126 29.188456,56.508766 28.911226,55.990108 28.685081,55.444145 28.458933,54.898182 28.288216,54.3354 28.17293,53.755806 28.05764,53.176216 27.999998,52.590946 28,52 V 10 c -2e-6,-0.5909491 0.05764,-1.1762199 0.172928,-1.7558136 C 28.288216,7.6645932 28.458933,7.1018138 28.685081,6.5558481 28.911226,6.0098829 29.188456,5.4912224 29.516769,4.999867 29.845083,4.5085115 30.218172,4.0539021 30.636036,3.6360385 31.0539,3.2181749 31.508509,2.8450866 31.999865,2.5167732 32.491219,2.1884599 33.00988,1.9112301 33.555847,1.685084 34.101814,1.4589379 34.664597,1.2882206 35.24419,1.1729324 35.823784,1.0576441 36.409054,1 37,1 Z"
           style="fill:none;stroke:#d6b656;stroke-width:1;stroke-linecap:butt;stroke-linejoin:miter;stroke-miterlimit:10;stroke-dasharray:none;stroke-opacity:1"
           id="path42"
           inkscape:connector-curvature="0" /></g><g
         id="g44"
         transform="scale(2.9962547)"><text
   transform="translate(55.0625,37)"
   style="font-variant:normal;font-weight:normal;font-size:15px;font-family:Helvetica;-inkscape-font-specification:Helvetica;writing-mode:lr-tb;fill:#333333;fill-opacity:1;fill-rule:nonzero;stroke:none"
   id="text48"><tspan
     x="0 10.004883 18.347168 23.342285 28.337402 36.679688 45.021973 53.364258 57.531738"
     y="0"
     id="tspan46">Surrogate</tspan></text>



</g><g
         id="g50"
         transform="matrix(2.9962547,0,0,2.9962547,1.4981273,1.4981273)"><path
           d="m 148,111 h 20 V 31 h -11.88001"
           style="fill:none;stroke:#333333;stroke-width:1;stroke-linecap:butt;stroke-linejoin:miter;stroke-miterlimit:10;stroke-dasharray:none;stroke-opacity:1"
           id="path52"
           inkscape:connector-curvature="0" /><path
           d="m 149.11999,31 7,-2.33 v 4.660002 z"
           style="fill:#333333;fill-opacity:1;fill-rule:nonzero;stroke:none"
           id="path54"
           inkscape:connector-curvature="0" /><path
           d="m 149.11999,31 7,-2.33 v 4.660002 z"
           style="fill:none;stroke:#333333;stroke-width:1;stroke-linecap:butt;stroke-linejoin:miter;stroke-miterlimit:10;stroke-dasharray:none;stroke-opacity:1"
           id="path56"
           inkscape:connector-curvature="0" /><path
           d="m 37,81 h 102 c 0.59094,0 1.17621,0.05764 1.7558,0.172928 0.57957,0.115288 1.14235,0.286003 1.68832,0.512146 0.54596,0.226143 1.06462,0.503372 1.55599,0.831695 0.49136,0.328309 0.94598,0.701394 1.36384,1.119263 0.41786,0.417854 0.79096,0.87246 1.11926,1.363815 0.32831,0.491356 0.60554,1.010018 0.83169,1.555985 0.22615,0.545967 0.39686,1.108749 0.51216,1.688347 C 147.94234,88.823776 147.99998,89.40905 148,90 v 42 c -2e-5,0.59094 -0.0577,1.17621 -0.17294,1.7558 -0.1153,0.5796 -0.28601,1.14238 -0.51216,1.68835 -0.22615,0.54596 -0.50338,1.06462 -0.83169,1.55597 -0.3283,0.49135 -0.7014,0.94597 -1.11926,1.36383 -0.41786,0.41786 -0.87248,0.79094 -1.36384,1.11925 -0.49137,0.32832 -1.01003,0.60555 -1.55599,0.8317 -0.54597,0.22615 -1.10875,0.39686 -1.68832,0.51214 -0.57959,0.1153 -1.16486,0.17294 -1.7558,0.17296 H 37 c -0.590946,-2e-5 -1.176216,-0.0577 -1.75581,-0.17296 -0.579593,-0.11528 -1.142376,-0.28599 -1.688343,-0.51214 -0.545967,-0.22615 -1.064628,-0.50338 -1.555984,-0.8317 -0.491354,-0.32831 -0.945963,-0.70139 -1.363827,-1.11925 -0.417864,-0.41786 -0.790955,-0.87248 -1.119268,-1.36383 -0.328312,-0.49135 -0.605542,-1.01001 -0.831687,-1.55597 C 28.458933,134.89818 28.288216,134.3354 28.17293,133.7558 28.05764,133.17621 27.999998,132.59094 28,132 V 90 c -2e-6,-0.59095 0.05764,-1.176216 0.172928,-1.755814 0.115288,-0.579605 0.286005,-1.142387 0.512153,-1.688354 0.226145,-0.545967 0.503375,-1.064629 0.831688,-1.555985 0.328314,-0.491355 0.701403,-0.945961 1.119267,-1.363815 0.417864,-0.417869 0.872473,-0.790954 1.363829,-1.119263 0.491354,-0.328323 1.010015,-0.605552 1.555982,-0.831695 0.545967,-0.226143 1.10875,-0.396858 1.688343,-0.512146 C 35.823784,81.05764 36.409054,81 37,81 Z"
           style="fill:#d5e8d4;fill-opacity:1;fill-rule:nonzero;stroke:none"
           id="path58"
           inkscape:connector-curvature="0" /><path
           d="m 37,81 h 102 c 0.59094,0 1.17621,0.05764 1.7558,0.172928 0.57957,0.115288 1.14235,0.286003 1.68832,0.512146 0.54596,0.226143 1.06462,0.503372 1.55599,0.831695 0.49136,0.328309 0.94598,0.701394 1.36384,1.119263 0.41786,0.417854 0.79096,0.87246 1.11926,1.363815 0.32831,0.491356 0.60554,1.010018 0.83169,1.555985 0.22615,0.545967 0.39686,1.108749 0.51216,1.688347 C 147.94234,88.823776 147.99998,89.40905 148,90 v 42 c -2e-5,0.59094 -0.0577,1.17621 -0.17294,1.7558 -0.1153,0.5796 -0.28601,1.14238 -0.51216,1.68835 -0.22615,0.54596 -0.50338,1.06462 -0.83169,1.55597 -0.3283,0.49135 -0.7014,0.94597 -1.11926,1.36383 -0.41786,0.41786 -0.87248,0.79094 -1.36384,1.11925 -0.49137,0.32832 -1.01003,0.60555 -1.55599,0.8317 -0.54597,0.22615 -1.10875,0.39686 -1.68832,0.51214 -0.57959,0.1153 -1.16486,0.17294 -1.7558,0.17296 H 37 c -0.590946,-2e-5 -1.176216,-0.0577 -1.75581,-0.17296 -0.579593,-0.11528 -1.142376,-0.28599 -1.688343,-0.51214 -0.545967,-0.22615 -1.064628,-0.50338 -1.555984,-0.8317 -0.491354,-0.32831 -0.945963,-0.70139 -1.363827,-1.11925 -0.417864,-0.41786 -0.790955,-0.87248 -1.119268,-1.36383 -0.328312,-0.49135 -0.605542,-1.01001 -0.831687,-1.55597 C 28.458933,134.89818 28.288216,134.3354 28.17293,133.7558 28.05764,133.17621 27.999998,132.59094 28,132 V 90 c -2e-6,-0.59095 0.05764,-1.176216 0.172928,-1.755814 0.115288,-0.579605 0.286005,-1.142387 0.512153,-1.688354 0.226145,-0.545967 0.503375,-1.064629 0.831688,-1.555985 0.328314,-0.491355 0.701403,-0.945961 1.119267,-1.363815 0.417864,-0.417869 0.872473,-0.790954 1.363829,-1.119263 0.491354,-0.328323 1.010015,-0.605552 1.555982,-0.831695 0.545967,-0.226143 1.10875,-0.396858 1.688343,-0.512146 C 35.823784,81.05764 36.409054,81 37,81 Z"
           style="fill:none;stroke:#82b366;stroke-width:1;stroke-linecap:butt;stroke-linejoin:miter;stroke-miterlimit:10;stroke-dasharray:none;stroke-opacity:1"
           id="path60"
           inkscape:connector-curvature="0" /></g><g
         id="g62"
         transform="scale(2.9962547)"><text
   transform="translate(46.3125,117)"
   style="font-variant:normal;font-weight:normal;font-size:15px;font-family:Helvetica;-inkscape-font-specification:Helvetica;writing-mode:lr-tb;fill:#333333;fill-opacity:1;fill-rule:nonzero;stroke:none"
   id="text66"><tspan
     x="0 11.66748 20.009766 24.177246 27.509766 40.004883 43.337402 50.837402 59.179688 63.347168 66.679688 75.021973"
     y="0"
     id="tspan64">Optimization</tspan></text>



</g></g></g></g><g
   transform="matrix(0.29752794,0,0,0.29752794,232.28765,15.509404)"
   id="g881"><g
     id="g895"><g
       clip-path="url(#clipPath901)"
       id="g897"><g
         transform="matrix(2.9810295,0,0,2.9810295,1.4905148,1.4905148)"
         id="g903"><path
           id="path905"
           style="fill:#d5e8d4;fill-opacity:1;fill-rule:nonzero;stroke:none"
           d="M 9.3999996,1 H 112.6 c 0.55155,0 1.0978,0.053801 1.63875,0.1614037 0.54095,0.1076023 1.06621,0.2669383 1.57578,0.478008 0.50956,0.2110697 0.99364,0.4698174 1.45226,0.776243 0.45859,0.3064258 0.88289,0.6546418 1.27291,1.0446479 0.39,0.3900058 0.73821,0.8143079 1.04463,1.2729065 0.30643,0.4585986 0.56518,0.9426813 0.77624,1.4522491 0.21107,0.5095677 0.37041,1.0348282 0.47801,1.5757823 C 120.9462,8.3021946 121,8.8484468 121,9.3999996 V 132.60001 c 0,0.55154 -0.0538,1.09779 -0.16141,1.63874 -0.1076,0.54096 -0.26694,1.06621 -0.47801,1.57578 -0.21107,0.50957 -0.46982,0.99365 -0.77625,1.45224 -0.30642,0.4586 -0.65463,0.88292 -1.04463,1.27292 -0.39002,0.39001 -0.81433,0.73822 -1.27292,1.04463 -0.45861,0.30643 -0.94269,0.56517 -1.45225,0.77624 -0.50957,0.21108 -1.03483,0.37041 -1.57578,0.47803 -0.54095,0.10759 -1.0872,0.16139 -1.63875,0.16141 H 9.3999996 c -0.5515528,-2e-5 -1.097805,-0.0538 -1.6387591,-0.16141 -0.5409541,-0.10762 -1.0662151,-0.26695 -1.5757828,-0.47803 -0.5095673,-0.21107 -0.99365,-0.46981 -1.4522486,-0.77623 -0.4585986,-0.30641 -0.8829007,-0.65463 -1.2729065,-1.04464 -0.3900061,-0.39 -0.7382221,-0.81432 -1.0446479,-1.27292 -0.3064256,-0.45859 -0.5651733,-0.94266 -0.776243,-1.45223 C 1.428342,135.30498 1.2690059,134.77971 1.1614035,134.23875 1.0538011,133.6978 0.99999994,133.15155 1,132.60001 V 9.3999996 c -6e-8,-0.5515528 0.053801,-1.097805 0.1614034,-1.6387591 C 1.2690059,7.2202864 1.428342,6.6950254 1.6394117,6.1854577 1.8504814,5.6758904 2.1092291,5.1918077 2.4156547,4.7332091 2.7220805,4.2746105 3.0702965,3.8503084 3.4603026,3.4603026 3.8503084,3.0702965 4.2746105,2.7220805 4.7332091,2.4156547 5.1918077,2.1092291 5.6758904,1.8504814 6.1854582,1.6394117 6.6950259,1.428342 7.2202864,1.269006 7.7612405,1.1614035 8.3021946,1.0538012 8.8484468,1 9.3999996,1 Z"
           inkscape:connector-curvature="0" /><path
           id="path907"
           style="fill:none;stroke:#82b366;stroke-width:1;stroke-linecap:butt;stroke-linejoin:miter;stroke-miterlimit:10;stroke-dasharray:none;stroke-opacity:1"
           d="M 9.3999996,1 H 112.6 c 0.55155,0 1.0978,0.053801 1.63875,0.1614037 0.54095,0.1076023 1.06621,0.2669383 1.57578,0.478008 0.50956,0.2110697 0.99364,0.4698174 1.45226,0.776243 0.45859,0.3064258 0.88289,0.6546418 1.27291,1.0446479 0.39,0.3900058 0.73821,0.8143079 1.04463,1.2729065 0.30643,0.4585986 0.56518,0.9426813 0.77624,1.4522491 0.21107,0.5095677 0.37041,1.0348282 0.47801,1.5757823 C 120.9462,8.3021946 121,8.8484468 121,9.3999996 V 132.60001 c 0,0.55154 -0.0538,1.09779 -0.16141,1.63874 -0.1076,0.54096 -0.26694,1.06621 -0.47801,1.57578 -0.21107,0.50957 -0.46982,0.99365 -0.77625,1.45224 -0.30642,0.4586 -0.65463,0.88292 -1.04463,1.27292 -0.39002,0.39001 -0.81433,0.73822 -1.27292,1.04463 -0.45861,0.30643 -0.94269,0.56517 -1.45225,0.77624 -0.50957,0.21108 -1.03483,0.37041 -1.57578,0.47803 -0.54095,0.10759 -1.0872,0.16139 -1.63875,0.16141 H 9.3999996 c -0.5515528,-2e-5 -1.097805,-0.0538 -1.6387591,-0.16141 -0.5409541,-0.10762 -1.0662151,-0.26695 -1.5757828,-0.47803 -0.5095673,-0.21107 -0.99365,-0.46981 -1.4522486,-0.77623 -0.4585986,-0.30641 -0.8829007,-0.65463 -1.2729065,-1.04464 -0.3900061,-0.39 -0.7382221,-0.81432 -1.0446479,-1.27292 -0.3064256,-0.45859 -0.5651733,-0.94266 -0.776243,-1.45223 C 1.428342,135.30498 1.2690059,134.77971 1.1614035,134.23875 1.0538011,133.6978 0.99999994,133.15155 1,132.60001 V 9.3999996 c -6e-8,-0.5515528 0.053801,-1.097805 0.1614034,-1.6387591 C 1.2690059,7.2202864 1.428342,6.6950254 1.6394117,6.1854577 1.8504814,5.6758904 2.1092291,5.1918077 2.4156547,4.7332091 2.7220805,4.2746105 3.0702965,3.8503084 3.4603026,3.4603026 3.8503084,3.0702965 4.2746105,2.7220805 4.7332091,2.4156547 5.1918077,2.1092291 5.6758904,1.8504814 6.1854582,1.6394117 6.6950259,1.428342 7.2202864,1.269006 7.7612405,1.1614035 8.3021946,1.0538012 8.8484468,1 9.3999996,1 Z"
           inkscape:connector-curvature="0" /></g><g
         transform="scale(2.9810295)"
         id="g909"><text
   id="text913"
   style="font-variant:normal;font-weight:normal;font-size:15px;font-family:Helvetica;-inkscape-font-specification:Helvetica;writing-mode:lr-tb;fill:#333333;fill-opacity:1;fill-rule:nonzero;stroke:none"
   transform="translate(19.3125,104)"><tspan
     id="tspan911"
     y="0"
     x="0 11.66748 20.009766 24.177246 27.509766 40.004883 43.337402 50.837402 59.179688 63.347168 66.679688 75.021973">Optimization</tspan></text>



</g><g
         transform="matrix(2.9810295,0,0,2.9810295,1.4905148,1.4905148)"
         id="g915"><path
           id="path917"
           style="fill:#fff2cc;fill-opacity:1;fill-rule:nonzero;stroke:none"
           d="m 17,11 h 88 c 0.39397,0 0.78415,0.03843 1.17055,0.115289 0.38639,0.07686 0.76157,0.19067 1.12555,0.341433 0.36397,0.150764 0.70974,0.335584 1.03732,0.554459 0.32757,0.218875 0.63064,0.467601 0.90922,0.746178 0.27857,0.278575 0.5273,0.581648 0.74618,0.909218 0.21886,0.32757 0.40368,0.673344 0.55445,1.037321 0.15076,0.363976 0.26458,0.739163 0.34143,1.125558 C 110.9616,16.215853 110.99999,16.606035 111,17 v 28 c -1e-5,0.393963 -0.0384,0.784145 -0.1153,1.17054 -0.0768,0.386394 -0.19067,0.761581 -0.34143,1.125561 -0.15077,0.363975 -0.33559,0.709747 -0.55445,1.037319 -0.21888,0.327572 -0.46761,0.630642 -0.74618,0.909218 -0.27858,0.278572 -0.58166,0.527298 -0.90923,0.746173 -0.32757,0.218876 -0.67334,0.403695 -1.03732,0.554459 -0.36398,0.150765 -0.73916,0.264576 -1.12555,0.341435 C 105.78415,50.961567 105.39397,51 105,51 H 17 c -0.393965,0 -0.784147,-0.03843 -1.170544,-0.115292 -0.386395,-0.07686 -0.761582,-0.19067 -1.125558,-0.341434 C 14.339921,50.392506 13.994147,50.207687 13.666576,49.988811 13.339007,49.769936 13.035934,49.52121 12.757359,49.242638 12.478782,48.964062 12.230056,48.660988 12.011181,48.333416 11.792306,48.005844 11.607486,47.660072 11.456722,47.296093 11.305958,46.932121 11.192146,46.556934 11.115288,46.17054 11.038428,45.784145 10.999999,45.393963 11,45 V 17 c -10e-7,-0.393965 0.03843,-0.784147 0.115288,-1.170544 0.07686,-0.386395 0.19067,-0.761582 0.341434,-1.125558 0.150764,-0.363977 0.335584,-0.709751 0.554459,-1.037322 0.218875,-0.327569 0.467601,-0.630642 0.746178,-0.909217 0.278575,-0.278577 0.581648,-0.527303 0.909218,-0.746178 0.32757,-0.218875 0.673344,-0.403695 1.037321,-0.554459 0.363976,-0.150763 0.739163,-0.264575 1.125558,-0.341434 C 16.215853,11.038429 16.606035,11 17,11 Z"
           inkscape:connector-curvature="0" /><path
           id="path919"
           style="fill:none;stroke:#d6b656;stroke-width:1;stroke-linecap:butt;stroke-linejoin:miter;stroke-miterlimit:10;stroke-dasharray:none;stroke-opacity:1"
           d="m 17,11 h 88 c 0.39397,0 0.78415,0.03843 1.17055,0.115289 0.38639,0.07686 0.76157,0.19067 1.12555,0.341433 0.36397,0.150764 0.70974,0.335584 1.03732,0.554459 0.32757,0.218875 0.63064,0.467601 0.90922,0.746178 0.27857,0.278575 0.5273,0.581648 0.74618,0.909218 0.21886,0.32757 0.40368,0.673344 0.55445,1.037321 0.15076,0.363976 0.26458,0.739163 0.34143,1.125558 C 110.9616,16.215853 110.99999,16.606035 111,17 v 28 c -1e-5,0.393963 -0.0384,0.784145 -0.1153,1.17054 -0.0768,0.386394 -0.19067,0.761581 -0.34143,1.125561 -0.15077,0.363975 -0.33559,0.709747 -0.55445,1.037319 -0.21888,0.327572 -0.46761,0.630642 -0.74618,0.909218 -0.27858,0.278572 -0.58166,0.527298 -0.90923,0.746173 -0.32757,0.218876 -0.67334,0.403695 -1.03732,0.554459 -0.36398,0.150765 -0.73916,0.264576 -1.12555,0.341435 C 105.78415,50.961567 105.39397,51 105,51 H 17 c -0.393965,0 -0.784147,-0.03843 -1.170544,-0.115292 -0.386395,-0.07686 -0.761582,-0.19067 -1.125558,-0.341434 C 14.339921,50.392506 13.994147,50.207687 13.666576,49.988811 13.339007,49.769936 13.035934,49.52121 12.757359,49.242638 12.478782,48.964062 12.230056,48.660988 12.011181,48.333416 11.792306,48.005844 11.607486,47.660072 11.456722,47.296093 11.305958,46.932121 11.192146,46.556934 11.115288,46.17054 11.038428,45.784145 10.999999,45.393963 11,45 V 17 c -10e-7,-0.393965 0.03843,-0.784147 0.115288,-1.170544 0.07686,-0.386395 0.19067,-0.761582 0.341434,-1.125558 0.150764,-0.363977 0.335584,-0.709751 0.554459,-1.037322 0.218875,-0.327569 0.467601,-0.630642 0.746178,-0.909217 0.278575,-0.278577 0.581648,-0.527303 0.909218,-0.746178 0.32757,-0.218875 0.673344,-0.403695 1.037321,-0.554459 0.363976,-0.150763 0.739163,-0.264575 1.125558,-0.341434 C 16.215853,11.038429 16.606035,11 17,11 Z"
           inkscape:connector-curvature="0" /></g><g
         transform="scale(2.9810295)"
         id="g921"><text
   id="text925"
   style="font-variant:normal;font-weight:normal;font-size:15px;font-family:Helvetica;-inkscape-font-specification:Helvetica;writing-mode:lr-tb;fill:#333333;fill-opacity:1;fill-rule:nonzero;stroke:none"
   transform="translate(28.0625,37)"><tspan
     id="tspan923"
     y="0"
     x="0 10.004883 18.347168 23.342285 28.337402 36.679688 45.021973 53.364258 57.531738">Surrogate</tspan></text>



</g></g></g></g><text
   id="text894"
   y="158.93297"
   x="16.272799"
   style="font-style:normal;font-weight:normal;font-size:21.12104416px;line-height:0;font-family:sans-serif;letter-spacing:0px;word-spacing:0px;fill:#000000;fill-opacity:1;stroke:none;stroke-width:1.13148463"
   xml:space="preserve"><tspan
     style="font-size:9.05187702px;line-height:4.27647686px;text-align:start;text-anchor:start;fill:#333333;stroke-width:1.13148463"
     y="158.93297"
     x="16.272799"
     id="tspan892">a) Optimization with </tspan><tspan
     id="tspan896"
     style="font-size:9.05187702px;line-height:4.27647686px;text-align:start;text-anchor:start;fill:#333333;stroke-width:1.13148463"
     y="170.47668"
     x="16.272799">Simulation-based Iterations (OSI)</tspan></text>

<text
   id="text894-3"
   y="158.51698"
   x="232.9991"
   style="font-style:normal;font-weight:normal;font-size:45.0005722px;line-height:0;font-family:sans-serif;letter-spacing:0px;word-spacing:0px;fill:#000000;fill-opacity:1;stroke:none;stroke-width:1.12501442"
   xml:space="preserve"><tspan
     id="tspan896-7"
     style="font-size:9.00011539px;line-height:4.25202274px;text-align:start;text-anchor:start;fill:#333333;stroke-width:1.12501442"
     y="158.51698"
     x="232.9991">b) Alternate Simulation-</tspan><tspan
     id="tspan924"
     style="font-size:9.00011539px;line-height:4.25202274px;text-align:start;text-anchor:start;fill:#333333;stroke-width:1.12501442"
     y="169.99467"
     x="232.9991">Optimization (ASO)</tspan></text>

</g></svg>