<?xml version="1.0" encoding="UTF-8" standalone="no"?>
<svg
   xmlns:dc="http://purl.org/dc/elements/1.1/"
   xmlns:cc="http://creativecommons.org/ns#"
   xmlns:rdf="http://www.w3.org/1999/02/22-rdf-syntax-ns#"
   xmlns:svg="http://www.w3.org/2000/svg"
   xmlns="http://www.w3.org/2000/svg"
   viewBox="0 0 117.44 137.28"
   height="137.28"
   width="117.44"
   xml:space="preserve"
   id="svg873"
   version="1.1"><metadata
     id="metadata879"><rdf:RDF><cc:Work
         rdf:about=""><dc:format>image/svg+xml</dc:format><dc:type
           rdf:resource="http://purl.org/dc/dcmitype/StillImage" /><dc:title></dc:title></cc:Work></rdf:RDF></metadata><defs
     id="defs877"><clipPath
       id="clipPath889"
       clipPathUnits="userSpaceOnUse"><path
         style="clip-rule:evenodd"
         id="path887"
         d="M 0,0 H 366.66663 V 426.28723 H 0 Z" /></clipPath><clipPath
       id="clipPath901"
       clipPathUnits="userSpaceOnUse"><path
         style="clip-rule:evenodd"
         id="path899"
         d="M 0,0 H 366.66663 V 423.30618 H 0 Z" /></clipPath></defs><g
     transform="matrix(0.31999998,0,0,0.31999998,0,4.7653333e-6)"
     id="g881"><g
       id="g883"><g
         clip-path="url(#clipPath889)"
         id="g885"><g
           transform="scale(2.9810295)"
           id="g891"><path
             id="path893"
             style="fill:#ffffff;fill-opacity:1;fill-rule:nonzero;stroke:none"
             d="M 0,0 H 123 V 143 H 0 Z" /></g></g></g><g
       id="g895"><g
         clip-path="url(#clipPath901)"
         id="g897"><g
           transform="matrix(2.9810295,0,0,2.9810295,1.4905148,1.4905148)"
           id="g903"><path
             id="path905"
             style="fill:#d5e8d4;fill-opacity:1;fill-rule:nonzero;stroke:none"
             d="M 9.3999996,1 H 112.6 c 0.55155,0 1.0978,0.053801 1.63875,0.1614037 0.54095,0.1076023 1.06621,0.2669383 1.57578,0.478008 0.50956,0.2110697 0.99364,0.4698174 1.45226,0.776243 0.45859,0.3064258 0.88289,0.6546418 1.27291,1.0446479 0.39,0.3900058 0.73821,0.8143079 1.04463,1.2729065 0.30643,0.4585986 0.56518,0.9426813 0.77624,1.4522491 0.21107,0.5095677 0.37041,1.0348282 0.47801,1.5757823 C 120.9462,8.3021946 121,8.8484468 121,9.3999996 V 132.60001 c 0,0.55154 -0.0538,1.09779 -0.16141,1.63874 -0.1076,0.54096 -0.26694,1.06621 -0.47801,1.57578 -0.21107,0.50957 -0.46982,0.99365 -0.77625,1.45224 -0.30642,0.4586 -0.65463,0.88292 -1.04463,1.27292 -0.39002,0.39001 -0.81433,0.73822 -1.27292,1.04463 -0.45861,0.30643 -0.94269,0.56517 -1.45225,0.77624 -0.50957,0.21108 -1.03483,0.37041 -1.57578,0.47803 -0.54095,0.10759 -1.0872,0.16139 -1.63875,0.16141 H 9.3999996 c -0.5515528,-2e-5 -1.097805,-0.0538 -1.6387591,-0.16141 -0.5409541,-0.10762 -1.0662151,-0.26695 -1.5757828,-0.47803 -0.5095673,-0.21107 -0.99365,-0.46981 -1.4522486,-0.77623 -0.4585986,-0.30641 -0.8829007,-0.65463 -1.2729065,-1.04464 -0.3900061,-0.39 -0.7382221,-0.81432 -1.0446479,-1.27292 -0.3064256,-0.45859 -0.5651733,-0.94266 -0.776243,-1.45223 C 1.428342,135.30498 1.2690059,134.77971 1.1614035,134.23875 1.0538011,133.6978 0.99999994,133.15155 1,132.60001 V 9.3999996 c -6e-8,-0.5515528 0.053801,-1.097805 0.1614034,-1.6387591 C 1.2690059,7.2202864 1.428342,6.6950254 1.6394117,6.1854577 1.8504814,5.6758904 2.1092291,5.1918077 2.4156547,4.7332091 2.7220805,4.2746105 3.0702965,3.8503084 3.4603026,3.4603026 3.8503084,3.0702965 4.2746105,2.7220805 4.7332091,2.4156547 5.1918077,2.1092291 5.6758904,1.8504814 6.1854582,1.6394117 6.6950259,1.428342 7.2202864,1.269006 7.7612405,1.1614035 8.3021946,1.0538012 8.8484468,1 9.3999996,1 Z" /><path
             id="path907"
             style="fill:none;stroke:#82b366;stroke-width:1;stroke-linecap:butt;stroke-linejoin:miter;stroke-miterlimit:10;stroke-dasharray:none;stroke-opacity:1"
             d="M 9.3999996,1 H 112.6 c 0.55155,0 1.0978,0.053801 1.63875,0.1614037 0.54095,0.1076023 1.06621,0.2669383 1.57578,0.478008 0.50956,0.2110697 0.99364,0.4698174 1.45226,0.776243 0.45859,0.3064258 0.88289,0.6546418 1.27291,1.0446479 0.39,0.3900058 0.73821,0.8143079 1.04463,1.2729065 0.30643,0.4585986 0.56518,0.9426813 0.77624,1.4522491 0.21107,0.5095677 0.37041,1.0348282 0.47801,1.5757823 C 120.9462,8.3021946 121,8.8484468 121,9.3999996 V 132.60001 c 0,0.55154 -0.0538,1.09779 -0.16141,1.63874 -0.1076,0.54096 -0.26694,1.06621 -0.47801,1.57578 -0.21107,0.50957 -0.46982,0.99365 -0.77625,1.45224 -0.30642,0.4586 -0.65463,0.88292 -1.04463,1.27292 -0.39002,0.39001 -0.81433,0.73822 -1.27292,1.04463 -0.45861,0.30643 -0.94269,0.56517 -1.45225,0.77624 -0.50957,0.21108 -1.03483,0.37041 -1.57578,0.47803 -0.54095,0.10759 -1.0872,0.16139 -1.63875,0.16141 H 9.3999996 c -0.5515528,-2e-5 -1.097805,-0.0538 -1.6387591,-0.16141 -0.5409541,-0.10762 -1.0662151,-0.26695 -1.5757828,-0.47803 -0.5095673,-0.21107 -0.99365,-0.46981 -1.4522486,-0.77623 -0.4585986,-0.30641 -0.8829007,-0.65463 -1.2729065,-1.04464 -0.3900061,-0.39 -0.7382221,-0.81432 -1.0446479,-1.27292 -0.3064256,-0.45859 -0.5651733,-0.94266 -0.776243,-1.45223 C 1.428342,135.30498 1.2690059,134.77971 1.1614035,134.23875 1.0538011,133.6978 0.99999994,133.15155 1,132.60001 V 9.3999996 c -6e-8,-0.5515528 0.053801,-1.097805 0.1614034,-1.6387591 C 1.2690059,7.2202864 1.428342,6.6950254 1.6394117,6.1854577 1.8504814,5.6758904 2.1092291,5.1918077 2.4156547,4.7332091 2.7220805,4.2746105 3.0702965,3.8503084 3.4603026,3.4603026 3.8503084,3.0702965 4.2746105,2.7220805 4.7332091,2.4156547 5.1918077,2.1092291 5.6758904,1.8504814 6.1854582,1.6394117 6.6950259,1.428342 7.2202864,1.269006 7.7612405,1.1614035 8.3021946,1.0538012 8.8484468,1 9.3999996,1 Z" /></g><g
           transform="scale(2.9810295)"
           id="g909"><text
             id="text913"
             style="font-variant:normal;font-weight:normal;font-size:15px;font-family:Helvetica;-inkscape-font-specification:Helvetica;writing-mode:lr-tb;fill:#333333;fill-opacity:1;fill-rule:nonzero;stroke:none"
             transform="translate(19.3125,104)"><tspan
               id="tspan911"
               y="0"
               x="0 11.66748 20.009766 24.177246 27.509766 40.004883 43.337402 50.837402 59.179688 63.347168 66.679688 75.021973">Optimization</tspan></text>
</g><g
           transform="matrix(2.9810295,0,0,2.9810295,1.4905148,1.4905148)"
           id="g915"><path
             id="path917"
             style="fill:#fff2cc;fill-opacity:1;fill-rule:nonzero;stroke:none"
             d="m 17,11 h 88 c 0.39397,0 0.78415,0.03843 1.17055,0.115289 0.38639,0.07686 0.76157,0.19067 1.12555,0.341433 0.36397,0.150764 0.70974,0.335584 1.03732,0.554459 0.32757,0.218875 0.63064,0.467601 0.90922,0.746178 0.27857,0.278575 0.5273,0.581648 0.74618,0.909218 0.21886,0.32757 0.40368,0.673344 0.55445,1.037321 0.15076,0.363976 0.26458,0.739163 0.34143,1.125558 C 110.9616,16.215853 110.99999,16.606035 111,17 v 28 c -1e-5,0.393963 -0.0384,0.784145 -0.1153,1.17054 -0.0768,0.386394 -0.19067,0.761581 -0.34143,1.125561 -0.15077,0.363975 -0.33559,0.709747 -0.55445,1.037319 -0.21888,0.327572 -0.46761,0.630642 -0.74618,0.909218 -0.27858,0.278572 -0.58166,0.527298 -0.90923,0.746173 -0.32757,0.218876 -0.67334,0.403695 -1.03732,0.554459 -0.36398,0.150765 -0.73916,0.264576 -1.12555,0.341435 C 105.78415,50.961567 105.39397,51 105,51 H 17 c -0.393965,0 -0.784147,-0.03843 -1.170544,-0.115292 -0.386395,-0.07686 -0.761582,-0.19067 -1.125558,-0.341434 C 14.339921,50.392506 13.994147,50.207687 13.666576,49.988811 13.339007,49.769936 13.035934,49.52121 12.757359,49.242638 12.478782,48.964062 12.230056,48.660988 12.011181,48.333416 11.792306,48.005844 11.607486,47.660072 11.456722,47.296093 11.305958,46.932121 11.192146,46.556934 11.115288,46.17054 11.038428,45.784145 10.999999,45.393963 11,45 V 17 c -10e-7,-0.393965 0.03843,-0.784147 0.115288,-1.170544 0.07686,-0.386395 0.19067,-0.761582 0.341434,-1.125558 0.150764,-0.363977 0.335584,-0.709751 0.554459,-1.037322 0.218875,-0.327569 0.467601,-0.630642 0.746178,-0.909217 0.278575,-0.278577 0.581648,-0.527303 0.909218,-0.746178 0.32757,-0.218875 0.673344,-0.403695 1.037321,-0.554459 0.363976,-0.150763 0.739163,-0.264575 1.125558,-0.341434 C 16.215853,11.038429 16.606035,11 17,11 Z" /><path
             id="path919"
             style="fill:none;stroke:#d6b656;stroke-width:1;stroke-linecap:butt;stroke-linejoin:miter;stroke-miterlimit:10;stroke-dasharray:none;stroke-opacity:1"
             d="m 17,11 h 88 c 0.39397,0 0.78415,0.03843 1.17055,0.115289 0.38639,0.07686 0.76157,0.19067 1.12555,0.341433 0.36397,0.150764 0.70974,0.335584 1.03732,0.554459 0.32757,0.218875 0.63064,0.467601 0.90922,0.746178 0.27857,0.278575 0.5273,0.581648 0.74618,0.909218 0.21886,0.32757 0.40368,0.673344 0.55445,1.037321 0.15076,0.363976 0.26458,0.739163 0.34143,1.125558 C 110.9616,16.215853 110.99999,16.606035 111,17 v 28 c -1e-5,0.393963 -0.0384,0.784145 -0.1153,1.17054 -0.0768,0.386394 -0.19067,0.761581 -0.34143,1.125561 -0.15077,0.363975 -0.33559,0.709747 -0.55445,1.037319 -0.21888,0.327572 -0.46761,0.630642 -0.74618,0.909218 -0.27858,0.278572 -0.58166,0.527298 -0.90923,0.746173 -0.32757,0.218876 -0.67334,0.403695 -1.03732,0.554459 -0.36398,0.150765 -0.73916,0.264576 -1.12555,0.341435 C 105.78415,50.961567 105.39397,51 105,51 H 17 c -0.393965,0 -0.784147,-0.03843 -1.170544,-0.115292 -0.386395,-0.07686 -0.761582,-0.19067 -1.125558,-0.341434 C 14.339921,50.392506 13.994147,50.207687 13.666576,49.988811 13.339007,49.769936 13.035934,49.52121 12.757359,49.242638 12.478782,48.964062 12.230056,48.660988 12.011181,48.333416 11.792306,48.005844 11.607486,47.660072 11.456722,47.296093 11.305958,46.932121 11.192146,46.556934 11.115288,46.17054 11.038428,45.784145 10.999999,45.393963 11,45 V 17 c -10e-7,-0.393965 0.03843,-0.784147 0.115288,-1.170544 0.07686,-0.386395 0.19067,-0.761582 0.341434,-1.125558 0.150764,-0.363977 0.335584,-0.709751 0.554459,-1.037322 0.218875,-0.327569 0.467601,-0.630642 0.746178,-0.909217 0.278575,-0.278577 0.581648,-0.527303 0.909218,-0.746178 0.32757,-0.218875 0.673344,-0.403695 1.037321,-0.554459 0.363976,-0.150763 0.739163,-0.264575 1.125558,-0.341434 C 16.215853,11.038429 16.606035,11 17,11 Z" /></g><g
           transform="scale(2.9810295)"
           id="g921"><text
             id="text925"
             style="font-variant:normal;font-weight:normal;font-size:15px;font-family:Helvetica;-inkscape-font-specification:Helvetica;writing-mode:lr-tb;fill:#333333;fill-opacity:1;fill-rule:nonzero;stroke:none"
             transform="translate(28.0625,37)"><tspan
               id="tspan923"
               y="0"
               x="0 10.004883 18.347168 23.342285 28.337402 36.679688 45.021973 53.364258 57.531738">Surrogate</tspan></text>
</g></g></g></g></svg>