<?xml version="1.0" encoding="UTF-8" standalone="no"?>
<svg
   xmlns:dc="http://purl.org/dc/elements/1.1/"
   xmlns:cc="http://creativecommons.org/ns#"
   xmlns:rdf="http://www.w3.org/1999/02/22-rdf-syntax-ns#"
   xmlns:svg="http://www.w3.org/2000/svg"
   xmlns="http://www.w3.org/2000/svg"
   viewBox="0 0 385.28 296"
   height="296"
   width="385.28"
   xml:space="preserve"
   id="svg7000"
   version="1.1"><metadata
     id="metadata7006"><rdf:RDF><cc:Work
         rdf:about=""><dc:format>image/svg+xml</dc:format><dc:type
           rdf:resource="http://purl.org/dc/dcmitype/StillImage" /><dc:title></dc:title></cc:Work></rdf:RDF></metadata><defs
     id="defs7004"><clipPath
       id="clipPath7016"
       clipPathUnits="userSpaceOnUse"><path
         style="clip-rule:evenodd"
         id="path7014"
         d="M 0,0 H 1204.1666 V 922.59528 H 0 Z" /></clipPath><clipPath
       id="clipPath7028"
       clipPathUnits="userSpaceOnUse"><path
         style="clip-rule:evenodd"
         id="path7026"
         d="M 1.7972636,2.9954393 H 1196.3784 V 919.59981 H 1.7972636 Z" /></clipPath><clipPath
       id="clipPath7088"
       clipPathUnits="userSpaceOnUse"><path
         style="clip-rule:evenodd"
         id="path7086"
         d="M 174.61189,54.878704 H 1125.0924 V 746.65556 H 174.61189 Z" /></clipPath><clipPath
       id="clipPath7112"
       clipPathUnits="userSpaceOnUse"><path
         style="clip-rule:evenodd"
         id="path7110"
         d="M 1.7972636,2.9954393 H 1196.3784 V 919.59981 H 1.7972636 Z" /></clipPath><clipPath
       id="clipPath7228"
       clipPathUnits="userSpaceOnUse"><path
         style="clip-rule:evenodd"
         id="path7226"
         d="M 0,0 H 1204.1666 V 922.59528 H 0 Z" /></clipPath></defs><g
     transform="matrix(0.31999998,0,0,0.31999998,0,7.4e-6)"
     id="g7008"><g
       id="g7010"><g
         clip-path="url(#clipPath7016)"
         id="g7012"><g
           transform="scale(2.9954393)"
           id="g7018"><path
             id="path7020"
             style="fill:#ffffff;fill-opacity:1;fill-rule:nonzero;stroke:none"
             d="M 0,0 H 402 V 308 H 0 Z" /></g></g></g><g
       id="g7022"><g
         clip-path="url(#clipPath7028)"
         id="g7024"><g
           transform="matrix(2.160183,0,0,2.1618028,1.7972636,2.9954393)"
           id="g7030"><path
             id="path7032"
             style="fill:#ffffff;fill-opacity:1;fill-rule:nonzero;stroke:none"
             d="M 0,0.40348816 H 556.55487 V 423.99999 L 0,423.99999 Z" /></g><g
           transform="matrix(2.160183,0,0,2.1618028,362.159,-161.30157)"
           id="g7034"><path
             id="path7036"
             style="fill:#000000;fill-opacity:1;fill-rule:nonzero;stroke:none"
             d="M 0,100 V 420" /><path
             id="path7038"
             style="fill:none;stroke:#eeeeee;stroke-width:1;stroke-linecap:butt;stroke-linejoin:miter;stroke-miterlimit:10;stroke-dasharray:none;stroke-opacity:1"
             d="M 0,100 V 420" /></g><g
           transform="matrix(2.160183,0,0,2.1618028,617.88147,-161.30157)"
           id="g7040"><path
             id="path7042"
             style="fill:#000000;fill-opacity:1;fill-rule:nonzero;stroke:none"
             d="M 0,100 V 420" /><path
             id="path7044"
             style="fill:none;stroke:#eeeeee;stroke-width:1;stroke-linecap:butt;stroke-linejoin:miter;stroke-miterlimit:10;stroke-dasharray:none;stroke-opacity:1"
             d="M 0,100 V 420" /></g><g
           transform="matrix(2.160183,0,0,2.1618028,873.62549,-161.30157)"
           id="g7046"><path
             id="path7048"
             style="fill:#000000;fill-opacity:1;fill-rule:nonzero;stroke:none"
             d="M 0,100 V 420" /><path
             id="path7050"
             style="fill:none;stroke:#eeeeee;stroke-width:1;stroke-linecap:butt;stroke-linejoin:miter;stroke-miterlimit:10;stroke-dasharray:none;stroke-opacity:1"
             d="M 0,100 V 420" /></g><g
           transform="matrix(2.160183,0,0,2.1618028,1.7972636,633.44196)"
           id="g7052"><path
             id="path7054"
             style="fill:#000000;fill-opacity:1;fill-rule:nonzero;stroke:none"
             d="M 80,0 H 520" /><path
             id="path7056"
             style="fill:none;stroke:#eeeeee;stroke-width:1;stroke-linecap:butt;stroke-linejoin:miter;stroke-miterlimit:10;stroke-dasharray:none;stroke-opacity:1"
             d="M 80,0 H 520" /></g><g
           transform="matrix(2.160183,0,0,2.1618028,1.7972636,500.49112)"
           id="g7058"><path
             id="path7060"
             style="fill:#000000;fill-opacity:1;fill-rule:nonzero;stroke:none"
             d="M 80,0 H 520" /><path
             id="path7062"
             style="fill:none;stroke:#eeeeee;stroke-width:1;stroke-linecap:butt;stroke-linejoin:miter;stroke-miterlimit:10;stroke-dasharray:none;stroke-opacity:1"
             d="M 80,0 H 520" /></g><g
           transform="matrix(2.160183,0,0,2.1618028,1.7972636,367.54025)"
           id="g7064"><path
             id="path7066"
             style="fill:#000000;fill-opacity:1;fill-rule:nonzero;stroke:none"
             d="M 80,0 H 520" /><path
             id="path7068"
             style="fill:none;stroke:#eeeeee;stroke-width:1;stroke-linecap:butt;stroke-linejoin:miter;stroke-miterlimit:10;stroke-dasharray:none;stroke-opacity:1"
             d="M 80,0 H 520" /></g><g
           transform="matrix(2.160183,0,0,2.1618028,1.7972636,234.58939)"
           id="g7070"><path
             id="path7072"
             style="fill:#000000;fill-opacity:1;fill-rule:nonzero;stroke:none"
             d="M 80,0 H 520" /><path
             id="path7074"
             style="fill:none;stroke:#eeeeee;stroke-width:1;stroke-linecap:butt;stroke-linejoin:miter;stroke-miterlimit:10;stroke-dasharray:none;stroke-opacity:1"
             d="M 80,0 H 520" /></g><g
           transform="matrix(2.160183,0,0,2.1618028,1.7972636,101.63849)"
           id="g7076"><path
             id="path7078"
             style="fill:#000000;fill-opacity:1;fill-rule:nonzero;stroke:none"
             d="M 80,0 H 520" /><path
             id="path7080"
             style="fill:none;stroke:#eeeeee;stroke-width:1;stroke-linecap:butt;stroke-linejoin:miter;stroke-miterlimit:10;stroke-dasharray:none;stroke-opacity:1"
             d="M 80,0 H 520" /></g></g></g><g
       id="g7082"><g
         clip-path="url(#clipPath7088)"
         id="g7084"><g
           transform="matrix(2.160183,0,0,2.1618028,745.74268,633.44202)"
           id="g7090"><path
             id="path7092"
             style="fill:#3333ff;fill-opacity:1;fill-rule:nonzero;stroke:none"
             d="M 4.5,0 C 4.4999995,0.59673703 4.385819,1.1707621 4.1574574,1.7220752 3.929096,2.2733884 3.6039369,2.7600234 3.1819801,3.1819801 2.7600234,3.6039369 2.2733884,3.929096 1.7220752,4.1574574 1.1707621,4.385819 0.59673703,4.4999995 0,4.5 -0.59673703,4.4999995 -1.1707621,4.385819 -1.7220752,4.1574574 -2.2733884,3.929096 -2.7600234,3.6039369 -3.1819801,3.1819801 -3.6039369,2.7600234 -3.929096,2.2733884 -4.1574574,1.7220752 -4.385819,1.1707621 -4.4999995,0.59673703 -4.5,0 c 5e-7,-0.59673703 0.114181,-1.1707621 0.3425426,-1.7220752 0.2283614,-0.5513132 0.5535205,-1.0379482 0.9754773,-1.4599049 0.4219567,-0.4219568 0.9085917,-0.7471159 1.4599049,-0.9754773 C -1.1707621,-4.385819 -0.59673703,-4.4999995 0,-4.5 c 0.59673703,5e-7 1.1707621,0.114181 1.7220752,0.3425426 0.5513132,0.2283614 1.0379482,0.5535205 1.4599049,0.9754773 0.4219568,0.4219567 0.7471159,0.9085917 0.9754773,1.4599049 C 4.385819,-1.1707621 4.4999995,-0.59673703 4.5,0 Z" /></g><g
           transform="matrix(2.160183,0,0,2.1618028,234.27615,101.6385)"
           id="g7094"><path
             id="path7096"
             style="fill:#3333ff;fill-opacity:1;fill-rule:nonzero;stroke:none"
             d="M 4.5,0 C 4.4999995,0.59673703 4.385819,1.1707621 4.1574574,1.7220752 3.929096,2.2733884 3.6039369,2.7600234 3.1819801,3.1819801 2.7600234,3.6039369 2.2733884,3.929096 1.7220752,4.1574574 1.1707621,4.385819 0.59673703,4.4999995 0,4.5 -0.59673703,4.4999995 -1.1707621,4.385819 -1.7220752,4.1574574 -2.2733884,3.929096 -2.7600234,3.6039369 -3.1819801,3.1819801 -3.6039369,2.7600234 -3.929096,2.2733884 -4.1574574,1.7220752 -4.385819,1.1707621 -4.4999995,0.59673703 -4.5,0 c 5e-7,-0.59673703 0.114181,-1.1707621 0.3425426,-1.7220752 0.2283614,-0.5513132 0.5535205,-1.0379482 0.9754773,-1.4599049 0.4219567,-0.4219568 0.9085917,-0.7471159 1.4599049,-0.9754773 C -1.1707621,-4.385819 -0.59673703,-4.4999995 0,-4.5 c 0.59673703,5e-7 1.1707621,0.114181 1.7220752,0.3425426 0.5513132,0.2283614 1.0379482,0.5535205 1.4599049,0.9754773 0.4219568,0.4219567 0.7471159,0.9085917 0.9754773,1.4599049 C 4.385819,-1.1707621 4.4999995,-0.59673703 4.5,0 Z" /></g><g
           transform="matrix(2.160183,0,0,2.1618028,298.21756,434.01569)"
           id="g7098"><path
             id="path7100"
             style="fill:#3333ff;fill-opacity:1;fill-rule:nonzero;stroke:none"
             d="M 4.5,0 C 4.4999995,0.59673703 4.385819,1.1707621 4.1574574,1.7220752 3.929096,2.2733884 3.6039369,2.7600234 3.1819801,3.1819801 2.7600234,3.6039369 2.2733884,3.929096 1.7220752,4.1574574 1.1707621,4.385819 0.59673703,4.4999995 0,4.5 -0.59673703,4.4999995 -1.1707621,4.385819 -1.7220752,4.1574574 -2.2733884,3.929096 -2.7600234,3.6039369 -3.1819801,3.1819801 -3.6039369,2.7600234 -3.929096,2.2733884 -4.1574574,1.7220752 -4.385819,1.1707621 -4.4999995,0.59673703 -4.5,0 c 5e-7,-0.59673703 0.114181,-1.1707621 0.3425426,-1.7220752 0.2283614,-0.5513132 0.5535205,-1.0379482 0.9754773,-1.4599049 0.4219567,-0.4219568 0.9085917,-0.7471159 1.4599049,-0.9754773 C -1.1707621,-4.385819 -0.59673703,-4.4999995 0,-4.5 c 0.59673703,5e-7 1.1707621,0.114181 1.7220752,0.3425426 0.5513132,0.2283614 1.0379482,0.5535205 1.4599049,0.9754773 0.4219568,0.4219567 0.7471159,0.9085917 0.9754773,1.4599049 C 4.385819,-1.1707621 4.4999995,-0.59673703 4.5,0 Z" /></g><g
           transform="matrix(2.160183,0,0,2.1618028,1065.4065,699.91742)"
           id="g7102"><path
             id="path7104"
             style="fill:#3333ff;fill-opacity:1;fill-rule:nonzero;stroke:none"
             d="M 4.5,0 C 4.4999995,0.59673703 4.385819,1.1707621 4.1574574,1.7220752 3.929096,2.2733884 3.6039369,2.7600234 3.1819801,3.1819801 2.7600234,3.6039369 2.2733884,3.929096 1.7220752,4.1574574 1.1707621,4.385819 0.59673703,4.4999995 0,4.5 -0.59673703,4.4999995 -1.1707621,4.385819 -1.7220752,4.1574574 -2.2733884,3.929096 -2.7600234,3.6039369 -3.1819801,3.1819801 -3.6039369,2.7600234 -3.929096,2.2733884 -4.1574574,1.7220752 -4.385819,1.1707621 -4.4999995,0.59673703 -4.5,0 c 5e-7,-0.59673703 0.114181,-1.1707621 0.3425426,-1.7220752 0.2283614,-0.5513132 0.5535205,-1.0379482 0.9754773,-1.4599049 0.4219567,-0.4219568 0.9085917,-0.7471159 1.4599049,-0.9754773 C -1.1707621,-4.385819 -0.59673703,-4.4999995 0,-4.5 c 0.59673703,5e-7 1.1707621,0.114181 1.7220752,0.3425426 0.5513132,0.2283614 1.0379482,0.5535205 1.4599049,0.9754773 0.4219568,0.4219567 0.7471159,0.9085917 0.9754773,1.4599049 C 4.385819,-1.1707621 4.4999995,-0.59673703 4.5,0 Z" /></g></g></g><g
       id="g7106"><g
         clip-path="url(#clipPath7112)"
         id="g7108"><g
           transform="matrix(2.160183,0,0,2.1618028,362.159,-161.30157)"
           id="g7114"><text
             id="text7118"
             style="font-variant:normal;font-weight:normal;font-size:18px;font-family:'Open Sans';-inkscape-font-specification:OpenSans-Regular;writing-mode:lr-tb;fill:#444444;fill-opacity:1;fill-rule:nonzero;stroke:none"
             transform="translate(-12.687012,439)"><tspan
               id="tspan7116"
               y="0"
               x="0 10.291992 15.082031">0.5</tspan></text>
</g><g
           transform="matrix(2.160183,0,0,2.1618028,617.88147,-161.30157)"
           id="g7120"><text
             id="text7124"
             style="font-variant:normal;font-weight:normal;font-size:18px;font-family:'Open Sans';-inkscape-font-specification:OpenSans-Regular;writing-mode:lr-tb;fill:#444444;fill-opacity:1;fill-rule:nonzero;stroke:none"
             transform="translate(-5.1459961,439)"><tspan
               id="tspan7122"
               y="0"
               x="0">1</tspan></text>
</g><g
           transform="matrix(2.160183,0,0,2.1618028,873.62549,-161.30157)"
           id="g7126"><text
             id="text7130"
             style="font-variant:normal;font-weight:normal;font-size:18px;font-family:'Open Sans';-inkscape-font-specification:OpenSans-Regular;writing-mode:lr-tb;fill:#444444;fill-opacity:1;fill-rule:nonzero;stroke:none"
             transform="translate(-12.687012,439)"><tspan
               id="tspan7128"
               y="0"
               x="0 10.291992 15.082031">1.5</tspan></text>
</g><g
           transform="matrix(2.160183,0,0,2.1618028,1.7972636,633.44196)"
           id="g7132"><text
             id="text7136"
             style="font-variant:normal;font-weight:normal;font-size:18px;font-family:'Open Sans';-inkscape-font-specification:OpenSans-Regular;writing-mode:lr-tb;fill:#444444;fill-opacity:1;fill-rule:nonzero;stroke:none"
             transform="translate(53.625977,6.3000002)"><tspan
               id="tspan7134"
               y="0"
               x="0 10.291992 15.082031">0.5</tspan></text>
</g><g
           transform="matrix(2.160183,0,0,2.1618028,1.7972636,500.49112)"
           id="g7138"><text
             id="text7142"
             style="font-variant:normal;font-weight:normal;font-size:18px;font-family:'Open Sans';-inkscape-font-specification:OpenSans-Regular;writing-mode:lr-tb;fill:#444444;fill-opacity:1;fill-rule:nonzero;stroke:none"
             transform="translate(68.708008,6.3000002)"><tspan
               id="tspan7140"
               y="0"
               x="0">1</tspan></text>
</g><g
           transform="matrix(2.160183,0,0,2.1618028,1.7972636,367.54025)"
           id="g7144"><text
             id="text7148"
             style="font-variant:normal;font-weight:normal;font-size:18px;font-family:'Open Sans';-inkscape-font-specification:OpenSans-Regular;writing-mode:lr-tb;fill:#444444;fill-opacity:1;fill-rule:nonzero;stroke:none"
             transform="translate(53.625977,6.3000002)"><tspan
               id="tspan7146"
               y="0"
               x="0 10.291992 15.082031">1.5</tspan></text>
</g><g
           transform="matrix(2.160183,0,0,2.1618028,1.7972636,234.58939)"
           id="g7150"><text
             id="text7154"
             style="font-variant:normal;font-weight:normal;font-size:18px;font-family:'Open Sans';-inkscape-font-specification:OpenSans-Regular;writing-mode:lr-tb;fill:#444444;fill-opacity:1;fill-rule:nonzero;stroke:none"
             transform="translate(68.708008,6.3000002)"><tspan
               id="tspan7152"
               y="0"
               x="0">2</tspan></text>
</g><g
           transform="matrix(2.160183,0,0,2.1618028,1.7972636,101.63849)"
           id="g7156"><text
             id="text7160"
             style="font-variant:normal;font-weight:normal;font-size:18px;font-family:'Open Sans';-inkscape-font-specification:OpenSans-Regular;writing-mode:lr-tb;fill:#444444;fill-opacity:1;fill-rule:nonzero;stroke:none"
             transform="translate(53.625977,6.3000002)"><tspan
               id="tspan7158"
               y="0"
               x="0 10.291992 15.082031">2.5</tspan></text>
</g><g
           transform="matrix(0.04013449,0,0,-0.04016458,601.42731,861.30786)"
           id="g7162"><path
             id="path7164"
             style="fill:#444444;fill-opacity:1;fill-rule:nonzero;stroke:none"
             d="m 118,-162 c 1.33334,0 3.33334,-0.66667 6,-2 2.66666,-1.33333 6.33333,-2.33333 11,-3 4.66667,-0.66667 8.66667,-1 12,-1 8.66667,0 16.66667,4.33333 24,13 7.33333,8.66667 12.66667,18.33333 16,29 6.66667,18 18,69 34,153 16,84 31.33333,164 46,240 14.66666,76 22,114.33334 22,115 v 3 h -47 c -31.33333,0 -48,0.66666 -50,2 -2.66667,2 -4,5.33334 -4,10 l 7,28 c 1.33333,3.33334 4,5 8,5 4,0 19.66667,0.33334 47,1 32,0 48,0.33334 48,1 0,1.33334 3,18 9,50 6,32 10,51.33331 12,58 24.66666,110 73.33331,165 146,165 24.66666,-1.33331 45,-8.66669 61,-22 16,-13.33331 24,-31 24,-53 0,-24 -7,-41.33331 -21,-52 -14,-10.66669 -28,-16.33331 -42,-17 -29.33334,0 -44,14 -44,42 0,12.66669 3.66666,23.66669 11,33 7.33334,9.33331 15.33334,16.33331 24,21 l 9,5 c -10.66666,4 -20.66666,6 -30,6 -8,0 -15.66666,-3.33331 -23,-10 -7.33334,-6.66669 -12.33334,-16 -15,-28 -4.66666,-19.33331 -10,-45.33331 -16,-78 -6,-32.66669 -11.33334,-60.33334 -16,-83 -4.66666,-22.66666 -7,-34.66666 -7,-36 0,-1.33334 18.33334,-2 55,-2 30,0 47.33334,-0.33334 52,-1 4.66666,-0.66666 8.33334,-2.66666 11,-6 0.66666,-2.66666 0,-8.33334 -2,-17 -2,-8.66666 -3.66666,-14 -5,-16 -1.33334,-3.33334 -4.33334,-5 -9,-5 -4.66666,0 -22.66666,-0.33334 -54,-1 H 372 L 349,263 C 317,97.666656 294.66666,-5.6666641 282,-47 c -18,-56.66667 -41.33333,-98.66667 -70,-126 -24.66667,-21.33333 -49,-32 -73,-32 -21.33334,0 -40.666664,6.33333 -58,19 -17.333336,12.66667 -26,30.66667 -26,54 0,24.66667 7,42.666664 21,54 14,11.333336 28,17 42,17 29.33333,0 44,-14 44,-42 0,-12.66666 -3.66667,-23.66666 -11,-33 -7.33333,-9.33333 -15.33333,-16.33333 -24,-21 z" /><path
             id="path7166"
             style="fill:none;stroke:#444444;stroke-width:1;stroke-linecap:butt;stroke-linejoin:miter;stroke-miterlimit:10;stroke-dasharray:none;stroke-opacity:1"
             d="m 118,-162 c 1.33334,0 3.33334,-0.66667 6,-2 2.66666,-1.33333 6.33333,-2.33333 11,-3 4.66667,-0.66667 8.66667,-1 12,-1 8.66667,0 16.66667,4.33333 24,13 7.33333,8.66667 12.66667,18.33333 16,29 6.66667,18 18,69 34,153 16,84 31.33333,164 46,240 14.66666,76 22,114.33334 22,115 v 3 h -47 c -31.33333,0 -48,0.66666 -50,2 -2.66667,2 -4,5.33334 -4,10 l 7,28 c 1.33333,3.33334 4,5 8,5 4,0 19.66667,0.33334 47,1 32,0 48,0.33334 48,1 0,1.33334 3,18 9,50 6,32 10,51.33331 12,58 24.66666,110 73.33331,165 146,165 24.66666,-1.33331 45,-8.66669 61,-22 16,-13.33331 24,-31 24,-53 0,-24 -7,-41.33331 -21,-52 -14,-10.66669 -28,-16.33331 -42,-17 -29.33334,0 -44,14 -44,42 0,12.66669 3.66666,23.66669 11,33 7.33334,9.33331 15.33334,16.33331 24,21 l 9,5 c -10.66666,4 -20.66666,6 -30,6 -8,0 -15.66666,-3.33331 -23,-10 -7.33334,-6.66669 -12.33334,-16 -15,-28 -4.66666,-19.33331 -10,-45.33331 -16,-78 -6,-32.66669 -11.33334,-60.33334 -16,-83 -4.66666,-22.66666 -7,-34.66666 -7,-36 0,-1.33334 18.33334,-2 55,-2 30,0 47.33334,-0.33334 52,-1 4.66666,-0.66666 8.33334,-2.66666 11,-6 0.66666,-2.66666 0,-8.33334 -2,-17 -2,-8.66666 -3.66666,-14 -5,-16 -1.33334,-3.33334 -4.33334,-5 -9,-5 -4.66666,0 -22.66666,-0.33334 -54,-1 H 372 L 349,263 C 317,97.666656 294.66666,-5.6666641 282,-47 c -18,-56.66667 -41.33333,-98.66667 -70,-126 -24.66667,-21.33333 -49,-32 -73,-32 -21.33334,0 -40.666664,6.33333 -58,19 -17.333336,12.66667 -26,30.66667 -26,54 0,24.66667 7,42.666664 21,54 14,11.333336 28,17 42,17 29.33333,0 44,-14 44,-42 0,-12.66666 -3.66667,-23.66666 -11,-33 -7.33333,-9.33333 -15.33333,-16.33333 -24,-21 z" /></g><g
           transform="matrix(0.02837508,0,0,-0.02839636,621.09125,867.35632)"
           id="g7168"><path
             id="path7170"
             style="fill:#444444;fill-opacity:1;fill-rule:nonzero;stroke:none"
             d="m 213,578 -13,-5 c -9.33333,-3.33331 -22.66667,-6.66669 -40,-10 -17.33333,-3.33331 -36.66666,-5.66669 -58,-7 H 83 v 46 h 19 c 31.33333,1.33331 60.33333,6.33331 87,15 26.66667,8.66669 45.33333,16.66669 56,24 10.66667,7.33331 20,14.66669 28,22 1.33334,2 5.33334,3 12,3 6,0 11.66666,-2 17,-6 V 361 l 1,-300 c 4.66666,-4.666668 8.66666,-7.666668 12,-9 3.33334,-1.333332 11.33334,-2.666668 24,-4 12.66666,-1.333332 33.33334,-2 62,-2 h 26 V 0 H 416 C 402,2 349,3 257,3 166.33333,3 114,2 100,0 H 88 v 46 h 26 c 14.66667,0 27.33333,0 38,0 10.66667,0 19,0.333332 25,1 6,0.666668 11.33333,1.666668 16,3 4.66667,1.333332 7.33333,2 8,2 0.66667,0 2.66667,1.666668 6,5 3.33333,3.333332 5.33333,4.666668 6,4 z" /><path
             id="path7172"
             style="fill:none;stroke:#444444;stroke-width:1;stroke-linecap:butt;stroke-linejoin:miter;stroke-miterlimit:10;stroke-dasharray:none;stroke-opacity:1"
             d="m 213,578 -13,-5 c -9.33333,-3.33331 -22.66667,-6.66669 -40,-10 -17.33333,-3.33331 -36.66666,-5.66669 -58,-7 H 83 v 46 h 19 c 31.33333,1.33331 60.33333,6.33331 87,15 26.66667,8.66669 45.33333,16.66669 56,24 10.66667,7.33331 20,14.66669 28,22 1.33334,2 5.33334,3 12,3 6,0 11.66666,-2 17,-6 V 361 l 1,-300 c 4.66666,-4.666668 8.66666,-7.666668 12,-9 3.33334,-1.333332 11.33334,-2.666668 24,-4 12.66666,-1.333332 33.33334,-2 62,-2 h 26 V 0 H 416 C 402,2 349,3 257,3 166.33333,3 114,2 100,0 H 88 v 46 h 26 c 14.66667,0 27.33333,0 38,0 10.66667,0 19,0.333332 25,1 6,0.666668 11.33333,1.666668 16,3 4.66667,1.333332 7.33333,2 8,2 0.66667,0 2.66667,1.666668 6,5 3.33333,3.333332 5.33333,4.666668 6,4 z" /></g><g
           transform="matrix(0.04013449,0,0,-0.04016458,639.31427,861.30786)"
           id="g7174"><path
             id="path7176"
             style="fill:#444444;fill-opacity:1;fill-rule:nonzero;stroke:none"
             d="m 94,250 c 0,46 3.333336,89.66666 10,131 6.66666,41.33334 14.33334,77 23,107 8.66667,30 21,59.33331 37,88 16,28.66669 28.66667,51 38,67 9.33333,16 23.33333,33.33331 42,52 18.66666,18.66669 29.66666,30 33,34 3.33334,4 11.66666,11 25,21 h 13 4 c 9.33334,0 14,-3 14,-9 0,-2 -5.66666,-9 -17,-21 -11.33334,-12 -25,-29.66669 -41,-53 -16,-23.33331 -32.33333,-52 -49,-86 -16.66667,-34 -30.66667,-80 -42,-138 -11.33333,-58 -17,-122.33331 -17,-193 0,-70.66667 5.66667,-134.66666 17,-192 11.33333,-57.33333588 25,-103.666664 41,-139 16,-35.33334 32.33334,-64 49,-86 16.66666,-22 30.66666,-39.66667 42,-53 11.33334,-13.33333 17,-20.33333 17,-21 0,-6 -5,-9 -15,-9 h -3 -13 l -28,24 C 211.33333,-169.33333 165.66667,-98.666672 137,-14 108.33333,70.666672 94,158.66666 94,250 Z" /><path
             id="path7178"
             style="fill:none;stroke:#444444;stroke-width:1;stroke-linecap:butt;stroke-linejoin:miter;stroke-miterlimit:10;stroke-dasharray:none;stroke-opacity:1"
             d="m 94,250 c 0,46 3.333336,89.66666 10,131 6.66666,41.33334 14.33334,77 23,107 8.66667,30 21,59.33331 37,88 16,28.66669 28.66667,51 38,67 9.33333,16 23.33333,33.33331 42,52 18.66666,18.66669 29.66666,30 33,34 3.33334,4 11.66666,11 25,21 h 13 4 c 9.33334,0 14,-3 14,-9 0,-2 -5.66666,-9 -17,-21 -11.33334,-12 -25,-29.66669 -41,-53 -16,-23.33331 -32.33333,-52 -49,-86 -16.66667,-34 -30.66667,-80 -42,-138 -11.33333,-58 -17,-122.33331 -17,-193 0,-70.66667 5.66667,-134.66666 17,-192 11.33333,-57.33333588 25,-103.666664 41,-139 16,-35.33334 32.33334,-64 49,-86 16.66666,-22 30.66666,-39.66667 42,-53 11.33334,-13.33333 17,-20.33333 17,-21 0,-6 -5,-9 -15,-9 h -3 -13 l -28,24 C 211.33333,-169.33333 165.66667,-98.666672 137,-14 108.33333,70.666672 94,158.66666 94,250 Z" /></g><g
           transform="matrix(0.04013449,0,0,-0.04016458,654.92657,861.30786)"
           id="g7180"><path
             id="path7182"
             style="fill:#444444;fill-opacity:1;fill-rule:nonzero;stroke:none"
             d="m 52,289 c 4.666668,28 22.666664,60.33334 54,97 31.33333,36.66666 70,55.33334 116,56 23.33333,0 44.66666,-6 64,-18 19.33334,-12 33.66666,-27 43,-45 28,42 61.66666,63 101,63 24.66666,0 46,-7.33334 64,-22 18,-14.66666 27.33331,-34.33334 28,-59 0,-19.33334 -4.66669,-35 -14,-47 -9.33334,-12 -18.33334,-19.33334 -27,-22 -8.66666,-2.66666 -16.33334,-4 -23,-4 -12.66666,0 -23,3.66666 -31,11 -8,7.33334 -12,17 -12,29 0,30.66666 16.66666,51.66666 50,63 -7.33334,8.66666 -20.66666,13 -40,13 -8.66666,0 -15,-0.66666 -19,-2 -25.33334,-10.66666 -44,-32.66666 -56,-66 -40,-147.33334 -60,-233.33333 -60,-258 0,-18.666668 5.33334,-32 16,-40 10.66666,-8 22.33334,-12 35,-12 24.66666,0 49,11 73,33 24,22 40.33334,49 49,81 2,6.66667 4,10.33333 6,11 2,0.66667 7.33334,1.33333 16,2 h 4 c 10,0 15,-2.66667 15,-8 0,-0.66667 -0.66666,-4.33333 -2,-11 C 491.33334,96 470.66666,62.333336 440,33 409.33334,3.666666 373.66666,-11 333,-11 286.33334,-11 251,10 227,52 199.66667,10.666664 168.33334,-10 133,-10 h -6 C 94.333328,-10 71,-1.333334 57,16 43,33.333336 35.666668,51.666664 35,71 c 0,21.333336 6.333332,38.66666 19,52 12.666664,13.33333 27.666664,20 45,20 28.66667,0 43,-14 43,-42 C 142,87.666664 138,76 130,66 122,56 114.33334,49.333332 107,46 99.666664,42.666668 95.333336,41 94,41 l -3,-1 c 0,-0.666668 2,-2 6,-4 4,-2 9.33334,-4.333334 16,-7 6.66666,-2.666666 13,-3.666666 19,-3 24,0 44.66667,15 62,45 6,10.666664 13.66667,33.33333 23,68 9.33333,34.66667 18.66667,70.66666 28,108 9.33333,37.33334 14.66666,59.33334 16,66 3.33334,18 5,31 5,39 0,18.66666 -5,32 -15,40 -10,8 -21.33333,12 -34,12 -26.66667,0 -51.66667,-10.66666 -75,-32 -23.33334,-21.33334 -39.66666,-48.66666 -49,-82 -1.333336,-6 -3,-9.33334 -5,-10 -2,-0.66666 -7.333336,-1.33334 -16,-2 H 58 c -4,4 -6,7.66666 -6,11 z" /><path
             id="path7184"
             style="fill:none;stroke:#444444;stroke-width:1;stroke-linecap:butt;stroke-linejoin:miter;stroke-miterlimit:10;stroke-dasharray:none;stroke-opacity:1"
             d="m 52,289 c 4.666668,28 22.666664,60.33334 54,97 31.33333,36.66666 70,55.33334 116,56 23.33333,0 44.66666,-6 64,-18 19.33334,-12 33.66666,-27 43,-45 28,42 61.66666,63 101,63 24.66666,0 46,-7.33334 64,-22 18,-14.66666 27.33331,-34.33334 28,-59 0,-19.33334 -4.66669,-35 -14,-47 -9.33334,-12 -18.33334,-19.33334 -27,-22 -8.66666,-2.66666 -16.33334,-4 -23,-4 -12.66666,0 -23,3.66666 -31,11 -8,7.33334 -12,17 -12,29 0,30.66666 16.66666,51.66666 50,63 -7.33334,8.66666 -20.66666,13 -40,13 -8.66666,0 -15,-0.66666 -19,-2 -25.33334,-10.66666 -44,-32.66666 -56,-66 -40,-147.33334 -60,-233.33333 -60,-258 0,-18.666668 5.33334,-32 16,-40 10.66666,-8 22.33334,-12 35,-12 24.66666,0 49,11 73,33 24,22 40.33334,49 49,81 2,6.66667 4,10.33333 6,11 2,0.66667 7.33334,1.33333 16,2 h 4 c 10,0 15,-2.66667 15,-8 0,-0.66667 -0.66666,-4.33333 -2,-11 C 491.33334,96 470.66666,62.333336 440,33 409.33334,3.666666 373.66666,-11 333,-11 286.33334,-11 251,10 227,52 199.66667,10.666664 168.33334,-10 133,-10 h -6 C 94.333328,-10 71,-1.333334 57,16 43,33.333336 35.666668,51.666664 35,71 c 0,21.333336 6.333332,38.66666 19,52 12.666664,13.33333 27.666664,20 45,20 28.66667,0 43,-14 43,-42 C 142,87.666664 138,76 130,66 122,56 114.33334,49.333332 107,46 99.666664,42.666668 95.333336,41 94,41 l -3,-1 c 0,-0.666668 2,-2 6,-4 4,-2 9.33334,-4.333334 16,-7 6.66666,-2.666666 13,-3.666666 19,-3 24,0 44.66667,15 62,45 6,10.666664 13.66667,33.33333 23,68 9.33333,34.66667 18.66667,70.66666 28,108 9.33333,37.33334 14.66666,59.33334 16,66 3.33334,18 5,31 5,39 0,18.66666 -5,32 -15,40 -10,8 -21.33333,12 -34,12 -26.66667,0 -51.66667,-10.66666 -75,-32 -23.33334,-21.33334 -39.66666,-48.66666 -49,-82 -1.333336,-6 -3,-9.33334 -5,-10 -2,-0.66666 -7.333336,-1.33334 -16,-2 H 58 c -4,4 -6,7.66666 -6,11 z" /></g><g
           transform="matrix(0.04013449,0,0,-0.04016458,677.92365,861.30786)"
           id="g7186"><path
             id="path7188"
             style="fill:#444444;fill-opacity:1;fill-rule:nonzero;stroke:none"
             d="m 60,749 4,1 c 3.333336,0 6.666664,0 10,0 h 12 l 28,-24 c 62.66667,-56.66669 108.33333,-127.33331 137,-212 28.66666,-84.66669 43,-172.66666 43,-264 0,-45.33334 -3.33334,-89 -10,-131 -6.66666,-42 -14.33334,-77.666664 -23,-107 -8.66667,-29.333334 -21,-58.666664 -37,-88 -16,-29.33334 -28.66667,-51.66666 -38,-67 -9.33333,-15.33333 -23,-32.33333 -41,-51 -18,-18.66667 -28.66666,-29.66667 -32,-33 -3.33334,-3.33333 -11,-9.66667 -23,-19 -2,-2 -3.333336,-3.33333 -4,-4 H 74 c -5.333336,0 -9,0 -11,0 -2,0 -3.666668,1 -5,3 -1.333332,2 -2.333332,5 -3,9 0.666668,0.66667 4.333332,5 11,13 103.33334,107.33334 155,265.666656 155,475 0,209.33334 -51.66666,367.66669 -155,475 -6.666668,8 -10.333332,12.33331 -11,13 0,5.33331 1.666668,9 5,11 z" /><path
             id="path7190"
             style="fill:none;stroke:#444444;stroke-width:1;stroke-linecap:butt;stroke-linejoin:miter;stroke-miterlimit:10;stroke-dasharray:none;stroke-opacity:1"
             d="m 60,749 4,1 c 3.333336,0 6.666664,0 10,0 h 12 l 28,-24 c 62.66667,-56.66669 108.33333,-127.33331 137,-212 28.66666,-84.66669 43,-172.66666 43,-264 0,-45.33334 -3.33334,-89 -10,-131 -6.66666,-42 -14.33334,-77.666664 -23,-107 -8.66667,-29.333334 -21,-58.666664 -37,-88 -16,-29.33334 -28.66667,-51.66666 -38,-67 -9.33333,-15.33333 -23,-32.33333 -41,-51 -18,-18.66667 -28.66666,-29.66667 -32,-33 -3.33334,-3.33333 -11,-9.66667 -23,-19 -2,-2 -3.333336,-3.33333 -4,-4 H 74 c -5.333336,0 -9,0 -11,0 -2,0 -3.666668,1 -5,3 -1.333332,2 -2.333332,5 -3,9 0.666668,0.66667 4.333332,5 11,13 103.33334,107.33334 155,265.666656 155,475 0,209.33334 -51.66666,367.66669 -155,475 -6.666668,8 -10.333332,12.33331 -11,13 0,5.33331 1.666668,9 5,11 z" /></g><g
           transform="matrix(0,-0.04016458,-0.04013449,0,49.019966,449.22827)"
           id="g7192"><path
             id="path7194"
             style="fill:#444444;fill-opacity:1;fill-rule:nonzero;stroke:none"
             d="m 118,-162 c 1.33334,0 3.33334,-0.66667 6,-2 2.66666,-1.33333 6.33333,-2.33333 11,-3 4.66667,-0.66667 8.66667,-1 12,-1 8.66667,0 16.66667,4.33333 24,13 7.33333,8.66667 12.66667,18.33333 16,29 6.66667,18 18,69 34,153 16,84 31.33333,164 46,240 14.66666,76 22,114.33334 22,115 v 3 h -47 c -31.33333,0 -48,0.66666 -50,2 -2.66667,2 -4,5.33334 -4,10 l 7,28 c 1.33333,3.33334 4,5 8,5 4,0 19.66667,0.33334 47,1 32,0 48,0.33334 48,1 0,1.33334 3,18 9,50 6,32 10,51.33331 12,58 24.66666,110 73.33331,165 146,165 24.66666,-1.33331 45,-8.66669 61,-22 16,-13.33331 24,-31 24,-53 0,-24 -7,-41.33331 -21,-52 -14,-10.66669 -28,-16.33331 -42,-17 -29.33334,0 -44,14 -44,42 0,12.66669 3.66666,23.66669 11,33 7.33334,9.33331 15.33334,16.33331 24,21 l 9,5 c -10.66666,4 -20.66666,6 -30,6 -8,0 -15.66666,-3.33331 -23,-10 -7.33334,-6.66669 -12.33334,-16 -15,-28 -4.66666,-19.33331 -10,-45.33331 -16,-78 -6,-32.66669 -11.33334,-60.33334 -16,-83 -4.66666,-22.66666 -7,-34.66666 -7,-36 0,-1.33334 18.33334,-2 55,-2 30,0 47.33334,-0.33334 52,-1 4.66666,-0.66666 8.33334,-2.66666 11,-6 0.66666,-2.66666 0,-8.33334 -2,-17 -2,-8.66666 -3.66666,-14 -5,-16 -1.33334,-3.33334 -4.33334,-5 -9,-5 -4.66666,0 -22.66666,-0.33334 -54,-1 H 372 L 349,263 C 317,97.666656 294.66666,-5.6666641 282,-47 c -18,-56.66667 -41.33333,-98.66667 -70,-126 -24.66667,-21.33333 -49,-32 -73,-32 -21.33334,0 -40.666664,6.33333 -58,19 -17.333336,12.66667 -26,30.66667 -26,54 0,24.66667 7,42.666664 21,54 14,11.333336 28,17 42,17 29.33333,0 44,-14 44,-42 0,-12.66666 -3.66667,-23.66666 -11,-33 -7.33333,-9.33333 -15.33333,-16.33333 -24,-21 z" /><path
             id="path7196"
             style="fill:none;stroke:#444444;stroke-width:1;stroke-linecap:butt;stroke-linejoin:miter;stroke-miterlimit:10;stroke-dasharray:none;stroke-opacity:1"
             d="m 118,-162 c 1.33334,0 3.33334,-0.66667 6,-2 2.66666,-1.33333 6.33333,-2.33333 11,-3 4.66667,-0.66667 8.66667,-1 12,-1 8.66667,0 16.66667,4.33333 24,13 7.33333,8.66667 12.66667,18.33333 16,29 6.66667,18 18,69 34,153 16,84 31.33333,164 46,240 14.66666,76 22,114.33334 22,115 v 3 h -47 c -31.33333,0 -48,0.66666 -50,2 -2.66667,2 -4,5.33334 -4,10 l 7,28 c 1.33333,3.33334 4,5 8,5 4,0 19.66667,0.33334 47,1 32,0 48,0.33334 48,1 0,1.33334 3,18 9,50 6,32 10,51.33331 12,58 24.66666,110 73.33331,165 146,165 24.66666,-1.33331 45,-8.66669 61,-22 16,-13.33331 24,-31 24,-53 0,-24 -7,-41.33331 -21,-52 -14,-10.66669 -28,-16.33331 -42,-17 -29.33334,0 -44,14 -44,42 0,12.66669 3.66666,23.66669 11,33 7.33334,9.33331 15.33334,16.33331 24,21 l 9,5 c -10.66666,4 -20.66666,6 -30,6 -8,0 -15.66666,-3.33331 -23,-10 -7.33334,-6.66669 -12.33334,-16 -15,-28 -4.66666,-19.33331 -10,-45.33331 -16,-78 -6,-32.66669 -11.33334,-60.33334 -16,-83 -4.66666,-22.66666 -7,-34.66666 -7,-36 0,-1.33334 18.33334,-2 55,-2 30,0 47.33334,-0.33334 52,-1 4.66666,-0.66666 8.33334,-2.66666 11,-6 0.66666,-2.66666 0,-8.33334 -2,-17 -2,-8.66666 -3.66666,-14 -5,-16 -1.33334,-3.33334 -4.33334,-5 -9,-5 -4.66666,0 -22.66666,-0.33334 -54,-1 H 372 L 349,263 C 317,97.666656 294.66666,-5.6666641 282,-47 c -18,-56.66667 -41.33333,-98.66667 -70,-126 -24.66667,-21.33333 -49,-32 -73,-32 -21.33334,0 -40.666664,6.33333 -58,19 -17.333336,12.66667 -26,30.66667 -26,54 0,24.66667 7,42.666664 21,54 14,11.333336 28,17 42,17 29.33333,0 44,-14 44,-42 0,-12.66666 -3.66667,-23.66666 -11,-33 -7.33333,-9.33333 -15.33333,-16.33333 -24,-21 z" /></g><g
           transform="matrix(0,-0.02839636,-0.02837508,0,55.063858,429.54959)"
           id="g7198"><path
             id="path7200"
             style="fill:#444444;fill-opacity:1;fill-rule:nonzero;stroke:none"
             d="m 109,429 c -18,0 -32.333336,6 -43,18 -10.666668,12 -16,26.66666 -16,44 0,47.33331 17.666664,88.33331 53,123 35.33334,34.66669 79.33333,52 132,52 60.66666,0 111.33334,-18.66669 152,-56 40.66666,-37.33331 61.33334,-85.66669 62,-145 0,-28.66666 -6.66666,-56 -20,-82 -13.33334,-26 -29.33334,-48.66666 -48,-68 -18.66666,-19.33334 -45.33334,-44 -80,-74 -24,-20.66667 -57.33333,-51.33333 -100,-92 l -59,-56 76,-1 c 104.66669,0 160.33334,1.666664 167,5 4.66666,1.333336 12.66666,31 24,89 v 3 h 40 v -3 C 448.33334,184 444,153.66667 436,95 428,36.333332 423,5.666667 421,3 V 0 H 50 v 19 12 c 0,4.666668 2,9.666668 6,15 4,5.333332 14,17 30,35 19.33334,21.33334 36,40 50,56 6,6.66667 17.33333,19 34,37 16.66667,18 28,30.33333 34,37 6,6.66667 15.66667,17.66667 29,33 13.33333,15.33334 22.66667,26.66666 28,34 5.33334,7.33334 13,17.33334 23,30 10,12.66666 17,23.33334 21,32 4,8.66666 9,18.33334 15,29 6,10.66666 10.33334,21.33334 13,32 2.66666,10.66666 5,20.66666 7,30 2,9.33334 3,20.33334 3,33 0,42 -11.33334,78.33331 -34,109 -22.66666,30.66669 -55,46 -97,46 -22,0 -41.33333,-5.66669 -58,-17 -16.66667,-11.33331 -28.33334,-22.33331 -35,-33 -6.66666,-10.66669 -10,-17 -10,-19 0,-0.66669 1.66666,-1 5,-1 12,0 24.33333,-4.66669 37,-14 12.66667,-9.33331 19,-24.66666 19,-46 0,-16.66666 -5.33333,-30.66666 -16,-42 -10.66667,-11.33334 -25.66667,-17.33334 -45,-18 z" /><path
             id="path7202"
             style="fill:none;stroke:#444444;stroke-width:1;stroke-linecap:butt;stroke-linejoin:miter;stroke-miterlimit:10;stroke-dasharray:none;stroke-opacity:1"
             d="m 109,429 c -18,0 -32.333336,6 -43,18 -10.666668,12 -16,26.66666 -16,44 0,47.33331 17.666664,88.33331 53,123 35.33334,34.66669 79.33333,52 132,52 60.66666,0 111.33334,-18.66669 152,-56 40.66666,-37.33331 61.33334,-85.66669 62,-145 0,-28.66666 -6.66666,-56 -20,-82 -13.33334,-26 -29.33334,-48.66666 -48,-68 -18.66666,-19.33334 -45.33334,-44 -80,-74 -24,-20.66667 -57.33333,-51.33333 -100,-92 l -59,-56 76,-1 c 104.66669,0 160.33334,1.666664 167,5 4.66666,1.333336 12.66666,31 24,89 v 3 h 40 v -3 C 448.33334,184 444,153.66667 436,95 428,36.333332 423,5.666667 421,3 V 0 H 50 v 19 12 c 0,4.666668 2,9.666668 6,15 4,5.333332 14,17 30,35 19.33334,21.33334 36,40 50,56 6,6.66667 17.33333,19 34,37 16.66667,18 28,30.33333 34,37 6,6.66667 15.66667,17.66667 29,33 13.33333,15.33334 22.66667,26.66666 28,34 5.33334,7.33334 13,17.33334 23,30 10,12.66666 17,23.33334 21,32 4,8.66666 9,18.33334 15,29 6,10.66666 10.33334,21.33334 13,32 2.66666,10.66666 5,20.66666 7,30 2,9.33334 3,20.33334 3,33 0,42 -11.33334,78.33331 -34,109 -22.66666,30.66669 -55,46 -97,46 -22,0 -41.33333,-5.66669 -58,-17 -16.66667,-11.33331 -28.33334,-22.33331 -35,-33 -6.66666,-10.66669 -10,-17 -10,-19 0,-0.66669 1.66666,-1 5,-1 12,0 24.33333,-4.66669 37,-14 12.66667,-9.33331 19,-24.66666 19,-46 0,-16.66666 -5.33333,-30.66666 -16,-42 -10.66667,-11.33334 -25.66667,-17.33334 -45,-18 z" /></g><g
           transform="matrix(0,-0.04016458,-0.04013449,0,49.019966,411.3129)"
           id="g7204"><path
             id="path7206"
             style="fill:#444444;fill-opacity:1;fill-rule:nonzero;stroke:none"
             d="m 94,250 c 0,46 3.333336,89.66666 10,131 6.66666,41.33334 14.33334,77 23,107 8.66667,30 21,59.33331 37,88 16,28.66669 28.66667,51 38,67 9.33333,16 23.33333,33.33331 42,52 18.66666,18.66669 29.66666,30 33,34 3.33334,4 11.66666,11 25,21 h 13 4 c 9.33334,0 14,-3 14,-9 0,-2 -5.66666,-9 -17,-21 -11.33334,-12 -25,-29.66669 -41,-53 -16,-23.33331 -32.33333,-52 -49,-86 -16.66667,-34 -30.66667,-80 -42,-138 -11.33333,-58 -17,-122.33331 -17,-193 0,-70.66667 5.66667,-134.66666 17,-192 11.33333,-57.33333588 25,-103.666664 41,-139 16,-35.33334 32.33334,-64 49,-86 16.66666,-22 30.66666,-39.66667 42,-53 11.33334,-13.33333 17,-20.33333 17,-21 0,-6 -5,-9 -15,-9 h -3 -13 l -28,24 C 211.33333,-169.33333 165.66667,-98.666672 137,-14 108.33333,70.666672 94,158.66666 94,250 Z" /><path
             id="path7208"
             style="fill:none;stroke:#444444;stroke-width:1;stroke-linecap:butt;stroke-linejoin:miter;stroke-miterlimit:10;stroke-dasharray:none;stroke-opacity:1"
             d="m 94,250 c 0,46 3.333336,89.66666 10,131 6.66666,41.33334 14.33334,77 23,107 8.66667,30 21,59.33331 37,88 16,28.66669 28.66667,51 38,67 9.33333,16 23.33333,33.33331 42,52 18.66666,18.66669 29.66666,30 33,34 3.33334,4 11.66666,11 25,21 h 13 4 c 9.33334,0 14,-3 14,-9 0,-2 -5.66666,-9 -17,-21 -11.33334,-12 -25,-29.66669 -41,-53 -16,-23.33331 -32.33333,-52 -49,-86 -16.66667,-34 -30.66667,-80 -42,-138 -11.33333,-58 -17,-122.33331 -17,-193 0,-70.66667 5.66667,-134.66666 17,-192 11.33333,-57.33333588 25,-103.666664 41,-139 16,-35.33334 32.33334,-64 49,-86 16.66666,-22 30.66666,-39.66667 42,-53 11.33334,-13.33333 17,-20.33333 17,-21 0,-6 -5,-9 -15,-9 h -3 -13 l -28,24 C 211.33333,-169.33333 165.66667,-98.666672 137,-14 108.33333,70.666672 94,158.66666 94,250 Z" /></g><g
           transform="matrix(0,-0.04016458,-0.04013449,0,49.019966,395.6889)"
           id="g7210"><path
             id="path7212"
             style="fill:#444444;fill-opacity:1;fill-rule:nonzero;stroke:none"
             d="m 52,289 c 4.666668,28 22.666664,60.33334 54,97 31.33333,36.66666 70,55.33334 116,56 23.33333,0 44.66666,-6 64,-18 19.33334,-12 33.66666,-27 43,-45 28,42 61.66666,63 101,63 24.66666,0 46,-7.33334 64,-22 18,-14.66666 27.33331,-34.33334 28,-59 0,-19.33334 -4.66669,-35 -14,-47 -9.33334,-12 -18.33334,-19.33334 -27,-22 -8.66666,-2.66666 -16.33334,-4 -23,-4 -12.66666,0 -23,3.66666 -31,11 -8,7.33334 -12,17 -12,29 0,30.66666 16.66666,51.66666 50,63 -7.33334,8.66666 -20.66666,13 -40,13 -8.66666,0 -15,-0.66666 -19,-2 -25.33334,-10.66666 -44,-32.66666 -56,-66 -40,-147.33334 -60,-233.33333 -60,-258 0,-18.666668 5.33334,-32 16,-40 10.66666,-8 22.33334,-12 35,-12 24.66666,0 49,11 73,33 24,22 40.33334,49 49,81 2,6.66667 4,10.33333 6,11 2,0.66667 7.33334,1.33333 16,2 h 4 c 10,0 15,-2.66667 15,-8 0,-0.66667 -0.66666,-4.33333 -2,-11 C 491.33334,96 470.66666,62.333336 440,33 409.33334,3.666666 373.66666,-11 333,-11 286.33334,-11 251,10 227,52 199.66667,10.666664 168.33334,-10 133,-10 h -6 C 94.333328,-10 71,-1.333334 57,16 43,33.333336 35.666668,51.666664 35,71 c 0,21.333336 6.333332,38.66666 19,52 12.666664,13.33333 27.666664,20 45,20 28.66667,0 43,-14 43,-42 C 142,87.666664 138,76 130,66 122,56 114.33334,49.333332 107,46 99.666664,42.666668 95.333336,41 94,41 l -3,-1 c 0,-0.666668 2,-2 6,-4 4,-2 9.33334,-4.333334 16,-7 6.66666,-2.666666 13,-3.666666 19,-3 24,0 44.66667,15 62,45 6,10.666664 13.66667,33.33333 23,68 9.33333,34.66667 18.66667,70.66666 28,108 9.33333,37.33334 14.66666,59.33334 16,66 3.33334,18 5,31 5,39 0,18.66666 -5,32 -15,40 -10,8 -21.33333,12 -34,12 -26.66667,0 -51.66667,-10.66666 -75,-32 -23.33334,-21.33334 -39.66666,-48.66666 -49,-82 -1.333336,-6 -3,-9.33334 -5,-10 -2,-0.66666 -7.333336,-1.33334 -16,-2 H 58 c -4,4 -6,7.66666 -6,11 z" /><path
             id="path7214"
             style="fill:none;stroke:#444444;stroke-width:1;stroke-linecap:butt;stroke-linejoin:miter;stroke-miterlimit:10;stroke-dasharray:none;stroke-opacity:1"
             d="m 52,289 c 4.666668,28 22.666664,60.33334 54,97 31.33333,36.66666 70,55.33334 116,56 23.33333,0 44.66666,-6 64,-18 19.33334,-12 33.66666,-27 43,-45 28,42 61.66666,63 101,63 24.66666,0 46,-7.33334 64,-22 18,-14.66666 27.33331,-34.33334 28,-59 0,-19.33334 -4.66669,-35 -14,-47 -9.33334,-12 -18.33334,-19.33334 -27,-22 -8.66666,-2.66666 -16.33334,-4 -23,-4 -12.66666,0 -23,3.66666 -31,11 -8,7.33334 -12,17 -12,29 0,30.66666 16.66666,51.66666 50,63 -7.33334,8.66666 -20.66666,13 -40,13 -8.66666,0 -15,-0.66666 -19,-2 -25.33334,-10.66666 -44,-32.66666 -56,-66 -40,-147.33334 -60,-233.33333 -60,-258 0,-18.666668 5.33334,-32 16,-40 10.66666,-8 22.33334,-12 35,-12 24.66666,0 49,11 73,33 24,22 40.33334,49 49,81 2,6.66667 4,10.33333 6,11 2,0.66667 7.33334,1.33333 16,2 h 4 c 10,0 15,-2.66667 15,-8 0,-0.66667 -0.66666,-4.33333 -2,-11 C 491.33334,96 470.66666,62.333336 440,33 409.33334,3.666666 373.66666,-11 333,-11 286.33334,-11 251,10 227,52 199.66667,10.666664 168.33334,-10 133,-10 h -6 C 94.333328,-10 71,-1.333334 57,16 43,33.333336 35.666668,51.666664 35,71 c 0,21.333336 6.333332,38.66666 19,52 12.666664,13.33333 27.666664,20 45,20 28.66667,0 43,-14 43,-42 C 142,87.666664 138,76 130,66 122,56 114.33334,49.333332 107,46 99.666664,42.666668 95.333336,41 94,41 l -3,-1 c 0,-0.666668 2,-2 6,-4 4,-2 9.33334,-4.333334 16,-7 6.66666,-2.666666 13,-3.666666 19,-3 24,0 44.66667,15 62,45 6,10.666664 13.66667,33.33333 23,68 9.33333,34.66667 18.66667,70.66666 28,108 9.33333,37.33334 14.66666,59.33334 16,66 3.33334,18 5,31 5,39 0,18.66666 -5,32 -15,40 -10,8 -21.33333,12 -34,12 -26.66667,0 -51.66667,-10.66666 -75,-32 -23.33334,-21.33334 -39.66666,-48.66666 -49,-82 -1.333336,-6 -3,-9.33334 -5,-10 -2,-0.66666 -7.333336,-1.33334 -16,-2 H 58 c -4,4 -6,7.66666 -6,11 z" /></g><g
           transform="matrix(0,-0.04016458,-0.04013449,0,49.019966,372.67459)"
           id="g7216"><path
             id="path7218"
             style="fill:#444444;fill-opacity:1;fill-rule:nonzero;stroke:none"
             d="m 60,749 4,1 c 3.333336,0 6.666664,0 10,0 h 12 l 28,-24 c 62.66667,-56.66669 108.33333,-127.33331 137,-212 28.66666,-84.66669 43,-172.66666 43,-264 0,-45.33334 -3.33334,-89 -10,-131 -6.66666,-42 -14.33334,-77.666664 -23,-107 -8.66667,-29.333334 -21,-58.666664 -37,-88 -16,-29.33334 -28.66667,-51.66666 -38,-67 -9.33333,-15.33333 -23,-32.33333 -41,-51 -18,-18.66667 -28.66666,-29.66667 -32,-33 -3.33334,-3.33333 -11,-9.66667 -23,-19 -2,-2 -3.333336,-3.33333 -4,-4 H 74 c -5.333336,0 -9,0 -11,0 -2,0 -3.666668,1 -5,3 -1.333332,2 -2.333332,5 -3,9 0.666668,0.66667 4.333332,5 11,13 103.33334,107.33334 155,265.666656 155,475 0,209.33334 -51.66666,367.66669 -155,475 -6.666668,8 -10.333332,12.33331 -11,13 0,5.33331 1.666668,9 5,11 z" /><path
             id="path7220"
             style="fill:none;stroke:#444444;stroke-width:1;stroke-linecap:butt;stroke-linejoin:miter;stroke-miterlimit:10;stroke-dasharray:none;stroke-opacity:1"
             d="m 60,749 4,1 c 3.333336,0 6.666664,0 10,0 h 12 l 28,-24 c 62.66667,-56.66669 108.33333,-127.33331 137,-212 28.66666,-84.66669 43,-172.66666 43,-264 0,-45.33334 -3.33334,-89 -10,-131 -6.66666,-42 -14.33334,-77.666664 -23,-107 -8.66667,-29.333334 -21,-58.666664 -37,-88 -16,-29.33334 -28.66667,-51.66666 -38,-67 -9.33333,-15.33333 -23,-32.33333 -41,-51 -18,-18.66667 -28.66666,-29.66667 -32,-33 -3.33334,-3.33333 -11,-9.66667 -23,-19 -2,-2 -3.333336,-3.33333 -4,-4 H 74 c -5.333336,0 -9,0 -11,0 -2,0 -3.666668,1 -5,3 -1.333332,2 -2.333332,5 -3,9 0.666668,0.66667 4.333332,5 11,13 103.33334,107.33334 155,265.666656 155,475 0,209.33334 -51.66666,367.66669 -155,475 -6.666668,8 -10.333332,12.33331 -11,13 0,5.33331 1.666668,9 5,11 z" /></g></g></g><g
       id="g7222"><g
         clip-path="url(#clipPath7228)"
         id="g7224"><g
           transform="scale(2.9954393)"
           id="g7230"><text
             id="text7234"
             style="font-variant:normal;font-weight:normal;font-size:8px;font-family:Helvetica;-inkscape-font-specification:Helvetica;writing-mode:lr-tb;fill:#333333;fill-opacity:1;fill-rule:nonzero;stroke:none"
             transform="translate(312.26563,16)"><tspan
               id="tspan7232"
               y="0"
               x="0 5.7773438 10.226562 12.449219 16.898438 19.5625 24.011719 28.460938 32.460938 36.910156 39.132812 43.582031 48.03125 49.808594 54.257812">Reference point</tspan></text>
</g><g
           transform="matrix(2.9954393,0,0,2.9954393,1.4977196,1.4977196)"
           id="g7236"><path
             id="path7238"
             style="fill:#f4f4f4;fill-opacity:1;fill-rule:nonzero;stroke:none"
             d="M 78.099998,21 H 374.6 V 33 H 78.099998 Z" /><path
             id="path7240"
             style="fill:#f4f4f4;fill-opacity:1;fill-rule:nonzero;stroke:none"
             d="M 99.599998,21 H 374.6 V 144 H 99.599998 Z" /><path
             id="path7242"
             style="fill:#f4f4f4;fill-opacity:1;fill-rule:nonzero;stroke:none"
             d="m 248.60001,21 h 126 v 190.5 h -126 z" /><path
             id="path7244"
             style="fill:#f4f4f4;fill-opacity:1;fill-rule:nonzero;stroke:none"
             d="m 355.60001,21 h 19 v 212.5 h -19 z" /><path
             id="path7246"
             style="fill:#000000;fill-opacity:1;fill-rule:nonzero;stroke:none"
             d="m 80.099998,20.5 h 1 v 1 h -1 z m 2,0 h 1 v 1 h -1 z m 2,0 h 1 v 1 h -1 z m 2,0 h 1 v 1 h -1 z m 2,0 h 1 v 1 h -1 z m 2,0 h 1 v 1 h -1 z m 2,0 h 1 v 1 h -1 z m 2,0 h 1 v 1 h -1 z m 2,0 h 1 v 1 h -1 z m 2,0 h 1 v 1 h -1 z m 2.000002,0 h 1 v 1 h -1 z m 2,0 h 1 v 1 h -1 z m 2,0 h 1 v 1 h -1 z m 2,0 h 1 v 1 h -1 z m 2,0 h 1 v 1 h -1 z m 2,0 h 1 v 1 h -1 z m 2,0 h 1 v 1 h -1 z m 2,0 h 1 v 1 h -1 z m 2,0 h 1 v 1 h -1 z m 2,0 h 1 v 1 h -1 z m 2,0 h 1 v 1 h -1 z m 2,0 h 1 v 1 h -1 z m 2,0 h 1 v 1 h -1 z m 2,0 h 1 v 1 h -1 z m 1.99999,0 h 1.00002 v 1 h -1.00002 z m 2.00002,0 h 1 v 1 h -1 z m 2,0 h 1 v 1 h -1 z m 2,0 h 1 v 1 h -1 z m 2,0 h 1 v 1 h -1 z m 2,0 h 1 v 1 h -1 z m 2,0 h 1 v 1 h -1 z m 2,0 h 1 v 1 h -1 z m 2,0 h 1 v 1 h -1 z m 2,0 h 1 v 1 h -1 z m 2,0 h 1 v 1 h -1 z m 2,0 h 1 v 1 h -1 z m 2,0 h 1 v 1 h -1 z m 2,0 h 1 v 1 h -1 z m 2,0 h 1 v 1 h -1 z m 2,0 h 1 v 1 h -1 z m 2,0 h 1 v 1 h -1 z m 2,0 h 1 v 1 h -1 z m 2,0 h 1 v 1 h -1 z m 2,0 h 1 v 1 h -1 z m 2,0 h 1 v 1 h -1 z m 2,0 h 1 v 1 h -1 z m 2,0 h 0.99998 v 1 h -0.99998 z m 2,0 h 1 v 1 h -1 z m 2,0 h 1 v 1 h -1 z m 1.99998,0 h 1.00002 v 1 h -1.00002 z m 2.00002,0 h 1 v 1 h -1 z m 2,0 h 0.99998 v 1 h -0.99998 z m 2,0 h 1 v 1 h -1 z m 2,0 h 1 v 1 h -1 z m 2,0 h 1 v 1 h -1 z m 2,0 h 1 v 1 h -1 z m 2,0 h 1 v 1 h -1 z m 2,0 h 1 v 1 h -1 z m 2,0 h 1 v 1 h -1 z m 2,0 h 1 v 1 h -1 z m 2,0 h 1 v 1 h -1 z m 2,0 h 1 v 1 h -1 z m 2,0 h 1 v 1 h -1 z m 2,0 h 1 v 1 h -1 z m 2,0 h 1 v 1 h -1 z m 2,0 h 1 v 1 h -1 z m 2,0 h 1 v 1 h -1 z m 2,0 h 1 v 1 h -1 z m 2,0 h 1 v 1 h -1 z m 2,0 h 1 v 1 h -1 z m 2,0 h 1 v 1 h -1 z m 2,0 h 1 v 1 h -1 z m 2,0 h 1 v 1 h -1 z m 2,0 h 1 v 1 h -1 z m 2,0 h 1 v 1 h -1 z m 2,0 h 1 v 1 h -1 z m 2,0 h 1 v 1 h -1 z m 2,0 h 1 v 1 h -1 z m 2,0 h 1 v 1 h -1 z m 2,0 h 1 v 1 h -1 z m 2,0 h 1 v 1 h -1 z m 2,0 h 1 v 1 h -1 z m 2,0 h 1 v 1 h -1 z m 2,0 h 1 v 1 h -1 z m 2,0 h 1 v 1 h -1 z m 2,0 h 1 v 1 h -1 z m 2,0 h 1 v 1 h -1 z m 2,0 h 1 v 1 h -1 z m 2,0 h 1 v 1 h -1 z m 2,0 h 1 v 1 h -1 z m 2,0 h 1 v 1 h -1 z m 2,0 h 0.99997 v 1 h -0.99997 z m 2,0 h 1 v 1 h -1 z m 2,0 h 1 v 1 h -1 z m 1.99997,0 h 1.00003 v 1 h -1.00003 z m 2.00003,0 h 1 v 1 h -1 z m 2,0 h 0.99997 v 1 h -0.99997 z m 2,0 h 1 v 1 h -1 z m 2,0 h 1 v 1 h -1 z m 1.99997,0 h 1.00003 v 1 h -1.00003 z m 2.00003,0 h 1 v 1 h -1 z m 2,0 h 0.99997 v 1 h -0.99997 z m 2,0 h 1 v 1 h -1 z m 2,0 h 1 v 1 h -1 z m 1.99997,0 h 1.00003 v 1 h -1.00003 z m 2.00003,0 h 1 v 1 h -1 z m 2,0 h 1 v 1 h -1 z m 2,0 h 1 v 1 h -1 z m 2,0 h 1 v 1 h -1 z m 2,0 h 1 v 1 h -1 z m 2,0 h 1 v 1 h -1 z m 2,0 h 1 v 1 h -1 z m 2,0 h 1 v 1 h -1 z m 2,0 h 1 v 1 h -1 z m 2,0 h 1 v 1 h -1 z m 2,0 h 1 v 1 h -1 z m 2,0 h 1 v 1 h -1 z m 2,0 h 1 v 1 h -1 z m 2,0 h 1 v 1 h -1 z m 2,0 h 1 v 1 h -1 z m 2,0 h 1 v 1 h -1 z m 2,0 h 1 v 1 h -1 z m 2,0 h 1 v 1 h -1 z m 2,0 h 1 v 1 h -1 z m 2,0 h 1 v 1 h -1 z m 2,0 h 1 v 1 h -1 z m 2,0 h 1 v 1 h -1 z m 2,0 h 1 v 1 h -1 z m 2,0 h 1 v 1 h -1 z m 2,0 h 1 v 1 h -1 z m 2,0 h 1 v 1 h -1 z m 2,0 h 1 v 1 h -1 z m 2,0 h 1 v 1 h -1 z m 2,0 h 1 v 1 h -1 z m 2,0 h 1 v 1 h -1 z m 2,0 h 1 v 1 h -1 z m 2,0 h 1 v 1 h -1 z m 2,0 h 1 v 1 h -1 z m 2,0 h 1 v 1 h -1 z m 2,0 h 1 v 1 h -1 z m 2,0 h 1 v 1 h -1 z m 2,0 h 1 v 1 h -1 z m 2,0 h 1 v 1 h -1 z m 2,0 h 1 v 1 h -1 z m 2,0 h 1 v 1 h -1 z m 2,0 h 1 v 1 h -1 z m 2,0 h 1 v 1 h -1 z m 2,0 h 1 v 1 h -1 V 21 h 0.5 v 0.5 h -0.5 z m 1,2 v 1 h -1 v -1 z m 0,2 v 1 h -1 v -1 z m 0,2 v 1 h -1 v -1 z m 0,2 v 1 h -1 v -1 z m 0,2 v 1 h -1 v -1 z m 0,2 v 1 h -1 v -1 h 0.5 V 33 h -0.5 v -0.5 z m -2,1 h -1 v -1 h 1 z m -2,0 h -1 v -1 h 1 z m -2,0 h -1 v -1 h 1 z m -2,0 h -1 v -1 h 1 z m -2,0 h -1 v -1 h 1 z m -2,0 h -1 v -1 h 1 z m -2,0 h -1 v -1 h 1 z m -2,0 h -1 v -1 h 1 z m -2,0 h -1 v -1 h 1 z m -2,0 h -1 v -1 h 1 z m -2,0 h -1 v -1 h 1 z m -2,0 h -1 v -1 h 1 z m -2,0 h -1 v -1 h 1 z m -2,0 h -1 v -1 h 1 z m -2,0 h -1 v -1 h 1 z m -2,0 h -1 v -1 h 1 z m -2,0 h -1 v -1 h 1 z m -2,0 h -1 v -1 h 1 z m -2,0 h -1 v -1 h 1 z m -2,0 h -1 v -1 h 1 z m -2,0 h -1 v -1 h 1 z m -2,0 h -1 v -1 h 1 z m -2,0 h -1 v -1 h 1 z m -2,0 h -1 v -1 h 1 z m -2,0 h -1 v -1 h 1 z m -2,0 h -1 v -1 h 1 z m -2,0 h -1 v -1 h 1 z m -2,0 h -1 v -1 h 1 z m -2,0 h -1 v -1 h 1 z m -2,0 h -1 v -1 h 1 z m -2,0 h -1 v -1 h 1 z m -2,0 h -1 v -1 h 1 z m -2,0 h -1 v -1 h 1 z m -2,0 h -1 v -1 h 1 z m -2,0 h -1 v -1 h 1 z m -2,0 h -1 v -1 h 1 z m -2,0 h -1 v -1 h 1 z m -2,0 h -1 v -1 h 1 z m -2,0 h -1 v -1 h 1 z m -2,0 h -1 v -1 h 1 z m -2,0 h -1 v -1 h 1 z m -2,0 h -1 v -1 h 1 z m -2,0 h -1 v -1 h 1 z m -2,0 h -1 v -1 h 1 z m -2,0 h -1 v -1 h 1 z m -2,0 h -1 v -1 h 1 z m -2,0 h -1 v -1 h 1 z m -2,0 h -1 v -1 h 1 z m -2,0 h -1 v -1 h 1 z m -2,0 h -1 v -1 h 1 z m -2,0 h -1 v -1 h 1 z m -2,0 h -1 v -1 h 1 z m -2,0 h -1 v -1 h 1 z m -2,0 h -1 v -1 h 1 z m -2,0 h -1 v -1 h 1 z m -2,0 h -1 v -1 h 1 z m -2,0 h -1 v -1 h 1 z m -2,0 h -1 v -1 h 1 z m -2,0 h -1 v -1 h 1 z m -2,0 h -1 v -1 h 1 z m -2,0 h -1 v -1 h 1 z m -2,0 h -1 v -1 h 1 z m -2,0 h -1 v -1 h 1 z m -2,0 h -1 v -1 h 1 z m -2,0 h -1 v -1 h 1 z m -2,0 h -1 v -1 h 1 z m -2,0 h -1 v -1 h 1 z m -2,0 h -1 v -1 h 1 z m -2,0 h -1 v -1 h 1 z m -2,0 h -1 v -1 h 1 z m -2,0 h -1 v -1 h 1 z m -2,0 h -1 v -1 h 1 z m -2,0 h -1 v -1 h 1 z m -2,0 h -1 v -1 h 1 z m -2,0 h -0.99999 v -1 h 0.99999 z m -2,0 h -1 v -1 h 1 z m -2,0 h -1 v -1 h 1 z m -1.99999,0 h -1.00001 v -1 h 1.00001 z m -2.00001,0 h -1 v -1 h 1 z m -2,0 h -0.99999 v -1 h 0.99999 z m -2,0 h -1 v -1 h 1 z m -2,0 h -1 v -1 h 1 z m -1.99999,0 h -1.00001 v -1 h 1.00001 z m -2.00001,0 h -1 v -1 h 1 z m -2,0 h -1.00002 v -1 h 1.00002 z m -2,0 h -1 v -1 h 1 z m -2,0 h -1 v -1 h 1 z m -2.00002,0 h -0.99998 v -1 h 0.99998 z m -1.99998,0 h -1 v -1 h 1 z m -2,0 h -1.00002 v -1 h 1.00002 z m -2,0 h -1 v -1 h 1 z m -2,0 h -1 v -1 h 1 z m -2.00002,0 h -0.99998 v -1 h 0.99998 z m -1.99998,0 h -1 v -1 h 1 z m -2,0 h -1.00002 v -1 h 1.00002 z m -2,0 h -1 v -1 h 1 z m -2,0 h -1 v -1 h 1 z m -2.00002,0 h -0.99998 v -1 h 0.99998 z m -1.99998,0 h -1 v -1 h 1 z m -2,0 h -1 v -1 h 1 z m -2,0 h -1 v -1 h 1 z m -2,0 h -1 v -1 h 1 z m -2,0 h -1 v -1 h 1 z m -2,0 h -1 v -1 h 1 z m -2,0 h -1 v -1 h 1 z m -2,0 h -1 v -1 h 1 z m -2,0 h -1 v -1 h 1 z m -2,0 h -1 v -1 h 1 z m -2,0 h -1 v -1 h 1 z m -2,0 h -1 v -1 h 1 z m -2,0 h -1 v -1 h 1 z m -2,0 h -1 v -1 h 1 z m -2,0 h -1 v -1 h 1 z m -2,0 h -1 v -1 h 1 z m -1.99999,0 h -1.00001 v -1 h 1.00001 z m -2.00001,0 h -1 v -1 h 1 z m -2,0 h -0.99999 v -1 h 0.99999 z m -2,0 h -1 v -1 h 1 z m -2,0 h -1 v -1 h 1 z m -1.99999,0 h -1.00001 v -1 h 1.00001 z m -2.00001,0 h -1 v -1 h 1 z m -2,0 h -0.99999 v -1 h 0.99999 z m -2,0 h -1 v -1 h 1 z m -2,0 h -1 v -1 h 1 z m -1.99999,0 h -1.00001 v -1 h 1.00001 z m -2.00001,0 h -1 v -1 h 1 z m -2,0 h -1.00002 v -1 h 1.00002 z m -2,0 h -1 v -1 h 1 z m -2,0 h -1 v -1 h 1 z m -2,0 h -1 v -1 h 1 z m -2,0 h -1 v -1 h 1 z m -2,0 h -1 v -1 h 1 z m -2,0 h -1 v -1 h 1 z m -2,0 h -1 v -1 h 1 z m -2,0 h -1 v -1 h 1 z m -2,0 h -1 v -1 h 1 z m -2,0 h -1 v -1 h 1 z m -2.000004,0 h -1 v -1 h 1 z m -2,0 h -1 v -1 h 1 z m -2,0 h -1 v -1 h 1 z m -2,0 h -1 v -1 h 1 z m -2,0 h -1 v -1 h 1 z m -2,0 h -1 v -1 h 1 z m -2,0 h -1 v -1 h 1 z m -2,0 h -1 v -1 h 1 z m -2,0 h -1 v -1 h 1 z m -2,0 h -1 v -1 h 1 z m -2,0 h -1.000008 v -1 h 1.000008 z M 77.599998,32 v -1 h 1 v 1 z m 0,-2 v -1 h 1 v 1 z m 0,-2 v -1 h 1 v 1 z m 0,-2 v -1 h 1 v 1 z m 0,-2 v -1 h 1 v 1 z m 0,-2 v -1.5 h 1.5 v 1 h -1 V 21 h 0.5 v 1 z" /><path
             id="path7248"
             style="fill:#000000;fill-opacity:1;fill-rule:nonzero;stroke:none"
             d="m 101.6,20.5 h 1 v 1 h -1 z m 2,0 h 1 v 1 h -1 z m 2,0 h 1 v 1 h -1 z m 2,0 h 1 v 1 h -1 z m 2,0 h 1 v 1 h -1 z m 2,0 h 1 v 1 h -1 z m 2,0 h 1 v 1 h -1 z m 2,0 h 1 v 1 h -1 z m 2,0 h 1 v 1 h -1 z m 2,0 h 1 v 1 h -1 z m 2,0 h 1 v 1 h -1 z m 2,0 h 1 v 1 h -1 z m 2,0 h 1 v 1 h -1 z m 2,0 h 0.99999 v 1 H 127.6 Z m 2.00001,0 h 1 v 1 h -1 z m 2,0 h 1 v 1 h -1 z m 2,0 h 1 v 1 h -1 z m 2,0 h 1 v 1 h -1 z m 2,0 h 1 v 1 h -1 z m 2,0 h 1 v 1 h -1 z m 2,0 h 1 v 1 h -1 z m 2,0 h 0.99998 v 1 h -0.99998 z m 2,0 h 1 v 1 h -1 z m 2,0 h 1 v 1 h -1 z m 2,0 h 1 v 1 h -1 z m 2,0 h 1 v 1 h -1 z m 2,0 h 1 v 1 h -1 z m 2,0 h 1 v 1 h -1 z m 1.99998,0 h 1.00002 v 1 h -1.00002 z m 2.00002,0 h 1 v 1 h -1 z m 2,0 h 1 v 1 h -1 z m 2,0 h 1 v 1 h -1 z m 2,0 h 1 v 1 h -1 z m 2,0 h 1 v 1 h -1 z m 2,0 h 1 v 1 h -1 z m 2,0 h 0.99998 v 1 h -0.99998 z m 2,0 h 1 v 1 h -1 z m 2,0 h 1 v 1 h -1 z m 2,0 h 1 v 1 h -1 z m 2,0 h 1 v 1 h -1 z m 2,0 h 1 v 1 h -1 z m 2,0 h 1 v 1 h -1 z m 2,0 h 1 v 1 h -1 z m 2,0 h 1 v 1 h -1 z m 1.99998,0 h 1.00002 v 1 h -1.00002 z m 2.00002,0 h 1 v 1 h -1 z m 2,0 h 1 v 1 h -1 z m 2,0 h 1 v 1 h -1 z m 2,0 h 1 v 1 h -1 z m 2,0 h 1 v 1 h -1 z m 2,0 h 1 v 1 h -1 z m 2,0 h 1 v 1 h -1 z m 2,0 h 1 v 1 h -1 z m 2,0 h 1 v 1 h -1 z m 2,0 h 1 v 1 h -1 z m 2,0 h 1 v 1 h -1 z m 2,0 h 1 v 1 h -1 z m 1.99998,0 h 1.00002 v 1 h -1.00002 z m 2.00002,0 h 1 v 1 h -1 z m 2,0 h 1 v 1 h -1 z m 2,0 h 1 v 1 h -1 z m 2,0 h 1 v 1 h -1 z m 2,0 h 1 v 1 h -1 z m 2,0 h 1 v 1 h -1 z m 2,0 h 1 v 1 h -1 z m 2,0 h 1 v 1 h -1 z m 2,0 h 1 v 1 h -1 z m 2,0 h 1 v 1 h -1 z m 2,0 h 1 v 1 h -1 z m 2,0 h 1 v 1 h -1 z m 2,0 h 1 v 1 h -1 z m 2,0 h 1 v 1 h -1 z m 1.99997,0 h 1.00003 v 1 h -1.00003 z m 2.00003,0 h 1 v 1 h -1 z m 2,0 h 1 v 1 h -1 z m 2,0 h 1 v 1 h -1 z m 2,0 h 1 v 1 h -1 z m 2,0 h 1 v 1 h -1 z m 2,0 h 1 v 1 h -1 z m 2,0 h 1 v 1 h -1 z m 2,0 h 0.99997 v 1 h -0.99997 z m 2,0 h 1 v 1 h -1 z m 2,0 h 1 v 1 h -1 z m 2,0 h 1 v 1 h -1 z m 2,0 h 1 v 1 h -1 z m 2,0 h 1 v 1 h -1 z m 2,0 h 1 v 1 h -1 z m 2,0 h 1 v 1 h -1 z m 2,0 h 1 v 1 h -1 z m 1.99997,0 h 1.00003 v 1 h -1.00003 z m 2.00003,0 h 1 v 1 h -1 z m 2,0 h 1 v 1 h -1 z m 2,0 h 1 v 1 h -1 z m 2,0 h 1 v 1 h -1 z m 2,0 h 1 v 1 h -1 z m 2,0 h 1 v 1 h -1 z m 2,0 h 1 v 1 h -1 z m 2,0 h 1 v 1 h -1 z m 2,0 h 1 v 1 h -1 z m 2,0 h 1 v 1 h -1 z m 2,0 h 1 v 1 h -1 z m 2,0 h 1 v 1 h -1 z m 2,0 h 1 v 1 h -1 z m 2,0 h 1 v 1 h -1 z m 2,0 h 1 v 1 h -1 z m 2,0 h 1 v 1 h -1 z m 2,0 h 1 v 1 h -1 z m 2,0 h 1 v 1 h -1 z m 2,0 h 1 v 1 h -1 z m 2,0 h 1 v 1 h -1 z m 2,0 h 1 v 1 h -1 z m 2,0 h 1 v 1 h -1 z m 2,0 h 1 v 1 h -1 z m 2,0 h 1 v 1 h -1 z m 2,0 h 1 v 1 h -1 z m 1.99997,0 h 1.00003 v 1 h -1.00003 z m 2.00003,0 h 1 v 1 h -1 z m 2,0 h 1 v 1 h -1 z m 2,0 h 1 v 1 h -1 z m 2,0 h 1 v 1 h -1 z m 2,0 h 1 v 1 h -1 z m 2,0 h 1 v 1 h -1 z m 2,0 h 1 v 1 h -1 z m 2,0 h 0.99997 v 1 h -0.99997 z m 2,0 h 1 v 1 h -1 z m 2,0 h 1 v 1 h -1 z m 2,0 h 1 v 1 h -1 z m 2,0 h 1 v 1 h -1 z m 2,0 h 1 v 1 h -1 z m 2,0 h 1 v 1 h -1 z m 2,0 h 1 v 1 h -1 z m 2,0 h 1 v 1 h -1 z m 2,0 h 1 v 1 h -1 z m 2,0 h 1 v 1 h -1 z m 2,0 h 1 v 1 h -1 z m 2,0 h 1 v 1 h -1 z m 2,0 h 1 v 1 h -1 z m 1.5,1.5 v 1 h -1 v -1 z m 0,2 v 1 h -1 v -1 z m 0,2 v 1 h -1 v -1 z m 0,2 v 1 h -1 v -1 z m 0,2 v 1 h -1 v -1 z m 0,2 v 1 h -1 v -1 z m 0,2 v 1 h -1 v -1 z m 0,2 v 1 h -1 v -1 z m 0,2 v 1 h -1 v -1 z m 0,2 v 1 h -1 v -1 z m 0,2 v 1 h -1 v -1 z m 0,2 v 1 h -1 v -1 z m 0,2 v 1 h -1 v -1 z m 0,2 v 1 h -1 v -1 z m 0,2 v 1 h -1 v -1 z m 0,2 v 1 h -1 v -1 z m 0,2 v 1 h -1 v -1 z m 0,2 v 1 h -1 v -1 z m 0,2 v 1 h -1 v -1 z m 0,2 v 1 h -1 v -1 z m 0,2 v 1 h -1 v -1 z m 0,2 v 1 h -1 v -1 z m 0,2 v 1 h -1 v -1 z m 0,2 v 1 h -1 v -1 z m 0,2 v 1 h -1 v -1 z m 0,2 v 1 h -1 v -1 z m 0,2 v 1 h -1 v -1 z m 0,2 v 1 h -1 v -1 z m 0,2 v 1 h -1 v -1 z m 0,2 v 1 h -1 v -1 z m 0,2 v 1 h -1 v -1 z m 0,2 v 1 h -1 v -1 z m 0,2 v 1 h -1 v -1 z m 0,2 v 1 h -1 v -1 z m 0,2 v 1 h -1 v -1 z m 0,2 v 1 h -1 v -1 z m 0,2 v 1 h -1 v -1 z m 0,2 v 1 h -1 v -1 z m 0,2 v 1 h -1 v -1 z m 0,2 v 1 h -1 v -1 z m 0,2 v 1 h -1 v -1 z m 0,2 v 1 h -1 v -1 z m 0,2 v 1 h -1 v -1 z m 0,2 v 1 h -1 v -1 z m 0,2 v 1 h -1 v -1 z m 0,2 v 1 h -1 v -1 z m 0,2 v 1 h -1 v -1 z m 0,2 v 1 h -1 v -1 z m 0,2 v 1 h -1 v -1 z m 0,2 v 1 h -1 v -1 z m 0,2 v 1 h -1 v -1 z m 0,2 v 1 h -1 v -1 z m 0,2 v 1 h -1 v -1 z m 0,2 v 1 h -1 v -1 z m 0,2 v 1 h -1 v -1 z m 0,2 v 1 h -1 v -1 z m 0,2 v 1 h -1 v -1 z m 0,2 v 1 h -1 v -1 z m 0,2 v 1 h -1 v -1 z m 0,2 v 1 h -1 v -1 z m 0,2 v 1 h -1 v -1 z m -0.5,2.5 h -1 v -1 h 1 z m -2,0 h -1 v -1 h 1 z m -2,0 h -1 v -1 h 1 z m -2,0 h -1 v -1 h 1 z m -2,0 h -1 v -1 h 1 z m -2,0 h -1 v -1 h 1 z m -2,0 h -1 v -1 h 1 z m -2,0 h -1 v -1 h 1 z m -2,0 h -1 v -1 h 1 z m -2,0 h -1 v -1 h 1 z m -2,0 h -1 v -1 h 1 z m -2,0 h -1 v -1 h 1 z m -2,0 h -1 v -1 h 1 z m -2,0 h -1 v -1 h 1 z m -2,0 h -1 v -1 h 1 z m -2,0 h -1 v -1 h 1 z m -2,0 h -1 v -1 h 1 z m -2,0 h -1 v -1 h 1 z m -2,0 h -1 v -1 h 1 z m -2,0 h -1 v -1 h 1 z m -2,0 h -1 v -1 h 1 z m -2,0 h -1 v -1 h 1 z m -2,0 h -1 v -1 h 1 z m -2,0 h -1 v -1 h 1 z m -2,0 h -1 v -1 h 1 z m -2,0 h -1 v -1 h 1 z m -2,0 h -1 v -1 h 1 z m -2,0 h -1 v -1 h 1 z m -2,0 h -1 v -1 h 1 z m -2,0 h -1 v -1 h 1 z m -2,0 h -1 v -1 h 1 z m -2,0 h -1 v -1 h 1 z m -2,0 h -1 v -1 h 1 z m -2,0 h -1 v -1 h 1 z m -2,0 h -1 v -1 h 1 z m -2,0 h -1 v -1 h 1 z m -2,0 h -1 v -1 h 1 z m -2,0 h -1 v -1 h 1 z m -2,0 h -1 v -1 h 1 z m -2,0 h -1 v -1 h 1 z m -2,0 h -1 v -1 h 1 z m -2,0 h -1 v -1 h 1 z m -2,0 h -1 v -1 h 1 z m -2,0 h -1 v -1 h 1 z m -2,0 h -1 v -1 h 1 z m -2,0 h -1 v -1 h 1 z m -2,0 h -1 v -1 h 1 z m -2,0 h -1 v -1 h 1 z m -2,0 h -1 v -1 h 1 z m -2,0 h -1 v -1 h 1 z m -2,0 h -1 v -1 h 1 z m -2,0 h -1 v -1 h 1 z m -2,0 h -1 v -1 h 1 z m -2,0 h -1 v -1 h 1 z m -2,0 h -1 v -1 h 1 z m -2,0 h -1 v -1 h 1 z m -2,0 h -1 v -1 h 1 z m -2,0 h -1 v -1 h 1 z m -2,0 h -1 v -1 h 1 z m -2,0 h -1 v -1 h 1 z m -2,0 h -1 v -1 h 1 z m -2,0 h -1 v -1 h 1 z m -2,0 h -1 v -1 h 1 z m -2,0 h -1 v -1 h 1 z m -2,0 h -1 v -1 h 1 z m -2,0 h -1 v -1 h 1 z m -2,0 h -1 v -1 h 1 z m -2,0 h -1 v -1 h 1 z m -2,0 h -1 v -1 h 1 z m -2,0 h -1 v -1 h 1 z m -2,0 h -1 v -1 h 1 z m -2,0 h -1 v -1 h 1 z m -2,0 h -1 v -1 h 1 z m -1.99999,0 h -1.00001 v -1 h 1.00001 z m -2.00001,0 h -1 v -1 h 1 z m -2,0 h -1 v -1 h 1 z m -2,0 h -1 v -1 h 1 z m -2,0 h -1 v -1 h 1 z m -2,0 h -1 v -1 h 1 z m -2,0 h -1 v -1 h 1 z m -2,0 h -1 v -1 h 1 z m -2,0 h -0.99999 v -1 h 0.99999 z m -2,0 h -1 v -1 h 1 z m -2,0 h -1 v -1 h 1 z m -2,0 h -1 v -1 h 1 z m -2,0 h -1 v -1 h 1 z m -2,0 h -1 v -1 h 1 z m -2,0 h -1 v -1 h 1 z m -2,0 h -1 v -1 h 1 z m -2,0 h -1 v -1 h 1 z m -1.99999,0 h -1.00003 v -1 h 1.00003 z m -2.00001,0 h -1 v -1 h 1 z m -2,0 h -1 v -1 h 1 z m -2,0 h -1 v -1 h 1 z m -2,0 h -1 v -1 h 1 z m -2,0 h -1 v -1 h 1 z m -2,0 h -1 v -1 h 1 z m -2,0 h -1 v -1 h 1 z m -2,0 h -1 v -1 h 1 z m -2.00002,0 h -0.99998 v -1 h 0.99998 z m -1.99998,0 h -1 v -1 h 1 z m -2,0 h -1 v -1 h 1 z m -2,0 h -1 v -1 h 1 z m -2,0 h -1 v -1 h 1 z m -2,0 h -1 v -1 h 1 z m -2,0 h -1 v -1 h 1 z m -2,0 h -1 v -1 h 1 z m -2,0 h -1.00002 v -1 h 1.00002 z m -2,0 h -1 v -1 h 1 z m -2,0 h -1 v -1 h 1 z m -2,0 h -1 v -1 h 1 z m -2,0 h -1 v -1 h 1 z m -2,0 h -1 v -1 h 1 z m -2,0 h -1 v -1 h 1 z m -2,0 h -1 v -1 h 1 z m -2,0 h -1 v -1 h 1 z m -1.99999,0 h -1.00001 v -1 h 1.00001 z m -2.00001,0 h -1 v -1 h 1 z m -2,0 h -1 v -1 h 1 z m -2,0 h -1 v -1 h 1 z m -2,0 h -1 v -1 h 1 z m -2,0 h -1 v -1 h 1 z m -2,0 h -1 v -1 h 1 z m -2,0 h -1 v -1 h 1 z m -2,0 h -0.99999 v -1 h 0.99999 z m -2,0 h -1 v -1 h 1 z m -2,0 h -1 v -1 h 1 z m -2,0 h -1 v -1 h 1 z m -2,0 h -1 v -1 h 1 z m -2,0 h -1 v -1 h 1 z m -2,0 h -1 v -1 h 1 z m -2,0 h -1 v -1 h 1 z m -2,0 h -1 v -1 h 1 z m -2,0 h -1 v -1 h 1 z m -2,0 h -1 v -1 h 1 z m -2,0 h -1 v -1 h 1 z m -2,0 h -1 v -1 h 1 z m -2,0 h -1.000012 v -1 h 1.000012 z M 99.099998,143 v -1 H 100.1 v 1 z m 0,-2 v -1 H 100.1 v 1 z m 0,-2 v -1 H 100.1 v 1 z m 0,-2 v -1 H 100.1 v 1 z m 0,-2 v -1 H 100.1 v 1 z m 0,-2 v -1 H 100.1 v 1 z m 0,-2 v -1 H 100.1 v 1 z m 0,-2 v -1 H 100.1 v 1 z m 0,-2 v -1 H 100.1 v 1 z m 0,-2 v -1 H 100.1 v 1 z m 0,-2 v -1 H 100.1 v 1 z m 0,-2 v -1 H 100.1 v 1 z m 0,-2 v -1 H 100.1 v 1 z m 0,-2 v -1 H 100.1 v 1 z m 0,-2 v -1 H 100.1 v 1 z m 0,-2 v -1 H 100.1 v 1 z m 0,-2 v -1 H 100.1 v 1 z m 0,-2 v -1 H 100.1 v 1 z m 0,-2 v -1 H 100.1 v 1 z m 0,-2 v -1 H 100.1 v 1 z m 0,-2 v -1 H 100.1 v 1 z m 0,-2 v -1 H 100.1 v 1 z m 0,-2 V 98 H 100.1 v 1 z m 0,-2 V 96 H 100.1 v 1 z m 0,-2 V 94 H 100.1 v 1 z m 0,-2 V 92 H 100.1 v 1 z m 0,-2 V 90 H 100.1 v 1 z m 0,-2 V 88 H 100.1 v 1 z m 0,-2 V 86 H 100.1 v 1 z m 0,-2 V 84 H 100.1 v 1 z m 0,-2 V 82 H 100.1 v 1 z m 0,-2 V 80 H 100.1 v 1 z m 0,-2 V 78 H 100.1 v 1 z m 0,-2 V 76 H 100.1 v 1 z m 0,-2 V 74 H 100.1 v 1 z m 0,-2 V 72 H 100.1 v 1 z m 0,-2 V 70 H 100.1 v 1 z m 0,-2 V 68 H 100.1 v 1 z m 0,-2 V 66 H 100.1 v 1 z m 0,-2 V 64 H 100.1 v 1 z m 0,-2 V 62 H 100.1 v 1 z m 0,-2 V 60 H 100.1 v 1 z m 0,-2 V 58 H 100.1 v 1 z m 0,-2 V 56 H 100.1 v 1 z m 0,-2 V 54 H 100.1 v 1 z m 0,-2 V 52 H 100.1 v 1 z m 0,-2 V 50 H 100.1 v 1 z m 0,-2 V 48 H 100.1 v 1 z m 0,-2 V 46 H 100.1 v 1 z m 0,-2 V 44 H 100.1 v 1 z m 0,-2 V 42 H 100.1 v 1 z m 0,-2 V 40 H 100.1 v 1 z m 0,-2 V 38 H 100.1 v 1 z m 0,-2 V 36 H 100.1 v 1 z m 0,-2 V 34 H 100.1 v 1 z m 0,-2 V 32 H 100.1 v 1 z m 0,-2 V 30 H 100.1 v 1 z m 0,-2 V 28 H 100.1 v 1 z m 0,-2 V 26 H 100.1 v 1 z m 0,-2 V 24 H 100.1 v 1 z m 0,-2 V 22 H 100.1 v 1 z m 0.5,-2.5 H 100.6 v 1 h -1.000002 z" /><path
             id="path7250"
             style="fill:#000000;fill-opacity:1;fill-rule:nonzero;stroke:none"
             d="m 250.60001,20.5 h 1 v 1 h -1 z m 2,0 h 1 v 1 h -1 z m 2,0 h 1 v 1 h -1 z m 2,0 h 1 v 1 h -1 z m 2,0 h 1 v 1 h -1 z m 2,0 h 1 v 1 h -1 z m 2,0 h 1 v 1 h -1 z m 2,0 h 1 v 1 h -1 z m 2,0 h 1 v 1 h -1 z m 2,0 h 1 v 1 h -1 z m 2,0 h 1 v 1 h -1 z m 2,0 h 1 v 1 h -1 z m 2,0 h 1 v 1 h -1 z m 2,0 h 1 v 1 h -1 z m 2,0 h 1 v 1 h -1 z m 2,0 h 1 v 1 h -1 z m 2,0 h 1 v 1 h -1 z m 2,0 h 1 v 1 h -1 z m 2,0 h 1 v 1 h -1 z m 2,0 h 1 v 1 h -1 z m 2,0 h 1 v 1 h -1 z m 2,0 h 1 v 1 h -1 z m 2,0 h 1 v 1 h -1 z m 2,0 h 1 v 1 h -1 z m 2,0 h 1 v 1 h -1 z m 2,0 h 1 v 1 h -1 z m 2,0 h 1 v 1 h -1 z m 2,0 h 1 v 1 h -1 z m 2,0 h 1 v 1 h -1 z m 2,0 h 1 v 1 h -1 z m 2,0 h 1 v 1 h -1 z m 2,0 h 1 v 1 h -1 z m 2,0 h 1 v 1 h -1 z m 2,0 h 1 v 1 h -1 z m 2,0 h 1 v 1 h -1 z m 2,0 h 1 v 1 h -1 z m 2,0 h 1 v 1 h -1 z m 2,0 h 1 v 1 h -1 z m 2,0 h 1 v 1 h -1 z m 2,0 h 1 v 1 h -1 z m 2,0 h 1 v 1 h -1 z m 2,0 h 1 v 1 h -1 z m 2,0 h 1 v 1 h -1 z m 2,0 h 1 v 1 h -1 z m 2,0 h 1 v 1 h -1 z m 2,0 h 1 v 1 h -1 z m 2,0 h 1 v 1 h -1 z m 2,0 h 1 v 1 h -1 z m 2,0 h 1 v 1 h -1 z m 2,0 h 1 v 1 h -1 z m 2,0 h 1 v 1 h -1 z m 2,0 h 1 v 1 h -1 z m 2,0 h 1 v 1 h -1 z m 2,0 h 1 v 1 h -1 z m 2,0 h 1 v 1 h -1 z m 2,0 h 1 v 1 h -1 z m 2,0 h 1 v 1 h -1 z m 2,0 h 1 v 1 h -1 z m 2,0 h 1 v 1 h -1 z m 2,0 h 1 v 1 h -1 z m 2,0 h 1 v 1 h -1 z m 2,0 h 1 v 1 h -1 z m 2.5,0.5 v 1 h -1 v -1 z m 0,2 v 1 h -1 v -1 z m 0,2 v 1 h -1 v -1 z m 0,2 v 1 h -1 v -1 z m 0,2 v 1 h -1 v -1 z m 0,2 v 1 h -1 v -1 z m 0,2 v 1 h -1 v -1 z m 0,2 v 1 h -1 v -1 z m 0,2 v 1 h -1 v -1 z m 0,2 v 1 h -1 v -1 z m 0,2 v 1 h -1 v -1 z m 0,2 v 1 h -1 v -1 z m 0,2 v 1 h -1 v -1 z m 0,2 v 1 h -1 v -1 z m 0,2 v 1 h -1 v -1 z m 0,2 v 1 h -1 v -1 z m 0,2 v 1 h -1 v -1 z m 0,2 v 1 h -1 v -1 z m 0,2 v 1 h -1 v -1 z m 0,2 v 1 h -1 v -1 z m 0,2 v 1 h -1 v -1 z m 0,2 v 1 h -1 v -1 z m 0,2 v 1 h -1 v -1 z m 0,2 v 1 h -1 v -1 z m 0,2 v 1 h -1 v -1 z m 0,2 v 1 h -1 v -1 z m 0,2 v 1 h -1 v -1 z m 0,2 v 1 h -1 v -1 z m 0,2 v 1 h -1 v -1 z m 0,2 v 1 h -1 v -1 z m 0,2 v 1 h -1 v -1 z m 0,2 v 1 h -1 v -1 z m 0,2 v 1 h -1 v -1 z m 0,2 v 1 h -1 v -1 z m 0,2 v 1 h -1 v -1 z m 0,2 v 1 h -1 v -1 z m 0,2 v 1 h -1 v -1 z m 0,2 v 1 h -1 v -1 z m 0,2 v 1 h -1 v -1 z m 0,2 v 1 h -1 v -1 z m 0,2 v 1 h -1 v -1 z m 0,2 v 1 h -1 v -1 z m 0,2 v 1 h -1 v -1 z m 0,2 v 1 h -1 v -1 z m 0,2 v 1 h -1 v -1 z m 0,2 v 1 h -1 v -1 z m 0,2 v 1 h -1 v -1 z m 0,2 v 1 h -1 v -1 z m 0,2 v 0.99999 h -1 V 117 Z m 0,2 v 1 h -1 v -1 z m 0,2.00001 V 122 h -1 v -0.99999 z m 0,1.99999 v 1.00001 h -1 V 123 Z m 0,2 v 0.99999 h -1 V 125 Z m 0,2 v 1 h -1 v -1 z m 0,2 v 1 h -1 v -1 z m 0,2 v 1 h -1 v -1 z m 0,2 v 1 h -1 v -1 z m 0,2 v 1 h -1 v -1 z m 0,2 v 1 h -1 v -1 z m 0,2 v 1 h -1 v -1 z m 0,2 v 1 h -1 v -1 z m 0,2 v 1 h -1 v -1 z m 0,2 v 1 h -1 v -1 z m 0,2 v 1 h -1 v -1 z m 0,2 v 1 h -1 v -1 z m 0,2 v 1 h -1 v -1 z m 0,2 v 1 h -1 v -1 z m 0,2 v 1 h -1 v -1 z m 0,2 v 1 h -1 v -1 z m 0,2 v 1 h -1 v -1 z m 0,2 v 1 h -1 v -1 z m 0,2 v 1 h -1 v -1 z m 0,2 v 1 h -1 v -1 z m 0,2 v 1 h -1 v -1 z m 0,2 v 1 h -1 v -1 z m 0,2 v 1 h -1 v -1 z m 0,2 v 1 h -1 v -1 z m 0,2 v 1 h -1 v -1 z m 0,2 v 1 h -1 v -1 z m 0,2 v 1 h -1 v -1 z m 0,2 v 1 h -1 v -1 z m 0,2 v 1 h -1 v -1 z m 0,2 v 1 h -1 v -1 z m 0,2 v 1 h -1 v -1 z m 0,2 v 1 h -1 v -1 z m 0,2 v 1 h -1 v -1 z m 0,2 v 1 h -1 v -1 z m 0,2 v 1 h -1 v -1 z m 0,2 v 1 h -1 v -1 z m 0,2 v 1 h -1 v -1 z m 0,2 v 1 h -1 v -1 z m 0,2 v 1 h -1 v -1 z m 0,2 v 1 h -1 v -1 z m 0,2 v 1 h -1 v -1 z m 0,2 v 1 h -1 v -1 z m 0,2 v 1 h -1 v -1 h 0.5 v 0.5 h -0.5 V 211 Z m -2,1 h -1 v -1 h 1 z m -2,0 h -1 v -1 h 1 z m -2,0 h -1 v -1 h 1 z m -2,0 h -1 v -1 h 1 z m -2,0 h -1 v -1 h 1 z m -2,0 h -1 v -1 h 1 z m -2,0 h -1 v -1 h 1 z m -2,0 h -1 v -1 h 1 z m -2,0 h -1 v -1 h 1 z m -2,0 h -1 v -1 h 1 z m -2,0 h -1 v -1 h 1 z m -2,0 h -1 v -1 h 1 z m -2,0 h -1 v -1 h 1 z m -2,0 h -1 v -1 h 1 z m -2,0 h -1 v -1 h 1 z m -2,0 h -1 v -1 h 1 z m -2,0 h -1 v -1 h 1 z m -2,0 h -1 v -1 h 1 z m -2,0 h -1 v -1 h 1 z m -2,0 h -1 v -1 h 1 z m -2,0 h -1 v -1 h 1 z m -2,0 h -1 v -1 h 1 z m -2,0 h -1 v -1 h 1 z m -2,0 h -1 v -1 h 1 z m -2,0 h -1 v -1 h 1 z m -2,0 h -1 v -1 h 1 z m -2,0 h -1 v -1 h 1 z m -2,0 h -1 v -1 h 1 z m -2,0 h -1 v -1 h 1 z m -2,0 h -1 v -1 h 1 z m -2,0 h -1 v -1 h 1 z m -2,0 h -1 v -1 h 1 z m -2,0 h -1 v -1 h 1 z m -2,0 h -1 v -1 h 1 z m -2,0 h -1 v -1 h 1 z m -2,0 h -1 v -1 h 1 z m -2,0 h -1 v -1 h 1 z m -2,0 h -1 v -1 h 1 z m -2,0 h -1 v -1 h 1 z m -2,0 h -1 v -1 h 1 z m -2,0 h -1 v -1 h 1 z m -2,0 h -1 v -1 h 1 z m -2,0 h -1 v -1 h 1 z m -2,0 h -1 v -1 h 1 z m -2,0 h -1 v -1 h 1 z m -2,0 h -1 v -1 h 1 z m -2,0 h -1 v -1 h 1 z m -2,0 h -1 v -1 h 1 z m -2,0 h -1 v -1 h 1 z m -2,0 h -1 v -1 h 1 z m -2,0 h -1 v -1 h 1 z m -2,0 h -1 v -1 h 1 z m -2,0 h -1 v -1 h 1 z m -2,0 h -1 v -1 h 1 z m -2,0 h -1 v -1 h 1 z m -2,0 h -1 v -1 h 1 z m -2,0 h -1 v -1 h 1 z m -2,0 h -1 v -1 h 1 z m -2,0 h -1 v -1 h 1 z m -2,0 h -1 v -1 h 1 z m -2,0 h -1 v -1 h 1 z m -2,0 h -1 v -1 h 1 z m -2,0 h -1 v -1 h 1 v 0.5 h -0.5 V 211 h 0.5 z m -1,-2 v -1 h 1 v 1 z m 0,-2 v -1 h 1 v 1 z m 0,-2 v -1 h 1 v 1 z m 0,-2 v -1 h 1 v 1 z m 0,-2 v -1 h 1 v 1 z m 0,-2 v -1 h 1 v 1 z m 0,-2 v -1 h 1 v 1 z m 0,-2 v -1 h 1 v 1 z m 0,-2 v -1 h 1 v 1 z m 0,-2 v -1 h 1 v 1 z m 0,-2 v -1 h 1 v 1 z m 0,-2 v -1 h 1 v 1 z m 0,-2 v -1 h 1 v 1 z m 0,-2 v -1 h 1 v 1 z m 0,-2 v -1 h 1 v 1 z m 0,-2 v -1 h 1 v 1 z m 0,-2 v -1 h 1 v 1 z m 0,-2 v -1 h 1 v 1 z m 0,-2 v -1 h 1 v 1 z m 0,-2 v -1 h 1 v 1 z m 0,-2 v -1 h 1 v 1 z m 0,-2 v -1 h 1 v 1 z m 0,-2 v -1 h 1 v 1 z m 0,-2 v -1 h 1 v 1 z m 0,-2 v -1 h 1 v 1 z m 0,-2 v -1 h 1 v 1 z m 0,-2 v -1 h 1 v 1 z m 0,-2 v -1 h 1 v 1 z m 0,-2 v -1 h 1 v 1 z m 0,-2 v -1 h 1 v 1 z m 0,-2 v -1 h 1 v 1 z m 0,-2 v -1 h 1 v 1 z m 0,-2 v -1 h 1 v 1 z m 0,-2 v -1 h 1 v 1 z m 0,-2 v -1 h 1 v 1 z m 0,-2 v -1 h 1 v 1 z m 0,-2 v -1 h 1 v 1 z m 0,-2 v -1 h 1 v 1 z m 0,-2 v -1 h 1 v 1 z m 0,-2 v -1 h 1 v 1 z m 0,-2 v -1 h 1 v 1 z m 0,-2 v -1 h 1 v 1 z m 0,-2 v -1 h 1 v 1 z m 0,-2 v -1 h 1 v 1 z m 0,-2 v -1 h 1 v 1 z m 0,-2 v -1 h 1 v 1 z m 0,-2 v -1 h 1 v 1 z m 0,-1.99999 V 115 h 1 v 1.00001 z m 0,-2.00001 v -0.99999 h 1 V 114 Z m 0,-2 v -1 h 1 v 1 z m 0,-2.00001 V 109 h 1 v 0.99999 z m 0,-1.99998 V 107 h 1 v 1.00001 z m 0,-2.00001 v -0.99999 h 1 V 106 Z m 0,-2 v -1 h 1 v 1 z m 0,-2.00001 V 101 h 1 v 0.99999 z m 0,-1.99998 V 99 h 1 v 1.00001 z m 0,-2.00001 v -0.999992 h 1 V 98 Z m 0,-2 v -1 h 1 v 1 z m 0,-2.000008 V 93 h 1 v 0.999992 z m 0,-1.999984 V 91 h 1 v 1.000008 z m 0,-2.000008 v -0.999992 h 1 V 90 Z m 0,-2 v -1 h 1 v 1 z m 0,-2.000008 V 85 h 1 v 0.999992 z m 0,-1.999984 V 83 h 1 v 1.000008 z m 0,-2.000008 v -1 h 1 v 1 z m 0,-2 v -1 h 1 v 1 z m 0,-2 v -1 h 1 v 1 z m 0,-2 v -1 h 1 v 1 z m 0,-2 v -1 h 1 v 1 z m 0,-2 v -1 h 1 v 1 z m 0,-2 v -1 h 1 v 1 z m 0,-2 v -1 h 1 v 1 z m 0,-2 v -1 h 1 v 1 z m 0,-2 v -1 h 1 v 1 z m 0,-2 v -1 h 1 v 1 z m 0,-2 v -1 h 1 v 1 z m 0,-2 v -1 h 1 v 1 z m 0,-2 v -1 h 1 v 1 z m 0,-2 v -1 h 1 v 1 z m 0,-2 v -1 h 1 v 1 z m 0,-2 v -1 h 1 v 1 z m 0,-2 v -1 h 1 v 1 z m 0,-2 v -1 h 1 v 1 z m 0,-2 v -1 h 1 v 1 z m 0,-2 v -1 h 1 v 1 z m 0,-2 v -1 h 1 v 1 z m 0,-2 v -1 h 1 v 1 z m 0,-2 v -1 h 1 v 1 z m 0,-2 v -1 h 1 v 1 z m 0,-2 v -1 h 1 v 1 z m 0,-2 v -1 h 1 v 1 z m 0,-2 v -1 h 1 v 1 z m 0,-2 v -1 h 1 v 1 z m 0,-2 v -1 h 1 v 1 z m 0,-2 v -1.5 h 1.5 v 1 h -1 V 21 h 0.5 v 1 z" /><path
             id="path7252"
             style="fill:#000000;fill-opacity:1;fill-rule:nonzero;stroke:none"
             d="m 357.60001,20.5 h 1 v 1 h -1 z m 2,0 h 1 v 1 h -1 z m 2,0 h 1 v 1 h -1 z m 2,0 h 1 v 1 h -1 z m 2,0 h 1 v 1 h -1 z m 2,0 h 1 v 1 h -1 z m 2,0 h 1 v 1 h -1 z m 2,0 h 1 v 1 h -1 z m 2,0 h 1 v 1 h -1 z m 1.5,1.5 v 1 h -1 v -1 z m 0,2 v 1 h -1 v -1 z m 0,2 v 1 h -1 v -1 z m 0,2 v 1 h -1 v -1 z m 0,2 v 1 h -1 v -1 z m 0,2 v 1 h -1 v -1 z m 0,2 v 1 h -1 v -1 z m 0,2 v 1 h -1 v -1 z m 0,2 v 1 h -1 v -1 z m 0,2 v 1 h -1 v -1 z m 0,2 v 1 h -1 v -1 z m 0,2 v 1 h -1 v -1 z m 0,2 v 1 h -1 v -1 z m 0,2 v 1 h -1 v -1 z m 0,2 v 1 h -1 v -1 z m 0,2 v 1 h -1 v -1 z m 0,2 v 1 h -1 v -1 z m 0,2 v 1 h -1 v -1 z m 0,2 v 1 h -1 v -1 z m 0,2 v 1 h -1 v -1 z m 0,2 v 1 h -1 v -1 z m 0,2 v 1 h -1 v -1 z m 0,2 v 1 h -1 v -1 z m 0,2 v 1 h -1 v -1 z m 0,2 v 1 h -1 v -1 z m 0,2 v 1 h -1 v -1 z m 0,2 v 1 h -1 v -1 z m 0,2 v 1 h -1 v -1 z m 0,2 v 1 h -1 v -1 z m 0,2 v 1 h -1 v -1 z m 0,2 v 1 h -1 v -1 z m 0,2 v 1 h -1 v -1 z m 0,2 v 1 h -1 v -1 z m 0,2 v 1 h -1 v -1 z m 0,2 v 1 h -1 v -1 z m 0,2 v 1 h -1 v -1 z m 0,2 v 1 h -1 v -1 z m 0,2 v 1 h -1 v -1 z m 0,2 v 1 h -1 v -1 z m 0,2 v 1 h -1 v -1 z m 0,2 v 1 h -1 v -1 z m 0,2 v 1 h -1 v -1 z m 0,2 v 1 h -1 v -1 z m 0,2 v 1 h -1 v -1 z m 0,2 v 1 h -1 v -1 z m 0,2 v 1 h -1 v -1 z m 0,2 v 1 h -1 v -1 z m 0,2 v 1 h -1 v -1 z m 0,2 v 1 h -1 v -1 z m 0,2 v 1 h -1 v -1 z m 0,2 v 1 h -1 v -1 z m 0,2 v 1 h -1 v -1 z m 0,2 v 1 h -1 v -1 z m 0,2 v 1 h -1 v -1 z m 0,2 v 1 h -1 v -1 z m 0,2 v 1 h -1 v -1 z m 0,2 v 1 h -1 v -1 z m 0,2 v 1 h -1 v -1 z m 0,2 v 1 h -1 v -1 z m 0,2 v 1 h -1 v -1 z m 0,2 v 1 h -1 v -1 z m 0,2 v 1 h -1 v -1 z m 0,2 v 1 h -1 v -1 z m 0,2 v 1 h -1 v -1 z m 0,2 v 1 h -1 v -1 z m 0,2 v 1 h -1 v -1 z m 0,2 v 1 h -1 v -1 z m 0,2 v 1 h -1 v -1 z m 0,2 v 1 h -1 v -1 z m 0,2 v 1 h -1 v -1 z m 0,2 v 1 h -1 v -1 z m 0,2 v 1 h -1 v -1 z m 0,2 v 1 h -1 v -1 z m 0,2 v 1 h -1 v -1 z m 0,2 v 1 h -1 v -1 z m 0,2 v 1 h -1 v -1 z m 0,2 v 1 h -1 v -1 z m 0,2 v 1 h -1 v -1 z m 0,2 v 1 h -1 v -1 z m 0,2 v 1 h -1 v -1 z m 0,2 v 1 h -1 v -1 z m 0,2 v 1 h -1 v -1 z m 0,2 v 1 h -1 v -1 z m 0,2 v 1 h -1 v -1 z m 0,2 v 1 h -1 v -1 z m 0,2 v 1 h -1 v -1 z m 0,2 v 1 h -1 v -1 z m 0,2 v 1 h -1 v -1 z m 0,2 v 1 h -1 v -1 z m 0,2 v 1 h -1 v -1 z m 0,2 v 1 h -1 v -1 z m 0,2 v 1 h -1 v -1 z m 0,2 v 1 h -1 v -1 z m 0,2 v 1 h -1 v -1 z m 0,2 v 1 h -1 v -1 z m 0,2 v 1 h -1 v -1 z m 0,2 v 1 h -1 v -1 z m 0,2 v 1 h -1 v -1 z m 0,2 v 1 h -1 v -1 z m 0,2 v 1 h -1 v -1 z m 0,2 v 1 h -1 v -1 z m 0,2 v 1 h -1 v -1 z m 0,2 v 1 h -1 v -1 z m 0,2 v 1 h -1 v -1 z m 0,2 v 1 h -1 v -1 z m 0,2 v 1 h -1 v -1 z m -1,2 h -1 v -1 h 1 z m -2,0 h -1 v -1 h 1 z m -2,0 h -1 v -1 h 1 z m -2,0 h -1 v -1 h 1 z m -2,0 h -1 v -1 h 1 z m -2,0 h -1 v -1 h 1 z m -2,0 h -1 v -1 h 1 z m -2,0 h -1 v -1 h 1 z m -2,0 h -1 v -1 h 1 z m -2,0 h -1 v -1 h 1 v 0.5 h -0.5 V 233 h 0.5 z m -1,-2 v -1 h 1 v 1 z m 0,-2 v -1 h 1 v 1 z m 0,-2 v -1 h 1 v 1 z m 0,-2 v -1 h 1 v 1 z m 0,-2 v -1 h 1 v 1 z m 0,-2 v -1 h 1 v 1 z m 0,-2 v -1 h 1 v 1 z m 0,-2 v -1 h 1 v 1 z m 0,-2 v -1 h 1 v 1 z m 0,-2 v -1 h 1 v 1 z m 0,-2 v -1 h 1 v 1 z m 0,-2 v -1 h 1 v 1 z m 0,-2 v -1 h 1 v 1 z m 0,-2 v -1 h 1 v 1 z m 0,-2 v -1 h 1 v 1 z m 0,-2 v -1 h 1 v 1 z m 0,-2 v -1 h 1 v 1 z m 0,-2 v -1 h 1 v 1 z m 0,-2 v -1 h 1 v 1 z m 0,-2 v -1 h 1 v 1 z m 0,-2 v -1 h 1 v 1 z m 0,-2 v -1 h 1 v 1 z m 0,-2 v -1 h 1 v 1 z m 0,-2 v -1 h 1 v 1 z m 0,-2 v -1 h 1 v 1 z m 0,-2 v -1 h 1 v 1 z m 0,-2 v -1 h 1 v 1 z m 0,-2 v -1 h 1 v 1 z m 0,-2 v -1 h 1 v 1 z m 0,-2 v -1 h 1 v 1 z m 0,-2 v -1 h 1 v 1 z m 0,-2 v -1 h 1 v 1 z m 0,-2 v -1 h 1 v 1 z m 0,-2 v -1 h 1 v 1 z m 0,-2 v -1 h 1 v 1 z m 0,-2 v -1 h 1 v 1 z m 0,-2 v -1 h 1 v 1 z m 0,-2 v -1 h 1 v 1 z m 0,-2 v -1 h 1 v 1 z m 0,-2 v -1 h 1 v 1 z m 0,-2 v -1 h 1 v 1 z m 0,-2 v -1 h 1 v 1 z m 0,-2 v -1 h 1 v 1 z m 0,-2 v -1 h 1 v 1 z m 0,-2 v -1 h 1 v 1 z m 0,-2 v -1 h 1 v 1 z m 0,-2 v -1 h 1 v 1 z m 0,-2 v -1 h 1 v 1 z m 0,-2 v -1 h 1 v 1 z m 0,-2 v -1 h 1 v 1 z m 0,-2 v -1 h 1 v 1 z m 0,-2 v -1 h 1 v 1 z m 0,-2 v -1 h 1 v 1 z m 0,-2.00001 V 125 h 1 v 0.99999 z m 0,-1.99999 v -0.99999 h 1 V 124 Z m 0,-2 v -1.00001 h 1 V 122 Z m 0,-2 v -1 h 1 v 1 z m 0,-1.99999 V 117 h 1 v 1.00001 z m 0,-2.00002 V 115 h 1 v 0.99999 z m 0,-1.99999 v -0.99999 h 1 V 114 Z m 0,-2 v -1.00001 h 1 V 112 Z m 0,-2 v -1 h 1 v 1 z m 0,-1.99999 V 107 h 1 v 1.00001 z m 0,-2.00002 V 105 h 1 v 0.99999 z m 0,-1.99999 v -1 h 1 v 1 z m 0,-2 v -1 h 1 v 1 z m 0,-2 v -1 h 1 v 1 z m 0,-2 v -1 h 1 v 1 z m 0,-2 v -1 h 1 v 1 z m 0,-2 v -1 h 1 v 1 z m 0,-2 v -1 h 1 v 1 z m 0,-2 v -1 h 1 v 1 z m 0,-2 v -1 h 1 v 1 z m 0,-2 v -1 h 1 v 1 z m 0,-2 v -1 h 1 v 1 z m 0,-2 v -1 h 1 v 1 z m 0,-2 v -1 h 1 v 1 z m 0,-2 v -1 h 1 v 1 z m 0,-2 v -1 h 1 v 1 z m 0,-2 v -1 h 1 v 1 z m 0,-2 v -1 h 1 v 1 z m 0,-2 v -1 h 1 v 1 z m 0,-2 v -1 h 1 v 1 z m 0,-2 v -1 h 1 v 1 z m 0,-2 v -1 h 1 v 1 z m 0,-2 v -1 h 1 v 1 z m 0,-2 v -1 h 1 v 1 z m 0,-2 v -1 h 1 v 1 z m 0,-2 v -1 h 1 v 1 z m 0,-2 v -1 h 1 v 1 z m 0,-2 v -1 h 1 v 1 z m 0,-2 v -1 h 1 v 1 z m 0,-2 v -1 h 1 v 1 z m 0,-2 v -1 h 1 v 1 z m 0,-2 v -1 h 1 v 1 z m 0,-2 v -1 h 1 v 1 z m 0,-2 v -1 h 1 v 1 z m 0,-2 v -1 h 1 v 1 z m 0,-2 v -1 h 1 v 1 z m 0,-2 v -1 h 1 v 1 z m 0,-2 v -1 h 1 v 1 z m 0,-2 v -1 h 1 v 1 z m 0,-2 v -1 h 1 v 1 z m 0,-2 v -1 h 1 v 1 z m 0,-2 v -1 h 1 v 1 z m 0,-2 v -1.5 h 1.5 v 1 h -1 V 21 h 0.5 v 1 z" /></g><g
           transform="scale(2.9954393)"
           id="g7254"><path
             id="path7256"
             style="fill:#ff1736;fill-opacity:1;fill-rule:nonzero;stroke:none"
             d="m 380.10001,22 c -3e-5,0.663038 -0.1269,1.300844 -0.38065,1.913414 -0.25375,0.61257 -0.61502,1.153275 -1.08386,1.622116 -0.46884,0.46884 -1.00952,0.830126 -1.6221,1.083862 -0.61258,0.253737 -1.25037,0.380606 -1.91339,0.380608 -0.66306,-2e-6 -1.30088,-0.126871 -1.91343,-0.380608 -0.61257,-0.253736 -1.15329,-0.615022 -1.62213,-1.083862 -0.46887,-0.468841 -0.83017,-1.009546 -1.08389,-1.622116 -0.25372,-0.61257 -0.38058,-1.250376 -0.38055,-1.913414 -3e-5,-0.663042 0.12683,-1.300848 0.38055,-1.91342 0.25372,-0.61257 0.61502,-1.153276 1.08389,-1.622116 0.46884,-0.468839 1.00952,-0.830128 1.62207,-1.083862 C 373.7991,17.126867 374.43695,17 375.10001,17 c 0.66302,0 1.30081,0.126867 1.91339,0.3806 0.61258,0.253736 1.15326,0.615025 1.6221,1.083864 0.46884,0.46884 0.83011,1.009546 1.08386,1.622116 0.25375,0.612572 0.38062,1.250378 0.38065,1.91342 z" /><path
             id="path7258"
             style="fill:none;stroke:#4d4d4d;stroke-width:1;stroke-linecap:butt;stroke-linejoin:miter;stroke-miterlimit:10;stroke-dasharray:none;stroke-opacity:1"
             d="m 380.10001,22 c -3e-5,0.663038 -0.1269,1.300844 -0.38065,1.913414 -0.25375,0.61257 -0.61502,1.153275 -1.08386,1.622116 -0.46884,0.46884 -1.00952,0.830126 -1.6221,1.083862 -0.61258,0.253737 -1.25037,0.380606 -1.91339,0.380608 -0.66306,-2e-6 -1.30088,-0.126871 -1.91343,-0.380608 -0.61257,-0.253736 -1.15329,-0.615022 -1.62213,-1.083862 -0.46887,-0.468841 -0.83017,-1.009546 -1.08389,-1.622116 -0.25372,-0.61257 -0.38058,-1.250376 -0.38055,-1.913414 -3e-5,-0.663042 0.12683,-1.300848 0.38055,-1.91342 0.25372,-0.61257 0.61502,-1.153276 1.08389,-1.622116 0.46884,-0.468839 1.00952,-0.830128 1.62207,-1.083862 C 373.7991,17.126867 374.43695,17 375.10001,17 c 0.66302,0 1.30081,0.126867 1.91339,0.3806 0.61258,0.253736 1.15326,0.615025 1.6221,1.083864 0.46884,0.46884 0.83011,1.009546 1.08386,1.622116 0.25375,0.612572 0.38062,1.250378 0.38065,1.91342 z" /></g></g></g></g></svg>