<?xml version="1.0" encoding="UTF-8" standalone="no"?>
<!-- Created with Inkscape (http://www.inkscape.org/) -->
<svg
   xmlns:svg="http://www.w3.org/2000/svg"
   xmlns="http://www.w3.org/2000/svg"
   version="1.0"
   width="708.66144"
   height="708.66138"
   id="svg2505">
  <defs
     id="defs2507" />
  <g
     transform="translate(-247.79114,74.090343)"
     id="layer1">
    <path
       d="M 290.78236,205.35244 L 484.24274,205.35244 L 484.24274,430.70953 L 720.69434,430.70953 L 720.69434,205.35244 L 913.46134,205.35244 L 913.46134,402.97328 L 724.8548,591.57982 L 479.3889,591.57982 L 290.78236,402.97328 L 290.78236,205.35244 L 290.78236,205.35244 z M 892.65914,226.84805 L 742.18995,226.84805 L 742.18995,452.20514 L 462.74716,452.20514 L 462.74716,226.84805 L 312.27797,226.84805 L 312.27797,394.6524 L 488.4032,570.09388 L 716.53391,570.09388 L 891.96573,394.6524 L 892.65914,226.84805 L 892.65914,226.84805 z M 888.49872,162.36126 L 716.53391,-9.6035491 L 488.4032,-9.6035491 L 316.43839,162.36126 L 527.23396,162.36126 L 527.23396,387.71834 L 677.70315,387.71834 L 677.70315,162.36126 L 888.49872,162.36126 L 888.49872,162.36126 z M 913.46134,183.85683 L 699.19876,183.85683 L 699.19876,409.21395 L 505.73835,409.21395 L 505.73835,183.85683 L 290.78236,183.85683 L 290.78236,157.50738 L 479.3889,-31.099159 L 724.8548,-31.099159 L 913.46134,157.50738 L 913.46134,183.85683 L 913.46134,183.85683 L 913.46134,183.85683 z M 247.79114,140.86565 L 247.79114,419.61505 L 462.74716,634.57104 L 742.18995,634.57104 L 956.45256,419.61505 L 956.45256,140.86565 L 742.18995,-74.090343 L 462.74716,-74.090343 L 247.79114,140.86565 L 247.79114,140.86565 z M 269.28675,149.18653 L 269.28675,411.29417 L 471.06801,613.07543 L 733.17568,613.07543 L 934.95695,411.29417 L 934.95695,149.18653 L 733.17568,-52.594768 L 471.06801,-52.594768 L 269.28675,149.18653 L 269.28675,149.18653 z "
       style="fill:#061843;fill-rule:evenodd"
       id="path2349" />
  </g>
</svg>
