<?xml version="1.0" encoding="UTF-8" standalone="no"?>
<svg
   xmlns:dc="http://purl.org/dc/elements/1.1/"
   xmlns:cc="http://creativecommons.org/ns#"
   xmlns:rdf="http://www.w3.org/1999/02/22-rdf-syntax-ns#"
   xmlns:svg="http://www.w3.org/2000/svg"
   xmlns="http://www.w3.org/2000/svg"
   xmlns:sodipodi="http://sodipodi.sourceforge.net/DTD/sodipodi-0.dtd"
   xmlns:inkscape="http://www.inkscape.org/namespaces/inkscape"
   height="50"
   width="50"
   data-name="Layer 1"
   viewBox="0 0 16.666667 16.666667"
   x="0px"
   y="0px"
   version="1.1"
   id="svg10"
   sodipodi:docname="web.svg"
   style="fill:#4d4d4d"
   inkscape:version="0.92.3 (2405546, 2018-03-11)">
  <metadata
     id="metadata16">
    <rdf:RDF>
      <cc:Work
         rdf:about="">
        <dc:format>image/svg+xml</dc:format>
        <dc:type
           rdf:resource="http://purl.org/dc/dcmitype/StillImage" />
        <dc:title>all</dc:title>
      </cc:Work>
    </rdf:RDF>
  </metadata>
  <defs
     id="defs14" />
  <sodipodi:namedview
     pagecolor="#ffffff"
     bordercolor="#666666"
     borderopacity="1"
     objecttolerance="10"
     gridtolerance="10"
     guidetolerance="10"
     inkscape:pageopacity="0"
     inkscape:pageshadow="2"
     inkscape:window-width="2560"
     inkscape:window-height="1385"
     id="namedview12"
     showgrid="false"
     inkscape:pagecheckerboard="true"
     inkscape:zoom="4.4500587"
     inkscape:cx="32.473655"
     inkscape:cy="-45.1701"
     inkscape:window-x="0"
     inkscape:window-y="27"
     inkscape:window-maximized="1"
     inkscape:current-layer="svg10" />
  <title
     id="title2">all</title>
  <g
     data-name="Go to Web - Orange"
     id="g8"
     transform="matrix(0.16079973,0,0,0.16079973,0.53524766,0.51178786)">
    <polygon
       points="95.59,79.02 57.99,44.51 57.99,94.81 70.94,81.87 80.34,100 87.17,96.46 78.12,79.02 "
       id="polygon4" />
    <path
       d="m 96.69,53.76 c 0.09,-0.66 0.2,-1.32 0.27,-2 0.15,-1.51 0.24,-3 0.24,-4.58 0,-1.58 -0.08,-3 -0.22,-4.46 -0.07,-0.78 -0.2,-1.54 -0.31,-2.3 -0.08,-0.54 -0.13,-1.09 -0.22,-1.62 v 0 a 47.19,47.19 0 0 0 -38,-38 v 0 C 57.77,0.65 57.14,0.59 56.52,0.5 55.9,0.41 55.17,0.29 54.52,0.22 53,0.08 51.51,0 50,0 48.49,0 47,0.08 45.52,0.22 44.83,0.29 44.16,0.4 43.52,0.5 42.88,0.6 42.26,0.64 41.65,0.75 v 0 a 47.19,47.19 0 0 0 -38,38 v 0 C 3.55,39.32 3.5,39.91 3.41,40.49 3.32,41.07 3.09,42 3,42.73 c -0.14,1.47 -0.22,3 -0.22,4.47 0,1.47 0.08,3 0.22,4.46 0.07,0.77 0.2,1.51 0.31,2.27 0.08,0.55 0.13,1.11 0.23,1.66 v 0 a 47.19,47.19 0 0 0 38,38 v 0 c 0.58,0.1 1.17,0.16 1.75,0.24 0.58,0.08 1.44,0.22 2.18,0.29 1.47,0.14 3,0.22 4.46,0.22 h 0.14 v -11 H 50 A 36.12,36.12 0 0 1 43.82,82.77 96.25,96.25 0 0 1 40,64.14 c 3.25,0.2 6.6,0.32 10,0.32 h 0.14 V 58.17 H 50 c -3.77,0 -7.31,-0.13 -10.62,-0.35 C 39.15,54.51 39,51 39,47.2 c 0,-3.8 0.13,-7.31 0.35,-10.63 3.32,-0.22 6.86,-0.35 10.63,-0.35 3.77,0 7.3,0.13 10.61,0.35 0,0.19 0,0.37 0,0.57 a 7.72,7.72 0 0 1 2.65,1.59 l 3.87,3.55 c -0.05,-1.74 -0.15,-3.43 -0.26,-5.12 a 96.67,96.67 0 0 1 18.79,3.84 36.46,36.46 0 0 1 0.56,6.18 35.94,35.94 0 0 1 -0.54,6.17 c -1.49,0.49 -3.07,1 -4.86,1.42 l 3.7,3.39 v 0 l 8.72,8 A 47,47 0 0 0 96.4,55.61 v 0 c 0.15,-0.61 0.21,-1.25 0.29,-1.85 z m -60,-40.18 A 114.47,114.47 0 0 0 33.63,30.8 114.3,114.3 0 0 0 16.42,33.85 36.37,36.37 0 0 1 36.65,13.58 Z m 0,67.25 A 36.36,36.36 0 0 1 16.38,60.55 114.26,114.26 0 0 0 33.59,63.61 114.65,114.65 0 0 0 36.64,80.82 Z M 33.06,57.24 a 96.5,96.5 0 0 1 -18.7,-3.85 34,34 0 0 1 0,-12.37 96.5,96.5 0 0 1 18.7,-3.85 c -0.2,3.25 -0.32,6.6 -0.32,10 0,3.4 0.12,6.83 0.32,10.07 z M 50,29.94 c -3.43,0 -6.78,0.11 -10,0.31 a 96.43,96.43 0 0 1 3.85,-18.7 33.91,33.91 0 0 1 12.36,0 A 96.54,96.54 0 0 1 60,30.26 C 56.78,30.05 53.43,29.94 50,29.94 Z m 16.39,0.85 A 114.66,114.66 0 0 0 63.34,13.57 36.36,36.36 0 0 1 83.62,33.85 114.22,114.22 0 0 0 66.39,30.79 Z"
       id="path6"
       inkscape:connector-curvature="0" />
  </g>
</svg>
