<?xml version="1.0" encoding="UTF-8" standalone="no"?>
<svg
   xmlns:dc="http://purl.org/dc/elements/1.1/"
   xmlns:cc="http://creativecommons.org/ns#"
   xmlns:rdf="http://www.w3.org/1999/02/22-rdf-syntax-ns#"
   xmlns:svg="http://www.w3.org/2000/svg"
   xmlns="http://www.w3.org/2000/svg"
   viewBox="0 0 170.56 137.28"
   height="137.28"
   width="170.56"
   xml:space="preserve"
   id="svg2"
   version="1.1"><metadata
     id="metadata8"><rdf:RDF><cc:Work
         rdf:about=""><dc:format>image/svg+xml</dc:format><dc:type
           rdf:resource="http://purl.org/dc/dcmitype/StillImage" /><dc:title></dc:title></cc:Work></rdf:RDF></metadata><defs
     id="defs6"><clipPath
       id="clipPath18"
       clipPathUnits="userSpaceOnUse"><path
         style="clip-rule:evenodd"
         id="path16"
         d="M 0,0 H 533.33331 V 428.46442 H 0 Z" /></clipPath><clipPath
       id="clipPath30"
       clipPathUnits="userSpaceOnUse"><path
         style="clip-rule:evenodd"
         id="path28"
         d="M 0,0 H 533.33331 V 425.46817 H 0 Z" /></clipPath></defs><g
     transform="matrix(0.31999998,0,0,0.31999998,0,4.7653333e-6)"
     id="g10"><g
       id="g12"><g
         clip-path="url(#clipPath18)"
         id="g14"><g
           transform="scale(2.9962547)"
           id="g20"><path
             id="path22"
             style="fill:#ffffff;fill-opacity:1;fill-rule:nonzero;stroke:none"
             d="M 0,0 H 178 V 143 H 0 Z" /></g></g></g><g
       id="g24"><g
         clip-path="url(#clipPath30)"
         id="g26"><g
           transform="matrix(2.9962547,0,0,2.9962547,1.4981273,1.4981273)"
           id="g32"><path
             id="path34"
             style="fill:none;stroke:#333333;stroke-width:1;stroke-linecap:butt;stroke-linejoin:miter;stroke-miterlimit:10;stroke-dasharray:none;stroke-opacity:1"
             d="M 28,31 H 8 v 80 h 11.879999" /><path
             id="path36"
             style="fill:#333333;fill-opacity:1;fill-rule:nonzero;stroke:none"
             d="m 26.879999,111 -7,2.33 v -4.66 z" /><path
             id="path38"
             style="fill:none;stroke:#333333;stroke-width:1;stroke-linecap:butt;stroke-linejoin:miter;stroke-miterlimit:10;stroke-dasharray:none;stroke-opacity:1"
             d="m 26.879999,111 -7,2.33 v -4.66 z" /><path
             id="path40"
             style="fill:#fff2cc;fill-opacity:1;fill-rule:nonzero;stroke:none"
             d="m 37,1 h 102 c 0.59094,0 1.17621,0.057644 1.7558,0.1729325 0.57957,0.1152883 1.14235,0.2860055 1.68832,0.5121516 0.54596,0.2261462 1.06462,0.503376 1.55599,0.8316891 0.49136,0.3283134 0.94598,0.7014017 1.36384,1.1192653 0.41786,0.4178636 0.79096,0.8724735 1.11926,1.3638289 0.32831,0.4913555 0.60554,1.0100155 0.83169,1.5559807 0.22615,0.5459657 0.39686,1.1087451 0.51216,1.6883383 C 147.94234,8.8237801 147.99998,9.4090509 148,10 v 42 c -2e-5,0.590946 -0.0577,1.176216 -0.17294,1.755806 -0.1153,0.579594 -0.28601,1.142376 -0.51216,1.688339 -0.22615,0.545963 -0.50338,1.064621 -0.83169,1.555977 -0.3283,0.491356 -0.7014,0.945969 -1.11926,1.363834 -0.41786,0.417866 -0.87248,0.790955 -1.36384,1.119267 -0.49137,0.328312 -1.01003,0.605537 -1.55599,0.831684 -0.54597,0.226147 -1.10875,0.396866 -1.68832,0.512154 C 140.17621,60.942352 139.59094,60.999996 139,61 H 37 c -0.590946,-4e-6 -1.176216,-0.05765 -1.75581,-0.172939 C 34.664597,60.711773 34.101814,60.541054 33.555847,60.314907 33.00988,60.08876 32.491219,59.811531 31.999863,59.483219 31.508509,59.154907 31.0539,58.781822 30.636036,58.363956 30.218172,57.946091 29.845081,57.491478 29.516768,57.000126 29.188456,56.508766 28.911226,55.990108 28.685081,55.444145 28.458933,54.898182 28.288216,54.3354 28.17293,53.755806 28.05764,53.176216 27.999998,52.590946 28,52 V 10 c -2e-6,-0.5909491 0.05764,-1.1762199 0.172928,-1.7558136 C 28.288216,7.6645932 28.458933,7.1018138 28.685081,6.5558481 28.911226,6.0098829 29.188456,5.4912224 29.516769,4.999867 29.845083,4.5085115 30.218172,4.0539021 30.636036,3.6360385 31.0539,3.2181749 31.508509,2.8450866 31.999865,2.5167732 32.491219,2.1884599 33.00988,1.9112301 33.555847,1.685084 34.101814,1.4589379 34.664597,1.2882206 35.24419,1.1729324 35.823784,1.0576441 36.409054,1 37,1 Z" /><path
             id="path42"
             style="fill:none;stroke:#d6b656;stroke-width:1;stroke-linecap:butt;stroke-linejoin:miter;stroke-miterlimit:10;stroke-dasharray:none;stroke-opacity:1"
             d="m 37,1 h 102 c 0.59094,0 1.17621,0.057644 1.7558,0.1729325 0.57957,0.1152883 1.14235,0.2860055 1.68832,0.5121516 0.54596,0.2261462 1.06462,0.503376 1.55599,0.8316891 0.49136,0.3283134 0.94598,0.7014017 1.36384,1.1192653 0.41786,0.4178636 0.79096,0.8724735 1.11926,1.3638289 0.32831,0.4913555 0.60554,1.0100155 0.83169,1.5559807 0.22615,0.5459657 0.39686,1.1087451 0.51216,1.6883383 C 147.94234,8.8237801 147.99998,9.4090509 148,10 v 42 c -2e-5,0.590946 -0.0577,1.176216 -0.17294,1.755806 -0.1153,0.579594 -0.28601,1.142376 -0.51216,1.688339 -0.22615,0.545963 -0.50338,1.064621 -0.83169,1.555977 -0.3283,0.491356 -0.7014,0.945969 -1.11926,1.363834 -0.41786,0.417866 -0.87248,0.790955 -1.36384,1.119267 -0.49137,0.328312 -1.01003,0.605537 -1.55599,0.831684 -0.54597,0.226147 -1.10875,0.396866 -1.68832,0.512154 C 140.17621,60.942352 139.59094,60.999996 139,61 H 37 c -0.590946,-4e-6 -1.176216,-0.05765 -1.75581,-0.172939 C 34.664597,60.711773 34.101814,60.541054 33.555847,60.314907 33.00988,60.08876 32.491219,59.811531 31.999863,59.483219 31.508509,59.154907 31.0539,58.781822 30.636036,58.363956 30.218172,57.946091 29.845081,57.491478 29.516768,57.000126 29.188456,56.508766 28.911226,55.990108 28.685081,55.444145 28.458933,54.898182 28.288216,54.3354 28.17293,53.755806 28.05764,53.176216 27.999998,52.590946 28,52 V 10 c -2e-6,-0.5909491 0.05764,-1.1762199 0.172928,-1.7558136 C 28.288216,7.6645932 28.458933,7.1018138 28.685081,6.5558481 28.911226,6.0098829 29.188456,5.4912224 29.516769,4.999867 29.845083,4.5085115 30.218172,4.0539021 30.636036,3.6360385 31.0539,3.2181749 31.508509,2.8450866 31.999865,2.5167732 32.491219,2.1884599 33.00988,1.9112301 33.555847,1.685084 34.101814,1.4589379 34.664597,1.2882206 35.24419,1.1729324 35.823784,1.0576441 36.409054,1 37,1 Z" /></g><g
           transform="scale(2.9962547)"
           id="g44"><text
             id="text48"
             style="font-variant:normal;font-weight:normal;font-size:15px;font-family:Helvetica;-inkscape-font-specification:Helvetica;writing-mode:lr-tb;fill:#333333;fill-opacity:1;fill-rule:nonzero;stroke:none"
             transform="translate(55.0625,37)"><tspan
               id="tspan46"
               y="0"
               x="0 10.004883 18.347168 23.342285 28.337402 36.679688 45.021973 53.364258 57.531738">Surrogate</tspan></text>
</g><g
           transform="matrix(2.9962547,0,0,2.9962547,1.4981273,1.4981273)"
           id="g50"><path
             id="path52"
             style="fill:none;stroke:#333333;stroke-width:1;stroke-linecap:butt;stroke-linejoin:miter;stroke-miterlimit:10;stroke-dasharray:none;stroke-opacity:1"
             d="m 148,111 h 20 V 31 h -11.88001" /><path
             id="path54"
             style="fill:#333333;fill-opacity:1;fill-rule:nonzero;stroke:none"
             d="m 149.11999,31 7,-2.33 v 4.660002 z" /><path
             id="path56"
             style="fill:none;stroke:#333333;stroke-width:1;stroke-linecap:butt;stroke-linejoin:miter;stroke-miterlimit:10;stroke-dasharray:none;stroke-opacity:1"
             d="m 149.11999,31 7,-2.33 v 4.660002 z" /><path
             id="path58"
             style="fill:#d5e8d4;fill-opacity:1;fill-rule:nonzero;stroke:none"
             d="m 37,81 h 102 c 0.59094,0 1.17621,0.05764 1.7558,0.172928 0.57957,0.115288 1.14235,0.286003 1.68832,0.512146 0.54596,0.226143 1.06462,0.503372 1.55599,0.831695 0.49136,0.328309 0.94598,0.701394 1.36384,1.119263 0.41786,0.417854 0.79096,0.87246 1.11926,1.363815 0.32831,0.491356 0.60554,1.010018 0.83169,1.555985 0.22615,0.545967 0.39686,1.108749 0.51216,1.688347 C 147.94234,88.823776 147.99998,89.40905 148,90 v 42 c -2e-5,0.59094 -0.0577,1.17621 -0.17294,1.7558 -0.1153,0.5796 -0.28601,1.14238 -0.51216,1.68835 -0.22615,0.54596 -0.50338,1.06462 -0.83169,1.55597 -0.3283,0.49135 -0.7014,0.94597 -1.11926,1.36383 -0.41786,0.41786 -0.87248,0.79094 -1.36384,1.11925 -0.49137,0.32832 -1.01003,0.60555 -1.55599,0.8317 -0.54597,0.22615 -1.10875,0.39686 -1.68832,0.51214 -0.57959,0.1153 -1.16486,0.17294 -1.7558,0.17296 H 37 c -0.590946,-2e-5 -1.176216,-0.0577 -1.75581,-0.17296 -0.579593,-0.11528 -1.142376,-0.28599 -1.688343,-0.51214 -0.545967,-0.22615 -1.064628,-0.50338 -1.555984,-0.8317 -0.491354,-0.32831 -0.945963,-0.70139 -1.363827,-1.11925 -0.417864,-0.41786 -0.790955,-0.87248 -1.119268,-1.36383 -0.328312,-0.49135 -0.605542,-1.01001 -0.831687,-1.55597 C 28.458933,134.89818 28.288216,134.3354 28.17293,133.7558 28.05764,133.17621 27.999998,132.59094 28,132 V 90 c -2e-6,-0.59095 0.05764,-1.176216 0.172928,-1.755814 0.115288,-0.579605 0.286005,-1.142387 0.512153,-1.688354 0.226145,-0.545967 0.503375,-1.064629 0.831688,-1.555985 0.328314,-0.491355 0.701403,-0.945961 1.119267,-1.363815 0.417864,-0.417869 0.872473,-0.790954 1.363829,-1.119263 0.491354,-0.328323 1.010015,-0.605552 1.555982,-0.831695 0.545967,-0.226143 1.10875,-0.396858 1.688343,-0.512146 C 35.823784,81.05764 36.409054,81 37,81 Z" /><path
             id="path60"
             style="fill:none;stroke:#82b366;stroke-width:1;stroke-linecap:butt;stroke-linejoin:miter;stroke-miterlimit:10;stroke-dasharray:none;stroke-opacity:1"
             d="m 37,81 h 102 c 0.59094,0 1.17621,0.05764 1.7558,0.172928 0.57957,0.115288 1.14235,0.286003 1.68832,0.512146 0.54596,0.226143 1.06462,0.503372 1.55599,0.831695 0.49136,0.328309 0.94598,0.701394 1.36384,1.119263 0.41786,0.417854 0.79096,0.87246 1.11926,1.363815 0.32831,0.491356 0.60554,1.010018 0.83169,1.555985 0.22615,0.545967 0.39686,1.108749 0.51216,1.688347 C 147.94234,88.823776 147.99998,89.40905 148,90 v 42 c -2e-5,0.59094 -0.0577,1.17621 -0.17294,1.7558 -0.1153,0.5796 -0.28601,1.14238 -0.51216,1.68835 -0.22615,0.54596 -0.50338,1.06462 -0.83169,1.55597 -0.3283,0.49135 -0.7014,0.94597 -1.11926,1.36383 -0.41786,0.41786 -0.87248,0.79094 -1.36384,1.11925 -0.49137,0.32832 -1.01003,0.60555 -1.55599,0.8317 -0.54597,0.22615 -1.10875,0.39686 -1.68832,0.51214 -0.57959,0.1153 -1.16486,0.17294 -1.7558,0.17296 H 37 c -0.590946,-2e-5 -1.176216,-0.0577 -1.75581,-0.17296 -0.579593,-0.11528 -1.142376,-0.28599 -1.688343,-0.51214 -0.545967,-0.22615 -1.064628,-0.50338 -1.555984,-0.8317 -0.491354,-0.32831 -0.945963,-0.70139 -1.363827,-1.11925 -0.417864,-0.41786 -0.790955,-0.87248 -1.119268,-1.36383 -0.328312,-0.49135 -0.605542,-1.01001 -0.831687,-1.55597 C 28.458933,134.89818 28.288216,134.3354 28.17293,133.7558 28.05764,133.17621 27.999998,132.59094 28,132 V 90 c -2e-6,-0.59095 0.05764,-1.176216 0.172928,-1.755814 0.115288,-0.579605 0.286005,-1.142387 0.512153,-1.688354 0.226145,-0.545967 0.503375,-1.064629 0.831688,-1.555985 0.328314,-0.491355 0.701403,-0.945961 1.119267,-1.363815 0.417864,-0.417869 0.872473,-0.790954 1.363829,-1.119263 0.491354,-0.328323 1.010015,-0.605552 1.555982,-0.831695 0.545967,-0.226143 1.10875,-0.396858 1.688343,-0.512146 C 35.823784,81.05764 36.409054,81 37,81 Z" /></g><g
           transform="scale(2.9962547)"
           id="g62"><text
             id="text66"
             style="font-variant:normal;font-weight:normal;font-size:15px;font-family:Helvetica;-inkscape-font-specification:Helvetica;writing-mode:lr-tb;fill:#333333;fill-opacity:1;fill-rule:nonzero;stroke:none"
             transform="translate(46.3125,117)"><tspan
               id="tspan64"
               y="0"
               x="0 11.66748 20.009766 24.177246 27.509766 40.004883 43.337402 50.837402 59.179688 63.347168 66.679688 75.021973">Optimization</tspan></text>
</g></g></g></g></svg>