<svg class="main-svg" xmlns="http://www.w3.org/2000/svg" xmlns:xlink="http://www.w3.org/1999/xlink" width="800" height="500" viewBox="0 0 800 500"><rect x="0" y="0" width="800" height="500" style="fill: rgb(255, 255, 255); fill-opacity: 1;"/><defs id="defs-4b5884"><g class="clips"><clipPath id="clip4b5884xyplot" class="plotclip"><rect width="640" height="355"/></clipPath><clipPath class="axesclip" id="clip4b5884x"><rect x="80" y="0" width="640" height="500"/></clipPath><clipPath class="axesclip" id="clip4b5884y"><rect x="0" y="60" width="800" height="355"/></clipPath><clipPath class="axesclip" id="clip4b5884xy"><rect x="80" y="60" width="640" height="355"/></clipPath></g><g class="gradients"/></defs><g class="bglayer"/><g class="layer-below"><g class="imagelayer"/><g class="shapelayer"/></g><g class="cartesianlayer"><g class="subplot xy"><g class="layer-subplot"><g class="shapelayer"/><g class="imagelayer"/></g><g class="gridlayer"><g class="x"/><g class="y"><path class="ygrid crisp" transform="translate(0,358.19)" d="M80,0h640" style="stroke: rgb(238, 238, 238); stroke-opacity: 1; stroke-width: 1px;"/><path class="ygrid crisp" transform="translate(0,314)" d="M80,0h640" style="stroke: rgb(238, 238, 238); stroke-opacity: 1; stroke-width: 1px;"/><path class="ygrid crisp" transform="translate(0,269.8)" d="M80,0h640" style="stroke: rgb(238, 238, 238); stroke-opacity: 1; stroke-width: 1px;"/><path class="ygrid crisp" transform="translate(0,225.61)" d="M80,0h640" style="stroke: rgb(238, 238, 238); stroke-opacity: 1; stroke-width: 1px;"/><path class="ygrid crisp" transform="translate(0,181.42000000000002)" d="M80,0h640" style="stroke: rgb(238, 238, 238); stroke-opacity: 1; stroke-width: 1px;"/><path class="ygrid crisp" transform="translate(0,137.22)" d="M80,0h640" style="stroke: rgb(238, 238, 238); stroke-opacity: 1; stroke-width: 1px;"/><path class="ygrid crisp" transform="translate(0,93.03)" d="M80,0h640" style="stroke: rgb(238, 238, 238); stroke-opacity: 1; stroke-width: 1px;"/></g></g><g class="zerolinelayer"><path class="yzl zl crisp" transform="translate(0,402.39)" d="M80,0h640" style="stroke: rgb(68, 68, 68); stroke-opacity: 1; stroke-width: 1px;"/></g><path class="xlines-below"/><path class="ylines-below"/><g class="overlines-below"/><g class="xaxislayer-below"/><g class="yaxislayer-below"/><g class="overaxes-below"/><g class="plot" transform="translate(80, 60)" clip-path="url('#clip4b5884xyplot')"><g class="boxlayer mlayer"><g class="trace boxes" style="opacity: 1;"><path class="box" d="M67.19,269.09H144.86M67.19,293.69H144.86V228.45H67.19ZM106.03,293.69V334.72M106.03,228.45V141.83M86.61,334.72H125.44M86.61,141.83H125.44" style="vector-effect: non-scaling-stroke; stroke-width: 2px; stroke: rgb(228, 87, 86); stroke-opacity: 1; fill: rgb(228, 87, 86); fill-opacity: 0.5;"/><path class="box" d="M384.19,259.07H461.86M384.19,286.51H461.86V175.55H384.19ZM423.03,286.51V319.36M423.03,175.55V31.89M403.61,319.36H442.44M403.61,31.89H442.44" style="vector-effect: non-scaling-stroke; stroke-width: 2px; stroke: rgb(228, 87, 86); stroke-opacity: 1; fill: rgb(228, 87, 86); fill-opacity: 0.5;"/><g class="points"><path class="point" transform="translate(106.03,130.32)" d="M3,0A3,3 0 1,1 0,-3A3,3 0 0,1 3,0Z" style="opacity: 1; stroke-width: 0px; fill: rgb(228, 87, 86); fill-opacity: 1;"/><path class="point" transform="translate(106.03,129.71)" d="M3,0A3,3 0 1,1 0,-3A3,3 0 0,1 3,0Z" style="opacity: 1; stroke-width: 0px; fill: rgb(228, 87, 86); fill-opacity: 1;"/><path class="point" transform="translate(106.03,119.44)" d="M3,0A3,3 0 1,1 0,-3A3,3 0 0,1 3,0Z" style="opacity: 1; stroke-width: 0px; fill: rgb(228, 87, 86); fill-opacity: 1;"/><path class="point" transform="translate(106.03,104.7)" d="M3,0A3,3 0 1,1 0,-3A3,3 0 0,1 3,0Z" style="opacity: 1; stroke-width: 0px; fill: rgb(228, 87, 86); fill-opacity: 1;"/><path class="point" transform="translate(106.03,89.75)" d="M3,0A3,3 0 1,1 0,-3A3,3 0 0,1 3,0Z" style="opacity: 1; stroke-width: 0px; fill: rgb(228, 87, 86); fill-opacity: 1;"/><path class="point" transform="translate(106.03,82.3)" d="M3,0A3,3 0 1,1 0,-3A3,3 0 0,1 3,0Z" style="opacity: 1; stroke-width: 0px; fill: rgb(228, 87, 86); fill-opacity: 1;"/><path class="point" transform="translate(106.03,79.86)" d="M3,0A3,3 0 1,1 0,-3A3,3 0 0,1 3,0Z" style="opacity: 1; stroke-width: 0px; fill: rgb(228, 87, 86); fill-opacity: 1;"/><path class="point" transform="translate(106.03,78.87)" d="M3,0A3,3 0 1,1 0,-3A3,3 0 0,1 3,0Z" style="opacity: 1; stroke-width: 0px; fill: rgb(228, 87, 86); fill-opacity: 1;"/><path class="point" transform="translate(106.03,73.69)" d="M3,0A3,3 0 1,1 0,-3A3,3 0 0,1 3,0Z" style="opacity: 1; stroke-width: 0px; fill: rgb(228, 87, 86); fill-opacity: 1;"/><path class="point" transform="translate(106.03,73.09)" d="M3,0A3,3 0 1,1 0,-3A3,3 0 0,1 3,0Z" style="opacity: 1; stroke-width: 0px; fill: rgb(228, 87, 86); fill-opacity: 1;"/><path class="point" transform="translate(106.03,67.61)" d="M3,0A3,3 0 1,1 0,-3A3,3 0 0,1 3,0Z" style="opacity: 1; stroke-width: 0px; fill: rgb(228, 87, 86); fill-opacity: 1;"/><path class="point" transform="translate(106.03,66.68)" d="M3,0A3,3 0 1,1 0,-3A3,3 0 0,1 3,0Z" style="opacity: 1; stroke-width: 0px; fill: rgb(228, 87, 86); fill-opacity: 1;"/><path class="point" transform="translate(106.03,62.16)" d="M3,0A3,3 0 1,1 0,-3A3,3 0 0,1 3,0Z" style="opacity: 1; stroke-width: 0px; fill: rgb(228, 87, 86); fill-opacity: 1;"/><path class="point" transform="translate(106.03,54.78)" d="M3,0A3,3 0 1,1 0,-3A3,3 0 0,1 3,0Z" style="opacity: 1; stroke-width: 0px; fill: rgb(228, 87, 86); fill-opacity: 1;"/><path class="point" transform="translate(106.03,40)" d="M3,0A3,3 0 1,1 0,-3A3,3 0 0,1 3,0Z" style="opacity: 1; stroke-width: 0px; fill: rgb(228, 87, 86); fill-opacity: 1;"/></g><g class="points"/></g><g class="trace boxes" style="opacity: 1;"><path class="box" d="M178.14,266.01H255.81M178.14,292.02H255.81V211.91H178.14ZM216.98,292.02V337.25M216.98,211.91V94.27M197.56,337.25H236.39M197.56,94.27H236.39" style="vector-effect: non-scaling-stroke; stroke-width: 2px; stroke: rgb(84, 162, 75); stroke-opacity: 1; fill: rgb(84, 162, 75); fill-opacity: 0.5;"/><path class="box" d="M495.14,255.69H572.81M495.14,287.04H572.81V170.01H495.14ZM533.98,287.04V327.03M533.98,170.01V33.4M514.56,327.03H553.39M514.56,33.4H553.39" style="vector-effect: non-scaling-stroke; stroke-width: 2px; stroke: rgb(84, 162, 75); stroke-opacity: 1; fill: rgb(84, 162, 75); fill-opacity: 0.5;"/><g class="points"><path class="point" transform="translate(216.98,90.63)" d="M3,0A3,3 0 1,1 0,-3A3,3 0 0,1 3,0Z" style="opacity: 1; stroke-width: 0px; fill: rgb(84, 162, 75); fill-opacity: 1;"/><path class="point" transform="translate(216.98,89.77)" d="M3,0A3,3 0 1,1 0,-3A3,3 0 0,1 3,0Z" style="opacity: 1; stroke-width: 0px; fill: rgb(84, 162, 75); fill-opacity: 1;"/><path class="point" transform="translate(216.98,82.38)" d="M3,0A3,3 0 1,1 0,-3A3,3 0 0,1 3,0Z" style="opacity: 1; stroke-width: 0px; fill: rgb(84, 162, 75); fill-opacity: 1;"/><path class="point" transform="translate(216.98,82.33)" d="M3,0A3,3 0 1,1 0,-3A3,3 0 0,1 3,0Z" style="opacity: 1; stroke-width: 0px; fill: rgb(84, 162, 75); fill-opacity: 1;"/><path class="point" transform="translate(216.98,78.8)" d="M3,0A3,3 0 1,1 0,-3A3,3 0 0,1 3,0Z" style="opacity: 1; stroke-width: 0px; fill: rgb(84, 162, 75); fill-opacity: 1;"/><path class="point" transform="translate(216.98,76.83)" d="M3,0A3,3 0 1,1 0,-3A3,3 0 0,1 3,0Z" style="opacity: 1; stroke-width: 0px; fill: rgb(84, 162, 75); fill-opacity: 1;"/><path class="point" transform="translate(216.98,72.51)" d="M3,0A3,3 0 1,1 0,-3A3,3 0 0,1 3,0Z" style="opacity: 1; stroke-width: 0px; fill: rgb(84, 162, 75); fill-opacity: 1;"/><path class="point" transform="translate(216.98,70.09)" d="M3,0A3,3 0 1,1 0,-3A3,3 0 0,1 3,0Z" style="opacity: 1; stroke-width: 0px; fill: rgb(84, 162, 75); fill-opacity: 1;"/><path class="point" transform="translate(216.98,59.37)" d="M3,0A3,3 0 1,1 0,-3A3,3 0 0,1 3,0Z" style="opacity: 1; stroke-width: 0px; fill: rgb(84, 162, 75); fill-opacity: 1;"/><path class="point" transform="translate(216.98,37.29)" d="M3,0A3,3 0 1,1 0,-3A3,3 0 0,1 3,0Z" style="opacity: 1; stroke-width: 0px; fill: rgb(84, 162, 75); fill-opacity: 1;"/><path class="point" transform="translate(216.98,37.21)" d="M3,0A3,3 0 1,1 0,-3A3,3 0 0,1 3,0Z" style="opacity: 1; stroke-width: 0px; fill: rgb(84, 162, 75); fill-opacity: 1;"/><path class="point" transform="translate(216.98,17.75)" d="M3,0A3,3 0 1,1 0,-3A3,3 0 0,1 3,0Z" style="opacity: 1; stroke-width: 0px; fill: rgb(84, 162, 75); fill-opacity: 1;"/></g><g class="points"/></g></g></g><g class="overplot"/><path class="xlines-above crisp" d="M0,0" style="fill: none;"/><path class="ylines-above crisp" d="M0,0" style="fill: none;"/><g class="overlines-above"/><g class="xaxislayer-above"><g class="xtick"><text text-anchor="middle" x="0" y="434" transform="translate(241.5,0)" style="font-family: 'Open Sans', verdana, arial, sans-serif; font-size: 18px; fill: rgb(68, 68, 68); fill-opacity: 1; white-space: pre;">10</text></g><g class="xtick"><text text-anchor="middle" x="0" y="434" transform="translate(558.5,0)" style="font-family: 'Open Sans', verdana, arial, sans-serif; font-size: 18px; fill: rgb(68, 68, 68); fill-opacity: 1; white-space: pre;">100</text></g></g><g class="yaxislayer-above"><g class="ytick"><text text-anchor="end" x="79" y="6.3" transform="translate(0,402.39)" style="font-family: 'Open Sans', verdana, arial, sans-serif; font-size: 18px; fill: rgb(68, 68, 68); fill-opacity: 1; white-space: pre;">0</text></g><g class="ytick"><text text-anchor="end" x="79" y="6.3" transform="translate(0,358.19)" style="font-family: 'Open Sans', verdana, arial, sans-serif; font-size: 18px; fill: rgb(68, 68, 68); fill-opacity: 1; white-space: pre;">0.5</text></g><g class="ytick"><text text-anchor="end" x="79" y="6.3" transform="translate(0,314)" style="font-family: 'Open Sans', verdana, arial, sans-serif; font-size: 18px; fill: rgb(68, 68, 68); fill-opacity: 1; white-space: pre;">1</text></g><g class="ytick"><text text-anchor="end" x="79" y="6.3" transform="translate(0,269.8)" style="font-family: 'Open Sans', verdana, arial, sans-serif; font-size: 18px; fill: rgb(68, 68, 68); fill-opacity: 1; white-space: pre;">1.5</text></g><g class="ytick"><text text-anchor="end" x="79" y="6.3" transform="translate(0,225.61)" style="font-family: 'Open Sans', verdana, arial, sans-serif; font-size: 18px; fill: rgb(68, 68, 68); fill-opacity: 1; white-space: pre;">2</text></g><g class="ytick"><text text-anchor="end" x="79" y="6.3" transform="translate(0,181.42000000000002)" style="font-family: 'Open Sans', verdana, arial, sans-serif; font-size: 18px; fill: rgb(68, 68, 68); fill-opacity: 1; white-space: pre;">2.5</text></g><g class="ytick"><text text-anchor="end" x="79" y="6.3" transform="translate(0,137.22)" style="font-family: 'Open Sans', verdana, arial, sans-serif; font-size: 18px; fill: rgb(68, 68, 68); fill-opacity: 1; white-space: pre;">3</text></g><g class="ytick"><text text-anchor="end" x="79" y="6.3" transform="translate(0,93.03)" style="font-family: 'Open Sans', verdana, arial, sans-serif; font-size: 18px; fill: rgb(68, 68, 68); fill-opacity: 1; white-space: pre;">3.5</text></g></g><g class="overaxes-above"/></g></g><g class="polarlayer"/><g class="ternarylayer"/><g class="geolayer"/><g class="funnelarealayer"/><g class="pielayer"/><g class="treemaplayer"/><g class="sunburstlayer"/><g class="glimages"/><defs id="topdefs-4b5884"><g class="clips"/><clipPath id="legend4b5884"><rect width="311" height="37" x="0" y="0"/></clipPath></defs><g class="layer-above"><g class="imagelayer"/><g class="shapelayer"/></g><g class="infolayer"><g class="legend" pointer-events="all" transform="translate(80, 450.50000000000006)"><rect class="bg" shape-rendering="crispEdges" width="311" height="37" x="0" y="0" style="stroke: rgb(68, 68, 68); stroke-opacity: 1; fill: rgb(255, 255, 255); fill-opacity: 1; stroke-width: 0px;"/><g class="scrollbox" transform="translate(0, 0)" clip-path="url('#legend4b5884')"><text class="legendtitletext user-select-none" text-anchor="start" x="2" y="23.400000000000002" style="font-family: 'Open Sans', verdana, arial, sans-serif; font-size: 18px; fill: rgb(68, 68, 68); fill-opacity: 1; white-space: pre;">Solver</text><g class="groups" transform="translate(0, 0)"><g class="traces" transform="translate(54.40625, 18.200000000000003)" style="opacity: 1;"><text class="legendtext user-select-none" text-anchor="start" x="40" y="7.0200000000000005" style="font-family: 'Open Sans', verdana, arial, sans-serif; font-size: 18px; fill: rgb(68, 68, 68); fill-opacity: 1; white-space: pre;">moea_control</text><g class="layers" style="opacity: 1;"><g class="legendfill"/><g class="legendlines"/><g class="legendsymbols"><g class="legendpoints"><path class="legendbox" d="M6,6H-6V-6H6Z" transform="translate(20,0)" style="stroke-width: 2px; fill: rgb(228, 87, 86); fill-opacity: 0.5; stroke: rgb(228, 87, 86); stroke-opacity: 1;"/></g></g></g><rect class="legendtoggle" pointer-events="all" x="0" y="-13.200000000000001" width="157.90625" height="26.400000000000002" style="cursor: pointer; fill: rgb(0, 0, 0); fill-opacity: 0;"/></g></g><g class="groups" transform="translate(160.40625, 0)"><g class="traces" transform="translate(54.40625, 18.200000000000003)" style="opacity: 1;"><text class="legendtext user-select-none" text-anchor="start" x="40" y="7.0200000000000005" style="font-family: 'Open Sans', verdana, arial, sans-serif; font-size: 18px; fill: rgb(68, 68, 68); fill-opacity: 1; white-space: pre;">nsga2</text><g class="layers" style="opacity: 1;"><g class="legendfill"/><g class="legendlines"/><g class="legendsymbols"><g class="legendpoints"><path class="legendbox" d="M6,6H-6V-6H6Z" transform="translate(20,0)" style="stroke-width: 2px; fill: rgb(84, 162, 75); fill-opacity: 0.5; stroke: rgb(84, 162, 75); stroke-opacity: 1;"/></g></g></g><rect class="legendtoggle" pointer-events="all" x="0" y="-13.200000000000001" width="93" height="26.400000000000002" style="cursor: pointer; fill: rgb(0, 0, 0); fill-opacity: 0;"/></g></g></g><rect class="scrollbar" rx="20" ry="3" width="0" height="0" x="0" y="0" style="fill: rgb(128, 139, 164); fill-opacity: 1;"/></g><g class="g-gtitle"/><g class="g-xtitle"><text class="xtitle" x="400" y="468.9" text-anchor="middle" style="font-family: 'Open Sans', verdana, arial, sans-serif; font-size: 22px; fill: rgb(68, 68, 68); opacity: 1; font-weight: normal; white-space: pre;">Predict size</text></g><g class="g-ytitle" transform="translate(1.275390625,0)"><text class="ytitle" transform="rotate(-90,22.725,237.5)" x="22.725" y="237.5" text-anchor="middle" style="font-family: 'Open Sans', verdana, arial, sans-serif; font-size: 22px; fill: rgb(68, 68, 68); opacity: 1; font-weight: normal; white-space: pre;">p-distance</text></g></g></svg>