<svg class="main-svg" xmlns="http://www.w3.org/2000/svg" xmlns:xlink="http://www.w3.org/1999/xlink" width="1200" height="600" viewBox="0 0 1200 600"><rect x="0" y="0" width="1200" height="600" style="fill: rgb(255, 255, 255); fill-opacity: 1;"/><defs id="defs-cd47b4"><g class="clips"><clipPath id="clipcd47b4xyplot" class="plotclip"><rect width="1019.1999999999999" height="241"/></clipPath><clipPath class="axesclip" id="clipcd47b4x"><rect x="80" y="0" width="1019.1999999999999" height="600"/></clipPath><clipPath class="axesclip" id="clipcd47b4y"><rect x="0" y="60" width="1200" height="241"/></clipPath><clipPath class="axesclip" id="clipcd47b4xy"><rect x="80" y="60" width="1019.1999999999999" height="241"/></clipPath></g><g class="gradients"/></defs><g class="bglayer"/><g class="layer-below"><g class="imagelayer"/><g class="shapelayer"/></g><g class="cartesianlayer"><g class="subplot xy"><g class="layer-subplot"><g class="shapelayer"/><g class="imagelayer"/></g><g class="gridlayer"><g class="x"><path class="xgrid crisp" transform="translate(310.47,0)" d="M0,60v241" style="stroke: rgb(235, 240, 248); stroke-opacity: 1; stroke-width: 1px;"/><path class="xgrid crisp" transform="translate(493.51,0)" d="M0,60v241" style="stroke: rgb(235, 240, 248); stroke-opacity: 1; stroke-width: 1px;"/><path class="xgrid crisp" transform="translate(676.54,0)" d="M0,60v241" style="stroke: rgb(235, 240, 248); stroke-opacity: 1; stroke-width: 1px;"/><path class="xgrid crisp" transform="translate(859.58,0)" d="M0,60v241" style="stroke: rgb(235, 240, 248); stroke-opacity: 1; stroke-width: 1px;"/><path class="xgrid crisp" transform="translate(1042.62,0)" d="M0,60v241" style="stroke: rgb(235, 240, 248); stroke-opacity: 1; stroke-width: 1px;"/></g><g class="y"><path class="ygrid crisp" transform="translate(0,223.44)" d="M80,0h1019.1999999999999" style="stroke: rgb(235, 240, 248); stroke-opacity: 1; stroke-width: 1px;"/><path class="ygrid crisp" transform="translate(0,162.28)" d="M80,0h1019.1999999999999" style="stroke: rgb(235, 240, 248); stroke-opacity: 1; stroke-width: 1px;"/><path class="ygrid crisp" transform="translate(0,101.12)" d="M80,0h1019.1999999999999" style="stroke: rgb(235, 240, 248); stroke-opacity: 1; stroke-width: 1px;"/></g></g><g class="zerolinelayer"><path class="xzl zl crisp" transform="translate(127.43,0)" d="M0,60v241" style="stroke: rgb(235, 240, 248); stroke-opacity: 1; stroke-width: 2px;"/><path class="yzl zl crisp" transform="translate(0,284.6)" d="M80,0h1019.1999999999999" style="stroke: rgb(235, 240, 248); stroke-opacity: 1; stroke-width: 2px;"/></g><path class="xlines-below"/><path class="ylines-below"/><g class="overlines-below"/><g class="xaxislayer-below"/><g class="yaxislayer-below"/><g class="overaxes-below"/><g class="plot" transform="translate(80, 60)" clip-path="url('#clipcd47b4xyplot')"><g class="scatterlayer mlayer"><g class="trace scatter trace9735de" style="stroke-miterlimit: 2; opacity: 1;"><g class="fills"/><g class="errorbars"/><g class="lines"/><g class="points"><path class="point" transform="translate(56.59,223.32)" d="M4.5,0A4.5,4.5 0 1,1 0,-4.5A4.5,4.5 0 0,1 4.5,0Z" style="opacity: 1; stroke-width: 0px; fill: rgb(99, 110, 250); fill-opacity: 1;"/><path class="point" transform="translate(65.74,222.06)" d="M4.5,0A4.5,4.5 0 1,1 0,-4.5A4.5,4.5 0 0,1 4.5,0Z" style="opacity: 1; stroke-width: 0px; fill: rgb(99, 110, 250); fill-opacity: 1;"/><path class="point" transform="translate(74.89,221.86)" d="M4.5,0A4.5,4.5 0 1,1 0,-4.5A4.5,4.5 0 0,1 4.5,0Z" style="opacity: 1; stroke-width: 0px; fill: rgb(99, 110, 250); fill-opacity: 1;"/><path class="point" transform="translate(84.04,220.68)" d="M4.5,0A4.5,4.5 0 1,1 0,-4.5A4.5,4.5 0 0,1 4.5,0Z" style="opacity: 1; stroke-width: 0px; fill: rgb(99, 110, 250); fill-opacity: 1;"/><path class="point" transform="translate(93.19,220.68)" d="M4.5,0A4.5,4.5 0 1,1 0,-4.5A4.5,4.5 0 0,1 4.5,0Z" style="opacity: 1; stroke-width: 0px; fill: rgb(99, 110, 250); fill-opacity: 1;"/><path class="point" transform="translate(102.34,220.45)" d="M4.5,0A4.5,4.5 0 1,1 0,-4.5A4.5,4.5 0 0,1 4.5,0Z" style="opacity: 1; stroke-width: 0px; fill: rgb(99, 110, 250); fill-opacity: 1;"/><path class="point" transform="translate(129.8,163.31)" d="M4.5,0A4.5,4.5 0 1,1 0,-4.5A4.5,4.5 0 0,1 4.5,0Z" style="opacity: 1; stroke-width: 0px; fill: rgb(99, 110, 250); fill-opacity: 1;"/></g><g class="text"/></g><g class="trace scatter tracecb6040" style="stroke-miterlimit: 2; opacity: 1;"><g class="fills"/><g class="errorbars"/><g class="lines"/><g class="points"><path class="point" transform="translate(111.5,179.63)" d="M4.5,0A4.5,4.5 0 1,1 0,-4.5A4.5,4.5 0 0,1 4.5,0Z" style="opacity: 1; stroke-width: 0px; fill: rgb(239, 85, 59); fill-opacity: 1;"/><path class="point" transform="translate(468.42,36.14)" d="M4.5,0A4.5,4.5 0 1,1 0,-4.5A4.5,4.5 0 0,1 4.5,0Z" style="opacity: 1; stroke-width: 0px; fill: rgb(239, 85, 59); fill-opacity: 1;"/><path class="point" transform="translate(486.72,34.86)" d="M4.5,0A4.5,4.5 0 1,1 0,-4.5A4.5,4.5 0 0,1 4.5,0Z" style="opacity: 1; stroke-width: 0px; fill: rgb(239, 85, 59); fill-opacity: 1;"/><path class="point" transform="translate(495.87,32.2)" d="M4.5,0A4.5,4.5 0 1,1 0,-4.5A4.5,4.5 0 0,1 4.5,0Z" style="opacity: 1; stroke-width: 0px; fill: rgb(239, 85, 59); fill-opacity: 1;"/><path class="point" transform="translate(505.02,32.18)" d="M4.5,0A4.5,4.5 0 1,1 0,-4.5A4.5,4.5 0 0,1 4.5,0Z" style="opacity: 1; stroke-width: 0px; fill: rgb(239, 85, 59); fill-opacity: 1;"/><path class="point" transform="translate(532.48,31.78)" d="M4.5,0A4.5,4.5 0 1,1 0,-4.5A4.5,4.5 0 0,1 4.5,0Z" style="opacity: 1; stroke-width: 0px; fill: rgb(239, 85, 59); fill-opacity: 1;"/><path class="point" transform="translate(541.63,30.66)" d="M4.5,0A4.5,4.5 0 1,1 0,-4.5A4.5,4.5 0 0,1 4.5,0Z" style="opacity: 1; stroke-width: 0px; fill: rgb(239, 85, 59); fill-opacity: 1;"/><path class="point" transform="translate(550.78,30.6)" d="M4.5,0A4.5,4.5 0 1,1 0,-4.5A4.5,4.5 0 0,1 4.5,0Z" style="opacity: 1; stroke-width: 0px; fill: rgb(239, 85, 59); fill-opacity: 1;"/><path class="point" transform="translate(559.93,30.58)" d="M4.5,0A4.5,4.5 0 1,1 0,-4.5A4.5,4.5 0 0,1 4.5,0Z" style="opacity: 1; stroke-width: 0px; fill: rgb(239, 85, 59); fill-opacity: 1;"/><path class="point" transform="translate(569.09,29.83)" d="M4.5,0A4.5,4.5 0 1,1 0,-4.5A4.5,4.5 0 0,1 4.5,0Z" style="opacity: 1; stroke-width: 0px; fill: rgb(239, 85, 59); fill-opacity: 1;"/><path class="point" transform="translate(578.24,28.18)" d="M4.5,0A4.5,4.5 0 1,1 0,-4.5A4.5,4.5 0 0,1 4.5,0Z" style="opacity: 1; stroke-width: 0px; fill: rgb(239, 85, 59); fill-opacity: 1;"/><path class="point" transform="translate(587.39,28.12)" d="M4.5,0A4.5,4.5 0 1,1 0,-4.5A4.5,4.5 0 0,1 4.5,0Z" style="opacity: 1; stroke-width: 0px; fill: rgb(239, 85, 59); fill-opacity: 1;"/><path class="point" transform="translate(596.54,28.01)" d="M4.5,0A4.5,4.5 0 1,1 0,-4.5A4.5,4.5 0 0,1 4.5,0Z" style="opacity: 1; stroke-width: 0px; fill: rgb(239, 85, 59); fill-opacity: 1;"/><path class="point" transform="translate(605.69,27.86)" d="M4.5,0A4.5,4.5 0 1,1 0,-4.5A4.5,4.5 0 0,1 4.5,0Z" style="opacity: 1; stroke-width: 0px; fill: rgb(239, 85, 59); fill-opacity: 1;"/><path class="point" transform="translate(614.85,27.82)" d="M4.5,0A4.5,4.5 0 1,1 0,-4.5A4.5,4.5 0 0,1 4.5,0Z" style="opacity: 1; stroke-width: 0px; fill: rgb(239, 85, 59); fill-opacity: 1;"/><path class="point" transform="translate(624,27.8)" d="M4.5,0A4.5,4.5 0 1,1 0,-4.5A4.5,4.5 0 0,1 4.5,0Z" style="opacity: 1; stroke-width: 0px; fill: rgb(239, 85, 59); fill-opacity: 1;"/><path class="point" transform="translate(633.15,27.8)" d="M4.5,0A4.5,4.5 0 1,1 0,-4.5A4.5,4.5 0 0,1 4.5,0Z" style="opacity: 1; stroke-width: 0px; fill: rgb(239, 85, 59); fill-opacity: 1;"/><path class="point" transform="translate(642.3,27.39)" d="M4.5,0A4.5,4.5 0 1,1 0,-4.5A4.5,4.5 0 0,1 4.5,0Z" style="opacity: 1; stroke-width: 0px; fill: rgb(239, 85, 59); fill-opacity: 1;"/><path class="point" transform="translate(651.45,24.94)" d="M4.5,0A4.5,4.5 0 1,1 0,-4.5A4.5,4.5 0 0,1 4.5,0Z" style="opacity: 1; stroke-width: 0px; fill: rgb(239, 85, 59); fill-opacity: 1;"/><path class="point" transform="translate(660.61,24.46)" d="M4.5,0A4.5,4.5 0 1,1 0,-4.5A4.5,4.5 0 0,1 4.5,0Z" style="opacity: 1; stroke-width: 0px; fill: rgb(239, 85, 59); fill-opacity: 1;"/><path class="point" transform="translate(669.76,23.22)" d="M4.5,0A4.5,4.5 0 1,1 0,-4.5A4.5,4.5 0 0,1 4.5,0Z" style="opacity: 1; stroke-width: 0px; fill: rgb(239, 85, 59); fill-opacity: 1;"/><path class="point" transform="translate(678.91,23.09)" d="M4.5,0A4.5,4.5 0 1,1 0,-4.5A4.5,4.5 0 0,1 4.5,0Z" style="opacity: 1; stroke-width: 0px; fill: rgb(239, 85, 59); fill-opacity: 1;"/><path class="point" transform="translate(688.06,22.96)" d="M4.5,0A4.5,4.5 0 1,1 0,-4.5A4.5,4.5 0 0,1 4.5,0Z" style="opacity: 1; stroke-width: 0px; fill: rgb(239, 85, 59); fill-opacity: 1;"/><path class="point" transform="translate(697.21,22.62)" d="M4.5,0A4.5,4.5 0 1,1 0,-4.5A4.5,4.5 0 0,1 4.5,0Z" style="opacity: 1; stroke-width: 0px; fill: rgb(239, 85, 59); fill-opacity: 1;"/><path class="point" transform="translate(706.36,22.62)" d="M4.5,0A4.5,4.5 0 1,1 0,-4.5A4.5,4.5 0 0,1 4.5,0Z" style="opacity: 1; stroke-width: 0px; fill: rgb(239, 85, 59); fill-opacity: 1;"/><path class="point" transform="translate(715.52,22.62)" d="M4.5,0A4.5,4.5 0 1,1 0,-4.5A4.5,4.5 0 0,1 4.5,0Z" style="opacity: 1; stroke-width: 0px; fill: rgb(239, 85, 59); fill-opacity: 1;"/><path class="point" transform="translate(724.67,22.62)" d="M4.5,0A4.5,4.5 0 1,1 0,-4.5A4.5,4.5 0 0,1 4.5,0Z" style="opacity: 1; stroke-width: 0px; fill: rgb(239, 85, 59); fill-opacity: 1;"/><path class="point" transform="translate(733.82,22.58)" d="M4.5,0A4.5,4.5 0 1,1 0,-4.5A4.5,4.5 0 0,1 4.5,0Z" style="opacity: 1; stroke-width: 0px; fill: rgb(239, 85, 59); fill-opacity: 1;"/><path class="point" transform="translate(742.97,22.56)" d="M4.5,0A4.5,4.5 0 1,1 0,-4.5A4.5,4.5 0 0,1 4.5,0Z" style="opacity: 1; stroke-width: 0px; fill: rgb(239, 85, 59); fill-opacity: 1;"/><path class="point" transform="translate(752.12,21.75)" d="M4.5,0A4.5,4.5 0 1,1 0,-4.5A4.5,4.5 0 0,1 4.5,0Z" style="opacity: 1; stroke-width: 0px; fill: rgb(239, 85, 59); fill-opacity: 1;"/><path class="point" transform="translate(761.28,21.75)" d="M4.5,0A4.5,4.5 0 1,1 0,-4.5A4.5,4.5 0 0,1 4.5,0Z" style="opacity: 1; stroke-width: 0px; fill: rgb(239, 85, 59); fill-opacity: 1;"/><path class="point" transform="translate(770.43,19.56)" d="M4.5,0A4.5,4.5 0 1,1 0,-4.5A4.5,4.5 0 0,1 4.5,0Z" style="opacity: 1; stroke-width: 0px; fill: rgb(239, 85, 59); fill-opacity: 1;"/><path class="point" transform="translate(779.58,19.47)" d="M4.5,0A4.5,4.5 0 1,1 0,-4.5A4.5,4.5 0 0,1 4.5,0Z" style="opacity: 1; stroke-width: 0px; fill: rgb(239, 85, 59); fill-opacity: 1;"/><path class="point" transform="translate(788.73,19.47)" d="M4.5,0A4.5,4.5 0 1,1 0,-4.5A4.5,4.5 0 0,1 4.5,0Z" style="opacity: 1; stroke-width: 0px; fill: rgb(239, 85, 59); fill-opacity: 1;"/><path class="point" transform="translate(797.88,19.04)" d="M4.5,0A4.5,4.5 0 1,1 0,-4.5A4.5,4.5 0 0,1 4.5,0Z" style="opacity: 1; stroke-width: 0px; fill: rgb(239, 85, 59); fill-opacity: 1;"/><path class="point" transform="translate(807.03,18.87)" d="M4.5,0A4.5,4.5 0 1,1 0,-4.5A4.5,4.5 0 0,1 4.5,0Z" style="opacity: 1; stroke-width: 0px; fill: rgb(239, 85, 59); fill-opacity: 1;"/><path class="point" transform="translate(816.19,18.79)" d="M4.5,0A4.5,4.5 0 1,1 0,-4.5A4.5,4.5 0 0,1 4.5,0Z" style="opacity: 1; stroke-width: 0px; fill: rgb(239, 85, 59); fill-opacity: 1;"/><path class="point" transform="translate(825.34,18.61)" d="M4.5,0A4.5,4.5 0 1,1 0,-4.5A4.5,4.5 0 0,1 4.5,0Z" style="opacity: 1; stroke-width: 0px; fill: rgb(239, 85, 59); fill-opacity: 1;"/><path class="point" transform="translate(834.49,18.61)" d="M4.5,0A4.5,4.5 0 1,1 0,-4.5A4.5,4.5 0 0,1 4.5,0Z" style="opacity: 1; stroke-width: 0px; fill: rgb(239, 85, 59); fill-opacity: 1;"/><path class="point" transform="translate(843.64,18.61)" d="M4.5,0A4.5,4.5 0 1,1 0,-4.5A4.5,4.5 0 0,1 4.5,0Z" style="opacity: 1; stroke-width: 0px; fill: rgb(239, 85, 59); fill-opacity: 1;"/><path class="point" transform="translate(852.79,18.55)" d="M4.5,0A4.5,4.5 0 1,1 0,-4.5A4.5,4.5 0 0,1 4.5,0Z" style="opacity: 1; stroke-width: 0px; fill: rgb(239, 85, 59); fill-opacity: 1;"/><path class="point" transform="translate(861.95,18.55)" d="M4.5,0A4.5,4.5 0 1,1 0,-4.5A4.5,4.5 0 0,1 4.5,0Z" style="opacity: 1; stroke-width: 0px; fill: rgb(239, 85, 59); fill-opacity: 1;"/><path class="point" transform="translate(871.1,18.54)" d="M4.5,0A4.5,4.5 0 1,1 0,-4.5A4.5,4.5 0 0,1 4.5,0Z" style="opacity: 1; stroke-width: 0px; fill: rgb(239, 85, 59); fill-opacity: 1;"/><path class="point" transform="translate(880.25,18.44)" d="M4.5,0A4.5,4.5 0 1,1 0,-4.5A4.5,4.5 0 0,1 4.5,0Z" style="opacity: 1; stroke-width: 0px; fill: rgb(239, 85, 59); fill-opacity: 1;"/><path class="point" transform="translate(889.4,18.34)" d="M4.5,0A4.5,4.5 0 1,1 0,-4.5A4.5,4.5 0 0,1 4.5,0Z" style="opacity: 1; stroke-width: 0px; fill: rgb(239, 85, 59); fill-opacity: 1;"/><path class="point" transform="translate(898.55,18.34)" d="M4.5,0A4.5,4.5 0 1,1 0,-4.5A4.5,4.5 0 0,1 4.5,0Z" style="opacity: 1; stroke-width: 0px; fill: rgb(239, 85, 59); fill-opacity: 1;"/><path class="point" transform="translate(907.7,18.34)" d="M4.5,0A4.5,4.5 0 1,1 0,-4.5A4.5,4.5 0 0,1 4.5,0Z" style="opacity: 1; stroke-width: 0px; fill: rgb(239, 85, 59); fill-opacity: 1;"/><path class="point" transform="translate(916.86,18.34)" d="M4.5,0A4.5,4.5 0 1,1 0,-4.5A4.5,4.5 0 0,1 4.5,0Z" style="opacity: 1; stroke-width: 0px; fill: rgb(239, 85, 59); fill-opacity: 1;"/><path class="point" transform="translate(926.01,18.34)" d="M4.5,0A4.5,4.5 0 1,1 0,-4.5A4.5,4.5 0 0,1 4.5,0Z" style="opacity: 1; stroke-width: 0px; fill: rgb(239, 85, 59); fill-opacity: 1;"/><path class="point" transform="translate(935.16,17.88)" d="M4.5,0A4.5,4.5 0 1,1 0,-4.5A4.5,4.5 0 0,1 4.5,0Z" style="opacity: 1; stroke-width: 0px; fill: rgb(239, 85, 59); fill-opacity: 1;"/><path class="point" transform="translate(944.31,17.88)" d="M4.5,0A4.5,4.5 0 1,1 0,-4.5A4.5,4.5 0 0,1 4.5,0Z" style="opacity: 1; stroke-width: 0px; fill: rgb(239, 85, 59); fill-opacity: 1;"/><path class="point" transform="translate(953.46,17.78)" d="M4.5,0A4.5,4.5 0 1,1 0,-4.5A4.5,4.5 0 0,1 4.5,0Z" style="opacity: 1; stroke-width: 0px; fill: rgb(239, 85, 59); fill-opacity: 1;"/><path class="point" transform="translate(962.62,17.67)" d="M4.5,0A4.5,4.5 0 1,1 0,-4.5A4.5,4.5 0 0,1 4.5,0Z" style="opacity: 1; stroke-width: 0px; fill: rgb(239, 85, 59); fill-opacity: 1;"/></g><g class="text"/></g><g class="trace scatter trace3fca7a" style="stroke-miterlimit: 2; opacity: 1;"><g class="fills"/><g class="errorbars"/><g class="lines"/><g class="points"><path class="point" transform="translate(120.65,164.22)" d="M4.5,0A4.5,4.5 0 1,1 0,-4.5A4.5,4.5 0 0,1 4.5,0Z" style="opacity: 1; stroke-width: 0px; fill: rgb(0, 204, 150); fill-opacity: 1;"/><path class="point" transform="translate(138.95,161.95)" d="M4.5,0A4.5,4.5 0 1,1 0,-4.5A4.5,4.5 0 0,1 4.5,0Z" style="opacity: 1; stroke-width: 0px; fill: rgb(0, 204, 150); fill-opacity: 1;"/><path class="point" transform="translate(157.26,153.25)" d="M4.5,0A4.5,4.5 0 1,1 0,-4.5A4.5,4.5 0 0,1 4.5,0Z" style="opacity: 1; stroke-width: 0px; fill: rgb(0, 204, 150); fill-opacity: 1;"/><path class="point" transform="translate(166.41,106.59)" d="M4.5,0A4.5,4.5 0 1,1 0,-4.5A4.5,4.5 0 0,1 4.5,0Z" style="opacity: 1; stroke-width: 0px; fill: rgb(0, 204, 150); fill-opacity: 1;"/><path class="point" transform="translate(175.56,103.59)" d="M4.5,0A4.5,4.5 0 1,1 0,-4.5A4.5,4.5 0 0,1 4.5,0Z" style="opacity: 1; stroke-width: 0px; fill: rgb(0, 204, 150); fill-opacity: 1;"/><path class="point" transform="translate(184.71,102.36)" d="M4.5,0A4.5,4.5 0 1,1 0,-4.5A4.5,4.5 0 0,1 4.5,0Z" style="opacity: 1; stroke-width: 0px; fill: rgb(0, 204, 150); fill-opacity: 1;"/><path class="point" transform="translate(193.86,99.97)" d="M4.5,0A4.5,4.5 0 1,1 0,-4.5A4.5,4.5 0 0,1 4.5,0Z" style="opacity: 1; stroke-width: 0px; fill: rgb(0, 204, 150); fill-opacity: 1;"/><path class="point" transform="translate(212.17,93.33)" d="M4.5,0A4.5,4.5 0 1,1 0,-4.5A4.5,4.5 0 0,1 4.5,0Z" style="opacity: 1; stroke-width: 0px; fill: rgb(0, 204, 150); fill-opacity: 1;"/><path class="point" transform="translate(221.32,91.18)" d="M4.5,0A4.5,4.5 0 1,1 0,-4.5A4.5,4.5 0 0,1 4.5,0Z" style="opacity: 1; stroke-width: 0px; fill: rgb(0, 204, 150); fill-opacity: 1;"/><path class="point" transform="translate(230.47,86.36)" d="M4.5,0A4.5,4.5 0 1,1 0,-4.5A4.5,4.5 0 0,1 4.5,0Z" style="opacity: 1; stroke-width: 0px; fill: rgb(0, 204, 150); fill-opacity: 1;"/><path class="point" transform="translate(239.62,84.85)" d="M4.5,0A4.5,4.5 0 1,1 0,-4.5A4.5,4.5 0 0,1 4.5,0Z" style="opacity: 1; stroke-width: 0px; fill: rgb(0, 204, 150); fill-opacity: 1;"/><path class="point" transform="translate(248.77,83.31)" d="M4.5,0A4.5,4.5 0 1,1 0,-4.5A4.5,4.5 0 0,1 4.5,0Z" style="opacity: 1; stroke-width: 0px; fill: rgb(0, 204, 150); fill-opacity: 1;"/><path class="point" transform="translate(257.93,81.9)" d="M4.5,0A4.5,4.5 0 1,1 0,-4.5A4.5,4.5 0 0,1 4.5,0Z" style="opacity: 1; stroke-width: 0px; fill: rgb(0, 204, 150); fill-opacity: 1;"/><path class="point" transform="translate(267.08,77.38)" d="M4.5,0A4.5,4.5 0 1,1 0,-4.5A4.5,4.5 0 0,1 4.5,0Z" style="opacity: 1; stroke-width: 0px; fill: rgb(0, 204, 150); fill-opacity: 1;"/><path class="point" transform="translate(276.23,75.73)" d="M4.5,0A4.5,4.5 0 1,1 0,-4.5A4.5,4.5 0 0,1 4.5,0Z" style="opacity: 1; stroke-width: 0px; fill: rgb(0, 204, 150); fill-opacity: 1;"/><path class="point" transform="translate(285.38,72.69)" d="M4.5,0A4.5,4.5 0 1,1 0,-4.5A4.5,4.5 0 0,1 4.5,0Z" style="opacity: 1; stroke-width: 0px; fill: rgb(0, 204, 150); fill-opacity: 1;"/><path class="point" transform="translate(294.53,70.13)" d="M4.5,0A4.5,4.5 0 1,1 0,-4.5A4.5,4.5 0 0,1 4.5,0Z" style="opacity: 1; stroke-width: 0px; fill: rgb(0, 204, 150); fill-opacity: 1;"/><path class="point" transform="translate(303.68,65.86)" d="M4.5,0A4.5,4.5 0 1,1 0,-4.5A4.5,4.5 0 0,1 4.5,0Z" style="opacity: 1; stroke-width: 0px; fill: rgb(0, 204, 150); fill-opacity: 1;"/><path class="point" transform="translate(312.84,62.39)" d="M4.5,0A4.5,4.5 0 1,1 0,-4.5A4.5,4.5 0 0,1 4.5,0Z" style="opacity: 1; stroke-width: 0px; fill: rgb(0, 204, 150); fill-opacity: 1;"/><path class="point" transform="translate(321.99,60.22)" d="M4.5,0A4.5,4.5 0 1,1 0,-4.5A4.5,4.5 0 0,1 4.5,0Z" style="opacity: 1; stroke-width: 0px; fill: rgb(0, 204, 150); fill-opacity: 1;"/><path class="point" transform="translate(331.14,53.57)" d="M4.5,0A4.5,4.5 0 1,1 0,-4.5A4.5,4.5 0 0,1 4.5,0Z" style="opacity: 1; stroke-width: 0px; fill: rgb(0, 204, 150); fill-opacity: 1;"/><path class="point" transform="translate(340.29,52.4)" d="M4.5,0A4.5,4.5 0 1,1 0,-4.5A4.5,4.5 0 0,1 4.5,0Z" style="opacity: 1; stroke-width: 0px; fill: rgb(0, 204, 150); fill-opacity: 1;"/><path class="point" transform="translate(349.44,52.27)" d="M4.5,0A4.5,4.5 0 1,1 0,-4.5A4.5,4.5 0 0,1 4.5,0Z" style="opacity: 1; stroke-width: 0px; fill: rgb(0, 204, 150); fill-opacity: 1;"/><path class="point" transform="translate(358.6,50.14)" d="M4.5,0A4.5,4.5 0 1,1 0,-4.5A4.5,4.5 0 0,1 4.5,0Z" style="opacity: 1; stroke-width: 0px; fill: rgb(0, 204, 150); fill-opacity: 1;"/><path class="point" transform="translate(367.75,50.13)" d="M4.5,0A4.5,4.5 0 1,1 0,-4.5A4.5,4.5 0 0,1 4.5,0Z" style="opacity: 1; stroke-width: 0px; fill: rgb(0, 204, 150); fill-opacity: 1;"/><path class="point" transform="translate(376.9,49.52)" d="M4.5,0A4.5,4.5 0 1,1 0,-4.5A4.5,4.5 0 0,1 4.5,0Z" style="opacity: 1; stroke-width: 0px; fill: rgb(0, 204, 150); fill-opacity: 1;"/><path class="point" transform="translate(386.05,49.19)" d="M4.5,0A4.5,4.5 0 1,1 0,-4.5A4.5,4.5 0 0,1 4.5,0Z" style="opacity: 1; stroke-width: 0px; fill: rgb(0, 204, 150); fill-opacity: 1;"/><path class="point" transform="translate(395.2,45.68)" d="M4.5,0A4.5,4.5 0 1,1 0,-4.5A4.5,4.5 0 0,1 4.5,0Z" style="opacity: 1; stroke-width: 0px; fill: rgb(0, 204, 150); fill-opacity: 1;"/><path class="point" transform="translate(404.35,45.68)" d="M4.5,0A4.5,4.5 0 1,1 0,-4.5A4.5,4.5 0 0,1 4.5,0Z" style="opacity: 1; stroke-width: 0px; fill: rgb(0, 204, 150); fill-opacity: 1;"/><path class="point" transform="translate(413.51,42.99)" d="M4.5,0A4.5,4.5 0 1,1 0,-4.5A4.5,4.5 0 0,1 4.5,0Z" style="opacity: 1; stroke-width: 0px; fill: rgb(0, 204, 150); fill-opacity: 1;"/><path class="point" transform="translate(422.66,42.77)" d="M4.5,0A4.5,4.5 0 1,1 0,-4.5A4.5,4.5 0 0,1 4.5,0Z" style="opacity: 1; stroke-width: 0px; fill: rgb(0, 204, 150); fill-opacity: 1;"/><path class="point" transform="translate(431.81,42.11)" d="M4.5,0A4.5,4.5 0 1,1 0,-4.5A4.5,4.5 0 0,1 4.5,0Z" style="opacity: 1; stroke-width: 0px; fill: rgb(0, 204, 150); fill-opacity: 1;"/><path class="point" transform="translate(440.96,42.09)" d="M4.5,0A4.5,4.5 0 1,1 0,-4.5A4.5,4.5 0 0,1 4.5,0Z" style="opacity: 1; stroke-width: 0px; fill: rgb(0, 204, 150); fill-opacity: 1;"/><path class="point" transform="translate(450.11,39.69)" d="M4.5,0A4.5,4.5 0 1,1 0,-4.5A4.5,4.5 0 0,1 4.5,0Z" style="opacity: 1; stroke-width: 0px; fill: rgb(0, 204, 150); fill-opacity: 1;"/><path class="point" transform="translate(459.27,36.97)" d="M4.5,0A4.5,4.5 0 1,1 0,-4.5A4.5,4.5 0 0,1 4.5,0Z" style="opacity: 1; stroke-width: 0px; fill: rgb(0, 204, 150); fill-opacity: 1;"/><path class="point" transform="translate(477.57,36.14)" d="M4.5,0A4.5,4.5 0 1,1 0,-4.5A4.5,4.5 0 0,1 4.5,0Z" style="opacity: 1; stroke-width: 0px; fill: rgb(0, 204, 150); fill-opacity: 1;"/><path class="point" transform="translate(514.18,32.17)" d="M4.5,0A4.5,4.5 0 1,1 0,-4.5A4.5,4.5 0 0,1 4.5,0Z" style="opacity: 1; stroke-width: 0px; fill: rgb(0, 204, 150); fill-opacity: 1;"/><path class="point" transform="translate(523.33,32.05)" d="M4.5,0A4.5,4.5 0 1,1 0,-4.5A4.5,4.5 0 0,1 4.5,0Z" style="opacity: 1; stroke-width: 0px; fill: rgb(0, 204, 150); fill-opacity: 1;"/></g><g class="text"/></g><g class="trace scatter trace9b404a" style="stroke-miterlimit: 2; opacity: 1;"><g class="fills"/><g class="errorbars"/><g class="lines"/><g class="points"><path class="point" transform="translate(148.1,161.86)" d="M4.5,0A4.5,4.5 0 1,1 0,-4.5A4.5,4.5 0 0,1 4.5,0Z" style="opacity: 1; stroke-width: 0px; fill: rgb(171, 99, 250); fill-opacity: 1;"/></g><g class="text"/></g><g class="trace scatter tracecf54cb" style="stroke-miterlimit: 2; opacity: 1;"><g class="fills"/><g class="errorbars"/><g class="lines"/><g class="points"><path class="point" transform="translate(203.01,95.83)" d="M4.5,0A4.5,4.5 0 1,1 0,-4.5A4.5,4.5 0 0,1 4.5,0Z" style="opacity: 1; stroke-width: 0px; fill: rgb(255, 161, 90); fill-opacity: 1;"/></g><g class="text"/></g><g class="trace scatter trace002ddb" style="stroke-miterlimit: 2; opacity: 1;"><g class="fills"/><g class="errorbars"/><g class="lines"><path class="js-line" d="M56.59,223.32L65.74,222.06L74.89,221.86L84.04,220.68L93.19,220.68L102.34,220.45L111.5,179.63L120.65,164.22L129.8,163.31L138.95,161.95L148.1,161.86L157.26,153.25L166.41,106.59L175.56,103.59L184.71,102.36L193.86,99.97L203.01,95.83L221.32,91.18L230.47,86.36L257.93,81.9L267.08,77.38L276.23,75.73L285.38,72.69L294.53,70.13L303.68,65.86L312.84,62.39L321.99,60.22L331.14,53.57L340.29,52.4L349.44,52.27L358.6,50.14L376.9,49.52L386.05,49.19L395.2,45.68L404.35,45.68L413.51,42.99L422.66,42.77L440.96,42.09L450.11,39.69L459.27,36.97L468.42,36.14L477.57,36.14L486.72,34.86L495.87,32.2L505.02,32.18L532.48,31.78L541.63,30.66L569.09,29.83L578.24,28.18L642.3,27.39L651.45,24.94L660.61,24.46L669.76,23.22L761.28,21.75L770.43,19.56L962.62,17.67" style="vector-effect: non-scaling-stroke; fill: none; stroke: rgb(85, 85, 85); stroke-opacity: 0.2; stroke-width: 3px; opacity: 1;"/></g><g class="points"/><g class="text"/></g></g></g><g class="overplot"/><path class="xlines-above crisp" d="M0,0" style="fill: none;"/><path class="ylines-above crisp" d="M0,0" style="fill: none;"/><g class="overlines-above"/><g class="xaxislayer-above"><g class="xtick"><text text-anchor="middle" x="0" y="320" transform="translate(127.43,0)" style="font-family: 'Open Sans', verdana, arial, sans-serif; font-size: 18px; fill: rgb(42, 63, 95); fill-opacity: 1; white-space: pre;">0</text></g><g class="xtick"><text text-anchor="middle" x="0" y="320" transform="translate(310.47,0)" style="font-family: 'Open Sans', verdana, arial, sans-serif; font-size: 18px; fill: rgb(42, 63, 95); fill-opacity: 1; white-space: pre;">200</text></g><g class="xtick"><text text-anchor="middle" x="0" y="320" transform="translate(493.51,0)" style="font-family: 'Open Sans', verdana, arial, sans-serif; font-size: 18px; fill: rgb(42, 63, 95); fill-opacity: 1; white-space: pre;">400</text></g><g class="xtick"><text text-anchor="middle" x="0" y="320" transform="translate(676.54,0)" style="font-family: 'Open Sans', verdana, arial, sans-serif; font-size: 18px; fill: rgb(42, 63, 95); fill-opacity: 1; white-space: pre;">600</text></g><g class="xtick"><text text-anchor="middle" x="0" y="320" transform="translate(859.58,0)" style="font-family: 'Open Sans', verdana, arial, sans-serif; font-size: 18px; fill: rgb(42, 63, 95); fill-opacity: 1; white-space: pre;">800</text></g><g class="xtick"><text text-anchor="middle" x="0" y="320" transform="translate(1042.62,0)" style="font-family: 'Open Sans', verdana, arial, sans-serif; font-size: 18px; fill: rgb(42, 63, 95); fill-opacity: 1; white-space: pre;">1000</text></g></g><g class="yaxislayer-above"><g class="ytick"><text text-anchor="end" x="79" y="6.3" transform="translate(0,284.6)" style="font-family: 'Open Sans', verdana, arial, sans-serif; font-size: 18px; fill: rgb(42, 63, 95); fill-opacity: 1; white-space: pre;">0</text></g><g class="ytick"><text text-anchor="end" x="79" y="6.3" transform="translate(0,223.44)" style="font-family: 'Open Sans', verdana, arial, sans-serif; font-size: 18px; fill: rgb(42, 63, 95); fill-opacity: 1; white-space: pre;">0.5</text></g><g class="ytick"><text text-anchor="end" x="79" y="6.3" transform="translate(0,162.28)" style="font-family: 'Open Sans', verdana, arial, sans-serif; font-size: 18px; fill: rgb(42, 63, 95); fill-opacity: 1; white-space: pre;">1</text></g><g class="ytick"><text text-anchor="end" x="79" y="6.3" transform="translate(0,101.12)" style="font-family: 'Open Sans', verdana, arial, sans-serif; font-size: 18px; fill: rgb(42, 63, 95); fill-opacity: 1; white-space: pre;">1.5</text></g></g><g class="overaxes-above"/></g></g><g class="polarlayer"/><g class="ternarylayer"/><g class="geolayer"/><g class="funnelarealayer"/><g class="pielayer"/><g class="sunburstlayer"/><g class="glimages"/><defs id="topdefs-cd47b4"><g class="clips"/><clipPath id="legendcd47b4"><rect width="1040" height="142" x="0" y="0"/></clipPath></defs><g class="layer-above"><g class="imagelayer"/><g class="shapelayer"/></g><g class="infolayer"><g class="legend" pointer-events="all" transform="translate(80, 445.6)"><rect class="bg" shape-rendering="crispEdges" style="stroke: rgb(68, 68, 68); stroke-opacity: 1; fill: rgb(255, 255, 255); fill-opacity: 1; stroke-width: 0px;" width="1040" height="142" x="0" y="0"/><g class="scrollbox" transform="translate(0, 0)" clip-path="url('#legendcd47b4')"><g class="groups" transform="translate(0, 0)"><g class="traces" transform="translate(0, 18.200000000000003)" style="opacity: 1;"><text class="legendtext user-select-none" text-anchor="start" x="40" y="7.0200000000000005" style="font-family: 'Open Sans', verdana, arial, sans-serif; font-size: 18px; fill: rgb(42, 63, 95); fill-opacity: 1; white-space: pre;">model name=sampling plan</text><g class="layers" style="opacity: 1;"><g class="legendfill"/><g class="legendlines"/><g class="legendsymbols"><g class="legendpoints"><path class="scatterpts" transform="translate(20,0)" d="M4.5,0A4.5,4.5 0 1,1 0,-4.5A4.5,4.5 0 0,1 4.5,0Z" style="opacity: 1; stroke-width: 0px; fill: rgb(99, 110, 250); fill-opacity: 1;"/></g></g></g><rect class="legendtoggle" pointer-events="all" x="0" y="-13.200000000000001" width="1331" height="26.400000000000002" style="cursor: pointer; fill: rgb(0, 0, 0); fill-opacity: 0;"/></g></g><g class="groups" transform="translate(0, 26.400000000000002)"><g class="traces" transform="translate(0, 18.200000000000003)" style="opacity: 1;"><text class="legendtext user-select-none" text-anchor="start" x="40" y="7.0200000000000005" style="font-family: 'Open Sans', verdana, arial, sans-serif; font-size: 18px; fill: rgb(42, 63, 95); fill-opacity: 1; white-space: pre;">model name=gaussianprocessregressor</text><g class="layers" style="opacity: 1;"><g class="legendfill"/><g class="legendlines"/><g class="legendsymbols"><g class="legendpoints"><path class="scatterpts" transform="translate(20,0)" d="M4.5,0A4.5,4.5 0 1,1 0,-4.5A4.5,4.5 0 0,1 4.5,0Z" style="opacity: 1; stroke-width: 0px; fill: rgb(239, 85, 59); fill-opacity: 1;"/></g></g></g><rect class="legendtoggle" pointer-events="all" x="0" y="-13.200000000000001" width="1331" height="26.400000000000002" style="cursor: pointer; fill: rgb(0, 0, 0); fill-opacity: 0;"/></g></g><g class="groups" transform="translate(0, 52.800000000000004)"><g class="traces" transform="translate(0, 18.200000000000003)" style="opacity: 1;"><text class="legendtext user-select-none" text-anchor="start" x="40" y="7.0200000000000005" style="font-family: 'Open Sans', verdana, arial, sans-serif; font-size: 18px; fill: rgb(42, 63, 95); fill-opacity: 1; white-space: pre;">model name=['gradientboostingregressor', 'gradientboostingregressor']</text><g class="layers" style="opacity: 1;"><g class="legendfill"/><g class="legendlines"/><g class="legendsymbols"><g class="legendpoints"><path class="scatterpts" transform="translate(20,0)" d="M4.5,0A4.5,4.5 0 1,1 0,-4.5A4.5,4.5 0 0,1 4.5,0Z" style="opacity: 1; stroke-width: 0px; fill: rgb(0, 204, 150); fill-opacity: 1;"/></g></g></g><rect class="legendtoggle" pointer-events="all" x="0" y="-13.200000000000001" width="1331" height="26.400000000000002" style="cursor: pointer; fill: rgb(0, 0, 0); fill-opacity: 0;"/></g></g><g class="groups" transform="translate(0, 79.2)"><g class="traces" transform="translate(0, 18.200000000000003)" style="opacity: 1;"><text class="legendtext user-select-none" text-anchor="start" x="40" y="7.0200000000000005" style="font-family: 'Open Sans', verdana, arial, sans-serif; font-size: 18px; fill: rgb(42, 63, 95); fill-opacity: 1; white-space: pre;">model name=['mlpregressor', 'mlpregressor']</text><g class="layers" style="opacity: 1;"><g class="legendfill"/><g class="legendlines"/><g class="legendsymbols"><g class="legendpoints"><path class="scatterpts" transform="translate(20,0)" d="M4.5,0A4.5,4.5 0 1,1 0,-4.5A4.5,4.5 0 0,1 4.5,0Z" style="opacity: 1; stroke-width: 0px; fill: rgb(171, 99, 250); fill-opacity: 1;"/></g></g></g><rect class="legendtoggle" pointer-events="all" x="0" y="-13.200000000000001" width="1331" height="26.400000000000002" style="cursor: pointer; fill: rgb(0, 0, 0); fill-opacity: 0;"/></g></g><g class="groups" transform="translate(0, 105.60000000000001)"><g class="traces" transform="translate(0, 18.200000000000003)" style="opacity: 1;"><text class="legendtext user-select-none" text-anchor="start" x="40" y="7.0200000000000005" style="font-family: 'Open Sans', verdana, arial, sans-serif; font-size: 18px; fill: rgb(42, 63, 95); fill-opacity: 1; white-space: pre;">model name=['gradientboostingregressor', 'mlpregressor']</text><g class="layers" style="opacity: 1;"><g class="legendfill"/><g class="legendlines"/><g class="legendsymbols"><g class="legendpoints"><path class="scatterpts" transform="translate(20,0)" d="M4.5,0A4.5,4.5 0 1,1 0,-4.5A4.5,4.5 0 0,1 4.5,0Z" style="opacity: 1; stroke-width: 0px; fill: rgb(255, 161, 90); fill-opacity: 1;"/></g></g></g><rect class="legendtoggle" pointer-events="all" x="0" y="-13.200000000000001" width="1331" height="26.400000000000002" style="cursor: pointer; fill: rgb(0, 0, 0); fill-opacity: 0;"/></g></g></g><rect class="scrollbar" rx="20" ry="3" width="0" height="0" style="fill: rgb(128, 139, 164); fill-opacity: 1;" x="0" y="0"/></g><g class="g-gtitle"><text class="gtitle" x="60" y="30" text-anchor="start" dy="0em" style="font-family: 'Open Sans', verdana, arial, sans-serif; font-size: 25px; fill: rgb(42, 63, 95); opacity: 1; font-weight: normal; white-space: pre;">WFG1: #139769016754960</text></g><g class="g-xtitle"><text class="xtitle" x="589.5999999999999" y="377" text-anchor="middle" style="font-family: 'Open Sans', verdana, arial, sans-serif; font-size: 22px; fill: rgb(42, 63, 95); opacity: 1; font-weight: normal; white-space: pre;">i_fevals</text></g><g class="g-ytitle"><text class="ytitle" transform="rotate(-90,26,180.5)" x="26" y="180.5" text-anchor="middle" style="font-family: 'Open Sans', verdana, arial, sans-serif; font-size: 22px; fill: rgb(42, 63, 95); opacity: 1; font-weight: normal; white-space: pre;">hypervolume</text></g></g></svg>