<svg class="main-svg" xmlns="http://www.w3.org/2000/svg" xmlns:xlink="http://www.w3.org/1999/xlink" width="1200" height="500" viewBox="0 0 1200 500"><rect x="0" y="0" width="1200" height="500" style="fill: rgb(255, 255, 255); fill-opacity: 1;"/><defs id="defs-5a4a6e"><g class="clips"><clipPath id="clip5a4a6exyplot" class="plotclip"><rect width="1040" height="319"/></clipPath><clipPath class="axesclip" id="clip5a4a6ex"><rect x="80" y="0" width="1040" height="500"/></clipPath><clipPath class="axesclip" id="clip5a4a6ey"><rect x="0" y="100" width="1200" height="319"/></clipPath><clipPath class="axesclip" id="clip5a4a6exy"><rect x="80" y="100" width="1040" height="319"/></clipPath></g><g class="gradients"/></defs><g class="bglayer"/><g class="layer-below"><g class="imagelayer"/><g class="shapelayer"/></g><g class="cartesianlayer"><g class="subplot xy"><g class="layer-subplot"><g class="shapelayer"/><g class="imagelayer"/></g><g class="gridlayer"><g class="x"><path class="xgrid crisp" transform="translate(315.1,0)" d="M0,100v319" style="stroke: rgb(235, 240, 248); stroke-opacity: 1; stroke-width: 1px;"/><path class="xgrid crisp" transform="translate(501.92,0)" d="M0,100v319" style="stroke: rgb(235, 240, 248); stroke-opacity: 1; stroke-width: 1px;"/><path class="xgrid crisp" transform="translate(688.74,0)" d="M0,100v319" style="stroke: rgb(235, 240, 248); stroke-opacity: 1; stroke-width: 1px;"/><path class="xgrid crisp" transform="translate(875.56,0)" d="M0,100v319" style="stroke: rgb(235, 240, 248); stroke-opacity: 1; stroke-width: 1px;"/><path class="xgrid crisp" transform="translate(1062.37,0)" d="M0,100v319" style="stroke: rgb(235, 240, 248); stroke-opacity: 1; stroke-width: 1px;"/></g><g class="y"><path class="ygrid crisp" transform="translate(0,356.65)" d="M80,0h1040" style="stroke: rgb(235, 240, 248); stroke-opacity: 1; stroke-width: 1px;"/><path class="ygrid crisp" transform="translate(0,315.65999999999997)" d="M80,0h1040" style="stroke: rgb(235, 240, 248); stroke-opacity: 1; stroke-width: 1px;"/><path class="ygrid crisp" transform="translate(0,274.66999999999996)" d="M80,0h1040" style="stroke: rgb(235, 240, 248); stroke-opacity: 1; stroke-width: 1px;"/><path class="ygrid crisp" transform="translate(0,233.68)" d="M80,0h1040" style="stroke: rgb(235, 240, 248); stroke-opacity: 1; stroke-width: 1px;"/><path class="ygrid crisp" transform="translate(0,192.69)" d="M80,0h1040" style="stroke: rgb(235, 240, 248); stroke-opacity: 1; stroke-width: 1px;"/><path class="ygrid crisp" transform="translate(0,151.7)" d="M80,0h1040" style="stroke: rgb(235, 240, 248); stroke-opacity: 1; stroke-width: 1px;"/><path class="ygrid crisp" transform="translate(0,110.71000000000001)" d="M80,0h1040" style="stroke: rgb(235, 240, 248); stroke-opacity: 1; stroke-width: 1px;"/></g></g><g class="zerolinelayer"><path class="xzl zl crisp" transform="translate(128.28,0)" d="M0,100v319" style="stroke: rgb(235, 240, 248); stroke-opacity: 1; stroke-width: 2px;"/><path class="yzl zl crisp" transform="translate(0,397.64)" d="M80,0h1040" style="stroke: rgb(235, 240, 248); stroke-opacity: 1; stroke-width: 2px;"/></g><path class="xlines-below"/><path class="ylines-below"/><g class="overlines-below"/><g class="xaxislayer-below"/><g class="yaxislayer-below"/><g class="overaxes-below"/><g class="plot" transform="translate(80, 100)" clip-path="url('#clip5a4a6exyplot')"><g class="scatterlayer mlayer"><g class="trace scatter trace86c8a9" style="stroke-miterlimit: 2; opacity: 1;"><g class="fills"/><g class="errorbars"/><g class="lines"><path class="js-line" d="M142.63,204.16L143.56,209.86L144.5,209.86L145.43,209.86L146.36,190.4L147.3,193.63L148.23,217.12L151.03,217.27L151.97,224.64L152.9,224.64L153.84,229.14L157.57,229.14L158.51,211.67L164.11,211.7L165.05,200.43L165.98,201.86L166.91,201.86L168.78,203.94L169.72,209.14L172.52,209.14L173.45,213.52L175.32,214.11L176.25,214.11L177.19,214.11L178.12,217.81L179.06,207.33L179.99,207.33L180.93,207.33L181.86,187.04L182.79,175.24L183.73,217.01L185.6,217.01L186.53,218.36L187.46,220.27L188.4,220.27L192.13,220.27L193.07,216.1L197.74,216.76L198.67,217.18L199.61,217.18L200.54,221.1L202.41,221.1L203.34,223.98L204.28,223.98L205.21,226.06L208.95,226.06L209.88,227.32L210.82,234.88L211.75,236.17L213.62,236.17L214.55,237.59L216.42,237.59L217.35,215.28L218.29,218.92L219.22,218.92L220.16,237.02L221.09,226.7L225.76,226.7L226.7,231.42L238.84,232.05L239.77,230.67L241.64,230.2L242.57,230.2L247.25,230.2L248.18,232.97L250.05,232.97L250.98,236.85L251.92,237.54L252.85,232.26L255.65,232.96L256.59,234.91L260.32,235.06L261.26,229.76L268.73,230.36L269.66,232.07L270.6,232.07L271.53,233.05L274.33,233.05L275.27,241.72L277.14,241.67L278.07,242.91L287.41,242.91L288.35,244.08L293.95,244.11L294.88,247.99L297.69,247.99L298.62,241.81L303.29,241.81L304.22,234.74L305.16,235.07L306.09,238.34L307.96,238.5L308.9,239.54L312.63,239.83L313.57,240.76L315.43,240.76L316.37,241.85L322.91,241.85L323.84,242.61L332.25,242.62L333.18,245.95L345.32,245.94L346.26,248.36L348.13,248.36L349.06,250.5L352.8,250.5L353.73,253.69L359.34,254.36L360.27,254.54L364.94,254.86L365.88,257.06L366.81,258.4L367.74,258.4L381.75,258.89L382.69,260.14L391.1,260.46L392.03,261.57L394.83,262.02L395.77,262.43L400.44,262.57L401.37,261.81L406.97,262.32L407.91,263.56L414.45,263.45L415.38,262.7L416.32,262.7L417.25,263.6L422.85,263.73L423.79,263.73L424.72,263.73L425.66,268.4L428.46,268.79L429.39,268.79L435,269.16L435.93,270.29L442.47,270.21L443.4,263.44L446.21,264.07L447.14,264.36L454.61,264.98L455.55,265.43L459.28,266.01L460.22,266.34L462.09,265.89L463.02,265.89L476.1,266.55L477.03,266.75L484.5,266.92L485.44,267.41L491.98,268.15L492.91,266.92L499.45,267.67L500.38,268L516.26,268.46L517.2,268.85L520,269.24L520.93,270.15L535.88,270.7L536.81,270.98L548.96,271.17L549.89,271.66L561.1,272.35L562.03,272.58L564.84,273.31L565.77,273.31L577.91,273.97L578.85,274.16L586.32,275L587.25,275L595.66,275.63L596.6,275.79L609.67,276.38L610.61,276.57L615.28,276.77L616.21,282.32L628.35,282.55L629.29,275.55L633.02,276.55L633.96,276.55L647.04,276.58L647.97,275.56L651.71,275.56L652.64,278.43L667.59,278.69L668.52,278.69L691.87,279.12L692.81,279.35L715.22,279.88L716.16,280.11L760.06,280.66L761,280.7L768.47,280.94L769.4,280.94L773.14,281.2L774.07,281.2L841.33,281.91L842.26,282.09L844.13,282.12L845.06,277.13L869.35,277.49L870.28,275.9L879.62,276.38L880.56,276.7L903.91,278.06L904.85,278.34L923.53,279.09L924.46,279.35L933.8,279.45L934.74,279.45L972.1,279.51L973.03,279.72L982.37,279.88" style="vector-effect: non-scaling-stroke; fill: none; stroke: rgb(31, 119, 180); stroke-opacity: 1; stroke-width: 3px; opacity: 1;"/></g><g class="points"/><g class="text"/></g><g class="trace scatter traced23893" style="stroke-miterlimit: 2; opacity: 1;"><g class="fills"/><g class="errorbars"/><g class="lines"><path class="js-line" d="M141.69,225.21Q204.12,227.67 235.1,232.11C266.39,236.6 297.36,245.58 328.51,252.14C359.64,258.7 390.7,266.04 421.92,271.48C452.97,276.89 484.14,281.18 515.33,284.7C546.42,288.21 577.58,291.1 608.74,292.59C639.85,294.08 671.01,293.43 702.15,293.67C733.29,293.91 764.42,293.82 795.56,294.04C826.7,294.26 857.84,294.53 888.97,294.98Q920.11,295.43 982.37,296.74" style="vector-effect: non-scaling-stroke; fill: none; stroke: rgb(77, 175, 74); stroke-opacity: 1; stroke-width: 3px; opacity: 1; stroke-dasharray: 3px, 3px;"/></g><g class="points"><path class="point" transform="translate(141.69,225.21)" d="M0,2.55l2.55,2.55l2.55,-2.55l-2.55,-2.55l2.55,-2.55l-2.55,-2.55l-2.55,2.55l-2.55,-2.55l-2.55,2.55l2.55,2.55l-2.55,2.55l2.55,2.55Z" style="opacity: 1; stroke-width: 0px; fill: rgb(77, 175, 74); fill-opacity: 1;"/><path class="point" transform="translate(235.1,232.11)" d="M0,2.55l2.55,2.55l2.55,-2.55l-2.55,-2.55l2.55,-2.55l-2.55,-2.55l-2.55,2.55l-2.55,-2.55l-2.55,2.55l2.55,2.55l-2.55,2.55l2.55,2.55Z" style="opacity: 1; stroke-width: 0px; fill: rgb(77, 175, 74); fill-opacity: 1;"/><path class="point" transform="translate(328.51,252.14)" d="M0,2.55l2.55,2.55l2.55,-2.55l-2.55,-2.55l2.55,-2.55l-2.55,-2.55l-2.55,2.55l-2.55,-2.55l-2.55,2.55l2.55,2.55l-2.55,2.55l2.55,2.55Z" style="opacity: 1; stroke-width: 0px; fill: rgb(77, 175, 74); fill-opacity: 1;"/><path class="point" transform="translate(421.92,271.48)" d="M0,2.55l2.55,2.55l2.55,-2.55l-2.55,-2.55l2.55,-2.55l-2.55,-2.55l-2.55,2.55l-2.55,-2.55l-2.55,2.55l2.55,2.55l-2.55,2.55l2.55,2.55Z" style="opacity: 1; stroke-width: 0px; fill: rgb(77, 175, 74); fill-opacity: 1;"/><path class="point" transform="translate(515.33,284.7)" d="M0,2.55l2.55,2.55l2.55,-2.55l-2.55,-2.55l2.55,-2.55l-2.55,-2.55l-2.55,2.55l-2.55,-2.55l-2.55,2.55l2.55,2.55l-2.55,2.55l2.55,2.55Z" style="opacity: 1; stroke-width: 0px; fill: rgb(77, 175, 74); fill-opacity: 1;"/><path class="point" transform="translate(608.74,292.59)" d="M0,2.55l2.55,2.55l2.55,-2.55l-2.55,-2.55l2.55,-2.55l-2.55,-2.55l-2.55,2.55l-2.55,-2.55l-2.55,2.55l2.55,2.55l-2.55,2.55l2.55,2.55Z" style="opacity: 1; stroke-width: 0px; fill: rgb(77, 175, 74); fill-opacity: 1;"/><path class="point" transform="translate(702.15,293.67)" d="M0,2.55l2.55,2.55l2.55,-2.55l-2.55,-2.55l2.55,-2.55l-2.55,-2.55l-2.55,2.55l-2.55,-2.55l-2.55,2.55l2.55,2.55l-2.55,2.55l2.55,2.55Z" style="opacity: 1; stroke-width: 0px; fill: rgb(77, 175, 74); fill-opacity: 1;"/><path class="point" transform="translate(795.56,294.04)" d="M0,2.55l2.55,2.55l2.55,-2.55l-2.55,-2.55l2.55,-2.55l-2.55,-2.55l-2.55,2.55l-2.55,-2.55l-2.55,2.55l2.55,2.55l-2.55,2.55l2.55,2.55Z" style="opacity: 1; stroke-width: 0px; fill: rgb(77, 175, 74); fill-opacity: 1;"/><path class="point" transform="translate(888.97,294.98)" d="M0,2.55l2.55,2.55l2.55,-2.55l-2.55,-2.55l2.55,-2.55l-2.55,-2.55l-2.55,2.55l-2.55,-2.55l-2.55,2.55l2.55,2.55l-2.55,2.55l2.55,2.55Z" style="opacity: 1; stroke-width: 0px; fill: rgb(77, 175, 74); fill-opacity: 1;"/><path class="point" transform="translate(982.37,296.74)" d="M0,2.55l2.55,2.55l2.55,-2.55l-2.55,-2.55l2.55,-2.55l-2.55,-2.55l-2.55,2.55l-2.55,-2.55l-2.55,2.55l2.55,2.55l-2.55,2.55l2.55,2.55Z" style="opacity: 1; stroke-width: 0px; fill: rgb(77, 175, 74); fill-opacity: 1;"/></g><g class="text"/></g><g class="trace scatter traceaab865" style="stroke-miterlimit: 2; opacity: 1;"><g class="fills"/><g class="errorbars"/><g class="lines"><path class="js-line" d="M57.63,85.89L66.97,26.8L76.31,21.57L85.65,62.47L94.99,131.84L104.33,127.24L113.67,216.99L132.35,216.99L141.69,236.67L151.03,237.35L160.38,242.19L169.72,218.4L179.06,218.4L188.4,218.68L197.74,205.92L207.08,223.75L216.42,223.77L235.1,252.93L244.44,257.76L253.78,263.7L263.13,264.66L272.47,265.26L281.81,280.56L291.15,279.55L300.49,280.36L309.83,280.59L319.17,282.89L328.51,278.93L337.85,279.34L347.19,282.71L356.53,282.4L375.22,283.31L384.56,285.28L393.9,286.79L403.24,290.43L421.92,292.77L431.26,293.26L468.63,294.65L477.97,294.87L505.99,295.14L515.33,296.84L982.37,297.43" style="vector-effect: non-scaling-stroke; fill: none; stroke: rgb(228, 26, 28); stroke-opacity: 1; stroke-width: 3px; opacity: 1;"/></g><g class="points"><path class="point" transform="translate(57.63,85.89)" d="M4.5,0A4.5,4.5 0 1,1 0,-4.5A4.5,4.5 0 0,1 4.5,0Z" style="opacity: 1; stroke-width: 0px; fill: rgb(228, 26, 28); fill-opacity: 1;"/><path class="point" transform="translate(66.97,26.8)" d="M4.5,0A4.5,4.5 0 1,1 0,-4.5A4.5,4.5 0 0,1 4.5,0Z" style="opacity: 1; stroke-width: 0px; fill: rgb(228, 26, 28); fill-opacity: 1;"/><path class="point" transform="translate(76.31,21.57)" d="M4.5,0A4.5,4.5 0 1,1 0,-4.5A4.5,4.5 0 0,1 4.5,0Z" style="opacity: 1; stroke-width: 0px; fill: rgb(228, 26, 28); fill-opacity: 1;"/><path class="point" transform="translate(85.65,62.47)" d="M4.5,0A4.5,4.5 0 1,1 0,-4.5A4.5,4.5 0 0,1 4.5,0Z" style="opacity: 1; stroke-width: 0px; fill: rgb(228, 26, 28); fill-opacity: 1;"/><path class="point" transform="translate(94.99,131.84)" d="M4.5,0A4.5,4.5 0 1,1 0,-4.5A4.5,4.5 0 0,1 4.5,0Z" style="opacity: 1; stroke-width: 0px; fill: rgb(228, 26, 28); fill-opacity: 1;"/><path class="point" transform="translate(104.33,127.24)" d="M4.5,0A4.5,4.5 0 1,1 0,-4.5A4.5,4.5 0 0,1 4.5,0Z" style="opacity: 1; stroke-width: 0px; fill: rgb(228, 26, 28); fill-opacity: 1;"/><path class="point" transform="translate(113.67,216.99)" d="M4.5,0A4.5,4.5 0 1,1 0,-4.5A4.5,4.5 0 0,1 4.5,0Z" style="opacity: 1; stroke-width: 0px; fill: rgb(228, 26, 28); fill-opacity: 1;"/><path class="point" transform="translate(123.01,216.99)" d="M4.5,0A4.5,4.5 0 1,1 0,-4.5A4.5,4.5 0 0,1 4.5,0Z" style="opacity: 1; stroke-width: 0px; fill: rgb(228, 26, 28); fill-opacity: 1;"/><path class="point" transform="translate(132.35,216.99)" d="M4.5,0A4.5,4.5 0 1,1 0,-4.5A4.5,4.5 0 0,1 4.5,0Z" style="opacity: 1; stroke-width: 0px; fill: rgb(228, 26, 28); fill-opacity: 1;"/><path class="point" transform="translate(141.69,236.67)" d="M4.5,0A4.5,4.5 0 1,1 0,-4.5A4.5,4.5 0 0,1 4.5,0Z" style="opacity: 1; stroke-width: 0px; fill: rgb(228, 26, 28); fill-opacity: 1;"/><path class="point" transform="translate(151.03,237.35)" d="M4.5,0A4.5,4.5 0 1,1 0,-4.5A4.5,4.5 0 0,1 4.5,0Z" style="opacity: 1; stroke-width: 0px; fill: rgb(228, 26, 28); fill-opacity: 1;"/><path class="point" transform="translate(160.38,242.19)" d="M4.5,0A4.5,4.5 0 1,1 0,-4.5A4.5,4.5 0 0,1 4.5,0Z" style="opacity: 1; stroke-width: 0px; fill: rgb(228, 26, 28); fill-opacity: 1;"/><path class="point" transform="translate(169.72,218.4)" d="M4.5,0A4.5,4.5 0 1,1 0,-4.5A4.5,4.5 0 0,1 4.5,0Z" style="opacity: 1; stroke-width: 0px; fill: rgb(228, 26, 28); fill-opacity: 1;"/><path class="point" transform="translate(179.06,218.4)" d="M4.5,0A4.5,4.5 0 1,1 0,-4.5A4.5,4.5 0 0,1 4.5,0Z" style="opacity: 1; stroke-width: 0px; fill: rgb(228, 26, 28); fill-opacity: 1;"/><path class="point" transform="translate(188.4,218.68)" d="M4.5,0A4.5,4.5 0 1,1 0,-4.5A4.5,4.5 0 0,1 4.5,0Z" style="opacity: 1; stroke-width: 0px; fill: rgb(228, 26, 28); fill-opacity: 1;"/><path class="point" transform="translate(197.74,205.92)" d="M4.5,0A4.5,4.5 0 1,1 0,-4.5A4.5,4.5 0 0,1 4.5,0Z" style="opacity: 1; stroke-width: 0px; fill: rgb(228, 26, 28); fill-opacity: 1;"/><path class="point" transform="translate(207.08,223.75)" d="M4.5,0A4.5,4.5 0 1,1 0,-4.5A4.5,4.5 0 0,1 4.5,0Z" style="opacity: 1; stroke-width: 0px; fill: rgb(228, 26, 28); fill-opacity: 1;"/><path class="point" transform="translate(216.42,223.77)" d="M4.5,0A4.5,4.5 0 1,1 0,-4.5A4.5,4.5 0 0,1 4.5,0Z" style="opacity: 1; stroke-width: 0px; fill: rgb(228, 26, 28); fill-opacity: 1;"/><path class="point" transform="translate(225.76,238.85)" d="M4.5,0A4.5,4.5 0 1,1 0,-4.5A4.5,4.5 0 0,1 4.5,0Z" style="opacity: 1; stroke-width: 0px; fill: rgb(228, 26, 28); fill-opacity: 1;"/><path class="point" transform="translate(235.1,252.93)" d="M4.5,0A4.5,4.5 0 1,1 0,-4.5A4.5,4.5 0 0,1 4.5,0Z" style="opacity: 1; stroke-width: 0px; fill: rgb(228, 26, 28); fill-opacity: 1;"/><path class="point" transform="translate(244.44,257.76)" d="M4.5,0A4.5,4.5 0 1,1 0,-4.5A4.5,4.5 0 0,1 4.5,0Z" style="opacity: 1; stroke-width: 0px; fill: rgb(228, 26, 28); fill-opacity: 1;"/><path class="point" transform="translate(253.78,263.7)" d="M4.5,0A4.5,4.5 0 1,1 0,-4.5A4.5,4.5 0 0,1 4.5,0Z" style="opacity: 1; stroke-width: 0px; fill: rgb(228, 26, 28); fill-opacity: 1;"/><path class="point" transform="translate(263.13,264.66)" d="M4.5,0A4.5,4.5 0 1,1 0,-4.5A4.5,4.5 0 0,1 4.5,0Z" style="opacity: 1; stroke-width: 0px; fill: rgb(228, 26, 28); fill-opacity: 1;"/><path class="point" transform="translate(272.47,265.26)" d="M4.5,0A4.5,4.5 0 1,1 0,-4.5A4.5,4.5 0 0,1 4.5,0Z" style="opacity: 1; stroke-width: 0px; fill: rgb(228, 26, 28); fill-opacity: 1;"/><path class="point" transform="translate(281.81,280.56)" d="M4.5,0A4.5,4.5 0 1,1 0,-4.5A4.5,4.5 0 0,1 4.5,0Z" style="opacity: 1; stroke-width: 0px; fill: rgb(228, 26, 28); fill-opacity: 1;"/><path class="point" transform="translate(291.15,279.55)" d="M4.5,0A4.5,4.5 0 1,1 0,-4.5A4.5,4.5 0 0,1 4.5,0Z" style="opacity: 1; stroke-width: 0px; fill: rgb(228, 26, 28); fill-opacity: 1;"/><path class="point" transform="translate(300.49,280.36)" d="M4.5,0A4.5,4.5 0 1,1 0,-4.5A4.5,4.5 0 0,1 4.5,0Z" style="opacity: 1; stroke-width: 0px; fill: rgb(228, 26, 28); fill-opacity: 1;"/><path class="point" transform="translate(309.83,280.59)" d="M4.5,0A4.5,4.5 0 1,1 0,-4.5A4.5,4.5 0 0,1 4.5,0Z" style="opacity: 1; stroke-width: 0px; fill: rgb(228, 26, 28); fill-opacity: 1;"/><path class="point" transform="translate(319.17,282.89)" d="M4.5,0A4.5,4.5 0 1,1 0,-4.5A4.5,4.5 0 0,1 4.5,0Z" style="opacity: 1; stroke-width: 0px; fill: rgb(228, 26, 28); fill-opacity: 1;"/><path class="point" transform="translate(328.51,278.93)" d="M4.5,0A4.5,4.5 0 1,1 0,-4.5A4.5,4.5 0 0,1 4.5,0Z" style="opacity: 1; stroke-width: 0px; fill: rgb(228, 26, 28); fill-opacity: 1;"/><path class="point" transform="translate(337.85,279.34)" d="M4.5,0A4.5,4.5 0 1,1 0,-4.5A4.5,4.5 0 0,1 4.5,0Z" style="opacity: 1; stroke-width: 0px; fill: rgb(228, 26, 28); fill-opacity: 1;"/><path class="point" transform="translate(347.19,282.71)" d="M4.5,0A4.5,4.5 0 1,1 0,-4.5A4.5,4.5 0 0,1 4.5,0Z" style="opacity: 1; stroke-width: 0px; fill: rgb(228, 26, 28); fill-opacity: 1;"/><path class="point" transform="translate(356.53,282.4)" d="M4.5,0A4.5,4.5 0 1,1 0,-4.5A4.5,4.5 0 0,1 4.5,0Z" style="opacity: 1; stroke-width: 0px; fill: rgb(228, 26, 28); fill-opacity: 1;"/><path class="point" transform="translate(365.88,282.88)" d="M4.5,0A4.5,4.5 0 1,1 0,-4.5A4.5,4.5 0 0,1 4.5,0Z" style="opacity: 1; stroke-width: 0px; fill: rgb(228, 26, 28); fill-opacity: 1;"/><path class="point" transform="translate(375.22,283.31)" d="M4.5,0A4.5,4.5 0 1,1 0,-4.5A4.5,4.5 0 0,1 4.5,0Z" style="opacity: 1; stroke-width: 0px; fill: rgb(228, 26, 28); fill-opacity: 1;"/><path class="point" transform="translate(384.56,285.28)" d="M4.5,0A4.5,4.5 0 1,1 0,-4.5A4.5,4.5 0 0,1 4.5,0Z" style="opacity: 1; stroke-width: 0px; fill: rgb(228, 26, 28); fill-opacity: 1;"/><path class="point" transform="translate(393.9,286.79)" d="M4.5,0A4.5,4.5 0 1,1 0,-4.5A4.5,4.5 0 0,1 4.5,0Z" style="opacity: 1; stroke-width: 0px; fill: rgb(228, 26, 28); fill-opacity: 1;"/><path class="point" transform="translate(403.24,290.43)" d="M4.5,0A4.5,4.5 0 1,1 0,-4.5A4.5,4.5 0 0,1 4.5,0Z" style="opacity: 1; stroke-width: 0px; fill: rgb(228, 26, 28); fill-opacity: 1;"/><path class="point" transform="translate(412.58,291.79)" d="M4.5,0A4.5,4.5 0 1,1 0,-4.5A4.5,4.5 0 0,1 4.5,0Z" style="opacity: 1; stroke-width: 0px; fill: rgb(228, 26, 28); fill-opacity: 1;"/><path class="point" transform="translate(421.92,292.77)" d="M4.5,0A4.5,4.5 0 1,1 0,-4.5A4.5,4.5 0 0,1 4.5,0Z" style="opacity: 1; stroke-width: 0px; fill: rgb(228, 26, 28); fill-opacity: 1;"/><path class="point" transform="translate(431.26,293.26)" d="M4.5,0A4.5,4.5 0 1,1 0,-4.5A4.5,4.5 0 0,1 4.5,0Z" style="opacity: 1; stroke-width: 0px; fill: rgb(228, 26, 28); fill-opacity: 1;"/><path class="point" transform="translate(440.6,293.76)" d="M4.5,0A4.5,4.5 0 1,1 0,-4.5A4.5,4.5 0 0,1 4.5,0Z" style="opacity: 1; stroke-width: 0px; fill: rgb(228, 26, 28); fill-opacity: 1;"/><path class="point" transform="translate(449.94,294.12)" d="M4.5,0A4.5,4.5 0 1,1 0,-4.5A4.5,4.5 0 0,1 4.5,0Z" style="opacity: 1; stroke-width: 0px; fill: rgb(228, 26, 28); fill-opacity: 1;"/><path class="point" transform="translate(459.28,294.49)" d="M4.5,0A4.5,4.5 0 1,1 0,-4.5A4.5,4.5 0 0,1 4.5,0Z" style="opacity: 1; stroke-width: 0px; fill: rgb(228, 26, 28); fill-opacity: 1;"/><path class="point" transform="translate(468.63,294.65)" d="M4.5,0A4.5,4.5 0 1,1 0,-4.5A4.5,4.5 0 0,1 4.5,0Z" style="opacity: 1; stroke-width: 0px; fill: rgb(228, 26, 28); fill-opacity: 1;"/><path class="point" transform="translate(477.97,294.87)" d="M4.5,0A4.5,4.5 0 1,1 0,-4.5A4.5,4.5 0 0,1 4.5,0Z" style="opacity: 1; stroke-width: 0px; fill: rgb(228, 26, 28); fill-opacity: 1;"/><path class="point" transform="translate(487.31,295.04)" d="M4.5,0A4.5,4.5 0 1,1 0,-4.5A4.5,4.5 0 0,1 4.5,0Z" style="opacity: 1; stroke-width: 0px; fill: rgb(228, 26, 28); fill-opacity: 1;"/><path class="point" transform="translate(496.65,295.08)" d="M4.5,0A4.5,4.5 0 1,1 0,-4.5A4.5,4.5 0 0,1 4.5,0Z" style="opacity: 1; stroke-width: 0px; fill: rgb(228, 26, 28); fill-opacity: 1;"/><path class="point" transform="translate(505.99,295.14)" d="M4.5,0A4.5,4.5 0 1,1 0,-4.5A4.5,4.5 0 0,1 4.5,0Z" style="opacity: 1; stroke-width: 0px; fill: rgb(228, 26, 28); fill-opacity: 1;"/><path class="point" transform="translate(515.33,296.84)" d="M4.5,0A4.5,4.5 0 1,1 0,-4.5A4.5,4.5 0 0,1 4.5,0Z" style="opacity: 1; stroke-width: 0px; fill: rgb(228, 26, 28); fill-opacity: 1;"/><path class="point" transform="translate(524.67,296.86)" d="M4.5,0A4.5,4.5 0 1,1 0,-4.5A4.5,4.5 0 0,1 4.5,0Z" style="opacity: 1; stroke-width: 0px; fill: rgb(228, 26, 28); fill-opacity: 1;"/><path class="point" transform="translate(534.01,296.9)" d="M4.5,0A4.5,4.5 0 1,1 0,-4.5A4.5,4.5 0 0,1 4.5,0Z" style="opacity: 1; stroke-width: 0px; fill: rgb(228, 26, 28); fill-opacity: 1;"/><path class="point" transform="translate(543.35,296.92)" d="M4.5,0A4.5,4.5 0 1,1 0,-4.5A4.5,4.5 0 0,1 4.5,0Z" style="opacity: 1; stroke-width: 0px; fill: rgb(228, 26, 28); fill-opacity: 1;"/><path class="point" transform="translate(552.69,296.97)" d="M4.5,0A4.5,4.5 0 1,1 0,-4.5A4.5,4.5 0 0,1 4.5,0Z" style="opacity: 1; stroke-width: 0px; fill: rgb(228, 26, 28); fill-opacity: 1;"/><path class="point" transform="translate(562.03,297.02)" d="M4.5,0A4.5,4.5 0 1,1 0,-4.5A4.5,4.5 0 0,1 4.5,0Z" style="opacity: 1; stroke-width: 0px; fill: rgb(228, 26, 28); fill-opacity: 1;"/><path class="point" transform="translate(571.37,297.03)" d="M4.5,0A4.5,4.5 0 1,1 0,-4.5A4.5,4.5 0 0,1 4.5,0Z" style="opacity: 1; stroke-width: 0px; fill: rgb(228, 26, 28); fill-opacity: 1;"/><path class="point" transform="translate(580.72,297.06)" d="M4.5,0A4.5,4.5 0 1,1 0,-4.5A4.5,4.5 0 0,1 4.5,0Z" style="opacity: 1; stroke-width: 0px; fill: rgb(228, 26, 28); fill-opacity: 1;"/><path class="point" transform="translate(590.06,297.07)" d="M4.5,0A4.5,4.5 0 1,1 0,-4.5A4.5,4.5 0 0,1 4.5,0Z" style="opacity: 1; stroke-width: 0px; fill: rgb(228, 26, 28); fill-opacity: 1;"/><path class="point" transform="translate(599.4,297.09)" d="M4.5,0A4.5,4.5 0 1,1 0,-4.5A4.5,4.5 0 0,1 4.5,0Z" style="opacity: 1; stroke-width: 0px; fill: rgb(228, 26, 28); fill-opacity: 1;"/><path class="point" transform="translate(608.74,297.09)" d="M4.5,0A4.5,4.5 0 1,1 0,-4.5A4.5,4.5 0 0,1 4.5,0Z" style="opacity: 1; stroke-width: 0px; fill: rgb(228, 26, 28); fill-opacity: 1;"/><path class="point" transform="translate(618.08,297.12)" d="M4.5,0A4.5,4.5 0 1,1 0,-4.5A4.5,4.5 0 0,1 4.5,0Z" style="opacity: 1; stroke-width: 0px; fill: rgb(228, 26, 28); fill-opacity: 1;"/><path class="point" transform="translate(627.42,297.14)" d="M4.5,0A4.5,4.5 0 1,1 0,-4.5A4.5,4.5 0 0,1 4.5,0Z" style="opacity: 1; stroke-width: 0px; fill: rgb(228, 26, 28); fill-opacity: 1;"/><path class="point" transform="translate(636.76,297.15)" d="M4.5,0A4.5,4.5 0 1,1 0,-4.5A4.5,4.5 0 0,1 4.5,0Z" style="opacity: 1; stroke-width: 0px; fill: rgb(228, 26, 28); fill-opacity: 1;"/><path class="point" transform="translate(646.1,297.17)" d="M4.5,0A4.5,4.5 0 1,1 0,-4.5A4.5,4.5 0 0,1 4.5,0Z" style="opacity: 1; stroke-width: 0px; fill: rgb(228, 26, 28); fill-opacity: 1;"/><path class="point" transform="translate(655.44,297.18)" d="M4.5,0A4.5,4.5 0 1,1 0,-4.5A4.5,4.5 0 0,1 4.5,0Z" style="opacity: 1; stroke-width: 0px; fill: rgb(228, 26, 28); fill-opacity: 1;"/><path class="point" transform="translate(664.78,297.18)" d="M4.5,0A4.5,4.5 0 1,1 0,-4.5A4.5,4.5 0 0,1 4.5,0Z" style="opacity: 1; stroke-width: 0px; fill: rgb(228, 26, 28); fill-opacity: 1;"/><path class="point" transform="translate(674.12,297.2)" d="M4.5,0A4.5,4.5 0 1,1 0,-4.5A4.5,4.5 0 0,1 4.5,0Z" style="opacity: 1; stroke-width: 0px; fill: rgb(228, 26, 28); fill-opacity: 1;"/><path class="point" transform="translate(683.47,297.21)" d="M4.5,0A4.5,4.5 0 1,1 0,-4.5A4.5,4.5 0 0,1 4.5,0Z" style="opacity: 1; stroke-width: 0px; fill: rgb(228, 26, 28); fill-opacity: 1;"/><path class="point" transform="translate(692.81,297.22)" d="M4.5,0A4.5,4.5 0 1,1 0,-4.5A4.5,4.5 0 0,1 4.5,0Z" style="opacity: 1; stroke-width: 0px; fill: rgb(228, 26, 28); fill-opacity: 1;"/><path class="point" transform="translate(702.15,297.23)" d="M4.5,0A4.5,4.5 0 1,1 0,-4.5A4.5,4.5 0 0,1 4.5,0Z" style="opacity: 1; stroke-width: 0px; fill: rgb(228, 26, 28); fill-opacity: 1;"/><path class="point" transform="translate(711.49,297.24)" d="M4.5,0A4.5,4.5 0 1,1 0,-4.5A4.5,4.5 0 0,1 4.5,0Z" style="opacity: 1; stroke-width: 0px; fill: rgb(228, 26, 28); fill-opacity: 1;"/><path class="point" transform="translate(720.83,297.25)" d="M4.5,0A4.5,4.5 0 1,1 0,-4.5A4.5,4.5 0 0,1 4.5,0Z" style="opacity: 1; stroke-width: 0px; fill: rgb(228, 26, 28); fill-opacity: 1;"/><path class="point" transform="translate(730.17,297.26)" d="M4.5,0A4.5,4.5 0 1,1 0,-4.5A4.5,4.5 0 0,1 4.5,0Z" style="opacity: 1; stroke-width: 0px; fill: rgb(228, 26, 28); fill-opacity: 1;"/><path class="point" transform="translate(739.51,297.27)" d="M4.5,0A4.5,4.5 0 1,1 0,-4.5A4.5,4.5 0 0,1 4.5,0Z" style="opacity: 1; stroke-width: 0px; fill: rgb(228, 26, 28); fill-opacity: 1;"/><path class="point" transform="translate(748.85,297.28)" d="M4.5,0A4.5,4.5 0 1,1 0,-4.5A4.5,4.5 0 0,1 4.5,0Z" style="opacity: 1; stroke-width: 0px; fill: rgb(228, 26, 28); fill-opacity: 1;"/><path class="point" transform="translate(758.19,297.29)" d="M4.5,0A4.5,4.5 0 1,1 0,-4.5A4.5,4.5 0 0,1 4.5,0Z" style="opacity: 1; stroke-width: 0px; fill: rgb(228, 26, 28); fill-opacity: 1;"/><path class="point" transform="translate(767.53,297.29)" d="M4.5,0A4.5,4.5 0 1,1 0,-4.5A4.5,4.5 0 0,1 4.5,0Z" style="opacity: 1; stroke-width: 0px; fill: rgb(228, 26, 28); fill-opacity: 1;"/><path class="point" transform="translate(776.87,297.3)" d="M4.5,0A4.5,4.5 0 1,1 0,-4.5A4.5,4.5 0 0,1 4.5,0Z" style="opacity: 1; stroke-width: 0px; fill: rgb(228, 26, 28); fill-opacity: 1;"/><path class="point" transform="translate(786.22,297.31)" d="M4.5,0A4.5,4.5 0 1,1 0,-4.5A4.5,4.5 0 0,1 4.5,0Z" style="opacity: 1; stroke-width: 0px; fill: rgb(228, 26, 28); fill-opacity: 1;"/><path class="point" transform="translate(795.56,297.32)" d="M4.5,0A4.5,4.5 0 1,1 0,-4.5A4.5,4.5 0 0,1 4.5,0Z" style="opacity: 1; stroke-width: 0px; fill: rgb(228, 26, 28); fill-opacity: 1;"/><path class="point" transform="translate(804.9,297.32)" d="M4.5,0A4.5,4.5 0 1,1 0,-4.5A4.5,4.5 0 0,1 4.5,0Z" style="opacity: 1; stroke-width: 0px; fill: rgb(228, 26, 28); fill-opacity: 1;"/><path class="point" transform="translate(814.24,297.33)" d="M4.5,0A4.5,4.5 0 1,1 0,-4.5A4.5,4.5 0 0,1 4.5,0Z" style="opacity: 1; stroke-width: 0px; fill: rgb(228, 26, 28); fill-opacity: 1;"/><path class="point" transform="translate(823.58,297.34)" d="M4.5,0A4.5,4.5 0 1,1 0,-4.5A4.5,4.5 0 0,1 4.5,0Z" style="opacity: 1; stroke-width: 0px; fill: rgb(228, 26, 28); fill-opacity: 1;"/><path class="point" transform="translate(832.92,297.35)" d="M4.5,0A4.5,4.5 0 1,1 0,-4.5A4.5,4.5 0 0,1 4.5,0Z" style="opacity: 1; stroke-width: 0px; fill: rgb(228, 26, 28); fill-opacity: 1;"/><path class="point" transform="translate(842.26,297.35)" d="M4.5,0A4.5,4.5 0 1,1 0,-4.5A4.5,4.5 0 0,1 4.5,0Z" style="opacity: 1; stroke-width: 0px; fill: rgb(228, 26, 28); fill-opacity: 1;"/><path class="point" transform="translate(851.6,297.36)" d="M4.5,0A4.5,4.5 0 1,1 0,-4.5A4.5,4.5 0 0,1 4.5,0Z" style="opacity: 1; stroke-width: 0px; fill: rgb(228, 26, 28); fill-opacity: 1;"/><path class="point" transform="translate(860.94,297.37)" d="M4.5,0A4.5,4.5 0 1,1 0,-4.5A4.5,4.5 0 0,1 4.5,0Z" style="opacity: 1; stroke-width: 0px; fill: rgb(228, 26, 28); fill-opacity: 1;"/><path class="point" transform="translate(870.28,297.37)" d="M4.5,0A4.5,4.5 0 1,1 0,-4.5A4.5,4.5 0 0,1 4.5,0Z" style="opacity: 1; stroke-width: 0px; fill: rgb(228, 26, 28); fill-opacity: 1;"/><path class="point" transform="translate(879.62,297.38)" d="M4.5,0A4.5,4.5 0 1,1 0,-4.5A4.5,4.5 0 0,1 4.5,0Z" style="opacity: 1; stroke-width: 0px; fill: rgb(228, 26, 28); fill-opacity: 1;"/><path class="point" transform="translate(888.97,297.38)" d="M4.5,0A4.5,4.5 0 1,1 0,-4.5A4.5,4.5 0 0,1 4.5,0Z" style="opacity: 1; stroke-width: 0px; fill: rgb(228, 26, 28); fill-opacity: 1;"/><path class="point" transform="translate(898.31,297.39)" d="M4.5,0A4.5,4.5 0 1,1 0,-4.5A4.5,4.5 0 0,1 4.5,0Z" style="opacity: 1; stroke-width: 0px; fill: rgb(228, 26, 28); fill-opacity: 1;"/><path class="point" transform="translate(907.65,297.39)" d="M4.5,0A4.5,4.5 0 1,1 0,-4.5A4.5,4.5 0 0,1 4.5,0Z" style="opacity: 1; stroke-width: 0px; fill: rgb(228, 26, 28); fill-opacity: 1;"/><path class="point" transform="translate(916.99,297.4)" d="M4.5,0A4.5,4.5 0 1,1 0,-4.5A4.5,4.5 0 0,1 4.5,0Z" style="opacity: 1; stroke-width: 0px; fill: rgb(228, 26, 28); fill-opacity: 1;"/><path class="point" transform="translate(926.33,297.4)" d="M4.5,0A4.5,4.5 0 1,1 0,-4.5A4.5,4.5 0 0,1 4.5,0Z" style="opacity: 1; stroke-width: 0px; fill: rgb(228, 26, 28); fill-opacity: 1;"/><path class="point" transform="translate(935.67,297.41)" d="M4.5,0A4.5,4.5 0 1,1 0,-4.5A4.5,4.5 0 0,1 4.5,0Z" style="opacity: 1; stroke-width: 0px; fill: rgb(228, 26, 28); fill-opacity: 1;"/><path class="point" transform="translate(945.01,297.41)" d="M4.5,0A4.5,4.5 0 1,1 0,-4.5A4.5,4.5 0 0,1 4.5,0Z" style="opacity: 1; stroke-width: 0px; fill: rgb(228, 26, 28); fill-opacity: 1;"/><path class="point" transform="translate(954.35,297.41)" d="M4.5,0A4.5,4.5 0 1,1 0,-4.5A4.5,4.5 0 0,1 4.5,0Z" style="opacity: 1; stroke-width: 0px; fill: rgb(228, 26, 28); fill-opacity: 1;"/><path class="point" transform="translate(963.69,297.42)" d="M4.5,0A4.5,4.5 0 1,1 0,-4.5A4.5,4.5 0 0,1 4.5,0Z" style="opacity: 1; stroke-width: 0px; fill: rgb(228, 26, 28); fill-opacity: 1;"/><path class="point" transform="translate(973.03,297.42)" d="M4.5,0A4.5,4.5 0 1,1 0,-4.5A4.5,4.5 0 0,1 4.5,0Z" style="opacity: 1; stroke-width: 0px; fill: rgb(228, 26, 28); fill-opacity: 1;"/><path class="point" transform="translate(982.37,297.43)" d="M4.5,0A4.5,4.5 0 1,1 0,-4.5A4.5,4.5 0 0,1 4.5,0Z" style="opacity: 1; stroke-width: 0px; fill: rgb(228, 26, 28); fill-opacity: 1;"/></g><g class="text"/></g></g></g><g class="overplot"/><path class="xlines-above crisp" d="M0,0" style="fill: none;"/><path class="ylines-above crisp" d="M0,0" style="fill: none;"/><g class="overlines-above"/><g class="xaxislayer-above"><g class="xtick"><text text-anchor="middle" x="0" y="438" transform="translate(128.28,0)" style="font-family: 'Open Sans', verdana, arial, sans-serif; font-size: 18px; fill: rgb(42, 63, 95); fill-opacity: 1; white-space: pre;">0</text></g><g class="xtick"><text text-anchor="middle" x="0" y="438" transform="translate(315.1,0)" style="font-family: 'Open Sans', verdana, arial, sans-serif; font-size: 18px; fill: rgb(42, 63, 95); fill-opacity: 1; white-space: pre;">200</text></g><g class="xtick"><text text-anchor="middle" x="0" y="438" transform="translate(501.92,0)" style="font-family: 'Open Sans', verdana, arial, sans-serif; font-size: 18px; fill: rgb(42, 63, 95); fill-opacity: 1; white-space: pre;">400</text></g><g class="xtick"><text text-anchor="middle" x="0" y="438" transform="translate(688.74,0)" style="font-family: 'Open Sans', verdana, arial, sans-serif; font-size: 18px; fill: rgb(42, 63, 95); fill-opacity: 1; white-space: pre;">600</text></g><g class="xtick"><text text-anchor="middle" x="0" y="438" transform="translate(875.56,0)" style="font-family: 'Open Sans', verdana, arial, sans-serif; font-size: 18px; fill: rgb(42, 63, 95); fill-opacity: 1; white-space: pre;">800</text></g><g class="xtick"><text text-anchor="middle" x="0" y="438" transform="translate(1062.37,0)" style="font-family: 'Open Sans', verdana, arial, sans-serif; font-size: 18px; fill: rgb(42, 63, 95); fill-opacity: 1; white-space: pre;">1000</text></g></g><g class="yaxislayer-above"><g class="ytick"><text text-anchor="end" x="79" y="6.3" transform="translate(0,397.64)" style="font-family: 'Open Sans', verdana, arial, sans-serif; font-size: 18px; fill: rgb(42, 63, 95); fill-opacity: 1; white-space: pre;">0</text></g><g class="ytick"><text text-anchor="end" x="79" y="6.3" transform="translate(0,356.65)" style="font-family: 'Open Sans', verdana, arial, sans-serif; font-size: 18px; fill: rgb(42, 63, 95); fill-opacity: 1; white-space: pre;">2</text></g><g class="ytick"><text text-anchor="end" x="79" y="6.3" transform="translate(0,315.65999999999997)" style="font-family: 'Open Sans', verdana, arial, sans-serif; font-size: 18px; fill: rgb(42, 63, 95); fill-opacity: 1; white-space: pre;">4</text></g><g class="ytick"><text text-anchor="end" x="79" y="6.3" transform="translate(0,274.66999999999996)" style="font-family: 'Open Sans', verdana, arial, sans-serif; font-size: 18px; fill: rgb(42, 63, 95); fill-opacity: 1; white-space: pre;">6</text></g><g class="ytick"><text text-anchor="end" x="79" y="6.3" transform="translate(0,233.68)" style="font-family: 'Open Sans', verdana, arial, sans-serif; font-size: 18px; fill: rgb(42, 63, 95); fill-opacity: 1; white-space: pre;">8</text></g><g class="ytick"><text text-anchor="end" x="79" y="6.3" transform="translate(0,192.69)" style="font-family: 'Open Sans', verdana, arial, sans-serif; font-size: 18px; fill: rgb(42, 63, 95); fill-opacity: 1; white-space: pre;">10</text></g><g class="ytick"><text text-anchor="end" x="79" y="6.3" transform="translate(0,151.7)" style="font-family: 'Open Sans', verdana, arial, sans-serif; font-size: 18px; fill: rgb(42, 63, 95); fill-opacity: 1; white-space: pre;">12</text></g><g class="ytick"><text text-anchor="end" x="79" y="6.3" transform="translate(0,110.71000000000001)" style="font-family: 'Open Sans', verdana, arial, sans-serif; font-size: 18px; fill: rgb(42, 63, 95); fill-opacity: 1; white-space: pre;">14</text></g></g><g class="overaxes-above"/></g></g><g class="polarlayer"/><g class="ternarylayer"/><g class="geolayer"/><g class="funnelarealayer"/><g class="pielayer"/><g class="sunburstlayer"/><g class="glimages"/><defs id="topdefs-5a4a6e"><g class="clips"/><clipPath id="legend5a4a6e"><rect width="368" height="37" x="0" y="0"/></clipPath></defs><g class="layer-above"><g class="imagelayer"/><g class="shapelayer"><path data-index="0" fill-rule="evenodd" d="M128.28,397.64L1062.37,397.64" clip-path="url('#clip5a4a6exy')" style="opacity: 1; stroke: rgb(178, 223, 138); stroke-opacity: 1; fill: rgb(0, 0, 0); fill-opacity: 0; stroke-dasharray: 9px, 9px; stroke-width: 2px;"/></g></g><g class="infolayer"><g class="legend" pointer-events="all" transform="translate(80, 452)"><rect class="bg" shape-rendering="crispEdges" style="stroke: rgb(68, 68, 68); stroke-opacity: 1; fill: rgb(255, 255, 255); fill-opacity: 1; stroke-width: 0px;" width="368" height="37" x="0" y="0"/><g class="scrollbox" transform="translate(0, 0)" clip-path="url('#legend5a4a6e')"><g class="groups"><g class="traces" transform="translate(0, 18.200000000000003)" style="opacity: 1;"><text class="legendtext user-select-none" text-anchor="start" x="40" y="7.0200000000000005" style="font-family: 'Open Sans', verdana, arial, sans-serif; font-size: 18px; fill: rgb(42, 63, 95); fill-opacity: 1; white-space: pre;">Hypermapper</text><g class="layers" style="opacity: 1;"><g class="legendfill"/><g class="legendlines"><path class="js-line" d="M5,0h30" style="fill: none; stroke: rgb(31, 119, 180); stroke-opacity: 1; stroke-width: 3px;"/></g><g class="legendsymbols"><g class="legendpoints"/></g></g><rect class="legendtoggle" pointer-events="all" x="0" y="-13.200000000000001" width="368" height="26.400000000000002" style="cursor: pointer; fill: rgb(0, 0, 0); fill-opacity: 0;"/></g><g class="traces" transform="translate(163.734375, 18.200000000000003)" style="opacity: 1;"><text class="legendtext user-select-none" text-anchor="start" x="40" y="7.0200000000000005" style="font-family: 'Open Sans', verdana, arial, sans-serif; font-size: 18px; fill: rgb(42, 63, 95); fill-opacity: 1; white-space: pre;">nsga2</text><g class="layers" style="opacity: 1;"><g class="legendfill"/><g class="legendlines"><path class="js-line" d="M5,0h30" style="fill: none; stroke: rgb(77, 175, 74); stroke-opacity: 1; stroke-dasharray: 3px, 3px; stroke-width: 3px;"/></g><g class="legendsymbols"><g class="legendpoints"><path class="scatterpts" transform="translate(20,0)" d="M0,2.55l2.55,2.55l2.55,-2.55l-2.55,-2.55l2.55,-2.55l-2.55,-2.55l-2.55,2.55l-2.55,-2.55l-2.55,2.55l2.55,2.55l-2.55,2.55l2.55,2.55Z" style="opacity: 1; stroke-width: 0px; fill: rgb(77, 175, 74); fill-opacity: 1;"/></g></g></g><rect class="legendtoggle" pointer-events="all" x="0" y="-13.200000000000001" width="368" height="26.400000000000002" style="cursor: pointer; fill: rgb(0, 0, 0); fill-opacity: 0;"/></g><g class="traces" transform="translate(259.234375, 18.200000000000003)" style="opacity: 1;"><text class="legendtext user-select-none" text-anchor="start" x="40" y="7.0200000000000005" style="font-family: 'Open Sans', verdana, arial, sans-serif; font-size: 18px; fill: rgb(42, 63, 95); fill-opacity: 1; white-space: pre;">TutorM</text><g class="layers" style="opacity: 1;"><g class="legendfill"/><g class="legendlines"><path class="js-line" d="M5,0h30" style="fill: none; stroke: rgb(228, 26, 28); stroke-opacity: 1; stroke-width: 3px;"/></g><g class="legendsymbols"><g class="legendpoints"><path class="scatterpts" transform="translate(20,0)" d="M4.5,0A4.5,4.5 0 1,1 0,-4.5A4.5,4.5 0 0,1 4.5,0Z" style="opacity: 1; stroke-width: 0px; fill: rgb(228, 26, 28); fill-opacity: 1;"/></g></g></g><rect class="legendtoggle" pointer-events="all" x="0" y="-13.200000000000001" width="368" height="26.400000000000002" style="cursor: pointer; fill: rgb(0, 0, 0); fill-opacity: 0;"/></g></g></g><rect class="scrollbar" rx="20" ry="3" width="0" height="0" style="fill: rgb(128, 139, 164); fill-opacity: 1;" x="0" y="0"/></g><g class="g-gtitle"><text class="gtitle" x="60" y="50" text-anchor="start" dy="0em" style="font-family: 'Open Sans', verdana, arial, sans-serif; font-size: 25px; fill: rgb(42, 63, 95); opacity: 1; font-weight: normal; white-space: pre;">ZDT4: p-distance to Pareto-front</text></g><g class="g-xtitle" transform="translate(0,-1)"><text class="xtitle" x="600" y="495" text-anchor="middle" style="font-family: 'Open Sans', verdana, arial, sans-serif; font-size: 22px; fill: rgb(42, 63, 95); opacity: 1; font-weight: normal; white-space: pre;">i_fevals</text></g><g class="g-ytitle"><text class="ytitle" transform="rotate(-90,26,259.5)" x="26" y="259.5" text-anchor="middle" style="font-family: 'Open Sans', verdana, arial, sans-serif; font-size: 22px; fill: rgb(42, 63, 95); opacity: 1; font-weight: normal; white-space: pre;">p_distance</text></g></g></svg>