<?xml version="1.0" encoding="UTF-8" standalone="no"?>
<svg
   xmlns:dc="http://purl.org/dc/elements/1.1/"
   xmlns:cc="http://creativecommons.org/ns#"
   xmlns:rdf="http://www.w3.org/1999/02/22-rdf-syntax-ns#"
   xmlns:svg="http://www.w3.org/2000/svg"
   xmlns="http://www.w3.org/2000/svg"
   viewBox="0 0 385.28 296"
   height="296"
   width="385.28"
   xml:space="preserve"
   id="svg7803"
   version="1.1"><metadata
     id="metadata7809"><rdf:RDF><cc:Work
         rdf:about=""><dc:format>image/svg+xml</dc:format><dc:type
           rdf:resource="http://purl.org/dc/dcmitype/StillImage" /><dc:title></dc:title></cc:Work></rdf:RDF></metadata><defs
     id="defs7807"><clipPath
       id="clipPath7819"
       clipPathUnits="userSpaceOnUse"><path
         style="clip-rule:evenodd"
         id="path7817"
         d="M 0,0 H 1204.1666 V 922.59528 H 0 Z" /></clipPath><clipPath
       id="clipPath7831"
       clipPathUnits="userSpaceOnUse"><path
         style="clip-rule:evenodd"
         id="path7829"
         d="M 1.9170811,2.9954393 H 1196.4983 V 919.59981 H 1.9170811 Z" /></clipPath><clipPath
       id="clipPath7891"
       clipPathUnits="userSpaceOnUse"><path
         style="clip-rule:evenodd"
         id="path7889"
         d="M 174.73172,54.878704 H 1125.2122 V 746.65556 H 174.73172 Z" /></clipPath><clipPath
       id="clipPath7915"
       clipPathUnits="userSpaceOnUse"><path
         style="clip-rule:evenodd"
         id="path7913"
         d="M 1.9170811,2.9954393 H 1196.4983 V 919.59981 H 1.9170811 Z" /></clipPath><clipPath
       id="clipPath8031"
       clipPathUnits="userSpaceOnUse"><path
         style="clip-rule:evenodd"
         id="path8029"
         d="M 0,0 H 1204.1666 V 922.59528 H 0 Z" /></clipPath></defs><g
     transform="matrix(0.31999998,0,0,0.31999998,0,7.4e-6)"
     id="g7811"><g
       id="g7813"><g
         clip-path="url(#clipPath7819)"
         id="g7815"><g
           transform="scale(2.9954393)"
           id="g7821"><path
             id="path7823"
             style="fill:#ffffff;fill-opacity:1;fill-rule:nonzero;stroke:none"
             d="M 0,0 H 402 V 308 H 0 Z" /></g></g></g><g
       id="g7825"><g
         clip-path="url(#clipPath7831)"
         id="g7827"><g
           transform="matrix(2.160183,0,0,2.1618028,1.9170811,2.9954393)"
           id="g7833"><path
             id="path7835"
             style="fill:#ffffff;fill-opacity:1;fill-rule:nonzero;stroke:none"
             d="M 0,0.40348816 H 556.55487 V 423.99999 L 0,423.99999 Z" /></g><g
           transform="matrix(2.160183,0,0,2.1618028,362.27881,-161.30157)"
           id="g7837"><path
             id="path7839"
             style="fill:#000000;fill-opacity:1;fill-rule:nonzero;stroke:none"
             d="M 0,100 V 420" /><path
             id="path7841"
             style="fill:none;stroke:#eeeeee;stroke-width:1;stroke-linecap:butt;stroke-linejoin:miter;stroke-miterlimit:10;stroke-dasharray:none;stroke-opacity:1"
             d="M 0,100 V 420" /></g><g
           transform="matrix(2.160183,0,0,2.1618028,618.00128,-161.30157)"
           id="g7843"><path
             id="path7845"
             style="fill:#000000;fill-opacity:1;fill-rule:nonzero;stroke:none"
             d="M 0,100 V 420" /><path
             id="path7847"
             style="fill:none;stroke:#eeeeee;stroke-width:1;stroke-linecap:butt;stroke-linejoin:miter;stroke-miterlimit:10;stroke-dasharray:none;stroke-opacity:1"
             d="M 0,100 V 420" /></g><g
           transform="matrix(2.160183,0,0,2.1618028,873.7453,-161.30157)"
           id="g7849"><path
             id="path7851"
             style="fill:#000000;fill-opacity:1;fill-rule:nonzero;stroke:none"
             d="M 0,100 V 420" /><path
             id="path7853"
             style="fill:none;stroke:#eeeeee;stroke-width:1;stroke-linecap:butt;stroke-linejoin:miter;stroke-miterlimit:10;stroke-dasharray:none;stroke-opacity:1"
             d="M 0,100 V 420" /></g><g
           transform="matrix(2.160183,0,0,2.1618028,1.9170811,633.44196)"
           id="g7855"><path
             id="path7857"
             style="fill:#000000;fill-opacity:1;fill-rule:nonzero;stroke:none"
             d="M 80,0 H 520" /><path
             id="path7859"
             style="fill:none;stroke:#eeeeee;stroke-width:1;stroke-linecap:butt;stroke-linejoin:miter;stroke-miterlimit:10;stroke-dasharray:none;stroke-opacity:1"
             d="M 80,0 H 520" /></g><g
           transform="matrix(2.160183,0,0,2.1618028,1.9170811,500.49112)"
           id="g7861"><path
             id="path7863"
             style="fill:#000000;fill-opacity:1;fill-rule:nonzero;stroke:none"
             d="M 80,0 H 520" /><path
             id="path7865"
             style="fill:none;stroke:#eeeeee;stroke-width:1;stroke-linecap:butt;stroke-linejoin:miter;stroke-miterlimit:10;stroke-dasharray:none;stroke-opacity:1"
             d="M 80,0 H 520" /></g><g
           transform="matrix(2.160183,0,0,2.1618028,1.9170811,367.54025)"
           id="g7867"><path
             id="path7869"
             style="fill:#000000;fill-opacity:1;fill-rule:nonzero;stroke:none"
             d="M 80,0 H 520" /><path
             id="path7871"
             style="fill:none;stroke:#eeeeee;stroke-width:1;stroke-linecap:butt;stroke-linejoin:miter;stroke-miterlimit:10;stroke-dasharray:none;stroke-opacity:1"
             d="M 80,0 H 520" /></g><g
           transform="matrix(2.160183,0,0,2.1618028,1.9170811,234.58939)"
           id="g7873"><path
             id="path7875"
             style="fill:#000000;fill-opacity:1;fill-rule:nonzero;stroke:none"
             d="M 80,0 H 520" /><path
             id="path7877"
             style="fill:none;stroke:#eeeeee;stroke-width:1;stroke-linecap:butt;stroke-linejoin:miter;stroke-miterlimit:10;stroke-dasharray:none;stroke-opacity:1"
             d="M 80,0 H 520" /></g><g
           transform="matrix(2.160183,0,0,2.1618028,1.9170811,101.63849)"
           id="g7879"><path
             id="path7881"
             style="fill:#000000;fill-opacity:1;fill-rule:nonzero;stroke:none"
             d="M 80,0 H 520" /><path
             id="path7883"
             style="fill:none;stroke:#eeeeee;stroke-width:1;stroke-linecap:butt;stroke-linejoin:miter;stroke-miterlimit:10;stroke-dasharray:none;stroke-opacity:1"
             d="M 80,0 H 520" /></g></g></g><g
       id="g7885"><g
         clip-path="url(#clipPath7891)"
         id="g7887"><g
           transform="matrix(2.160183,0,0,2.1618028,745.86255,633.44202)"
           id="g7893"><path
             id="path7895"
             style="fill:#3333ff;fill-opacity:1;fill-rule:nonzero;stroke:none"
             d="M 4.5,0 C 4.4999995,0.59673703 4.385819,1.1707621 4.1574574,1.7220752 3.929096,2.2733884 3.6039369,2.7600234 3.1819801,3.1819801 2.7600234,3.6039369 2.2733884,3.929096 1.7220752,4.1574574 1.1707621,4.385819 0.59673703,4.4999995 0,4.5 -0.59673703,4.4999995 -1.1707621,4.385819 -1.7220752,4.1574574 -2.2733884,3.929096 -2.7600234,3.6039369 -3.1819801,3.1819801 -3.6039369,2.7600234 -3.929096,2.2733884 -4.1574574,1.7220752 -4.385819,1.1707621 -4.4999995,0.59673703 -4.5,0 c 5e-7,-0.59673703 0.114181,-1.1707621 0.3425426,-1.7220752 0.2283614,-0.5513132 0.5535205,-1.0379482 0.9754773,-1.4599049 0.4219567,-0.4219568 0.9085917,-0.7471159 1.4599049,-0.9754773 C -1.1707621,-4.385819 -0.59673703,-4.4999995 0,-4.5 c 0.59673703,5e-7 1.1707621,0.114181 1.7220752,0.3425426 0.5513132,0.2283614 1.0379482,0.5535205 1.4599049,0.9754773 0.4219568,0.4219567 0.7471159,0.9085917 0.9754773,1.4599049 C 4.385819,-1.1707621 4.4999995,-0.59673703 4.5,0 Z" /></g><g
           transform="matrix(2.160183,0,0,2.1618028,234.39597,101.6385)"
           id="g7897"><path
             id="path7899"
             style="fill:#3333ff;fill-opacity:1;fill-rule:nonzero;stroke:none"
             d="M 4.5,0 C 4.4999995,0.59673703 4.385819,1.1707621 4.1574574,1.7220752 3.929096,2.2733884 3.6039369,2.7600234 3.1819801,3.1819801 2.7600234,3.6039369 2.2733884,3.929096 1.7220752,4.1574574 1.1707621,4.385819 0.59673703,4.4999995 0,4.5 -0.59673703,4.4999995 -1.1707621,4.385819 -1.7220752,4.1574574 -2.2733884,3.929096 -2.7600234,3.6039369 -3.1819801,3.1819801 -3.6039369,2.7600234 -3.929096,2.2733884 -4.1574574,1.7220752 -4.385819,1.1707621 -4.4999995,0.59673703 -4.5,0 c 5e-7,-0.59673703 0.114181,-1.1707621 0.3425426,-1.7220752 0.2283614,-0.5513132 0.5535205,-1.0379482 0.9754773,-1.4599049 0.4219567,-0.4219568 0.9085917,-0.7471159 1.4599049,-0.9754773 C -1.1707621,-4.385819 -0.59673703,-4.4999995 0,-4.5 c 0.59673703,5e-7 1.1707621,0.114181 1.7220752,0.3425426 0.5513132,0.2283614 1.0379482,0.5535205 1.4599049,0.9754773 0.4219568,0.4219567 0.7471159,0.9085917 0.9754773,1.4599049 C 4.385819,-1.1707621 4.4999995,-0.59673703 4.5,0 Z" /></g><g
           transform="matrix(2.160183,0,0,2.1618028,298.3374,434.01569)"
           id="g7901"><path
             id="path7903"
             style="fill:#3333ff;fill-opacity:1;fill-rule:nonzero;stroke:none"
             d="M 4.5,0 C 4.4999995,0.59673703 4.385819,1.1707621 4.1574574,1.7220752 3.929096,2.2733884 3.6039369,2.7600234 3.1819801,3.1819801 2.7600234,3.6039369 2.2733884,3.929096 1.7220752,4.1574574 1.1707621,4.385819 0.59673703,4.4999995 0,4.5 -0.59673703,4.4999995 -1.1707621,4.385819 -1.7220752,4.1574574 -2.2733884,3.929096 -2.7600234,3.6039369 -3.1819801,3.1819801 -3.6039369,2.7600234 -3.929096,2.2733884 -4.1574574,1.7220752 -4.385819,1.1707621 -4.4999995,0.59673703 -4.5,0 c 5e-7,-0.59673703 0.114181,-1.1707621 0.3425426,-1.7220752 0.2283614,-0.5513132 0.5535205,-1.0379482 0.9754773,-1.4599049 0.4219567,-0.4219568 0.9085917,-0.7471159 1.4599049,-0.9754773 C -1.1707621,-4.385819 -0.59673703,-4.4999995 0,-4.5 c 0.59673703,5e-7 1.1707621,0.114181 1.7220752,0.3425426 0.5513132,0.2283614 1.0379482,0.5535205 1.4599049,0.9754773 0.4219568,0.4219567 0.7471159,0.9085917 0.9754773,1.4599049 C 4.385819,-1.1707621 4.4999995,-0.59673703 4.5,0 Z" /></g><g
           transform="matrix(2.160183,0,0,2.1618028,1065.5264,699.91742)"
           id="g7905"><path
             id="path7907"
             style="fill:#3333ff;fill-opacity:1;fill-rule:nonzero;stroke:none"
             d="M 4.5,0 C 4.4999995,0.59673703 4.385819,1.1707621 4.1574574,1.7220752 3.929096,2.2733884 3.6039369,2.7600234 3.1819801,3.1819801 2.7600234,3.6039369 2.2733884,3.929096 1.7220752,4.1574574 1.1707621,4.385819 0.59673703,4.4999995 0,4.5 -0.59673703,4.4999995 -1.1707621,4.385819 -1.7220752,4.1574574 -2.2733884,3.929096 -2.7600234,3.6039369 -3.1819801,3.1819801 -3.6039369,2.7600234 -3.929096,2.2733884 -4.1574574,1.7220752 -4.385819,1.1707621 -4.4999995,0.59673703 -4.5,0 c 5e-7,-0.59673703 0.114181,-1.1707621 0.3425426,-1.7220752 0.2283614,-0.5513132 0.5535205,-1.0379482 0.9754773,-1.4599049 0.4219567,-0.4219568 0.9085917,-0.7471159 1.4599049,-0.9754773 C -1.1707621,-4.385819 -0.59673703,-4.4999995 0,-4.5 c 0.59673703,5e-7 1.1707621,0.114181 1.7220752,0.3425426 0.5513132,0.2283614 1.0379482,0.5535205 1.4599049,0.9754773 0.4219568,0.4219567 0.7471159,0.9085917 0.9754773,1.4599049 C 4.385819,-1.1707621 4.4999995,-0.59673703 4.5,0 Z" /></g></g></g><g
       id="g7909"><g
         clip-path="url(#clipPath7915)"
         id="g7911"><g
           transform="matrix(2.160183,0,0,2.1618028,362.27881,-161.30157)"
           id="g7917"><text
             id="text7921"
             style="font-variant:normal;font-weight:normal;font-size:18px;font-family:'Open Sans';-inkscape-font-specification:OpenSans-Regular;writing-mode:lr-tb;fill:#444444;fill-opacity:1;fill-rule:nonzero;stroke:none"
             transform="translate(-12.687012,439)"><tspan
               id="tspan7919"
               y="0"
               x="0 10.291992 15.082031">0.5</tspan></text>
</g><g
           transform="matrix(2.160183,0,0,2.1618028,618.00128,-161.30157)"
           id="g7923"><text
             id="text7927"
             style="font-variant:normal;font-weight:normal;font-size:18px;font-family:'Open Sans';-inkscape-font-specification:OpenSans-Regular;writing-mode:lr-tb;fill:#444444;fill-opacity:1;fill-rule:nonzero;stroke:none"
             transform="translate(-5.1459961,439)"><tspan
               id="tspan7925"
               y="0"
               x="0">1</tspan></text>
</g><g
           transform="matrix(2.160183,0,0,2.1618028,873.7453,-161.30157)"
           id="g7929"><text
             id="text7933"
             style="font-variant:normal;font-weight:normal;font-size:18px;font-family:'Open Sans';-inkscape-font-specification:OpenSans-Regular;writing-mode:lr-tb;fill:#444444;fill-opacity:1;fill-rule:nonzero;stroke:none"
             transform="translate(-12.687012,439)"><tspan
               id="tspan7931"
               y="0"
               x="0 10.291992 15.082031">1.5</tspan></text>
</g><g
           transform="matrix(2.160183,0,0,2.1618028,1.9170811,633.44196)"
           id="g7935"><text
             id="text7939"
             style="font-variant:normal;font-weight:normal;font-size:18px;font-family:'Open Sans';-inkscape-font-specification:OpenSans-Regular;writing-mode:lr-tb;fill:#444444;fill-opacity:1;fill-rule:nonzero;stroke:none"
             transform="translate(53.625977,6.3000002)"><tspan
               id="tspan7937"
               y="0"
               x="0 10.291992 15.082031">0.5</tspan></text>
</g><g
           transform="matrix(2.160183,0,0,2.1618028,1.9170811,500.49112)"
           id="g7941"><text
             id="text7945"
             style="font-variant:normal;font-weight:normal;font-size:18px;font-family:'Open Sans';-inkscape-font-specification:OpenSans-Regular;writing-mode:lr-tb;fill:#444444;fill-opacity:1;fill-rule:nonzero;stroke:none"
             transform="translate(68.708008,6.3000002)"><tspan
               id="tspan7943"
               y="0"
               x="0">1</tspan></text>
</g><g
           transform="matrix(2.160183,0,0,2.1618028,1.9170811,367.54025)"
           id="g7947"><text
             id="text7951"
             style="font-variant:normal;font-weight:normal;font-size:18px;font-family:'Open Sans';-inkscape-font-specification:OpenSans-Regular;writing-mode:lr-tb;fill:#444444;fill-opacity:1;fill-rule:nonzero;stroke:none"
             transform="translate(53.625977,6.3000002)"><tspan
               id="tspan7949"
               y="0"
               x="0 10.291992 15.082031">1.5</tspan></text>
</g><g
           transform="matrix(2.160183,0,0,2.1618028,1.9170811,234.58939)"
           id="g7953"><text
             id="text7957"
             style="font-variant:normal;font-weight:normal;font-size:18px;font-family:'Open Sans';-inkscape-font-specification:OpenSans-Regular;writing-mode:lr-tb;fill:#444444;fill-opacity:1;fill-rule:nonzero;stroke:none"
             transform="translate(68.708008,6.3000002)"><tspan
               id="tspan7955"
               y="0"
               x="0">2</tspan></text>
</g><g
           transform="matrix(2.160183,0,0,2.1618028,1.9170811,101.63849)"
           id="g7959"><text
             id="text7963"
             style="font-variant:normal;font-weight:normal;font-size:18px;font-family:'Open Sans';-inkscape-font-specification:OpenSans-Regular;writing-mode:lr-tb;fill:#444444;fill-opacity:1;fill-rule:nonzero;stroke:none"
             transform="translate(53.625977,6.3000002)"><tspan
               id="tspan7961"
               y="0"
               x="0 10.291992 15.082031">2.5</tspan></text>
</g><g
           transform="matrix(0.04013449,0,0,-0.04016458,601.54712,861.30786)"
           id="g7965"><path
             id="path7967"
             style="fill:#444444;fill-opacity:1;fill-rule:nonzero;stroke:none"
             d="m 118,-162 c 1.33334,0 3.33334,-0.66667 6,-2 2.66666,-1.33333 6.33333,-2.33333 11,-3 4.66667,-0.66667 8.66667,-1 12,-1 8.66667,0 16.66667,4.33333 24,13 7.33333,8.66667 12.66667,18.33333 16,29 6.66667,18 18,69 34,153 16,84 31.33333,164 46,240 14.66666,76 22,114.33334 22,115 v 3 h -47 c -31.33333,0 -48,0.66666 -50,2 -2.66667,2 -4,5.33334 -4,10 l 7,28 c 1.33333,3.33334 4,5 8,5 4,0 19.66667,0.33334 47,1 32,0 48,0.33334 48,1 0,1.33334 3,18 9,50 6,32 10,51.33331 12,58 24.66666,110 73.33331,165 146,165 24.66666,-1.33331 45,-8.66669 61,-22 16,-13.33331 24,-31 24,-53 0,-24 -7,-41.33331 -21,-52 -14,-10.66669 -28,-16.33331 -42,-17 -29.33334,0 -44,14 -44,42 0,12.66669 3.66666,23.66669 11,33 7.33334,9.33331 15.33334,16.33331 24,21 l 9,5 c -10.66666,4 -20.66666,6 -30,6 -8,0 -15.66666,-3.33331 -23,-10 -7.33334,-6.66669 -12.33334,-16 -15,-28 -4.66666,-19.33331 -10,-45.33331 -16,-78 -6,-32.66669 -11.33334,-60.33334 -16,-83 -4.66666,-22.66666 -7,-34.66666 -7,-36 0,-1.33334 18.33334,-2 55,-2 30,0 47.33334,-0.33334 52,-1 4.66666,-0.66666 8.33334,-2.66666 11,-6 0.66666,-2.66666 0,-8.33334 -2,-17 -2,-8.66666 -3.66666,-14 -5,-16 -1.33334,-3.33334 -4.33334,-5 -9,-5 -4.66666,0 -22.66666,-0.33334 -54,-1 H 372 L 349,263 C 317,97.666656 294.66666,-5.6666641 282,-47 c -18,-56.66667 -41.33333,-98.66667 -70,-126 -24.66667,-21.33333 -49,-32 -73,-32 -21.33334,0 -40.666664,6.33333 -58,19 -17.333336,12.66667 -26,30.66667 -26,54 0,24.66667 7,42.666664 21,54 14,11.333336 28,17 42,17 29.33333,0 44,-14 44,-42 0,-12.66666 -3.66667,-23.66666 -11,-33 -7.33333,-9.33333 -15.33333,-16.33333 -24,-21 z" /><path
             id="path7969"
             style="fill:none;stroke:#444444;stroke-width:1;stroke-linecap:butt;stroke-linejoin:miter;stroke-miterlimit:10;stroke-dasharray:none;stroke-opacity:1"
             d="m 118,-162 c 1.33334,0 3.33334,-0.66667 6,-2 2.66666,-1.33333 6.33333,-2.33333 11,-3 4.66667,-0.66667 8.66667,-1 12,-1 8.66667,0 16.66667,4.33333 24,13 7.33333,8.66667 12.66667,18.33333 16,29 6.66667,18 18,69 34,153 16,84 31.33333,164 46,240 14.66666,76 22,114.33334 22,115 v 3 h -47 c -31.33333,0 -48,0.66666 -50,2 -2.66667,2 -4,5.33334 -4,10 l 7,28 c 1.33333,3.33334 4,5 8,5 4,0 19.66667,0.33334 47,1 32,0 48,0.33334 48,1 0,1.33334 3,18 9,50 6,32 10,51.33331 12,58 24.66666,110 73.33331,165 146,165 24.66666,-1.33331 45,-8.66669 61,-22 16,-13.33331 24,-31 24,-53 0,-24 -7,-41.33331 -21,-52 -14,-10.66669 -28,-16.33331 -42,-17 -29.33334,0 -44,14 -44,42 0,12.66669 3.66666,23.66669 11,33 7.33334,9.33331 15.33334,16.33331 24,21 l 9,5 c -10.66666,4 -20.66666,6 -30,6 -8,0 -15.66666,-3.33331 -23,-10 -7.33334,-6.66669 -12.33334,-16 -15,-28 -4.66666,-19.33331 -10,-45.33331 -16,-78 -6,-32.66669 -11.33334,-60.33334 -16,-83 -4.66666,-22.66666 -7,-34.66666 -7,-36 0,-1.33334 18.33334,-2 55,-2 30,0 47.33334,-0.33334 52,-1 4.66666,-0.66666 8.33334,-2.66666 11,-6 0.66666,-2.66666 0,-8.33334 -2,-17 -2,-8.66666 -3.66666,-14 -5,-16 -1.33334,-3.33334 -4.33334,-5 -9,-5 -4.66666,0 -22.66666,-0.33334 -54,-1 H 372 L 349,263 C 317,97.666656 294.66666,-5.6666641 282,-47 c -18,-56.66667 -41.33333,-98.66667 -70,-126 -24.66667,-21.33333 -49,-32 -73,-32 -21.33334,0 -40.666664,6.33333 -58,19 -17.333336,12.66667 -26,30.66667 -26,54 0,24.66667 7,42.666664 21,54 14,11.333336 28,17 42,17 29.33333,0 44,-14 44,-42 0,-12.66666 -3.66667,-23.66666 -11,-33 -7.33333,-9.33333 -15.33333,-16.33333 -24,-21 z" /></g><g
           transform="matrix(0.02837508,0,0,-0.02839636,621.21106,867.35632)"
           id="g7971"><path
             id="path7973"
             style="fill:#444444;fill-opacity:1;fill-rule:nonzero;stroke:none"
             d="m 213,578 -13,-5 c -9.33333,-3.33331 -22.66667,-6.66669 -40,-10 -17.33333,-3.33331 -36.66666,-5.66669 -58,-7 H 83 v 46 h 19 c 31.33333,1.33331 60.33333,6.33331 87,15 26.66667,8.66669 45.33333,16.66669 56,24 10.66667,7.33331 20,14.66669 28,22 1.33334,2 5.33334,3 12,3 6,0 11.66666,-2 17,-6 V 361 l 1,-300 c 4.66666,-4.666668 8.66666,-7.666668 12,-9 3.33334,-1.333332 11.33334,-2.666668 24,-4 12.66666,-1.333332 33.33334,-2 62,-2 h 26 V 0 H 416 C 402,2 349,3 257,3 166.33333,3 114,2 100,0 H 88 v 46 h 26 c 14.66667,0 27.33333,0 38,0 10.66667,0 19,0.333332 25,1 6,0.666668 11.33333,1.666668 16,3 4.66667,1.333332 7.33333,2 8,2 0.66667,0 2.66667,1.666668 6,5 3.33333,3.333332 5.33333,4.666668 6,4 z" /><path
             id="path7975"
             style="fill:none;stroke:#444444;stroke-width:1;stroke-linecap:butt;stroke-linejoin:miter;stroke-miterlimit:10;stroke-dasharray:none;stroke-opacity:1"
             d="m 213,578 -13,-5 c -9.33333,-3.33331 -22.66667,-6.66669 -40,-10 -17.33333,-3.33331 -36.66666,-5.66669 -58,-7 H 83 v 46 h 19 c 31.33333,1.33331 60.33333,6.33331 87,15 26.66667,8.66669 45.33333,16.66669 56,24 10.66667,7.33331 20,14.66669 28,22 1.33334,2 5.33334,3 12,3 6,0 11.66666,-2 17,-6 V 361 l 1,-300 c 4.66666,-4.666668 8.66666,-7.666668 12,-9 3.33334,-1.333332 11.33334,-2.666668 24,-4 12.66666,-1.333332 33.33334,-2 62,-2 h 26 V 0 H 416 C 402,2 349,3 257,3 166.33333,3 114,2 100,0 H 88 v 46 h 26 c 14.66667,0 27.33333,0 38,0 10.66667,0 19,0.333332 25,1 6,0.666668 11.33333,1.666668 16,3 4.66667,1.333332 7.33333,2 8,2 0.66667,0 2.66667,1.666668 6,5 3.33333,3.333332 5.33333,4.666668 6,4 z" /></g><g
           transform="matrix(0.04013449,0,0,-0.04016458,639.43408,861.30786)"
           id="g7977"><path
             id="path7979"
             style="fill:#444444;fill-opacity:1;fill-rule:nonzero;stroke:none"
             d="m 94,250 c 0,46 3.333336,89.66666 10,131 6.66666,41.33334 14.33334,77 23,107 8.66667,30 21,59.33331 37,88 16,28.66669 28.66667,51 38,67 9.33333,16 23.33333,33.33331 42,52 18.66666,18.66669 29.66666,30 33,34 3.33334,4 11.66666,11 25,21 h 13 4 c 9.33334,0 14,-3 14,-9 0,-2 -5.66666,-9 -17,-21 -11.33334,-12 -25,-29.66669 -41,-53 -16,-23.33331 -32.33333,-52 -49,-86 -16.66667,-34 -30.66667,-80 -42,-138 -11.33333,-58 -17,-122.33331 -17,-193 0,-70.66667 5.66667,-134.66666 17,-192 11.33333,-57.33333588 25,-103.666664 41,-139 16,-35.33334 32.33334,-64 49,-86 16.66666,-22 30.66666,-39.66667 42,-53 11.33334,-13.33333 17,-20.33333 17,-21 0,-6 -5,-9 -15,-9 h -3 -13 l -28,24 C 211.33333,-169.33333 165.66667,-98.666672 137,-14 108.33333,70.666672 94,158.66666 94,250 Z" /><path
             id="path7981"
             style="fill:none;stroke:#444444;stroke-width:1;stroke-linecap:butt;stroke-linejoin:miter;stroke-miterlimit:10;stroke-dasharray:none;stroke-opacity:1"
             d="m 94,250 c 0,46 3.333336,89.66666 10,131 6.66666,41.33334 14.33334,77 23,107 8.66667,30 21,59.33331 37,88 16,28.66669 28.66667,51 38,67 9.33333,16 23.33333,33.33331 42,52 18.66666,18.66669 29.66666,30 33,34 3.33334,4 11.66666,11 25,21 h 13 4 c 9.33334,0 14,-3 14,-9 0,-2 -5.66666,-9 -17,-21 -11.33334,-12 -25,-29.66669 -41,-53 -16,-23.33331 -32.33333,-52 -49,-86 -16.66667,-34 -30.66667,-80 -42,-138 -11.33333,-58 -17,-122.33331 -17,-193 0,-70.66667 5.66667,-134.66666 17,-192 11.33333,-57.33333588 25,-103.666664 41,-139 16,-35.33334 32.33334,-64 49,-86 16.66666,-22 30.66666,-39.66667 42,-53 11.33334,-13.33333 17,-20.33333 17,-21 0,-6 -5,-9 -15,-9 h -3 -13 l -28,24 C 211.33333,-169.33333 165.66667,-98.666672 137,-14 108.33333,70.666672 94,158.66666 94,250 Z" /></g><g
           transform="matrix(0.04013449,0,0,-0.04016458,655.04639,861.30786)"
           id="g7983"><path
             id="path7985"
             style="fill:#444444;fill-opacity:1;fill-rule:nonzero;stroke:none"
             d="m 52,289 c 4.666668,28 22.666664,60.33334 54,97 31.33333,36.66666 70,55.33334 116,56 23.33333,0 44.66666,-6 64,-18 19.33334,-12 33.66666,-27 43,-45 28,42 61.66666,63 101,63 24.66666,0 46,-7.33334 64,-22 18,-14.66666 27.33331,-34.33334 28,-59 0,-19.33334 -4.66669,-35 -14,-47 -9.33334,-12 -18.33334,-19.33334 -27,-22 -8.66666,-2.66666 -16.33334,-4 -23,-4 -12.66666,0 -23,3.66666 -31,11 -8,7.33334 -12,17 -12,29 0,30.66666 16.66666,51.66666 50,63 -7.33334,8.66666 -20.66666,13 -40,13 -8.66666,0 -15,-0.66666 -19,-2 -25.33334,-10.66666 -44,-32.66666 -56,-66 -40,-147.33334 -60,-233.33333 -60,-258 0,-18.666668 5.33334,-32 16,-40 10.66666,-8 22.33334,-12 35,-12 24.66666,0 49,11 73,33 24,22 40.33334,49 49,81 2,6.66667 4,10.33333 6,11 2,0.66667 7.33334,1.33333 16,2 h 4 c 10,0 15,-2.66667 15,-8 0,-0.66667 -0.66666,-4.33333 -2,-11 C 491.33334,96 470.66666,62.333336 440,33 409.33334,3.666666 373.66666,-11 333,-11 286.33334,-11 251,10 227,52 199.66667,10.666664 168.33334,-10 133,-10 h -6 C 94.333328,-10 71,-1.333334 57,16 43,33.333336 35.666668,51.666664 35,71 c 0,21.333336 6.333332,38.66666 19,52 12.666664,13.33333 27.666664,20 45,20 28.66667,0 43,-14 43,-42 C 142,87.666664 138,76 130,66 122,56 114.33334,49.333332 107,46 99.666664,42.666668 95.333336,41 94,41 l -3,-1 c 0,-0.666668 2,-2 6,-4 4,-2 9.33334,-4.333334 16,-7 6.66666,-2.666666 13,-3.666666 19,-3 24,0 44.66667,15 62,45 6,10.666664 13.66667,33.33333 23,68 9.33333,34.66667 18.66667,70.66666 28,108 9.33333,37.33334 14.66666,59.33334 16,66 3.33334,18 5,31 5,39 0,18.66666 -5,32 -15,40 -10,8 -21.33333,12 -34,12 -26.66667,0 -51.66667,-10.66666 -75,-32 -23.33334,-21.33334 -39.66666,-48.66666 -49,-82 -1.333336,-6 -3,-9.33334 -5,-10 -2,-0.66666 -7.333336,-1.33334 -16,-2 H 58 c -4,4 -6,7.66666 -6,11 z" /><path
             id="path7987"
             style="fill:none;stroke:#444444;stroke-width:1;stroke-linecap:butt;stroke-linejoin:miter;stroke-miterlimit:10;stroke-dasharray:none;stroke-opacity:1"
             d="m 52,289 c 4.666668,28 22.666664,60.33334 54,97 31.33333,36.66666 70,55.33334 116,56 23.33333,0 44.66666,-6 64,-18 19.33334,-12 33.66666,-27 43,-45 28,42 61.66666,63 101,63 24.66666,0 46,-7.33334 64,-22 18,-14.66666 27.33331,-34.33334 28,-59 0,-19.33334 -4.66669,-35 -14,-47 -9.33334,-12 -18.33334,-19.33334 -27,-22 -8.66666,-2.66666 -16.33334,-4 -23,-4 -12.66666,0 -23,3.66666 -31,11 -8,7.33334 -12,17 -12,29 0,30.66666 16.66666,51.66666 50,63 -7.33334,8.66666 -20.66666,13 -40,13 -8.66666,0 -15,-0.66666 -19,-2 -25.33334,-10.66666 -44,-32.66666 -56,-66 -40,-147.33334 -60,-233.33333 -60,-258 0,-18.666668 5.33334,-32 16,-40 10.66666,-8 22.33334,-12 35,-12 24.66666,0 49,11 73,33 24,22 40.33334,49 49,81 2,6.66667 4,10.33333 6,11 2,0.66667 7.33334,1.33333 16,2 h 4 c 10,0 15,-2.66667 15,-8 0,-0.66667 -0.66666,-4.33333 -2,-11 C 491.33334,96 470.66666,62.333336 440,33 409.33334,3.666666 373.66666,-11 333,-11 286.33334,-11 251,10 227,52 199.66667,10.666664 168.33334,-10 133,-10 h -6 C 94.333328,-10 71,-1.333334 57,16 43,33.333336 35.666668,51.666664 35,71 c 0,21.333336 6.333332,38.66666 19,52 12.666664,13.33333 27.666664,20 45,20 28.66667,0 43,-14 43,-42 C 142,87.666664 138,76 130,66 122,56 114.33334,49.333332 107,46 99.666664,42.666668 95.333336,41 94,41 l -3,-1 c 0,-0.666668 2,-2 6,-4 4,-2 9.33334,-4.333334 16,-7 6.66666,-2.666666 13,-3.666666 19,-3 24,0 44.66667,15 62,45 6,10.666664 13.66667,33.33333 23,68 9.33333,34.66667 18.66667,70.66666 28,108 9.33333,37.33334 14.66666,59.33334 16,66 3.33334,18 5,31 5,39 0,18.66666 -5,32 -15,40 -10,8 -21.33333,12 -34,12 -26.66667,0 -51.66667,-10.66666 -75,-32 -23.33334,-21.33334 -39.66666,-48.66666 -49,-82 -1.333336,-6 -3,-9.33334 -5,-10 -2,-0.66666 -7.333336,-1.33334 -16,-2 H 58 c -4,4 -6,7.66666 -6,11 z" /></g><g
           transform="matrix(0.04013449,0,0,-0.04016458,678.04346,861.30786)"
           id="g7989"><path
             id="path7991"
             style="fill:#444444;fill-opacity:1;fill-rule:nonzero;stroke:none"
             d="m 60,749 4,1 c 3.333336,0 6.666664,0 10,0 h 12 l 28,-24 c 62.66667,-56.66669 108.33333,-127.33331 137,-212 28.66666,-84.66669 43,-172.66666 43,-264 0,-45.33334 -3.33334,-89 -10,-131 -6.66666,-42 -14.33334,-77.666664 -23,-107 -8.66667,-29.333334 -21,-58.666664 -37,-88 -16,-29.33334 -28.66667,-51.66666 -38,-67 -9.33333,-15.33333 -23,-32.33333 -41,-51 -18,-18.66667 -28.66666,-29.66667 -32,-33 -3.33334,-3.33333 -11,-9.66667 -23,-19 -2,-2 -3.333336,-3.33333 -4,-4 H 74 c -5.333336,0 -9,0 -11,0 -2,0 -3.666668,1 -5,3 -1.333332,2 -2.333332,5 -3,9 0.666668,0.66667 4.333332,5 11,13 103.33334,107.33334 155,265.666656 155,475 0,209.33334 -51.66666,367.66669 -155,475 -6.666668,8 -10.333332,12.33331 -11,13 0,5.33331 1.666668,9 5,11 z" /><path
             id="path7993"
             style="fill:none;stroke:#444444;stroke-width:1;stroke-linecap:butt;stroke-linejoin:miter;stroke-miterlimit:10;stroke-dasharray:none;stroke-opacity:1"
             d="m 60,749 4,1 c 3.333336,0 6.666664,0 10,0 h 12 l 28,-24 c 62.66667,-56.66669 108.33333,-127.33331 137,-212 28.66666,-84.66669 43,-172.66666 43,-264 0,-45.33334 -3.33334,-89 -10,-131 -6.66666,-42 -14.33334,-77.666664 -23,-107 -8.66667,-29.333334 -21,-58.666664 -37,-88 -16,-29.33334 -28.66667,-51.66666 -38,-67 -9.33333,-15.33333 -23,-32.33333 -41,-51 -18,-18.66667 -28.66666,-29.66667 -32,-33 -3.33334,-3.33333 -11,-9.66667 -23,-19 -2,-2 -3.333336,-3.33333 -4,-4 H 74 c -5.333336,0 -9,0 -11,0 -2,0 -3.666668,1 -5,3 -1.333332,2 -2.333332,5 -3,9 0.666668,0.66667 4.333332,5 11,13 103.33334,107.33334 155,265.666656 155,475 0,209.33334 -51.66666,367.66669 -155,475 -6.666668,8 -10.333332,12.33331 -11,13 0,5.33331 1.666668,9 5,11 z" /></g><g
           transform="matrix(0,-0.04016458,-0.04013449,0,49.139782,449.22827)"
           id="g7995"><path
             id="path7997"
             style="fill:#444444;fill-opacity:1;fill-rule:nonzero;stroke:none"
             d="m 118,-162 c 1.33334,0 3.33334,-0.66667 6,-2 2.66666,-1.33333 6.33333,-2.33333 11,-3 4.66667,-0.66667 8.66667,-1 12,-1 8.66667,0 16.66667,4.33333 24,13 7.33333,8.66667 12.66667,18.33333 16,29 6.66667,18 18,69 34,153 16,84 31.33333,164 46,240 14.66666,76 22,114.33334 22,115 v 3 h -47 c -31.33333,0 -48,0.66666 -50,2 -2.66667,2 -4,5.33334 -4,10 l 7,28 c 1.33333,3.33334 4,5 8,5 4,0 19.66667,0.33334 47,1 32,0 48,0.33334 48,1 0,1.33334 3,18 9,50 6,32 10,51.33331 12,58 24.66666,110 73.33331,165 146,165 24.66666,-1.33331 45,-8.66669 61,-22 16,-13.33331 24,-31 24,-53 0,-24 -7,-41.33331 -21,-52 -14,-10.66669 -28,-16.33331 -42,-17 -29.33334,0 -44,14 -44,42 0,12.66669 3.66666,23.66669 11,33 7.33334,9.33331 15.33334,16.33331 24,21 l 9,5 c -10.66666,4 -20.66666,6 -30,6 -8,0 -15.66666,-3.33331 -23,-10 -7.33334,-6.66669 -12.33334,-16 -15,-28 -4.66666,-19.33331 -10,-45.33331 -16,-78 -6,-32.66669 -11.33334,-60.33334 -16,-83 -4.66666,-22.66666 -7,-34.66666 -7,-36 0,-1.33334 18.33334,-2 55,-2 30,0 47.33334,-0.33334 52,-1 4.66666,-0.66666 8.33334,-2.66666 11,-6 0.66666,-2.66666 0,-8.33334 -2,-17 -2,-8.66666 -3.66666,-14 -5,-16 -1.33334,-3.33334 -4.33334,-5 -9,-5 -4.66666,0 -22.66666,-0.33334 -54,-1 H 372 L 349,263 C 317,97.666656 294.66666,-5.6666641 282,-47 c -18,-56.66667 -41.33333,-98.66667 -70,-126 -24.66667,-21.33333 -49,-32 -73,-32 -21.33334,0 -40.666664,6.33333 -58,19 -17.333336,12.66667 -26,30.66667 -26,54 0,24.66667 7,42.666664 21,54 14,11.333336 28,17 42,17 29.33333,0 44,-14 44,-42 0,-12.66666 -3.66667,-23.66666 -11,-33 -7.33333,-9.33333 -15.33333,-16.33333 -24,-21 z" /><path
             id="path7999"
             style="fill:none;stroke:#444444;stroke-width:1;stroke-linecap:butt;stroke-linejoin:miter;stroke-miterlimit:10;stroke-dasharray:none;stroke-opacity:1"
             d="m 118,-162 c 1.33334,0 3.33334,-0.66667 6,-2 2.66666,-1.33333 6.33333,-2.33333 11,-3 4.66667,-0.66667 8.66667,-1 12,-1 8.66667,0 16.66667,4.33333 24,13 7.33333,8.66667 12.66667,18.33333 16,29 6.66667,18 18,69 34,153 16,84 31.33333,164 46,240 14.66666,76 22,114.33334 22,115 v 3 h -47 c -31.33333,0 -48,0.66666 -50,2 -2.66667,2 -4,5.33334 -4,10 l 7,28 c 1.33333,3.33334 4,5 8,5 4,0 19.66667,0.33334 47,1 32,0 48,0.33334 48,1 0,1.33334 3,18 9,50 6,32 10,51.33331 12,58 24.66666,110 73.33331,165 146,165 24.66666,-1.33331 45,-8.66669 61,-22 16,-13.33331 24,-31 24,-53 0,-24 -7,-41.33331 -21,-52 -14,-10.66669 -28,-16.33331 -42,-17 -29.33334,0 -44,14 -44,42 0,12.66669 3.66666,23.66669 11,33 7.33334,9.33331 15.33334,16.33331 24,21 l 9,5 c -10.66666,4 -20.66666,6 -30,6 -8,0 -15.66666,-3.33331 -23,-10 -7.33334,-6.66669 -12.33334,-16 -15,-28 -4.66666,-19.33331 -10,-45.33331 -16,-78 -6,-32.66669 -11.33334,-60.33334 -16,-83 -4.66666,-22.66666 -7,-34.66666 -7,-36 0,-1.33334 18.33334,-2 55,-2 30,0 47.33334,-0.33334 52,-1 4.66666,-0.66666 8.33334,-2.66666 11,-6 0.66666,-2.66666 0,-8.33334 -2,-17 -2,-8.66666 -3.66666,-14 -5,-16 -1.33334,-3.33334 -4.33334,-5 -9,-5 -4.66666,0 -22.66666,-0.33334 -54,-1 H 372 L 349,263 C 317,97.666656 294.66666,-5.6666641 282,-47 c -18,-56.66667 -41.33333,-98.66667 -70,-126 -24.66667,-21.33333 -49,-32 -73,-32 -21.33334,0 -40.666664,6.33333 -58,19 -17.333336,12.66667 -26,30.66667 -26,54 0,24.66667 7,42.666664 21,54 14,11.333336 28,17 42,17 29.33333,0 44,-14 44,-42 0,-12.66666 -3.66667,-23.66666 -11,-33 -7.33333,-9.33333 -15.33333,-16.33333 -24,-21 z" /></g><g
           transform="matrix(0,-0.02839636,-0.02837508,0,55.183674,429.54959)"
           id="g8001"><path
             id="path8003"
             style="fill:#444444;fill-opacity:1;fill-rule:nonzero;stroke:none"
             d="m 109,429 c -18,0 -32.333336,6 -43,18 -10.666668,12 -16,26.66666 -16,44 0,47.33331 17.666664,88.33331 53,123 35.33334,34.66669 79.33333,52 132,52 60.66666,0 111.33334,-18.66669 152,-56 40.66666,-37.33331 61.33334,-85.66669 62,-145 0,-28.66666 -6.66666,-56 -20,-82 -13.33334,-26 -29.33334,-48.66666 -48,-68 -18.66666,-19.33334 -45.33334,-44 -80,-74 -24,-20.66667 -57.33333,-51.33333 -100,-92 l -59,-56 76,-1 c 104.66669,0 160.33334,1.666664 167,5 4.66666,1.333336 12.66666,31 24,89 v 3 h 40 v -3 C 448.33334,184 444,153.66667 436,95 428,36.333332 423,5.666667 421,3 V 0 H 50 v 19 12 c 0,4.666668 2,9.666668 6,15 4,5.333332 14,17 30,35 19.33334,21.33334 36,40 50,56 6,6.66667 17.33333,19 34,37 16.66667,18 28,30.33333 34,37 6,6.66667 15.66667,17.66667 29,33 13.33333,15.33334 22.66667,26.66666 28,34 5.33334,7.33334 13,17.33334 23,30 10,12.66666 17,23.33334 21,32 4,8.66666 9,18.33334 15,29 6,10.66666 10.33334,21.33334 13,32 2.66666,10.66666 5,20.66666 7,30 2,9.33334 3,20.33334 3,33 0,42 -11.33334,78.33331 -34,109 -22.66666,30.66669 -55,46 -97,46 -22,0 -41.33333,-5.66669 -58,-17 -16.66667,-11.33331 -28.33334,-22.33331 -35,-33 -6.66666,-10.66669 -10,-17 -10,-19 0,-0.66669 1.66666,-1 5,-1 12,0 24.33333,-4.66669 37,-14 12.66667,-9.33331 19,-24.66666 19,-46 0,-16.66666 -5.33333,-30.66666 -16,-42 -10.66667,-11.33334 -25.66667,-17.33334 -45,-18 z" /><path
             id="path8005"
             style="fill:none;stroke:#444444;stroke-width:1;stroke-linecap:butt;stroke-linejoin:miter;stroke-miterlimit:10;stroke-dasharray:none;stroke-opacity:1"
             d="m 109,429 c -18,0 -32.333336,6 -43,18 -10.666668,12 -16,26.66666 -16,44 0,47.33331 17.666664,88.33331 53,123 35.33334,34.66669 79.33333,52 132,52 60.66666,0 111.33334,-18.66669 152,-56 40.66666,-37.33331 61.33334,-85.66669 62,-145 0,-28.66666 -6.66666,-56 -20,-82 -13.33334,-26 -29.33334,-48.66666 -48,-68 -18.66666,-19.33334 -45.33334,-44 -80,-74 -24,-20.66667 -57.33333,-51.33333 -100,-92 l -59,-56 76,-1 c 104.66669,0 160.33334,1.666664 167,5 4.66666,1.333336 12.66666,31 24,89 v 3 h 40 v -3 C 448.33334,184 444,153.66667 436,95 428,36.333332 423,5.666667 421,3 V 0 H 50 v 19 12 c 0,4.666668 2,9.666668 6,15 4,5.333332 14,17 30,35 19.33334,21.33334 36,40 50,56 6,6.66667 17.33333,19 34,37 16.66667,18 28,30.33333 34,37 6,6.66667 15.66667,17.66667 29,33 13.33333,15.33334 22.66667,26.66666 28,34 5.33334,7.33334 13,17.33334 23,30 10,12.66666 17,23.33334 21,32 4,8.66666 9,18.33334 15,29 6,10.66666 10.33334,21.33334 13,32 2.66666,10.66666 5,20.66666 7,30 2,9.33334 3,20.33334 3,33 0,42 -11.33334,78.33331 -34,109 -22.66666,30.66669 -55,46 -97,46 -22,0 -41.33333,-5.66669 -58,-17 -16.66667,-11.33331 -28.33334,-22.33331 -35,-33 -6.66666,-10.66669 -10,-17 -10,-19 0,-0.66669 1.66666,-1 5,-1 12,0 24.33333,-4.66669 37,-14 12.66667,-9.33331 19,-24.66666 19,-46 0,-16.66666 -5.33333,-30.66666 -16,-42 -10.66667,-11.33334 -25.66667,-17.33334 -45,-18 z" /></g><g
           transform="matrix(0,-0.04016458,-0.04013449,0,49.139782,411.3129)"
           id="g8007"><path
             id="path8009"
             style="fill:#444444;fill-opacity:1;fill-rule:nonzero;stroke:none"
             d="m 94,250 c 0,46 3.333336,89.66666 10,131 6.66666,41.33334 14.33334,77 23,107 8.66667,30 21,59.33331 37,88 16,28.66669 28.66667,51 38,67 9.33333,16 23.33333,33.33331 42,52 18.66666,18.66669 29.66666,30 33,34 3.33334,4 11.66666,11 25,21 h 13 4 c 9.33334,0 14,-3 14,-9 0,-2 -5.66666,-9 -17,-21 -11.33334,-12 -25,-29.66669 -41,-53 -16,-23.33331 -32.33333,-52 -49,-86 -16.66667,-34 -30.66667,-80 -42,-138 -11.33333,-58 -17,-122.33331 -17,-193 0,-70.66667 5.66667,-134.66666 17,-192 11.33333,-57.33333588 25,-103.666664 41,-139 16,-35.33334 32.33334,-64 49,-86 16.66666,-22 30.66666,-39.66667 42,-53 11.33334,-13.33333 17,-20.33333 17,-21 0,-6 -5,-9 -15,-9 h -3 -13 l -28,24 C 211.33333,-169.33333 165.66667,-98.666672 137,-14 108.33333,70.666672 94,158.66666 94,250 Z" /><path
             id="path8011"
             style="fill:none;stroke:#444444;stroke-width:1;stroke-linecap:butt;stroke-linejoin:miter;stroke-miterlimit:10;stroke-dasharray:none;stroke-opacity:1"
             d="m 94,250 c 0,46 3.333336,89.66666 10,131 6.66666,41.33334 14.33334,77 23,107 8.66667,30 21,59.33331 37,88 16,28.66669 28.66667,51 38,67 9.33333,16 23.33333,33.33331 42,52 18.66666,18.66669 29.66666,30 33,34 3.33334,4 11.66666,11 25,21 h 13 4 c 9.33334,0 14,-3 14,-9 0,-2 -5.66666,-9 -17,-21 -11.33334,-12 -25,-29.66669 -41,-53 -16,-23.33331 -32.33333,-52 -49,-86 -16.66667,-34 -30.66667,-80 -42,-138 -11.33333,-58 -17,-122.33331 -17,-193 0,-70.66667 5.66667,-134.66666 17,-192 11.33333,-57.33333588 25,-103.666664 41,-139 16,-35.33334 32.33334,-64 49,-86 16.66666,-22 30.66666,-39.66667 42,-53 11.33334,-13.33333 17,-20.33333 17,-21 0,-6 -5,-9 -15,-9 h -3 -13 l -28,24 C 211.33333,-169.33333 165.66667,-98.666672 137,-14 108.33333,70.666672 94,158.66666 94,250 Z" /></g><g
           transform="matrix(0,-0.04016458,-0.04013449,0,49.139782,395.6889)"
           id="g8013"><path
             id="path8015"
             style="fill:#444444;fill-opacity:1;fill-rule:nonzero;stroke:none"
             d="m 52,289 c 4.666668,28 22.666664,60.33334 54,97 31.33333,36.66666 70,55.33334 116,56 23.33333,0 44.66666,-6 64,-18 19.33334,-12 33.66666,-27 43,-45 28,42 61.66666,63 101,63 24.66666,0 46,-7.33334 64,-22 18,-14.66666 27.33331,-34.33334 28,-59 0,-19.33334 -4.66669,-35 -14,-47 -9.33334,-12 -18.33334,-19.33334 -27,-22 -8.66666,-2.66666 -16.33334,-4 -23,-4 -12.66666,0 -23,3.66666 -31,11 -8,7.33334 -12,17 -12,29 0,30.66666 16.66666,51.66666 50,63 -7.33334,8.66666 -20.66666,13 -40,13 -8.66666,0 -15,-0.66666 -19,-2 -25.33334,-10.66666 -44,-32.66666 -56,-66 -40,-147.33334 -60,-233.33333 -60,-258 0,-18.666668 5.33334,-32 16,-40 10.66666,-8 22.33334,-12 35,-12 24.66666,0 49,11 73,33 24,22 40.33334,49 49,81 2,6.66667 4,10.33333 6,11 2,0.66667 7.33334,1.33333 16,2 h 4 c 10,0 15,-2.66667 15,-8 0,-0.66667 -0.66666,-4.33333 -2,-11 C 491.33334,96 470.66666,62.333336 440,33 409.33334,3.666666 373.66666,-11 333,-11 286.33334,-11 251,10 227,52 199.66667,10.666664 168.33334,-10 133,-10 h -6 C 94.333328,-10 71,-1.333334 57,16 43,33.333336 35.666668,51.666664 35,71 c 0,21.333336 6.333332,38.66666 19,52 12.666664,13.33333 27.666664,20 45,20 28.66667,0 43,-14 43,-42 C 142,87.666664 138,76 130,66 122,56 114.33334,49.333332 107,46 99.666664,42.666668 95.333336,41 94,41 l -3,-1 c 0,-0.666668 2,-2 6,-4 4,-2 9.33334,-4.333334 16,-7 6.66666,-2.666666 13,-3.666666 19,-3 24,0 44.66667,15 62,45 6,10.666664 13.66667,33.33333 23,68 9.33333,34.66667 18.66667,70.66666 28,108 9.33333,37.33334 14.66666,59.33334 16,66 3.33334,18 5,31 5,39 0,18.66666 -5,32 -15,40 -10,8 -21.33333,12 -34,12 -26.66667,0 -51.66667,-10.66666 -75,-32 -23.33334,-21.33334 -39.66666,-48.66666 -49,-82 -1.333336,-6 -3,-9.33334 -5,-10 -2,-0.66666 -7.333336,-1.33334 -16,-2 H 58 c -4,4 -6,7.66666 -6,11 z" /><path
             id="path8017"
             style="fill:none;stroke:#444444;stroke-width:1;stroke-linecap:butt;stroke-linejoin:miter;stroke-miterlimit:10;stroke-dasharray:none;stroke-opacity:1"
             d="m 52,289 c 4.666668,28 22.666664,60.33334 54,97 31.33333,36.66666 70,55.33334 116,56 23.33333,0 44.66666,-6 64,-18 19.33334,-12 33.66666,-27 43,-45 28,42 61.66666,63 101,63 24.66666,0 46,-7.33334 64,-22 18,-14.66666 27.33331,-34.33334 28,-59 0,-19.33334 -4.66669,-35 -14,-47 -9.33334,-12 -18.33334,-19.33334 -27,-22 -8.66666,-2.66666 -16.33334,-4 -23,-4 -12.66666,0 -23,3.66666 -31,11 -8,7.33334 -12,17 -12,29 0,30.66666 16.66666,51.66666 50,63 -7.33334,8.66666 -20.66666,13 -40,13 -8.66666,0 -15,-0.66666 -19,-2 -25.33334,-10.66666 -44,-32.66666 -56,-66 -40,-147.33334 -60,-233.33333 -60,-258 0,-18.666668 5.33334,-32 16,-40 10.66666,-8 22.33334,-12 35,-12 24.66666,0 49,11 73,33 24,22 40.33334,49 49,81 2,6.66667 4,10.33333 6,11 2,0.66667 7.33334,1.33333 16,2 h 4 c 10,0 15,-2.66667 15,-8 0,-0.66667 -0.66666,-4.33333 -2,-11 C 491.33334,96 470.66666,62.333336 440,33 409.33334,3.666666 373.66666,-11 333,-11 286.33334,-11 251,10 227,52 199.66667,10.666664 168.33334,-10 133,-10 h -6 C 94.333328,-10 71,-1.333334 57,16 43,33.333336 35.666668,51.666664 35,71 c 0,21.333336 6.333332,38.66666 19,52 12.666664,13.33333 27.666664,20 45,20 28.66667,0 43,-14 43,-42 C 142,87.666664 138,76 130,66 122,56 114.33334,49.333332 107,46 99.666664,42.666668 95.333336,41 94,41 l -3,-1 c 0,-0.666668 2,-2 6,-4 4,-2 9.33334,-4.333334 16,-7 6.66666,-2.666666 13,-3.666666 19,-3 24,0 44.66667,15 62,45 6,10.666664 13.66667,33.33333 23,68 9.33333,34.66667 18.66667,70.66666 28,108 9.33333,37.33334 14.66666,59.33334 16,66 3.33334,18 5,31 5,39 0,18.66666 -5,32 -15,40 -10,8 -21.33333,12 -34,12 -26.66667,0 -51.66667,-10.66666 -75,-32 -23.33334,-21.33334 -39.66666,-48.66666 -49,-82 -1.333336,-6 -3,-9.33334 -5,-10 -2,-0.66666 -7.333336,-1.33334 -16,-2 H 58 c -4,4 -6,7.66666 -6,11 z" /></g><g
           transform="matrix(0,-0.04016458,-0.04013449,0,49.139782,372.67459)"
           id="g8019"><path
             id="path8021"
             style="fill:#444444;fill-opacity:1;fill-rule:nonzero;stroke:none"
             d="m 60,749 4,1 c 3.333336,0 6.666664,0 10,0 h 12 l 28,-24 c 62.66667,-56.66669 108.33333,-127.33331 137,-212 28.66666,-84.66669 43,-172.66666 43,-264 0,-45.33334 -3.33334,-89 -10,-131 -6.66666,-42 -14.33334,-77.666664 -23,-107 -8.66667,-29.333334 -21,-58.666664 -37,-88 -16,-29.33334 -28.66667,-51.66666 -38,-67 -9.33333,-15.33333 -23,-32.33333 -41,-51 -18,-18.66667 -28.66666,-29.66667 -32,-33 -3.33334,-3.33333 -11,-9.66667 -23,-19 -2,-2 -3.333336,-3.33333 -4,-4 H 74 c -5.333336,0 -9,0 -11,0 -2,0 -3.666668,1 -5,3 -1.333332,2 -2.333332,5 -3,9 0.666668,0.66667 4.333332,5 11,13 103.33334,107.33334 155,265.666656 155,475 0,209.33334 -51.66666,367.66669 -155,475 -6.666668,8 -10.333332,12.33331 -11,13 0,5.33331 1.666668,9 5,11 z" /><path
             id="path8023"
             style="fill:none;stroke:#444444;stroke-width:1;stroke-linecap:butt;stroke-linejoin:miter;stroke-miterlimit:10;stroke-dasharray:none;stroke-opacity:1"
             d="m 60,749 4,1 c 3.333336,0 6.666664,0 10,0 h 12 l 28,-24 c 62.66667,-56.66669 108.33333,-127.33331 137,-212 28.66666,-84.66669 43,-172.66666 43,-264 0,-45.33334 -3.33334,-89 -10,-131 -6.66666,-42 -14.33334,-77.666664 -23,-107 -8.66667,-29.333334 -21,-58.666664 -37,-88 -16,-29.33334 -28.66667,-51.66666 -38,-67 -9.33333,-15.33333 -23,-32.33333 -41,-51 -18,-18.66667 -28.66666,-29.66667 -32,-33 -3.33334,-3.33333 -11,-9.66667 -23,-19 -2,-2 -3.333336,-3.33333 -4,-4 H 74 c -5.333336,0 -9,0 -11,0 -2,0 -3.666668,1 -5,3 -1.333332,2 -2.333332,5 -3,9 0.666668,0.66667 4.333332,5 11,13 103.33334,107.33334 155,265.666656 155,475 0,209.33334 -51.66666,367.66669 -155,475 -6.666668,8 -10.333332,12.33331 -11,13 0,5.33331 1.666668,9 5,11 z" /></g></g></g><g
       id="g8025"><g
         clip-path="url(#clipPath8031)"
         id="g8027"><g
           transform="scale(2.9954393)"
           id="g8033"><text
             id="text8037"
             style="font-variant:normal;font-weight:normal;font-size:8px;font-family:Helvetica;-inkscape-font-specification:Helvetica;writing-mode:lr-tb;fill:#333333;fill-opacity:1;fill-rule:nonzero;stroke:none"
             transform="translate(312.26563,16)"><tspan
               id="tspan8035"
               y="0"
               x="0 5.7773438 10.226562 12.449219 16.898438 19.5625 24.011719 28.460938 32.460938 36.910156 39.132812 43.582031 48.03125 49.808594 54.257812">Reference point</tspan></text>
</g><g
           transform="matrix(2.9954393,0,0,2.9954393,1.4977196,1.4977196)"
           id="g8039"><path
             id="path8041"
             style="fill:#f4f4f4;fill-opacity:1;fill-rule:nonzero;stroke:none"
             d="M 78.139999,21 H 374.64 V 33 H 78.139999 Z" /><path
             id="path8043"
             style="fill:#f4f4f4;fill-opacity:1;fill-rule:nonzero;stroke:none"
             d="M 99.639999,21 H 374.64 V 144 H 99.639999 Z" /><path
             id="path8045"
             style="fill:#f4f4f4;fill-opacity:1;fill-rule:nonzero;stroke:none"
             d="M 248.64,21 H 374.64001 V 211.5 H 248.64 Z" /><path
             id="path8047"
             style="fill:#f4f4f4;fill-opacity:1;fill-rule:nonzero;stroke:none"
             d="m 355.64001,21 h 19 v 212.5 h -19 z" /><path
             id="path8049"
             style="fill:#000000;fill-opacity:1;fill-rule:nonzero;stroke:none"
             d="m 80.139999,20.5 h 1 v 1 h -1 z m 2,0 h 1 v 1 h -1 z m 2,0 h 1 v 1 h -1 z m 2,0 h 1 v 1 h -1 z m 2,0 h 1 v 1 h -1 z m 2,0 h 1 v 1 h -1 z m 2,0 h 1 v 1 h -1 z m 2,0 h 1 v 1 h -1 z m 2,0 h 1 v 1 h -1 z m 2,0 h 1 v 1 h -1 z m 2.000001,0 h 1 v 1 h -1 z m 2,0 h 1 v 1 h -1 z m 2,0 h 1 v 1 h -1 z m 2,0 h 1 v 1 h -1 z m 2,0 h 1 v 1 h -1 z m 2,0 h 1 v 1 h -1 z m 2,0 h 1 v 1 h -1 z m 2,0 h 1 v 1 h -1 z m 2,0 h 1 v 1 h -1 z m 2,0 h 1 v 1 h -1 z m 2,0 h 1 v 1 h -1 z m 2,0 h 1 v 1 h -1 z m 2,0 h 1 v 1 h -1 z m 2,0 h 1 v 1 h -1 z m 2,0 h 1 v 1 h -1 z m 2,0 h 1 v 1 h -1 z m 2,0 h 1 v 1 h -1 z m 2,0 h 1 v 1 h -1 z m 2,0 h 1 v 1 h -1 z m 2,0 h 1 v 1 h -1 z m 2,0 h 1 v 1 h -1 z m 2,0 h 1 v 1 h -1 z m 2,0 h 1 v 1 h -1 z m 2,0 h 1 v 1 h -1 z m 2,0 h 1 v 1 h -1 z m 2,0 h 1 v 1 h -1 z m 2,0 h 1 v 1 h -1 z m 2,0 h 1 v 1 h -1 z m 2,0 h 1 v 1 h -1 z m 2,0 h 1 v 1 h -1 z m 2,0 h 1 v 1 h -1 z m 2,0 h 1 v 1 h -1 z m 2,0 h 1 v 1 h -1 z m 2,0 h 1 v 1 h -1 z m 2,0 h 1 v 1 h -1 z m 2,0 h 1 v 1 h -1 z m 2,0 h 0.99998 v 1 H 172.14 Z m 2,0 h 1 v 1 h -1 z m 2,0 h 1 v 1 h -1 z m 1.99998,0 H 179.14 v 1 h -1.00002 z m 2.00002,0 h 1 v 1 h -1 z m 2,0 h 0.99998 v 1 H 182.14 Z m 2,0 h 1 v 1 h -1 z m 2,0 h 1 v 1 h -1 z m 2.00001,0 H 189.14 v 1 h -0.99999 z m 1.99999,0 h 1 v 1 h -1 z m 2,0 h 1.00001 v 1 H 192.14 Z m 2,0 h 1 v 1 h -1 z m 2,0 h 1 v 1 h -1 z m 2.00001,0 H 199.14 v 1 h -0.99999 z m 1.99999,0 h 1 v 1 h -1 z m 2,0 h 1 v 1 h -1 z m 2,0 h 1 v 1 h -1 z m 2,0 h 1 v 1 h -1 z m 2,0 h 1 v 1 h -1 z m 2,0 h 1 v 1 h -1 z m 2,0 h 1 v 1 h -1 z m 2,0 h 1 v 1 h -1 z m 2,0 h 1 v 1 h -1 z m 2,0 h 1 v 1 h -1 z m 2,0 h 1 v 1 h -1 z m 2,0 h 1 v 1 h -1 z m 2,0 h 1 v 1 h -1 z m 2,0 h 1 v 1 h -1 z m 2,0 h 1.00001 v 1 H 228.14 Z m 2,0 h 1 v 1 h -1 z m 2,0 h 1 v 1 h -1 z m 2,0 h 1 v 1 h -1 z m 2,0 h 1 v 1 h -1 z m 2,0 h 1 v 1 h -1 z m 2,0 h 1 v 1 h -1 z m 2,0 h 1 v 1 h -1 z m 2,0 h 1 v 1 h -1 z m 2,0 h 1 v 1 h -1 z m 2,0 h 1 v 1 h -1 z m 2,0 h 1 v 1 h -1 z m 2,0 h 1 v 1 h -1 z m 2,0 h 1 v 1 h -1 z m 2.00001,0 h 1 v 1 h -1 z m 2,0 h 1 v 1 h -1 z m 2,0 h 1 v 1 h -1 z m 2,0 h 0.99997 v 1 h -0.99997 z m 2,0 h 1 v 1 h -1 z m 2,0 h 1 v 1 h -1 z m 1.99997,0 h 1.00003 v 1 h -1.00003 z m 2.00003,0 h 1 v 1 h -1 z m 2,0 h 0.99997 v 1 h -0.99997 z m 2,0 h 1 v 1 h -1 z m 2,0 h 1 v 1 h -1 z m 1.99997,0 h 1.00003 v 1 h -1.00003 z m 2.00003,0 h 1 v 1 h -1 z m 2,0 h 0.99997 v 1 h -0.99997 z m 2,0 h 1 v 1 h -1 z m 2,0 h 1 v 1 h -1 z m 1.99997,0 h 1.00003 v 1 h -1.00003 z m 2.00003,0 h 1 v 1 h -1 z m 2,0 h 1 v 1 h -1 z m 2,0 h 1 v 1 h -1 z m 2,0 h 1 v 1 h -1 z m 2,0 h 1 v 1 h -1 z m 2,0 h 1 v 1 h -1 z m 2,0 h 1 v 1 h -1 z m 2,0 h 1 v 1 h -1 z m 2,0 h 1 v 1 h -1 z m 2,0 h 1 v 1 h -1 z m 2,0 h 1 v 1 h -1 z m 2,0 h 1 v 1 h -1 z m 2,0 h 1 v 1 h -1 z m 2,0 h 1 v 1 h -1 z m 2,0 h 1 v 1 h -1 z m 2,0 h 1 v 1 h -1 z m 2,0 h 1 v 1 h -1 z m 2,0 h 1 v 1 h -1 z m 2,0 h 1 v 1 h -1 z m 2,0 h 1 v 1 h -1 z m 2,0 h 1 v 1 h -1 z m 2,0 h 1 v 1 h -1 z m 2,0 h 1 v 1 h -1 z m 2,0 h 1 v 1 h -1 z m 2,0 h 1 v 1 h -1 z m 2,0 h 1 v 1 h -1 z m 2,0 h 1 v 1 h -1 z m 2,0 h 1 v 1 h -1 z m 2,0 h 1 v 1 h -1 z m 2,0 h 1 v 1 h -1 z m 2,0 h 1 v 1 h -1 z m 2,0 h 1 v 1 h -1 z m 2,0 h 1 v 1 h -1 z m 2,0 h 1 v 1 h -1 z m 2,0 h 1 v 1 h -1 z m 2,0 h 1 v 1 h -1 z m 2,0 h 1 v 1 h -1 z m 2,0 h 1 v 1 h -1 z m 2,0 h 1 v 1 h -1 z m 2,0 h 1 v 1 h -1 z m 2,0 h 1 v 1 h -1 z m 2,0 h 1 v 1 h -1 z m 2,0 h 1 v 1 h -1 V 21 h 0.5 v 0.5 h -0.5 z m 1,2 v 1 h -1 v -1 z m 0,2 v 1 h -1 v -1 z m 0,2 v 1 h -1 v -1 z m 0,2 v 1 h -1 v -1 z m 0,2 v 1 h -1 v -1 z m 0,2 v 1 h -1 v -1 h 0.5 V 33 h -0.5 v -0.5 z m -2,1 h -1 v -1 h 1 z m -2,0 h -1 v -1 h 1 z m -2,0 h -1 v -1 h 1 z m -2,0 h -1 v -1 h 1 z m -2,0 h -1 v -1 h 1 z m -2,0 h -1 v -1 h 1 z m -2,0 h -1 v -1 h 1 z m -2,0 h -1 v -1 h 1 z m -2,0 h -1 v -1 h 1 z m -2,0 h -1 v -1 h 1 z m -2,0 h -1 v -1 h 1 z m -2,0 h -1 v -1 h 1 z m -2,0 h -1 v -1 h 1 z m -2,0 h -1 v -1 h 1 z m -2,0 h -1 v -1 h 1 z m -2,0 h -1 v -1 h 1 z m -2,0 h -1 v -1 h 1 z m -2,0 h -1 v -1 h 1 z m -2,0 h -1 v -1 h 1 z m -2,0 h -1 v -1 h 1 z m -2,0 h -1 v -1 h 1 z m -2,0 h -1 v -1 h 1 z m -2,0 h -1 v -1 h 1 z m -2,0 h -1 v -1 h 1 z m -2,0 h -1 v -1 h 1 z m -2,0 h -1 v -1 h 1 z m -2,0 h -1 v -1 h 1 z m -2,0 h -1 v -1 h 1 z m -2,0 h -1 v -1 h 1 z m -2,0 h -1 v -1 h 1 z m -2,0 h -1 v -1 h 1 z m -2,0 h -1 v -1 h 1 z m -2,0 h -1 v -1 h 1 z m -2,0 h -1 v -1 h 1 z m -2,0 h -1 v -1 h 1 z m -2,0 h -1 v -1 h 1 z m -2,0 h -1 v -1 h 1 z m -2,0 h -1 v -1 h 1 z m -2,0 h -1 v -1 h 1 z m -2,0 h -1 v -1 h 1 z m -2,0 h -1 v -1 h 1 z m -2,0 h -1 v -1 h 1 z m -2,0 h -1 v -1 h 1 z m -2,0 h -1 v -1 h 1 z m -2,0 h -1 v -1 h 1 z m -2,0 h -1 v -1 h 1 z m -2,0 h -1 v -1 h 1 z m -2,0 h -1 v -1 h 1 z m -2,0 h -1 v -1 h 1 z m -2,0 h -1 v -1 h 1 z m -2,0 h -1 v -1 h 1 z m -2,0 h -1 v -1 h 1 z m -2,0 h -1 v -1 h 1 z m -2,0 h -1 v -1 h 1 z m -2,0 h -1 v -1 h 1 z m -2,0 h -1 v -1 h 1 z m -2,0 h -1 v -1 h 1 z m -2,0 h -1 v -1 h 1 z m -2,0 h -1 v -1 h 1 z m -2,0 h -1 v -1 h 1 z m -2,0 h -1 v -1 h 1 z m -2,0 h -1 v -1 h 1 z m -2,0 h -1 v -1 h 1 z m -2,0 h -1 v -1 h 1 z m -2,0 h -1 v -1 h 1 z m -2,0 h -1 v -1 h 1 z m -2,0 h -1 v -1 h 1 z m -2,0 h -1 v -1 h 1 z m -2,0 h -1 v -1 h 1 z m -2,0 h -1 v -1 h 1 z m -2,0 h -1 v -1 h 1 z m -2,0 h -1 v -1 h 1 z m -2,0 h -1 v -1 h 1 z m -2,0 h -1 v -1 h 1 z m -2,0 h -0.99998 v -1 h 0.99998 z m -2,0 h -1 v -1 h 1 z m -2,0 h -1 v -1 h 1 z m -1.99998,0 h -1.00002 v -1 h 1.00002 z m -2.00002,0 h -1 v -1 h 1 z m -2,0 h -0.99998 v -1 h 0.99998 z m -2,0 h -1 v -1 h 1 z m -2,0 h -1 v -1 h 1 z m -1.99998,0 h -1.00002 v -1 h 1.00002 z m -2.00002,0 h -1 v -1 h 1 z m -2,0 H 204.14 v -1 h 1.00001 z m -2,0 h -1 v -1 h 1 z m -2,0 h -1 v -1 h 1 z m -2.00001,0 h -0.99999 v -1 H 199.14 Z m -1.99999,0 h -1 v -1 h 1 z m -2,0 H 194.14 v -1 h 1.00001 z m -2,0 h -1 v -1 h 1 z m -2,0 h -1 v -1 h 1 z m -2.00001,0 h -0.99999 v -1 H 189.14 Z m -1.99999,0 h -1 v -1 h 1 z m -2,0 H 184.14 v -1 h 1.00001 z m -2,0 h -1 v -1 h 1 z m -2,0 h -1 v -1 h 1 z m -2.00001,0 h -0.99999 v -1 H 179.14 Z m -1.99999,0 h -1 v -1 h 1 z m -2,0 h -1 v -1 h 1 z m -2,0 h -1 v -1 h 1 z m -2,0 h -1 v -1 h 1 z m -2,0 h -1 v -1 h 1 z m -2,0 h -1 v -1 h 1 z m -2,0 h -1 v -1 h 1 z m -2,0 h -1 v -1 h 1 z m -2,0 h -1 v -1 h 1 z m -2,0 h -1 v -1 h 1 z m -2,0 h -1 v -1 h 1 z m -2,0 h -1 v -1 h 1 z m -2,0 h -1 v -1 h 1 z m -2,0 h -1 v -1 h 1 z m -2,0 h -1 v -1 h 1 z m -2,0 h -1 v -1 h 1 z m -1.99998,0 h -1.00002 v -1 h 1.00002 z m -2.00002,0 h -1 v -1 h 1 z m -2,0 h -0.99998 v -1 h 0.99998 z m -2,0 h -1 v -1 h 1 z m -2,0 h -1 v -1 h 1 z m -1.99998,0 h -1.00002 v -1 h 1.00002 z m -2.00002,0 h -1 v -1 h 1 z m -2,0 h -0.99998 v -1 h 0.99998 z m -2,0 h -1 v -1 h 1 z m -1.99999,0 h -1 v -1 h 1 z m -1.99999,0 h -1.00001 v -1 h 1.00001 z m -2.00001,0 h -1 v -1 h 1 z m -2,0 H 120.14 v -1 h 1.00002 z m -2,0 h -1 v -1 h 1 z m -2,0 h -1 v -1 h 1 z m -2,0 h -1 v -1 h 1 z m -2,0 h -1 v -1 h 1 z m -2,0 h -1 v -1 h 1 z m -2,0 h -1 v -1 h 1 z m -2,0 h -1 v -1 h 1 z m -2,0 h -1 v -1 h 1 z m -2,0 h -1 v -1 h 1 z m -2,0 h -1 v -1 h 1 z m -2.000005,0 h -1 v -1 h 1 z m -2,0 h -1 v -1 h 1 z m -2,0 h -1 v -1 h 1 z m -2,0 h -1 v -1 h 1 z m -2,0 h -1 v -1 h 1 z m -2,0 h -1 v -1 h 1 z m -2,0 h -1 v -1 h 1 z m -2,0 h -1 v -1 h 1 z m -2,0 h -1 v -1 h 1 z m -2,0 h -1 v -1 h 1 z m -2,0 h -1.000016 v -1 h 1.000016 z M 77.639999,32 v -1 h 1 v 1 z m 0,-2 v -1 h 1 v 1 z m 0,-2 v -1 h 1 v 1 z m 0,-2 v -1 h 1 v 1 z m 0,-2 v -1 h 1 v 1 z m 0,-2 v -1.5 h 1.5 v 1 h -1 V 21 h 0.5 v 1 z" /><path
             id="path8051"
             style="fill:#000000;fill-opacity:1;fill-rule:nonzero;stroke:none"
             d="m 357.64001,20.5 h 1 v 1 h -1 z m 2,0 h 1 v 1 h -1 z m 2,0 h 1 v 1 h -1 z m 2,0 h 1 v 1 h -1 z m 2,0 h 1 v 1 h -1 z m 2,0 h 1 v 1 h -1 z m 2,0 h 1 v 1 h -1 z m 2,0 h 1 v 1 h -1 z m 2,0 h 1 v 1 h -1 z m 1.5,1.5 v 1 h -1 v -1 z m 0,2 v 1 h -1 v -1 z m 0,2 v 1 h -1 v -1 z m 0,2 v 1 h -1 v -1 z m 0,2 v 1 h -1 v -1 z m 0,2 v 1 h -1 v -1 z m 0,2 v 1 h -1 v -1 z m 0,2 v 1 h -1 v -1 z m 0,2 v 1 h -1 v -1 z m 0,2 v 1 h -1 v -1 z m 0,2 v 1 h -1 v -1 z m 0,2 v 1 h -1 v -1 z m 0,2 v 1 h -1 v -1 z m 0,2 v 1 h -1 v -1 z m 0,2 v 1 h -1 v -1 z m 0,2 v 1 h -1 v -1 z m 0,2 v 1 h -1 v -1 z m 0,2 v 1 h -1 v -1 z m 0,2 v 1 h -1 v -1 z m 0,2 v 1 h -1 v -1 z m 0,2 v 1 h -1 v -1 z m 0,2 v 1 h -1 v -1 z m 0,2 v 1 h -1 v -1 z m 0,2 v 1 h -1 v -1 z m 0,2 v 1 h -1 v -1 z m 0,2 v 1 h -1 v -1 z m 0,2 v 1 h -1 v -1 z m 0,2 v 1 h -1 v -1 z m 0,2 v 1 h -1 v -1 z m 0,2 v 1 h -1 v -1 z m 0,2 v 1 h -1 v -1 z m 0,2 v 1 h -1 v -1 z m 0,2 v 1 h -1 v -1 z m 0,2 v 1 h -1 v -1 z m 0,2 v 1 h -1 v -1 z m 0,2 v 1 h -1 v -1 z m 0,2 v 1 h -1 v -1 z m 0,2 v 1 h -1 v -1 z m 0,2 v 1 h -1 v -1 z m 0,2 v 1 h -1 v -1 z m 0,2 v 1 h -1 v -1 z m 0,2 v 1 h -1 v -1 z m 0,2 v 1 h -1 v -1 z m 0,2 v 1 h -1 v -1 z m 0,2 v 1 h -1 v -1 z m 0,2 v 1 h -1 v -1 z m 0,2 v 1 h -1 v -1 z m 0,2 v 1 h -1 v -1 z m 0,2 v 1 h -1 v -1 z m 0,2 v 1 h -1 v -1 z m 0,2 v 1 h -1 v -1 z m 0,2 v 1 h -1 v -1 z m 0,2 v 1 h -1 v -1 z m 0,2 v 1 h -1 v -1 z m 0,2 v 1 h -1 v -1 z m 0,2 v 1 h -1 v -1 z m 0,2 v 1 h -1 v -1 z m 0,2 v 1 h -1 v -1 z m 0,2 v 1 h -1 v -1 z m 0,2 v 1 h -1 v -1 z m 0,2 v 1 h -1 v -1 z m 0,2 v 1 h -1 v -1 z m 0,2 v 1 h -1 v -1 z m 0,2 v 1 h -1 v -1 z m 0,2 v 1 h -1 v -1 z m 0,2 v 1 h -1 v -1 z m 0,2 v 1 h -1 v -1 z m 0,2 v 1 h -1 v -1 z m 0,2 v 1 h -1 v -1 z m 0,2 v 1 h -1 v -1 z m 0,2 v 1 h -1 v -1 z m 0,2 v 1 h -1 v -1 z m 0,2 v 1 h -1 v -1 z m 0,2 v 1 h -1 v -1 z m 0,2 v 1 h -1 v -1 z m 0,2 v 1 h -1 v -1 z m 0,2 v 1 h -1 v -1 z m 0,2 v 1 h -1 v -1 z m 0,2 v 1 h -1 v -1 z m 0,2 v 1 h -1 v -1 z m 0,2 v 1 h -1 v -1 z m 0,2 v 1 h -1 v -1 z m 0,2 v 1 h -1 v -1 z m 0,2 v 1 h -1 v -1 z m 0,2 v 1 h -1 v -1 z m 0,2 v 1 h -1 v -1 z m 0,2 v 1 h -1 v -1 z m 0,2 v 1 h -1 v -1 z m 0,2 v 1 h -1 v -1 z m 0,2 v 1 h -1 v -1 z m 0,2 v 1 h -1 v -1 z m 0,2 v 1 h -1 v -1 z m 0,2 v 1 h -1 v -1 z m 0,2 v 1 h -1 v -1 z m 0,2 v 1 h -1 v -1 z m 0,2 v 1 h -1 v -1 z m 0,2 v 1 h -1 v -1 z m 0,2 v 1 h -1 v -1 z m 0,2 v 1 h -1 v -1 z m 0,2 v 1 h -1 v -1 z m 0,2 v 1 h -1 v -1 z m 0,2 v 1 h -1 v -1 z m 0,2 v 1 h -1 v -1 z m 0,2 v 1 h -1 v -1 z m 0,2 v 1 h -1 v -1 z m 0,2 v 1 h -1 v -1 z m -1,2 h -1 v -1 h 1 z m -2,0 h -1 v -1 h 1 z m -2,0 h -1 v -1 h 1 z m -2,0 h -1 v -1 h 1 z m -2,0 h -1 v -1 h 1 z m -2,0 h -1 v -1 h 1 z m -2,0 h -1 v -1 h 1 z m -2,0 h -1 v -1 h 1 z m -2,0 h -1 v -1 h 1 z m -2,0 h -1 v -1 h 1 v 0.5 h -0.5 V 233 h 0.5 z m -1,-2 v -1 h 1 v 1 z m 0,-2 v -1 h 1 v 1 z m 0,-2 v -1 h 1 v 1 z m 0,-2 v -1 h 1 v 1 z m 0,-2 v -1 h 1 v 1 z m 0,-2 v -1 h 1 v 1 z m 0,-2 v -1 h 1 v 1 z m 0,-2 v -1 h 1 v 1 z m 0,-2 v -1 h 1 v 1 z m 0,-2 v -1 h 1 v 1 z m 0,-2 v -1 h 1 v 1 z m 0,-2 v -1 h 1 v 1 z m 0,-2 v -1 h 1 v 1 z m 0,-2 v -1 h 1 v 1 z m 0,-2 v -1 h 1 v 1 z m 0,-2 v -1 h 1 v 1 z m 0,-2 v -1 h 1 v 1 z m 0,-2 v -1 h 1 v 1 z m 0,-2 v -1 h 1 v 1 z m 0,-2 v -1 h 1 v 1 z m 0,-2 v -1 h 1 v 1 z m 0,-2 v -1 h 1 v 1 z m 0,-2 v -1 h 1 v 1 z m 0,-2 v -1 h 1 v 1 z m 0,-2 v -1 h 1 v 1 z m 0,-2 v -1 h 1 v 1 z m 0,-2 v -1 h 1 v 1 z m 0,-2 v -1 h 1 v 1 z m 0,-2 v -1 h 1 v 1 z m 0,-2 v -1 h 1 v 1 z m 0,-2 v -1 h 1 v 1 z m 0,-2 v -1 h 1 v 1 z m 0,-2 v -1 h 1 v 1 z m 0,-2 v -1 h 1 v 1 z m 0,-2 v -1 h 1 v 1 z m 0,-2 v -1 h 1 v 1 z m 0,-2 v -1 h 1 v 1 z m 0,-2 v -1 h 1 v 1 z m 0,-2 v -1 h 1 v 1 z m 0,-2 v -1 h 1 v 1 z m 0,-2 v -1 h 1 v 1 z m 0,-2 v -1 h 1 v 1 z m 0,-2 v -1 h 1 v 1 z m 0,-2 v -1 h 1 v 1 z m 0,-2 v -1 h 1 v 1 z m 0,-2 v -1 h 1 v 1 z m 0,-2 v -1 h 1 v 1 z m 0,-2 v -1 h 1 v 1 z m 0,-2 v -1 h 1 v 1 z m 0,-2 v -1 h 1 v 1 z m 0,-2 v -1 h 1 v 1 z m 0,-2 v -1 h 1 v 1 z m 0,-2 v -1 h 1 v 1 z m 0,-2.00001 V 125 h 1 v 0.99999 z m 0,-1.99999 v -0.99999 h 1 V 124 Z m 0,-2 v -1.00001 h 1 V 122 Z m 0,-2 v -1 h 1 v 1 z m 0,-1.99999 V 117 h 1 v 1.00001 z m 0,-2.00002 V 115 h 1 v 0.99999 z m 0,-1.99999 v -0.99999 h 1 V 114 Z m 0,-2 v -1.00001 h 1 V 112 Z m 0,-2 v -1 h 1 v 1 z m 0,-1.99999 V 107 h 1 v 1.00001 z m 0,-2.00002 V 105 h 1 v 0.99999 z m 0,-1.99999 v -1 h 1 v 1 z m 0,-2 v -1 h 1 v 1 z m 0,-2 v -1 h 1 v 1 z m 0,-2 v -1 h 1 v 1 z m 0,-2 v -1 h 1 v 1 z m 0,-2 v -1 h 1 v 1 z m 0,-2 v -1 h 1 v 1 z m 0,-2 v -1 h 1 v 1 z m 0,-2 v -1 h 1 v 1 z m 0,-2 v -1 h 1 v 1 z m 0,-2 v -1 h 1 v 1 z m 0,-2 v -1 h 1 v 1 z m 0,-2 v -1 h 1 v 1 z m 0,-2 v -1 h 1 v 1 z m 0,-2 v -1 h 1 v 1 z m 0,-2 v -1 h 1 v 1 z m 0,-2 v -1 h 1 v 1 z m 0,-2 v -1 h 1 v 1 z m 0,-2 v -1 h 1 v 1 z m 0,-2 v -1 h 1 v 1 z m 0,-2 v -1 h 1 v 1 z m 0,-2 v -1 h 1 v 1 z m 0,-2 v -1 h 1 v 1 z m 0,-2 v -1 h 1 v 1 z m 0,-2 v -1 h 1 v 1 z m 0,-2 v -1 h 1 v 1 z m 0,-2 v -1 h 1 v 1 z m 0,-2 v -1 h 1 v 1 z m 0,-2 v -1 h 1 v 1 z m 0,-2 v -1 h 1 v 1 z m 0,-2 v -1 h 1 v 1 z m 0,-2 v -1 h 1 v 1 z m 0,-2 v -1 h 1 v 1 z m 0,-2 v -1 h 1 v 1 z m 0,-2 v -1 h 1 v 1 z m 0,-2 v -1 h 1 v 1 z m 0,-2 v -1 h 1 v 1 z m 0,-2 v -1 h 1 v 1 z m 0,-2 v -1 h 1 v 1 z m 0,-2 v -1 h 1 v 1 z m 0,-2 v -1 h 1 v 1 z m 0,-2 v -1.5 h 1.5 v 1 h -1 V 21 h 0.5 v 1 z" /><path
             id="path8053"
             style="fill:#b3b3b3;fill-opacity:1;fill-rule:nonzero;stroke:none"
             d="m 144.28,183.99869 0.003,-1 1,0.003 -0.003,1 m -0.99472,-2.00262 0.003,-0.99999 1,0.003 -0.003,0.99998 m -0.99472,-2.00261 0.003,-1 1,0.003 -0.003,1 m -0.99474,-2.00263 0.003,-0.99998 1,0.003 -0.003,0.99999 m -0.99472,-2.00261 0.003,-1 1,0.003 -0.003,1 m -0.99472,-2.00262 0.003,-1 1,0.003 -0.003,1 m -0.99472,-2.00261 0.003,-1 1,0.003 -0.003,1 m -0.99474,-2.00263 0.003,-1 1,0.003 -0.003,1 m -0.99471,-2.00261 0.003,-1 1,0.003 -0.003,1 m -0.99473,-2.00262 0.003,-1 1,0.003 -0.003,1 m -0.99472,-2.00262 0.003,-0.99999 1,0.003 -0.003,0.99998 m -0.99472,-2.00261 0.003,-1 1,0.003 -0.003,1 m -0.99473,-2.00261 0.003,-1 1,0.003 -0.003,1 m -0.99472,-2.00262 0.003,-1 1,0.003 -0.003,1 m -0.99472,-2.00262 0.003,-0.99999 1,0.003 -0.003,0.99998 m -0.99472,-2.00261 0.003,-1 1,0.003 -0.003,1 m -0.99474,-2.00263 0.003,-0.99998 1,0.003 -0.003,0.99999 m -0.99472,-2.00261 0.003,-1 1,0.003 -0.003,1 m -0.99472,-2.00262 0.003,-1 1,0.003 -0.003,1 m -0.99472,-2.00262 0.003,-0.99999 1,0.003 -0.003,0.99998 m -0.99472,-2.00261 0.003,-1 1,0.003 -0.003,1 m -0.99474,-2.00261 0.003,-1 1,0.003 -0.003,1 m -0.99472,-2.00262 0.003,-1 1,0.003 -0.003,1 m -0.99472,-2.00262 0.003,-0.99998 1,0.003 -0.003,0.99998 m -0.99472,-2.0026 0.003,-1 1,0.003 -0.003,1 m -0.99473,-2.00262 0.003,-0.99999 1,0.003 -0.003,0.99999 m -0.99473,-2.00261 0.003,-1 1,0.003 -0.003,1 m -0.99471,-2.00262 0.003,-1 1,0.003 -0.003,1 m -0.99473,-2.00261 0.003,-1 1,0.003 -0.003,0.99999 m -0.99472,-2.00263 0.003,-1 1,0.003 -0.003,1 m -0.99473,-2.00263 0.003,-1 1,0.003 -0.003,1 m -0.99472,-2.00264 0.003,-1 1,0.003 -0.003,1 m -0.99472,-2.00263 0.003,-1 1,0.003 -0.003,1 m -0.99472,-2.00263 0.003,-1 1,0.003 -0.003,1 m -0.99474,-2.00263 0.003,-1 1,0.003 -0.003,1 m -0.99472,-2.00264 0.003,-1 1,0.003 -0.003,1 m -0.99472,-2.00263 0.003,-1 1,0.003 -0.003,1 m -0.99472,-2.00263 0.003,-1 1,0.003 -0.003,1 m -0.99472,-2.00264 0.003,-0.99999 1,0.003 -0.003,0.99999 m -0.99474,-2.00263 0.003,-0.99999 1,0.003 -0.003,0.99999 m -0.99472,-2.00263 0.003,-1 1,0.003 -0.003,1 m -0.99472,-2.00264 0.003,-0.99999 1,0.003 -0.003,0.99999 m -0.99472,-2.00263 0.003,-0.999992 1,0.0026 -0.003,0.999992 m -0.99473,-2.002631 0.003,-1 1,0.0026 -0.003,1 m -0.99472,-2.002632 0.003,-1 1,0.0026 -0.003,1 m -0.99472,-2.002632 0.003,-1 1,0.0026 -0.003,1 m -0.99473,-2.002632 0.003,-1 1,0.0026 -0.003,1 m -0.99472,-2.002632 0.003,-1 1,0.0026 -0.003,1 m -0.99473,-2.002632 0.003,-1 1,0.0026 -0.003,1 m -0.99472,-2.00264 0.003,-0.999993 1,0.0026 -0.003,0.999993 m -0.99472,-2.002633 0.003,-0.999992 1,0.0026 -0.003,0.999992 m -0.99472,-2.002632 0.003,-0.999992 1,0.0026 -0.003,0.999993 m -0.99474,-2.002632 0.003,-0.999993 1,0.0026 -0.003,0.999992 m -0.99472,-2.002632 0.003,-1 1,0.0026 -0.003,1 m -0.99472,-2.002632 0.003,-1 1,0.0026 -0.003,1 m -0.99472,-2.002632 0.003,-1 1,0.0026 -0.003,1 m -0.99472,-2.002632 0.003,-1 1,0.0026 -0.003,1 m -0.99474,-2.002632 0.003,-1 1,0.0026 -0.003,1 m -0.99472,-2.002633 0.003,-1 1,0.0026 -0.003,1 m -0.99472,-2.00264 0.003,-0.999992 1,0.0026 -0.003,0.999992 m -0.99472,-2.002632 0.003,-0.999992 1,0.0026 -0.003,0.999992 m -0.99473,-2.002632 0.003,-0.999993 1,0.0026 -0.003,0.999993 m -0.99472,-2.002633 0.003,-0.999992 1,0.0026 -0.003,0.999992 m -0.99472,-2.002632 0.003,-0.999992 1,0.0026 -0.003,0.999993 m -0.99472,-2.002632 0.003,-1 1,0.0026 -0.003,1 m -0.99473,-2.002639 0.003,-0.999985 1,0.0026 -0.003,0.999984 m -0.99473,-2.002624 0.003,-1 1,0.0026 -0.003,1 m -0.99472,-2.00264 0.003,-0.999985 1,0.0026 -0.003,0.999985 m -0.99472,-2.002625 0.003,-1 1,0.0026 -0.003,1 m -0.99472,-2.00264 0.003,-1 1,0.0026 -0.003,1 m -0.99474,-2.002625 0.003,-1 1,0.0026 -0.003,1 m -0.99472,-2.00264 0.003,-1 1,0.0026 -0.003,1 m -0.99472,-2.002624 0.003,-1 1,0.0026 -0.003,1 m -0.99472,-2.002639 0.003,-1 1,0.0026 -0.003,1 m -0.99472,-2.002624 0.003,-1 1,0.0026 -0.003,1 m -0.99474,-2.00264 0.003,-1 1,0.0026 -0.003,1 m -0.99472,-2.00264 0.003,-0.999985 1,0.0026 -0.003,0.999985 m -0.99472,-2.002625 0.003,-1 1,0.0026 -0.003,1 m -0.99472,-2.00264 0.003,-0.999985 1,0.0026 -0.003,0.999985 m -0.99473,-2.002625 0.003,-1 1,0.0026 -0.003,1 m -0.99472,-2.00264 0.003,-1 1,0.0026 -0.003,1 m -0.99472,-2.002624 0.003,-1 1,0.0026 -0.003,1" /><path
             id="path8055"
             style="fill:#b3b3b3;fill-opacity:1;fill-rule:nonzero;stroke:none"
             d="m 149.50058,188.33 1,10e-4 -0.001,1 -1,-10e-4 m 2.00116,-0.99769 1,0.001 -0.001,1 -1,-0.001 m 2.00116,-0.99768 1,0.001 -0.001,1 -1,-0.001 m 2.00116,-0.9977 1,0.001 -0.001,1 -1,-0.001 m 2.00116,-0.99768 1,0.001 -10e-4,1 -1,-0.001 m 2.00116,-0.9977 1,10e-4 -0.001,1 -1,-10e-4 m 2.00116,-0.99768 1,10e-4 -0.001,1 -1,-10e-4 m 2.00114,-0.99769 1,0.001 -0.001,1 -1,-0.001 m 2.00116,-0.9977 1,0.001 -10e-4,1 -1,-0.001 m 2.00116,-0.99768 1,0.001 -0.001,1 -1,-0.001 m 2.00116,-0.9977 1,10e-4 -0.001,1 -1,-10e-4 m 2.00116,-0.99768 1,0.001 -0.001,1 -1,-0.001 m 2.00116,-0.99769 1,0.001 -0.001,1 -1,-0.001 m 2.00116,-0.99768 1,0.001 -0.001,1 -1,-0.001 m 2.00116,-0.9977 1,0.001 -0.001,1 -1,-0.001 m 2.00116,-0.9977 1,10e-4 -0.001,1 -1,-10e-4 m 2.00116,-0.99768 1,0.001 -0.001,1 -1,-0.001 m 2.00116,-0.99769 1,0.001 -10e-4,1 -1,-0.001 m 2.00115,-0.99768 1,0.001 -0.001,1 -1,-0.001 m 2.00116,-0.9977 1,0.001 -0.001,1 -1,-0.001 m 2.00116,-0.99768 1,0.001 -0.001,1 -1,-0.001 m 2.00116,-0.9977 1,0.001 -10e-4,1 -1,-0.001 m 2.00116,-0.99769 1,0.001 -0.001,1 -1,-0.001 m 2.00116,-0.99768 1,0.001 -0.001,1 -1,-0.001 m 2.00116,-0.9977 1,0.001 -0.001,1 -1,-0.001 m 2.00116,-0.99768 1,0.001 -0.001,1 -1,-0.001 m 2.00116,-0.99769 1,10e-4 -10e-4,1 -1,-10e-4 m 2.00116,-0.99768 1,0.001 -0.001,1 -1,-0.001 m 2.00116,-0.9977 1,0.001 -0.001,1 -1,-0.001 m 2.00116,-0.9977 1,0.001 -0.001,1 -1,-0.001 m 2.00116,-0.99768 1,0.001 -0.001,1 -1,-0.001 m 2.00116,-0.99769 1,10e-4 -10e-4,1 -1,-10e-4 m 2.00116,-0.99768 1,0.001 -0.001,1 -1,-0.001 m 2.00116,-0.9977 1,0.001 -0.001,1 -1,-0.001 m 2.00116,-0.99768 1,0.001 -0.001,1 -1,-0.001 m 2.00116,-0.9977 0.99998,0.001 -0.001,1 -0.99998,-0.001 m 2.00114,-0.99768 1,0.001 -0.001,1 -1,-0.001 m 2.00116,-0.99769 1,0.001 -0.001,1 -1,-0.001 m 2.00116,-0.9977 1,0.001 -0.001,1 -1,-0.001 m 2.00116,-0.99768 1,0.001 -10e-4,1 -1,-0.001 m 2.00116,-0.9977 1,0.001 -0.001,1 -1,-0.001 m 2.00116,-0.99768 1,10e-4 -0.001,1 -1,-10e-4 m 2.00115,-0.99769 1,0.001 -0.001,1 -1,-0.001 m 2.00116,-0.99768 1,0.001 -10e-4,1 -1,-0.001 m 2.00116,-0.9977 1,0.001 -0.001,1 -1,-0.001 m 2.00116,-0.99769 1,0.001 -0.001,1 -1,-0.001 m 2.00116,-0.99769 1,10e-4 -0.001,1 -1,-10e-4 m 2.00116,-0.99769 1,0.001 -0.001,1 -1,-0.001 m 2.00116,-0.99768 1,0.001 -10e-4,1 -1,-0.001 m 2.00116,-0.9977 1,0.001 -0.001,1 -1,-0.001 m 2.00116,-0.99768 1,0.001 -0.001,1 -1,-0.001 m 2.00116,-0.99769 1,0.001 -0.001,1 -1,-0.001 m 2.00116,-0.9977 1,0.001 -0.001,1 -1,-0.001 m 2.00116,-0.99768 1,0.001 -0.001,1 -1,-0.001 m 2.00116,-0.9977 1,0.001 -0.001,1 -1,-0.001 m 2.00116,-0.99768 1,0.001 -10e-4,1 -1,-0.001 m 2.00116,-0.99769 1,0.001 -10e-4,1 -1,-0.001 m 2.00116,-0.99768 1,10e-4 -10e-4,1 -1,-10e-4 m 2.00116,-0.9977 1,0.001 -10e-4,1 -1,-0.001 m 2.00116,-0.9977 1,0.001 -10e-4,1 -1,-0.001 m 2.00116,-0.99768 1,0.001 -10e-4,1 -1,-0.001 m 2.00116,-0.99769 1,0.001 -0.001,1 -1,-0.001 m 2.00116,-0.99768 1,10e-4 -0.001,1 -1,-10e-4 m 2.00116,-0.9977 1,0.001 -0.001,1 -1,-0.001 m 2.00116,-0.99768 1,0.001 -10e-4,1 -1,-0.001 m 2.00116,-0.9977 1,0.001 -10e-4,1 -1,-0.001 m 2.00116,-0.99769 1,0.001 -10e-4,1 -1,-0.001 m 2.00116,-0.99768 1,10e-4 -10e-4,1 -1,-10e-4 m 2.00116,-0.9977 1,0.001 -10e-4,1 -1,-0.001 m 2.00116,-0.99768 1,0.001 -10e-4,1 -1,-0.001 m 2.00116,-0.9977 0.99997,0.001 -10e-4,1 -0.99997,-0.001 m 2.00113,-0.99768 1,0.001 -10e-4,1 -1,-0.001 m 2.00116,-0.99769 1,10e-4 -10e-4,1 -1,-10e-4 m 2.00116,-0.9977 1,0.001 -0.001,1 -1,-0.001 m 2.00116,-0.99768 1,0.001 -0.001,1 -1,-0.001 m 2.00116,-0.99769 1,0.001 -0.001,1 -1,-0.001 m 2.00116,-0.99768 1,0.001 -0.001,1 -1,-0.001 m 2.00116,-0.9977 1,10e-4 -10e-4,1 -1,-10e-4 m 2.00116,-0.99768 1,10e-4 -10e-4,1 -1,-10e-4 m 2.00116,-0.9977 1,0.001 -10e-4,1 -1,-0.001 m 2.00116,-0.99769 1,0.001 -10e-4,1 -1,-0.001 m 2.00116,-0.99768 1,0.001 -10e-4,1 -1,-0.001 m 2.00116,-0.9977 1,10e-4 -0.001,1 -1,-10e-4 m 2.00116,-0.99768 0.99997,10e-4 -10e-4,1 -0.99997,-10e-4 m 2.00113,-0.9977 1,0.001 -10e-4,1 -1,-0.001 m 2.00116,-0.99768 1,0.001 -10e-4,1 -1,-0.001 m 2.00116,-0.99769 1,0.001 -0.001,1 -1,-0.001 m 2.00116,-0.9977 1,10e-4 -0.001,1 -1,-10e-4 m 2.00116,-0.99768 1,10e-4 -0.001,1 -1,-10e-4 m 2.00116,-0.9977 1,0.001 -0.001,1 -1,-0.001 m 2.00116,-0.99768 1,0.001 -10e-4,1 -1,-0.001 m 2.00116,-0.99769 1,0.001 -10e-4,1 -1,-0.001 m 2.00116,-0.99768 1,0.001 -10e-4,1 -1,-0.001 m 2.00116,-0.9977 1,0.001 -10e-4,1 -1,-0.001 m 2.00116,-0.99769 1,0.001 -10e-4,1 -1,-0.001 m 2.00116,-0.99769 1,0.001 -0.001,1 -1,-0.001 m 2.00116,-0.99769 1,0.001 -0.001,1 -1,-0.001 m 2.00116,-0.99768 1,0.001 -0.001,1 -1,-0.001 m 2.00116,-0.9977 1,0.001 -0.001,1 -1,-0.001 m 2.00116,-0.99768 1,0.001 -10e-4,1 -1,-0.001 m 2.00116,-0.99769 1,0.001 -10e-4,1 -1,-0.001 m 2.00116,-0.99768 1,0.001 -10e-4,1 -1,-0.001 m 2.00116,-0.9977 1,0.001 -10e-4,1 -1,-0.001 m 2.00116,-0.9977 1,0.001 -10e-4,1 -1,-0.001 m 2.00116,-0.99768 1,0.001 -0.001,1 -1,-0.001 m 2.00116,-0.99769 1,0.001 -0.001,1 -1,-0.001 m 2.00116,-0.99768 1,0.001 -0.001,1 -1,-0.001 m 2.00116,-0.9977 1,0.001 -0.001,1 -1,-0.001 m 2.00116,-0.99768 1,0.001 -10e-4,1 -1,-0.001 m 2.00116,-0.9977 1,0.001 -10e-4,1 -1,-0.001 m 2.00116,-0.99769 1,0.001 -10e-4,1 -1,-0.001 m 2.00116,-0.99768 1,0.001 -10e-4,1 -1,-0.001 m 2.00116,-0.9977 1,0.001 -10e-4,1 -1,-0.001" /><path
             id="path8057"
             style="fill:#ffe6cc;fill-opacity:0.70200004;fill-rule:nonzero;stroke:none"
             d="m 145.14,144 h 103 v 45 h -103 z" /><path
             id="path8059"
             style="fill:#000000;fill-opacity:1;fill-rule:nonzero;stroke:none"
             d="m 101.64,20.5 h 1 v 1 h -1 z m 2,0 h 1 v 1 h -1 z m 2,0 h 1 v 1 h -1 z m 2,0 h 1 v 1 h -1 z m 2,0 h 1 v 1 h -1 z m 2,0 h 1 v 1 h -1 z m 2,0 h 1 v 1 h -1 z m 2,0 h 1 v 1 h -1 z m 2,0 h 1 v 1 h -1 z m 2,0 h 1 v 1 h -1 z m 2,0 h 1 v 1 h -1 z m 2,0 h 1 v 1 h -1 z m 2,0 h 1 v 1 h -1 z m 2,0 h 1 v 1 h -1 z m 2,0 h 1 v 1 h -1 z m 2,0 h 1 v 1 h -1 z m 2,0 h 1 v 1 h -1 z m 2,0 h 1 v 1 h -1 z m 2,0 h 1 v 1 h -1 z m 2,0 h 1 v 1 h -1 z m 2,0 h 1 v 1 h -1 z m 2,0 h 1 v 1 h -1 z m 2,0 h 1 v 1 h -1 z m 2,0 h 1 v 1 h -1 z m 2,0 h 1 v 1 h -1 z m 2,0 h 1 v 1 h -1 z m 2,0 h 1 v 1 h -1 z m 2,0 h 1 v 1 h -1 z m 2,0 h 1 v 1 h -1 z m 2,0 h 1 v 1 h -1 z m 2,0 h 1 v 1 h -1 z m 2,0 h 1 v 1 h -1 z m 2,0 h 1 v 1 h -1 z m 2,0 h 1 v 1 h -1 z m 2,0 h 1 v 1 h -1 z m 2,0 h 0.99998 v 1 H 171.64 Z m 2,0 h 1 v 1 h -1 z m 2,0 h 1 v 1 h -1 z m 2,0 h 1 v 1 h -1 z m 2,0 h 1 v 1 h -1 z m 2,0 h 1 v 1 h -1 z m 2,0 h 1 v 1 h -1 z m 2,0 h 1 v 1 h -1 z m 2,0 h 1 v 1 h -1 z m 1.99998,0 H 190.64 v 1 h -1.00002 z m 2.00002,0 h 1 v 1 h -1 z m 2,0 h 1 v 1 h -1 z m 2,0 h 1 v 1 h -1 z m 2,0 h 1.00001 v 1 H 197.64 Z m 2,0 h 1 v 1 h -1 z m 2,0 h 1 v 1 h -1 z m 2,0 h 1 v 1 h -1 z m 2,0 h 1 v 1 h -1 z m 2,0 h 1 v 1 h -1 z m 2,0 h 1 v 1 h -1 z m 2,0 h 1 v 1 h -1 z m 2,0 h 1 v 1 h -1 z m 1.99998,0 H 216.64 v 1 h -1.00002 z m 2.00002,0 h 1 v 1 h -1 z m 2,0 h 1 v 1 h -1 z m 2,0 h 1 v 1 h -1 z m 2,0 h 1 v 1 h -1 z m 2,0 h 1 v 1 h -1 z m 2,0 h 1 v 1 h -1 z m 2,0 h 1 v 1 h -1 z m 2,0 h 1 v 1 h -1 z m 2,0 h 1 v 1 h -1 z m 2,0 h 1 v 1 h -1 z m 2,0 h 1 v 1 h -1 z m 2,0 h 1 v 1 h -1 z m 2,0 h 1 v 1 h -1 z m 2,0 h 1 v 1 h -1 z m 1.99998,0 H 246.64 v 1 h -1.00002 z m 2.00002,0 h 1 v 1 h -1 z m 2,0 h 1 v 1 h -1 z m 2,0 h 1 v 1 h -1 z m 2,0 h 1 v 1 h -1 z m 2,0 h 1.00001 v 1 H 255.64 Z m 2.00001,0 h 1 v 1 h -1 z m 2,0 h 1 v 1 h -1 z m 2,0 h 0.99997 v 1 h -0.99997 z m 2,0 h 1 v 1 h -1 z m 2,0 h 1 v 1 h -1 z m 2,0 h 1 v 1 h -1 z m 2,0 h 1 v 1 h -1 z m 2,0 h 1 v 1 h -1 z m 2,0 h 1 v 1 h -1 z m 2,0 h 1 v 1 h -1 z m 2,0 h 1 v 1 h -1 z m 1.99997,0 h 1.00003 v 1 h -1.00003 z m 2.00003,0 h 1 v 1 h -1 z m 2,0 h 1 v 1 h -1 z m 2,0 h 1 v 1 h -1 z m 2,0 h 1 v 1 h -1 z m 2,0 h 1 v 1 h -1 z m 2,0 h 1 v 1 h -1 z m 2,0 h 1 v 1 h -1 z m 2,0 h 1 v 1 h -1 z m 2,0 h 1 v 1 h -1 z m 2,0 h 1 v 1 h -1 z m 2,0 h 1 v 1 h -1 z m 2,0 h 1 v 1 h -1 z m 2,0 h 1 v 1 h -1 z m 2,0 h 1 v 1 h -1 z m 2,0 h 1 v 1 h -1 z m 2,0 h 1 v 1 h -1 z m 2,0 h 1 v 1 h -1 z m 2,0 h 1 v 1 h -1 z m 2,0 h 1 v 1 h -1 z m 2,0 h 1 v 1 h -1 z m 2,0 h 1 v 1 h -1 z m 2,0 h 1 v 1 h -1 z m 2,0 h 1 v 1 h -1 z m 2,0 h 1 v 1 h -1 z m 2,0 h 1 v 1 h -1 z m 1.99997,0 h 1.00003 v 1 h -1.00003 z m 2.00003,0 h 1 v 1 h -1 z m 2,0 h 1 v 1 h -1 z m 2,0 h 1 v 1 h -1 z m 2,0 h 1 v 1 h -1 z m 2,0 h 1 v 1 h -1 z m 2,0 h 1 v 1 h -1 z m 2,0 h 1 v 1 h -1 z m 2,0 h 0.99997 v 1 h -0.99997 z m 2,0 h 1 v 1 h -1 z m 2,0 h 1 v 1 h -1 z m 2,0 h 1 v 1 h -1 z m 2,0 h 1 v 1 h -1 z m 2,0 h 1 v 1 h -1 z m 2,0 h 1 v 1 h -1 z m 2,0 h 1 v 1 h -1 z m 2,0 h 1 v 1 h -1 z m 2,0 h 1 v 1 h -1 z m 2,0 h 1 v 1 h -1 z m 2,0 h 1 v 1 h -1 z m 2,0 h 1 v 1 h -1 z m 2,0 h 1 v 1 h -1 z m 1.5,1.5 v 1 h -1 v -1 z m 0,2 v 1 h -1 v -1 z m 0,2 v 1 h -1 v -1 z m 0,2 v 1 h -1 v -1 z m 0,2 v 1 h -1 v -1 z m 0,2 v 1 h -1 v -1 z m 0,2 v 1 h -1 v -1 z m 0,2 v 1 h -1 v -1 z m 0,2 v 1 h -1 v -1 z m 0,2 v 1 h -1 v -1 z m 0,2 v 1 h -1 v -1 z m 0,2 v 1 h -1 v -1 z m 0,2 v 1 h -1 v -1 z m 0,2 v 1 h -1 v -1 z m 0,2 v 1 h -1 v -1 z m 0,2 v 1 h -1 v -1 z m 0,2 v 1 h -1 v -1 z m 0,2 v 1 h -1 v -1 z m 0,2 v 1 h -1 v -1 z m 0,2 v 1 h -1 v -1 z m 0,2 v 1 h -1 v -1 z m 0,2 v 1 h -1 v -1 z m 0,2 v 1 h -1 v -1 z m 0,2 v 1 h -1 v -1 z m 0,2 v 1 h -1 v -1 z m 0,2 v 1 h -1 v -1 z m 0,2 v 1 h -1 v -1 z m 0,2 v 1 h -1 v -1 z m 0,2 v 1 h -1 v -1 z m 0,2 v 1 h -1 v -1 z m 0,2 v 1 h -1 v -1 z m 0,2 v 1 h -1 v -1 z m 0,2 v 1 h -1 v -1 z m 0,2 v 1 h -1 v -1 z m 0,2 v 1 h -1 v -1 z m 0,2 v 1 h -1 v -1 z m 0,2 v 1 h -1 v -1 z m 0,2 v 1 h -1 v -1 z m 0,2 v 1 h -1 v -1 z m 0,2 v 1 h -1 v -1 z m 0,2 v 1 h -1 v -1 z m 0,2 v 1 h -1 v -1 z m 0,2 v 1 h -1 v -1 z m 0,2 v 1 h -1 v -1 z m 0,2 v 1 h -1 v -1 z m 0,2 v 1 h -1 v -1 z m 0,2 v 1 h -1 v -1 z m 0,2 v 1 h -1 v -1 z m 0,2 v 1 h -1 v -1 z m 0,2 v 1 h -1 v -1 z m 0,2 v 1 h -1 v -1 z m 0,2 v 1 h -1 v -1 z m 0,2 v 1 h -1 v -1 z m 0,2 v 1 h -1 v -1 z m 0,2 v 1 h -1 v -1 z m 0,2 v 1 h -1 v -1 z m 0,2 v 1 h -1 v -1 z m 0,2 v 1 h -1 v -1 z m 0,2 v 1 h -1 v -1 z m 0,2 v 1 h -1 v -1 z m 0,2 v 1 h -1 v -1 z m -0.5,2.5 h -1 v -1 h 1 z m -2,0 h -1 v -1 h 1 z m -2,0 h -1 v -1 h 1 z m -2,0 h -1 v -1 h 1 z m -2,0 h -1 v -1 h 1 z m -2,0 h -1 v -1 h 1 z m -2,0 h -1 v -1 h 1 z m -2,0 h -1 v -1 h 1 z m -2,0 h -1 v -1 h 1 z m -2,0 h -1 v -1 h 1 z m -2,0 h -1 v -1 h 1 z m -2,0 h -1 v -1 h 1 z m -2,0 h -1 v -1 h 1 z m -2,0 h -1 v -1 h 1 z m -2,0 h -1 v -1 h 1 z m -2,0 h -1 v -1 h 1 z m -2,0 h -1 v -1 h 1 z m -2,0 h -1 v -1 h 1 z m -2,0 h -1 v -1 h 1 z m -2,0 h -1 v -1 h 1 z m -2,0 h -1 v -1 h 1 z m -2,0 h -1 v -1 h 1 z m -2,0 h -1 v -1 h 1 z m -2,0 h -1 v -1 h 1 z m -2,0 h -1 v -1 h 1 z m -2,0 h -1 v -1 h 1 z m -2,0 h -1 v -1 h 1 z m -2,0 h -1 v -1 h 1 z m -2,0 h -1 v -1 h 1 z m -2,0 h -1 v -1 h 1 z m -2,0 h -1 v -1 h 1 z m -2,0 h -1 v -1 h 1 z m -2,0 h -1 v -1 h 1 z m -2,0 h -1 v -1 h 1 z m -2,0 h -1 v -1 h 1 z m -2,0 h -1 v -1 h 1 z m -2,0 h -1 v -1 h 1 z m -2,0 h -1 v -1 h 1 z m -2,0 h -1 v -1 h 1 z m -2,0 h -1 v -1 h 1 z m -2,0 h -1 v -1 h 1 z m -2,0 h -1 v -1 h 1 z m -2,0 h -1 v -1 h 1 z m -2,0 h -1 v -1 h 1 z m -2,0 h -1 v -1 h 1 z m -2,0 h -1 v -1 h 1 z m -2,0 h -1 v -1 h 1 z m -2,0 h -1 v -1 h 1 z m -2,0 h -1 v -1 h 1 z m -2,0 h -1 v -1 h 1 z m -2,0 h -1 v -1 h 1 z m -2,0 h -1 v -1 h 1 z m -2,0 h -1 v -1 h 1 z m -2,0 h -1 v -1 h 1 z m -2,0 h -1 v -1 h 1 z m -2,0 h -1 v -1 h 1 z m -2,0 h -1 v -1 h 1 z m -2,0 h -1 v -1 h 1 z m -2,0 h -1 v -1 h 1 z m -2,0 h -1 v -1 h 1 z m -2,0 h -1 v -1 h 1 z m -2,0 h -1 v -1 h 1 z m -2,0 h -1 v -1 h 1 z m -2,0 h -1 v -1 h 1 z m -2,0 h -1 v -1 h 1 z m -2,0 h -1 v -1 h 1 z m -2,0 h -1 v -1 h 1 z m -2,0 h -1 v -1 h 1 z m -2,0 h -1 v -1 h 1 z m -2,0 h -1 v -1 h 1 z m -2,0 h -1 v -1 h 1 z m -2,0 h -1 v -1 h 1 z m -2,0 h -1 v -1 h 1 z m -1.99998,0 h -1.00002 v -1 h 1.00002 z m -2.00002,0 h -1 v -1 h 1 z m -2,0 h -1 v -1 h 1 z m -2,0 h -1 v -1 h 1 z m -2,0 h -1 v -1 h 1 z m -2,0 h -1 v -1 h 1 z m -2,0 h -1 v -1 h 1 z m -2,0 h -1 v -1 h 1 z m -2,0 h -0.99998 v -1 h 0.99998 z m -2,0 h -1 v -1 h 1 z m -2,0 h -1 v -1 h 1 z m -2,0 h -1 v -1 h 1 z m -2,0 h -1 v -1 h 1 z m -2,0 h -1 v -1 h 1 z m -2,0 h -1 v -1 h 1 z m -2,0 h -1 v -1 h 1 z m -2,0 h -1 v -1 h 1 z m -1.99998,0 H 193.64 v -1 h 1.00003 z m -2.00002,0 h -1 v -1 h 1 z m -2,0 h -1 v -1 h 1 z m -2,0 h -1 v -1 h 1 z m -2,0 h -1 v -1 h 1 z m -2,0 h -1 v -1 h 1 z m -2,0 h -1 v -1 h 1 z m -2,0 h -1 v -1 h 1 z m -2,0 h -1 v -1 h 1 z m -2.00001,0 h -0.99999 v -1 H 176.64 Z m -1.99999,0 h -1 v -1 h 1 z m -2,0 h -1 v -1 h 1 z m -2,0 h -1 v -1 h 1 z m -2,0 h -1 v -1 h 1 z m -2,0 h -1 v -1 h 1 z m -2,0 h -1 v -1 h 1 z m -2,0 h -1 v -1 h 1 z m -2,0 H 159.64 v -1 h 1.00001 z m -2,0 h -1 v -1 h 1 z m -2,0 h -1 v -1 h 1 z m -2,0 h -1 v -1 h 1 z m -2,0 h -1 v -1 h 1 z m -2,0 h -1 v -1 h 1 z m -2,0 h -1 v -1 h 1 z m -2,0 h -1 v -1 h 1 z m -2,0 h -1 v -1 h 1 z m -1.99998,0 h -1.00002 v -1 h 1.00002 z m -2.00002,0 h -1 v -1 h 1 z m -2,0 h -1 v -1 h 1 z m -2,0 h -1 v -1 h 1 z m -2,0 h -1 v -1 h 1 z m -2,0 h -1 v -1 h 1 z m -2,0 h -1 v -1 h 1 z m -2,0 h -0.99999 v -1 h 0.99999 z m -1.99999,0 h -0.99999 v -1 h 0.99999 z m -2,0 h -1 v -1 h 1 z m -2,0 h -1 v -1 h 1 z m -2,0 h -1 v -1 h 1 z m -2,0 h -1 v -1 h 1 z m -2,0 h -1 v -1 h 1 z m -2,0 h -1 v -1 h 1 z m -2,0 h -1 v -1 h 1 z m -2,0 h -1 v -1 h 1 z m -2,0 h -1 v -1 h 1 z m -2,0 h -1 v -1 h 1 z m -2,0 h -1 v -1 h 1 z m -2,0 h -1 v -1 h 1 z m -2,0 h -1.000021 v -1 h 1.000021 z M 99.139999,143 v -1 H 100.14 v 1 z m 0,-2 v -1 H 100.14 v 1 z m 0,-2 v -1 H 100.14 v 1 z m 0,-2 v -1 H 100.14 v 1 z m 0,-2 v -1 H 100.14 v 1 z m 0,-2 v -1 H 100.14 v 1 z m 0,-2 v -1 H 100.14 v 1 z m 0,-2 v -1 H 100.14 v 1 z m 0,-2 v -1 H 100.14 v 1 z m 0,-2 v -1 H 100.14 v 1 z m 0,-2 v -1 H 100.14 v 1 z m 0,-2 v -1 H 100.14 v 1 z m 0,-2 v -1 H 100.14 v 1 z m 0,-2 v -1 H 100.14 v 1 z m 0,-2 v -1 H 100.14 v 1 z m 0,-2 v -1 H 100.14 v 1 z m 0,-2 v -1 H 100.14 v 1 z m 0,-2 v -1 H 100.14 v 1 z m 0,-2 v -1 H 100.14 v 1 z m 0,-2 v -1 H 100.14 v 1 z m 0,-2 v -1 H 100.14 v 1 z m 0,-2 v -1 H 100.14 v 1 z m 0,-2 V 98 H 100.14 v 1 z m 0,-2 V 96 H 100.14 v 1 z m 0,-2 V 94 H 100.14 v 1 z m 0,-2 V 92 H 100.14 v 1 z m 0,-2 V 90 H 100.14 v 1 z m 0,-2 V 88 H 100.14 v 1 z m 0,-2 V 86 H 100.14 v 1 z m 0,-2 V 84 H 100.14 v 1 z m 0,-2 V 82 H 100.14 v 1 z m 0,-2 V 80 H 100.14 v 1 z m 0,-2 V 78 H 100.14 v 1 z m 0,-2 V 76 H 100.14 v 1 z m 0,-2 V 74 H 100.14 v 1 z m 0,-2 V 72 H 100.14 v 1 z m 0,-2 V 70 H 100.14 v 1 z m 0,-2 V 68 H 100.14 v 1 z m 0,-2 V 66 H 100.14 v 1 z m 0,-2 V 64 H 100.14 v 1 z m 0,-2 V 62 H 100.14 v 1 z m 0,-2 V 60 H 100.14 v 1 z m 0,-2 V 58 H 100.14 v 1 z m 0,-2 V 56 H 100.14 v 1 z m 0,-2 V 54 H 100.14 v 1 z m 0,-2 V 52 H 100.14 v 1 z m 0,-2 V 50 H 100.14 v 1 z m 0,-2 V 48 H 100.14 v 1 z m 0,-2 V 46 H 100.14 v 1 z m 0,-2 V 44 H 100.14 v 1 z m 0,-2 V 42 H 100.14 v 1 z m 0,-2 V 40 H 100.14 v 1 z m 0,-2 V 38 H 100.14 v 1 z m 0,-2 V 36 H 100.14 v 1 z m 0,-2 V 34 H 100.14 v 1 z m 0,-2 V 32 H 100.14 v 1 z m 0,-2 V 30 H 100.14 v 1 z m 0,-2 V 28 H 100.14 v 1 z m 0,-2 V 26 H 100.14 v 1 z m 0,-2 V 24 H 100.14 v 1 z m 0,-2 V 22 H 100.14 v 1 z m 0.5,-2.5 H 100.64 v 1 h -1.000001 z" /><path
             id="path8061"
             style="fill:#000000;fill-opacity:1;fill-rule:nonzero;stroke:none"
             d="m 250.64,20.5 h 1 v 1 h -1 z m 2,0 h 1 v 1 h -1 z m 2,0 h 1 v 1 h -1 z m 1.99998,0 h 1.00003 v 1 h -1.00003 z m 2.00003,0 h 1 v 1 h -1 z m 2,0 h 1 v 1 h -1 z m 2,0 h 1 v 1 h -1 z m 1.99997,0 h 1.00003 v 1 h -1.00003 z m 2.00003,0 h 1 v 1 h -1 z m 2,0 h 1 v 1 h -1 z m 2,0 h 1 v 1 h -1 z m 2,0 h 1 v 1 h -1 z m 2,0 h 1 v 1 h -1 z m 2,0 h 1 v 1 h -1 z m 2,0 h 1 v 1 h -1 z m 1.99997,0 h 1.00003 v 1 h -1.00003 z m 2.00003,0 h 1 v 1 h -1 z m 2,0 h 1 v 1 h -1 z m 2,0 h 1 v 1 h -1 z m 2,0 h 1 v 1 h -1 z m 2,0 h 1 v 1 h -1 z m 2,0 h 1 v 1 h -1 z m 2,0 h 1 v 1 h -1 z m 2,0 h 1 v 1 h -1 z m 2,0 h 1 v 1 h -1 z m 2,0 h 1 v 1 h -1 z m 2,0 h 1 v 1 h -1 z m 2,0 h 1 v 1 h -1 z m 2,0 h 1 v 1 h -1 z m 2,0 h 1 v 1 h -1 z m 2,0 h 1 v 1 h -1 z m 1.99997,0 h 1.00003 v 1 h -1.00003 z m 2.00003,0 h 1 v 1 h -1 z m 2,0 h 1 v 1 h -1 z m 2,0 h 1 v 1 h -1 z m 2,0 h 1 v 1 h -1 z m 2,0 h 1 v 1 h -1 z m 2,0 h 1 v 1 h -1 z m 2,0 h 1 v 1 h -1 z m 2,0 h 1 v 1 h -1 z m 2,0 h 1 v 1 h -1 z m 2,0 h 1 v 1 h -1 z m 2,0 h 1 v 1 h -1 z m 2,0 h 1 v 1 h -1 z m 2,0 h 1 v 1 h -1 z m 2,0 h 1 v 1 h -1 z m 2,0 h 1 v 1 h -1 z m 2,0 h 1 v 1 h -1 z m 2,0 h 1 v 1 h -1 z m 2,0 h 1 v 1 h -1 z m 2,0 h 1 v 1 h -1 z m 2,0 h 1 v 1 h -1 z m 2,0 h 1 v 1 h -1 z m 2,0 h 1 v 1 h -1 z m 2,0 h 1 v 1 h -1 z m 2,0 h 1 v 1 h -1 z m 2,0 h 1 v 1 h -1 z m 2,0 h 1 v 1 h -1 z m 2,0 h 1 v 1 h -1 z m 2,0 h 1 v 1 h -1 z m 2,0 h 1 v 1 h -1 z m 2,0 h 1 v 1 h -1 z m 2.5,0.5 v 0.999985 h -1 V 21 Z m 0,1.999985 v 1 h -1 v -1 z m 0,2 v 1 h -1 v -1 z m 0,2 v 1 h -1 v -1 z m 0,2 v 1 h -1 v -1 z m 0,2 v 1 h -1 v -1 z m 0,2 v 1 h -1 v -1 z m 0,2 v 1 h -1 v -1 z m 0,2 v 1 h -1 v -1 z m 0,2 v 1 h -1 v -1 z m 0,2 v 1 h -1 v -1 z m 0,2 v 1 h -1 v -1 z m 0,2 v 1 h -1 v -1 z m 0,2 v 1 h -1 v -1 z m 0,2 v 1 h -1 v -1 z m 0,2.000004 v 0.999996 h -1 v -0.999996 z m 0,2 v 1 h -1 v -1 z m 0,2 v 1 h -1 v -1 z m 0,2 v 1 h -1 v -1 z m 0,2 v 1 h -1 v -1 z m 0,2 v 1 h -1 v -1 z m 0,2 v 1 h -1 v -1 z m 0,1.999996 v 1 h -1 v -1 z m 0,2 v 1 h -1 v -1 z m 0,2 v 1 h -1 v -1 z m 0,2.000007 v 0.999993 h -1 v -0.999993 z m 0,1.999993 v 1 h -1 v -1 z m 0,2.000007 v 0.999993 h -1 v -0.999993 z m 0,1.999993 v 1 h -1 v -1 z m 0,2.000007 v 0.999993 h -1 v -0.999993 z m 0,1.999993 v 1 h -1 v -1 z m 0,2.000007 v 0.999993 h -1 v -0.999993 z m 0,1.999993 v 1.000007 h -1 v -1.000007 z m 0,2.000007 v 1 h -1 v -1 z m 0,1.999993 v 1.000007 h -1 v -1.000007 z m 0,2.000007 v 1 h -1 v -1 z m 0,1.999993 v 1.000007 h -1 v -1.000007 z m 0,2.000007 v 1 h -1 v -1 z m 0,1.999993 v 1.000007 h -1 v -1.000007 z m 0,2.000007 v 1 h -1 v -1 z m 0,1.999998 v 1 h -1 v -1 z m 0,2 v 1 h -1 v -1 z m 0,2 v 1 h -1 v -1 z m 0,2 v 1 h -1 v -1 z m 0,2 v 1 h -1 v -1 z m 0,2 v 1 h -1 v -1 z m 0,2 v 1 h -1 v -1 z m 0,2 v 1 h -1 v -1 z m 0,2 v 1 h -1 v -1 z m 0,2 V 120 h -1 v -1.00001 z m 0,2 v 1 h -1 v -1 z m 0,2.00001 v 0.99999 h -1 V 123 Z m 0,1.99999 v 1 h -1 v -1 z m 0,2 V 128 h -1 v -1.00001 z m 0,2.00001 v 1 h -1 v -1 z m 0,2 v 1 h -1 v -1 z m 0,1.99998 V 134 h -1 v -1.00002 z m 0,2.00002 v 1 h -1 v -1 z m 0,2 v 1 h -1 v -1 z m 0,2 v 1 h -1 v -1 z m 0,2 v 1 h -1 v -1 z m 0,2 v 1 h -1 v -1 z m 0,2 v 1 h -1 v -1 z m 0,2 v 1 h -1 v -1 z m 0,2 v 1 h -1 v -1 z m 0,1.99998 V 152 h -1 v -1.00002 z m 0,2.00002 v 1 h -1 v -1 z m 0,2 v 1 h -1 v -1 z m 0,2 v 1 h -1 v -1 z m 0,1.99998 V 160 h -1 v -1.00002 z m 0,2.00002 v 1 h -1 v -1 z m 0,2 v 1 h -1 v -1 z m 0,2 v 1 h -1 v -1 z m 0,1.99998 V 168 h -1 v -1.00002 z m 0,2.00002 v 1 h -1 v -1 z m 0,2 v 0.99998 h -1 V 171 Z m 0,2 v 1 h -1 v -1 z m 0,2 v 1 h -1 v -1 z m 0,2 v 1 h -1 v -1 z m 0,2 v 0.99998 h -1 V 179 Z m 0,2 v 1 h -1 v -1 z m 0,2 v 1 h -1 v -1 z m 0,2 v 1 h -1 v -1 z m 0,2 v 1 h -1 v -1 z m 0,2 v 1 h -1 v -1 z m 0,2 v 1 h -1 v -1 z m 0,2 v 1 h -1 v -1 z m 0,2 v 1 h -1 v -1 z m 0,2 v 1 h -1 v -1 z m 0,2 v 1 h -1 v -1 z m 0,2 v 1 h -1 v -1 z m 0,2 v 1 h -1 v -1 z m 0,2 v 1 h -1 v -1 z m 0,2 v 1 h -1 v -1 z m 0,2 v 1 h -1 v -1 z m 0,2 v 1 h -1 v -1 h 0.5 v 0.5 h -0.5 V 211 Z m -2,1 h -1 v -1 h 1 z m -2,0 h -1 v -1 h 1 z m -2,0 h -1 v -1 h 1 z m -2,0 h -1 v -1 h 1 z m -2,0 h -1 v -1 h 1 z m -2,0 h -1 v -1 h 1 z m -2,0 h -1 v -1 h 1 z m -2,0 h -1 v -1 h 1 z m -2,0 h -1 v -1 h 1 z m -2,0 h -1 v -1 h 1 z m -2,0 h -1 v -1 h 1 z m -2,0 h -1 v -1 h 1 z m -2,0 h -1 v -1 h 1 z m -2,0 h -1 v -1 h 1 z m -2,0 h -1 v -1 h 1 z m -2,0 h -1 v -1 h 1 z m -2,0 h -1 v -1 h 1 z m -2,0 h -1 v -1 h 1 z m -2,0 h -1 v -1 h 1 z m -2,0 h -1 v -1 h 1 z m -2,0 h -1 v -1 h 1 z m -2,0 h -1 v -1 h 1 z m -2,0 h -1 v -1 h 1 z m -2,0 h -1 v -1 h 1 z m -2,0 h -1 v -1 h 1 z m -2,0 h -1 v -1 h 1 z m -2,0 h -1 v -1 h 1 z m -2,0 h -1 v -1 h 1 z m -2,0 h -1 v -1 h 1 z m -2,0 h -1 v -1 h 1 z m -2,0 h -1 v -1 h 1 z m -2,0 h -1 v -1 h 1 z m -2,0 h -1 v -1 h 1 z m -2,0 h -1 v -1 h 1 z m -2,0 h -1 v -1 h 1 z m -2,0 h -1 v -1 h 1 z m -2,0 h -1 v -1 h 1 z m -2,0 h -1 v -1 h 1 z m -2,0 h -1 v -1 h 1 z m -2,0 h -1 v -1 h 1 z m -2,0 h -1 v -1 h 1 z m -2,0 h -1 v -1 h 1 z m -2,0 h -1 v -1 h 1 z m -2,0 h -1 v -1 h 1 z m -2,0 h -1 v -1 h 1 z m -2,0 h -1 v -1 h 1 z m -2,0 h -1 v -1 h 1 z m -2,0 h -1 v -1 h 1 z m -2,0 h -1 v -1 h 1 z m -2,0 h -1 v -1 h 1 z m -2,0 h -1 v -1 h 1 z m -2,0 h -1 v -1 h 1 z m -2,0 h -1 v -1 h 1 z m -2,0 h -1 v -1 h 1 z m -2,0 h -1 v -1 h 1 z m -2,0 h -1 v -1 h 1 z m -2,0 h -1 v -1 h 1 z m -2,0 h -1 v -1 h 1 z m -2,0 h -1 v -1 h 1 z m -2.00001,0 h -1 v -1 h 1 z m -2,0 h -1 v -1 h 1 z m -2,0 h -1 v -1 h 1 z m -2,0 h -1 v -1 h 1 v 0.5 h -0.5 V 211 h 0.5 z m -1,-2 v -1 h 1 v 1 z m 0,-2 v -1 h 1 v 1 z m 0,-2 v -1 h 1 v 1 z m 0,-2 v -1 h 1 v 1 z m 0,-2 v -1 h 1 v 1 z m 0,-2 v -1 h 1 v 1 z m 0,-2 v -1 h 1 v 1 z m 0,-2 v -1 h 1 v 1 z m 0,-2 v -1 h 1 v 1 z m 0,-2 v -1 h 1 v 1 z m 0,-2 v -1 h 1 v 1 z m 0,-2 v -1 h 1 v 1 z m 0,-2 v -1 h 1 v 1 z m 0,-2 v -1 h 1 v 1 z m 0,-2 v -1 h 1 v 1 z m 0,-2 v -1 h 1 v 1 z m 0,-2 v -1 h 1 v 1 z m 0,-2 v -1 h 1 v 1 z m 0,-2 v -1 h 1 v 1 z m 0,-2 v -1 h 1 v 1 z m 0,-2 v -1 h 1 v 1 z m 0,-2 v -1 h 1 v 1 z m 0,-2 v -1 h 1 v 1 z m 0,-2 v -1 h 1 v 1 z m 0,-2 v -1 h 1 v 1 z m 0,-2 v -1 h 1 v 1 z m 0,-2 v -1 h 1 v 1 z m 0,-2 v -1 h 1 v 1 z m 0,-2 v -1 h 1 v 1 z m 0,-2 v -1 h 1 v 1 z m 0,-2 v -1 h 1 v 1 z m 0,-2 v -1 h 1 v 1 z m 0,-2 v -1 h 1 v 1 z m 0,-2 v -1 h 1 v 1 z m 0,-2 v -1 h 1 v 1 z m 0,-2 v -1 h 1 v 1 z m 0,-2 v -1 h 1 v 1 z m 0,-2 v -1 h 1 v 1 z m 0,-2 v -1 h 1 v 1 z m 0,-2 v -1 h 1 v 1 z m 0,-2 v -1 h 1 v 1 z m 0,-2 v -1 h 1 v 1 z m 0,-2 v -1 h 1 v 1 z m 0,-2 v -1 h 1 v 1 z m 0,-2 v -1 h 1 v 1 z m 0,-2 v -1 h 1 v 1 z m 0,-2 v -1 h 1 v 1 z m 0,-1.99999 V 115 h 1 v 1.00001 z m 0,-2.00001 v -0.99999 h 1 V 114 Z m 0,-2 v -1 h 1 v 1 z m 0,-2.00001 V 109 h 1 v 0.99999 z m 0,-1.99998 V 107 h 1 v 1.00001 z m 0,-2.00001 v -0.99999 h 1 V 106 Z m 0,-2 v -1 h 1 v 1 z m 0,-2.00001 V 101 h 1 v 0.99999 z m 0,-1.99998 V 99 h 1 v 1.00001 z M 248.14,98 v -0.999992 h 1 V 98 Z m 0,-2 v -1 h 1 v 1 z m 0,-2.000008 V 93 h 1 v 0.999992 z m 0,-1.999984 V 91 h 1 v 1.000008 z M 248.14,90 v -0.999992 h 1 V 90 Z m 0,-2 v -1 h 1 v 1 z m 0,-2.000008 V 85 h 1 v 0.999992 z m 0,-1.999984 V 83 h 1 v 1.000008 z M 248.14,82 v -1 h 1 v 1 z m 0,-2 v -1 h 1 v 1 z m 0,-2 v -1 h 1 v 1 z m 0,-2 v -1 h 1 v 1 z m 0,-2 v -1 h 1 v 1 z m 0,-2 v -1 h 1 v 1 z m 0,-2 v -1 h 1 v 1 z m 0,-2 v -1 h 1 v 1 z m 0,-2 v -1 h 1 v 1 z m 0,-2 v -1 h 1 v 1 z m 0,-2 v -1 h 1 v 1 z m 0,-2 v -1 h 1 v 1 z m 0,-2 v -1 h 1 v 1 z m 0,-2 v -1 h 1 v 1 z m 0,-2 v -1 h 1 v 1 z m 0,-2 v -1 h 1 v 1 z m 0,-2 v -1 h 1 v 1 z m 0,-2 v -1 h 1 v 1 z m 0,-2 v -1 h 1 v 1 z m 0,-2 v -1 h 1 v 1 z m 0,-2 v -1 h 1 v 1 z m 0,-2 v -1 h 1 v 1 z m 0,-2 v -1 h 1 v 1 z m 0,-2 v -1 h 1 v 1 z m 0,-2 v -1 h 1 v 1 z m 0,-2 v -1 h 1 v 1 z m 0,-2 v -1 h 1 v 1 z m 0,-2 v -1 h 1 v 1 z m 0,-2 v -1 h 1 v 1 z m 0,-2 v -1 h 1 v 1 z m 0,-2 v -1.5 h 1.5 v 1 h -1 V 21 h 0.5 v 1 z" /><path
             id="path8063"
             style="fill:#ff9933;fill-opacity:1;fill-rule:nonzero;stroke:none"
             d="m 150,189 c -2e-5,0.66302 -0.12689,1.30083 -0.38063,1.91339 -0.25374,0.61257 -0.61502,1.15328 -1.08385,1.62213 -0.46885,0.46883 -1.00955,0.83011 -1.62211,1.08385 -0.61257,0.25374 -1.25037,0.38061 -1.91341,0.38063 -0.66304,-2e-5 -1.30086,-0.12689 -1.91344,-0.38063 -0.61256,-0.25374 -1.15327,-0.61502 -1.6221,-1.08385 -0.46886,-0.46885 -0.83014,-1.00956 -1.08388,-1.62213 C 140.12685,190.30083 139.99998,189.66302 140,189 c -2e-5,-0.66304 0.12685,-1.30086 0.38058,-1.91342 0.25374,-0.61258 0.61502,-1.15329 1.08388,-1.62212 0.46883,-0.46884 1.00954,-0.83014 1.6221,-1.08388 C 143.69914,184.12686 144.33696,184 145,184 c 0.66304,0 1.30084,0.12686 1.91341,0.38058 0.61256,0.25374 1.15326,0.61504 1.62211,1.08388 0.46883,0.46883 0.83011,1.00954 1.08385,1.6221 0.25374,0.61258 0.38061,1.2504 0.38063,1.91344 z" /><path
             id="path8065"
             style="fill:#f4f4f4;fill-opacity:1;fill-rule:nonzero;stroke:none"
             d="m 150.07655,191.11629 c -0.15005,0.35992 -0.33627,0.70006 -0.55867,1.0204 l -0.82144,-0.57028 c 0.18196,-0.26209 0.33432,-0.54039 0.45711,-0.83492 z m -1.33597,1.91583 c -0.29026,0.26926 -0.60591,0.50444 -0.94689,0.70555 l -0.50803,-0.86136 c 0.27908,-0.16459 0.53737,-0.35705 0.77487,-0.57734 z m -1.99295,1.18282 c -0.34817,0.11671 -0.70448,0.19772 -1.06893,0.24302 l -0.12336,-0.99237 c 0.29814,-0.0371 0.58963,-0.10333 0.87445,-0.19881 z m -2.10397,0.27351 c -0.35966,-0.0234 -0.71362,-0.0815 -1.06184,-0.17444 l 0.25784,-0.96619 c 0.28493,0.076 0.57454,0.12362 0.86882,0.14273 l -0.0648,0.9979 z m -2.12279,-0.57886 c -0.35136,-0.17741 -0.67987,-0.3901 -0.98555,-0.63804 l 0.62998,-0.77665 c 0.2501,0.20287 0.51887,0.37688 0.80632,0.52202 z m -1.82142,-1.481 c -0.24517,-0.30751 -0.45491,-0.6375 -0.62928,-0.98996 l 0.89634,-0.44339 c 0.14265,0.28838 0.31427,0.55836 0.51486,0.80997 z m -1.02446,-2.05228 c -0.09,-0.34804 -0.14527,-0.70154 -0.16593,-1.06051 l 0.99836,-0.0575 c 0.0169,0.29369 0.0622,0.58293 0.13577,0.86774 l -0.9682,0.25024 z m -0.12766,-2.0963 c 0.0482,-0.36488 0.13213,-0.72132 0.25188,-1.06935 l 0.94559,0.32535 c -0.098,0.28473 -0.16666,0.57636 -0.20607,0.87489 z m 0.73839,-2.11296 c 0.20406,-0.33955 0.44203,-0.65342 0.71393,-0.94159 l 0.72732,0.68628 c -0.22244,0.23575 -0.41714,0.49254 -0.5841,0.77039 z m 1.61551,-1.71101 c 0.32185,-0.21951 0.66315,-0.40273 1.02386,-0.54962 l 0.37717,0.92615 c -0.29512,0.12019 -0.57431,0.27006 -0.83758,0.44961 z m 2.09341,-0.86339 C 144.3269,183.53088 144.66203,183.5 145,183.5 l 0.038,1.4e-4 -0.004,1 L 145,184.5 c -0.27654,0 -0.55074,0.0253 -0.82259,0.0758 l -0.18277,-0.98316 z m 2.09411,0.0162 c 0.36756,0.0742 0.72383,0.18488 1.06878,0.33202 l -0.39233,0.91983 c -0.28221,-0.12038 -0.57367,-0.21091 -0.87436,-0.27162 z m 2.08573,0.89975 c 0.32471,0.22952 0.62105,0.49118 0.88904,0.78496 l -0.7388,0.67392 c -0.21928,-0.2404 -0.46176,-0.4545 -0.72745,-0.64229 z m 1.58626,1.73726 c 0.19267,0.33305 0.34868,0.68246 0.46803,1.04826 l -0.95068,0.31021 c -0.0977,-0.29936 -0.22534,-0.58526 -0.38295,-0.85774 z m 0.70218,2.11661 c 0.0247,0.21177 0.0371,0.42428 0.0371,0.63754 0,0.35222 -0.0335,0.70125 -0.10059,1.04706 l -0.98172,-0.19037 c 0.0549,-0.28296 0.0823,-0.56853 0.0823,-0.85669 0,-0.17448 -0.0101,-0.34834 -0.0303,-0.52161 l 0.99325,-0.11593 z" /></g><g
           transform="scale(2.9954393)"
           id="g8067"><path
             id="path8069"
             style="fill:#ff1736;fill-opacity:1;fill-rule:nonzero;stroke:none"
             d="m 380.14001,22 c -3e-5,0.663038 -0.12692,1.300844 -0.38064,1.913414 -0.25375,0.61257 -0.61505,1.153275 -1.08386,1.622116 -0.46884,0.46884 -1.00956,0.830126 -1.62213,1.083862 -0.61258,0.253737 -1.25037,0.380606 -1.91337,0.380608 -0.66305,-2e-6 -1.30087,-0.126871 -1.91345,-0.380608 -0.61258,-0.253736 -1.15326,-0.615022 -1.6221,-1.083862 -0.46887,-0.468841 -0.83017,-1.009546 -1.08389,-1.622116 -0.25375,-0.61257 -0.38059,-1.250376 -0.38056,-1.913414 -3e-5,-0.663042 0.12684,-1.300848 0.38059,-1.91342 0.25369,-0.61257 0.61499,-1.153276 1.08386,-1.622116 0.46884,-0.468839 1.00952,-0.830128 1.6221,-1.083862 C 373.83914,17.126867 374.47696,17 375.14001,17 c 0.663,0 1.30082,0.126867 1.9134,0.3806 0.61254,0.253736 1.15326,0.615025 1.6221,1.083864 0.46881,0.46884 0.83011,1.009546 1.08386,1.622116 0.25372,0.612572 0.38061,1.250378 0.38064,1.91342 z" /><path
             id="path8071"
             style="fill:none;stroke:#4d4d4d;stroke-width:1;stroke-linecap:butt;stroke-linejoin:miter;stroke-miterlimit:10;stroke-dasharray:none;stroke-opacity:1"
             d="m 380.14001,22 c -3e-5,0.663038 -0.12692,1.300844 -0.38064,1.913414 -0.25375,0.61257 -0.61505,1.153275 -1.08386,1.622116 -0.46884,0.46884 -1.00956,0.830126 -1.62213,1.083862 -0.61258,0.253737 -1.25037,0.380606 -1.91337,0.380608 -0.66305,-2e-6 -1.30087,-0.126871 -1.91345,-0.380608 -0.61258,-0.253736 -1.15326,-0.615022 -1.6221,-1.083862 -0.46887,-0.468841 -0.83017,-1.009546 -1.08389,-1.622116 -0.25375,-0.61257 -0.38059,-1.250376 -0.38056,-1.913414 -3e-5,-0.663042 0.12684,-1.300848 0.38059,-1.91342 0.25369,-0.61257 0.61499,-1.153276 1.08386,-1.622116 0.46884,-0.468839 1.00952,-0.830128 1.6221,-1.083862 C 373.83914,17.126867 374.47696,17 375.14001,17 c 0.663,0 1.30082,0.126867 1.9134,0.3806 0.61254,0.253736 1.15326,0.615025 1.6221,1.083864 0.46881,0.46884 0.83011,1.009546 1.08386,1.622116 0.25372,0.612572 0.38061,1.250378 0.38064,1.91342 z" /><text
             id="text8075"
             style="font-variant:normal;font-weight:bold;font-size:12px;font-family:Helvetica;-inkscape-font-specification:Helvetica-Bold;writing-mode:lr-tb;fill:#4d4d4d;fill-opacity:1;fill-rule:nonzero;stroke:none"
             transform="translate(130.54687,206)"><tspan
               id="tspan8073"
               y="0"
               x="0">z</tspan></text>
<text
             id="text8079"
             style="font-variant:normal;font-weight:bold;font-size:10px;font-family:Helvetica;-inkscape-font-specification:Helvetica-Bold;writing-mode:lr-tb;fill:#4d4d4d;fill-opacity:1;fill-rule:nonzero;stroke:none"
             transform="translate(136.54687,201)"><tspan
               id="tspan8077"
               y="0"
               x="0">*</tspan></text>
</g></g></g></g></svg>