<?xml version="1.0" encoding="UTF-8" standalone="no"?>
<svg
   xmlns:dc="http://purl.org/dc/elements/1.1/"
   xmlns:cc="http://creativecommons.org/ns#"
   xmlns:rdf="http://www.w3.org/1999/02/22-rdf-syntax-ns#"
   xmlns:svg="http://www.w3.org/2000/svg"
   xmlns="http://www.w3.org/2000/svg"
   viewBox="0 0 290.56 252.16"
   height="252.16"
   width="290.56"
   xml:space="preserve"
   id="svg9903"
   version="1.1"><metadata
     id="metadata9909"><rdf:RDF><cc:Work
         rdf:about=""><dc:format>image/svg+xml</dc:format><dc:type
           rdf:resource="http://purl.org/dc/dcmitype/StillImage" /><dc:title></dc:title></cc:Work></rdf:RDF></metadata><defs
     id="defs9907"><clipPath
       id="clipPath9919"
       clipPathUnits="userSpaceOnUse"><path
         style="clip-rule:evenodd"
         id="path9917"
         d="M 0,0 H 908.33331 V 785.42352 H 0 Z" /></clipPath><clipPath
       id="clipPath9931"
       clipPathUnits="userSpaceOnUse"><path
         style="clip-rule:evenodd"
         id="path9929"
         d="M 0,0 H 908.33331 V 785.42352 H 0 Z" /></clipPath></defs><g
     transform="matrix(0.31999998,0,0,0.31999998,0,6.304e-6)"
     id="g9911"><g
       id="g9913"><g
         clip-path="url(#clipPath9919)"
         id="g9915"><g
           transform="scale(2.9977996)"
           id="g9921"><path
             id="path9923"
             style="fill:#ffffff;fill-opacity:1;fill-rule:nonzero;stroke:none"
             d="M 0,0 H 303 V 262 H 0 Z" /></g></g></g><g
       id="g9925"><g
         clip-path="url(#clipPath9931)"
         id="g9927"><g
           transform="matrix(2.9977996,0,0,2.9977996,1.4988998,1.4988998)"
           id="g9933"><path
             id="path9935"
             style="fill:none;stroke:#333333;stroke-width:1;stroke-linecap:butt;stroke-linejoin:miter;stroke-miterlimit:10;stroke-dasharray:none;stroke-opacity:1"
             d="m 61,101 v 31.88" /><path
             id="path9937"
             style="fill:#333333;fill-opacity:1;fill-rule:nonzero;stroke:none"
             d="m 61,139.88 -2.330002,-7 h 4.660004 z" /><path
             id="path9939"
             style="fill:none;stroke:#333333;stroke-width:1;stroke-linecap:butt;stroke-linejoin:miter;stroke-miterlimit:10;stroke-dasharray:none;stroke-opacity:1"
             d="m 61,139.88 -2.330002,-7 h 4.660004 z" /><path
             id="path9941"
             style="fill:none;stroke:#333333;stroke-width:1;stroke-linecap:butt;stroke-linejoin:miter;stroke-miterlimit:10;stroke-dasharray:none;stroke-opacity:1"
             d="M 61,21 V 52.880001" /><path
             id="path9943"
             style="fill:#333333;fill-opacity:1;fill-rule:nonzero;stroke:none"
             d="m 61,59.880001 -2.330002,-7 h 4.660004 z" /><path
             id="path9945"
             style="fill:none;stroke:#333333;stroke-width:1;stroke-linecap:butt;stroke-linejoin:miter;stroke-miterlimit:10;stroke-dasharray:none;stroke-opacity:1"
             d="m 61,59.880001 -2.330002,-7 h 4.660004 z" /><path
             id="path9947"
             style="fill:#ffffff;fill-opacity:1;fill-rule:nonzero;stroke:none"
             d="m 7,61 h 108 c 0.39396,0 0.78414,0.03843 1.17053,0.115284 0.38639,0.07686 0.76158,0.190674 1.12556,0.341434 0.36398,0.150765 0.70975,0.335583 1.03732,0.554459 0.32757,0.218876 0.63065,0.467602 0.90923,0.746178 0.27857,0.278572 0.5273,0.581642 0.74617,0.909214 0.21888,0.327572 0.40369,0.673351 0.55446,1.037327 0.15076,0.363975 0.26458,0.739166 0.34143,1.125557 C 120.96157,66.215851 121,66.606033 121,67 v 28 c 0,0.393959 -0.0384,0.784142 -0.1153,1.170532 -0.0768,0.386399 -0.19066,0.761582 -0.34143,1.125557 -0.15076,0.363976 -0.33558,0.709755 -0.55446,1.037323 -0.21887,0.327568 -0.4676,0.630638 -0.74617,0.909226 -0.27858,0.278572 -0.58166,0.527298 -0.90923,0.74617 -0.32757,0.218882 -0.67334,0.403692 -1.03732,0.554462 -0.36398,0.15076 -0.73917,0.26457 -1.12556,0.34143 C 115.78414,100.96157 115.39396,101 115,101 H 7 C 6.6060343,101 6.2158532,100.9616 5.8294573,100.8847 5.4430618,100.8078 5.0678754,100.69403 4.7038984,100.54327 4.3399215,100.3925 3.9941483,100.20769 3.6665781,99.988808 3.3390076,99.769936 3.0359347,99.52121 2.757359,99.242638 2.4787834,98.96405 2.2300577,98.66098 2.0111821,98.333412 1.7923065,98.005844 1.6074866,97.660065 1.4567225,97.296089 1.3059584,96.932114 1.192147,96.556931 1.1152883,96.170532 1.0384294,95.784142 0.99999994,95.393959 1,95 V 67 c -6e-8,-0.393967 0.038429,-0.784149 0.1152883,-1.170547 C 1.192147,65.443062 1.3059584,65.067871 1.4567225,64.703896 1.6074866,64.33992 1.7923065,63.994144 2.0111821,63.666573 2.2300577,63.339001 2.4787834,63.035927 2.757359,62.757355 3.0359347,62.478779 3.3390076,62.230053 3.6665778,62.011177 3.994148,61.792301 4.3399215,61.607483 4.7038984,61.456718 5.0678754,61.305958 5.4430618,61.192146 5.8294573,61.115284 6.2158532,61.038429 6.6060343,61 7,61 Z" /><path
             id="path9949"
             style="fill:none;stroke:#000000;stroke-width:1;stroke-linecap:butt;stroke-linejoin:miter;stroke-miterlimit:10;stroke-dasharray:none;stroke-opacity:1"
             d="m 7,61 h 108 c 0.39396,0 0.78414,0.03843 1.17053,0.115284 0.38639,0.07686 0.76158,0.190674 1.12556,0.341434 0.36398,0.150765 0.70975,0.335583 1.03732,0.554459 0.32757,0.218876 0.63065,0.467602 0.90923,0.746178 0.27857,0.278572 0.5273,0.581642 0.74617,0.909214 0.21888,0.327572 0.40369,0.673351 0.55446,1.037327 0.15076,0.363975 0.26458,0.739166 0.34143,1.125557 C 120.96157,66.215851 121,66.606033 121,67 v 28 c 0,0.393959 -0.0384,0.784142 -0.1153,1.170532 -0.0768,0.386399 -0.19066,0.761582 -0.34143,1.125557 -0.15076,0.363976 -0.33558,0.709755 -0.55446,1.037323 -0.21887,0.327568 -0.4676,0.630638 -0.74617,0.909226 -0.27858,0.278572 -0.58166,0.527298 -0.90923,0.74617 -0.32757,0.218882 -0.67334,0.403692 -1.03732,0.554462 -0.36398,0.15076 -0.73917,0.26457 -1.12556,0.34143 C 115.78414,100.96157 115.39396,101 115,101 H 7 C 6.6060343,101 6.2158532,100.9616 5.8294573,100.8847 5.4430618,100.8078 5.0678754,100.69403 4.7038984,100.54327 4.3399215,100.3925 3.9941483,100.20769 3.6665781,99.988808 3.3390076,99.769936 3.0359347,99.52121 2.757359,99.242638 2.4787834,98.96405 2.2300577,98.66098 2.0111821,98.333412 1.7923065,98.005844 1.6074866,97.660065 1.4567225,97.296089 1.3059584,96.932114 1.192147,96.556931 1.1152883,96.170532 1.0384294,95.784142 0.99999994,95.393959 1,95 V 67 c -6e-8,-0.393967 0.038429,-0.784149 0.1152883,-1.170547 C 1.192147,65.443062 1.3059584,65.067871 1.4567225,64.703896 1.6074866,64.33992 1.7923065,63.994144 2.0111821,63.666573 2.2300577,63.339001 2.4787834,63.035927 2.757359,62.757355 3.0359347,62.478779 3.3390076,62.230053 3.6665778,62.011177 3.994148,61.792301 4.3399215,61.607483 4.7038984,61.456718 5.0678754,61.305958 5.4430618,61.192146 5.8294573,61.115284 6.2158532,61.038429 6.6060343,61 7,61 Z" /></g><g
           transform="scale(2.9977996)"
           id="g9951"><text
             id="text9955"
             style="font-variant:normal;font-weight:normal;font-size:12px;font-family:Helvetica;-inkscape-font-specification:Helvetica;writing-mode:lr-tb;fill:#333333;fill-opacity:1;fill-rule:nonzero;stroke:none"
             transform="translate(8.296875,86)"><tspan
               id="tspan9953"
               y="0"
               x="0 3.3339844 10.007812 12.673828 16.007812 18.673828 25.347656 28.013672 31.347656 37.347656 44.021484 54.017578 60.691406 63.357422 66.023438 72.697266 79.371094 82.705078 89.378906 92.044922 98.71875">Initial sampling plan</tspan></text>
</g><g
           transform="matrix(2.9977996,0,0,2.9977996,1.4988998,1.4988998)"
           id="g9957"><path
             id="path9959"
             style="fill:none;stroke:#333333;stroke-width:1;stroke-linecap:butt;stroke-linejoin:miter;stroke-miterlimit:10;stroke-dasharray:none;stroke-opacity:1"
             d="m 61,181 v 31.88" /><path
             id="path9961"
             style="fill:#333333;fill-opacity:1;fill-rule:nonzero;stroke:none"
             d="m 61,219.88 -2.330002,-7 h 4.660004 z" /><path
             id="path9963"
             style="fill:none;stroke:#333333;stroke-width:1;stroke-linecap:butt;stroke-linejoin:miter;stroke-miterlimit:10;stroke-dasharray:none;stroke-opacity:1"
             d="m 61,219.88 -2.330002,-7 h 4.660004 z" /><path
             id="path9965"
             style="fill:#ffffff;fill-opacity:1;fill-rule:nonzero;stroke:none"
             d="m 7,141 h 108 c 0.39396,0 0.78414,0.0384 1.17053,0.11528 0.38639,0.0769 0.76158,0.19067 1.12556,0.34143 0.36398,0.15076 0.70975,0.33557 1.03732,0.55446 0.32757,0.21889 0.63065,0.4676 0.90923,0.74618 0.27857,0.27858 0.5273,0.58165 0.74617,0.90921 0.21888,0.32758 0.40369,0.67336 0.55446,1.03733 0.15076,0.36398 0.26458,0.73916 0.34143,1.12556 C 120.9616,146.21585 121,146.60603 121,147 v 28 c 0,0.39397 -0.0384,0.78415 -0.1153,1.17055 -0.0768,0.3864 -0.19066,0.76156 -0.34143,1.12553 -0.15076,0.36397 -0.33558,0.70975 -0.55446,1.03732 -0.21887,0.32758 -0.4676,0.63065 -0.74617,0.90923 -0.27858,0.27856 -0.58166,0.52728 -0.90923,0.74617 -0.32757,0.21887 -0.67334,0.40369 -1.03732,0.55446 -0.36398,0.15076 -0.73917,0.26457 -1.12556,0.34143 C 115.78414,180.96155 115.39396,180.99998 115,181 H 7 c -0.3939657,-2e-5 -0.7841468,-0.0385 -1.1705427,-0.11533 -0.3863955,-0.0769 -0.7615819,-0.19065 -1.1255589,-0.34143 C 4.3399215,180.39247 3.9941483,180.20766 3.6665781,179.98878 3.3390076,179.76991 3.0359347,179.52119 2.757359,179.24263 2.4787834,178.96405 2.2300577,178.66098 2.0111821,178.3334 1.7923065,178.00583 1.6074866,177.66005 1.4567225,177.29608 1.3059584,176.93211 1.192147,176.55693 1.1152883,176.17053 1.0384294,175.78415 0.99999994,175.39397 1,175 v -28 c -6e-8,-0.39397 0.038429,-0.78415 0.1152883,-1.17055 0.076859,-0.3864 0.1906701,-0.76158 0.3414342,-1.12556 0.1507641,-0.36397 0.335584,-0.70975 0.5544596,-1.03733 0.2188756,-0.32756 0.4676013,-0.63063 0.7461769,-0.90921 0.2785757,-0.27858 0.5816486,-0.52729 0.9092188,-0.74618 0.3275702,-0.21889 0.6733437,-0.4037 1.0373206,-0.55446 0.363977,-0.15076 0.7391634,-0.26457 1.1255589,-0.34143 C 6.2158532,141.03842 6.6060343,141 7,141 Z" /><path
             id="path9967"
             style="fill:none;stroke:#000000;stroke-width:1;stroke-linecap:butt;stroke-linejoin:miter;stroke-miterlimit:10;stroke-dasharray:none;stroke-opacity:1"
             d="m 7,141 h 108 c 0.39396,0 0.78414,0.0384 1.17053,0.11528 0.38639,0.0769 0.76158,0.19067 1.12556,0.34143 0.36398,0.15076 0.70975,0.33557 1.03732,0.55446 0.32757,0.21889 0.63065,0.4676 0.90923,0.74618 0.27857,0.27858 0.5273,0.58165 0.74617,0.90921 0.21888,0.32758 0.40369,0.67336 0.55446,1.03733 0.15076,0.36398 0.26458,0.73916 0.34143,1.12556 C 120.9616,146.21585 121,146.60603 121,147 v 28 c 0,0.39397 -0.0384,0.78415 -0.1153,1.17055 -0.0768,0.3864 -0.19066,0.76156 -0.34143,1.12553 -0.15076,0.36397 -0.33558,0.70975 -0.55446,1.03732 -0.21887,0.32758 -0.4676,0.63065 -0.74617,0.90923 -0.27858,0.27856 -0.58166,0.52728 -0.90923,0.74617 -0.32757,0.21887 -0.67334,0.40369 -1.03732,0.55446 -0.36398,0.15076 -0.73917,0.26457 -1.12556,0.34143 C 115.78414,180.96155 115.39396,180.99998 115,181 H 7 c -0.3939657,-2e-5 -0.7841468,-0.0385 -1.1705427,-0.11533 -0.3863955,-0.0769 -0.7615819,-0.19065 -1.1255589,-0.34143 C 4.3399215,180.39247 3.9941483,180.20766 3.6665781,179.98878 3.3390076,179.76991 3.0359347,179.52119 2.757359,179.24263 2.4787834,178.96405 2.2300577,178.66098 2.0111821,178.3334 1.7923065,178.00583 1.6074866,177.66005 1.4567225,177.29608 1.3059584,176.93211 1.192147,176.55693 1.1152883,176.17053 1.0384294,175.78415 0.99999994,175.39397 1,175 v -28 c -6e-8,-0.39397 0.038429,-0.78415 0.1152883,-1.17055 0.076859,-0.3864 0.1906701,-0.76158 0.3414342,-1.12556 0.1507641,-0.36397 0.335584,-0.70975 0.5544596,-1.03733 0.2188756,-0.32756 0.4676013,-0.63063 0.7461769,-0.90921 0.2785757,-0.27858 0.5816486,-0.52729 0.9092188,-0.74618 0.3275702,-0.21889 0.6733437,-0.4037 1.0373206,-0.55446 0.363977,-0.15076 0.7391634,-0.26457 1.1255589,-0.34143 C 6.2158532,141.03842 6.6060343,141 7,141 Z" /></g><g
           transform="scale(2.9977996)"
           id="g9969"><text
             id="text9973"
             style="font-variant:normal;font-weight:normal;font-size:12px;font-family:Helvetica;-inkscape-font-specification:Helvetica;writing-mode:lr-tb;fill:#333333;fill-opacity:1;fill-rule:nonzero;stroke:none"
             transform="translate(45.984375,159)"><tspan
               id="tspan9971"
               y="0"
               x="0 8.0039062 14.677734 17.34375 20.009766 26.683594">Build </tspan></text>
<text
             id="text9977"
             style="font-variant:normal;font-weight:normal;font-size:12px;font-family:Helvetica;-inkscape-font-specification:Helvetica;writing-mode:lr-tb;fill:#333333;fill-opacity:1;fill-rule:nonzero;stroke:none"
             transform="translate(17.640625,173)"><tspan
               id="tspan9975"
               y="0"
               x="0 6 12.673828 16.669922 20.666016 27.339844 34.013672 40.6875 44.021484 50.695312 54.029297 64.025391 70.699219 77.373047 84.046875">surrogate model</tspan></text>
</g><g
           transform="matrix(2.9977996,0,0,2.9977996,1.4988998,1.4988998)"
           id="g9979"><path
             id="path9981"
             style="fill:none;stroke:#333333;stroke-width:1;stroke-linecap:butt;stroke-linejoin:miter;stroke-miterlimit:10;stroke-dasharray:none;stroke-opacity:1"
             d="m 121,241 h 51.88" /><path
             id="path9983"
             style="fill:#333333;fill-opacity:1;fill-rule:nonzero;stroke:none"
             d="m 179.88,241 -7,2.33 v -4.66 z" /><path
             id="path9985"
             style="fill:none;stroke:#333333;stroke-width:1;stroke-linecap:butt;stroke-linejoin:miter;stroke-miterlimit:10;stroke-dasharray:none;stroke-opacity:1"
             d="m 179.88,241 -7,2.33 v -4.66 z" /><path
             id="path9987"
             style="fill:#ffffff;fill-opacity:1;fill-rule:nonzero;stroke:none"
             d="m 7,221 h 108 c 0.39396,0 0.78414,0.0384 1.17053,0.11526 0.38639,0.0769 0.76158,0.19069 1.12556,0.34144 0.36398,0.15077 0.70975,0.33558 1.03732,0.55445 0.32757,0.21889 0.63065,0.46761 0.90923,0.74619 0.27857,0.27856 0.5273,0.58163 0.74617,0.90919 0.21888,0.32758 0.40369,0.67336 0.55446,1.03734 0.15076,0.36397 0.26458,0.73917 0.34143,1.12557 C 120.9616,226.21584 121,226.60603 121,227 v 28 c 0,0.39395 -0.0384,0.78412 -0.1153,1.1705 -0.0768,0.38638 -0.19066,0.7616 -0.34143,1.12558 -0.15076,0.36398 -0.33558,0.70975 -0.55446,1.03729 -0.21887,0.32758 -0.4676,0.63065 -0.74617,0.90924 -0.27858,0.2786 -0.58166,0.52732 -0.90923,0.74616 -0.32757,0.21887 -0.67334,0.40369 -1.03732,0.55447 -0.36398,0.15079 -0.73917,0.26459 -1.12556,0.34146 C 115.78414,260.9615 115.39396,260.99997 115,261 L 7,261 c -0.3939657,-3e-5 -0.7841468,-0.0385 -1.1705427,-0.11533 -0.3863955,-0.0768 -0.7615819,-0.19064 -1.1255589,-0.34143 -0.3639769,-0.15078 -0.7097501,-0.3356 -1.0373203,-0.55447 C 3.3390076,259.76993 3.0359347,259.52121 2.757359,259.24261 2.4787834,258.96402 2.2300577,258.66095 2.0111821,258.33337 1.7923065,258.00583 1.6074866,257.66006 1.4567225,257.29608 1.3059584,256.9321 1.192147,256.55692 1.1152883,256.17053 1.0384294,255.78413 0.99999994,255.39395 1,255 v -28 c -6e-8,-0.39397 0.038429,-0.78416 0.1152883,-1.17056 0.076859,-0.3864 0.1906701,-0.7616 0.3414342,-1.12557 0.1507641,-0.36398 0.335584,-0.70976 0.5544596,-1.03734 0.2188756,-0.32756 0.4676013,-0.63063 0.7461769,-0.90919 0.2785757,-0.27858 0.5816486,-0.5273 0.9092188,-0.74617 0.3275702,-0.21889 0.6733437,-0.4037 1.0373206,-0.55446 0.363977,-0.15076 0.7391634,-0.26457 1.1255589,-0.34143 C 6.2158532,221.03842 6.6060343,221 7,221 Z" /><path
             id="path9989"
             style="fill:none;stroke:#000000;stroke-width:1;stroke-linecap:butt;stroke-linejoin:miter;stroke-miterlimit:10;stroke-dasharray:none;stroke-opacity:1"
             d="m 7,221 h 108 c 0.39396,0 0.78414,0.0384 1.17053,0.11526 0.38639,0.0769 0.76158,0.19069 1.12556,0.34144 0.36398,0.15077 0.70975,0.33558 1.03732,0.55445 0.32757,0.21889 0.63065,0.46761 0.90923,0.74619 0.27857,0.27856 0.5273,0.58163 0.74617,0.90919 0.21888,0.32758 0.40369,0.67336 0.55446,1.03734 0.15076,0.36397 0.26458,0.73917 0.34143,1.12557 C 120.9616,226.21584 121,226.60603 121,227 v 28 c 0,0.39395 -0.0384,0.78412 -0.1153,1.1705 -0.0768,0.38638 -0.19066,0.7616 -0.34143,1.12558 -0.15076,0.36398 -0.33558,0.70975 -0.55446,1.03729 -0.21887,0.32758 -0.4676,0.63065 -0.74617,0.90924 -0.27858,0.2786 -0.58166,0.52732 -0.90923,0.74616 -0.32757,0.21887 -0.67334,0.40369 -1.03732,0.55447 -0.36398,0.15079 -0.73917,0.26459 -1.12556,0.34146 C 115.78414,260.9615 115.39396,260.99997 115,261 L 7,261 c -0.3939657,-3e-5 -0.7841468,-0.0385 -1.1705427,-0.11533 -0.3863955,-0.0768 -0.7615819,-0.19064 -1.1255589,-0.34143 -0.3639769,-0.15078 -0.7097501,-0.3356 -1.0373203,-0.55447 C 3.3390076,259.76993 3.0359347,259.52121 2.757359,259.24261 2.4787834,258.96402 2.2300577,258.66095 2.0111821,258.33337 1.7923065,258.00583 1.6074866,257.66006 1.4567225,257.29608 1.3059584,256.9321 1.192147,256.55692 1.1152883,256.17053 1.0384294,255.78413 0.99999994,255.39395 1,255 v -28 c -6e-8,-0.39397 0.038429,-0.78416 0.1152883,-1.17056 0.076859,-0.3864 0.1906701,-0.7616 0.3414342,-1.12557 0.1507641,-0.36398 0.335584,-0.70976 0.5544596,-1.03734 0.2188756,-0.32756 0.4676013,-0.63063 0.7461769,-0.90919 0.2785757,-0.27858 0.5816486,-0.5273 0.9092188,-0.74617 0.3275702,-0.21889 0.6733437,-0.4037 1.0373206,-0.55446 0.363977,-0.15076 0.7391634,-0.26457 1.1255589,-0.34143 C 6.2158532,221.03842 6.6060343,221 7,221 Z" /></g><g
           transform="scale(2.9977996)"
           id="g9991"><text
             id="text9995"
             style="font-variant:normal;font-weight:normal;font-size:12px;font-family:Helvetica;-inkscape-font-specification:Helvetica;writing-mode:lr-tb;fill:#333333;fill-opacity:1;fill-rule:nonzero;stroke:none"
             transform="translate(7.96875,246)"><tspan
               id="tspan9993"
               y="0"
               x="0 9.3339844 16.007812 19.341797 22.007812 32.003906 34.669922 40.669922 47.34375 50.677734 53.34375 60.017578 66.691406 70.025391 76.025391 82.699219 89.373047 93.369141 99.369141">Optimization search</tspan></text>
</g><g
           transform="matrix(2.9977996,0,0,2.9977996,1.4988998,1.4988998)"
           id="g9997"><path
             id="path9999"
             style="fill:none;stroke:#333333;stroke-width:1;stroke-linecap:butt;stroke-linejoin:miter;stroke-miterlimit:10;stroke-dasharray:none;stroke-opacity:1"
             d="M 241,221 V 189.12" /><path
             id="path10001"
             style="fill:#333333;fill-opacity:1;fill-rule:nonzero;stroke:none"
             d="m 241,182.12 2.33,7 h -4.66 z" /><path
             id="path10003"
             style="fill:none;stroke:#333333;stroke-width:1;stroke-linecap:butt;stroke-linejoin:miter;stroke-miterlimit:10;stroke-dasharray:none;stroke-opacity:1"
             d="m 241,182.12 2.33,7 h -4.66 z" /><path
             id="path10005"
             style="fill:#ffffff;fill-opacity:1;fill-rule:nonzero;stroke:none"
             d="m 187,221 h 108 c 0.39395,0 0.78412,0.0384 1.1705,0.11526 0.38638,0.0769 0.76157,0.19069 1.12555,0.34144 0.36398,0.15077 0.70975,0.33558 1.03729,0.55445 0.32758,0.21889 0.63068,0.46761 0.90927,0.74619 0.27854,0.27856 0.52726,0.58163 0.74613,0.90919 0.2189,0.32758 0.40372,0.67336 0.55447,1.03734 0.15076,0.36397 0.26459,0.73917 0.34146,1.12557 0.0769,0.3864 0.1153,0.77659 0.11533,1.17056 v 28 c -3e-5,0.39395 -0.0385,0.78412 -0.11533,1.1705 -0.0769,0.38638 -0.1907,0.7616 -0.34146,1.12558 -0.15075,0.36398 -0.33557,0.70975 -0.55447,1.03729 -0.21887,0.32758 -0.46759,0.63065 -0.74613,0.90924 -0.27859,0.2786 -0.58169,0.52732 -0.90927,0.74616 -0.32754,0.21887 -0.67331,0.40369 -1.03729,0.55447 -0.36398,0.15079 -0.73917,0.26459 -1.12555,0.34146 -0.38638,0.0768 -0.77655,0.11527 -1.1705,0.1153 H 187 c -0.39398,-3e-5 -0.78418,-0.0385 -1.17058,-0.11533 -0.3864,-0.0768 -0.76158,-0.19064 -1.12555,-0.34143 -0.36397,-0.15078 -0.70974,-0.3356 -1.03732,-0.55447 -0.32756,-0.21884 -0.63063,-0.46756 -0.9092,-0.74616 -0.27857,-0.27859 -0.52731,-0.58166 -0.7462,-0.90924 -0.21888,-0.32754 -0.4037,-0.67331 -0.55445,-1.03729 -0.15076,-0.36398 -0.26458,-0.73916 -0.34144,-1.12555 C 181.03841,255.78413 180.99998,255.39395 181,255 v -28 c -2e-5,-0.39397 0.0384,-0.78416 0.11525,-1.17056 0.0769,-0.3864 0.19067,-0.7616 0.34143,-1.12557 0.15077,-0.36398 0.33559,-0.70976 0.55447,-1.03734 0.21889,-0.32756 0.46763,-0.63063 0.7462,-0.90919 0.27857,-0.27858 0.58164,-0.5273 0.9092,-0.74617 0.32758,-0.21889 0.67335,-0.4037 1.03734,-0.55446 0.36397,-0.15076 0.73915,-0.26457 1.12555,-0.34143 C 186.21584,221.03842 186.60602,221 187,221 Z" /><path
             id="path10007"
             style="fill:none;stroke:#000000;stroke-width:1;stroke-linecap:butt;stroke-linejoin:miter;stroke-miterlimit:10;stroke-dasharray:none;stroke-opacity:1"
             d="m 187,221 h 108 c 0.39395,0 0.78412,0.0384 1.1705,0.11526 0.38638,0.0769 0.76157,0.19069 1.12555,0.34144 0.36398,0.15077 0.70975,0.33558 1.03729,0.55445 0.32758,0.21889 0.63068,0.46761 0.90927,0.74619 0.27854,0.27856 0.52726,0.58163 0.74613,0.90919 0.2189,0.32758 0.40372,0.67336 0.55447,1.03734 0.15076,0.36397 0.26459,0.73917 0.34146,1.12557 0.0769,0.3864 0.1153,0.77659 0.11533,1.17056 v 28 c -3e-5,0.39395 -0.0385,0.78412 -0.11533,1.1705 -0.0769,0.38638 -0.1907,0.7616 -0.34146,1.12558 -0.15075,0.36398 -0.33557,0.70975 -0.55447,1.03729 -0.21887,0.32758 -0.46759,0.63065 -0.74613,0.90924 -0.27859,0.2786 -0.58169,0.52732 -0.90927,0.74616 -0.32754,0.21887 -0.67331,0.40369 -1.03729,0.55447 -0.36398,0.15079 -0.73917,0.26459 -1.12555,0.34146 -0.38638,0.0768 -0.77655,0.11527 -1.1705,0.1153 H 187 c -0.39398,-3e-5 -0.78418,-0.0385 -1.17058,-0.11533 -0.3864,-0.0768 -0.76158,-0.19064 -1.12555,-0.34143 -0.36397,-0.15078 -0.70974,-0.3356 -1.03732,-0.55447 -0.32756,-0.21884 -0.63063,-0.46756 -0.9092,-0.74616 -0.27857,-0.27859 -0.52731,-0.58166 -0.7462,-0.90924 -0.21888,-0.32754 -0.4037,-0.67331 -0.55445,-1.03729 -0.15076,-0.36398 -0.26458,-0.73916 -0.34144,-1.12555 C 181.03841,255.78413 180.99998,255.39395 181,255 v -28 c -2e-5,-0.39397 0.0384,-0.78416 0.11525,-1.17056 0.0769,-0.3864 0.19067,-0.7616 0.34143,-1.12557 0.15077,-0.36398 0.33559,-0.70976 0.55447,-1.03734 0.21889,-0.32756 0.46763,-0.63063 0.7462,-0.90919 0.27857,-0.27858 0.58164,-0.5273 0.9092,-0.74617 0.32758,-0.21889 0.67335,-0.4037 1.03734,-0.55446 0.36397,-0.15076 0.73915,-0.26457 1.12555,-0.34143 C 186.21584,221.03842 186.60602,221 187,221 Z" /></g><g
           transform="scale(2.9977996)"
           id="g10009"><text
             id="text10013"
             style="font-variant:normal;font-weight:normal;font-size:12px;font-family:Helvetica;-inkscape-font-specification:Helvetica;writing-mode:lr-tb;fill:#333333;fill-opacity:1;fill-rule:nonzero;stroke:none"
             transform="translate(194.65625,239)"><tspan
               id="tspan10011"
               y="0"
               x="0 8.0039062 12 18.673828 25.347656 28.013672 34.013672 37.347656 40.681641 47.355469 51.351562 58.025391 68.021484 70.6875 76.6875 79.353516 86.027344">Predict promising</tspan></text>
<text
             id="text10017"
             style="font-variant:normal;font-weight:normal;font-size:12px;font-family:Helvetica;-inkscape-font-specification:Helvetica;writing-mode:lr-tb;fill:#333333;fill-opacity:1;fill-rule:nonzero;stroke:none"
             transform="translate(227.98438,253)"><tspan
               id="tspan10015"
               y="0"
               x="0 6.6738281 13.347656 16.013672 22.6875">point</tspan></text>
</g><g
           transform="matrix(2.9977996,0,0,2.9977996,1.4988998,1.4988998)"
           id="g10019"><path
             id="path10021"
             style="fill:none;stroke:#333333;stroke-width:1;stroke-linecap:butt;stroke-linejoin:miter;stroke-miterlimit:10;stroke-dasharray:none;stroke-opacity:1"
             d="M 241,141 V 109.12" /><path
             id="path10023"
             style="fill:#333333;fill-opacity:1;fill-rule:nonzero;stroke:none"
             d="m 241,102.12 2.33,7 h -4.66 z" /><path
             id="path10025"
             style="fill:none;stroke:#333333;stroke-width:1;stroke-linecap:butt;stroke-linejoin:miter;stroke-miterlimit:10;stroke-dasharray:none;stroke-opacity:1"
             d="m 241,102.12 2.33,7 h -4.66 z" /><path
             id="path10027"
             style="fill:#ffffff;fill-opacity:1;fill-rule:nonzero;stroke:none"
             d="m 187,141 h 108 c 0.39395,0 0.78412,0.0384 1.1705,0.11528 0.38638,0.0769 0.76157,0.19067 1.12555,0.34143 0.36398,0.15076 0.70975,0.33557 1.03729,0.55446 0.32758,0.21889 0.63068,0.4676 0.90927,0.74618 0.27854,0.27858 0.52726,0.58165 0.74613,0.90921 0.2189,0.32758 0.40372,0.67336 0.55447,1.03733 0.15076,0.36398 0.26459,0.73916 0.34146,1.12556 0.0769,0.3864 0.1153,0.77658 0.11533,1.17055 v 28 c -3e-5,0.39397 -0.0385,0.78415 -0.11533,1.17055 -0.0769,0.3864 -0.1907,0.76156 -0.34146,1.12553 -0.15075,0.36397 -0.33557,0.70975 -0.55447,1.03732 -0.21887,0.32758 -0.46759,0.63065 -0.74613,0.90923 -0.27859,0.27856 -0.58169,0.52728 -0.90927,0.74617 -0.32754,0.21887 -0.67331,0.40369 -1.03729,0.55446 -0.36398,0.15076 -0.73917,0.26457 -1.12555,0.34143 -0.38638,0.0769 -0.77655,0.11529 -1.1705,0.11531 H 187 c -0.39398,-2e-5 -0.78418,-0.0385 -1.17058,-0.11533 -0.3864,-0.0769 -0.76158,-0.19065 -1.12555,-0.34143 -0.36397,-0.15077 -0.70974,-0.33558 -1.03732,-0.55446 -0.32756,-0.21887 -0.63063,-0.46759 -0.9092,-0.74615 -0.27857,-0.27858 -0.52731,-0.58165 -0.7462,-0.90923 -0.21888,-0.32757 -0.4037,-0.67335 -0.55445,-1.03732 -0.15076,-0.36397 -0.26458,-0.73915 -0.34144,-1.12555 C 181.03841,175.78415 180.99998,175.39397 181,175 v -28 c -2e-5,-0.39397 0.0384,-0.78415 0.11525,-1.17055 0.0769,-0.3864 0.19067,-0.76158 0.34143,-1.12556 0.15077,-0.36397 0.33559,-0.70975 0.55447,-1.03733 0.21889,-0.32756 0.46763,-0.63063 0.7462,-0.90921 0.27857,-0.27858 0.58164,-0.52729 0.9092,-0.74618 0.32758,-0.21889 0.67335,-0.4037 1.03734,-0.55446 0.36397,-0.15076 0.73915,-0.26457 1.12555,-0.34143 C 186.21584,141.03842 186.60602,141 187,141 Z" /><path
             id="path10029"
             style="fill:none;stroke:#000000;stroke-width:1;stroke-linecap:butt;stroke-linejoin:miter;stroke-miterlimit:10;stroke-dasharray:none;stroke-opacity:1"
             d="m 187,141 h 108 c 0.39395,0 0.78412,0.0384 1.1705,0.11528 0.38638,0.0769 0.76157,0.19067 1.12555,0.34143 0.36398,0.15076 0.70975,0.33557 1.03729,0.55446 0.32758,0.21889 0.63068,0.4676 0.90927,0.74618 0.27854,0.27858 0.52726,0.58165 0.74613,0.90921 0.2189,0.32758 0.40372,0.67336 0.55447,1.03733 0.15076,0.36398 0.26459,0.73916 0.34146,1.12556 0.0769,0.3864 0.1153,0.77658 0.11533,1.17055 v 28 c -3e-5,0.39397 -0.0385,0.78415 -0.11533,1.17055 -0.0769,0.3864 -0.1907,0.76156 -0.34146,1.12553 -0.15075,0.36397 -0.33557,0.70975 -0.55447,1.03732 -0.21887,0.32758 -0.46759,0.63065 -0.74613,0.90923 -0.27859,0.27856 -0.58169,0.52728 -0.90927,0.74617 -0.32754,0.21887 -0.67331,0.40369 -1.03729,0.55446 -0.36398,0.15076 -0.73917,0.26457 -1.12555,0.34143 -0.38638,0.0769 -0.77655,0.11529 -1.1705,0.11531 H 187 c -0.39398,-2e-5 -0.78418,-0.0385 -1.17058,-0.11533 -0.3864,-0.0769 -0.76158,-0.19065 -1.12555,-0.34143 -0.36397,-0.15077 -0.70974,-0.33558 -1.03732,-0.55446 -0.32756,-0.21887 -0.63063,-0.46759 -0.9092,-0.74615 -0.27857,-0.27858 -0.52731,-0.58165 -0.7462,-0.90923 -0.21888,-0.32757 -0.4037,-0.67335 -0.55445,-1.03732 -0.15076,-0.36397 -0.26458,-0.73915 -0.34144,-1.12555 C 181.03841,175.78415 180.99998,175.39397 181,175 v -28 c -2e-5,-0.39397 0.0384,-0.78415 0.11525,-1.17055 0.0769,-0.3864 0.19067,-0.76158 0.34143,-1.12556 0.15077,-0.36397 0.33559,-0.70975 0.55447,-1.03733 0.21889,-0.32756 0.46763,-0.63063 0.7462,-0.90921 0.27857,-0.27858 0.58164,-0.52729 0.9092,-0.74618 0.32758,-0.21889 0.67335,-0.4037 1.03734,-0.55446 0.36397,-0.15076 0.73915,-0.26457 1.12555,-0.34143 C 186.21584,141.03842 186.60602,141 187,141 Z" /></g><g
           transform="scale(2.9977996)"
           id="g10031"><text
             id="text10035"
             style="font-variant:normal;font-weight:normal;font-size:12px;font-family:Helvetica;-inkscape-font-specification:Helvetica;writing-mode:lr-tb;fill:#333333;fill-opacity:1;fill-rule:nonzero;stroke:none"
             transform="translate(198.29688,159)"><tspan
               id="tspan10033"
               y="0"
               x="0 8.0039062 14.003906 20.677734 23.34375 30.017578 36.691406 40.025391 42.691406 49.365234 56.039062 62.039062 65.373047 72.046875 78.720703">Evaluations and</tspan></text>
<text
             id="text10039"
             style="font-variant:normal;font-weight:normal;font-size:12px;font-family:Helvetica;-inkscape-font-specification:Helvetica;writing-mode:lr-tb;fill:#333333;fill-opacity:1;fill-rule:nonzero;stroke:none"
             transform="translate(196.96875,173)"><tspan
               id="tspan10037"
               y="0"
               x="0 6.6738281 13.347656 20.021484 26.695312 30.029297 36.703125 40.037109 46.037109 52.710938 62.707031 69.380859 72.046875 78.720703 84.720703">update samples </tspan></text>
</g><g
           transform="matrix(2.9977996,0,0,2.9977996,1.4988998,1.4988998)"
           id="g10041"><path
             id="path10043"
             style="fill:none;stroke:#333333;stroke-width:1;stroke-linecap:butt;stroke-linejoin:miter;stroke-miterlimit:10;stroke-dasharray:none;stroke-opacity:1"
             d="m 181,81 h -30 v 40 H 69.120003" /><path
             id="path10045"
             style="fill:#333333;fill-opacity:1;fill-rule:nonzero;stroke:none"
             d="m 62.119999,121 7.000004,-2.33 v 4.66 z" /><path
             id="path10047"
             style="fill:none;stroke:#333333;stroke-width:1;stroke-linecap:butt;stroke-linejoin:miter;stroke-miterlimit:10;stroke-dasharray:none;stroke-opacity:1"
             d="m 62.119999,121 7.000004,-2.33 v 4.66 z" /></g><g
           transform="scale(2.9977996)"
           id="g10049"><path
             id="path10051"
             style="fill:#ffffff;fill-opacity:1;fill-rule:nonzero;stroke:none"
             d="m 145,94 h 15 v 18 h -15 z" /><text
             id="text10055"
             style="font-variant:normal;font-weight:normal;font-size:12px;font-family:Helvetica;-inkscape-font-specification:Helvetica;writing-mode:lr-tb;fill:#333333;fill-opacity:1;fill-rule:nonzero;stroke:none"
             transform="translate(144.82813,108)"><tspan
               id="tspan10053"
               y="0"
               x="0 8.6660156">No</tspan></text>
</g><g
           transform="matrix(2.9977996,0,0,2.9977996,1.4988998,1.4988998)"
           id="g10057"><path
             id="path10059"
             style="fill:none;stroke:#333333;stroke-width:1;stroke-linecap:butt;stroke-linejoin:miter;stroke-miterlimit:10;stroke-dasharray:none;stroke-opacity:1"
             d="M 241,61 V 41 h 0.2 V 29.120001" /><path
             id="path10061"
             style="fill:#333333;fill-opacity:1;fill-rule:nonzero;stroke:none"
             d="m 241.2,22.120001 2.33,7 h -4.66 z" /><path
             id="path10063"
             style="fill:none;stroke:#333333;stroke-width:1;stroke-linecap:butt;stroke-linejoin:miter;stroke-miterlimit:10;stroke-dasharray:none;stroke-opacity:1"
             d="m 241.2,22.120001 2.33,7 h -4.66 z" /></g><g
           transform="scale(2.9977996)"
           id="g10065"><path
             id="path10067"
             style="fill:#ffffff;fill-opacity:1;fill-rule:nonzero;stroke:none"
             d="m 232,33 h 19 v 18 h -19 z" /><text
             id="text10071"
             style="font-variant:normal;font-weight:normal;font-size:12px;font-family:Helvetica;-inkscape-font-specification:Helvetica;writing-mode:lr-tb;fill:#333333;fill-opacity:1;fill-rule:nonzero;stroke:none"
             transform="translate(231.71875,47)"><tspan
               id="tspan10069"
               y="0"
               x="0 6.9023438 13.576172">Yes</tspan></text>
</g><g
           transform="matrix(2.9977996,0,0,2.9977996,1.4988998,1.4988998)"
           id="g10073"><path
             id="path10075"
             style="fill:#ffffff;fill-opacity:1;fill-rule:nonzero;stroke:none"
             d="m 187,61 h 108 c 0.39395,0 0.78412,0.03843 1.1705,0.115284 0.38638,0.07686 0.76157,0.190674 1.12555,0.341434 0.36398,0.150765 0.70975,0.335583 1.03729,0.554459 0.32758,0.218876 0.63068,0.467602 0.90927,0.746178 0.27854,0.278572 0.52726,0.581642 0.74613,0.909214 0.2189,0.327572 0.40372,0.673351 0.55447,1.037327 0.15076,0.363975 0.26459,0.739166 0.34146,1.125557 0.0769,0.386398 0.1153,0.77658 0.11533,1.170547 v 28 c -3e-5,0.393959 -0.0385,0.784142 -0.11533,1.170532 -0.0769,0.386399 -0.1907,0.761582 -0.34146,1.125557 -0.15075,0.363976 -0.33557,0.709755 -0.55447,1.037323 -0.21887,0.327568 -0.46759,0.630638 -0.74613,0.909226 -0.27859,0.278572 -0.58169,0.527298 -0.90927,0.74617 -0.32754,0.218882 -0.67331,0.403692 -1.03729,0.554462 -0.36398,0.15076 -0.73917,0.26457 -1.12555,0.34143 C 295.78412,100.96157 295.39395,101 295,101 H 187 c -0.39398,0 -0.78418,-0.0384 -1.17058,-0.1153 -0.3864,-0.0769 -0.76158,-0.19067 -1.12555,-0.34143 -0.36397,-0.15077 -0.70974,-0.33558 -1.03732,-0.554462 -0.32756,-0.218872 -0.63063,-0.467598 -0.9092,-0.74617 -0.27857,-0.278588 -0.52731,-0.581658 -0.7462,-0.909226 -0.21888,-0.327568 -0.4037,-0.673347 -0.55445,-1.037323 -0.15076,-0.363975 -0.26458,-0.739158 -0.34144,-1.125557 C 181.03841,95.784142 180.99998,95.393959 181,95 V 67 c -2e-5,-0.393967 0.0384,-0.784149 0.11525,-1.170547 0.0769,-0.386391 0.19067,-0.761582 0.34143,-1.125557 0.15077,-0.363976 0.33559,-0.709752 0.55447,-1.037323 0.21889,-0.327572 0.46763,-0.630646 0.7462,-0.909218 0.27857,-0.278576 0.58164,-0.527302 0.9092,-0.746178 0.32758,-0.218876 0.67335,-0.403694 1.03734,-0.554459 0.36397,-0.15076 0.73915,-0.264572 1.12555,-0.341434 C 186.21584,61.038429 186.60602,61 187,61 Z" /><path
             id="path10077"
             style="fill:none;stroke:#000000;stroke-width:1;stroke-linecap:butt;stroke-linejoin:miter;stroke-miterlimit:10;stroke-dasharray:none;stroke-opacity:1"
             d="m 187,61 h 108 c 0.39395,0 0.78412,0.03843 1.1705,0.115284 0.38638,0.07686 0.76157,0.190674 1.12555,0.341434 0.36398,0.150765 0.70975,0.335583 1.03729,0.554459 0.32758,0.218876 0.63068,0.467602 0.90927,0.746178 0.27854,0.278572 0.52726,0.581642 0.74613,0.909214 0.2189,0.327572 0.40372,0.673351 0.55447,1.037327 0.15076,0.363975 0.26459,0.739166 0.34146,1.125557 0.0769,0.386398 0.1153,0.77658 0.11533,1.170547 v 28 c -3e-5,0.393959 -0.0385,0.784142 -0.11533,1.170532 -0.0769,0.386399 -0.1907,0.761582 -0.34146,1.125557 -0.15075,0.363976 -0.33557,0.709755 -0.55447,1.037323 -0.21887,0.327568 -0.46759,0.630638 -0.74613,0.909226 -0.27859,0.278572 -0.58169,0.527298 -0.90927,0.74617 -0.32754,0.218882 -0.67331,0.403692 -1.03729,0.554462 -0.36398,0.15076 -0.73917,0.26457 -1.12555,0.34143 C 295.78412,100.96157 295.39395,101 295,101 H 187 c -0.39398,0 -0.78418,-0.0384 -1.17058,-0.1153 -0.3864,-0.0769 -0.76158,-0.19067 -1.12555,-0.34143 -0.36397,-0.15077 -0.70974,-0.33558 -1.03732,-0.554462 -0.32756,-0.218872 -0.63063,-0.467598 -0.9092,-0.74617 -0.27857,-0.278588 -0.52731,-0.581658 -0.7462,-0.909226 -0.21888,-0.327568 -0.4037,-0.673347 -0.55445,-1.037323 -0.15076,-0.363975 -0.26458,-0.739158 -0.34144,-1.125557 C 181.03841,95.784142 180.99998,95.393959 181,95 V 67 c -2e-5,-0.393967 0.0384,-0.784149 0.11525,-1.170547 0.0769,-0.386391 0.19067,-0.761582 0.34143,-1.125557 0.15077,-0.363976 0.33559,-0.709752 0.55447,-1.037323 0.21889,-0.327572 0.46763,-0.630646 0.7462,-0.909218 0.27857,-0.278576 0.58164,-0.527302 0.9092,-0.746178 0.32758,-0.218876 0.67335,-0.403694 1.03734,-0.554459 0.36397,-0.15076 0.73915,-0.264572 1.12555,-0.341434 C 186.21584,61.038429 186.60602,61 187,61 Z" /></g><g
           transform="scale(2.9977996)"
           id="g10079"><text
             id="text10083"
             style="font-variant:normal;font-weight:normal;font-size:12px;font-family:Helvetica;-inkscape-font-specification:Helvetica;writing-mode:lr-tb;fill:#333333;fill-opacity:1;fill-rule:nonzero;stroke:none"
             transform="translate(208.98438,86)"><tspan
               id="tspan10081"
               y="0"
               x="0 8.0039062 11.337891 18.011719 24.685547 28.019531 34.019531 38.015625 40.681641 44.015625 50.689453 54.685547 57.351562">Stop criteria</tspan></text>
</g><g
           transform="matrix(2.9977996,0,0,2.9977996,1.4988998,1.4988998)"
           id="g10085"><path
             id="path10087"
             style="fill:#ffffff;fill-opacity:1;fill-rule:nonzero;stroke:none"
             d="m 251,11 c -2e-5,0.656609 -0.0641,1.30691 -0.19218,1.950903 -0.1281,0.643992 -0.3178,1.269302 -0.56907,1.875931 -0.25126,0.606627 -0.55931,1.182916 -0.9241,1.728866 -0.36479,0.54595 -0.77933,1.051073 -1.24361,1.515368 -0.46429,0.464292 -0.96942,0.878834 -1.51538,1.243625 -0.54594,0.364794 -1.12222,0.672827 -1.72885,0.924101 -0.60661,0.251273 -1.23193,0.440958 -1.87593,0.569056 C 242.30688,20.935949 241.6566,20.999998 241,21 c -0.65662,-2e-6 -1.30692,-0.06405 -1.95091,-0.19215 -0.644,-0.128098 -1.26932,-0.317783 -1.87595,-0.569056 -0.60661,-0.251274 -1.18291,-0.559307 -1.72887,-0.924101 -0.54594,-0.364791 -1.05107,-0.779333 -1.51535,-1.243625 -0.46431,-0.464295 -0.87886,-0.969418 -1.24365,-1.515368 -0.36479,-0.54595 -0.67283,-1.122239 -0.9241,-1.728866 -0.25127,-0.606629 -0.44095,-1.231939 -0.56905,-1.875931 C 231.06404,12.30691 231,11.656609 231,11 c 0,-0.656609 0.064,-1.3069115 0.19214,-1.9509039 0.1281,-0.6439934 0.31776,-1.2693038 0.56903,-1.8759313 0.25127,-0.6066279 0.55931,-1.1829171 0.92412,-1.7288675 0.36479,-0.5459509 0.77932,-1.0510726 1.24363,-1.5153653 0.46428,-0.4642931 0.96941,-0.878836 1.51537,-1.2436286 0.54594,-0.3647925 1.12224,-0.6728255 1.72885,-0.9240989 0.60663,-0.2512735 1.23195,-0.4409592 1.87595,-0.5690574 C 239.69308,1.064049 240.34338,1 241,1 c 0.6566,0 1.30688,0.064049 1.95087,0.1921473 0.64401,0.128098 1.26933,0.3177838 1.87594,0.5690573 0.60663,0.2512733 1.18293,0.5593063 1.72887,0.9240988 0.54594,0.3647926 1.05107,0.7793355 1.51536,1.2436286 0.46428,0.4642927 0.87882,0.9694144 1.24361,1.5153653 0.36479,0.5459504 0.67284,1.1222396 0.9241,1.7288675 0.25127,0.6066275 0.44097,1.2319379 0.56907,1.8759313 C 250.93591,9.6930885 250.99998,10.343391 251,11 Z" /><path
             id="path10089"
             style="fill:none;stroke:#333333;stroke-width:1;stroke-linecap:butt;stroke-linejoin:miter;stroke-miterlimit:10;stroke-dasharray:none;stroke-opacity:1"
             d="m 251,11 c -2e-5,0.656609 -0.0641,1.30691 -0.19218,1.950903 -0.1281,0.643992 -0.3178,1.269302 -0.56907,1.875931 -0.25126,0.606627 -0.55931,1.182916 -0.9241,1.728866 -0.36479,0.54595 -0.77933,1.051073 -1.24361,1.515368 -0.46429,0.464292 -0.96942,0.878834 -1.51538,1.243625 -0.54594,0.364794 -1.12222,0.672827 -1.72885,0.924101 -0.60661,0.251273 -1.23193,0.440958 -1.87593,0.569056 C 242.30688,20.935949 241.6566,20.999998 241,21 c -0.65662,-2e-6 -1.30692,-0.06405 -1.95091,-0.19215 -0.644,-0.128098 -1.26932,-0.317783 -1.87595,-0.569056 -0.60661,-0.251274 -1.18291,-0.559307 -1.72887,-0.924101 -0.54594,-0.364791 -1.05107,-0.779333 -1.51535,-1.243625 -0.46431,-0.464295 -0.87886,-0.969418 -1.24365,-1.515368 -0.36479,-0.54595 -0.67283,-1.122239 -0.9241,-1.728866 -0.25127,-0.606629 -0.44095,-1.231939 -0.56905,-1.875931 C 231.06404,12.30691 231,11.656609 231,11 c 0,-0.656609 0.064,-1.3069115 0.19214,-1.9509039 0.1281,-0.6439934 0.31776,-1.2693038 0.56903,-1.8759313 0.25127,-0.6066279 0.55931,-1.1829171 0.92412,-1.7288675 0.36479,-0.5459509 0.77932,-1.0510726 1.24363,-1.5153653 0.46428,-0.4642931 0.96941,-0.878836 1.51537,-1.2436286 0.54594,-0.3647925 1.12224,-0.6728255 1.72885,-0.9240989 0.60663,-0.2512735 1.23195,-0.4409592 1.87595,-0.5690574 C 239.69308,1.064049 240.34338,1 241,1 c 0.6566,0 1.30688,0.064049 1.95087,0.1921473 0.64401,0.128098 1.26933,0.3177838 1.87594,0.5690573 0.60663,0.2512733 1.18293,0.5593063 1.72887,0.9240988 0.54594,0.3647926 1.05107,0.7793355 1.51536,1.2436286 0.46428,0.4642927 0.87882,0.9694144 1.24361,1.5153653 0.36479,0.5459504 0.67284,1.1222396 0.9241,1.7288675 0.25127,0.6066275 0.44097,1.2319379 0.56907,1.8759313 C 250.93591,9.6930885 250.99998,10.343391 251,11 Z" /><path
             id="path10091"
             style="fill:#333333;fill-opacity:1;fill-rule:nonzero;stroke:none"
             d="m 246,11 c -2e-5,0.66304 -0.12689,1.300845 -0.38063,1.913416 -0.25374,0.612571 -0.61502,1.153276 -1.08385,1.622118 -0.46885,0.46884 -1.00956,0.830127 -1.62213,1.083862 C 242.30083,15.873131 241.66302,15.999999 241,16 c -0.66307,-10e-7 -1.30089,-0.126869 -1.91345,-0.380604 -0.61257,-0.253735 -1.15328,-0.615022 -1.6221,-1.083862 -0.46886,-0.468842 -0.83014,-1.009547 -1.08388,-1.622117 C 236.12685,12.300846 235.99998,11.66304 236,11 c -2e-5,-0.663042 0.12685,-1.300848 0.38058,-1.9134188 0.25373,-0.6125707 0.61501,-1.1532755 1.08387,-1.6221156 0.46882,-0.4688411 1.00953,-0.8301291 1.6221,-1.0838642 C 239.69911,6.1268673 240.33693,6 241,6 c 0.66302,0 1.30083,0.1268673 1.91339,0.3806019 0.61257,0.2537346 1.15328,0.6150226 1.62213,1.0838637 0.46883,0.4688401 0.83011,1.0095458 1.08385,1.6221166 C 245.87311,9.699152 245.99998,10.336958 246,11 Z" /><path
             id="path10093"
             style="fill:none;stroke:#333333;stroke-width:1;stroke-linecap:butt;stroke-linejoin:miter;stroke-miterlimit:10;stroke-dasharray:none;stroke-opacity:1"
             d="m 246,11 c -2e-5,0.66304 -0.12689,1.300845 -0.38063,1.913416 -0.25374,0.612571 -0.61502,1.153276 -1.08385,1.622118 -0.46885,0.46884 -1.00956,0.830127 -1.62213,1.083862 C 242.30083,15.873131 241.66302,15.999999 241,16 c -0.66307,-10e-7 -1.30089,-0.126869 -1.91345,-0.380604 -0.61257,-0.253735 -1.15328,-0.615022 -1.6221,-1.083862 -0.46886,-0.468842 -0.83014,-1.009547 -1.08388,-1.622117 C 236.12685,12.300846 235.99998,11.66304 236,11 c -2e-5,-0.663042 0.12685,-1.300848 0.38058,-1.9134188 0.25373,-0.6125707 0.61501,-1.1532755 1.08387,-1.6221156 0.46882,-0.4688411 1.00953,-0.8301291 1.6221,-1.0838642 C 239.69911,6.1268673 240.33693,6 241,6 c 0.66302,0 1.30083,0.1268673 1.91339,0.3806019 0.61257,0.2537346 1.15328,0.6150226 1.62213,1.0838637 0.46883,0.4688401 0.83011,1.0095458 1.08385,1.6221166 C 245.87311,9.699152 245.99998,10.336958 246,11 Z" /><path
             id="path10095"
             style="fill:#333333;fill-opacity:1;fill-rule:nonzero;stroke:none"
             d="m 71,11 c -8e-6,0.656609 -0.06406,1.30691 -0.192154,1.950903 -0.128097,0.643992 -0.317779,1.269302 -0.569054,1.875931 -0.251274,0.606627 -0.55931,1.182916 -0.924102,1.728866 -0.364792,0.54595 -0.779335,1.051073 -1.243622,1.515368 -0.464295,0.464292 -0.969422,0.878834 -1.515373,1.243625 -0.545952,0.364794 -1.122246,0.672827 -1.728867,0.924101 C 64.2202,20.490067 63.594891,20.679752 62.950897,20.80785 62.306908,20.935949 61.656609,20.999998 61,21 60.343388,20.999998 59.693089,20.93595 59.049095,20.80785 58.405102,20.679752 57.779789,20.490067 57.173157,20.238794 56.566525,19.98752 55.990234,19.679487 55.444286,19.314693 54.898338,18.949902 54.393219,18.53536 53.928928,18.071068 53.464634,17.606773 53.050091,17.10165 52.685299,16.5557 52.320503,16.00975 52.01247,15.433461 51.7612,14.826834 51.50993,14.220205 51.320244,13.594895 51.192146,12.950903 51.064049,12.30691 51,11.656609 51,11 51,10.343391 51.064049,9.6930885 51.192146,9.0490961 51.320244,8.4051027 51.50993,7.7797923 51.7612,7.1731648 52.01247,6.5665369 52.320503,5.9902477 52.685295,5.4442973 53.050091,4.8983464 53.464634,4.3932247 53.928928,3.928932 54.393219,3.4646389 54.898338,3.050096 55.44429,2.6853034 55.990238,2.3205109 56.566525,2.0124779 57.173157,1.7612045 57.779789,1.509931 58.405102,1.3202453 59.049095,1.1921471 59.693089,1.064049 60.343388,1 61,1 c 0.656609,0 1.306908,0.064049 1.950901,0.1921473 0.643993,0.128098 1.269299,0.3177838 1.875927,0.5690573 0.606621,0.2512733 1.182915,0.5593063 1.728867,0.9240988 0.545951,0.3647926 1.051078,0.7793355 1.515373,1.2436286 0.464287,0.4642927 0.87883,0.9694144 1.243622,1.5153653 0.364792,0.5459504 0.672828,1.1222396 0.924102,1.7288675 0.251275,0.6066275 0.440957,1.2319379 0.569054,1.8759313 C 70.935944,9.6930885 70.999992,10.343391 71,11 Z" /></g></g></g></g></svg>