<?xml version="1.0" encoding="UTF-8" standalone="no"?>
<svg
   xmlns:dc="http://purl.org/dc/elements/1.1/"
   xmlns:cc="http://creativecommons.org/ns#"
   xmlns:rdf="http://www.w3.org/1999/02/22-rdf-syntax-ns#"
   xmlns:svg="http://www.w3.org/2000/svg"
   xmlns="http://www.w3.org/2000/svg"
   viewBox="0 0 323.84 262.72"
   height="262.72"
   width="323.84"
   xml:space="preserve"
   id="svg13922"
   version="1.1"><metadata
     id="metadata13928"><rdf:RDF><cc:Work
         rdf:about=""><dc:format>image/svg+xml</dc:format><dc:type
           rdf:resource="http://purl.org/dc/dcmitype/StillImage" /><dc:title></dc:title></cc:Work></rdf:RDF></metadata><defs
     id="defs13926"><clipPath
       id="clipPath13938"
       clipPathUnits="userSpaceOnUse"><path
         style="clip-rule:evenodd"
         id="path13936"
         d="M 0,0 H 1012.4999 V 820.78394 H 0 Z" /></clipPath><clipPath
       id="clipPath13950"
       clipPathUnits="userSpaceOnUse"><path
         style="clip-rule:evenodd"
         id="path13948"
         d="M 0,0 H 1012.4999 V 817.78839 H 0 Z" /></clipPath><clipPath
       id="clipPath14094"
       clipPathUnits="userSpaceOnUse"><path
         style="clip-rule:evenodd"
         id="path14092"
         d="M 449.33429,447.83649 H 569.15674 V 567.65894 H 449.33429 Z" /></clipPath><clipPath
       id="clipPath14122"
       clipPathUnits="userSpaceOnUse"><path
         style="clip-rule:evenodd"
         id="path14120"
         d="M 0,0 H 1012.4999 V 817.78839 H 0 Z" /></clipPath></defs><g
     transform="matrix(0.31999998,0,0,0.31999998,0,9.901333e-6)"
     id="g13930"><g
       id="g13932"><g
         clip-path="url(#clipPath13938)"
         id="g13934"><g
           transform="scale(2.9955618)"
           id="g13940"><path
             id="path13942"
             style="fill:#ffffff;fill-opacity:1;fill-rule:nonzero;stroke:none"
             d="M 0,0 H 338 V 274 H 0 Z" /></g></g></g><g
       id="g13944"><g
         clip-path="url(#clipPath13950)"
         id="g13946"><g
           transform="matrix(2.9955618,0,0,2.9955618,1.4977809,1.4977809)"
           id="g13952"><path
             id="path13954"
             style="fill:#333333;fill-opacity:1;fill-rule:nonzero;stroke:none"
             d="m 7,81.5 h 3 v 1 H 7 Z m 6,0 h 3 v 1 h -3 z m 6,0 h 3 v 1 h -3 z m 6,0 h 3 v 1 h -3 z m 6,0 h 3 v 1 h -3 z m 6,0 h 3 v 1 h -3 z m 6,0 h 3 v 1 h -3 z m 6,0 h 3 v 1 h -3 z m 6,0 h 3 v 1 h -3 z m 6,0 h 3 v 1 h -3 z m 6,0 h 3 v 1 h -3 z m 6,0 h 3 v 1 h -3 z m 6,0 h 3 v 1 h -3 z m 6,0 h 3 v 1 h -3 z m 6,0 h 3 v 1 h -3 z m 6,0 h 3 v 1 h -3 z m 6,0 h 3 v 1 h -3 z m 6,0 h 3 v 1 h -3 z m 6,0 h 3 v 1 h -3 z m 6,0 h 3 v 1 h -3 z m 6,0 h 3 v 1 h -3 z m 6,0 h 3 v 1 h -3 z m 6,0 h 3 v 1 h -3 z m 6,0 h 3 v 1 h -3 z m 6,0 h 3 v 1 h -3 z m 6,0 h 3 v 1 h -3 z m 6,0 h 3 v 1 h -3 z m 6,0 h 3 v 1 h -3 z m 6,0 h 3 v 1 h -3 z m 6,0 h 3 v 1 h -3 z m 6,0 h 3 v 1 h -3 z m 6,0 h 3 v 1 h -3 z m 6,0 h 3 v 1 h -3 z m 6,0 h 3 v 1 h -3 z m 6,0 h 3 v 1 h -3 z m 6,0 h 3 v 1 h -3 z m 6,0 h 3 v 1 h -3 z m 6,0 h 3 v 1 h -3 z m 6,0 h 3 v 1 h -3 z m 6,0 h 3 v 1 h -3 z m 6,0 h 3 v 1 h -3 z m 6,0 h 3 v 1 h -3 z m 6,0 h 2.5 V 83 h -1 v -1 h 0.5 v 0.5 h -2 z m 2.5,4.5 v 3 h -1 v -3 z m 0,6 v 3 h -1 v -3 z m 0,6 v 3 h -1 v -3 z m 0,6 v 3 h -1 v -3 z m 0,6 v 3 h -1 v -3 z m 0,6 v 3 h -1 v -3 z m 0,6 v 3 h -1 v -3 z m 0,6 v 3 h -1 v -3 z m 0,6 v 3 h -1 v -3 z m 0,6 v 3 h -1 v -3 z m 0,6 v 3 h -1 v -3 z m 0,6 v 3 h -1 v -3 z m 0,6 v 3 h -1 v -3 z m 0,6 v 3 h -1 v -3 z m 0,6 v 3 h -1 v -3 z m 0,6 v 3 h -1 v -3 z m 0,6 v 3 h -1 v -3 z m 0,6 v 3 h -1 v -3 z m 0,6 v 3 h -1 v -3 z m 0,6 v 3 h -1 v -3 z m 0,6 v 3 h -1 v -3 z m 0,6 v 3 h -1 v -3 z m 0,6 v 3 h -1 v -3 z m 0,6 v 3 h -1 v -3 z m 0,6 v 3 h -1 v -3 z m 0,6 v 1.5 H 259 v -1 h 2 v 0.5 h -0.5 v -1 z m -5.5,1.5 h -3 v -1 h 3 z m -6,0 h -3 v -1 h 3 z m -6,0 h -3 v -1 h 3 z m -6,0 h -3 v -1 h 3 z m -6,0 h -3 v -1 h 3 z m -6,0 h -3 v -1 h 3 z m -6,0 h -3 v -1 h 3 z m -6,0 h -3 v -1 h 3 z m -6,0 h -3 v -1 h 3 z m -6,0 h -3 v -1 h 3 z m -6,0 h -3 v -1 h 3 z m -6,0 h -3 v -1 h 3 z m -6,0 h -3 v -1 h 3 z m -6,0 h -3 v -1 h 3 z m -6,0 h -3 v -1 h 3 z m -6,0 h -3 v -1 h 3 z m -6,0 h -3 v -1 h 3 z m -6,0 h -3 v -1 h 3 z m -6,0 h -3 v -1 h 3 z m -6,0 h -3 v -1 h 3 z m -6,0 h -3 v -1 h 3 z m -6,0 h -3 v -1 h 3 z m -6,0 h -3 v -1 h 3 z m -6,0 h -3 v -1 h 3 z m -6,0 h -3 v -1 h 3 z m -6,0 h -3 v -1 h 3 z m -6,0 h -3 v -1 h 3 z m -6,0 h -3 v -1 h 3 z m -6,0 h -3 v -1 h 3 z m -6,0 h -3 v -1 h 3 z m -6,0 h -3 v -1 h 3 z m -6,0 h -3 v -1 h 3 z m -6,0 h -3 v -1 h 3 z m -6,0 h -3 v -1 h 3 z m -6,0 h -3 v -1 h 3 z m -6,0 h -3 v -1 h 3 z m -6,0 h -3 v -1 h 3 z m -6,0 h -3 v -1 h 3 z m -6,0 h -3 v -1 h 3 z m -6,0 h -3 v -1 h 3 z m -6,0 h -3 v -1 h 3 z m -6,0 H 7 v -1 h 3 z m -6,0 H 1 v -1 H 4 Z M 0.5,234 v -3 h 1 v 3 z m 0,-6 v -3 h 1 v 3 z m 0,-6 v -3 h 1 v 3 z m 0,-6 v -3 h 1 v 3 z m 0,-6 v -3 h 1 v 3 z m 0,-6 v -3 h 1 v 3 z m 0,-6 v -3 h 1 v 3 z m 0,-6 v -3 h 1 v 3 z m 0,-6 v -3 h 1 v 3 z m 0,-6 v -3 h 1 v 3 z m 0,-6 v -3 h 1 v 3 z m 0,-6 v -3 h 1 v 3 z m 0,-6 v -3 h 1 v 3 z m 0,-6 v -3 h 1 v 3 z m 0,-6 v -3 h 1 v 3 z m 0,-6 v -3 h 1 v 3 z m 0,-6 v -3 h 1 v 3 z m 0,-6 v -3 h 1 v 3 z m 0,-5.99999 V 123 h 1 v 3.00001 z M 0.5,120 v -3 h 1 v 3 z m 0,-6 v -3 h 1 v 3 z m 0,-6 v -3 h 1 v 3 z m 0,-6 v -3 h 1 v 3 z m 0,-6 v -3 h 1 v 3 z m 0,-6 v -3 h 1 v 3 z m 0,-6 V 81.5 H 4 v 1 H 1 V 82 h 0.5 v 2 z" /><path
             id="path13956"
             style="fill:none;stroke:#333333;stroke-width:1;stroke-linecap:butt;stroke-linejoin:miter;stroke-miterlimit:10;stroke-dasharray:none;stroke-opacity:1"
             d="M 176,21 138,40" /><path
             id="path13958"
             style="fill:none;stroke:#333333;stroke-width:1;stroke-linecap:butt;stroke-linejoin:miter;stroke-miterlimit:10;stroke-dasharray:none;stroke-opacity:1"
             d="M 142.22,35.279999 137,40.5 l 7.3,-1.040001" /><path
             id="path13960"
             style="fill:none;stroke:#333333;stroke-width:1;stroke-linecap:butt;stroke-linejoin:miter;stroke-miterlimit:10;stroke-dasharray:none;stroke-opacity:1"
             d="M 176,21 293.79001,40.630001" /><path
             id="path13962"
             style="fill:none;stroke:#333333;stroke-width:1;stroke-linecap:butt;stroke-linejoin:miter;stroke-miterlimit:10;stroke-dasharray:none;stroke-opacity:1"
             d="M 287.60999,41.970001 294.89999,40.82 288.38,37.360001" /><path
             id="path13964"
             style="fill:#f5f5f5;fill-opacity:1;fill-rule:nonzero;stroke:none"
             d="m 19,1 h 314 c 0.3978,0 0.78049,0.07612 1.14801,0.2283612 0.36755,0.1522409 0.69199,0.3690137 0.9733,0.6503183 0.28128,0.2813046 0.49804,0.6057277 0.6503,0.9732697 C 335.92386,3.2194915 335.99997,3.602175 336,4 v 14 c -3e-5,0.397823 -0.0761,0.780506 -0.22839,1.148046 -0.15226,0.367545 -0.36902,0.691968 -0.6503,0.973273 -0.28131,0.281303 -0.60575,0.498075 -0.9733,0.650316 C 333.78049,20.923878 333.3978,20.999998 333,21 H 19 c -0.397825,-2e-6 -0.780508,-0.07612 -1.148052,-0.228365 C 17.484406,20.619394 17.159983,20.402622 16.878679,20.121319 16.597374,19.840014 16.3806,19.515591 16.228359,19.148046 16.076118,18.780506 15.999999,18.397823 16,18 V 4 C 15.999999,3.602175 16.07612,3.2194915 16.228359,2.8519492 16.3806,2.4844072 16.597374,2.1599841 16.878679,1.8786795 17.159983,1.5973749 17.484406,1.3806021 17.851948,1.2283612 18.219492,1.0761204 18.602175,1 19,1 Z" /><path
             id="path13966"
             style="fill:none;stroke:#333333;stroke-width:1;stroke-linecap:butt;stroke-linejoin:miter;stroke-miterlimit:10;stroke-dasharray:none;stroke-opacity:1"
             d="m 19,1 h 314 c 0.3978,0 0.78049,0.07612 1.14801,0.2283612 0.36755,0.1522409 0.69199,0.3690137 0.9733,0.6503183 0.28128,0.2813046 0.49804,0.6057277 0.6503,0.9732697 C 335.92386,3.2194915 335.99997,3.602175 336,4 v 14 c -3e-5,0.397823 -0.0761,0.780506 -0.22839,1.148046 -0.15226,0.367545 -0.36902,0.691968 -0.6503,0.973273 -0.28131,0.281303 -0.60575,0.498075 -0.9733,0.650316 C 333.78049,20.923878 333.3978,20.999998 333,21 H 19 c -0.397825,-2e-6 -0.780508,-0.07612 -1.148052,-0.228365 C 17.484406,20.619394 17.159983,20.402622 16.878679,20.121319 16.597374,19.840014 16.3806,19.515591 16.228359,19.148046 16.076118,18.780506 15.999999,18.397823 16,18 V 4 C 15.999999,3.602175 16.07612,3.2194915 16.228359,2.8519492 16.3806,2.4844072 16.597374,2.1599841 16.878679,1.8786795 17.159983,1.5973749 17.484406,1.3806021 17.851948,1.2283612 18.219492,1.0761204 18.602175,1 19,1 Z" /></g><g
           transform="scale(2.9955618)"
           id="g13968"><text
             id="text13972"
             style="font-variant:normal;font-weight:normal;font-size:12px;font-family:Helvetica;-inkscape-font-specification:Helvetica;writing-mode:lr-tb;fill:#333333;fill-opacity:1;fill-rule:nonzero;stroke:none"
             transform="translate(152.65625,16)"><tspan
               id="tspan13970"
               y="0"
               x="0 8.0039062 14.677734 24.673828 31.347656 34.013672 40.6875">Samples</tspan></text>
</g><g
           transform="matrix(2.9955618,0,0,2.9955618,1.4977809,1.4977809)"
           id="g13974"><path
             id="path13976"
             style="fill:none;stroke:#4d4d4d;stroke-width:1;stroke-linecap:butt;stroke-linejoin:miter;stroke-miterlimit:10;stroke-dasharray:none;stroke-opacity:1"
             d="m 136,61 v 20 h -0.10001 l -0.05,-1.230003" /><path
             id="path13978"
             style="fill:none;stroke:#4d4d4d;stroke-width:1;stroke-linecap:butt;stroke-linejoin:miter;stroke-miterlimit:10;stroke-dasharray:none;stroke-opacity:1"
             d="m 133.28,73.980003 2.61999,6.899994 2.05001,-7.079994" /><path
             id="path13980"
             style="fill:none;stroke:#333333;stroke-width:1;stroke-linecap:butt;stroke-linejoin:miter;stroke-miterlimit:10;stroke-dasharray:none;stroke-opacity:1"
             d="m 19,41 h 234 c 0.39781,0 0.7805,0.07612 1.14804,0.228359 0.36752,0.152241 0.69194,0.369011 0.97327,0.650318 0.28129,0.281308 0.49806,0.605729 0.6503,0.973267 C 255.92384,43.21949 255.99998,43.602177 256,44 v 14 c -2e-5,0.397823 -0.0762,0.780502 -0.22839,1.148045 -0.15224,0.367542 -0.36901,0.691967 -0.6503,0.973274 -0.28133,0.281299 -0.60575,0.498073 -0.97328,0.650314 C 253.78049,60.923874 253.39781,60.999996 253,61 H 19 c -0.397825,-4e-6 -0.780508,-0.07613 -1.148052,-0.228367 C 17.484406,60.619392 17.159983,60.402618 16.878679,60.121319 16.597374,59.840012 16.3806,59.515587 16.228359,59.148045 16.076118,58.780502 15.999999,58.397823 16,58 V 44 c -10e-7,-0.397823 0.07612,-0.78051 0.228359,-1.148056 0.152241,-0.367538 0.369015,-0.691959 0.65032,-0.973267 C 17.159983,41.59737 17.484406,41.3806 17.851948,41.228359 18.219492,41.076118 18.602175,41 19,41 Z" /></g><g
           transform="scale(2.9955618)"
           id="g13982"><path
             id="path13984"
             style="fill:#ffffff;fill-opacity:1;fill-rule:nonzero;stroke:none"
             d="m 115,45 h 42 v 14 h -42 z" /><text
             id="text13988"
             style="font-variant:normal;font-weight:normal;font-size:12px;font-family:Helvetica;-inkscape-font-specification:Helvetica;writing-mode:lr-tb;fill:#000000;fill-opacity:1;fill-rule:nonzero;stroke:none"
             transform="translate(114.65625,56)"><tspan
               id="tspan13986"
               y="0"
               x="0 3.3339844 7.3300781 14.003906 16.669922 23.34375 26.677734 32.677734 39.351562">train set</tspan></text>
</g><g
           transform="matrix(2.9955618,0,0,2.9955618,1.4977809,1.4977809)"
           id="g13990"><path
             id="path13992"
             style="fill:none;stroke:#333333;stroke-width:1;stroke-linecap:butt;stroke-linejoin:miter;stroke-miterlimit:10;stroke-dasharray:none;stroke-opacity:1"
             d="M 296,61 V 257 H 138.24" /><path
             id="path13994"
             style="fill:none;stroke:#333333;stroke-width:1;stroke-linecap:butt;stroke-linejoin:miter;stroke-miterlimit:10;stroke-dasharray:none;stroke-opacity:1"
             d="m 144.11999,254.67 -7,2.33 7,2.32999" /></g><g
           transform="scale(2.9955618)"
           id="g13996"><text
             id="text14000"
             style="font-variant:normal;font-weight:normal;font-size:9px;font-family:Helvetica;-inkscape-font-specification:Helvetica;writing-mode:lr-tb;fill:#333333;fill-opacity:1;fill-rule:nonzero;stroke:none"
             transform="translate(189.98438,269)"><tspan
               id="tspan13998"
               y="0"
               x="0 5.4975586 7.4970703 12.502441 17.507812 19.507324 22.007812 27.013184 32.018555 35.015625 37.516113 42.521484 45.518555 53.015625 58.020996 63.026367 67.526367 72.531738 75.032227 80.037598 84.537598 87.038086 89.037598 96.534668 101.54004 104.04053">Final performance estimate</tspan></text>
</g><g
           transform="matrix(2.9955618,0,0,2.9955618,1.4977809,1.4977809)"
           id="g14002"><path
             id="path14004"
             style="fill:none;stroke:#333333;stroke-width:1;stroke-linecap:butt;stroke-linejoin:miter;stroke-miterlimit:10;stroke-dasharray:none;stroke-opacity:1"
             d="m 259,41 h 74 c 0.3978,0 0.78049,0.07612 1.14801,0.228359 0.36755,0.152241 0.69199,0.369011 0.9733,0.650318 0.28128,0.281308 0.49804,0.605729 0.6503,0.973267 C 335.92386,43.21949 335.99997,43.602177 336,44 v 14 c -3e-5,0.397823 -0.0761,0.780502 -0.22839,1.148045 -0.15226,0.367542 -0.36902,0.691967 -0.6503,0.973274 -0.28131,0.281299 -0.60575,0.498073 -0.9733,0.650314 C 333.78049,60.923874 333.3978,60.999996 333,61 h -74 c -0.39786,-4e-6 -0.78055,-0.07613 -1.14807,-0.228367 -0.36755,-0.152241 -0.69199,-0.369015 -0.97327,-0.650314 -0.28131,-0.281307 -0.49808,-0.605732 -0.65033,-0.973274 C 256.07608,58.780502 255.99998,58.397823 256,58 V 44 c -2e-5,-0.397823 0.0761,-0.78051 0.22833,-1.148056 0.15225,-0.367538 0.36902,-0.691959 0.65033,-0.973267 0.28128,-0.281307 0.60572,-0.498077 0.97327,-0.650318 C 258.21945,41.076118 258.60214,41 259,41 Z" /></g><g
           transform="scale(2.9955618)"
           id="g14006"><path
             id="path14008"
             style="fill:#ffffff;fill-opacity:1;fill-rule:nonzero;stroke:none"
             d="m 277,45 h 38 v 14 h -38 z" /><text
             id="text14012"
             style="font-variant:normal;font-weight:normal;font-size:12px;font-family:Helvetica;-inkscape-font-specification:Helvetica;writing-mode:lr-tb;fill:#000000;fill-opacity:1;fill-rule:nonzero;stroke:none"
             transform="translate(276.65625,56)"><tspan
               id="tspan14010"
               y="0"
               x="0 3.3339844 10.007812 16.007812 19.341797 22.675781 28.675781 35.349609">test set</tspan></text>
</g><g
           transform="matrix(2.9955618,0,0,2.9955618,1.4977809,1.4977809)"
           id="g14014"><path
             id="path14016"
             style="fill:#333333;fill-opacity:1;fill-rule:nonzero;stroke:none"
             d="m 26,91.5 h 3 v 1 h -3 z m 6,0 h 3 v 1 h -3 z m 6,0 h 3 v 1 h -3 z m 6,0 h 3 v 1 h -3 z m 6,0 h 3 v 1 h -3 z m 6,0 h 3 v 1 h -3 z m 6,0 h 3 v 1 h -3 z m 6,0 h 3 v 1 h -3 z m 6,0 h 1 c 0.823647,0 1.55603,0.258522 2.197151,0.775566 l -0.627762,0.778412 C 76.111435,92.684654 75.58831,92.499992 75,92.5 h -1 z m 4.5,3.907806 v 3 h -1 v -3 z m 0,6.000004 v 3 h -1 v -3 z m 0,6 V 109 c 0,0.5557 -0.125244,1.08157 -0.375725,1.57762 l -0.892654,-0.45074 C 77.410538,109.77254 77.5,109.39692 77.5,109 v -1.59219 z m -3.298996,5.08641 c -0.067,0.004 -0.134018,0.006 -0.20105,0.006 h -2.815567 v -1 h 2.815659 c 0.04788,1e-5 0.09569,-0.001 0.143417,-0.004 l 0.05754,0.99834 z m -6.016617,0.006 h -3 v -1 h 3 z m -6,0 h -3 v -1 h 3 z m -6,0 h -3 v -1 h 3 z m -6,0 h -3 v -1 h 3 z m -6,0 h -3 v -1 h 3 z m -6,0 h -3 v -1 h 3 z m -6,0 h -3 v -1 h 3 z m -6,0 h -3 v -1 h 3 z m -6,0 L 20,112.5 c -0.737741,1e-5 -1.408451,-0.21206 -2.012125,-0.6362 l 0.574894,-0.81822 C 18.993958,111.34853 19.473036,111.50001 20,111.5 h 1.184387 v 1 z M 16.5,108.77658 v -3 h 1 v 3 z m 0,-6 v -2.999999 h 1 v 2.999999 z m 0,-5.999999 V 95 c 0,-0.476753 0.09351,-0.93441 0.280533,-1.372955 l 0.919845,0.392273 C 17.566793,94.332565 17.5,94.659462 17.5,95 v 1.776581 z m 3.094299,-5.252983 C 19.729078,91.507866 19.864311,91.5 20,91.5 h 3 v 1 h -3 c -0.09692,0 -0.193506,0.0056 -0.289764,0.01685 l -0.115937,-0.993255 z" /></g><g
           transform="scale(2.9955618)"
           id="g14018"><path
             id="path14020"
             style="fill:#ffffff;fill-opacity:1;fill-rule:nonzero;stroke:none"
             d="m 36,96 h 23 v 14 H 36 Z" /><text
             id="text14024"
             style="font-variant:normal;font-weight:normal;font-size:12px;font-family:Helvetica;-inkscape-font-specification:Helvetica;writing-mode:lr-tb;fill:#000000;fill-opacity:1;fill-rule:nonzero;stroke:none"
             transform="translate(35.828125,107)"><tspan
               id="tspan14022"
               y="0"
               x="0 3.3339844 7.3300781 14.003906 16.669922">train</tspan></text>
</g><g
           transform="matrix(2.9955618,0,0,2.9955618,1.4977809,1.4977809)"
           id="g14026"><path
             id="path14028"
             style="fill:none;stroke:#333333;stroke-width:1;stroke-linecap:butt;stroke-linejoin:miter;stroke-miterlimit:10;stroke-dasharray:none;stroke-opacity:1"
             d="M 226,112 V 217 H 138.24" /><path
             id="path14030"
             style="fill:none;stroke:#333333;stroke-width:1;stroke-linecap:butt;stroke-linejoin:miter;stroke-miterlimit:10;stroke-dasharray:none;stroke-opacity:1"
             d="m 144.11999,214.67 -7,2.33 7,2.33" /><path
             id="path14032"
             style="fill:#333333;fill-opacity:1;fill-rule:nonzero;stroke:none"
             d="m 206,91.5 h 3 v 1 h -3 z m 6,0 h 3 v 1 h -3 z m 6,0 h 3 v 1 h -3 z m 6,0 h 3 v 1 h -3 z m 6,0 h 3 v 1 h -3 z m 6,0 h 3 v 1 h -3 z m 6,0 h 3 v 1 h -3 z m 6,0 h 3 v 1 h -3 z m 6.19716,0.775574 c 0.86856,0.70047 1.30284,1.608612 1.30284,2.724434 v 0.407798 h -1 v -0.407814 c 0,-0.797012 -0.3102,-1.445678 -0.93059,-1.946006 z M 255.5,98.407806 v 3.000004 h -1 v -3.000004 z m 0,6.000004 v 3 h -1 v -3 z m -0.37572,6.16983 c -0.60624,1.2005 -1.5807,1.83936 -2.92335,1.91659 l -0.0574,-0.99836 c 0.95906,-0.0551 1.65511,-0.51148 2.08812,-1.36899 l 0.89264,0.45076 z M 249.18439,112.5 h -3 v -1 h 3 z m -6,0 h -3 v -1 h 3 z m -6,0 h -3 v -1 h 3 z m -6,0 h -3 v -1 h 3 z m -6,0 h -3 v -1 h 3 z m -6,0 h -3 v -1 h 3 z m -6,0 h -3 v -1 h 3 z m -6,0 h -3 v -1 h 3 z m -6,0 H 200 c -0.73778,-1e-5 -1.40849,-0.21207 -2.01213,-0.63619 l 0.57489,-0.81824 c 0.43117,0.30295 0.91025,0.45442 1.43724,0.45443 h 1.18439 z M 196.5,108.77658 v -3 h 1 v 3 z m 0,-6 v -2.999999 h 1 v 2.999999 z m 0,-5.999999 V 95 c 2e-5,-0.476738 0.0935,-0.934387 0.28055,-1.372963 l 0.91983,0.392288 C 197.56679,94.332573 197.5,94.659462 197.5,95 v 1.776581 z m 3.09431,-5.252991 C 199.72913,91.507866 199.86435,91.5 200,91.5 h 3 v 1 h -3 c -0.0969,0 -0.19354,0.0056 -0.28981,0.01685 l -0.11588,-0.993256 z" /></g><g
           transform="scale(2.9955618)"
           id="g14034"><text
             id="text14038"
             style="font-variant:normal;font-weight:normal;font-size:12px;font-family:Helvetica;-inkscape-font-specification:Helvetica;writing-mode:lr-tb;fill:#000000;fill-opacity:1;fill-rule:nonzero;stroke:none"
             transform="translate(216.32813,107)"><tspan
               id="tspan14036"
               y="0"
               x="0 3.3339844 10.007812 16.007812">test</tspan></text>
</g><g
           transform="matrix(2.9955618,0,0,2.9955618,1.4977809,1.4977809)"
           id="g14040"><path
             id="path14042"
             style="fill:none;stroke:#333333;stroke-width:1;stroke-linecap:butt;stroke-linejoin:miter;stroke-miterlimit:10;stroke-dasharray:none;stroke-opacity:1"
             d="m 104.07,182.12 -0.12,18" /><path
             id="path14044"
             style="fill:none;stroke:#333333;stroke-width:1;stroke-linecap:butt;stroke-linejoin:miter;stroke-miterlimit:10;stroke-dasharray:none;stroke-opacity:1"
             d="m 101.65,194.23 2.29,7.01001 2.38,-6.98002" /><path
             id="path14046"
             style="fill:none;stroke:#333333;stroke-width:1;stroke-linecap:butt;stroke-linejoin:miter;stroke-miterlimit:10;stroke-dasharray:none;stroke-opacity:1"
             d="M 44.5,182 H 26 v 75 h 17.759998" /><path
             id="path14048"
             style="fill:none;stroke:#333333;stroke-width:1;stroke-linecap:butt;stroke-linejoin:miter;stroke-miterlimit:10;stroke-dasharray:none;stroke-opacity:1"
             d="m 37.880001,259.32999 7,-2.32999 -7,-2.33" /><path
             id="path14050"
             style="fill:#f5f5f5;fill-opacity:1;fill-rule:nonzero;stroke:none"
             d="m 16,142 h 114 v 40 H 16 Z" /><path
             id="path14052"
             style="fill:none;stroke:#333333;stroke-width:1;stroke-linecap:butt;stroke-linejoin:miter;stroke-miterlimit:10;stroke-dasharray:none;stroke-opacity:1"
             d="m 16,142 h 114 v 40 H 16 Z" /></g><g
           transform="scale(2.9955618)"
           id="g14054"><text
             id="text14058"
             style="font-variant:normal;font-weight:normal;font-size:12px;font-family:Helvetica;-inkscape-font-specification:Helvetica;writing-mode:lr-tb;fill:#333333;fill-opacity:1;fill-rule:nonzero;stroke:none"
             transform="translate(28.640625,167)"><tspan
               id="tspan14056"
               y="0"
               x="0 8.0039062 14.677734 18.673828 22.669922 29.34375 36.017578 42.691406 46.025391 52.699219 56.033203 66.029297 72.703125 79.376953 86.050781">Surrogate model</tspan></text>
</g><g
           transform="matrix(2.9955618,0,0,2.9955618,1.4977809,1.4977809)"
           id="g14060"><path
             id="path14062"
             style="fill:none;stroke:#333333;stroke-width:1;stroke-linecap:butt;stroke-linejoin:miter;stroke-miterlimit:10;stroke-dasharray:none;stroke-opacity:1"
             d="m 50.5,202 h 81 c 0.59672,0 1.17075,0.11417 1.72206,0.34251 0.55132,0.22837 1.03795,0.55353 1.45992,0.9755 0.42195,0.42195 0.7471,0.90858 0.97546,1.4599 0.22836,0.55131 0.34254,1.12533 0.34256,1.72209 v 21 c -2e-5,0.59673 -0.1142,1.17073 -0.34256,1.72205 -0.22836,0.55131 -0.55351,1.03794 -0.97546,1.45991 -0.42197,0.42195 -0.9086,0.7471 -1.45992,0.97546 -0.55131,0.22837 -1.12534,0.34256 -1.72206,0.34258 h -81 c -0.596741,-2e-5 -1.170769,-0.11421 -1.72208,-0.34259 -0.551312,-0.22835 -1.037945,-0.5535 -1.4599,-0.97545 -0.421959,-0.42197 -0.74712,-0.9086 -0.975479,-1.45991 C 46.114178,228.67073 45.999996,228.09673 46,227.5 v -21 c -4e-6,-0.59676 0.114178,-1.17078 0.342541,-1.72209 0.228359,-0.55132 0.55352,-1.03795 0.975479,-1.4599 0.421955,-0.42197 0.908588,-0.74713 1.4599,-0.97548 C 49.329231,202.11418 49.903259,202 50.5,202 Z" /></g><g
           transform="scale(2.9955618)"
           id="g14064"><text
             id="text14068"
             style="font-variant:normal;font-weight:normal;font-size:12px;font-family:Helvetica;-inkscape-font-specification:Helvetica;writing-mode:lr-tb;fill:#000000;fill-opacity:1;fill-rule:nonzero;stroke:none"
             transform="translate(64.65625,215)"><tspan
               id="tspan14066"
               y="0"
               x="0 8.0039062 14.677734 18.673828 22.669922 29.34375 36.017578 42.691406 46.025391">Surrogate</tspan></text>
<text
             id="text14072"
             style="font-variant:normal;font-weight:normal;font-size:12px;font-family:Helvetica;-inkscape-font-specification:Helvetica;writing-mode:lr-tb;fill:#000000;fill-opacity:1;fill-rule:nonzero;stroke:none"
             transform="translate(67.3125,229)"><tspan
               id="tspan14070"
               y="0"
               x="0 6 12.673828 15.339844 22.013672 28.013672 31.347656 34.013672 40.6875">selection</tspan></text>
</g><g
           transform="matrix(2.9955618,0,0,2.9955618,1.4977809,1.4977809)"
           id="g14074"><path
             id="path14076"
             style="fill:none;stroke:#333333;stroke-width:1;stroke-linecap:butt;stroke-linejoin:miter;stroke-miterlimit:10;stroke-dasharray:none;stroke-opacity:1"
             d="m 50.5,242 h 81 c 0.59672,0 1.17075,0.11417 1.72206,0.34251 0.55132,0.22837 1.03795,0.55353 1.45992,0.9755 0.42195,0.42195 0.7471,0.90858 0.97546,1.4599 0.22836,0.55131 0.34254,1.12533 0.34256,1.72209 v 21 c -2e-5,0.59671 -0.1142,1.17075 -0.34256,1.72205 -0.22836,0.5513 -0.55351,1.03793 -0.97546,1.4599 -0.42197,0.42196 -0.9086,0.7471 -1.45992,0.97546 -0.55131,0.22836 -1.12534,0.34256 -1.72206,0.34259 h -81 c -0.596741,-3e-5 -1.170769,-0.1142 -1.72208,-0.34256 -0.551312,-0.22836 -1.037945,-0.55353 -1.4599,-0.97549 -0.421959,-0.42197 -0.74712,-0.9086 -0.975479,-1.4599 C 46.114178,268.67075 45.999996,268.09671 46,267.5 v -21 c -4e-6,-0.59676 0.114178,-1.17079 0.342541,-1.72211 0.228359,-0.55131 0.55352,-1.03793 0.975479,-1.45988 0.421955,-0.42197 0.908588,-0.74713 1.4599,-0.9755 C 49.329231,242.11417 49.903259,242 50.5,242 Z" /></g><g
           transform="scale(2.9955618)"
           id="g14078"><text
             id="text14082"
             style="font-variant:normal;font-weight:normal;font-size:12px;font-family:Helvetica;-inkscape-font-specification:Helvetica;writing-mode:lr-tb;fill:#000000;fill-opacity:1;fill-rule:nonzero;stroke:none"
             transform="translate(64.65625,255)"><tspan
               id="tspan14080"
               y="0"
               x="0 8.0039062 14.677734 18.673828 22.669922 29.34375 36.017578 42.691406 46.025391">Surrogate</tspan></text>
<text
             id="text14086"
             style="font-variant:normal;font-weight:normal;font-size:12px;font-family:Helvetica;-inkscape-font-specification:Helvetica;writing-mode:lr-tb;fill:#000000;fill-opacity:1;fill-rule:nonzero;stroke:none"
             transform="translate(73.328125,269)"><tspan
               id="tspan14084"
               y="0"
               x="0 3.3339844 10.007812 16.007812 19.341797 22.007812 28.681641">testing</tspan></text>
</g></g></g><g
       id="g14088"><g
         clip-path="url(#clipPath14094)"
         id="g14090"><g
           transform="matrix(1.1982248,0,0,1.1982248,449.33429,447.83649)"
           id="g14096"><path
             id="path14098"
             style="fill:#1a1a1a;fill-opacity:1;fill-rule:nonzero;stroke:none"
             d="m 42.700001,24.5 c -14.4,5.799999 -21.600001,21 -17.5,35.900002 0.6,2.2 4,0.799999 3.299999,-1.400002 C 25,46 31.6,32.900002 44.099998,27.9 46.299999,27 44.900002,23.700001 42.700001,24.5 Z" /><path
             id="path14100"
             style="fill:#1a1a1a;fill-opacity:1;fill-rule:nonzero;stroke:none"
             d="M 42.400002,26.1 C 41.100002,30.400002 39.800003,34.700001 38.5,39.099998 37.799999,41.299999 41.200001,42.699997 41.900002,40.5 43.200001,36.200001 44.5,31.9 45.800003,27.5 46.400002,25.299999 43,23.9 42.400002,26.1 Z" /><path
             id="path14102"
             style="fill:#1a1a1a;fill-opacity:1;fill-rule:nonzero;stroke:none"
             d="m 44.400002,24.5 c -4.5,-1.299999 -9.099999,-2.700001 -13.600001,-4 -2.200001,-0.700001 -3.6,2.700001 -1.399999,3.4 4.5,1.299999 9.099998,2.7 13.599998,4 2.299999,0.6 3.700001,-2.8 1.400002,-3.4 z" /><path
             id="path14104"
             style="fill:#1a1a1a;fill-opacity:1;fill-rule:nonzero;stroke:none"
             d="m 57.5,24.200001 c -2.299999,-0.299999 -2.799999,3.200001 -0.5,3.6 15.099998,2.200001 23.199997,18.000002 16.599998,31.699999 -1,2.099998 2.300004,3.400002 3.400002,1.400002 C 84.599998,45.099998 74.800003,26.799999 57.5,24.200001 Z" /><path
             id="path14106"
             style="fill:#1a1a1a;fill-opacity:1;fill-rule:nonzero;stroke:none"
             d="m 75.900002,59.099998 c -2,-3.099998 -4,-6.2 -6.099999,-9.299999 -1.300003,-2 -4.099998,0.299999 -2.900001,2.200001 2,3.099998 4,6.200001 6.099998,9.299999 1.300003,2 4.199997,-0.299999 2.900002,-2.200001 z" /><path
             id="path14108"
             style="fill:#1a1a1a;fill-opacity:1;fill-rule:nonzero;stroke:none"
             d="M 87.300003,55.5 74.400002,59 c -2.199997,0.599998 -0.800004,3.900002 1.400001,3.299999 l 12.900002,-3.5 C 90.900002,58.299999 89.5,54.900002 87.300003,55.5 Z" /><path
             id="path14110"
             style="fill:#1a1a1a;fill-opacity:1;fill-rule:nonzero;stroke:none"
             d="m 72.599998,67.199997 c -10.900001,11.199997 -28.2,10.900001 -39.2,0 -1.700001,-1.599999 -3.8,1.300003 -2.200001,2.900001 C 43.799995,82.5 63.299995,81.799995 75.5,69.400002 77.099998,67.699997 74.199997,65.5 72.599998,67.199997 Z" /><path
             id="path14112"
             style="fill:#1a1a1a;fill-opacity:1;fill-rule:nonzero;stroke:none"
             d="m 46.400002,65.599998 c -5.099999,-0.400001 -10.200001,-0.800003 -15.4,-1.199996 -2.299999,-0.199997 -2.799999,3.400001 -0.5,3.599998 5.1,0.400002 10.199999,0.800003 15.4,1.199997 2.299999,0.200005 2.799999,-3.399994 0.5,-3.599999 z" /><path
             id="path14114"
             style="fill:#1a1a1a;fill-opacity:1;fill-rule:nonzero;stroke:none"
             d="m 32.599998,67.199997 c -0.299999,-2.300003 -3.899999,-1.800003 -3.6,0.5 0.6,4.199997 0.799999,8.300003 0.6,12.5 -0.1,2.300003 3.5,2.800003 3.599999,0.5 0.200005,-4.5 4e-6,-9 -0.599999,-13.5 z" /></g></g></g><g
       id="g14116"><g
         clip-path="url(#clipPath14122)"
         id="g14118"><g
           transform="scale(2.9955618)"
           id="g14124"><text
             id="text14128"
             style="font-variant:normal;font-weight:normal;font-size:9px;font-family:Helvetica;-inkscape-font-specification:Helvetica;writing-mode:lr-tb;fill:#000000;fill-opacity:1;fill-rule:nonzero;stroke:none"
             transform="translate(134.89062,144)"><tspan
               id="tspan14126"
               y="0"
               x="0 5.1679688 8.1650391 13.17041 15.169922 20.175293 22.675781 25.17627 30.181641 34.681641 39.687012 41.686523 46.691895 51.697266 54.197754 56.197266 61.202637 66.208008 68.708496">Train, evaluation, </tspan></text>
<text
             id="text14132"
             style="font-variant:normal;font-weight:normal;font-size:9px;font-family:Helvetica;-inkscape-font-specification:Helvetica;writing-mode:lr-tb;fill:#000000;fill-opacity:1;fill-rule:nonzero;stroke:none"
             transform="translate(152.73437,154)"><tspan
               id="tspan14130"
               y="0"
               x="0 4.5 9.5053711 11.504883 16.510254 21.010254 23.510742 25.510254 30.515625">selection</tspan></text>
</g><g
           transform="matrix(2.9955618,0,0,2.9955618,1.4977809,1.4977809)"
           id="g14134"><path
             id="path14136"
             style="fill:#333333;fill-opacity:1;fill-rule:nonzero;stroke:none"
             d="m 87,91.5 h 3 v 1 h -3 z m 6,0 h 3 v 1 h -3 z m 6,0 h 3 v 1 h -3 z m 6,0 h 3 v 1 h -3 z m 6,0 h 3 v 1 h -3 z m 6,0 h 3 v 1 h -3 z m 6,0 h 3 v 1 h -3 z m 6,0 h 3 v 1 h -3 z m 6,0 c 1.33289,0 2.33785,0.574074 3.01489,1.722229 l -0.86139,0.507935 C 136.66992,92.910057 135.95209,92.5 135,92.5 Z m 3.5,4.907806 v 3 h -1 v -3 z m 0,6.000004 v 3 h -1 v -3 z m 0,6 V 109 c 0,1.02203 -0.37563,1.87955 -1.12686,2.57257 l -0.67804,-0.73503 c 0.53659,-0.495 0.80488,-1.10752 0.8049,-1.83754 v -0.59219 z M 134.18439,112.5 h -3 v -1 h 3 z m -6,0 h -3 v -1 h 3 z m -6,0 h -3 v -1 h 3 z m -6,0 h -3 v -1 h 3 z m -6,0 h -3 v -1 h 3 z m -6,0 h -3 v -1 h 3 z m -6.000003,0 h -3 v -1 h 3 z m -6,0 h -3 v -1 h 3 z m -6,0 h -3 v -1 h 3 z m -6.095741,-0.12073 c -1.315559,-0.3548 -2.142082,-1.19224 -2.479569,-2.51231 l 0.968842,-0.2477 c 0.241066,0.94291 0.831436,1.54108 1.771118,1.79451 z M 77.5,106.7766 v -3 h 1 v 3 z m 0,-6 v -3.000004 h 1 v 3.000004 z m 0.0085,-6.020588 c 0.09391,-1.34375 0.746186,-2.310951 1.956826,-2.901604 l 0.438476,0.898743 c -0.864738,0.421883 -1.33065,1.11274 -1.397728,2.072578 L 77.5085,94.756009 Z M 81,91.5 h 3 v 1 h -3 z" /></g><g
           transform="scale(2.9955618)"
           id="g14138"><path
             id="path14140"
             style="fill:#ffffff;fill-opacity:1;fill-rule:nonzero;stroke:none"
             d="m 96,96 h 24 v 14 H 96 Z" /><text
             id="text14144"
             style="font-variant:normal;font-weight:normal;font-size:12px;font-family:Helvetica;-inkscape-font-specification:Helvetica;writing-mode:lr-tb;fill:#000000;fill-opacity:1;fill-rule:nonzero;stroke:none"
             transform="translate(96.328125,107)"><tspan
               id="tspan14142"
               y="0"
               x="0 3.3339844 7.3300781 14.003906 16.669922">train</tspan></text>
</g><g
           transform="matrix(2.9955618,0,0,2.9955618,1.4977809,1.4977809)"
           id="g14146"><path
             id="path14148"
             style="fill:#333333;fill-opacity:1;fill-rule:nonzero;stroke:none"
             d="m 147,91.5 h 3 v 1 h -3 z m 6,0 h 3 v 1 h -3 z m 6,0 h 3 v 1 h -3 z m 6,0 h 3 v 1 h -3 z m 6,0 h 3 v 1 h -3 z m 6,0 h 3 v 1 h -3 z m 6,0 h 3 v 1 h -3 z m 6,0 h 3 v 1 h -3 z m 6.12097,0.184364 c 1.28894,0.435768 2.06119,1.321831 2.31673,2.658188 l -0.98221,0.187821 c -0.18254,-0.954544 -0.73415,-1.587441 -1.6548,-1.898682 z M 197.5,97.407806 v 3.000004 h -1 v -3.000004 z m 0,6.000004 v 3 h -1 v -3 z m -0.029,6.04161 c -0.17399,1.34417 -0.88794,2.27362 -2.14183,2.78836 l -0.37976,-0.92508 c 0.89562,-0.36767 1.40557,-1.03156 1.52986,-1.99167 z M 192.18437,112.5 h -3 v -1 h 3 z m -6,0 h -3 v -1 h 3 z m -6,0 h -3 v -1 h 3 z m -6,0 h -3 v -1 h 3 z m -6,0 h -3 v -1 h 3 z m -6,0 h -3 v -1 h 3 z m -6,0 h -3 v -1 h 3 z m -6,0 h -3 v -1 h 3 z m -6,0 h -3 v -1 h 3 z m -6.07601,-1.52806 C 137.70279,110.37721 137.49998,109.71989 137.5,109 v -1.2234 h 1 V 109 c 0,0.51421 0.14485,0.98372 0.43455,1.40852 l -0.82617,0.56342 z M 137.5,104.7766 v -3 h 1 v 3 z m 0,-6.000004 v -3 h 1 v 3 z m 0.96107,-6.185715 C 139.15115,91.863625 139.99745,91.5 141,91.5 h 3 v 1 h -3 c -0.71608,0 -1.32059,0.259735 -1.81352,0.779205 z" /></g><g
           transform="scale(2.9955618)"
           id="g14150"><path
             id="path14152"
             style="fill:#ffffff;fill-opacity:1;fill-rule:nonzero;stroke:none"
             d="m 156,96 h 23 v 14 h -23 z" /><text
             id="text14156"
             style="font-variant:normal;font-weight:normal;font-size:12px;font-family:Helvetica;-inkscape-font-specification:Helvetica;writing-mode:lr-tb;fill:#000000;fill-opacity:1;fill-rule:nonzero;stroke:none"
             transform="translate(155.82813,107)"><tspan
               id="tspan14154"
               y="0"
               x="0 3.3339844 7.3300781 14.003906 16.669922">train</tspan></text>
</g><g
           transform="matrix(2.9955618,0,0,2.9955618,1.4977809,1.4977809)"
           id="g14158"><path
             id="path14160"
             style="fill:none;stroke:#4d4d4d;stroke-width:1;stroke-linecap:butt;stroke-linejoin:miter;stroke-miterlimit:10;stroke-dasharray:none;stroke-opacity:1"
             d="m 105.5,128.39999 -0.1,10.64" /><path
             id="path14162"
             style="fill:none;stroke:#4d4d4d;stroke-width:1;stroke-linecap:butt;stroke-linejoin:miter;stroke-miterlimit:10;stroke-dasharray:none;stroke-opacity:1"
             d="m 103.12,133.14 2.27,7.02 2.4,-6.98001" /></g><g
           transform="matrix(0,-2.9955618,2.9955618,0,-47.928989,682.9881)"
           id="g14164"><path
             id="path14166"
             style="fill:#4d4d4d;fill-opacity:1;fill-rule:nonzero;stroke:none"
             d="m 113.5,29 h -2.49 c -0.0964,0 -0.18752,0.01946 -0.27329,0.05838 l -0.41322,-0.910633 C 110.54055,28.049248 110.76939,28 111.01,28 h 2.49 z m -3.91379,2.293364 c -0.18335,0.790491 -0.32229,1.766305 -0.41678,2.927438 l -0.9967,-0.08111 c 0.0985,-1.209958 0.24492,-2.234047 0.43935,-3.072272 l 0.97413,0.225949 z m -0.5523,5.772874 c -0.009,0.459214 -0.0139,0.937134 -0.0139,1.433762 v 1.686569 h -1 V 38.5 c -1e-5,-0.503536 0.005,-0.988186 0.0141,-1.453949 l 0.99981,0.02019 z m -0.0139,6.120331 v 3 h -1 v -3 z m 0,6 v 3 h -1 v -3 z m 0,6 v 3 h -1 v -3 z m 0,6 v 3 h -1 v -3 z m 0,6 v 3 h -1 v -3 z m 0,6 v 3 h -1 v -3 z m 0,6 v 3 h -1 v -3 z m 0,6 v 3 h -1 v -3 z m 0,6 v 3 h -1 v -3 z m 0,6 v 3.000001 h -1 v -3.000001 z m 0,6.000001 v 3 h -1 v -3 z m 0,6 V 112 l -6.3e-4,0.21292 -1,-0.003 L 108.02,112 v -2.81343 h 1 z m -0.18526,6.17512 c -0.14104,1.15414 -0.36298,2.16726 -0.66581,3.03938 l -0.94467,-0.32802 c 0.2795,-0.80492 0.48546,-1.74914 0.61787,-2.83266 z m -2.2771,5.75505 c -0.79497,0.78385 -1.77062,1.23466 -2.92696,1.35245 l -0.10133,-0.99486 c 0.92291,-0.094 1.6983,-0.45055 2.32617,-1.06965 z M 100.53933,122.5 h -0.27932 -0.92111 v -0.5 -0.5 h 1.82813 v 1 H 99.3389 c -0.138069,-1e-5 -0.25592,-0.0488 -0.353554,-0.14645 C 98.887716,122.25595 98.8389,122.13806 98.8389,122 c 0,-0.13807 0.04881,-0.25592 0.146446,-0.35355 0.09763,-0.0976 0.215485,-0.14645 0.353554,-0.14645 h 0.92111 0.27932 z m 3.71512,-1 h 1.51556 c 0.65221,1e-5 1.20714,0.30093 1.66478,0.90276 l -0.796,0.60529 C 106.38123,122.66935 106.09164,122.5 105.77,122.5 h -1.51556 v -1 z m 4.28068,3.81625 c 0.16959,0.86627 0.29464,1.8899 0.37517,3.07093 l -0.99768,0.068 c -0.0777,-1.13932 -0.19729,-2.1216 -0.35886,-2.94682 l 0.98137,-0.19213 z m 0.48282,6.14174 0.002,0.5401 v 2.52239 h -1 v -2.51857 l -0.002,-0.5401 1,-0.004 z m 0.002,6.06249 v 3 h -1 v -3 z m 0,6 v 3 h -1 v -3 z m 0,6 v 3 h -1 v -3 z m 0,6 v 3 h -1 v -3 z m 0,6 v 3 h -1 v -3 z m 0,6 v 3 h -1 v -3 z m 0,6 v 3 h -1 v -3 z m 0,6 v 3 h -1 v -3 z m 0,6 v 3 h -1 v -3 z m 0,6 v 3 h -1 v -3 z m 0,6 v 3 h -1 v -3 z m 0,6 V 205.5 c 0,0.38588 0.003,0.7605 0.008,1.12386 l -0.99988,0.0154 c -0.006,-0.36864 -0.009,-0.74839 -0.009,-1.13927 v -1.97952 h 1 z m 0.12988,6.00731 c 0.0858,1.15635 0.21385,2.13737 0.38412,2.94305 l -0.97839,0.20679 c -0.17951,-0.84946 -0.31383,-1.87474 -0.40298,-3.07584 z m 1.43133,5.31944 C 110.71451,214.94908 110.85744,215 111.01,215 h 2.19706 v 1 H 111.01 c -0.37809,0 -0.72339,-0.11938 -1.03589,-0.35815 l 0.6071,-0.79462 z" /></g><g
           transform="scale(2.9955618)"
           id="g14168"><text
             id="text14172"
             style="font-variant:normal;font-weight:normal;font-size:9px;font-family:Helvetica;-inkscape-font-specification:Helvetica;writing-mode:lr-tb;fill:#333333;fill-opacity:1;fill-rule:nonzero;stroke:none"
             transform="translate(194.23438,233)"><tspan
               id="tspan14170"
               y="0"
               x="0 4.5 7.4970703 12.502441 17.002441 21.502441 24.499512 28.999512 34.004883 36.004395 38.003906 43.009277 48.014648 50.515137 52.514648 57.52002">cross-validation</tspan></text>
</g><g
           transform="matrix(2.9955618,0,0,2.9955618,1.4977809,1.4977809)"
           id="g14174"><path
             id="path14176"
             style="fill:none;stroke:#333333;stroke-width:1;stroke-linecap:butt;stroke-linejoin:miter;stroke-miterlimit:10;stroke-dasharray:none;stroke-opacity:1"
             d="m 65.080002,202.12 0.05,-17.76" /><path
             id="path14178"
             style="fill:none;stroke:#333333;stroke-width:1;stroke-linecap:butt;stroke-linejoin:miter;stroke-miterlimit:10;stroke-dasharray:none;stroke-opacity:1"
             d="m 67.449997,190.24001 -2.32,-7 -2.349998,6.98999" /></g></g></g></g></svg>