<?xml version="1.0" encoding="UTF-8" standalone="no"?>
<svg
   xmlns:dc="http://purl.org/dc/elements/1.1/"
   xmlns:cc="http://creativecommons.org/ns#"
   xmlns:rdf="http://www.w3.org/1999/02/22-rdf-syntax-ns#"
   xmlns:svg="http://www.w3.org/2000/svg"
   xmlns="http://www.w3.org/2000/svg"
   viewBox="0 0 501.44 418.55997"
   height="418.55997"
   width="501.44"
   xml:space="preserve"
   id="svg5374"
   version="1.1"><metadata
     id="metadata5380"><rdf:RDF><cc:Work
         rdf:about=""><dc:format>image/svg+xml</dc:format><dc:type
           rdf:resource="http://purl.org/dc/dcmitype/StillImage" /><dc:title></dc:title></cc:Work></rdf:RDF></metadata><defs
     id="defs5378"><clipPath
       id="clipPath5390"
       clipPathUnits="userSpaceOnUse"><path
         style="clip-rule:evenodd"
         id="path5388"
         d="M 0,0 H 1566.6665 V 1306.0547 H 0 Z" /></clipPath><clipPath
       id="clipPath5402"
       clipPathUnits="userSpaceOnUse"><path
         style="clip-rule:evenodd"
         id="path5400"
         d="M 2.9955382,2.9955382 H 1560.6755 V 1300.0635 H 2.9955382 Z" /></clipPath><clipPath
       id="clipPath5498"
       clipPathUnits="userSpaceOnUse"><path
         style="clip-rule:evenodd"
         id="path5496"
         d="m 210.6862,262.40915 h 838.551 v 830.12355 h -838.551 z" /></clipPath><clipPath
       id="clipPath5610"
       clipPathUnits="userSpaceOnUse"><path
         style="clip-rule:evenodd"
         id="path5608"
         d="M 2.9955382,2.9955382 H 1560.6755 V 1300.0635 H 2.9955382 Z" /></clipPath><clipPath
       id="clipPath5706"
       clipPathUnits="userSpaceOnUse"><path
         style="clip-rule:evenodd"
         id="path5704"
         d="m 1066.0082,262.40915 h 464.7079 v 163.43057 h -464.7079 z" /></clipPath><clipPath
       id="clipPath5734"
       clipPathUnits="userSpaceOnUse"><path
         style="clip-rule:evenodd"
         id="path5732"
         d="M 2.9955382,2.9955382 H 1560.6755 V 1300.0635 H 2.9955382 Z" /></clipPath><clipPath
       id="clipPath5802"
       clipPathUnits="userSpaceOnUse"><path
         style="clip-rule:evenodd"
         id="path5800"
         d="M 0,0 H 1566.6665 V 1303.0591 H 0 Z" /></clipPath></defs><g
     transform="matrix(0.31999998,0,0,0.31999998,0,7.130666e-6)"
     id="g5382"><g
       id="g5384"><g
         clip-path="url(#clipPath5390)"
         id="g5386"><g
           transform="scale(2.9955382)"
           id="g5392"><path
             id="path5394"
             style="fill:#ffffff;fill-opacity:1;fill-rule:nonzero;stroke:none"
             d="M 0,0 H 523 V 436 H 0 Z" /></g></g></g><g
       id="g5396"><g
         clip-path="url(#clipPath5402)"
         id="g5398"><g
           transform="matrix(2.5961332,0,0,2.594136,2.9955382,2.9955382)"
           id="g5404"><path
             id="path5406"
             style="fill:#ffffff;fill-opacity:1;fill-rule:nonzero;stroke:none"
             d="M 0,0 H 600 V 500 H 0 Z" /></g><g
           transform="matrix(2.5961332,0,0,2.594136,422.68646,2.9955382)"
           id="g5408"><path
             id="path5410"
             style="fill:#000000;fill-opacity:1;fill-rule:nonzero;stroke:none"
             d="M 0,100 V 420" /><path
             id="path5412"
             style="fill:none;stroke:#eeeeee;stroke-width:1;stroke-linecap:butt;stroke-linejoin:miter;stroke-miterlimit:10;stroke-dasharray:none;stroke-opacity:1"
             d="M 0,100 V 420" /></g><g
           transform="matrix(2.5961332,0,0,2.594136,629.96173,2.9955382)"
           id="g5414"><path
             id="path5416"
             style="fill:#000000;fill-opacity:1;fill-rule:nonzero;stroke:none"
             d="M 0,100 V 420" /><path
             id="path5418"
             style="fill:none;stroke:#eeeeee;stroke-width:1;stroke-linecap:butt;stroke-linejoin:miter;stroke-miterlimit:10;stroke-dasharray:none;stroke-opacity:1"
             d="M 0,100 V 420" /></g><g
           transform="matrix(2.5961332,0,0,2.594136,837.237,2.9955382)"
           id="g5420"><path
             id="path5422"
             style="fill:#000000;fill-opacity:1;fill-rule:nonzero;stroke:none"
             d="M 0,100 V 420" /><path
             id="path5424"
             style="fill:none;stroke:#eeeeee;stroke-width:1;stroke-linecap:butt;stroke-linejoin:miter;stroke-miterlimit:10;stroke-dasharray:none;stroke-opacity:1"
             d="M 0,100 V 420" /></g><g
           transform="matrix(2.5961332,0,0,2.594136,1044.5382,2.9955382)"
           id="g5426"><path
             id="path5428"
             style="fill:#000000;fill-opacity:1;fill-rule:nonzero;stroke:none"
             d="M 0,100 V 420" /><path
             id="path5430"
             style="fill:none;stroke:#eeeeee;stroke-width:1;stroke-linecap:butt;stroke-linejoin:miter;stroke-miterlimit:10;stroke-dasharray:none;stroke-opacity:1"
             d="M 0,100 V 420" /></g><g
           transform="matrix(2.5961332,0,0,2.594136,2.9955382,986.92542)"
           id="g5432"><path
             id="path5434"
             style="fill:#000000;fill-opacity:1;fill-rule:nonzero;stroke:none"
             d="M 80,0 H 403" /><path
             id="path5436"
             style="fill:none;stroke:#eeeeee;stroke-width:1;stroke-linecap:butt;stroke-linejoin:miter;stroke-miterlimit:10;stroke-dasharray:none;stroke-opacity:1"
             d="M 80,0 H 403" /></g><g
           transform="matrix(2.5961332,0,0,2.594136,2.9955382,887.90723)"
           id="g5438"><path
             id="path5440"
             style="fill:#000000;fill-opacity:1;fill-rule:nonzero;stroke:none"
             d="M 80,0 H 403" /><path
             id="path5442"
             style="fill:none;stroke:#eeeeee;stroke-width:1;stroke-linecap:butt;stroke-linejoin:miter;stroke-miterlimit:10;stroke-dasharray:none;stroke-opacity:1"
             d="M 80,0 H 403" /></g><g
           transform="matrix(2.5961332,0,0,2.594136,2.9955382,788.8631)"
           id="g5444"><path
             id="path5446"
             style="fill:#000000;fill-opacity:1;fill-rule:nonzero;stroke:none"
             d="M 80,0 H 403" /><path
             id="path5448"
             style="fill:none;stroke:#eeeeee;stroke-width:1;stroke-linecap:butt;stroke-linejoin:miter;stroke-miterlimit:10;stroke-dasharray:none;stroke-opacity:1"
             d="M 80,0 H 403" /></g><g
           transform="matrix(2.5961332,0,0,2.594136,2.9955382,689.84491)"
           id="g5450"><path
             id="path5452"
             style="fill:#000000;fill-opacity:1;fill-rule:nonzero;stroke:none"
             d="M 80,0 H 403" /><path
             id="path5454"
             style="fill:none;stroke:#eeeeee;stroke-width:1;stroke-linecap:butt;stroke-linejoin:miter;stroke-miterlimit:10;stroke-dasharray:none;stroke-opacity:1"
             d="M 80,0 H 403" /></g><g
           transform="matrix(2.5961332,0,0,2.594136,2.9955382,590.82678)"
           id="g5456"><path
             id="path5458"
             style="fill:#000000;fill-opacity:1;fill-rule:nonzero;stroke:none"
             d="M 80,0 H 403" /><path
             id="path5460"
             style="fill:none;stroke:#eeeeee;stroke-width:1;stroke-linecap:butt;stroke-linejoin:miter;stroke-miterlimit:10;stroke-dasharray:none;stroke-opacity:1"
             d="M 80,0 H 403" /></g><g
           transform="matrix(2.5961332,0,0,2.594136,2.9955382,491.80856)"
           id="g5462"><path
             id="path5464"
             style="fill:#000000;fill-opacity:1;fill-rule:nonzero;stroke:none"
             d="M 80,0 H 403" /><path
             id="path5466"
             style="fill:none;stroke:#eeeeee;stroke-width:1;stroke-linecap:butt;stroke-linejoin:miter;stroke-miterlimit:10;stroke-dasharray:none;stroke-opacity:1"
             d="M 80,0 H 403" /></g><g
           transform="matrix(2.5961332,0,0,2.594136,2.9955382,392.76447)"
           id="g5468"><path
             id="path5470"
             style="fill:#000000;fill-opacity:1;fill-rule:nonzero;stroke:none"
             d="M 80,0 H 403" /><path
             id="path5472"
             style="fill:none;stroke:#eeeeee;stroke-width:1;stroke-linecap:butt;stroke-linejoin:miter;stroke-miterlimit:10;stroke-dasharray:none;stroke-opacity:1"
             d="M 80,0 H 403" /></g><g
           transform="matrix(2.5961332,0,0,2.594136,2.9955382,293.74631)"
           id="g5474"><path
             id="path5476"
             style="fill:#000000;fill-opacity:1;fill-rule:nonzero;stroke:none"
             d="M 80,0 H 403" /><path
             id="path5478"
             style="fill:none;stroke:#eeeeee;stroke-width:1;stroke-linecap:butt;stroke-linejoin:miter;stroke-miterlimit:10;stroke-dasharray:none;stroke-opacity:1"
             d="M 80,0 H 403" /></g><g
           transform="matrix(2.5961332,0,0,2.594136,215.38519,2.9955382)"
           id="g5480"><path
             id="path5482"
             style="fill:#000000;fill-opacity:1;fill-rule:nonzero;stroke:none"
             d="M 0,100 V 420" /><path
             id="path5484"
             style="fill:none;stroke:#444444;stroke-width:1;stroke-linecap:butt;stroke-linejoin:miter;stroke-miterlimit:10;stroke-dasharray:none;stroke-opacity:1"
             d="M 0,100 V 420" /></g><g
           transform="matrix(2.5961332,0,0,2.594136,2.9955382,1085.9435)"
           id="g5486"><path
             id="path5488"
             style="fill:#000000;fill-opacity:1;fill-rule:nonzero;stroke:none"
             d="M 80,0 H 403" /><path
             id="path5490"
             style="fill:none;stroke:#444444;stroke-width:1;stroke-linecap:butt;stroke-linejoin:miter;stroke-miterlimit:10;stroke-dasharray:none;stroke-opacity:1"
             d="M 80,0 H 403" /></g></g></g><g
       id="g5492"><g
         clip-path="url(#clipPath5498)"
         id="g5494"><g
           transform="matrix(2.5961332,0,0,2.594136,629.96173,689.84497)"
           id="g5500"><path
             id="path5502"
             style="fill:#555555;fill-opacity:0.6;fill-rule:nonzero;stroke:none"
             d="M 4.5,0 C 4.4999995,0.59673703 4.385819,1.1707621 4.1574574,1.7220752 3.929096,2.2733884 3.6039369,2.7600234 3.1819801,3.1819801 2.7600234,3.6039369 2.2733884,3.929096 1.7220752,4.1574574 1.1707621,4.385819 0.59673703,4.4999995 0,4.5 -0.59673703,4.4999995 -1.1707621,4.385819 -1.7220752,4.1574574 -2.2733884,3.929096 -2.7600234,3.6039369 -3.1819801,3.1819801 -3.6039369,2.7600234 -3.929096,2.2733884 -4.1574574,1.7220752 -4.385819,1.1707621 -4.4999995,0.59673703 -4.5,0 c 5e-7,-0.59673703 0.114181,-1.1707621 0.3425426,-1.7220752 0.2283614,-0.5513132 0.5535205,-1.0379482 0.9754773,-1.4599049 0.4219567,-0.4219568 0.9085917,-0.7471159 1.4599049,-0.9754773 C -1.1707621,-4.385819 -0.59673703,-4.4999995 0,-4.5 c 0.59673703,5e-7 1.1707621,0.114181 1.7220752,0.3425426 0.5513132,0.2283614 1.0379482,0.5535205 1.4599049,0.9754773 0.4219568,0.4219567 0.7471159,0.9085917 0.9754773,1.4599049 C 4.385819,-1.1707621 4.4999995,-0.59673703 4.5,0 Z" /></g><g
           transform="matrix(2.5961332,0,0,2.594136,837.237,887.90723)"
           id="g5504"><path
             id="path5506"
             style="fill:#555555;fill-opacity:0.6;fill-rule:nonzero;stroke:none"
             d="M 4.5,0 C 4.4999995,0.59673703 4.385819,1.1707621 4.1574574,1.7220752 3.929096,2.2733884 3.6039369,2.7600234 3.1819801,3.1819801 2.7600234,3.6039369 2.2733884,3.929096 1.7220752,4.1574574 1.1707621,4.385819 0.59673703,4.4999995 0,4.5 -0.59673703,4.4999995 -1.1707621,4.385819 -1.7220752,4.1574574 -2.2733884,3.929096 -2.7600234,3.6039369 -3.1819801,3.1819801 -3.6039369,2.7600234 -3.929096,2.2733884 -4.1574574,1.7220752 -4.385819,1.1707621 -4.4999995,0.59673703 -4.5,0 c 5e-7,-0.59673703 0.114181,-1.1707621 0.3425426,-1.7220752 0.2283614,-0.5513132 0.5535205,-1.0379482 0.9754773,-1.4599049 0.4219567,-0.4219568 0.9085917,-0.7471159 1.4599049,-0.9754773 C -1.1707621,-4.385819 -0.59673703,-4.4999995 0,-4.5 c 0.59673703,5e-7 1.1707621,0.114181 1.7220752,0.3425426 0.5513132,0.2283614 1.0379482,0.5535205 1.4599049,0.9754773 0.4219568,0.4219567 0.7471159,0.9085917 0.9754773,1.4599049 C 4.385819,-1.1707621 4.4999995,-0.59673703 4.5,0 Z" /></g><g
           transform="matrix(2.5961332,0,0,2.594136,422.68646,491.80859)"
           id="g5508"><path
             id="path5510"
             style="fill:#555555;fill-opacity:0.6;fill-rule:nonzero;stroke:none"
             d="M 4.5,0 C 4.4999995,0.59673703 4.385819,1.1707621 4.1574574,1.7220752 3.929096,2.2733884 3.6039369,2.7600234 3.1819801,3.1819801 2.7600234,3.6039369 2.2733884,3.929096 1.7220752,4.1574574 1.1707621,4.385819 0.59673703,4.4999995 0,4.5 -0.59673703,4.4999995 -1.1707621,4.385819 -1.7220752,4.1574574 -2.2733884,3.929096 -2.7600234,3.6039369 -3.1819801,3.1819801 -3.6039369,2.7600234 -3.929096,2.2733884 -4.1574574,1.7220752 -4.385819,1.1707621 -4.4999995,0.59673703 -4.5,0 c 5e-7,-0.59673703 0.114181,-1.1707621 0.3425426,-1.7220752 0.2283614,-0.5513132 0.5535205,-1.0379482 0.9754773,-1.4599049 0.4219567,-0.4219568 0.9085917,-0.7471159 1.4599049,-0.9754773 C -1.1707621,-4.385819 -0.59673703,-4.4999995 0,-4.5 c 0.59673703,5e-7 1.1707621,0.114181 1.7220752,0.3425426 0.5513132,0.2283614 1.0379482,0.5535205 1.4599049,0.9754773 0.4219568,0.4219567 0.7471159,0.9085917 0.9754773,1.4599049 C 4.385819,-1.1707621 4.4999995,-0.59673703 4.5,0 Z" /></g><g
           transform="matrix(2.5961332,0,0,2.594136,526.3241,788.86316)"
           id="g5512"><path
             id="path5514"
             style="fill:#555555;fill-opacity:0.6;fill-rule:nonzero;stroke:none"
             d="M 4.5,0 C 4.4999995,0.59673703 4.385819,1.1707621 4.1574574,1.7220752 3.929096,2.2733884 3.6039369,2.7600234 3.1819801,3.1819801 2.7600234,3.6039369 2.2733884,3.929096 1.7220752,4.1574574 1.1707621,4.385819 0.59673703,4.4999995 0,4.5 -0.59673703,4.4999995 -1.1707621,4.385819 -1.7220752,4.1574574 -2.2733884,3.929096 -2.7600234,3.6039369 -3.1819801,3.1819801 -3.6039369,2.7600234 -3.929096,2.2733884 -4.1574574,1.7220752 -4.385819,1.1707621 -4.4999995,0.59673703 -4.5,0 c 5e-7,-0.59673703 0.114181,-1.1707621 0.3425426,-1.7220752 0.2283614,-0.5513132 0.5535205,-1.0379482 0.9754773,-1.4599049 0.4219567,-0.4219568 0.9085917,-0.7471159 1.4599049,-0.9754773 C -1.1707621,-4.385819 -0.59673703,-4.4999995 0,-4.5 c 0.59673703,5e-7 1.1707621,0.114181 1.7220752,0.3425426 0.5513132,0.2283614 1.0379482,0.5535205 1.4599049,0.9754773 0.4219568,0.4219567 0.7471159,0.9085917 0.9754773,1.4599049 C 4.385819,-1.1707621 4.4999995,-0.59673703 4.5,0 Z" /></g><g
           transform="matrix(2.5961332,0,0,2.594136,940.87469,392.76447)"
           id="g5516"><path
             id="path5518"
             style="fill:#555555;fill-opacity:0.6;fill-rule:nonzero;stroke:none"
             d="M 4.5,0 C 4.4999995,0.59673703 4.385819,1.1707621 4.1574574,1.7220752 3.929096,2.2733884 3.6039369,2.7600234 3.1819801,3.1819801 2.7600234,3.6039369 2.2733884,3.929096 1.7220752,4.1574574 1.1707621,4.385819 0.59673703,4.4999995 0,4.5 -0.59673703,4.4999995 -1.1707621,4.385819 -1.7220752,4.1574574 -2.2733884,3.929096 -2.7600234,3.6039369 -3.1819801,3.1819801 -3.6039369,2.7600234 -3.929096,2.2733884 -4.1574574,1.7220752 -4.385819,1.1707621 -4.4999995,0.59673703 -4.5,0 c 5e-7,-0.59673703 0.114181,-1.1707621 0.3425426,-1.7220752 0.2283614,-0.5513132 0.5535205,-1.0379482 0.9754773,-1.4599049 0.4219567,-0.4219568 0.9085917,-0.7471159 1.4599049,-0.9754773 C -1.1707621,-4.385819 -0.59673703,-4.4999995 0,-4.5 c 0.59673703,5e-7 1.1707621,0.114181 1.7220752,0.3425426 0.5513132,0.2283614 1.0379482,0.5535205 1.4599049,0.9754773 0.4219568,0.4219567 0.7471159,0.9085917 0.9754773,1.4599049 C 4.385819,-1.1707621 4.4999995,-0.59673703 4.5,0 Z" /></g><g
           transform="matrix(2.5961332,0,0,2.594136,733.59937,986.92542)"
           id="g5520"><path
             id="path5522"
             style="fill:#555555;fill-opacity:0.6;fill-rule:nonzero;stroke:none"
             d="M 4.5,0 C 4.4999995,0.59673703 4.385819,1.1707621 4.1574574,1.7220752 3.929096,2.2733884 3.6039369,2.7600234 3.1819801,3.1819801 2.7600234,3.6039369 2.2733884,3.929096 1.7220752,4.1574574 1.1707621,4.385819 0.59673703,4.4999995 0,4.5 -0.59673703,4.4999995 -1.1707621,4.385819 -1.7220752,4.1574574 -2.2733884,3.929096 -2.7600234,3.6039369 -3.1819801,3.1819801 -3.6039369,2.7600234 -3.929096,2.2733884 -4.1574574,1.7220752 -4.385819,1.1707621 -4.4999995,0.59673703 -4.5,0 c 5e-7,-0.59673703 0.114181,-1.1707621 0.3425426,-1.7220752 0.2283614,-0.5513132 0.5535205,-1.0379482 0.9754773,-1.4599049 0.4219567,-0.4219568 0.9085917,-0.7471159 1.4599049,-0.9754773 C -1.1707621,-4.385819 -0.59673703,-4.4999995 0,-4.5 c 0.59673703,5e-7 1.1707621,0.114181 1.7220752,0.3425426 0.5513132,0.2283614 1.0379482,0.5535205 1.4599049,0.9754773 0.4219568,0.4219567 0.7471159,0.9085917 0.9754773,1.4599049 C 4.385819,-1.1707621 4.4999995,-0.59673703 4.5,0 Z" /></g><g
           transform="matrix(2.5961332,0,0,2.594136,319.0488,590.82678)"
           id="g5524"><path
             id="path5526"
             style="fill:#555555;fill-opacity:0.6;fill-rule:nonzero;stroke:none"
             d="M 4.5,0 C 4.4999995,0.59673703 4.385819,1.1707621 4.1574574,1.7220752 3.929096,2.2733884 3.6039369,2.7600234 3.1819801,3.1819801 2.7600234,3.6039369 2.2733884,3.929096 1.7220752,4.1574574 1.1707621,4.385819 0.59673703,4.4999995 0,4.5 -0.59673703,4.4999995 -1.1707621,4.385819 -1.7220752,4.1574574 -2.2733884,3.929096 -2.7600234,3.6039369 -3.1819801,3.1819801 -3.6039369,2.7600234 -3.929096,2.2733884 -4.1574574,1.7220752 -4.385819,1.1707621 -4.4999995,0.59673703 -4.5,0 c 5e-7,-0.59673703 0.114181,-1.1707621 0.3425426,-1.7220752 0.2283614,-0.5513132 0.5535205,-1.0379482 0.9754773,-1.4599049 0.4219567,-0.4219568 0.9085917,-0.7471159 1.4599049,-0.9754773 C -1.1707621,-4.385819 -0.59673703,-4.4999995 0,-4.5 c 0.59673703,5e-7 1.1707621,0.114181 1.7220752,0.3425426 0.5513132,0.2283614 1.0379482,0.5535205 1.4599049,0.9754773 0.4219568,0.4219567 0.7471159,0.9085917 0.9754773,1.4599049 C 4.385819,-1.1707621 4.4999995,-0.59673703 4.5,0 Z" /></g><g
           transform="matrix(2.5961332,0,0,2.594136,370.86761,838.38513)"
           id="g5528"><path
             id="path5530"
             style="fill:#555555;fill-opacity:0.6;fill-rule:nonzero;stroke:none"
             d="M 4.5,0 C 4.4999995,0.59673703 4.385819,1.1707621 4.1574574,1.7220752 3.929096,2.2733884 3.6039369,2.7600234 3.1819801,3.1819801 2.7600234,3.6039369 2.2733884,3.929096 1.7220752,4.1574574 1.1707621,4.385819 0.59673703,4.4999995 0,4.5 -0.59673703,4.4999995 -1.1707621,4.385819 -1.7220752,4.1574574 -2.2733884,3.929096 -2.7600234,3.6039369 -3.1819801,3.1819801 -3.6039369,2.7600234 -3.929096,2.2733884 -4.1574574,1.7220752 -4.385819,1.1707621 -4.4999995,0.59673703 -4.5,0 c 5e-7,-0.59673703 0.114181,-1.1707621 0.3425426,-1.7220752 0.2283614,-0.5513132 0.5535205,-1.0379482 0.9754773,-1.4599049 0.4219567,-0.4219568 0.9085917,-0.7471159 1.4599049,-0.9754773 C -1.1707621,-4.385819 -0.59673703,-4.4999995 0,-4.5 c 0.59673703,5e-7 1.1707621,0.114181 1.7220752,0.3425426 0.5513132,0.2283614 1.0379482,0.5535205 1.4599049,0.9754773 0.4219568,0.4219567 0.7471159,0.9085917 0.9754773,1.4599049 C 4.385819,-1.1707621 4.4999995,-0.59673703 4.5,0 Z" /></g><g
           transform="matrix(2.5961332,0,0,2.594136,785.41821,442.28653)"
           id="g5532"><path
             id="path5534"
             style="fill:#555555;fill-opacity:0.6;fill-rule:nonzero;stroke:none"
             d="M 4.5,0 C 4.4999995,0.59673703 4.385819,1.1707621 4.1574574,1.7220752 3.929096,2.2733884 3.6039369,2.7600234 3.1819801,3.1819801 2.7600234,3.6039369 2.2733884,3.929096 1.7220752,4.1574574 1.1707621,4.385819 0.59673703,4.4999995 0,4.5 -0.59673703,4.4999995 -1.1707621,4.385819 -1.7220752,4.1574574 -2.2733884,3.929096 -2.7600234,3.6039369 -3.1819801,3.1819801 -3.6039369,2.7600234 -3.929096,2.2733884 -4.1574574,1.7220752 -4.385819,1.1707621 -4.4999995,0.59673703 -4.5,0 c 5e-7,-0.59673703 0.114181,-1.1707621 0.3425426,-1.7220752 0.2283614,-0.5513132 0.5535205,-1.0379482 0.9754773,-1.4599049 0.4219567,-0.4219568 0.9085917,-0.7471159 1.4599049,-0.9754773 C -1.1707621,-4.385819 -0.59673703,-4.4999995 0,-4.5 c 0.59673703,5e-7 1.1707621,0.114181 1.7220752,0.3425426 0.5513132,0.2283614 1.0379482,0.5535205 1.4599049,0.9754773 0.4219568,0.4219567 0.7471159,0.9085917 0.9754773,1.4599049 C 4.385819,-1.1707621 4.4999995,-0.59673703 4.5,0 Z" /></g><g
           transform="matrix(2.5961332,0,0,2.594136,992.71948,1036.4475)"
           id="g5536"><path
             id="path5538"
             style="fill:#555555;fill-opacity:0.6;fill-rule:nonzero;stroke:none"
             d="M 4.5,0 C 4.4999995,0.59673703 4.385819,1.1707621 4.1574574,1.7220752 3.929096,2.2733884 3.6039369,2.7600234 3.1819801,3.1819801 2.7600234,3.6039369 2.2733884,3.929096 1.7220752,4.1574574 1.1707621,4.385819 0.59673703,4.4999995 0,4.5 -0.59673703,4.4999995 -1.1707621,4.385819 -1.7220752,4.1574574 -2.2733884,3.929096 -2.7600234,3.6039369 -3.1819801,3.1819801 -3.6039369,2.7600234 -3.929096,2.2733884 -4.1574574,1.7220752 -4.385819,1.1707621 -4.4999995,0.59673703 -4.5,0 c 5e-7,-0.59673703 0.114181,-1.1707621 0.3425426,-1.7220752 0.2283614,-0.5513132 0.5535205,-1.0379482 0.9754773,-1.4599049 0.4219567,-0.4219568 0.9085917,-0.7471159 1.4599049,-0.9754773 C -1.1707621,-4.385819 -0.59673703,-4.4999995 0,-4.5 c 0.59673703,5e-7 1.1707621,0.114181 1.7220752,0.3425426 0.5513132,0.2283614 1.0379482,0.5535205 1.4599049,0.9754773 0.4219568,0.4219567 0.7471159,0.9085917 0.9754773,1.4599049 C 4.385819,-1.1707621 4.4999995,-0.59673703 4.5,0 Z" /></g><g
           transform="matrix(2.5961332,0,0,2.594136,578.14288,640.34882)"
           id="g5540"><path
             id="path5542"
             style="fill:#555555;fill-opacity:0.6;fill-rule:nonzero;stroke:none"
             d="M 4.5,0 C 4.4999995,0.59673703 4.385819,1.1707621 4.1574574,1.7220752 3.929096,2.2733884 3.6039369,2.7600234 3.1819801,3.1819801 2.7600234,3.6039369 2.2733884,3.929096 1.7220752,4.1574574 1.1707621,4.385819 0.59673703,4.4999995 0,4.5 -0.59673703,4.4999995 -1.1707621,4.385819 -1.7220752,4.1574574 -2.2733884,3.929096 -2.7600234,3.6039369 -3.1819801,3.1819801 -3.6039369,2.7600234 -3.929096,2.2733884 -4.1574574,1.7220752 -4.385819,1.1707621 -4.4999995,0.59673703 -4.5,0 c 5e-7,-0.59673703 0.114181,-1.1707621 0.3425426,-1.7220752 0.2283614,-0.5513132 0.5535205,-1.0379482 0.9754773,-1.4599049 0.4219567,-0.4219568 0.9085917,-0.7471159 1.4599049,-0.9754773 C -1.1707621,-4.385819 -0.59673703,-4.4999995 0,-4.5 c 0.59673703,5e-7 1.1707621,0.114181 1.7220752,0.3425426 0.5513132,0.2283614 1.0379482,0.5535205 1.4599049,0.9754773 0.4219568,0.4219567 0.7471159,0.9085917 0.9754773,1.4599049 C 4.385819,-1.1707621 4.4999995,-0.59673703 4.5,0 Z" /></g><g
           transform="matrix(2.5961332,0,0,2.594136,474.50525,937.40332)"
           id="g5544"><path
             id="path5546"
             style="fill:#555555;fill-opacity:0.6;fill-rule:nonzero;stroke:none"
             d="M 4.5,0 C 4.4999995,0.59673703 4.385819,1.1707621 4.1574574,1.7220752 3.929096,2.2733884 3.6039369,2.7600234 3.1819801,3.1819801 2.7600234,3.6039369 2.2733884,3.929096 1.7220752,4.1574574 1.1707621,4.385819 0.59673703,4.4999995 0,4.5 -0.59673703,4.4999995 -1.1707621,4.385819 -1.7220752,4.1574574 -2.2733884,3.929096 -2.7600234,3.6039369 -3.1819801,3.1819801 -3.6039369,2.7600234 -3.929096,2.2733884 -4.1574574,1.7220752 -4.385819,1.1707621 -4.4999995,0.59673703 -4.5,0 c 5e-7,-0.59673703 0.114181,-1.1707621 0.3425426,-1.7220752 0.2283614,-0.5513132 0.5535205,-1.0379482 0.9754773,-1.4599049 0.4219567,-0.4219568 0.9085917,-0.7471159 1.4599049,-0.9754773 C -1.1707621,-4.385819 -0.59673703,-4.4999995 0,-4.5 c 0.59673703,5e-7 1.1707621,0.114181 1.7220752,0.3425426 0.5513132,0.2283614 1.0379482,0.5535205 1.4599049,0.9754773 0.4219568,0.4219567 0.7471159,0.9085917 0.9754773,1.4599049 C 4.385819,-1.1707621 4.4999995,-0.59673703 4.5,0 Z" /></g><g
           transform="matrix(2.5961332,0,0,2.594136,889.05579,541.30469)"
           id="g5548"><path
             id="path5550"
             style="fill:#555555;fill-opacity:0.6;fill-rule:nonzero;stroke:none"
             d="M 4.5,0 C 4.4999995,0.59673703 4.385819,1.1707621 4.1574574,1.7220752 3.929096,2.2733884 3.6039369,2.7600234 3.1819801,3.1819801 2.7600234,3.6039369 2.2733884,3.929096 1.7220752,4.1574574 1.1707621,4.385819 0.59673703,4.4999995 0,4.5 -0.59673703,4.4999995 -1.1707621,4.385819 -1.7220752,4.1574574 -2.2733884,3.929096 -2.7600234,3.6039369 -3.1819801,3.1819801 -3.6039369,2.7600234 -3.929096,2.2733884 -4.1574574,1.7220752 -4.385819,1.1707621 -4.4999995,0.59673703 -4.5,0 c 5e-7,-0.59673703 0.114181,-1.1707621 0.3425426,-1.7220752 0.2283614,-0.5513132 0.5535205,-1.0379482 0.9754773,-1.4599049 0.4219567,-0.4219568 0.9085917,-0.7471159 1.4599049,-0.9754773 C -1.1707621,-4.385819 -0.59673703,-4.4999995 0,-4.5 c 0.59673703,5e-7 1.1707621,0.114181 1.7220752,0.3425426 0.5513132,0.2283614 1.0379482,0.5535205 1.4599049,0.9754773 0.4219568,0.4219567 0.7471159,0.9085917 0.9754773,1.4599049 C 4.385819,-1.1707621 4.4999995,-0.59673703 4.5,0 Z" /></g><g
           transform="matrix(2.5961332,0,0,2.594136,681.78058,739.367)"
           id="g5552"><path
             id="path5554"
             style="fill:#555555;fill-opacity:0.6;fill-rule:nonzero;stroke:none"
             d="M 4.5,0 C 4.4999995,0.59673703 4.385819,1.1707621 4.1574574,1.7220752 3.929096,2.2733884 3.6039369,2.7600234 3.1819801,3.1819801 2.7600234,3.6039369 2.2733884,3.929096 1.7220752,4.1574574 1.1707621,4.385819 0.59673703,4.4999995 0,4.5 -0.59673703,4.4999995 -1.1707621,4.385819 -1.7220752,4.1574574 -2.2733884,3.929096 -2.7600234,3.6039369 -3.1819801,3.1819801 -3.6039369,2.7600234 -3.929096,2.2733884 -4.1574574,1.7220752 -4.385819,1.1707621 -4.4999995,0.59673703 -4.5,0 c 5e-7,-0.59673703 0.114181,-1.1707621 0.3425426,-1.7220752 0.2283614,-0.5513132 0.5535205,-1.0379482 0.9754773,-1.4599049 0.4219567,-0.4219568 0.9085917,-0.7471159 1.4599049,-0.9754773 C -1.1707621,-4.385819 -0.59673703,-4.4999995 0,-4.5 c 0.59673703,5e-7 1.1707621,0.114181 1.7220752,0.3425426 0.5513132,0.2283614 1.0379482,0.5535205 1.4599049,0.9754773 0.4219568,0.4219567 0.7471159,0.9085917 0.9754773,1.4599049 C 4.385819,-1.1707621 4.4999995,-0.59673703 4.5,0 Z" /></g><g
           transform="matrix(2.5961332,0,0,2.594136,267.22998,343.26837)"
           id="g5556"><path
             id="path5558"
             style="fill:#555555;fill-opacity:0.6;fill-rule:nonzero;stroke:none"
             d="M 4.5,0 C 4.4999995,0.59673703 4.385819,1.1707621 4.1574574,1.7220752 3.929096,2.2733884 3.6039369,2.7600234 3.1819801,3.1819801 2.7600234,3.6039369 2.2733884,3.929096 1.7220752,4.1574574 1.1707621,4.385819 0.59673703,4.4999995 0,4.5 -0.59673703,4.4999995 -1.1707621,4.385819 -1.7220752,4.1574574 -2.2733884,3.929096 -2.7600234,3.6039369 -3.1819801,3.1819801 -3.6039369,2.7600234 -3.929096,2.2733884 -4.1574574,1.7220752 -4.385819,1.1707621 -4.4999995,0.59673703 -4.5,0 c 5e-7,-0.59673703 0.114181,-1.1707621 0.3425426,-1.7220752 0.2283614,-0.5513132 0.5535205,-1.0379482 0.9754773,-1.4599049 0.4219567,-0.4219568 0.9085917,-0.7471159 1.4599049,-0.9754773 C -1.1707621,-4.385819 -0.59673703,-4.4999995 0,-4.5 c 0.59673703,5e-7 1.1707621,0.114181 1.7220752,0.3425426 0.5513132,0.2283614 1.0379482,0.5535205 1.4599049,0.9754773 0.4219568,0.4219567 0.7471159,0.9085917 0.9754773,1.4599049 C 4.385819,-1.1707621 4.4999995,-0.59673703 4.5,0 Z" /></g><g
           transform="matrix(2.5961332,0,0,2.594136,293.1394,714.59302)"
           id="g5560"><path
             id="path5562"
             style="fill:#555555;fill-opacity:0.6;fill-rule:nonzero;stroke:none"
             d="M 4.5,0 C 4.4999995,0.59673703 4.385819,1.1707621 4.1574574,1.7220752 3.929096,2.2733884 3.6039369,2.7600234 3.1819801,3.1819801 2.7600234,3.6039369 2.2733884,3.929096 1.7220752,4.1574574 1.1707621,4.385819 0.59673703,4.4999995 0,4.5 -0.59673703,4.4999995 -1.1707621,4.385819 -1.7220752,4.1574574 -2.2733884,3.929096 -2.7600234,3.6039369 -3.1819801,3.1819801 -3.6039369,2.7600234 -3.929096,2.2733884 -4.1574574,1.7220752 -4.385819,1.1707621 -4.4999995,0.59673703 -4.5,0 c 5e-7,-0.59673703 0.114181,-1.1707621 0.3425426,-1.7220752 0.2283614,-0.5513132 0.5535205,-1.0379482 0.9754773,-1.4599049 0.4219567,-0.4219568 0.9085917,-0.7471159 1.4599049,-0.9754773 C -1.1707621,-4.385819 -0.59673703,-4.4999995 0,-4.5 c 0.59673703,5e-7 1.1707621,0.114181 1.7220752,0.3425426 0.5513132,0.2283614 1.0379482,0.5535205 1.4599049,0.9754773 0.4219568,0.4219567 0.7471159,0.9085917 0.9754773,1.4599049 C 4.385819,-1.1707621 4.4999995,-0.59673703 4.5,0 Z" /></g><g
           transform="matrix(2.5961332,0,0,2.594136,707.68994,318.52032)"
           id="g5564"><path
             id="path5566"
             style="fill:#555555;fill-opacity:0.6;fill-rule:nonzero;stroke:none"
             d="M 4.5,0 C 4.4999995,0.59673703 4.385819,1.1707621 4.1574574,1.7220752 3.929096,2.2733884 3.6039369,2.7600234 3.1819801,3.1819801 2.7600234,3.6039369 2.2733884,3.929096 1.7220752,4.1574574 1.1707621,4.385819 0.59673703,4.4999995 0,4.5 -0.59673703,4.4999995 -1.1707621,4.385819 -1.7220752,4.1574574 -2.2733884,3.929096 -2.7600234,3.6039369 -3.1819801,3.1819801 -3.6039369,2.7600234 -3.929096,2.2733884 -4.1574574,1.7220752 -4.385819,1.1707621 -4.4999995,0.59673703 -4.5,0 c 5e-7,-0.59673703 0.114181,-1.1707621 0.3425426,-1.7220752 0.2283614,-0.5513132 0.5535205,-1.0379482 0.9754773,-1.4599049 0.4219567,-0.4219568 0.9085917,-0.7471159 1.4599049,-0.9754773 C -1.1707621,-4.385819 -0.59673703,-4.4999995 0,-4.5 c 0.59673703,5e-7 1.1707621,0.114181 1.7220752,0.3425426 0.5513132,0.2283614 1.0379482,0.5535205 1.4599049,0.9754773 0.4219568,0.4219567 0.7471159,0.9085917 0.9754773,1.4599049 C 4.385819,-1.1707621 4.4999995,-0.59673703 4.5,0 Z" /></g><g
           transform="matrix(2.5961332,0,0,2.594136,914.96521,912.65527)"
           id="g5568"><path
             id="path5570"
             style="fill:#555555;fill-opacity:0.6;fill-rule:nonzero;stroke:none"
             d="M 4.5,0 C 4.4999995,0.59673703 4.385819,1.1707621 4.1574574,1.7220752 3.929096,2.2733884 3.6039369,2.7600234 3.1819801,3.1819801 2.7600234,3.6039369 2.2733884,3.929096 1.7220752,4.1574574 1.1707621,4.385819 0.59673703,4.4999995 0,4.5 -0.59673703,4.4999995 -1.1707621,4.385819 -1.7220752,4.1574574 -2.2733884,3.929096 -2.7600234,3.6039369 -3.1819801,3.1819801 -3.6039369,2.7600234 -3.929096,2.2733884 -4.1574574,1.7220752 -4.385819,1.1707621 -4.4999995,0.59673703 -4.5,0 c 5e-7,-0.59673703 0.114181,-1.1707621 0.3425426,-1.7220752 0.2283614,-0.5513132 0.5535205,-1.0379482 0.9754773,-1.4599049 0.4219567,-0.4219568 0.9085917,-0.7471159 1.4599049,-0.9754773 C -1.1707621,-4.385819 -0.59673703,-4.4999995 0,-4.5 c 0.59673703,5e-7 1.1707621,0.114181 1.7220752,0.3425426 0.5513132,0.2283614 1.0379482,0.5535205 1.4599049,0.9754773 0.4219568,0.4219567 0.7471159,0.9085917 0.9754773,1.4599049 C 4.385819,-1.1707621 4.4999995,-0.59673703 4.5,0 Z" /></g><g
           transform="matrix(2.5961332,0,0,2.594136,500.41467,516.55664)"
           id="g5572"><path
             id="path5574"
             style="fill:#555555;fill-opacity:0.6;fill-rule:nonzero;stroke:none"
             d="M 4.5,0 C 4.4999995,0.59673703 4.385819,1.1707621 4.1574574,1.7220752 3.929096,2.2733884 3.6039369,2.7600234 3.1819801,3.1819801 2.7600234,3.6039369 2.2733884,3.929096 1.7220752,4.1574574 1.1707621,4.385819 0.59673703,4.4999995 0,4.5 -0.59673703,4.4999995 -1.1707621,4.385819 -1.7220752,4.1574574 -2.2733884,3.929096 -2.7600234,3.6039369 -3.1819801,3.1819801 -3.6039369,2.7600234 -3.929096,2.2733884 -4.1574574,1.7220752 -4.385819,1.1707621 -4.4999995,0.59673703 -4.5,0 c 5e-7,-0.59673703 0.114181,-1.1707621 0.3425426,-1.7220752 0.2283614,-0.5513132 0.5535205,-1.0379482 0.9754773,-1.4599049 0.4219567,-0.4219568 0.9085917,-0.7471159 1.4599049,-0.9754773 C -1.1707621,-4.385819 -0.59673703,-4.4999995 0,-4.5 c 0.59673703,5e-7 1.1707621,0.114181 1.7220752,0.3425426 0.5513132,0.2283614 1.0379482,0.5535205 1.4599049,0.9754773 0.4219568,0.4219567 0.7471159,0.9085917 0.9754773,1.4599049 C 4.385819,-1.1707621 4.4999995,-0.59673703 4.5,0 Z" /></g><g
           transform="matrix(2.5961332,0,0,2.594136,604.05231,1011.6735)"
           id="g5576"><path
             id="path5578"
             style="fill:#555555;fill-opacity:0.6;fill-rule:nonzero;stroke:none"
             d="M 4.5,0 C 4.4999995,0.59673703 4.385819,1.1707621 4.1574574,1.7220752 3.929096,2.2733884 3.6039369,2.7600234 3.1819801,3.1819801 2.7600234,3.6039369 2.2733884,3.929096 1.7220752,4.1574574 1.1707621,4.385819 0.59673703,4.4999995 0,4.5 -0.59673703,4.4999995 -1.1707621,4.385819 -1.7220752,4.1574574 -2.2733884,3.929096 -2.7600234,3.6039369 -3.1819801,3.1819801 -3.6039369,2.7600234 -3.929096,2.2733884 -4.1574574,1.7220752 -4.385819,1.1707621 -4.4999995,0.59673703 -4.5,0 c 5e-7,-0.59673703 0.114181,-1.1707621 0.3425426,-1.7220752 0.2283614,-0.5513132 0.5535205,-1.0379482 0.9754773,-1.4599049 0.4219567,-0.4219568 0.9085917,-0.7471159 1.4599049,-0.9754773 C -1.1707621,-4.385819 -0.59673703,-4.4999995 0,-4.5 c 0.59673703,5e-7 1.1707621,0.114181 1.7220752,0.3425426 0.5513132,0.2283614 1.0379482,0.5535205 1.4599049,0.9754773 0.4219568,0.4219567 0.7471159,0.9085917 0.9754773,1.4599049 C 4.385819,-1.1707621 4.4999995,-0.59673703 4.5,0 Z" /></g><g
           transform="matrix(2.5961332,0,0,2.594136,370.86761,838.38513)"
           id="g5580"><path
             id="path5582"
             style="fill:#3333ff;fill-opacity:1;fill-rule:nonzero;stroke:none"
             d="M 4.5,0 C 4.4999995,0.59673703 4.385819,1.1707621 4.1574574,1.7220752 3.929096,2.2733884 3.6039369,2.7600234 3.1819801,3.1819801 2.7600234,3.6039369 2.2733884,3.929096 1.7220752,4.1574574 1.1707621,4.385819 0.59673703,4.4999995 0,4.5 -0.59673703,4.4999995 -1.1707621,4.385819 -1.7220752,4.1574574 -2.2733884,3.929096 -2.7600234,3.6039369 -3.1819801,3.1819801 -3.6039369,2.7600234 -3.929096,2.2733884 -4.1574574,1.7220752 -4.385819,1.1707621 -4.4999995,0.59673703 -4.5,0 c 5e-7,-0.59673703 0.114181,-1.1707621 0.3425426,-1.7220752 0.2283614,-0.5513132 0.5535205,-1.0379482 0.9754773,-1.4599049 0.4219567,-0.4219568 0.9085917,-0.7471159 1.4599049,-0.9754773 C -1.1707621,-4.385819 -0.59673703,-4.4999995 0,-4.5 c 0.59673703,5e-7 1.1707621,0.114181 1.7220752,0.3425426 0.5513132,0.2283614 1.0379482,0.5535205 1.4599049,0.9754773 0.4219568,0.4219567 0.7471159,0.9085917 0.9754773,1.4599049 C 4.385819,-1.1707621 4.4999995,-0.59673703 4.5,0 Z" /></g><g
           transform="matrix(2.5961332,0,0,2.594136,992.71948,1036.4475)"
           id="g5584"><path
             id="path5586"
             style="fill:#3333ff;fill-opacity:1;fill-rule:nonzero;stroke:none"
             d="M 4.5,0 C 4.4999995,0.59673703 4.385819,1.1707621 4.1574574,1.7220752 3.929096,2.2733884 3.6039369,2.7600234 3.1819801,3.1819801 2.7600234,3.6039369 2.2733884,3.929096 1.7220752,4.1574574 1.1707621,4.385819 0.59673703,4.4999995 0,4.5 -0.59673703,4.4999995 -1.1707621,4.385819 -1.7220752,4.1574574 -2.2733884,3.929096 -2.7600234,3.6039369 -3.1819801,3.1819801 -3.6039369,2.7600234 -3.929096,2.2733884 -4.1574574,1.7220752 -4.385819,1.1707621 -4.4999995,0.59673703 -4.5,0 c 5e-7,-0.59673703 0.114181,-1.1707621 0.3425426,-1.7220752 0.2283614,-0.5513132 0.5535205,-1.0379482 0.9754773,-1.4599049 0.4219567,-0.4219568 0.9085917,-0.7471159 1.4599049,-0.9754773 C -1.1707621,-4.385819 -0.59673703,-4.4999995 0,-4.5 c 0.59673703,5e-7 1.1707621,0.114181 1.7220752,0.3425426 0.5513132,0.2283614 1.0379482,0.5535205 1.4599049,0.9754773 0.4219568,0.4219567 0.7471159,0.9085917 0.9754773,1.4599049 C 4.385819,-1.1707621 4.4999995,-0.59673703 4.5,0 Z" /></g><g
           transform="matrix(2.5961332,0,0,2.594136,474.50525,937.40332)"
           id="g5588"><path
             id="path5590"
             style="fill:#3333ff;fill-opacity:1;fill-rule:nonzero;stroke:none"
             d="M 4.5,0 C 4.4999995,0.59673703 4.385819,1.1707621 4.1574574,1.7220752 3.929096,2.2733884 3.6039369,2.7600234 3.1819801,3.1819801 2.7600234,3.6039369 2.2733884,3.929096 1.7220752,4.1574574 1.1707621,4.385819 0.59673703,4.4999995 0,4.5 -0.59673703,4.4999995 -1.1707621,4.385819 -1.7220752,4.1574574 -2.2733884,3.929096 -2.7600234,3.6039369 -3.1819801,3.1819801 -3.6039369,2.7600234 -3.929096,2.2733884 -4.1574574,1.7220752 -4.385819,1.1707621 -4.4999995,0.59673703 -4.5,0 c 5e-7,-0.59673703 0.114181,-1.1707621 0.3425426,-1.7220752 0.2283614,-0.5513132 0.5535205,-1.0379482 0.9754773,-1.4599049 0.4219567,-0.4219568 0.9085917,-0.7471159 1.4599049,-0.9754773 C -1.1707621,-4.385819 -0.59673703,-4.4999995 0,-4.5 c 0.59673703,5e-7 1.1707621,0.114181 1.7220752,0.3425426 0.5513132,0.2283614 1.0379482,0.5535205 1.4599049,0.9754773 0.4219568,0.4219567 0.7471159,0.9085917 0.9754773,1.4599049 C 4.385819,-1.1707621 4.4999995,-0.59673703 4.5,0 Z" /></g><g
           transform="matrix(2.5961332,0,0,2.594136,267.22998,343.26837)"
           id="g5592"><path
             id="path5594"
             style="fill:#3333ff;fill-opacity:1;fill-rule:nonzero;stroke:none"
             d="M 4.5,0 C 4.4999995,0.59673703 4.385819,1.1707621 4.1574574,1.7220752 3.929096,2.2733884 3.6039369,2.7600234 3.1819801,3.1819801 2.7600234,3.6039369 2.2733884,3.929096 1.7220752,4.1574574 1.1707621,4.385819 0.59673703,4.4999995 0,4.5 -0.59673703,4.4999995 -1.1707621,4.385819 -1.7220752,4.1574574 -2.2733884,3.929096 -2.7600234,3.6039369 -3.1819801,3.1819801 -3.6039369,2.7600234 -3.929096,2.2733884 -4.1574574,1.7220752 -4.385819,1.1707621 -4.4999995,0.59673703 -4.5,0 c 5e-7,-0.59673703 0.114181,-1.1707621 0.3425426,-1.7220752 0.2283614,-0.5513132 0.5535205,-1.0379482 0.9754773,-1.4599049 0.4219567,-0.4219568 0.9085917,-0.7471159 1.4599049,-0.9754773 C -1.1707621,-4.385819 -0.59673703,-4.4999995 0,-4.5 c 0.59673703,5e-7 1.1707621,0.114181 1.7220752,0.3425426 0.5513132,0.2283614 1.0379482,0.5535205 1.4599049,0.9754773 0.4219568,0.4219567 0.7471159,0.9085917 0.9754773,1.4599049 C 4.385819,-1.1707621 4.4999995,-0.59673703 4.5,0 Z" /></g><g
           transform="matrix(2.5961332,0,0,2.594136,293.1394,714.59302)"
           id="g5596"><path
             id="path5598"
             style="fill:#3333ff;fill-opacity:1;fill-rule:nonzero;stroke:none"
             d="M 4.5,0 C 4.4999995,0.59673703 4.385819,1.1707621 4.1574574,1.7220752 3.929096,2.2733884 3.6039369,2.7600234 3.1819801,3.1819801 2.7600234,3.6039369 2.2733884,3.929096 1.7220752,4.1574574 1.1707621,4.385819 0.59673703,4.4999995 0,4.5 -0.59673703,4.4999995 -1.1707621,4.385819 -1.7220752,4.1574574 -2.2733884,3.929096 -2.7600234,3.6039369 -3.1819801,3.1819801 -3.6039369,2.7600234 -3.929096,2.2733884 -4.1574574,1.7220752 -4.385819,1.1707621 -4.4999995,0.59673703 -4.5,0 c 5e-7,-0.59673703 0.114181,-1.1707621 0.3425426,-1.7220752 0.2283614,-0.5513132 0.5535205,-1.0379482 0.9754773,-1.4599049 0.4219567,-0.4219568 0.9085917,-0.7471159 1.4599049,-0.9754773 C -1.1707621,-4.385819 -0.59673703,-4.4999995 0,-4.5 c 0.59673703,5e-7 1.1707621,0.114181 1.7220752,0.3425426 0.5513132,0.2283614 1.0379482,0.5535205 1.4599049,0.9754773 0.4219568,0.4219567 0.7471159,0.9085917 0.9754773,1.4599049 C 4.385819,-1.1707621 4.4999995,-0.59673703 4.5,0 Z" /></g><g
           transform="matrix(2.5961332,0,0,2.594136,604.05231,1011.6735)"
           id="g5600"><path
             id="path5602"
             style="fill:#3333ff;fill-opacity:1;fill-rule:nonzero;stroke:none"
             d="M 4.5,0 C 4.4999995,0.59673703 4.385819,1.1707621 4.1574574,1.7220752 3.929096,2.2733884 3.6039369,2.7600234 3.1819801,3.1819801 2.7600234,3.6039369 2.2733884,3.929096 1.7220752,4.1574574 1.1707621,4.385819 0.59673703,4.4999995 0,4.5 -0.59673703,4.4999995 -1.1707621,4.385819 -1.7220752,4.1574574 -2.2733884,3.929096 -2.7600234,3.6039369 -3.1819801,3.1819801 -3.6039369,2.7600234 -3.929096,2.2733884 -4.1574574,1.7220752 -4.385819,1.1707621 -4.4999995,0.59673703 -4.5,0 c 5e-7,-0.59673703 0.114181,-1.1707621 0.3425426,-1.7220752 0.2283614,-0.5513132 0.5535205,-1.0379482 0.9754773,-1.4599049 0.4219567,-0.4219568 0.9085917,-0.7471159 1.4599049,-0.9754773 C -1.1707621,-4.385819 -0.59673703,-4.4999995 0,-4.5 c 0.59673703,5e-7 1.1707621,0.114181 1.7220752,0.3425426 0.5513132,0.2283614 1.0379482,0.5535205 1.4599049,0.9754773 0.4219568,0.4219567 0.7471159,0.9085917 0.9754773,1.4599049 C 4.385819,-1.1707621 4.4999995,-0.59673703 4.5,0 Z" /></g></g></g><g
       id="g5604"><g
         clip-path="url(#clipPath5610)"
         id="g5606"><g
           transform="matrix(2.5961332,0,0,2.594136,215.38519,2.9955382)"
           id="g5612"><text
             id="text5616"
             style="font-variant:normal;font-weight:normal;font-size:18px;font-family:'Open Sans';-inkscape-font-specification:OpenSans-Regular;writing-mode:lr-tb;fill:#444444;fill-opacity:1;fill-rule:nonzero;stroke:none"
             transform="translate(-5.1459961,439)"><tspan
               id="tspan5614"
               y="0"
               x="0">0</tspan></text>
</g><g
           transform="matrix(2.5961332,0,0,2.594136,422.68646,2.9955382)"
           id="g5618"><text
             id="text5622"
             style="font-variant:normal;font-weight:normal;font-size:18px;font-family:'Open Sans';-inkscape-font-specification:OpenSans-Regular;writing-mode:lr-tb;fill:#444444;fill-opacity:1;fill-rule:nonzero;stroke:none"
             transform="translate(-12.687012,439)"><tspan
               id="tspan5620"
               y="0"
               x="0 10.291992 15.082031">0.5</tspan></text>
</g><g
           transform="matrix(2.5961332,0,0,2.594136,629.96173,2.9955382)"
           id="g5624"><text
             id="text5628"
             style="font-variant:normal;font-weight:normal;font-size:18px;font-family:'Open Sans';-inkscape-font-specification:OpenSans-Regular;writing-mode:lr-tb;fill:#444444;fill-opacity:1;fill-rule:nonzero;stroke:none"
             transform="translate(-5.1459961,439)"><tspan
               id="tspan5626"
               y="0"
               x="0">1</tspan></text>
</g><g
           transform="matrix(2.5961332,0,0,2.594136,837.237,2.9955382)"
           id="g5630"><text
             id="text5634"
             style="font-variant:normal;font-weight:normal;font-size:18px;font-family:'Open Sans';-inkscape-font-specification:OpenSans-Regular;writing-mode:lr-tb;fill:#444444;fill-opacity:1;fill-rule:nonzero;stroke:none"
             transform="translate(-12.687012,439)"><tspan
               id="tspan5632"
               y="0"
               x="0 10.291992 15.082031">1.5</tspan></text>
</g><g
           transform="matrix(2.5961332,0,0,2.594136,1044.5382,2.9955382)"
           id="g5636"><text
             id="text5640"
             style="font-variant:normal;font-weight:normal;font-size:18px;font-family:'Open Sans';-inkscape-font-specification:OpenSans-Regular;writing-mode:lr-tb;fill:#444444;fill-opacity:1;fill-rule:nonzero;stroke:none"
             transform="translate(-5.1459961,439)"><tspan
               id="tspan5638"
               y="0"
               x="0">2</tspan></text>
</g><g
           transform="matrix(2.5961332,0,0,2.594136,2.9955382,1085.9435)"
           id="g5642"><text
             id="text5646"
             style="font-variant:normal;font-weight:normal;font-size:18px;font-family:'Open Sans';-inkscape-font-specification:OpenSans-Regular;writing-mode:lr-tb;fill:#444444;fill-opacity:1;fill-rule:nonzero;stroke:none"
             transform="translate(68.708008,6.3000002)"><tspan
               id="tspan5644"
               y="0"
               x="0">0</tspan></text>
</g><g
           transform="matrix(2.5961332,0,0,2.594136,2.9955382,986.92542)"
           id="g5648"><text
             id="text5652"
             style="font-variant:normal;font-weight:normal;font-size:18px;font-family:'Open Sans';-inkscape-font-specification:OpenSans-Regular;writing-mode:lr-tb;fill:#444444;fill-opacity:1;fill-rule:nonzero;stroke:none"
             transform="translate(53.625977,6.3000002)"><tspan
               id="tspan5650"
               y="0"
               x="0 10.291992 15.082031">0.5</tspan></text>
</g><g
           transform="matrix(2.5961332,0,0,2.594136,2.9955382,887.90723)"
           id="g5654"><text
             id="text5658"
             style="font-variant:normal;font-weight:normal;font-size:18px;font-family:'Open Sans';-inkscape-font-specification:OpenSans-Regular;writing-mode:lr-tb;fill:#444444;fill-opacity:1;fill-rule:nonzero;stroke:none"
             transform="translate(68.708008,6.3000002)"><tspan
               id="tspan5656"
               y="0"
               x="0">1</tspan></text>
</g><g
           transform="matrix(2.5961332,0,0,2.594136,2.9955382,788.8631)"
           id="g5660"><text
             id="text5664"
             style="font-variant:normal;font-weight:normal;font-size:18px;font-family:'Open Sans';-inkscape-font-specification:OpenSans-Regular;writing-mode:lr-tb;fill:#444444;fill-opacity:1;fill-rule:nonzero;stroke:none"
             transform="translate(53.625977,6.3000002)"><tspan
               id="tspan5662"
               y="0"
               x="0 10.291992 15.082031">1.5</tspan></text>
</g><g
           transform="matrix(2.5961332,0,0,2.594136,2.9955382,689.84491)"
           id="g5666"><text
             id="text5670"
             style="font-variant:normal;font-weight:normal;font-size:18px;font-family:'Open Sans';-inkscape-font-specification:OpenSans-Regular;writing-mode:lr-tb;fill:#444444;fill-opacity:1;fill-rule:nonzero;stroke:none"
             transform="translate(68.708008,6.3000002)"><tspan
               id="tspan5668"
               y="0"
               x="0">2</tspan></text>
</g><g
           transform="matrix(2.5961332,0,0,2.594136,2.9955382,590.82678)"
           id="g5672"><text
             id="text5676"
             style="font-variant:normal;font-weight:normal;font-size:18px;font-family:'Open Sans';-inkscape-font-specification:OpenSans-Regular;writing-mode:lr-tb;fill:#444444;fill-opacity:1;fill-rule:nonzero;stroke:none"
             transform="translate(53.625977,6.3000002)"><tspan
               id="tspan5674"
               y="0"
               x="0 10.291992 15.082031">2.5</tspan></text>
</g><g
           transform="matrix(2.5961332,0,0,2.594136,2.9955382,491.80856)"
           id="g5678"><text
             id="text5682"
             style="font-variant:normal;font-weight:normal;font-size:18px;font-family:'Open Sans';-inkscape-font-specification:OpenSans-Regular;writing-mode:lr-tb;fill:#444444;fill-opacity:1;fill-rule:nonzero;stroke:none"
             transform="translate(68.708008,6.3000002)"><tspan
               id="tspan5680"
               y="0"
               x="0">3</tspan></text>
</g><g
           transform="matrix(2.5961332,0,0,2.594136,2.9955382,392.76447)"
           id="g5684"><text
             id="text5688"
             style="font-variant:normal;font-weight:normal;font-size:18px;font-family:'Open Sans';-inkscape-font-specification:OpenSans-Regular;writing-mode:lr-tb;fill:#444444;fill-opacity:1;fill-rule:nonzero;stroke:none"
             transform="translate(53.625977,6.3000002)"><tspan
               id="tspan5686"
               y="0"
               x="0 10.291992 15.082031">3.5</tspan></text>
</g><g
           transform="matrix(2.5961332,0,0,2.594136,2.9955382,293.74631)"
           id="g5690"><text
             id="text5694"
             style="font-variant:normal;font-weight:normal;font-size:18px;font-family:'Open Sans';-inkscape-font-specification:OpenSans-Regular;writing-mode:lr-tb;fill:#444444;fill-opacity:1;fill-rule:nonzero;stroke:none"
             transform="translate(68.708008,6.3000002)"><tspan
               id="tspan5692"
               y="0"
               x="0">4</tspan></text>
</g><g
           transform="matrix(2.5961332,0,0,2.594136,1066.0082,262.40915)"
           id="g5696"><path
             id="path5698"
             style="fill:#ffffff;fill-opacity:1;fill-rule:nonzero;stroke:none"
             d="M 0,0 H 179 V 63 H 0 Z" /></g></g></g><g
       id="g5700"><g
         clip-path="url(#clipPath5706)"
         id="g5702"><g
           transform="matrix(2.5961332,0,0,2.594136,1066.0082,309.62244)"
           id="g5708"><text
             id="text5712"
             style="font-variant:normal;font-weight:normal;font-size:18px;font-family:'Open Sans';-inkscape-font-specification:OpenSans-Regular;writing-mode:lr-tb;fill:#444444;fill-opacity:1;fill-rule:nonzero;stroke:none"
             transform="translate(40,7.02)"><tspan
               id="tspan5710"
               y="0"
               x="0 13.12207 23.994141 40.737305 45.290039 56.337891 66.348633 72.703125 82.801758">Dominated</tspan></text>
</g><g
           transform="matrix(2.5961332,0,0,2.594136,1117.9308,309.62241)"
           id="g5714"><path
             id="path5716"
             style="fill:#555555;fill-opacity:0.6;fill-rule:nonzero;stroke:none"
             d="M 4.5,0 C 4.4999995,0.59673703 4.385819,1.1707621 4.1574574,1.7220752 3.929096,2.2733884 3.6039369,2.7600234 3.1819801,3.1819801 2.7600234,3.6039369 2.2733884,3.929096 1.7220752,4.1574574 1.1707621,4.385819 0.59673703,4.4999995 0,4.5 -0.59673703,4.4999995 -1.1707621,4.385819 -1.7220752,4.1574574 -2.2733884,3.929096 -2.7600234,3.6039369 -3.1819801,3.1819801 -3.6039369,2.7600234 -3.929096,2.2733884 -4.1574574,1.7220752 -4.385819,1.1707621 -4.4999995,0.59673703 -4.5,0 c 5e-7,-0.59673703 0.114181,-1.1707621 0.3425426,-1.7220752 0.2283614,-0.5513132 0.5535205,-1.0379482 0.9754773,-1.4599049 0.4219567,-0.4219568 0.9085917,-0.7471159 1.4599049,-0.9754773 C -1.1707621,-4.385819 -0.59673703,-4.4999995 0,-4.5 c 0.59673703,5e-7 1.1707621,0.114181 1.7220752,0.3425426 0.5513132,0.2283614 1.0379482,0.5535205 1.4599049,0.9754773 0.4219568,0.4219567 0.7471159,0.9085917 0.9754773,1.4599049 C 4.385819,-1.1707621 4.4999995,-0.59673703 4.5,0 Z" /></g><g
           transform="matrix(2.5961332,0,0,2.594136,1066.0082,378.1076)"
           id="g5718"><text
             id="text5722"
             style="font-variant:normal;font-weight:normal;font-size:18px;font-family:'Open Sans';-inkscape-font-specification:OpenSans-Regular;writing-mode:lr-tb;fill:#444444;fill-opacity:1;fill-rule:nonzero;stroke:none"
             transform="translate(40,7.02)"><tspan
               id="tspan5720"
               y="0"
               x="0 13.570312 24.442383 35.490234 41.282227 52.3125 63.18457 79.927734 84.480469 95.52832 105.53906 111.89355 121.99219">Non-dominated</tspan></text>
</g><g
           transform="matrix(2.5961332,0,0,2.594136,1117.9308,378.10764)"
           id="g5724"><path
             id="path5726"
             style="fill:#3333ff;fill-opacity:1;fill-rule:nonzero;stroke:none"
             d="M 4.5,0 C 4.4999995,0.59673703 4.385819,1.1707621 4.1574574,1.7220752 3.929096,2.2733884 3.6039369,2.7600234 3.1819801,3.1819801 2.7600234,3.6039369 2.2733884,3.929096 1.7220752,4.1574574 1.1707621,4.385819 0.59673703,4.4999995 0,4.5 -0.59673703,4.4999995 -1.1707621,4.385819 -1.7220752,4.1574574 -2.2733884,3.929096 -2.7600234,3.6039369 -3.1819801,3.1819801 -3.6039369,2.7600234 -3.929096,2.2733884 -4.1574574,1.7220752 -4.385819,1.1707621 -4.4999995,0.59673703 -4.5,0 c 5e-7,-0.59673703 0.114181,-1.1707621 0.3425426,-1.7220752 0.2283614,-0.5513132 0.5535205,-1.0379482 0.9754773,-1.4599049 0.4219567,-0.4219568 0.9085917,-0.7471159 1.4599049,-0.9754773 C -1.1707621,-4.385819 -0.59673703,-4.4999995 0,-4.5 c 0.59673703,5e-7 1.1707621,0.114181 1.7220752,0.3425426 0.5513132,0.2283614 1.0379482,0.5535205 1.4599049,0.9754773 0.4219568,0.4219567 0.7471159,0.9085917 0.9754773,1.4599049 C 4.385819,-1.1707621 4.4999995,-0.59673703 4.5,0 Z" /></g></g></g><g
       id="g5728"><g
         clip-path="url(#clipPath5734)"
         id="g5730"><g
           transform="matrix(0.0482341,0,0,-0.04819699,571.76422,1287.4443)"
           id="g5736"><path
             id="path5738"
             style="fill:#444444;fill-opacity:1;fill-rule:nonzero;stroke:none"
             d="m 118,-162 c 1.33334,0 3.33334,-0.66667 6,-2 2.66666,-1.33333 6.33333,-2.33333 11,-3 4.66667,-0.66667 8.66667,-1 12,-1 8.66667,0 16.66667,4.33333 24,13 7.33333,8.66667 12.66667,18.33333 16,29 6.66667,18 18,69 34,153 16,84 31.33333,164 46,240 14.66666,76 22,114.33334 22,115 v 3 h -47 c -31.33333,0 -48,0.66666 -50,2 -2.66667,2 -4,5.33334 -4,10 l 7,28 c 1.33333,3.33334 4,5 8,5 4,0 19.66667,0.33334 47,1 32,0 48,0.33334 48,1 0,1.33334 3,18 9,50 6,32 10,51.33331 12,58 24.66666,110 73.33331,165 146,165 24.66666,-1.33331 45,-8.66669 61,-22 16,-13.33331 24,-31 24,-53 0,-24 -7,-41.33331 -21,-52 -14,-10.66669 -28,-16.33331 -42,-17 -29.33334,0 -44,14 -44,42 0,12.66669 3.66666,23.66669 11,33 7.33334,9.33331 15.33334,16.33331 24,21 l 9,5 c -10.66666,4 -20.66666,6 -30,6 -8,0 -15.66666,-3.33331 -23,-10 -7.33334,-6.66669 -12.33334,-16 -15,-28 -4.66666,-19.33331 -10,-45.33331 -16,-78 -6,-32.66669 -11.33334,-60.33334 -16,-83 -4.66666,-22.66666 -7,-34.66666 -7,-36 0,-1.33334 18.33334,-2 55,-2 30,0 47.33334,-0.33334 52,-1 4.66666,-0.66666 8.33334,-2.66666 11,-6 0.66666,-2.66666 0,-8.33334 -2,-17 -2,-8.66666 -3.66666,-14 -5,-16 -1.33334,-3.33334 -4.33334,-5 -9,-5 -4.66666,0 -22.66666,-0.33334 -54,-1 H 372 L 349,263 C 317,97.666656 294.66666,-5.6666641 282,-47 c -18,-56.66667 -41.33333,-98.66667 -70,-126 -24.66667,-21.33333 -49,-32 -73,-32 -21.33334,0 -40.666664,6.33333 -58,19 -17.333336,12.66667 -26,30.66667 -26,54 0,24.66667 7,42.666664 21,54 14,11.333336 28,17 42,17 29.33333,0 44,-14 44,-42 0,-12.66666 -3.66667,-23.66666 -11,-33 -7.33333,-9.33333 -15.33333,-16.33333 -24,-21 z" /><path
             id="path5740"
             style="fill:none;stroke:#444444;stroke-width:1;stroke-linecap:butt;stroke-linejoin:miter;stroke-miterlimit:10;stroke-dasharray:none;stroke-opacity:1"
             d="m 118,-162 c 1.33334,0 3.33334,-0.66667 6,-2 2.66666,-1.33333 6.33333,-2.33333 11,-3 4.66667,-0.66667 8.66667,-1 12,-1 8.66667,0 16.66667,4.33333 24,13 7.33333,8.66667 12.66667,18.33333 16,29 6.66667,18 18,69 34,153 16,84 31.33333,164 46,240 14.66666,76 22,114.33334 22,115 v 3 h -47 c -31.33333,0 -48,0.66666 -50,2 -2.66667,2 -4,5.33334 -4,10 l 7,28 c 1.33333,3.33334 4,5 8,5 4,0 19.66667,0.33334 47,1 32,0 48,0.33334 48,1 0,1.33334 3,18 9,50 6,32 10,51.33331 12,58 24.66666,110 73.33331,165 146,165 24.66666,-1.33331 45,-8.66669 61,-22 16,-13.33331 24,-31 24,-53 0,-24 -7,-41.33331 -21,-52 -14,-10.66669 -28,-16.33331 -42,-17 -29.33334,0 -44,14 -44,42 0,12.66669 3.66666,23.66669 11,33 7.33334,9.33331 15.33334,16.33331 24,21 l 9,5 c -10.66666,4 -20.66666,6 -30,6 -8,0 -15.66666,-3.33331 -23,-10 -7.33334,-6.66669 -12.33334,-16 -15,-28 -4.66666,-19.33331 -10,-45.33331 -16,-78 -6,-32.66669 -11.33334,-60.33334 -16,-83 -4.66666,-22.66666 -7,-34.66666 -7,-36 0,-1.33334 18.33334,-2 55,-2 30,0 47.33334,-0.33334 52,-1 4.66666,-0.66666 8.33334,-2.66666 11,-6 0.66666,-2.66666 0,-8.33334 -2,-17 -2,-8.66666 -3.66666,-14 -5,-16 -1.33334,-3.33334 -4.33334,-5 -9,-5 -4.66666,0 -22.66666,-0.33334 -54,-1 H 372 L 349,263 C 317,97.666656 294.66666,-5.6666641 282,-47 c -18,-56.66667 -41.33333,-98.66667 -70,-126 -24.66667,-21.33333 -49,-32 -73,-32 -21.33334,0 -40.666664,6.33333 -58,19 -17.333336,12.66667 -26,30.66667 -26,54 0,24.66667 7,42.666664 21,54 14,11.333336 28,17 42,17 29.33333,0 44,-14 44,-42 0,-12.66666 -3.66667,-23.66666 -11,-33 -7.33333,-9.33333 -15.33333,-16.33333 -24,-21 z" /></g><g
           transform="matrix(0.03410151,0,0,-0.03407527,595.39661,1294.7024)"
           id="g5742"><path
             id="path5744"
             style="fill:#444444;fill-opacity:1;fill-rule:nonzero;stroke:none"
             d="m 213,578 -13,-5 c -9.33333,-3.33331 -22.66667,-6.66669 -40,-10 -17.33333,-3.33331 -36.66666,-5.66669 -58,-7 H 83 v 46 h 19 c 31.33333,1.33331 60.33333,6.33331 87,15 26.66667,8.66669 45.33333,16.66669 56,24 10.66667,7.33331 20,14.66669 28,22 1.33334,2 5.33334,3 12,3 6,0 11.66666,-2 17,-6 V 361 l 1,-300 c 4.66666,-4.666668 8.66666,-7.666668 12,-9 3.33334,-1.333332 11.33334,-2.666668 24,-4 12.66666,-1.333332 33.33334,-2 62,-2 h 26 V 0 H 416 C 402,2 349,3 257,3 166.33333,3 114,2 100,0 H 88 v 46 h 26 c 14.66667,0 27.33333,0 38,0 10.66667,0 19,0.333332 25,1 6,0.666668 11.33333,1.666668 16,3 4.66667,1.333332 7.33333,2 8,2 0.66667,0 2.66667,1.666668 6,5 3.33333,3.333332 5.33333,4.666668 6,4 z" /><path
             id="path5746"
             style="fill:none;stroke:#444444;stroke-width:1;stroke-linecap:butt;stroke-linejoin:miter;stroke-miterlimit:10;stroke-dasharray:none;stroke-opacity:1"
             d="m 213,578 -13,-5 c -9.33333,-3.33331 -22.66667,-6.66669 -40,-10 -17.33333,-3.33331 -36.66666,-5.66669 -58,-7 H 83 v 46 h 19 c 31.33333,1.33331 60.33333,6.33331 87,15 26.66667,8.66669 45.33333,16.66669 56,24 10.66667,7.33331 20,14.66669 28,22 1.33334,2 5.33334,3 12,3 6,0 11.66666,-2 17,-6 V 361 l 1,-300 c 4.66666,-4.666668 8.66666,-7.666668 12,-9 3.33334,-1.333332 11.33334,-2.666668 24,-4 12.66666,-1.333332 33.33334,-2 62,-2 h 26 V 0 H 416 C 402,2 349,3 257,3 166.33333,3 114,2 100,0 H 88 v 46 h 26 c 14.66667,0 27.33333,0 38,0 10.66667,0 19,0.333332 25,1 6,0.666668 11.33333,1.666668 16,3 4.66667,1.333332 7.33333,2 8,2 0.66667,0 2.66667,1.666668 6,5 3.33333,3.333332 5.33333,4.666668 6,4 z" /></g><g
           transform="matrix(0.0482341,0,0,-0.04819699,617.29724,1287.4443)"
           id="g5748"><path
             id="path5750"
             style="fill:#444444;fill-opacity:1;fill-rule:nonzero;stroke:none"
             d="m 94,250 c 0,46 3.333336,89.66666 10,131 6.66666,41.33334 14.33334,77 23,107 8.66667,30 21,59.33331 37,88 16,28.66669 28.66667,51 38,67 9.33333,16 23.33333,33.33331 42,52 18.66666,18.66669 29.66666,30 33,34 3.33334,4 11.66666,11 25,21 h 13 4 c 9.33334,0 14,-3 14,-9 0,-2 -5.66666,-9 -17,-21 -11.33334,-12 -25,-29.66669 -41,-53 -16,-23.33331 -32.33333,-52 -49,-86 -16.66667,-34 -30.66667,-80 -42,-138 -11.33333,-58 -17,-122.33331 -17,-193 0,-70.66667 5.66667,-134.66666 17,-192 11.33333,-57.33333588 25,-103.666664 41,-139 16,-35.33334 32.33334,-64 49,-86 16.66666,-22 30.66666,-39.66667 42,-53 11.33334,-13.33333 17,-20.33333 17,-21 0,-6 -5,-9 -15,-9 h -3 -13 l -28,24 C 211.33333,-169.33333 165.66667,-98.666672 137,-14 108.33333,70.666672 94,158.66666 94,250 Z" /><path
             id="path5752"
             style="fill:none;stroke:#444444;stroke-width:1;stroke-linecap:butt;stroke-linejoin:miter;stroke-miterlimit:10;stroke-dasharray:none;stroke-opacity:1"
             d="m 94,250 c 0,46 3.333336,89.66666 10,131 6.66666,41.33334 14.33334,77 23,107 8.66667,30 21,59.33331 37,88 16,28.66669 28.66667,51 38,67 9.33333,16 23.33333,33.33331 42,52 18.66666,18.66669 29.66666,30 33,34 3.33334,4 11.66666,11 25,21 h 13 4 c 9.33334,0 14,-3 14,-9 0,-2 -5.66666,-9 -17,-21 -11.33334,-12 -25,-29.66669 -41,-53 -16,-23.33331 -32.33333,-52 -49,-86 -16.66667,-34 -30.66667,-80 -42,-138 -11.33333,-58 -17,-122.33331 -17,-193 0,-70.66667 5.66667,-134.66666 17,-192 11.33333,-57.33333588 25,-103.666664 41,-139 16,-35.33334 32.33334,-64 49,-86 16.66666,-22 30.66666,-39.66667 42,-53 11.33334,-13.33333 17,-20.33333 17,-21 0,-6 -5,-9 -15,-9 h -3 -13 l -28,24 C 211.33333,-169.33333 165.66667,-98.666672 137,-14 108.33333,70.666672 94,158.66666 94,250 Z" /></g><g
           transform="matrix(0.0482341,0,0,-0.04819699,636.06024,1287.4443)"
           id="g5754"><path
             id="path5756"
             style="fill:#444444;fill-opacity:1;fill-rule:nonzero;stroke:none"
             d="m 52,289 c 4.666668,28 22.666664,60.33334 54,97 31.33333,36.66666 70,55.33334 116,56 23.33333,0 44.66666,-6 64,-18 19.33334,-12 33.66666,-27 43,-45 28,42 61.66666,63 101,63 24.66666,0 46,-7.33334 64,-22 18,-14.66666 27.33331,-34.33334 28,-59 0,-19.33334 -4.66669,-35 -14,-47 -9.33334,-12 -18.33334,-19.33334 -27,-22 -8.66666,-2.66666 -16.33334,-4 -23,-4 -12.66666,0 -23,3.66666 -31,11 -8,7.33334 -12,17 -12,29 0,30.66666 16.66666,51.66666 50,63 -7.33334,8.66666 -20.66666,13 -40,13 -8.66666,0 -15,-0.66666 -19,-2 -25.33334,-10.66666 -44,-32.66666 -56,-66 -40,-147.33334 -60,-233.33333 -60,-258 0,-18.666668 5.33334,-32 16,-40 10.66666,-8 22.33334,-12 35,-12 24.66666,0 49,11 73,33 24,22 40.33334,49 49,81 2,6.66667 4,10.33333 6,11 2,0.66667 7.33334,1.33333 16,2 h 4 c 10,0 15,-2.66667 15,-8 0,-0.66667 -0.66666,-4.33333 -2,-11 C 491.33334,96 470.66666,62.333336 440,33 409.33334,3.666666 373.66666,-11 333,-11 286.33334,-11 251,10 227,52 199.66667,10.666664 168.33334,-10 133,-10 h -6 C 94.333328,-10 71,-1.333334 57,16 43,33.333336 35.666668,51.666664 35,71 c 0,21.333336 6.333332,38.66666 19,52 12.666664,13.33333 27.666664,20 45,20 28.66667,0 43,-14 43,-42 C 142,87.666664 138,76 130,66 122,56 114.33334,49.333332 107,46 99.666664,42.666668 95.333336,41 94,41 l -3,-1 c 0,-0.666668 2,-2 6,-4 4,-2 9.33334,-4.333334 16,-7 6.66666,-2.666666 13,-3.666666 19,-3 24,0 44.66667,15 62,45 6,10.666664 13.66667,33.33333 23,68 9.33333,34.66667 18.66667,70.66666 28,108 9.33333,37.33334 14.66666,59.33334 16,66 3.33334,18 5,31 5,39 0,18.66666 -5,32 -15,40 -10,8 -21.33333,12 -34,12 -26.66667,0 -51.66667,-10.66666 -75,-32 -23.33334,-21.33334 -39.66666,-48.66666 -49,-82 -1.333336,-6 -3,-9.33334 -5,-10 -2,-0.66666 -7.333336,-1.33334 -16,-2 H 58 c -4,4 -6,7.66666 -6,11 z" /><path
             id="path5758"
             style="fill:none;stroke:#444444;stroke-width:1;stroke-linecap:butt;stroke-linejoin:miter;stroke-miterlimit:10;stroke-dasharray:none;stroke-opacity:1"
             d="m 52,289 c 4.666668,28 22.666664,60.33334 54,97 31.33333,36.66666 70,55.33334 116,56 23.33333,0 44.66666,-6 64,-18 19.33334,-12 33.66666,-27 43,-45 28,42 61.66666,63 101,63 24.66666,0 46,-7.33334 64,-22 18,-14.66666 27.33331,-34.33334 28,-59 0,-19.33334 -4.66669,-35 -14,-47 -9.33334,-12 -18.33334,-19.33334 -27,-22 -8.66666,-2.66666 -16.33334,-4 -23,-4 -12.66666,0 -23,3.66666 -31,11 -8,7.33334 -12,17 -12,29 0,30.66666 16.66666,51.66666 50,63 -7.33334,8.66666 -20.66666,13 -40,13 -8.66666,0 -15,-0.66666 -19,-2 -25.33334,-10.66666 -44,-32.66666 -56,-66 -40,-147.33334 -60,-233.33333 -60,-258 0,-18.666668 5.33334,-32 16,-40 10.66666,-8 22.33334,-12 35,-12 24.66666,0 49,11 73,33 24,22 40.33334,49 49,81 2,6.66667 4,10.33333 6,11 2,0.66667 7.33334,1.33333 16,2 h 4 c 10,0 15,-2.66667 15,-8 0,-0.66667 -0.66666,-4.33333 -2,-11 C 491.33334,96 470.66666,62.333336 440,33 409.33334,3.666666 373.66666,-11 333,-11 286.33334,-11 251,10 227,52 199.66667,10.666664 168.33334,-10 133,-10 h -6 C 94.333328,-10 71,-1.333334 57,16 43,33.333336 35.666668,51.666664 35,71 c 0,21.333336 6.333332,38.66666 19,52 12.666664,13.33333 27.666664,20 45,20 28.66667,0 43,-14 43,-42 C 142,87.666664 138,76 130,66 122,56 114.33334,49.333332 107,46 99.666664,42.666668 95.333336,41 94,41 l -3,-1 c 0,-0.666668 2,-2 6,-4 4,-2 9.33334,-4.333334 16,-7 6.66666,-2.666666 13,-3.666666 19,-3 24,0 44.66667,15 62,45 6,10.666664 13.66667,33.33333 23,68 9.33333,34.66667 18.66667,70.66666 28,108 9.33333,37.33334 14.66666,59.33334 16,66 3.33334,18 5,31 5,39 0,18.66666 -5,32 -15,40 -10,8 -21.33333,12 -34,12 -26.66667,0 -51.66667,-10.66666 -75,-32 -23.33334,-21.33334 -39.66666,-48.66666 -49,-82 -1.333336,-6 -3,-9.33334 -5,-10 -2,-0.66666 -7.333336,-1.33334 -16,-2 H 58 c -4,4 -6,7.66666 -6,11 z" /></g><g
           transform="matrix(0.0482341,0,0,-0.04819699,663.69843,1287.4443)"
           id="g5760"><path
             id="path5762"
             style="fill:#444444;fill-opacity:1;fill-rule:nonzero;stroke:none"
             d="m 60,749 4,1 c 3.333336,0 6.666664,0 10,0 h 12 l 28,-24 c 62.66667,-56.66669 108.33333,-127.33331 137,-212 28.66666,-84.66669 43,-172.66666 43,-264 0,-45.33334 -3.33334,-89 -10,-131 -6.66666,-42 -14.33334,-77.666664 -23,-107 -8.66667,-29.333334 -21,-58.666664 -37,-88 -16,-29.33334 -28.66667,-51.66666 -38,-67 -9.33333,-15.33333 -23,-32.33333 -41,-51 -18,-18.66667 -28.66666,-29.66667 -32,-33 -3.33334,-3.33333 -11,-9.66667 -23,-19 -2,-2 -3.333336,-3.33333 -4,-4 H 74 c -5.333336,0 -9,0 -11,0 -2,0 -3.666668,1 -5,3 -1.333332,2 -2.333332,5 -3,9 0.666668,0.66667 4.333332,5 11,13 103.33334,107.33334 155,265.666656 155,475 0,209.33334 -51.66666,367.66669 -155,475 -6.666668,8 -10.333332,12.33331 -11,13 0,5.33331 1.666668,9 5,11 z" /><path
             id="path5764"
             style="fill:none;stroke:#444444;stroke-width:1;stroke-linecap:butt;stroke-linejoin:miter;stroke-miterlimit:10;stroke-dasharray:none;stroke-opacity:1"
             d="m 60,749 4,1 c 3.333336,0 6.666664,0 10,0 h 12 l 28,-24 c 62.66667,-56.66669 108.33333,-127.33331 137,-212 28.66666,-84.66669 43,-172.66666 43,-264 0,-45.33334 -3.33334,-89 -10,-131 -6.66666,-42 -14.33334,-77.666664 -23,-107 -8.66667,-29.333334 -21,-58.666664 -37,-88 -16,-29.33334 -28.66667,-51.66666 -38,-67 -9.33333,-15.33333 -23,-32.33333 -41,-51 -18,-18.66667 -28.66666,-29.66667 -32,-33 -3.33334,-3.33333 -11,-9.66667 -23,-19 -2,-2 -3.333336,-3.33333 -4,-4 H 74 c -5.333336,0 -9,0 -11,0 -2,0 -3.666668,1 -5,3 -1.333332,2 -2.333332,5 -3,9 0.666668,0.66667 4.333332,5 11,13 103.33334,107.33334 155,265.666656 155,475 0,209.33334 -51.66666,367.66669 -155,475 -6.666668,8 -10.333332,12.33331 -11,13 0,5.33331 1.666668,9 5,11 z" /></g><g
           transform="matrix(0,-0.04819699,-0.0482341,0,68.250671,735.62366)"
           id="g5766"><path
             id="path5768"
             style="fill:#444444;fill-opacity:1;fill-rule:nonzero;stroke:none"
             d="m 118,-162 c 1.33334,0 3.33334,-0.66667 6,-2 2.66666,-1.33333 6.33333,-2.33333 11,-3 4.66667,-0.66667 8.66667,-1 12,-1 8.66667,0 16.66667,4.33333 24,13 7.33333,8.66667 12.66667,18.33333 16,29 6.66667,18 18,69 34,153 16,84 31.33333,164 46,240 14.66666,76 22,114.33334 22,115 v 3 h -47 c -31.33333,0 -48,0.66666 -50,2 -2.66667,2 -4,5.33334 -4,10 l 7,28 c 1.33333,3.33334 4,5 8,5 4,0 19.66667,0.33334 47,1 32,0 48,0.33334 48,1 0,1.33334 3,18 9,50 6,32 10,51.33331 12,58 24.66666,110 73.33331,165 146,165 24.66666,-1.33331 45,-8.66669 61,-22 16,-13.33331 24,-31 24,-53 0,-24 -7,-41.33331 -21,-52 -14,-10.66669 -28,-16.33331 -42,-17 -29.33334,0 -44,14 -44,42 0,12.66669 3.66666,23.66669 11,33 7.33334,9.33331 15.33334,16.33331 24,21 l 9,5 c -10.66666,4 -20.66666,6 -30,6 -8,0 -15.66666,-3.33331 -23,-10 -7.33334,-6.66669 -12.33334,-16 -15,-28 -4.66666,-19.33331 -10,-45.33331 -16,-78 -6,-32.66669 -11.33334,-60.33334 -16,-83 -4.66666,-22.66666 -7,-34.66666 -7,-36 0,-1.33334 18.33334,-2 55,-2 30,0 47.33334,-0.33334 52,-1 4.66666,-0.66666 8.33334,-2.66666 11,-6 0.66666,-2.66666 0,-8.33334 -2,-17 -2,-8.66666 -3.66666,-14 -5,-16 -1.33334,-3.33334 -4.33334,-5 -9,-5 -4.66666,0 -22.66666,-0.33334 -54,-1 H 372 L 349,263 C 317,97.666656 294.66666,-5.6666641 282,-47 c -18,-56.66667 -41.33333,-98.66667 -70,-126 -24.66667,-21.33333 -49,-32 -73,-32 -21.33334,0 -40.666664,6.33333 -58,19 -17.333336,12.66667 -26,30.66667 -26,54 0,24.66667 7,42.666664 21,54 14,11.333336 28,17 42,17 29.33333,0 44,-14 44,-42 0,-12.66666 -3.66667,-23.66666 -11,-33 -7.33333,-9.33333 -15.33333,-16.33333 -24,-21 z" /><path
             id="path5770"
             style="fill:none;stroke:#444444;stroke-width:1;stroke-linecap:butt;stroke-linejoin:miter;stroke-miterlimit:10;stroke-dasharray:none;stroke-opacity:1"
             d="m 118,-162 c 1.33334,0 3.33334,-0.66667 6,-2 2.66666,-1.33333 6.33333,-2.33333 11,-3 4.66667,-0.66667 8.66667,-1 12,-1 8.66667,0 16.66667,4.33333 24,13 7.33333,8.66667 12.66667,18.33333 16,29 6.66667,18 18,69 34,153 16,84 31.33333,164 46,240 14.66666,76 22,114.33334 22,115 v 3 h -47 c -31.33333,0 -48,0.66666 -50,2 -2.66667,2 -4,5.33334 -4,10 l 7,28 c 1.33333,3.33334 4,5 8,5 4,0 19.66667,0.33334 47,1 32,0 48,0.33334 48,1 0,1.33334 3,18 9,50 6,32 10,51.33331 12,58 24.66666,110 73.33331,165 146,165 24.66666,-1.33331 45,-8.66669 61,-22 16,-13.33331 24,-31 24,-53 0,-24 -7,-41.33331 -21,-52 -14,-10.66669 -28,-16.33331 -42,-17 -29.33334,0 -44,14 -44,42 0,12.66669 3.66666,23.66669 11,33 7.33334,9.33331 15.33334,16.33331 24,21 l 9,5 c -10.66666,4 -20.66666,6 -30,6 -8,0 -15.66666,-3.33331 -23,-10 -7.33334,-6.66669 -12.33334,-16 -15,-28 -4.66666,-19.33331 -10,-45.33331 -16,-78 -6,-32.66669 -11.33334,-60.33334 -16,-83 -4.66666,-22.66666 -7,-34.66666 -7,-36 0,-1.33334 18.33334,-2 55,-2 30,0 47.33334,-0.33334 52,-1 4.66666,-0.66666 8.33334,-2.66666 11,-6 0.66666,-2.66666 0,-8.33334 -2,-17 -2,-8.66666 -3.66666,-14 -5,-16 -1.33334,-3.33334 -4.33334,-5 -9,-5 -4.66666,0 -22.66666,-0.33334 -54,-1 H 372 L 349,263 C 317,97.666656 294.66666,-5.6666641 282,-47 c -18,-56.66667 -41.33333,-98.66667 -70,-126 -24.66667,-21.33333 -49,-32 -73,-32 -21.33334,0 -40.666664,6.33333 -58,19 -17.333336,12.66667 -26,30.66667 -26,54 0,24.66667 7,42.666664 21,54 14,11.333336 28,17 42,17 29.33333,0 44,-14 44,-42 0,-12.66666 -3.66667,-23.66666 -11,-33 -7.33333,-9.33333 -15.33333,-16.33333 -24,-21 z" /></g><g
           transform="matrix(0,-0.03407527,-0.03410151,0,75.51429,712.00946)"
           id="g5772"><path
             id="path5774"
             style="fill:#444444;fill-opacity:1;fill-rule:nonzero;stroke:none"
             d="m 109,429 c -18,0 -32.333336,6 -43,18 -10.666668,12 -16,26.66666 -16,44 0,47.33331 17.666664,88.33331 53,123 35.33334,34.66669 79.33333,52 132,52 60.66666,0 111.33334,-18.66669 152,-56 40.66666,-37.33331 61.33334,-85.66669 62,-145 0,-28.66666 -6.66666,-56 -20,-82 -13.33334,-26 -29.33334,-48.66666 -48,-68 -18.66666,-19.33334 -45.33334,-44 -80,-74 -24,-20.66667 -57.33333,-51.33333 -100,-92 l -59,-56 76,-1 c 104.66669,0 160.33334,1.666664 167,5 4.66666,1.333336 12.66666,31 24,89 v 3 h 40 v -3 C 448.33334,184 444,153.66667 436,95 428,36.333332 423,5.666667 421,3 V 0 H 50 v 19 12 c 0,4.666668 2,9.666668 6,15 4,5.333332 14,17 30,35 19.33334,21.33334 36,40 50,56 6,6.66667 17.33333,19 34,37 16.66667,18 28,30.33333 34,37 6,6.66667 15.66667,17.66667 29,33 13.33333,15.33334 22.66667,26.66666 28,34 5.33334,7.33334 13,17.33334 23,30 10,12.66666 17,23.33334 21,32 4,8.66666 9,18.33334 15,29 6,10.66666 10.33334,21.33334 13,32 2.66666,10.66666 5,20.66666 7,30 2,9.33334 3,20.33334 3,33 0,42 -11.33334,78.33331 -34,109 -22.66666,30.66669 -55,46 -97,46 -22,0 -41.33333,-5.66669 -58,-17 -16.66667,-11.33331 -28.33334,-22.33331 -35,-33 -6.66666,-10.66669 -10,-17 -10,-19 0,-0.66669 1.66666,-1 5,-1 12,0 24.33333,-4.66669 37,-14 12.66667,-9.33331 19,-24.66666 19,-46 0,-16.66666 -5.33333,-30.66666 -16,-42 -10.66667,-11.33334 -25.66667,-17.33334 -45,-18 z" /><path
             id="path5776"
             style="fill:none;stroke:#444444;stroke-width:1;stroke-linecap:butt;stroke-linejoin:miter;stroke-miterlimit:10;stroke-dasharray:none;stroke-opacity:1"
             d="m 109,429 c -18,0 -32.333336,6 -43,18 -10.666668,12 -16,26.66666 -16,44 0,47.33331 17.666664,88.33331 53,123 35.33334,34.66669 79.33333,52 132,52 60.66666,0 111.33334,-18.66669 152,-56 40.66666,-37.33331 61.33334,-85.66669 62,-145 0,-28.66666 -6.66666,-56 -20,-82 -13.33334,-26 -29.33334,-48.66666 -48,-68 -18.66666,-19.33334 -45.33334,-44 -80,-74 -24,-20.66667 -57.33333,-51.33333 -100,-92 l -59,-56 76,-1 c 104.66669,0 160.33334,1.666664 167,5 4.66666,1.333336 12.66666,31 24,89 v 3 h 40 v -3 C 448.33334,184 444,153.66667 436,95 428,36.333332 423,5.666667 421,3 V 0 H 50 v 19 12 c 0,4.666668 2,9.666668 6,15 4,5.333332 14,17 30,35 19.33334,21.33334 36,40 50,56 6,6.66667 17.33333,19 34,37 16.66667,18 28,30.33333 34,37 6,6.66667 15.66667,17.66667 29,33 13.33333,15.33334 22.66667,26.66666 28,34 5.33334,7.33334 13,17.33334 23,30 10,12.66666 17,23.33334 21,32 4,8.66666 9,18.33334 15,29 6,10.66666 10.33334,21.33334 13,32 2.66666,10.66666 5,20.66666 7,30 2,9.33334 3,20.33334 3,33 0,42 -11.33334,78.33331 -34,109 -22.66666,30.66669 -55,46 -97,46 -22,0 -41.33333,-5.66669 -58,-17 -16.66667,-11.33331 -28.33334,-22.33331 -35,-33 -6.66666,-10.66669 -10,-17 -10,-19 0,-0.66669 1.66666,-1 5,-1 12,0 24.33333,-4.66669 37,-14 12.66667,-9.33331 19,-24.66666 19,-46 0,-16.66666 -5.33333,-30.66666 -16,-42 -10.66667,-11.33334 -25.66667,-17.33334 -45,-18 z" /></g><g
           transform="matrix(0,-0.04819699,-0.0482341,0,68.250671,690.12573)"
           id="g5778"><path
             id="path5780"
             style="fill:#444444;fill-opacity:1;fill-rule:nonzero;stroke:none"
             d="m 94,250 c 0,46 3.333336,89.66666 10,131 6.66666,41.33334 14.33334,77 23,107 8.66667,30 21,59.33331 37,88 16,28.66669 28.66667,51 38,67 9.33333,16 23.33333,33.33331 42,52 18.66666,18.66669 29.66666,30 33,34 3.33334,4 11.66666,11 25,21 h 13 4 c 9.33334,0 14,-3 14,-9 0,-2 -5.66666,-9 -17,-21 -11.33334,-12 -25,-29.66669 -41,-53 -16,-23.33331 -32.33333,-52 -49,-86 -16.66667,-34 -30.66667,-80 -42,-138 -11.33333,-58 -17,-122.33331 -17,-193 0,-70.66667 5.66667,-134.66666 17,-192 11.33333,-57.33333588 25,-103.666664 41,-139 16,-35.33334 32.33334,-64 49,-86 16.66666,-22 30.66666,-39.66667 42,-53 11.33334,-13.33333 17,-20.33333 17,-21 0,-6 -5,-9 -15,-9 h -3 -13 l -28,24 C 211.33333,-169.33333 165.66667,-98.666672 137,-14 108.33333,70.666672 94,158.66666 94,250 Z" /><path
             id="path5782"
             style="fill:none;stroke:#444444;stroke-width:1;stroke-linecap:butt;stroke-linejoin:miter;stroke-miterlimit:10;stroke-dasharray:none;stroke-opacity:1"
             d="m 94,250 c 0,46 3.333336,89.66666 10,131 6.66666,41.33334 14.33334,77 23,107 8.66667,30 21,59.33331 37,88 16,28.66669 28.66667,51 38,67 9.33333,16 23.33333,33.33331 42,52 18.66666,18.66669 29.66666,30 33,34 3.33334,4 11.66666,11 25,21 h 13 4 c 9.33334,0 14,-3 14,-9 0,-2 -5.66666,-9 -17,-21 -11.33334,-12 -25,-29.66669 -41,-53 -16,-23.33331 -32.33333,-52 -49,-86 -16.66667,-34 -30.66667,-80 -42,-138 -11.33333,-58 -17,-122.33331 -17,-193 0,-70.66667 5.66667,-134.66666 17,-192 11.33333,-57.33333588 25,-103.666664 41,-139 16,-35.33334 32.33334,-64 49,-86 16.66666,-22 30.66666,-39.66667 42,-53 11.33334,-13.33333 17,-20.33333 17,-21 0,-6 -5,-9 -15,-9 h -3 -13 l -28,24 C 211.33333,-169.33333 165.66667,-98.666672 137,-14 108.33333,70.666672 94,158.66666 94,250 Z" /></g><g
           transform="matrix(0,-0.04819699,-0.0482341,0,68.250671,671.37701)"
           id="g5784"><path
             id="path5786"
             style="fill:#444444;fill-opacity:1;fill-rule:nonzero;stroke:none"
             d="m 52,289 c 4.666668,28 22.666664,60.33334 54,97 31.33333,36.66666 70,55.33334 116,56 23.33333,0 44.66666,-6 64,-18 19.33334,-12 33.66666,-27 43,-45 28,42 61.66666,63 101,63 24.66666,0 46,-7.33334 64,-22 18,-14.66666 27.33331,-34.33334 28,-59 0,-19.33334 -4.66669,-35 -14,-47 -9.33334,-12 -18.33334,-19.33334 -27,-22 -8.66666,-2.66666 -16.33334,-4 -23,-4 -12.66666,0 -23,3.66666 -31,11 -8,7.33334 -12,17 -12,29 0,30.66666 16.66666,51.66666 50,63 -7.33334,8.66666 -20.66666,13 -40,13 -8.66666,0 -15,-0.66666 -19,-2 -25.33334,-10.66666 -44,-32.66666 -56,-66 -40,-147.33334 -60,-233.33333 -60,-258 0,-18.666668 5.33334,-32 16,-40 10.66666,-8 22.33334,-12 35,-12 24.66666,0 49,11 73,33 24,22 40.33334,49 49,81 2,6.66667 4,10.33333 6,11 2,0.66667 7.33334,1.33333 16,2 h 4 c 10,0 15,-2.66667 15,-8 0,-0.66667 -0.66666,-4.33333 -2,-11 C 491.33334,96 470.66666,62.333336 440,33 409.33334,3.666666 373.66666,-11 333,-11 286.33334,-11 251,10 227,52 199.66667,10.666664 168.33334,-10 133,-10 h -6 C 94.333328,-10 71,-1.333334 57,16 43,33.333336 35.666668,51.666664 35,71 c 0,21.333336 6.333332,38.66666 19,52 12.666664,13.33333 27.666664,20 45,20 28.66667,0 43,-14 43,-42 C 142,87.666664 138,76 130,66 122,56 114.33334,49.333332 107,46 99.666664,42.666668 95.333336,41 94,41 l -3,-1 c 0,-0.666668 2,-2 6,-4 4,-2 9.33334,-4.333334 16,-7 6.66666,-2.666666 13,-3.666666 19,-3 24,0 44.66667,15 62,45 6,10.666664 13.66667,33.33333 23,68 9.33333,34.66667 18.66667,70.66666 28,108 9.33333,37.33334 14.66666,59.33334 16,66 3.33334,18 5,31 5,39 0,18.66666 -5,32 -15,40 -10,8 -21.33333,12 -34,12 -26.66667,0 -51.66667,-10.66666 -75,-32 -23.33334,-21.33334 -39.66666,-48.66666 -49,-82 -1.333336,-6 -3,-9.33334 -5,-10 -2,-0.66666 -7.333336,-1.33334 -16,-2 H 58 c -4,4 -6,7.66666 -6,11 z" /><path
             id="path5788"
             style="fill:none;stroke:#444444;stroke-width:1;stroke-linecap:butt;stroke-linejoin:miter;stroke-miterlimit:10;stroke-dasharray:none;stroke-opacity:1"
             d="m 52,289 c 4.666668,28 22.666664,60.33334 54,97 31.33333,36.66666 70,55.33334 116,56 23.33333,0 44.66666,-6 64,-18 19.33334,-12 33.66666,-27 43,-45 28,42 61.66666,63 101,63 24.66666,0 46,-7.33334 64,-22 18,-14.66666 27.33331,-34.33334 28,-59 0,-19.33334 -4.66669,-35 -14,-47 -9.33334,-12 -18.33334,-19.33334 -27,-22 -8.66666,-2.66666 -16.33334,-4 -23,-4 -12.66666,0 -23,3.66666 -31,11 -8,7.33334 -12,17 -12,29 0,30.66666 16.66666,51.66666 50,63 -7.33334,8.66666 -20.66666,13 -40,13 -8.66666,0 -15,-0.66666 -19,-2 -25.33334,-10.66666 -44,-32.66666 -56,-66 -40,-147.33334 -60,-233.33333 -60,-258 0,-18.666668 5.33334,-32 16,-40 10.66666,-8 22.33334,-12 35,-12 24.66666,0 49,11 73,33 24,22 40.33334,49 49,81 2,6.66667 4,10.33333 6,11 2,0.66667 7.33334,1.33333 16,2 h 4 c 10,0 15,-2.66667 15,-8 0,-0.66667 -0.66666,-4.33333 -2,-11 C 491.33334,96 470.66666,62.333336 440,33 409.33334,3.666666 373.66666,-11 333,-11 286.33334,-11 251,10 227,52 199.66667,10.666664 168.33334,-10 133,-10 h -6 C 94.333328,-10 71,-1.333334 57,16 43,33.333336 35.666668,51.666664 35,71 c 0,21.333336 6.333332,38.66666 19,52 12.666664,13.33333 27.666664,20 45,20 28.66667,0 43,-14 43,-42 C 142,87.666664 138,76 130,66 122,56 114.33334,49.333332 107,46 99.666664,42.666668 95.333336,41 94,41 l -3,-1 c 0,-0.666668 2,-2 6,-4 4,-2 9.33334,-4.333334 16,-7 6.66666,-2.666666 13,-3.666666 19,-3 24,0 44.66667,15 62,45 6,10.666664 13.66667,33.33333 23,68 9.33333,34.66667 18.66667,70.66666 28,108 9.33333,37.33334 14.66666,59.33334 16,66 3.33334,18 5,31 5,39 0,18.66666 -5,32 -15,40 -10,8 -21.33333,12 -34,12 -26.66667,0 -51.66667,-10.66666 -75,-32 -23.33334,-21.33334 -39.66666,-48.66666 -49,-82 -1.333336,-6 -3,-9.33334 -5,-10 -2,-0.66666 -7.333336,-1.33334 -16,-2 H 58 c -4,4 -6,7.66666 -6,11 z" /></g><g
           transform="matrix(0,-0.04819699,-0.0482341,0,68.250671,643.76013)"
           id="g5790"><path
             id="path5792"
             style="fill:#444444;fill-opacity:1;fill-rule:nonzero;stroke:none"
             d="m 60,749 4,1 c 3.333336,0 6.666664,0 10,0 h 12 l 28,-24 c 62.66667,-56.66669 108.33333,-127.33331 137,-212 28.66666,-84.66669 43,-172.66666 43,-264 0,-45.33334 -3.33334,-89 -10,-131 -6.66666,-42 -14.33334,-77.666664 -23,-107 -8.66667,-29.333334 -21,-58.666664 -37,-88 -16,-29.33334 -28.66667,-51.66666 -38,-67 -9.33333,-15.33333 -23,-32.33333 -41,-51 -18,-18.66667 -28.66666,-29.66667 -32,-33 -3.33334,-3.33333 -11,-9.66667 -23,-19 -2,-2 -3.333336,-3.33333 -4,-4 H 74 c -5.333336,0 -9,0 -11,0 -2,0 -3.666668,1 -5,3 -1.333332,2 -2.333332,5 -3,9 0.666668,0.66667 4.333332,5 11,13 103.33334,107.33334 155,265.666656 155,475 0,209.33334 -51.66666,367.66669 -155,475 -6.666668,8 -10.333332,12.33331 -11,13 0,5.33331 1.666668,9 5,11 z" /><path
             id="path5794"
             style="fill:none;stroke:#444444;stroke-width:1;stroke-linecap:butt;stroke-linejoin:miter;stroke-miterlimit:10;stroke-dasharray:none;stroke-opacity:1"
             d="m 60,749 4,1 c 3.333336,0 6.666664,0 10,0 h 12 l 28,-24 c 62.66667,-56.66669 108.33333,-127.33331 137,-212 28.66666,-84.66669 43,-172.66666 43,-264 0,-45.33334 -3.33334,-89 -10,-131 -6.66666,-42 -14.33334,-77.666664 -23,-107 -8.66667,-29.333334 -21,-58.666664 -37,-88 -16,-29.33334 -28.66667,-51.66666 -38,-67 -9.33333,-15.33333 -23,-32.33333 -41,-51 -18,-18.66667 -28.66666,-29.66667 -32,-33 -3.33334,-3.33333 -11,-9.66667 -23,-19 -2,-2 -3.333336,-3.33333 -4,-4 H 74 c -5.333336,0 -9,0 -11,0 -2,0 -3.666668,1 -5,3 -1.333332,2 -2.333332,5 -3,9 0.666668,0.66667 4.333332,5 11,13 103.33334,107.33334 155,265.666656 155,475 0,209.33334 -51.66666,367.66669 -155,475 -6.666668,8 -10.333332,12.33331 -11,13 0,5.33331 1.666668,9 5,11 z" /></g></g></g><g
       id="g5796"><g
         clip-path="url(#clipPath5802)"
         id="g5798"><g
           transform="matrix(2.9955382,0,0,2.9955382,1.4977691,1.4977691)"
           id="g5804"><path
             id="path5806"
             style="fill:#949494;fill-opacity:1;fill-rule:nonzero;stroke:none"
             d="m 157.5,309.5 v -3 h 1 v 3 m -1,-6 v -3 h 1 v 3 m -1,-6 v -3 h 1 v 3 m -1,-6 v -3 h 1 v 3 m -1,-6 v -3 h 1 v 3 m -1,-6 v -3 h 1 v 3 m -1,-6 v -3 h 1 v 3 m -1,-6 v -3 h 1 v 3 m -1,-6 v -3 h 1 v 3 m -1,-6 v -3 h 1 v 3 m -1,-6 v -3 h 1 v 3 m -1,-6 v -3 h 1 v 3 m -1,-6 v -3 h 1 v 3 m -1,-6 v -3 h 1 v 3 m -1,-6 v -3 h 1 v 3 m -1,-6 v -3 h 1 v 3 m -1,-6 v -3 h 1 v 3 m -1,-6 v -3 h 1 v 3 m -1,-6 v -3 h 1 v 3 m -1,-6 v -3 h 1 v 3 m -1,-6 v -3 h 1 v 3 m -1,-6 v -3 h 1 v 3 m -1,-6 v -3 h 1 v 3 m -1,-6 v -3 h 1 v 3 m -1,-6 v -3 h 1 v 3 m -1,-6 v -3 h 1 v 3 m -1,-6 v -3 h 1 v 3 m -1,-6 v -3 h 1 v 3 m -1,-6 v -3 h 1 v 3 m -1,-6 v -3 h 1 v 3 m -1,-6 v -3 h 1 v 3 m -1,-6 v -3 h 1 v 3 m -1,-6 v -3 h 1 v 3 m -1,-6 v -3 h 1 v 3 m -1,-6 v -3 h 1 v 3 m -1,-6 v -3 h 1 v 3 m -1,-6 v -3 h 1 v 3" /><path
             id="path5808"
             style="fill:#949494;fill-opacity:1;fill-rule:nonzero;stroke:none"
             d="m 352,313.5 h -3 v -1 h 3 m -6,1 h -3 v -1 h 3 m -6,1 h -3 v -1 h 3 m -6,1 h -3 v -1 h 3 m -6,1 h -3 v -1 h 3 m -6,1 h -3 v -1 h 3 m -6,1 h -3 v -1 h 3 m -6,1 h -3 v -1 h 3 m -6,1 h -3 v -1 h 3 m -6,1 h -3 v -1 h 3 m -6,1 h -3 v -1 h 3 m -6,1 h -3 v -1 h 3 m -6,1 h -3 v -1 h 3 m -6,1 h -3 v -1 h 3 m -6,1 h -3 v -1 h 3 m -6,1 h -3 v -1 h 3 m -6,1 h -3 v -1 h 3 m -6,1 h -3 v -1 h 3 m -6,1 h -3 v -1 h 3 m -6,1 h -3 v -1 h 3 m -6,1 h -3 v -1 h 3 m -6,1 h -3 v -1 h 3 m -6,1 h -3 v -1 h 3 m -6,1 h -3 v -1 h 3 m -6,1 h -3 v -1 h 3 m -6,1 h -3 v -1 h 3 m -6,1 h -3 v -1 h 3 m -6,1 h -3 v -1 h 3 m -6,1 h -3 v -1 h 3 m -6,1 h -3 v -1 h 3 m -6,1 h -3 v -1 h 3 m -6,1 h -3 v -1 h 3" /></g><g
           transform="scale(2.9955382)"
           id="g5810"><text
             id="text5814"
             style="font-variant:normal;font-weight:bold;font-size:14px;font-family:Helvetica;-inkscape-font-specification:Helvetica-Bold;writing-mode:lr-tb;fill:#333333;fill-opacity:1;fill-rule:nonzero;stroke:none"
             transform="translate(145.9375,325)"><tspan
               id="tspan5812"
               y="0"
               x="0">A</tspan></text>
<text
             id="text5818"
             style="font-variant:normal;font-weight:bold;font-size:14px;font-family:Helvetica;-inkscape-font-specification:Helvetica-Bold;writing-mode:lr-tb;fill:#333333;fill-opacity:1;fill-rule:nonzero;stroke:none"
             transform="translate(179.9375,226)"><tspan
               id="tspan5816"
               y="0"
               x="0">B</tspan></text>
<text
             id="text5822"
             style="font-variant:normal;font-weight:bold;font-size:14px;font-family:Helvetica;-inkscape-font-specification:Helvetica-Bold;writing-mode:lr-tb;fill:#333333;fill-opacity:1;fill-rule:nonzero;stroke:none"
             transform="translate(125.9375,175)"><tspan
               id="tspan5820"
               y="0"
               x="0">C</tspan></text>
</g></g></g></g></svg>