<?xml version="1.0" encoding="UTF-8" standalone="no"?>
<svg
   xmlns:dc="http://purl.org/dc/elements/1.1/"
   xmlns:cc="http://creativecommons.org/ns#"
   xmlns:rdf="http://www.w3.org/1999/02/22-rdf-syntax-ns#"
   xmlns:svg="http://www.w3.org/2000/svg"
   xmlns="http://www.w3.org/2000/svg"
   viewBox="0 0 808 130.56"
   height="130.56"
   width="808"
   xml:space="preserve"
   id="svg9529"
   version="1.1"><metadata
     id="metadata9535"><rdf:RDF><cc:Work
         rdf:about=""><dc:format>image/svg+xml</dc:format><dc:type
           rdf:resource="http://purl.org/dc/dcmitype/StillImage" /><dc:title></dc:title></cc:Work></rdf:RDF></metadata><defs
     id="defs9533"><clipPath
       id="clipPath9545"
       clipPathUnits="userSpaceOnUse"><path
         style="clip-rule:evenodd"
         id="path9543"
         d="M 0,0 H 2525 V 407.35468 H 0 Z" /></clipPath><clipPath
       id="clipPath9557"
       clipPathUnits="userSpaceOnUse"><path
         style="clip-rule:evenodd"
         id="path9555"
         d="M 0,0 H 2525 V 404.35944 H 0 Z" /></clipPath></defs><g
     transform="matrix(0.31999998,0,0,0.31999998,0,5.9306666e-6)"
     id="g9537"><g
       id="g9539"><g
         clip-path="url(#clipPath9545)"
         id="g9541"><g
           transform="scale(2.995255)"
           id="g9547"><path
             id="path9549"
             style="fill:#ffffff;fill-opacity:1;fill-rule:nonzero;stroke:none"
             d="M 0,0 H 843 V 136 H 0 Z" /></g></g></g><g
       id="g9551"><g
         clip-path="url(#clipPath9557)"
         id="g9553"><g
           transform="matrix(2.995255,0,0,2.995255,1.4976275,1.4976275)"
           id="g9559"><path
             id="path9561"
             style="fill:none;stroke:#333333;stroke-width:1;stroke-linecap:butt;stroke-linejoin:miter;stroke-miterlimit:10;stroke-dasharray:none;stroke-opacity:1"
             d="M 21,26 H 41 26 37.880001" /><path
             id="path9563"
             style="fill:#333333;fill-opacity:1;fill-rule:nonzero;stroke:none"
             d="m 44.880001,26 -7,2.33 v -4.66 z" /><path
             id="path9565"
             style="fill:none;stroke:#333333;stroke-width:1;stroke-linecap:butt;stroke-linejoin:miter;stroke-miterlimit:10;stroke-dasharray:none;stroke-opacity:1"
             d="m 44.880001,26 -7,2.33 v -4.66 z" /><path
             id="path9567"
             style="fill:none;stroke:#333333;stroke-width:1;stroke-linecap:butt;stroke-linejoin:miter;stroke-miterlimit:10;stroke-dasharray:none;stroke-opacity:1"
             d="m 21,26 c -2e-6,0.656607 -0.06405,1.306908 -0.19215,1.950899 -0.128098,0.643994 -0.317783,1.269304 -0.569056,1.875931 -0.251274,0.606626 -0.559307,1.182915 -0.924101,1.728865 -0.364791,0.545951 -0.779333,1.051075 -1.243625,1.515369 -0.464295,0.464291 -0.969418,0.878834 -1.515368,1.243626 -0.54595,0.364795 -1.122239,0.672828 -1.728866,0.924102 -0.606629,0.251271 -1.231939,0.440957 -1.875931,0.569054 C 12.30691,35.935947 11.656609,35.999996 11,36 10.343391,35.999996 9.6930885,35.935947 9.0490961,35.807846 8.4051027,35.679749 7.7797923,35.490063 7.1731648,35.238792 6.5665369,34.987518 5.9902477,34.679485 5.4442973,34.314693 4.8983464,33.949898 4.3932247,33.535355 3.928932,33.071064 3.4646389,32.60677 3.050096,32.101646 2.6853034,31.555695 2.3205109,31.009745 2.0124779,30.433456 1.7612045,29.82683 1.5099308,29.220203 1.3202452,28.594893 1.1921471,27.950901 1.064049,27.306908 0.99999994,26.656607 1,26 c -6e-8,-0.65661 0.064049,-1.306911 0.192147,-1.950903 C 1.3202452,23.405104 1.5099308,22.779793 1.7612045,22.173164 2.0124779,21.566536 2.3205109,20.990246 2.6853034,20.444296 3.050096,19.898346 3.4646389,19.393225 3.928932,18.928932 4.3932247,18.46464 4.8983464,18.050097 5.4442973,17.685305 5.9902477,17.320511 6.5665369,17.012478 7.1731648,16.761204 7.7797923,16.509932 8.4051027,16.320246 9.0490961,16.192146 9.6930885,16.064049 10.343391,16 11,16 c 0.656609,0 1.30691,0.06405 1.950903,0.192146 0.643992,0.1281 1.269302,0.317786 1.875931,0.569058 0.606627,0.251274 1.182916,0.559307 1.728866,0.924101 0.54595,0.364792 1.051073,0.779335 1.515368,1.243627 0.464292,0.464293 0.878834,0.969414 1.243625,1.515364 0.364794,0.54595 0.672827,1.12224 0.924101,1.728868 0.251273,0.606629 0.440958,1.23194 0.569056,1.875933 C 20.935949,24.693089 20.999998,25.34339 21,26 Z" /><path
             id="path9569"
             style="fill:none;stroke:#333333;stroke-width:1;stroke-linecap:butt;stroke-linejoin:miter;stroke-miterlimit:10;stroke-dasharray:none;stroke-opacity:1"
             d="m 141,26 h 20 -10 11.88" /><path
             id="path9571"
             style="fill:#333333;fill-opacity:1;fill-rule:nonzero;stroke:none"
             d="m 169.88,26 -7,2.33 v -4.66 z" /><path
             id="path9573"
             style="fill:none;stroke:#333333;stroke-width:1;stroke-linecap:butt;stroke-linejoin:miter;stroke-miterlimit:10;stroke-dasharray:none;stroke-opacity:1"
             d="m 169.88,26 -7,2.33 v -4.66 z" /><path
             id="path9575"
             style="fill:#ffffff;fill-opacity:1;fill-rule:nonzero;stroke:none"
             d="M 53.200001,6 H 133.8 c 0.47277,0 0.94097,0.046115 1.40464,0.1383462 0.46366,0.09223 0.91389,0.2288036 1.35066,0.4097204 0.43678,0.1809168 0.85171,0.4027004 1.24479,0.6653514 0.39309,0.2626505 0.75678,0.5611215 1.09107,0.8954125 0.33429,0.3342905 0.63275,0.6979789 0.8954,1.0910635 0.26265,0.3930845 0.48444,0.808012 0.66536,1.244784 0.18091,0.436773 0.31747,0.886996 0.40971,1.350671 0.0922,0.463675 0.13835,0.931892 0.13837,1.404651 v 25.599999 c -2e-5,0.472756 -0.0461,0.940972 -0.13837,1.404648 -0.0922,0.463673 -0.2288,0.913899 -0.40971,1.35067 -0.18092,0.436771 -0.40271,0.8517 -0.66536,1.244785 -0.26265,0.393086 -0.56111,0.756771 -0.8954,1.091065 -0.33429,0.334293 -0.69798,0.632763 -1.09107,0.895412 -0.39308,0.262653 -0.80801,0.484436 -1.24479,0.665352 -0.43677,0.180916 -0.887,0.31749 -1.35066,0.409721 C 134.74097,45.95388 134.27277,45.999996 133.8,46 H 53.200001 c -0.472759,-4e-6 -0.940975,-0.04612 -1.404656,-0.138348 -0.463672,-0.09223 -0.913898,-0.228805 -1.35067,-0.409721 C 50.007904,45.271015 49.592972,45.049232 49.199886,44.786579 48.806805,44.52393 48.443119,44.22546 48.108829,43.891167 47.774536,43.556873 47.476067,43.193184 47.213413,42.800098 46.95076,42.407013 46.728977,41.992085 46.548061,41.555313 46.367146,41.118542 46.230572,40.66832 46.138344,40.204647 46.046112,39.740971 45.999996,39.272755 46,38.799999 V 13.2 c -4e-6,-0.472759 0.04611,-0.940976 0.138344,-1.404652 0.09223,-0.463674 0.228802,-0.913898 0.409717,-1.350671 0.180916,-0.436771 0.402699,-0.8516995 0.665348,-1.244784 0.262654,-0.3930845 0.561127,-0.756772 0.89542,-1.0910625 0.33429,-0.334291 0.697976,-0.632762 1.091057,-0.895413 C 49.592972,6.950767 50.007904,6.7289834 50.444675,6.5480666 50.881447,6.3671498 51.331673,6.230576 51.795345,6.1383457 52.259026,6.0461154 52.727242,6 53.200001,6 Z" /><path
             id="path9577"
             style="fill:none;stroke:#333333;stroke-width:1;stroke-linecap:butt;stroke-linejoin:miter;stroke-miterlimit:10;stroke-dasharray:none;stroke-opacity:1"
             d="M 53.200001,6 H 133.8 c 0.47277,0 0.94097,0.046115 1.40464,0.1383462 0.46366,0.09223 0.91389,0.2288036 1.35066,0.4097204 0.43678,0.1809168 0.85171,0.4027004 1.24479,0.6653514 0.39309,0.2626505 0.75678,0.5611215 1.09107,0.8954125 0.33429,0.3342905 0.63275,0.6979789 0.8954,1.0910635 0.26265,0.3930845 0.48444,0.808012 0.66536,1.244784 0.18091,0.436773 0.31747,0.886996 0.40971,1.350671 0.0922,0.463675 0.13835,0.931892 0.13837,1.404651 v 25.599999 c -2e-5,0.472756 -0.0461,0.940972 -0.13837,1.404648 -0.0922,0.463673 -0.2288,0.913899 -0.40971,1.35067 -0.18092,0.436771 -0.40271,0.8517 -0.66536,1.244785 -0.26265,0.393086 -0.56111,0.756771 -0.8954,1.091065 -0.33429,0.334293 -0.69798,0.632763 -1.09107,0.895412 -0.39308,0.262653 -0.80801,0.484436 -1.24479,0.665352 -0.43677,0.180916 -0.887,0.31749 -1.35066,0.409721 C 134.74097,45.95388 134.27277,45.999996 133.8,46 H 53.200001 c -0.472759,-4e-6 -0.940975,-0.04612 -1.404656,-0.138348 -0.463672,-0.09223 -0.913898,-0.228805 -1.35067,-0.409721 C 50.007904,45.271015 49.592972,45.049232 49.199886,44.786579 48.806805,44.52393 48.443119,44.22546 48.108829,43.891167 47.774536,43.556873 47.476067,43.193184 47.213413,42.800098 46.95076,42.407013 46.728977,41.992085 46.548061,41.555313 46.367146,41.118542 46.230572,40.66832 46.138344,40.204647 46.046112,39.740971 45.999996,39.272755 46,38.799999 V 13.2 c -4e-6,-0.472759 0.04611,-0.940976 0.138344,-1.404652 0.09223,-0.463674 0.228802,-0.913898 0.409717,-1.350671 0.180916,-0.436771 0.402699,-0.8516995 0.665348,-1.244784 0.262654,-0.3930845 0.561127,-0.756772 0.89542,-1.0910625 0.33429,-0.334291 0.697976,-0.632762 1.091057,-0.895413 C 49.592972,6.950767 50.007904,6.7289834 50.444675,6.5480666 50.881447,6.3671498 51.331673,6.230576 51.795345,6.1383457 52.259026,6.0461154 52.727242,6 53.200001,6 Z" /></g><g
           transform="scale(2.995255)"
           id="g9579"><text
             id="text9583"
             style="font-variant:normal;font-weight:normal;font-size:12px;font-family:Helvetica;-inkscape-font-specification:Helvetica;writing-mode:lr-tb;fill:#000000;fill-opacity:1;fill-rule:nonzero;stroke:none"
             transform="translate(48.140625,31)"><tspan
               id="tspan9581"
               y="0"
               x="0 8.0039062 12 18.673828 25.347656 32.021484 36.017578 42.691406 46.025391 52.025391 58.699219 68.695312 75.369141 78.035156 84.708984">Prepare samples</tspan></text>
</g><g
           transform="matrix(2.995255,0,0,2.995255,1.4976275,1.4976275)"
           id="g9585"><path
             id="path9587"
             style="fill:none;stroke:#333333;stroke-width:1;stroke-linecap:butt;stroke-linejoin:miter;stroke-miterlimit:10;stroke-dasharray:none;stroke-opacity:1"
             d="M 281,26 H 301 284.20001 296.03" /><path
             id="path9589"
             style="fill:#333333;fill-opacity:1;fill-rule:nonzero;stroke:none"
             d="m 303.03,26 -7,2.33 v -4.66 z" /><path
             id="path9591"
             style="fill:none;stroke:#333333;stroke-width:1;stroke-linecap:butt;stroke-linejoin:miter;stroke-miterlimit:10;stroke-dasharray:none;stroke-opacity:1"
             d="m 303.03,26 -7,2.33 v -4.66 z" /><path
             id="path9593"
             style="fill:#ffffff;fill-opacity:1;fill-rule:nonzero;stroke:none"
             d="m 178.2,6 h 95.59999 c 0.47275,0 0.94098,0.046115 1.40463,0.1383462 0.46365,0.09223 0.91388,0.2288036 1.35065,0.4097204 0.4368,0.1809168 0.85171,0.4027004 1.24478,0.6653514 0.3931,0.2626505 0.75677,0.5611215 1.09109,0.8954125 0.33432,0.3342905 0.63279,0.6979789 0.89542,1.0910635 0.26266,0.3930845 0.48444,0.808012 0.66534,1.244784 0.18094,0.436773 0.31751,0.886996 0.40976,1.350671 0.0923,0.463675 0.13837,0.931892 0.13834,1.404651 v 25.599999 c 3e-5,0.472756 -0.0461,0.940972 -0.13834,1.404648 -0.0922,0.463673 -0.22882,0.913899 -0.40976,1.35067 -0.1809,0.436771 -0.40268,0.8517 -0.66534,1.244785 -0.26263,0.393086 -0.5611,0.756771 -0.89542,1.091065 -0.33432,0.334293 -0.69799,0.632763 -1.09109,0.895412 -0.39307,0.262653 -0.80798,0.484436 -1.24478,0.665352 -0.43677,0.180916 -0.887,0.31749 -1.35068,0.409721 -0.46365,0.09223 -0.93185,0.138344 -1.4046,0.138348 H 178.2 c -0.47277,-4e-6 -0.94098,-0.04612 -1.40467,-0.138348 -0.46368,-0.09223 -0.91391,-0.228805 -1.35067,-0.409721 -0.43679,-0.180916 -0.8517,-0.402699 -1.24479,-0.665352 -0.39308,-0.262649 -0.75675,-0.561119 -1.09104,-0.895412 -0.33431,-0.334294 -0.63279,-0.697983 -0.89544,-1.091069 -0.26265,-0.393085 -0.48442,-0.808013 -0.66534,-1.244785 -0.18092,-0.436771 -0.31749,-0.886993 -0.40971,-1.350666 C 171.04611,39.740971 171,39.272755 171,38.799999 V 13.2 c 0,-0.472759 0.0461,-0.940976 0.13834,-1.404652 0.0922,-0.463674 0.22879,-0.913898 0.40971,-1.350671 0.18092,-0.436771 0.40269,-0.8516995 0.66534,-1.244784 0.26265,-0.3930845 0.56113,-0.756772 0.89544,-1.0910625 0.33429,-0.334291 0.69796,-0.632762 1.09104,-0.895413 0.39309,-0.2626505 0.808,-0.4844341 1.24479,-0.6653509 0.43676,-0.1809168 0.88699,-0.3174906 1.35067,-0.4097209 C 177.25902,6.0461154 177.72723,6 178.2,6 Z" /><path
             id="path9595"
             style="fill:none;stroke:#333333;stroke-width:1;stroke-linecap:butt;stroke-linejoin:miter;stroke-miterlimit:10;stroke-dasharray:none;stroke-opacity:1"
             d="m 178.2,6 h 95.59999 c 0.47275,0 0.94098,0.046115 1.40463,0.1383462 0.46365,0.09223 0.91388,0.2288036 1.35065,0.4097204 0.4368,0.1809168 0.85171,0.4027004 1.24478,0.6653514 0.3931,0.2626505 0.75677,0.5611215 1.09109,0.8954125 0.33432,0.3342905 0.63279,0.6979789 0.89542,1.0910635 0.26266,0.3930845 0.48444,0.808012 0.66534,1.244784 0.18094,0.436773 0.31751,0.886996 0.40976,1.350671 0.0923,0.463675 0.13837,0.931892 0.13834,1.404651 v 25.599999 c 3e-5,0.472756 -0.0461,0.940972 -0.13834,1.404648 -0.0922,0.463673 -0.22882,0.913899 -0.40976,1.35067 -0.1809,0.436771 -0.40268,0.8517 -0.66534,1.244785 -0.26263,0.393086 -0.5611,0.756771 -0.89542,1.091065 -0.33432,0.334293 -0.69799,0.632763 -1.09109,0.895412 -0.39307,0.262653 -0.80798,0.484436 -1.24478,0.665352 -0.43677,0.180916 -0.887,0.31749 -1.35068,0.409721 -0.46365,0.09223 -0.93185,0.138344 -1.4046,0.138348 H 178.2 c -0.47277,-4e-6 -0.94098,-0.04612 -1.40467,-0.138348 -0.46368,-0.09223 -0.91391,-0.228805 -1.35067,-0.409721 -0.43679,-0.180916 -0.8517,-0.402699 -1.24479,-0.665352 -0.39308,-0.262649 -0.75675,-0.561119 -1.09104,-0.895412 -0.33431,-0.334294 -0.63279,-0.697983 -0.89544,-1.091069 -0.26265,-0.393085 -0.48442,-0.808013 -0.66534,-1.244785 -0.18092,-0.436771 -0.31749,-0.886993 -0.40971,-1.350666 C 171.04611,39.740971 171,39.272755 171,38.799999 V 13.2 c 0,-0.472759 0.0461,-0.940976 0.13834,-1.404652 0.0922,-0.463674 0.22879,-0.913898 0.40971,-1.350671 0.18092,-0.436771 0.40269,-0.8516995 0.66534,-1.244784 0.26265,-0.3930845 0.56113,-0.756772 0.89544,-1.0910625 0.33429,-0.334291 0.69796,-0.632762 1.09104,-0.895413 0.39309,-0.2626505 0.808,-0.4844341 1.24479,-0.6653509 0.43676,-0.1809168 0.88699,-0.3174906 1.35067,-0.4097209 C 177.25902,6.0461154 177.72723,6 178.2,6 Z" /></g><g
           transform="scale(2.995255)"
           id="g9597"><text
             id="text9601"
             style="font-variant:normal;font-weight:normal;font-size:12px;font-family:Helvetica;-inkscape-font-specification:Helvetica;writing-mode:lr-tb;fill:#000000;fill-opacity:1;fill-rule:nonzero;stroke:none"
             transform="translate(182.96875,24)"><tspan
               id="tspan9599"
               y="0"
               x="0 8.6660156 12.662109 19.335938 25.335938 31.335938 35.332031 41.332031 48.005859 50.671875 53.337891 60.011719 66.685547 70.019531 72.685547 79.359375">Cross-validation</tspan></text>
<text
             id="text9605"
             style="font-variant:normal;font-weight:normal;font-size:12px;font-family:Helvetica;-inkscape-font-specification:Helvetica;writing-mode:lr-tb;fill:#000000;fill-opacity:1;fill-rule:nonzero;stroke:none"
             transform="translate(177.625,38)"><tspan
               id="tspan9603"
               y="0"
               x="0 6 12.673828 16.669922 20.666016 27.339844 34.013672 40.6875 44.021484 50.695312 54.029297 60.703125 67.376953 71.373047 74.707031 78.041016 84.714844 87.380859 90.046875">surrogate portfolio</tspan></text>
</g><g
           transform="matrix(2.995255,0,0,2.995255,1.4976275,1.4976275)"
           id="g9607"><path
             id="path9609"
             style="fill:none;stroke:#333333;stroke-width:1;stroke-linecap:butt;stroke-linejoin:miter;stroke-miterlimit:10;stroke-dasharray:none;stroke-opacity:1"
             d="m 381,26 h 12.88" /><path
             id="path9611"
             style="fill:#333333;fill-opacity:1;fill-rule:nonzero;stroke:none"
             d="m 400.88,26 -7,2.33 v -4.66 z" /><path
             id="path9613"
             style="fill:none;stroke:#333333;stroke-width:1;stroke-linecap:butt;stroke-linejoin:miter;stroke-miterlimit:10;stroke-dasharray:none;stroke-opacity:1"
             d="m 400.88,26 -7,2.33 v -4.66 z" /><path
             id="path9615"
             style="fill:#ffffff;fill-opacity:1;fill-rule:nonzero;stroke:none"
             d="m 311.35001,6 h 62.44998 c 0.47275,0 0.94095,0.046115 1.4046,0.1383462 0.46365,0.09223 0.91388,0.2288036 1.35068,0.4097204 0.43676,0.1809168 0.85168,0.4027004 1.24475,0.6653514 0.3931,0.2626505 0.7568,0.5611215 1.09112,0.8954125 0.33429,0.3342905 0.63276,0.6979789 0.89542,1.0910635 0.26263,0.3930845 0.48441,0.808012 0.66531,1.244784 0.18094,0.436773 0.31751,0.886996 0.40973,1.350671 C 380.95386,12.259024 381,12.727241 381,13.2 v 25.599999 c 0,0.472756 -0.0461,0.940972 -0.13837,1.404648 -0.0922,0.463673 -0.22882,0.913899 -0.40976,1.35067 -0.1809,0.436771 -0.40268,0.8517 -0.66534,1.244785 -0.26263,0.393086 -0.5611,0.756771 -0.89539,1.091065 -0.33432,0.334293 -0.69799,0.632763 -1.09109,0.895412 -0.3931,0.262653 -0.80802,0.484436 -1.24478,0.665352 -0.4368,0.180916 -0.887,0.31749 -1.35065,0.409721 -0.46368,0.09223 -0.93188,0.138344 -1.40463,0.138348 h -62.44998 c -0.47278,-4e-6 -0.94101,-0.04612 -1.4047,-0.138348 -0.46371,-0.09223 -0.91394,-0.228805 -1.35071,-0.409721 -0.43679,-0.180916 -0.85171,-0.402699 -1.24475,-0.665352 -0.39309,-0.262649 -0.75677,-0.561119 -1.09103,-0.895412 -0.33432,-0.334294 -0.63281,-0.697983 -0.89548,-1.091069 -0.26266,-0.393085 -0.48443,-0.808013 -0.66531,-1.244785 -0.18091,-0.436771 -0.31748,-0.886993 -0.4097,-1.350666 -0.0922,-0.463676 -0.13837,-0.931892 -0.13834,-1.404648 V 13.2 c -3e-5,-0.472759 0.0461,-0.940976 0.13831,-1.404652 0.0923,-0.463674 0.22882,-0.913898 0.40973,-1.350671 0.18088,-0.436771 0.40265,-0.8516995 0.66531,-1.244784 0.26267,-0.3930845 0.56116,-0.756772 0.89548,-1.0910625 0.33426,-0.334291 0.69794,-0.632762 1.09103,-0.895413 0.39304,-0.2626505 0.80796,-0.4844341 1.24475,-0.6653509 0.43677,-0.1809168 0.887,-0.3174906 1.35071,-0.4097209 C 310.409,6.0461154 310.87723,6 311.35001,6 Z" /><path
             id="path9617"
             style="fill:none;stroke:#333333;stroke-width:1;stroke-linecap:butt;stroke-linejoin:miter;stroke-miterlimit:10;stroke-dasharray:none;stroke-opacity:1"
             d="m 311.35001,6 h 62.44998 c 0.47275,0 0.94095,0.046115 1.4046,0.1383462 0.46365,0.09223 0.91388,0.2288036 1.35068,0.4097204 0.43676,0.1809168 0.85168,0.4027004 1.24475,0.6653514 0.3931,0.2626505 0.7568,0.5611215 1.09112,0.8954125 0.33429,0.3342905 0.63276,0.6979789 0.89542,1.0910635 0.26263,0.3930845 0.48441,0.808012 0.66531,1.244784 0.18094,0.436773 0.31751,0.886996 0.40973,1.350671 C 380.95386,12.259024 381,12.727241 381,13.2 v 25.599999 c 0,0.472756 -0.0461,0.940972 -0.13837,1.404648 -0.0922,0.463673 -0.22882,0.913899 -0.40976,1.35067 -0.1809,0.436771 -0.40268,0.8517 -0.66534,1.244785 -0.26263,0.393086 -0.5611,0.756771 -0.89539,1.091065 -0.33432,0.334293 -0.69799,0.632763 -1.09109,0.895412 -0.3931,0.262653 -0.80802,0.484436 -1.24478,0.665352 -0.4368,0.180916 -0.887,0.31749 -1.35065,0.409721 -0.46368,0.09223 -0.93188,0.138344 -1.40463,0.138348 h -62.44998 c -0.47278,-4e-6 -0.94101,-0.04612 -1.4047,-0.138348 -0.46371,-0.09223 -0.91394,-0.228805 -1.35071,-0.409721 -0.43679,-0.180916 -0.85171,-0.402699 -1.24475,-0.665352 -0.39309,-0.262649 -0.75677,-0.561119 -1.09103,-0.895412 -0.33432,-0.334294 -0.63281,-0.697983 -0.89548,-1.091069 -0.26266,-0.393085 -0.48443,-0.808013 -0.66531,-1.244785 -0.18091,-0.436771 -0.31748,-0.886993 -0.4097,-1.350666 -0.0922,-0.463676 -0.13837,-0.931892 -0.13834,-1.404648 V 13.2 c -3e-5,-0.472759 0.0461,-0.940976 0.13831,-1.404652 0.0923,-0.463674 0.22882,-0.913898 0.40973,-1.350671 0.18088,-0.436771 0.40265,-0.8516995 0.66531,-1.244784 0.26267,-0.3930845 0.56116,-0.756772 0.89548,-1.0910625 0.33426,-0.334291 0.69794,-0.632762 1.09103,-0.895413 0.39304,-0.2626505 0.80796,-0.4844341 1.24475,-0.6653509 0.43677,-0.1809168 0.887,-0.3174906 1.35071,-0.4097209 C 310.409,6.0461154 310.87723,6 311.35001,6 Z" /></g><g
           transform="scale(2.995255)"
           id="g9619"><text
             id="text9623"
             style="font-variant:normal;font-weight:normal;font-size:12px;font-family:Helvetica;-inkscape-font-specification:Helvetica;writing-mode:lr-tb;fill:#000000;fill-opacity:1;fill-rule:nonzero;stroke:none"
             transform="translate(307.46875,31)"><tspan
               id="tspan9621"
               y="0"
               x="0 7.3300781 14.003906 18 24.673828 30.673828 37.347656 44.021484 46.6875 53.361328 56.695312 63.369141">Threshold #1</tspan></text>
</g><g
           transform="matrix(2.995255,0,0,2.995255,1.4976275,1.4976275)"
           id="g9625"><path
             id="path9627"
             style="fill:none;stroke:#333333;stroke-width:1;stroke-linecap:butt;stroke-linejoin:miter;stroke-miterlimit:10;stroke-dasharray:none;stroke-opacity:1"
             d="m 581,26 h 21.88" /><path
             id="path9629"
             style="fill:#333333;fill-opacity:1;fill-rule:nonzero;stroke:none"
             d="m 609.88,26 -7,2.33 v -4.66 z" /><path
             id="path9631"
             style="fill:none;stroke:#333333;stroke-width:1;stroke-linecap:butt;stroke-linejoin:miter;stroke-miterlimit:10;stroke-dasharray:none;stroke-opacity:1"
             d="m 609.88,26 -7,2.33 v -4.66 z" /><path
             id="path9633"
             style="fill:#ffffff;fill-opacity:1;fill-rule:nonzero;stroke:none"
             d="m 478.20001,6 h 95.59998 c 0.47278,0 0.94098,0.046115 1.4046,0.1383462 0.46368,0.09223 0.91388,0.2288036 1.35065,0.4097204 0.43676,0.1809168 0.85168,0.4027004 1.24481,0.6653514 0.39307,0.2626505 0.75677,0.5611215 1.09106,0.8954125 0.33423,0.3342905 0.63269,0.6979789 0.89533,1.0910635 0.26263,0.3930845 0.48443,0.808012 0.6654,1.244784 0.18091,0.436773 0.31745,0.886996 0.40967,1.350671 0.0923,0.463675 0.13843,0.931892 0.13849,1.404651 v 25.599999 c -6e-5,0.472756 -0.0462,0.940972 -0.13849,1.404648 -0.0922,0.463673 -0.22876,0.913899 -0.40967,1.35067 -0.18097,0.436771 -0.40277,0.8517 -0.6654,1.244785 -0.26264,0.393086 -0.5611,0.756771 -0.89533,1.091065 -0.33429,0.334293 -0.69799,0.632763 -1.09106,0.895412 -0.39313,0.262653 -0.80805,0.484436 -1.24481,0.665352 -0.43677,0.180916 -0.88697,0.31749 -1.35065,0.409721 -0.46362,0.09223 -0.93182,0.138344 -1.4046,0.138348 h -95.59998 c -0.47278,-4e-6 -0.94101,-0.04612 -1.40466,-0.138348 -0.46368,-0.09223 -0.91391,-0.228805 -1.35068,-0.409721 -0.4368,-0.180916 -0.85174,-0.402699 -1.24484,-0.665352 -0.39304,-0.262649 -0.75671,-0.561119 -1.091,-0.895412 -0.33429,-0.334294 -0.63279,-0.697983 -0.89545,-1.091069 -0.26267,-0.393085 -0.48444,-0.808013 -0.66538,-1.244785 -0.18093,-0.436771 -0.3175,-0.886993 -0.40969,-1.350666 C 471.04608,39.740971 470.99997,39.272755 471,38.799999 V 13.2 c -3e-5,-0.472759 0.0461,-0.940976 0.13831,-1.404652 0.0922,-0.463674 0.22876,-0.913898 0.40969,-1.350671 0.18094,-0.436771 0.40274,-0.8516995 0.66541,-1.244784 0.26266,-0.3930845 0.56113,-0.756772 0.89542,-1.0910625 0.33429,-0.334291 0.69796,-0.632762 1.091,-0.895413 0.3931,-0.2626505 0.80801,-0.4844341 1.24478,-0.6653509 0.4368,-0.1809168 0.88702,-0.3174906 1.35074,-0.4097209 C 477.259,6.0461154 477.72723,6 478.20001,6 Z" /><path
             id="path9635"
             style="fill:none;stroke:#333333;stroke-width:1;stroke-linecap:butt;stroke-linejoin:miter;stroke-miterlimit:10;stroke-dasharray:none;stroke-opacity:1"
             d="m 478.20001,6 h 95.59998 c 0.47278,0 0.94098,0.046115 1.4046,0.1383462 0.46368,0.09223 0.91388,0.2288036 1.35065,0.4097204 0.43676,0.1809168 0.85168,0.4027004 1.24481,0.6653514 0.39307,0.2626505 0.75677,0.5611215 1.09106,0.8954125 0.33423,0.3342905 0.63269,0.6979789 0.89533,1.0910635 0.26263,0.3930845 0.48443,0.808012 0.6654,1.244784 0.18091,0.436773 0.31745,0.886996 0.40967,1.350671 0.0923,0.463675 0.13843,0.931892 0.13849,1.404651 v 25.599999 c -6e-5,0.472756 -0.0462,0.940972 -0.13849,1.404648 -0.0922,0.463673 -0.22876,0.913899 -0.40967,1.35067 -0.18097,0.436771 -0.40277,0.8517 -0.6654,1.244785 -0.26264,0.393086 -0.5611,0.756771 -0.89533,1.091065 -0.33429,0.334293 -0.69799,0.632763 -1.09106,0.895412 -0.39313,0.262653 -0.80805,0.484436 -1.24481,0.665352 -0.43677,0.180916 -0.88697,0.31749 -1.35065,0.409721 -0.46362,0.09223 -0.93182,0.138344 -1.4046,0.138348 h -95.59998 c -0.47278,-4e-6 -0.94101,-0.04612 -1.40466,-0.138348 -0.46368,-0.09223 -0.91391,-0.228805 -1.35068,-0.409721 -0.4368,-0.180916 -0.85174,-0.402699 -1.24484,-0.665352 -0.39304,-0.262649 -0.75671,-0.561119 -1.091,-0.895412 -0.33429,-0.334294 -0.63279,-0.697983 -0.89545,-1.091069 -0.26267,-0.393085 -0.48444,-0.808013 -0.66538,-1.244785 -0.18093,-0.436771 -0.3175,-0.886993 -0.40969,-1.350666 C 471.04608,39.740971 470.99997,39.272755 471,38.799999 V 13.2 c -3e-5,-0.472759 0.0461,-0.940976 0.13831,-1.404652 0.0922,-0.463674 0.22876,-0.913898 0.40969,-1.350671 0.18094,-0.436771 0.40274,-0.8516995 0.66541,-1.244784 0.26266,-0.3930845 0.56113,-0.756772 0.89542,-1.0910625 0.33429,-0.334291 0.69796,-0.632762 1.091,-0.895413 0.3931,-0.2626505 0.80801,-0.4844341 1.24478,-0.6653509 0.4368,-0.1809168 0.88702,-0.3174906 1.35074,-0.4097209 C 477.259,6.0461154 477.72723,6 478.20001,6 Z" /></g><g
           transform="scale(2.995255)"
           id="g9637"><text
             id="text9641"
             style="font-variant:normal;font-weight:normal;font-size:12px;font-family:Helvetica;-inkscape-font-specification:Helvetica;writing-mode:lr-tb;fill:#000000;fill-opacity:1;fill-rule:nonzero;stroke:none"
             transform="translate(477.96875,24)"><tspan
               id="tspan9639"
               y="0"
               x="0 6 12.673828 18.673828 22.007812 26.003906 32.003906 38.677734 42.011719 45.345703 51.345703 58.019531 60.685547 63.351562 70.025391 76.699219 80.033203 82.699219 89.373047">Test-set validation</tspan></text>
<text
             id="text9645"
             style="font-variant:normal;font-weight:normal;font-size:12px;font-family:Helvetica;-inkscape-font-specification:Helvetica;writing-mode:lr-tb;fill:#000000;fill-opacity:1;fill-rule:nonzero;stroke:none"
             transform="translate(477.64063,38)"><tspan
               id="tspan9643"
               y="0"
               x="0 6 12.673828 16.669922 20.666016 27.339844 34.013672 40.6875 44.021484 50.695312 54.029297 60.703125 67.376953 71.373047 74.707031 78.041016 84.714844 87.380859 90.046875">surrogate portfolio</tspan></text>
</g><g
           transform="matrix(2.995255,0,0,2.995255,1.4976275,1.4976275)"
           id="g9647"><path
             id="path9649"
             style="fill:none;stroke:#333333;stroke-width:1;stroke-linecap:butt;stroke-linejoin:miter;stroke-miterlimit:10;stroke-dasharray:none;stroke-opacity:1"
             d="m 452,26 h 10.88" /><path
             id="path9651"
             style="fill:#333333;fill-opacity:1;fill-rule:nonzero;stroke:none"
             d="m 469.88,26 -7,2.33 v -4.66 z" /><path
             id="path9653"
             style="fill:none;stroke:#333333;stroke-width:1;stroke-linecap:butt;stroke-linejoin:miter;stroke-miterlimit:10;stroke-dasharray:none;stroke-opacity:1"
             d="m 469.88,26 -7,2.33 v -4.66 z" /><path
             id="path9655"
             style="fill:none;stroke:#333333;stroke-width:1;stroke-linecap:butt;stroke-linejoin:miter;stroke-miterlimit:10;stroke-dasharray:none;stroke-opacity:1"
             d="M 427,51 V 86 H 239.12" /><path
             id="path9657"
             style="fill:#333333;fill-opacity:1;fill-rule:nonzero;stroke:none"
             d="m 232.12,86 7,-2.330002 v 4.660004 z" /><path
             id="path9659"
             style="fill:none;stroke:#333333;stroke-width:1;stroke-linecap:butt;stroke-linejoin:miter;stroke-miterlimit:10;stroke-dasharray:none;stroke-opacity:1"
             d="m 232.12,86 7,-2.330002 v 4.660004 z" /><path
             id="path9661"
             style="fill:none;stroke:#333333;stroke-width:1;stroke-linecap:butt;stroke-linejoin:miter;stroke-miterlimit:10;stroke-dasharray:none;stroke-opacity:1"
             d="M 427,1 452,26 427,51 402,26 Z" /><path
             id="path9663"
             style="fill:none;stroke:#333333;stroke-width:1;stroke-linecap:butt;stroke-linejoin:miter;stroke-miterlimit:10;stroke-dasharray:none;stroke-opacity:1"
             d="m 434.5,18.5 -15,15 m 0,-15 15,15" /><path
             id="path9665"
             style="fill:none;stroke:#333333;stroke-width:1;stroke-linecap:butt;stroke-linejoin:miter;stroke-miterlimit:10;stroke-dasharray:none;stroke-opacity:1"
             d="m 691,26 h 11.88" /><path
             id="path9667"
             style="fill:#333333;fill-opacity:1;fill-rule:nonzero;stroke:none"
             d="m 709.88,26 -7,2.33 v -4.66 z" /><path
             id="path9669"
             style="fill:none;stroke:#333333;stroke-width:1;stroke-linecap:butt;stroke-linejoin:miter;stroke-miterlimit:10;stroke-dasharray:none;stroke-opacity:1"
             d="m 709.88,26 -7,2.33 v -4.66 z" /><path
             id="path9671"
             style="fill:#ffffff;fill-opacity:1;fill-rule:nonzero;stroke:none"
             d="m 618.20001,6 h 65.59998 c 0.47272,0 0.94092,0.046115 1.4046,0.1383462 0.46368,0.09223 0.91388,0.2288036 1.35065,0.4097204 0.43676,0.1809168 0.85168,0.4027004 1.24475,0.6653514 0.39313,0.2626505 0.75683,0.5611215 1.09112,0.8954125 0.33429,0.3342905 0.63275,0.6979789 0.89539,1.0910635 0.26263,0.3930845 0.48444,0.808012 0.66534,1.244784 0.18091,0.436773 0.31751,0.886996 0.40973,1.350671 C 690.95386,12.259024 691,12.727241 691,13.2 v 25.599999 c 0,0.472756 -0.0461,0.940972 -0.13843,1.404648 -0.0922,0.463673 -0.22882,0.913899 -0.40973,1.35067 -0.1809,0.436771 -0.40271,0.8517 -0.66534,1.244785 -0.26264,0.393086 -0.5611,0.756771 -0.89539,1.091065 -0.33429,0.334293 -0.69799,0.632763 -1.09112,0.895412 -0.39307,0.262653 -0.80799,0.484436 -1.24475,0.665352 -0.43677,0.180916 -0.88697,0.31749 -1.35059,0.409721 -0.46368,0.09223 -0.93194,0.138344 -1.40466,0.138348 h -65.59998 c -0.47284,-4e-6 -0.94104,-0.04612 -1.40472,-0.138348 -0.46375,-0.09223 -0.914,-0.228805 -1.35077,-0.409721 -0.43677,-0.180916 -0.85169,-0.402699 -1.24475,-0.665352 -0.39313,-0.262649 -0.75678,-0.561119 -1.09101,-0.895412 -0.33428,-0.334294 -0.63281,-0.697983 -0.8955,-1.091069 -0.26264,-0.393085 -0.48438,-0.808013 -0.66529,-1.244785 -0.1809,-0.436771 -0.3175,-0.886993 -0.40973,-1.350666 -0.0922,-0.463676 -0.1383,-0.931892 -0.13824,-1.404648 L 611,13.2 c -6e-5,-0.472759 0.046,-0.940976 0.13824,-1.404652 0.0922,-0.463674 0.22883,-0.913898 0.40973,-1.350671 0.18091,-0.436771 0.40265,-0.8516995 0.66529,-1.244784 0.26269,-0.3930845 0.56122,-0.756772 0.8955,-1.0910625 0.33423,-0.334291 0.69788,-0.632762 1.09101,-0.895413 0.39313,-0.2626505 0.80804,-0.4844341 1.24481,-0.6653509 0.43677,-0.1809168 0.88702,-0.3174906 1.35071,-0.4097209 C 617.25897,6.0461154 617.72717,6 618.20001,6 Z" /><path
             id="path9673"
             style="fill:none;stroke:#333333;stroke-width:1;stroke-linecap:butt;stroke-linejoin:miter;stroke-miterlimit:10;stroke-dasharray:none;stroke-opacity:1"
             d="m 618.20001,6 h 65.59998 c 0.47272,0 0.94092,0.046115 1.4046,0.1383462 0.46368,0.09223 0.91388,0.2288036 1.35065,0.4097204 0.43676,0.1809168 0.85168,0.4027004 1.24475,0.6653514 0.39313,0.2626505 0.75683,0.5611215 1.09112,0.8954125 0.33429,0.3342905 0.63275,0.6979789 0.89539,1.0910635 0.26263,0.3930845 0.48444,0.808012 0.66534,1.244784 0.18091,0.436773 0.31751,0.886996 0.40973,1.350671 C 690.95386,12.259024 691,12.727241 691,13.2 v 25.599999 c 0,0.472756 -0.0461,0.940972 -0.13843,1.404648 -0.0922,0.463673 -0.22882,0.913899 -0.40973,1.35067 -0.1809,0.436771 -0.40271,0.8517 -0.66534,1.244785 -0.26264,0.393086 -0.5611,0.756771 -0.89539,1.091065 -0.33429,0.334293 -0.69799,0.632763 -1.09112,0.895412 -0.39307,0.262653 -0.80799,0.484436 -1.24475,0.665352 -0.43677,0.180916 -0.88697,0.31749 -1.35059,0.409721 -0.46368,0.09223 -0.93194,0.138344 -1.40466,0.138348 h -65.59998 c -0.47284,-4e-6 -0.94104,-0.04612 -1.40472,-0.138348 -0.46375,-0.09223 -0.914,-0.228805 -1.35077,-0.409721 -0.43677,-0.180916 -0.85169,-0.402699 -1.24475,-0.665352 -0.39313,-0.262649 -0.75678,-0.561119 -1.09101,-0.895412 -0.33428,-0.334294 -0.63281,-0.697983 -0.8955,-1.091069 -0.26264,-0.393085 -0.48438,-0.808013 -0.66529,-1.244785 -0.1809,-0.436771 -0.3175,-0.886993 -0.40973,-1.350666 -0.0922,-0.463676 -0.1383,-0.931892 -0.13824,-1.404648 L 611,13.2 c -6e-5,-0.472759 0.046,-0.940976 0.13824,-1.404652 0.0922,-0.463674 0.22883,-0.913898 0.40973,-1.350671 0.18091,-0.436771 0.40265,-0.8516995 0.66529,-1.244784 0.26269,-0.3930845 0.56122,-0.756772 0.8955,-1.0910625 0.33423,-0.334291 0.69788,-0.632762 1.09101,-0.895413 0.39313,-0.2626505 0.80804,-0.4844341 1.24481,-0.6653509 0.43677,-0.1809168 0.88702,-0.3174906 1.35071,-0.4097209 C 617.25897,6.0461154 617.72717,6 618.20001,6 Z" /></g><g
           transform="scale(2.995255)"
           id="g9675"><text
             id="text9679"
             style="font-variant:normal;font-weight:normal;font-size:12px;font-family:Helvetica;-inkscape-font-specification:Helvetica;writing-mode:lr-tb;fill:#000000;fill-opacity:1;fill-rule:nonzero;stroke:none"
             transform="translate(615.96875,31)"><tspan
               id="tspan9677"
               y="0"
               x="0 7.3300781 14.003906 18 24.673828 30.673828 37.347656 44.021484 46.6875 53.361328 56.695312 63.369141">Threshold #2</tspan></text>
</g><g
           transform="matrix(2.995255,0,0,2.995255,1.4976275,1.4976275)"
           id="g9681"><path
             id="path9683"
             style="fill:none;stroke:#333333;stroke-width:1;stroke-linecap:butt;stroke-linejoin:miter;stroke-miterlimit:10;stroke-dasharray:none;stroke-opacity:1"
             d="m 761,26 h 11.88" /><path
             id="path9685"
             style="fill:#333333;fill-opacity:1;fill-rule:nonzero;stroke:none"
             d="m 779.88,26 -7,2.33 v -4.66 z" /><path
             id="path9687"
             style="fill:none;stroke:#333333;stroke-width:1;stroke-linecap:butt;stroke-linejoin:miter;stroke-miterlimit:10;stroke-dasharray:none;stroke-opacity:1"
             d="m 779.88,26 -7,2.33 v -4.66 z" /><path
             id="path9689"
             style="fill:none;stroke:#333333;stroke-width:1;stroke-linecap:butt;stroke-linejoin:miter;stroke-miterlimit:10;stroke-dasharray:none;stroke-opacity:1"
             d="M 736,51 V 86 H 239.12" /><path
             id="path9691"
             style="fill:#333333;fill-opacity:1;fill-rule:nonzero;stroke:none"
             d="m 232.12,86 7,-2.330002 v 4.660004 z" /><path
             id="path9693"
             style="fill:none;stroke:#333333;stroke-width:1;stroke-linecap:butt;stroke-linejoin:miter;stroke-miterlimit:10;stroke-dasharray:none;stroke-opacity:1"
             d="m 232.12,86 7,-2.330002 v 4.660004 z" /><path
             id="path9695"
             style="fill:none;stroke:#333333;stroke-width:1;stroke-linecap:butt;stroke-linejoin:miter;stroke-miterlimit:10;stroke-dasharray:none;stroke-opacity:1"
             d="M 736,1 761,26 736,51 711,26 Z" /><path
             id="path9697"
             style="fill:none;stroke:#333333;stroke-width:1;stroke-linecap:butt;stroke-linejoin:miter;stroke-miterlimit:10;stroke-dasharray:none;stroke-opacity:1"
             d="m 743.5,18.5 -15,15 m 0,-15 15,15" /><path
             id="path9699"
             style="fill:none;stroke:#333333;stroke-width:1;stroke-linecap:butt;stroke-linejoin:miter;stroke-miterlimit:10;stroke-dasharray:none;stroke-opacity:1"
             d="m 811,46 v 80 H 84.800003 l -0.03001,-11.88" /><path
             id="path9701"
             style="fill:#333333;fill-opacity:1;fill-rule:nonzero;stroke:none"
             d="m 84.75,107.12 2.349998,6.99 -4.659996,0.01 z" /><path
             id="path9703"
             style="fill:none;stroke:#333333;stroke-width:1;stroke-linecap:butt;stroke-linejoin:miter;stroke-miterlimit:10;stroke-dasharray:none;stroke-opacity:1"
             d="m 84.75,107.12 2.349998,6.99 -4.659996,0.01 z" /><path
             id="path9705"
             style="fill:#ffffff;fill-opacity:1;fill-rule:nonzero;stroke:none"
             d="m 788.20001,6 h 45.59998 c 0.47272,0 0.94092,0.046115 1.4046,0.1383462 0.46362,0.09223 0.91382,0.2288036 1.35065,0.4097204 0.4367,0.1809168 0.85162,0.4027004 1.24475,0.6653514 0.39313,0.2626505 0.75683,0.5611215 1.09112,0.8954125 0.33429,0.3342905 0.63275,0.6979789 0.89539,1.0910635 0.26263,0.3930845 0.48437,0.808012 0.66534,1.244784 0.18091,0.436773 0.31751,0.886996 0.40973,1.350671 0.0922,0.463675 0.13837,0.931892 0.13843,1.404651 v 25.599999 c -6e-5,0.472756 -0.0462,0.940972 -0.13843,1.404648 -0.0922,0.463673 -0.22882,0.913899 -0.40973,1.35067 -0.18097,0.436771 -0.40271,0.8517 -0.66534,1.244785 -0.26264,0.393086 -0.5611,0.756771 -0.89539,1.091065 -0.33429,0.334293 -0.69799,0.632763 -1.09112,0.895412 -0.39313,0.262653 -0.80805,0.484436 -1.24475,0.665352 -0.43683,0.180916 -0.88703,0.31749 -1.35065,0.409721 -0.46368,0.09223 -0.93188,0.138344 -1.4046,0.138348 h -45.59998 c -0.47278,-4e-6 -0.94104,-0.04612 -1.40472,-0.138348 -0.46369,-0.09223 -0.91394,-0.228805 -1.35071,-0.409721 -0.43683,-0.180916 -0.85175,-0.402699 -1.24475,-0.665352 -0.39313,-0.262649 -0.75678,-0.561119 -1.09107,-0.895412 -0.33428,-0.334294 -0.63275,-0.697983 -0.89538,-1.091069 -0.2627,-0.393085 -0.4845,-0.808013 -0.66541,-1.244785 -0.1809,-0.436771 -0.3175,-0.886993 -0.40973,-1.350666 -0.0922,-0.463676 -0.1383,-0.931892 -0.13824,-1.404648 L 781,13.2 c -6e-5,-0.472759 0.046,-0.940976 0.13818,-1.404652 0.0923,-0.463674 0.22889,-0.913898 0.40979,-1.350671 0.18091,-0.436771 0.40271,-0.8516995 0.66541,-1.244784 0.26263,-0.3930845 0.5611,-0.756772 0.89538,-1.0910625 0.33429,-0.334291 0.69794,-0.632762 1.09101,-0.895413 0.39313,-0.2626505 0.80804,-0.4844341 1.24487,-0.6653509 0.43677,-0.1809168 0.88696,-0.3174906 1.35065,-0.4097209 C 787.25897,6.0461154 787.72723,6 788.20001,6 Z" /><path
             id="path9707"
             style="fill:none;stroke:#333333;stroke-width:1;stroke-linecap:butt;stroke-linejoin:miter;stroke-miterlimit:10;stroke-dasharray:none;stroke-opacity:1"
             d="m 788.20001,6 h 45.59998 c 0.47272,0 0.94092,0.046115 1.4046,0.1383462 0.46362,0.09223 0.91382,0.2288036 1.35065,0.4097204 0.4367,0.1809168 0.85162,0.4027004 1.24475,0.6653514 0.39313,0.2626505 0.75683,0.5611215 1.09112,0.8954125 0.33429,0.3342905 0.63275,0.6979789 0.89539,1.0910635 0.26263,0.3930845 0.48437,0.808012 0.66534,1.244784 0.18091,0.436773 0.31751,0.886996 0.40973,1.350671 0.0922,0.463675 0.13837,0.931892 0.13843,1.404651 v 25.599999 c -6e-5,0.472756 -0.0462,0.940972 -0.13843,1.404648 -0.0922,0.463673 -0.22882,0.913899 -0.40973,1.35067 -0.18097,0.436771 -0.40271,0.8517 -0.66534,1.244785 -0.26264,0.393086 -0.5611,0.756771 -0.89539,1.091065 -0.33429,0.334293 -0.69799,0.632763 -1.09112,0.895412 -0.39313,0.262653 -0.80805,0.484436 -1.24475,0.665352 -0.43683,0.180916 -0.88703,0.31749 -1.35065,0.409721 -0.46368,0.09223 -0.93188,0.138344 -1.4046,0.138348 h -45.59998 c -0.47278,-4e-6 -0.94104,-0.04612 -1.40472,-0.138348 -0.46369,-0.09223 -0.91394,-0.228805 -1.35071,-0.409721 -0.43683,-0.180916 -0.85175,-0.402699 -1.24475,-0.665352 -0.39313,-0.262649 -0.75678,-0.561119 -1.09107,-0.895412 -0.33428,-0.334294 -0.63275,-0.697983 -0.89538,-1.091069 -0.2627,-0.393085 -0.4845,-0.808013 -0.66541,-1.244785 -0.1809,-0.436771 -0.3175,-0.886993 -0.40973,-1.350666 -0.0922,-0.463676 -0.1383,-0.931892 -0.13824,-1.404648 L 781,13.2 c -6e-5,-0.472759 0.046,-0.940976 0.13818,-1.404652 0.0923,-0.463674 0.22889,-0.913898 0.40979,-1.350671 0.18091,-0.436771 0.40271,-0.8516995 0.66541,-1.244784 0.26263,-0.3930845 0.5611,-0.756772 0.89538,-1.0910625 0.33429,-0.334291 0.69794,-0.632762 1.09101,-0.895413 0.39313,-0.2626505 0.80804,-0.4844341 1.24487,-0.6653509 0.43677,-0.1809168 0.88696,-0.3174906 1.35065,-0.4097209 C 787.25897,6.0461154 787.72723,6 788.20001,6 Z" /></g><g
           transform="scale(2.995255)"
           id="g9709"><text
             id="text9713"
             style="font-variant:normal;font-weight:normal;font-size:12px;font-family:Helvetica;-inkscape-font-specification:Helvetica;writing-mode:lr-tb;fill:#000000;fill-opacity:1;fill-rule:nonzero;stroke:none"
             transform="translate(787.32813,31)"><tspan
               id="tspan9711"
               y="0"
               x="0 9.3339844 16.007812 19.341797 22.007812 32.003906 34.669922 40.669922">Optimize</tspan></text>
</g><g
           transform="matrix(2.995255,0,0,2.995255,1.4976275,1.4976275)"
           id="g9715"><path
             id="path9717"
             style="fill:none;stroke:#333333;stroke-width:1;stroke-linecap:butt;stroke-linejoin:miter;stroke-miterlimit:10;stroke-dasharray:none;stroke-opacity:1"
             d="M 48.5,86 H 29.120001" /><path
             id="path9719"
             style="fill:#333333;fill-opacity:1;fill-rule:nonzero;stroke:none"
             d="m 22.120001,86 7,-2.330002 v 4.660004 z" /><path
             id="path9721"
             style="fill:none;stroke:#333333;stroke-width:1;stroke-linecap:butt;stroke-linejoin:miter;stroke-miterlimit:10;stroke-dasharray:none;stroke-opacity:1"
             d="m 22.120001,86 7,-2.330002 v 4.660004 z" /><path
             id="path9723"
             style="fill:#ffffff;fill-opacity:1;fill-rule:nonzero;stroke:none"
             d="M 55.700001,66 H 113.8 c 0.47276,0 0.94097,0.04611 1.40464,0.138344 0.46367,0.09222 0.9139,0.228798 1.35067,0.409714 0.43678,0.180915 0.8517,0.402702 1.24479,0.665351 0.39308,0.26265 0.75678,0.56112 1.09107,0.895417 0.33429,0.334289 0.63276,0.697975 0.89541,1.091057 0.26264,0.393089 0.48442,0.808013 0.66534,1.244789 0.18091,0.436775 0.31749,0.886993 0.40972,1.350669 0.0922,0.463677 0.13836,0.931893 0.13836,1.404656 v 25.600006 c 0,0.472755 -0.0461,0.940964 -0.13835,1.404637 -0.0922,0.46368 -0.22881,0.9139 -0.40972,1.35066 -0.18092,0.43678 -0.4027,0.85171 -0.66535,1.24479 -0.26265,0.39309 -0.56112,0.75678 -0.89541,1.09107 -0.33429,0.33429 -0.69799,0.63276 -1.09107,0.89541 -0.39309,0.26265 -0.80801,0.48443 -1.24479,0.66535 -0.43677,0.18091 -0.887,0.31749 -1.35067,0.40972 -0.46367,0.0922 -0.93188,0.13835 -1.40464,0.13836 H 55.700001 c -0.472759,-1e-5 -0.940979,-0.0461 -1.404656,-0.13836 -0.463676,-0.0922 -0.913902,-0.22881 -1.350673,-0.40972 -0.436776,-0.18092 -0.851704,-0.4027 -1.244786,-0.66535 -0.393085,-0.26265 -0.756771,-0.56112 -1.09106,-0.89541 -0.334294,-0.33429 -0.632763,-0.69798 -0.895417,-1.09107 -0.262653,-0.39308 -0.484436,-0.80801 -0.665351,-1.24479 -0.18092,-0.43676 -0.31749,-0.88698 -0.409718,-1.35066 C 48.546112,99.740967 48.5,99.272758 48.5,98.800003 V 73.199997 c 0,-0.472763 0.04612,-0.940979 0.138344,-1.404656 0.09222,-0.463676 0.228794,-0.913894 0.409714,-1.350669 0.180915,-0.436776 0.402698,-0.8517 0.665351,-1.244789 0.262654,-0.393082 0.561123,-0.756768 0.895417,-1.091057 0.334289,-0.334297 0.697975,-0.632767 1.09106,-0.895417 0.393082,-0.262649 0.80801,-0.484436 1.244786,-0.665351 0.436771,-0.180916 0.886997,-0.31749 1.350669,-0.409714 C 54.759022,66.046112 55.227242,66 55.700001,66 Z" /><path
             id="path9725"
             style="fill:none;stroke:#333333;stroke-width:1;stroke-linecap:butt;stroke-linejoin:miter;stroke-miterlimit:10;stroke-dasharray:none;stroke-opacity:1"
             d="M 55.700001,66 H 113.8 c 0.47276,0 0.94097,0.04611 1.40464,0.138344 0.46367,0.09222 0.9139,0.228798 1.35067,0.409714 0.43678,0.180915 0.8517,0.402702 1.24479,0.665351 0.39308,0.26265 0.75678,0.56112 1.09107,0.895417 0.33429,0.334289 0.63276,0.697975 0.89541,1.091057 0.26264,0.393089 0.48442,0.808013 0.66534,1.244789 0.18091,0.436775 0.31749,0.886993 0.40972,1.350669 0.0922,0.463677 0.13836,0.931893 0.13836,1.404656 v 25.600006 c 0,0.472755 -0.0461,0.940964 -0.13835,1.404637 -0.0922,0.46368 -0.22881,0.9139 -0.40972,1.35066 -0.18092,0.43678 -0.4027,0.85171 -0.66535,1.24479 -0.26265,0.39309 -0.56112,0.75678 -0.89541,1.09107 -0.33429,0.33429 -0.69799,0.63276 -1.09107,0.89541 -0.39309,0.26265 -0.80801,0.48443 -1.24479,0.66535 -0.43677,0.18091 -0.887,0.31749 -1.35067,0.40972 -0.46367,0.0922 -0.93188,0.13835 -1.40464,0.13836 H 55.700001 c -0.472759,-1e-5 -0.940979,-0.0461 -1.404656,-0.13836 -0.463676,-0.0922 -0.913902,-0.22881 -1.350673,-0.40972 -0.436776,-0.18092 -0.851704,-0.4027 -1.244786,-0.66535 -0.393085,-0.26265 -0.756771,-0.56112 -1.09106,-0.89541 -0.334294,-0.33429 -0.632763,-0.69798 -0.895417,-1.09107 -0.262653,-0.39308 -0.484436,-0.80801 -0.665351,-1.24479 -0.18092,-0.43676 -0.31749,-0.88698 -0.409718,-1.35066 C 48.546112,99.740967 48.5,99.272758 48.5,98.800003 V 73.199997 c 0,-0.472763 0.04612,-0.940979 0.138344,-1.404656 0.09222,-0.463676 0.228794,-0.913894 0.409714,-1.350669 0.180915,-0.436776 0.402698,-0.8517 0.665351,-1.244789 0.262654,-0.393082 0.561123,-0.756768 0.895417,-1.091057 0.334289,-0.334297 0.697975,-0.632767 1.09106,-0.895417 0.393082,-0.262649 0.80801,-0.484436 1.244786,-0.665351 0.436771,-0.180916 0.886997,-0.31749 1.350669,-0.409714 C 54.759022,66.046112 55.227242,66 55.700001,66 Z" /></g><g
           transform="scale(2.995255)"
           id="g9727"><text
             id="text9731"
             style="font-variant:normal;font-weight:normal;font-size:12px;font-family:Helvetica;-inkscape-font-specification:Helvetica;writing-mode:lr-tb;fill:#000000;fill-opacity:1;fill-rule:nonzero;stroke:none"
             transform="translate(58.8125,91)"><tspan
               id="tspan9729"
               y="0"
               x="0 8.0039062 12 18.673828 25.347656 28.013672 34.013672 37.347656 40.013672 46.6875">Prediction</tspan></text>
</g><g
           transform="matrix(2.995255,0,0,2.995255,1.4976275,1.4976275)"
           id="g9733"><path
             id="path9735"
             style="fill:none;stroke:#333333;stroke-width:1;stroke-linecap:butt;stroke-linejoin:miter;stroke-miterlimit:10;stroke-dasharray:none;stroke-opacity:1"
             d="M 152.75,86 H 132.8 141 129.11999" /><path
             id="path9737"
             style="fill:#333333;fill-opacity:1;fill-rule:nonzero;stroke:none"
             d="m 122.12,86 6.99999,-2.330002 v 4.660004 z" /><path
             id="path9739"
             style="fill:none;stroke:#333333;stroke-width:1;stroke-linecap:butt;stroke-linejoin:miter;stroke-miterlimit:10;stroke-dasharray:none;stroke-opacity:1"
             d="m 122.12,86 6.99999,-2.330002 v 4.660004 z" /><path
             id="path9741"
             style="fill:#ffffff;fill-opacity:1;fill-rule:nonzero;stroke:none"
             d="m 159.95,66 h 63.85 c 0.47277,0 0.94097,0.04611 1.40464,0.138344 0.46366,0.09222 0.91389,0.228798 1.35066,0.409714 0.43677,0.180915 0.8517,0.402702 1.24478,0.665351 0.39308,0.26265 0.75677,0.56112 1.09108,0.895417 0.33427,0.334289 0.63275,0.697975 0.8954,1.091057 0.26265,0.393089 0.48444,0.808013 0.66536,1.244789 0.18092,0.436775 0.31749,0.886993 0.40973,1.350669 0.0922,0.463677 0.13835,0.931893 0.13835,1.404656 v 25.600006 c 0,0.472755 -0.0461,0.940964 -0.13835,1.404637 -0.0922,0.46368 -0.22881,0.9139 -0.40973,1.35066 -0.18092,0.43678 -0.40271,0.85171 -0.66536,1.24479 -0.26265,0.39309 -0.56113,0.75678 -0.8954,1.09107 -0.33431,0.33429 -0.698,0.63276 -1.09108,0.89541 -0.39308,0.26265 -0.80801,0.48443 -1.2448,0.66535 -0.43676,0.18091 -0.88698,0.31749 -1.35064,0.40972 -0.46367,0.0922 -0.93187,0.13835 -1.40464,0.13836 h -63.85 c -0.47277,-1e-5 -0.941,-0.0461 -1.40467,-0.13836 -0.46367,-0.0922 -0.91389,-0.22881 -1.35067,-0.40972 -0.43677,-0.18092 -0.8517,-0.4027 -1.24479,-0.66535 -0.39308,-0.26265 -0.75676,-0.56112 -1.09104,-0.89541 -0.33429,-0.33429 -0.63277,-0.69798 -0.89544,-1.09107 -0.26265,-0.39308 -0.48443,-0.80801 -0.66534,-1.24479 -0.18092,-0.43676 -0.31749,-0.88698 -0.40971,-1.35066 -0.0922,-0.463673 -0.13836,-0.931882 -0.13834,-1.404637 V 73.199997 c -2e-5,-0.472763 0.0461,-0.940979 0.13834,-1.404656 0.0922,-0.463676 0.22879,-0.913894 0.40971,-1.350669 0.18091,-0.436776 0.40269,-0.8517 0.66534,-1.244789 0.26267,-0.393082 0.56115,-0.756768 0.89544,-1.091057 0.33428,-0.334297 0.69796,-0.632767 1.09104,-0.895417 0.39309,-0.262649 0.80802,-0.484436 1.24479,-0.665351 0.43678,-0.180916 0.887,-0.31749 1.35067,-0.409714 C 159.009,66.046112 159.47723,66 159.95,66 Z" /><path
             id="path9743"
             style="fill:none;stroke:#333333;stroke-width:1;stroke-linecap:butt;stroke-linejoin:miter;stroke-miterlimit:10;stroke-dasharray:none;stroke-opacity:1"
             d="m 159.95,66 h 63.85 c 0.47277,0 0.94097,0.04611 1.40464,0.138344 0.46366,0.09222 0.91389,0.228798 1.35066,0.409714 0.43677,0.180915 0.8517,0.402702 1.24478,0.665351 0.39308,0.26265 0.75677,0.56112 1.09108,0.895417 0.33427,0.334289 0.63275,0.697975 0.8954,1.091057 0.26265,0.393089 0.48444,0.808013 0.66536,1.244789 0.18092,0.436775 0.31749,0.886993 0.40973,1.350669 0.0922,0.463677 0.13835,0.931893 0.13835,1.404656 v 25.600006 c 0,0.472755 -0.0461,0.940964 -0.13835,1.404637 -0.0922,0.46368 -0.22881,0.9139 -0.40973,1.35066 -0.18092,0.43678 -0.40271,0.85171 -0.66536,1.24479 -0.26265,0.39309 -0.56113,0.75678 -0.8954,1.09107 -0.33431,0.33429 -0.698,0.63276 -1.09108,0.89541 -0.39308,0.26265 -0.80801,0.48443 -1.2448,0.66535 -0.43676,0.18091 -0.88698,0.31749 -1.35064,0.40972 -0.46367,0.0922 -0.93187,0.13835 -1.40464,0.13836 h -63.85 c -0.47277,-1e-5 -0.941,-0.0461 -1.40467,-0.13836 -0.46367,-0.0922 -0.91389,-0.22881 -1.35067,-0.40972 -0.43677,-0.18092 -0.8517,-0.4027 -1.24479,-0.66535 -0.39308,-0.26265 -0.75676,-0.56112 -1.09104,-0.89541 -0.33429,-0.33429 -0.63277,-0.69798 -0.89544,-1.09107 -0.26265,-0.39308 -0.48443,-0.80801 -0.66534,-1.24479 -0.18092,-0.43676 -0.31749,-0.88698 -0.40971,-1.35066 -0.0922,-0.463673 -0.13836,-0.931882 -0.13834,-1.404637 V 73.199997 c -2e-5,-0.472763 0.0461,-0.940979 0.13834,-1.404656 0.0922,-0.463676 0.22879,-0.913894 0.40971,-1.350669 0.18091,-0.436776 0.40269,-0.8517 0.66534,-1.244789 0.26267,-0.393082 0.56115,-0.756768 0.89544,-1.091057 0.33428,-0.334297 0.69796,-0.632767 1.09104,-0.895417 0.39309,-0.262649 0.80802,-0.484436 1.24479,-0.665351 0.43678,-0.180916 0.887,-0.31749 1.35067,-0.409714 C 159.009,66.046112 159.47723,66 159.95,66 Z" /></g><g
           transform="scale(2.995255)"
           id="g9745"><text
             id="text9749"
             style="font-variant:normal;font-weight:normal;font-size:12px;font-family:Helvetica;-inkscape-font-specification:Helvetica;writing-mode:lr-tb;fill:#000000;fill-opacity:1;fill-rule:nonzero;stroke:none"
             transform="translate(166.98437,84)"><tspan
               id="tspan9747"
               y="0"
               x="0 8.0039062 14.677734 24.673828 31.347656 34.013672 36.679688 43.353516">Sampling</tspan></text>
<text
             id="text9753"
             style="font-variant:normal;font-weight:normal;font-size:12px;font-family:Helvetica;-inkscape-font-specification:Helvetica;writing-mode:lr-tb;fill:#000000;fill-opacity:1;fill-rule:nonzero;stroke:none"
             transform="translate(180.65625,98)"><tspan
               id="tspan9751"
               y="0"
               x="0 6.6738281 9.3398438 16.013672">plan</tspan></text>
</g><g
           transform="matrix(2.995255,0,0,2.995255,1.4976275,1.4976275)"
           id="g9755"><path
             id="path9757"
             style="fill:#ffffff;fill-opacity:1;fill-rule:nonzero;stroke:none"
             d="m 21,86 c -2e-6,0.656609 -0.06405,1.306908 -0.19215,1.950897 -0.128098,0.64399 -0.317783,1.269303 -0.569056,1.875931 -0.251274,0.606628 -0.559307,1.182915 -0.924101,1.728867 -0.364791,0.545951 -0.779333,1.051071 -1.243625,1.515365 -0.464295,0.464287 -0.969418,0.87883 -1.515368,1.243622 -0.54595,0.364792 -1.122239,0.672829 -1.728866,0.924103 -0.606629,0.251274 -1.231939,0.440956 -1.875931,0.569053 C 12.30691,95.935936 11.656609,95.999992 11,96 10.343391,95.999992 9.6930885,95.935936 9.0490961,95.807831 8.4051027,95.679741 7.7797923,95.490059 7.1731648,95.238785 6.5665369,94.987511 5.9902477,94.679474 5.4442973,94.314682 4.8983464,93.94989 4.3932247,93.535347 3.928932,93.07106 3.4646389,92.606766 3.050096,92.101646 2.6853034,91.555695 2.3205109,91.009743 2.0124779,90.433456 1.7612045,89.826828 1.5099308,89.2202 1.3202452,88.594887 1.1921471,87.950897 1.064049,87.306908 0.99999994,86.656609 1,86 c -6e-8,-0.656609 0.064049,-1.306915 0.192147,-1.950912 0.1280982,-0.64399 0.3177838,-1.269303 0.5690575,-1.875931 C 2.0124779,81.566528 2.3205109,80.990242 2.6853034,80.44429 3.050096,79.898338 3.4646389,79.393219 3.928932,78.928925 4.3932247,78.464638 4.8983464,78.050087 5.4442973,77.685287 5.9902477,77.320496 6.5665369,77.012466 7.1731648,76.761192 7.7797923,76.509918 8.4051027,76.320236 9.0490961,76.192139 9.6930885,76.064049 10.343391,76 11,76 c 0.656609,0 1.30691,0.06405 1.950903,0.192139 0.643992,0.128097 1.269302,0.317779 1.875931,0.569053 0.606627,0.251274 1.182916,0.559304 1.728866,0.924095 0.54595,0.3648 1.051073,0.779351 1.515368,1.243638 0.464292,0.464294 0.878834,0.969413 1.243625,1.515365 0.364794,0.545952 0.672827,1.122238 0.924101,1.728867 0.251273,0.606628 0.440958,1.231941 0.569056,1.875931 C 20.935949,84.693085 20.999998,85.343391 21,86 Z" /><path
             id="path9759"
             style="fill:none;stroke:#333333;stroke-width:1;stroke-linecap:butt;stroke-linejoin:miter;stroke-miterlimit:10;stroke-dasharray:none;stroke-opacity:1"
             d="m 21,86 c -2e-6,0.656609 -0.06405,1.306908 -0.19215,1.950897 -0.128098,0.64399 -0.317783,1.269303 -0.569056,1.875931 -0.251274,0.606628 -0.559307,1.182915 -0.924101,1.728867 -0.364791,0.545951 -0.779333,1.051071 -1.243625,1.515365 -0.464295,0.464287 -0.969418,0.87883 -1.515368,1.243622 -0.54595,0.364792 -1.122239,0.672829 -1.728866,0.924103 -0.606629,0.251274 -1.231939,0.440956 -1.875931,0.569053 C 12.30691,95.935936 11.656609,95.999992 11,96 10.343391,95.999992 9.6930885,95.935936 9.0490961,95.807831 8.4051027,95.679741 7.7797923,95.490059 7.1731648,95.238785 6.5665369,94.987511 5.9902477,94.679474 5.4442973,94.314682 4.8983464,93.94989 4.3932247,93.535347 3.928932,93.07106 3.4646389,92.606766 3.050096,92.101646 2.6853034,91.555695 2.3205109,91.009743 2.0124779,90.433456 1.7612045,89.826828 1.5099308,89.2202 1.3202452,88.594887 1.1921471,87.950897 1.064049,87.306908 0.99999994,86.656609 1,86 c -6e-8,-0.656609 0.064049,-1.306915 0.192147,-1.950912 0.1280982,-0.64399 0.3177838,-1.269303 0.5690575,-1.875931 C 2.0124779,81.566528 2.3205109,80.990242 2.6853034,80.44429 3.050096,79.898338 3.4646389,79.393219 3.928932,78.928925 4.3932247,78.464638 4.8983464,78.050087 5.4442973,77.685287 5.9902477,77.320496 6.5665369,77.012466 7.1731648,76.761192 7.7797923,76.509918 8.4051027,76.320236 9.0490961,76.192139 9.6930885,76.064049 10.343391,76 11,76 c 0.656609,0 1.30691,0.06405 1.950903,0.192139 0.643992,0.128097 1.269302,0.317779 1.875931,0.569053 0.606627,0.251274 1.182916,0.559304 1.728866,0.924095 0.54595,0.3648 1.051073,0.779351 1.515368,1.243638 0.464292,0.464294 0.878834,0.969413 1.243625,1.515365 0.364794,0.545952 0.672827,1.122238 0.924101,1.728867 0.251273,0.606628 0.440958,1.231941 0.569056,1.875931 C 20.935949,84.693085 20.999998,85.343391 21,86 Z" /><path
             id="path9761"
             style="fill:#333333;fill-opacity:1;fill-rule:nonzero;stroke:none"
             d="m 20,86 c -2e-6,0.590942 -0.05765,1.176208 -0.172935,1.755806 -0.115288,0.579597 -0.286006,1.142372 -0.512152,1.688332 -0.226145,0.545967 -0.503374,1.064628 -0.831688,1.555984 -0.328312,0.491356 -0.701401,0.945961 -1.119265,1.363831 -0.417864,0.417862 -0.872474,0.790947 -1.36383,1.119262 -0.491355,0.328316 -1.010015,0.605545 -1.55598,0.831688 -0.545964,0.226151 -1.108744,0.396866 -1.688338,0.512154 C 12.176219,94.942345 11.590948,94.999992 11,95 10.409051,94.999992 9.8237801,94.942345 9.2441864,94.827057 8.6645927,94.711769 8.1018133,94.541054 7.5558481,94.314903 7.0098829,94.08876 6.4912229,93.811531 5.9998674,93.483215 5.508512,93.1549 5.0539021,92.781815 4.6360388,92.363953 4.2181749,91.946083 3.8450863,91.491478 3.5167732,91.000122 3.1884601,90.508766 2.9112303,89.990105 2.6850839,89.444138 2.4589376,88.898178 2.2882204,88.335403 2.1729324,87.755806 2.0576439,87.176208 1.9999999,86.590942 2,86 1.9999999,85.40905 2.057644,84.823784 2.1729324,84.244186 2.2882204,83.664589 2.4589376,83.101807 2.6850839,82.55584 2.9112303,82.009872 3.1884601,81.491211 3.5167732,80.999855 3.8450863,80.508499 4.2181749,80.053894 4.6360388,79.636032 5.0539021,79.21817 5.508512,78.845078 5.9998674,78.516754 6.4912229,78.188446 7.0098829,77.911217 7.5558481,77.685074 8.1018133,77.458931 8.6645927,77.288216 9.2441864,77.172928 9.8237801,77.057648 10.409051,77.000008 11,77 c 0.590948,8e-6 1.176219,0.05765 1.755812,0.172928 0.579594,0.115288 1.142374,0.286003 1.688338,0.512146 0.545965,0.226143 1.064626,0.503372 1.555982,0.83168 0.491354,0.328324 0.945964,0.701416 1.363828,1.119278 0.417864,0.417862 0.790953,0.872467 1.119265,1.363823 0.328314,0.491356 0.605543,1.010017 0.831688,1.555985 0.226146,0.545967 0.396864,1.108749 0.512152,1.688346 C 19.942354,84.823784 19.999998,85.40905 20,86 Z" /><path
             id="path9763"
             style="fill:none;stroke:#ffffff;stroke-width:1;stroke-linecap:butt;stroke-linejoin:miter;stroke-miterlimit:10;stroke-dasharray:none;stroke-opacity:1"
             d="m 20,86 c -2e-6,0.590942 -0.05765,1.176208 -0.172935,1.755806 -0.115288,0.579597 -0.286006,1.142372 -0.512152,1.688332 -0.226145,0.545967 -0.503374,1.064628 -0.831688,1.555984 -0.328312,0.491356 -0.701401,0.945961 -1.119265,1.363831 -0.417864,0.417862 -0.872474,0.790947 -1.36383,1.119262 -0.491355,0.328316 -1.010015,0.605545 -1.55598,0.831688 -0.545964,0.226151 -1.108744,0.396866 -1.688338,0.512154 C 12.176219,94.942345 11.590948,94.999992 11,95 10.409051,94.999992 9.8237801,94.942345 9.2441864,94.827057 8.6645927,94.711769 8.1018133,94.541054 7.5558481,94.314903 7.0098829,94.08876 6.4912229,93.811531 5.9998674,93.483215 5.508512,93.1549 5.0539021,92.781815 4.6360388,92.363953 4.2181749,91.946083 3.8450863,91.491478 3.5167732,91.000122 3.1884601,90.508766 2.9112303,89.990105 2.6850839,89.444138 2.4589376,88.898178 2.2882204,88.335403 2.1729324,87.755806 2.0576439,87.176208 1.9999999,86.590942 2,86 1.9999999,85.40905 2.057644,84.823784 2.1729324,84.244186 2.2882204,83.664589 2.4589376,83.101807 2.6850839,82.55584 2.9112303,82.009872 3.1884601,81.491211 3.5167732,80.999855 3.8450863,80.508499 4.2181749,80.053894 4.6360388,79.636032 5.0539021,79.21817 5.508512,78.845078 5.9998674,78.516754 6.4912229,78.188446 7.0098829,77.911217 7.5558481,77.685074 8.1018133,77.458931 8.6645927,77.288216 9.2441864,77.172928 9.8237801,77.057648 10.409051,77.000008 11,77 c 0.590948,8e-6 1.176219,0.05765 1.755812,0.172928 0.579594,0.115288 1.142374,0.286003 1.688338,0.512146 0.545965,0.226143 1.064626,0.503372 1.555982,0.83168 0.491354,0.328324 0.945964,0.701416 1.363828,1.119278 0.417864,0.417862 0.790953,0.872467 1.119265,1.363823 0.328314,0.491356 0.605543,1.010017 0.831688,1.555985 0.226146,0.545967 0.396864,1.108749 0.512152,1.688346 C 19.942354,84.823784 19.999998,85.40905 20,86 Z" /></g></g></g></g></svg>